<?xml version="1.0" encoding="utf-8" standalone="no"?>
<!DOCTYPE svg PUBLIC "-//W3C//DTD SVG 1.1//EN"
  "http://www.w3.org/Graphics/SVG/1.1/DTD/svg11.dtd">
<svg xmlns:xlink="http://www.w3.org/1999/xlink" width="834.725pt" height="514.737965pt" viewBox="0 0 834.725 514.737965" xmlns="http://www.w3.org/2000/svg" version="1.1">
 <metadata>
  <rdf:RDF xmlns:dc="http://purl.org/dc/elements/1.1/" xmlns:cc="http://creativecommons.org/ns#" xmlns:rdf="http://www.w3.org/1999/02/22-rdf-syntax-ns#">
   <cc:Work>
    <dc:type rdf:resource="http://purl.org/dc/dcmitype/StillImage"/>
    <dc:date>2025-12-30T15:08:05.583790</dc:date>
    <dc:format>image/svg+xml</dc:format>
    <dc:creator>
     <cc:Agent>
      <dc:title>Matplotlib v3.10.8, https://matplotlib.org/</dc:title>
     </cc:Agent>
    </dc:creator>
   </cc:Work>
  </rdf:RDF>
 </metadata>
 <defs>
  <style type="text/css">*{stroke-linejoin: round; stroke-linecap: butt}</style>
 </defs>
 <g id="figure_1">
  <g id="patch_1">
   <path d="M 0 514.737965 
L 834.725 514.737965 
L 834.725 0 
L 0 0 
z
" style="fill: #ffffff"/>
  </g>
  <g id="axes_1">
   <g id="patch_2">
    <path d="M 46.325 467.6575 
L 827.525 467.6575 
L 827.525 24.1375 
L 46.325 24.1375 
z
" style="fill: #ffffff"/>
   </g>
   <g id="patch_3">
    <path d="M 83.794934 447.4975 
L 84.151451 447.4975 
L 84.151451 434.865702 
L 83.794934 434.865702 
z
" clip-path="url(#pedb524a5f0)" style="fill: #ff0000"/>
   </g>
   <g id="patch_4">
    <path d="M 90.925274 433.651094 
L 91.281791 433.651094 
L 91.281791 414.212594 
L 90.925274 414.212594 
z
" clip-path="url(#pedb524a5f0)" style="fill: #ff0000"/>
   </g>
   <g id="patch_5">
    <path d="M 98.055613 416.533137 
L 98.41213 416.533137 
L 98.41213 395.640361 
L 98.055613 395.640361 
z
" clip-path="url(#pedb524a5f0)" style="fill: #ff0000"/>
   </g>
   <g id="patch_6">
    <path d="M 112.316292 406.440261 
L 112.672809 406.440261 
L 112.672809 395.510622 
L 112.316292 395.510622 
z
" clip-path="url(#pedb524a5f0)" style="fill: #ff0000"/>
   </g>
   <g id="patch_7">
    <path d="M 126.576972 397.709607 
L 126.933488 397.709607 
L 126.933488 386.96472 
L 126.576972 386.96472 
z
" clip-path="url(#pedb524a5f0)" style="fill: #ff0000"/>
   </g>
   <g id="patch_8">
    <path d="M 133.707311 392.97241 
L 134.063828 392.97241 
L 134.063828 374.050803 
L 133.707311 374.050803 
z
" clip-path="url(#pedb524a5f0)" style="fill: #ff0000"/>
   </g>
   <g id="patch_9">
    <path d="M 147.96799 393.874653 
L 148.324507 393.874653 
L 148.324507 377.316685 
L 147.96799 377.316685 
z
" clip-path="url(#pedb524a5f0)" style="fill: #ff0000"/>
   </g>
   <g id="patch_10">
    <path d="M 162.228669 382.351141 
L 162.585186 382.351141 
L 162.585186 367.98182 
L 162.228669 367.98182 
z
" clip-path="url(#pedb524a5f0)" style="fill: #ff0000"/>
   </g>
   <g id="patch_11">
    <path d="M 169.359009 375.819441 
L 169.715526 375.819441 
L 169.715526 356.229172 
L 169.359009 356.229172 
z
" clip-path="url(#pedb524a5f0)" style="fill: #ff0000"/>
   </g>
   <g id="patch_12">
    <path d="M 183.619688 372.872945 
L 183.976205 372.872945 
L 183.976205 358.509163 
L 183.619688 358.509163 
z
" clip-path="url(#pedb524a5f0)" style="fill: #ff0000"/>
   </g>
   <g id="patch_13">
    <path d="M 190.750027 357.671628 
L 191.106544 357.671628 
L 191.106544 348.593083 
L 190.750027 348.593083 
z
" clip-path="url(#pedb524a5f0)" style="fill: #ff0000"/>
   </g>
   <g id="patch_14">
    <path d="M 197.880367 348.713867 
L 198.236884 348.713867 
L 198.236884 339.367407 
L 197.880367 339.367407 
z
" clip-path="url(#pedb524a5f0)" style="fill: #ff0000"/>
   </g>
   <g id="patch_15">
    <path d="M 205.010706 344.424538 
L 205.367223 344.424538 
L 205.367223 326.403404 
L 205.010706 326.403404 
z
" clip-path="url(#pedb524a5f0)" style="fill: #ff0000"/>
   </g>
   <g id="patch_16">
    <path d="M 219.271386 329.469041 
L 219.627903 329.469041 
L 219.627903 313.773603 
L 219.271386 313.773603 
z
" clip-path="url(#pedb524a5f0)" style="fill: #ff0000"/>
   </g>
   <g id="patch_17">
    <path d="M 233.532065 324.855913 
L 233.888582 324.855913 
L 233.888582 313.184239 
L 233.532065 313.184239 
z
" clip-path="url(#pedb524a5f0)" style="fill: #ff0000"/>
   </g>
   <g id="patch_18">
    <path d="M 240.662404 321.213667 
L 241.018921 321.213667 
L 241.018921 306.58593 
L 240.662404 306.58593 
z
" clip-path="url(#pedb524a5f0)" style="fill: #ff0000"/>
   </g>
   <g id="patch_19">
    <path d="M 262.053423 351.546214 
L 262.40994 351.546214 
L 262.40994 337.818338 
L 262.053423 337.818338 
z
" clip-path="url(#pedb524a5f0)" style="fill: #ff0000"/>
   </g>
   <g id="patch_20">
    <path d="M 269.183762 336.146907 
L 269.540279 336.146907 
L 269.540279 326.645842 
L 269.183762 326.645842 
z
" clip-path="url(#pedb524a5f0)" style="fill: #ff0000"/>
   </g>
   <g id="patch_21">
    <path d="M 276.314102 328.48183 
L 276.670619 328.48183 
L 276.670619 316.149674 
L 276.314102 316.149674 
z
" clip-path="url(#pedb524a5f0)" style="fill: #ff0000"/>
   </g>
   <g id="patch_22">
    <path d="M 283.444441 323.41539 
L 283.800958 323.41539 
L 283.800958 310.339492 
L 283.444441 310.339492 
z
" clip-path="url(#pedb524a5f0)" style="fill: #ff0000"/>
   </g>
   <g id="patch_23">
    <path d="M 290.574781 316.151092 
L 290.931298 316.151092 
L 290.931298 305.367393 
L 290.574781 305.367393 
z
" clip-path="url(#pedb524a5f0)" style="fill: #ff0000"/>
   </g>
   <g id="patch_24">
    <path d="M 297.70512 305.477258 
L 298.061637 305.477258 
L 298.061637 289.726839 
L 297.70512 289.726839 
z
" clip-path="url(#pedb524a5f0)" style="fill: #ff0000"/>
   </g>
   <g id="patch_25">
    <path d="M 304.83546 301.285233 
L 305.191977 301.285233 
L 305.191977 278.57982 
L 304.83546 278.57982 
z
" clip-path="url(#pedb524a5f0)" style="fill: #ff0000"/>
   </g>
   <g id="patch_26">
    <path d="M 311.9658 275.887132 
L 312.322317 275.887132 
L 312.322317 253.459427 
L 311.9658 253.459427 
z
" clip-path="url(#pedb524a5f0)" style="fill: #ff0000"/>
   </g>
   <g id="patch_27">
    <path d="M 319.096139 285.0252 
L 319.452656 285.0252 
L 319.452656 253.616576 
L 319.096139 253.616576 
z
" clip-path="url(#pedb524a5f0)" style="fill: #ff0000"/>
   </g>
   <g id="patch_28">
    <path d="M 326.226479 255.28266 
L 326.582996 255.28266 
L 326.582996 240.525926 
L 326.226479 240.525926 
z
" clip-path="url(#pedb524a5f0)" style="fill: #ff0000"/>
   </g>
   <g id="patch_29">
    <path d="M 333.356818 249.029344 
L 333.713335 249.029344 
L 333.713335 213.817137 
L 333.356818 213.817137 
z
" clip-path="url(#pedb524a5f0)" style="fill: #ff0000"/>
   </g>
   <g id="patch_30">
    <path d="M 347.617497 214.151759 
L 347.974014 214.151759 
L 347.974014 172.078545 
L 347.617497 172.078545 
z
" clip-path="url(#pedb524a5f0)" style="fill: #ff0000"/>
   </g>
   <g id="patch_31">
    <path d="M 354.747837 176.625419 
L 355.104354 176.625419 
L 355.104354 149.152177 
L 354.747837 149.152177 
z
" clip-path="url(#pedb524a5f0)" style="fill: #ff0000"/>
   </g>
   <g id="patch_32">
    <path d="M 383.269195 220.450361 
L 383.625712 220.450361 
L 383.625712 168.655643 
L 383.269195 168.655643 
z
" clip-path="url(#pedb524a5f0)" style="fill: #ff0000"/>
   </g>
   <g id="patch_33">
    <path d="M 397.529874 187.865007 
L 397.886391 187.865007 
L 397.886391 164.747606 
L 397.529874 164.747606 
z
" clip-path="url(#pedb524a5f0)" style="fill: #ff0000"/>
   </g>
   <g id="patch_34">
    <path d="M 404.660214 181.858477 
L 405.016731 181.858477 
L 405.016731 131.613085 
L 404.660214 131.613085 
z
" clip-path="url(#pedb524a5f0)" style="fill: #ff0000"/>
   </g>
   <g id="patch_35">
    <path d="M 454.57259 144.631328 
L 454.929107 144.631328 
L 454.929107 109.596627 
L 454.57259 109.596627 
z
" clip-path="url(#pedb524a5f0)" style="fill: #ff0000"/>
   </g>
   <g id="patch_36">
    <path d="M 461.70293 111.831396 
L 462.059447 111.831396 
L 462.059447 88.505603 
L 461.70293 88.505603 
z
" clip-path="url(#pedb524a5f0)" style="fill: #ff0000"/>
   </g>
   <g id="patch_37">
    <path d="M 468.833269 121.207522 
L 469.189786 121.207522 
L 469.189786 91.431292 
L 468.833269 91.431292 
z
" clip-path="url(#pedb524a5f0)" style="fill: #ff0000"/>
   </g>
   <g id="patch_38">
    <path d="M 475.963609 89.031385 
L 476.320126 89.031385 
L 476.320126 75.993333 
L 475.963609 75.993333 
z
" clip-path="url(#pedb524a5f0)" style="fill: #ff0000"/>
   </g>
   <g id="patch_39">
    <path d="M 483.093949 72.895229 
L 483.450465 72.895229 
L 483.450465 44.2975 
L 483.093949 44.2975 
z
" clip-path="url(#pedb524a5f0)" style="fill: #ff0000"/>
   </g>
   <g id="patch_40">
    <path d="M 497.354628 146.740321 
L 497.711145 146.740321 
L 497.711145 97.423778 
L 497.354628 97.423778 
z
" clip-path="url(#pedb524a5f0)" style="fill: #ff0000"/>
   </g>
   <g id="patch_41">
    <path d="M 518.745646 106.410204 
L 519.102163 106.410204 
L 519.102163 89.070842 
L 518.745646 89.070842 
z
" clip-path="url(#pedb524a5f0)" style="fill: #ff0000"/>
   </g>
   <g id="patch_42">
    <path d="M 533.006325 72.339975 
L 533.362842 72.339975 
L 533.362842 51.181955 
L 533.006325 51.181955 
z
" clip-path="url(#pedb524a5f0)" style="fill: #ff0000"/>
   </g>
   <g id="patch_43">
    <path d="M 561.527683 130.211406 
L 561.8842 130.211406 
L 561.8842 95.039686 
L 561.527683 95.039686 
z
" clip-path="url(#pedb524a5f0)" style="fill: #ff0000"/>
   </g>
   <g id="patch_44">
    <path d="M 568.658023 95.869749 
L 569.01454 95.869749 
L 569.01454 72.393152 
L 568.658023 72.393152 
z
" clip-path="url(#pedb524a5f0)" style="fill: #ff0000"/>
   </g>
   <g id="patch_45">
    <path d="M 582.918702 104.204262 
L 583.275219 104.204262 
L 583.275219 82.73697 
L 582.918702 82.73697 
z
" clip-path="url(#pedb524a5f0)" style="fill: #ff0000"/>
   </g>
   <g id="patch_46">
    <path d="M 590.049042 93.044456 
L 590.405559 93.044456 
L 590.405559 66.904965 
L 590.049042 66.904965 
z
" clip-path="url(#pedb524a5f0)" style="fill: #ff0000"/>
   </g>
   <g id="patch_47">
    <path d="M 632.831079 161.254069 
L 633.187596 161.254069 
L 633.187596 141.778368 
L 632.831079 141.778368 
z
" clip-path="url(#pedb524a5f0)" style="fill: #ff0000"/>
   </g>
   <g id="patch_48">
    <path d="M 639.961418 153.978015 
L 640.317935 153.978015 
L 640.317935 132.412581 
L 639.961418 132.412581 
z
" clip-path="url(#pedb524a5f0)" style="fill: #ff0000"/>
   </g>
   <g id="patch_49">
    <path d="M 654.222097 151.132076 
L 654.578614 151.132076 
L 654.578614 134.228149 
L 654.222097 134.228149 
z
" clip-path="url(#pedb524a5f0)" style="fill: #ff0000"/>
   </g>
   <g id="patch_50">
    <path d="M 661.352437 131.740022 
L 661.708954 131.740022 
L 661.708954 115.086682 
L 661.352437 115.086682 
z
" clip-path="url(#pedb524a5f0)" style="fill: #ff0000"/>
   </g>
   <g id="patch_51">
    <path d="M 675.613116 142.70683 
L 675.969633 142.70683 
L 675.969633 124.960987 
L 675.613116 124.960987 
z
" clip-path="url(#pedb524a5f0)" style="fill: #ff0000"/>
   </g>
   <g id="patch_52">
    <path d="M 682.743456 135.670315 
L 683.099973 135.670315 
L 683.099973 109.684204 
L 682.743456 109.684204 
z
" clip-path="url(#pedb524a5f0)" style="fill: #ff0000"/>
   </g>
   <g id="patch_53">
    <path d="M 689.873795 109.667616 
L 690.230312 109.667616 
L 690.230312 90.256977 
L 689.873795 90.256977 
z
" clip-path="url(#pedb524a5f0)" style="fill: #ff0000"/>
   </g>
   <g id="patch_54">
    <path d="M 704.134474 125.459199 
L 704.490991 125.459199 
L 704.490991 103.529866 
L 704.134474 103.529866 
z
" clip-path="url(#pedb524a5f0)" style="fill: #ff0000"/>
   </g>
   <g id="patch_55">
    <path d="M 718.395153 128.400863 
L 718.75167 128.400863 
L 718.75167 105.927421 
L 718.395153 105.927421 
z
" clip-path="url(#pedb524a5f0)" style="fill: #ff0000"/>
   </g>
   <g id="patch_56">
    <path d="M 739.786172 143.287755 
L 740.142689 143.287755 
L 740.142689 104.740609 
L 739.786172 104.740609 
z
" clip-path="url(#pedb524a5f0)" style="fill: #ff0000"/>
   </g>
   <g id="patch_57">
    <path d="M 746.916512 121.940796 
L 747.273028 121.940796 
L 747.273028 103.068437 
L 746.916512 103.068437 
z
" clip-path="url(#pedb524a5f0)" style="fill: #ff0000"/>
   </g>
   <g id="patch_58">
    <path d="M 754.046851 102.973291 
L 754.403368 102.973291 
L 754.403368 89.13001 
L 754.046851 89.13001 
z
" clip-path="url(#pedb524a5f0)" style="fill: #ff0000"/>
   </g>
   <g id="patch_59">
    <path d="M 761.177191 93.694502 
L 761.533708 93.694502 
L 761.533708 77.794181 
L 761.177191 77.794181 
z
" clip-path="url(#pedb524a5f0)" style="fill: #ff0000"/>
   </g>
   <g id="patch_60">
    <path d="M 768.30753 92.375826 
L 768.664047 92.375826 
L 768.664047 75.437789 
L 768.30753 75.437789 
z
" clip-path="url(#pedb524a5f0)" style="fill: #ff0000"/>
   </g>
   <g id="patch_61">
    <path d="M 775.43787 84.129115 
L 775.794387 84.129115 
L 775.794387 69.284483 
L 775.43787 69.284483 
z
" clip-path="url(#pedb524a5f0)" style="fill: #ff0000"/>
   </g>
   <g id="patch_62">
    <path d="M 782.568209 73.657781 
L 782.924726 73.657781 
L 782.924726 55.829708 
L 782.568209 55.829708 
z
" clip-path="url(#pedb524a5f0)" style="fill: #ff0000"/>
   </g>
   <g id="patch_63">
    <path d="M 105.185953 406.198434 
L 105.54247 406.198434 
L 105.54247 391.76186 
L 105.185953 391.76186 
z
" clip-path="url(#pedb524a5f0)" style="fill: #008000"/>
   </g>
   <g id="patch_64">
    <path d="M 119.446632 401.876413 
L 119.803149 401.876413 
L 119.803149 393.778509 
L 119.446632 393.778509 
z
" clip-path="url(#pedb524a5f0)" style="fill: #008000"/>
   </g>
   <g id="patch_65">
    <path d="M 140.837651 395.899 
L 141.194168 395.899 
L 141.194168 387.874179 
L 140.837651 387.874179 
z
" clip-path="url(#pedb524a5f0)" style="fill: #008000"/>
   </g>
   <g id="patch_66">
    <path d="M 155.09833 384.140877 
L 155.454847 384.140877 
L 155.454847 372.50547 
L 155.09833 372.50547 
z
" clip-path="url(#pedb524a5f0)" style="fill: #008000"/>
   </g>
   <g id="patch_67">
    <path d="M 176.489348 379.24463 
L 176.845865 379.24463 
L 176.845865 363.242464 
L 176.489348 363.242464 
z
" clip-path="url(#pedb524a5f0)" style="fill: #008000"/>
   </g>
   <g id="patch_68">
    <path d="M 212.141046 330.122469 
L 212.497563 330.122469 
L 212.497563 314.874255 
L 212.141046 314.874255 
z
" clip-path="url(#pedb524a5f0)" style="fill: #008000"/>
   </g>
   <g id="patch_69">
    <path d="M 226.401725 323.292834 
L 226.758242 323.292834 
L 226.758242 312.592911 
L 226.401725 312.592911 
z
" clip-path="url(#pedb524a5f0)" style="fill: #008000"/>
   </g>
   <g id="patch_70">
    <path d="M 247.792744 319.942563 
L 248.149261 319.942563 
L 248.149261 296.526713 
L 247.792744 296.526713 
z
" clip-path="url(#pedb524a5f0)" style="fill: #008000"/>
   </g>
   <g id="patch_71">
    <path d="M 254.923083 342.593382 
L 255.2796 342.593382 
L 255.2796 313.601896 
L 254.923083 313.601896 
z
" clip-path="url(#pedb524a5f0)" style="fill: #008000"/>
   </g>
   <g id="patch_72">
    <path d="M 340.487158 204.499536 
L 340.843675 204.499536 
L 340.843675 159.608341 
L 340.487158 159.608341 
z
" clip-path="url(#pedb524a5f0)" style="fill: #008000"/>
   </g>
   <g id="patch_73">
    <path d="M 361.878176 162.478856 
L 362.234693 162.478856 
L 362.234693 135.666707 
L 361.878176 135.666707 
z
" clip-path="url(#pedb524a5f0)" style="fill: #008000"/>
   </g>
   <g id="patch_74">
    <path d="M 369.008516 185.062131 
L 369.365033 185.062131 
L 369.365033 153.219134 
L 369.008516 153.219134 
z
" clip-path="url(#pedb524a5f0)" style="fill: #008000"/>
   </g>
   <g id="patch_75">
    <path d="M 376.138855 232.427636 
L 376.495372 232.427636 
L 376.495372 170.016642 
L 376.138855 170.016642 
z
" clip-path="url(#pedb524a5f0)" style="fill: #008000"/>
   </g>
   <g id="patch_76">
    <path d="M 390.399535 177.57166 
L 390.756051 177.57166 
L 390.756051 159.779758 
L 390.399535 159.779758 
z
" clip-path="url(#pedb524a5f0)" style="fill: #008000"/>
   </g>
   <g id="patch_77">
    <path d="M 411.790553 139.999197 
L 412.14707 139.999197 
L 412.14707 124.012588 
L 411.790553 124.012588 
z
" clip-path="url(#pedb524a5f0)" style="fill: #008000"/>
   </g>
   <g id="patch_78">
    <path d="M 418.920893 137.199704 
L 419.27741 137.199704 
L 419.27741 121.04464 
L 418.920893 121.04464 
z
" clip-path="url(#pedb524a5f0)" style="fill: #008000"/>
   </g>
   <g id="patch_79">
    <path d="M 426.051232 148.841584 
L 426.407749 148.841584 
L 426.407749 125.045987 
L 426.051232 125.045987 
z
" clip-path="url(#pedb524a5f0)" style="fill: #008000"/>
   </g>
   <g id="patch_80">
    <path d="M 433.181572 140.462945 
L 433.538089 140.462945 
L 433.538089 107.232698 
L 433.181572 107.232698 
z
" clip-path="url(#pedb524a5f0)" style="fill: #008000"/>
   </g>
   <g id="patch_81">
    <path d="M 440.311911 142.867393 
L 440.668428 142.867393 
L 440.668428 125.049691 
L 440.311911 125.049691 
z
" clip-path="url(#pedb524a5f0)" style="fill: #008000"/>
   </g>
   <g id="patch_82">
    <path d="M 447.442251 161.141112 
L 447.798768 161.141112 
L 447.798768 130.542194 
L 447.442251 130.542194 
z
" clip-path="url(#pedb524a5f0)" style="fill: #008000"/>
   </g>
   <g id="patch_83">
    <path d="M 490.224288 98.075176 
L 490.580805 98.075176 
L 490.580805 61.021378 
L 490.224288 61.021378 
z
" clip-path="url(#pedb524a5f0)" style="fill: #008000"/>
   </g>
   <g id="patch_84">
    <path d="M 504.484967 114.02758 
L 504.841484 114.02758 
L 504.841484 82.16355 
L 504.484967 82.16355 
z
" clip-path="url(#pedb524a5f0)" style="fill: #008000"/>
   </g>
   <g id="patch_85">
    <path d="M 511.615307 153.253405 
L 511.971824 153.253405 
L 511.971824 109.060602 
L 511.615307 109.060602 
z
" clip-path="url(#pedb524a5f0)" style="fill: #008000"/>
   </g>
   <g id="patch_86">
    <path d="M 525.875986 78.592035 
L 526.232503 78.592035 
L 526.232503 58.745831 
L 525.875986 58.745831 
z
" clip-path="url(#pedb524a5f0)" style="fill: #008000"/>
   </g>
   <g id="patch_87">
    <path d="M 540.136665 69.561288 
L 540.493182 69.561288 
L 540.493182 48.144984 
L 540.136665 48.144984 
z
" clip-path="url(#pedb524a5f0)" style="fill: #008000"/>
   </g>
   <g id="patch_88">
    <path d="M 547.267004 89.918104 
L 547.623521 89.918104 
L 547.623521 65.641882 
L 547.267004 65.641882 
z
" clip-path="url(#pedb524a5f0)" style="fill: #008000"/>
   </g>
   <g id="patch_89">
    <path d="M 554.397344 115.35492 
L 554.753861 115.35492 
L 554.753861 86.440768 
L 554.397344 86.440768 
z
" clip-path="url(#pedb524a5f0)" style="fill: #008000"/>
   </g>
   <g id="patch_90">
    <path d="M 575.788363 88.466791 
L 576.14488 88.466791 
L 576.14488 66.360179 
L 575.788363 66.360179 
z
" clip-path="url(#pedb524a5f0)" style="fill: #008000"/>
   </g>
   <g id="patch_91">
    <path d="M 597.179381 96.465941 
L 597.535898 96.465941 
L 597.535898 74.267662 
L 597.179381 74.267662 
z
" clip-path="url(#pedb524a5f0)" style="fill: #008000"/>
   </g>
   <g id="patch_92">
    <path d="M 604.309721 111.736701 
L 604.666238 111.736701 
L 604.666238 95.426003 
L 604.309721 95.426003 
z
" clip-path="url(#pedb524a5f0)" style="fill: #008000"/>
   </g>
   <g id="patch_93">
    <path d="M 611.44006 126.542426 
L 611.796577 126.542426 
L 611.796577 104.94736 
L 611.44006 104.94736 
z
" clip-path="url(#pedb524a5f0)" style="fill: #008000"/>
   </g>
   <g id="patch_94">
    <path d="M 618.5704 172.93299 
L 618.926917 172.93299 
L 618.926917 142.392758 
L 618.5704 142.392758 
z
" clip-path="url(#pedb524a5f0)" style="fill: #008000"/>
   </g>
   <g id="patch_95">
    <path d="M 625.700739 183.35614 
L 626.057256 183.35614 
L 626.057256 162.271106 
L 625.700739 162.271106 
z
" clip-path="url(#pedb524a5f0)" style="fill: #008000"/>
   </g>
   <g id="patch_96">
    <path d="M 647.091758 145.968847 
L 647.448275 145.968847 
L 647.448275 123.966432 
L 647.091758 123.966432 
z
" clip-path="url(#pedb524a5f0)" style="fill: #008000"/>
   </g>
   <g id="patch_97">
    <path d="M 668.482777 139.655911 
L 668.839294 139.655911 
L 668.839294 119.934067 
L 668.482777 119.934067 
z
" clip-path="url(#pedb524a5f0)" style="fill: #008000"/>
   </g>
   <g id="patch_98">
    <path d="M 697.004135 112.45561 
L 697.360652 112.45561 
L 697.360652 94.385904 
L 697.004135 94.385904 
z
" clip-path="url(#pedb524a5f0)" style="fill: #008000"/>
   </g>
   <g id="patch_99">
    <path d="M 711.264814 122.680899 
L 711.621331 122.680899 
L 711.621331 97.145587 
L 711.264814 97.145587 
z
" clip-path="url(#pedb524a5f0)" style="fill: #008000"/>
   </g>
   <g id="patch_100">
    <path d="M 725.525493 120.215157 
L 725.88201 120.215157 
L 725.88201 103.231802 
L 725.525493 103.231802 
z
" clip-path="url(#pedb524a5f0)" style="fill: #008000"/>
   </g>
   <g id="patch_101">
    <path d="M 732.655832 151.084599 
L 733.012349 151.084599 
L 733.012349 121.243628 
L 732.655832 121.243628 
z
" clip-path="url(#pedb524a5f0)" style="fill: #008000"/>
   </g>
   <g id="patch_102">
    <path d="M 789.698549 75.914904 
L 790.055066 75.914904 
L 790.055066 57.136242 
L 789.698549 57.136242 
z
" clip-path="url(#pedb524a5f0)" style="fill: #008000"/>
   </g>
   <g id="patch_103">
    <path d="M 81.834091 440.628666 
L 86.112295 440.628666 
L 86.112295 435.792651 
L 81.834091 435.792651 
z
" clip-path="url(#pedb524a5f0)" style="fill: #ff0000"/>
   </g>
   <g id="patch_104">
    <path d="M 88.96443 433.651094 
L 93.242634 433.651094 
L 93.242634 416.369676 
L 88.96443 416.369676 
z
" clip-path="url(#pedb524a5f0)" style="fill: #ff0000"/>
   </g>
   <g id="patch_105">
    <path d="M 96.09477 415.088169 
L 100.372974 415.088169 
L 100.372974 396.697176 
L 96.09477 396.697176 
z
" clip-path="url(#pedb524a5f0)" style="fill: #ff0000"/>
   </g>
   <g id="patch_106">
    <path d="M 110.355449 405.296803 
L 114.633653 405.296803 
L 114.633653 396.958843 
L 110.355449 396.958843 
z
" clip-path="url(#pedb524a5f0)" style="fill: #ff0000"/>
   </g>
   <g id="patch_107">
    <path d="M 124.616128 395.85919 
L 128.894332 395.85919 
L 128.894332 388.43858 
L 124.616128 388.43858 
z
" clip-path="url(#pedb524a5f0)" style="fill: #ff0000"/>
   </g>
   <g id="patch_108">
    <path d="M 131.746468 388.859812 
L 136.024671 388.859812 
L 136.024671 386.632257 
L 131.746468 386.632257 
z
" clip-path="url(#pedb524a5f0)" style="fill: #ff0000"/>
   </g>
   <g id="patch_109">
    <path d="M 146.007147 393.874653 
L 150.28535 393.874653 
L 150.28535 378.560185 
L 146.007147 378.560185 
z
" clip-path="url(#pedb524a5f0)" style="fill: #ff0000"/>
   </g>
   <g id="patch_110">
    <path d="M 160.267826 381.383417 
L 164.54603 381.383417 
L 164.54603 375.705711 
L 160.267826 375.705711 
z
" clip-path="url(#pedb524a5f0)" style="fill: #ff0000"/>
   </g>
   <g id="patch_111">
    <path d="M 167.398165 375.819441 
L 171.676369 375.819441 
L 171.676369 371.409134 
L 167.398165 371.409134 
z
" clip-path="url(#pedb524a5f0)" style="fill: #ff0000"/>
   </g>
   <g id="patch_112">
    <path d="M 181.658844 372.872945 
L 185.937048 372.872945 
L 185.937048 358.538828 
L 181.658844 358.538828 
z
" clip-path="url(#pedb524a5f0)" style="fill: #ff0000"/>
   </g>
   <g id="patch_113">
    <path d="M 188.789184 356.420494 
L 193.067388 356.420494 
L 193.067388 350.968639 
L 188.789184 350.968639 
z
" clip-path="url(#pedb524a5f0)" style="fill: #ff0000"/>
   </g>
   <g id="patch_114">
    <path d="M 195.919524 346.005397 
L 200.197727 346.005397 
L 200.197727 339.572225 
L 195.919524 339.572225 
z
" clip-path="url(#pedb524a5f0)" style="fill: #ff0000"/>
   </g>
   <g id="patch_115">
    <path d="M 203.049863 338.982024 
L 207.328067 338.982024 
L 207.328067 326.512979 
L 203.049863 326.512979 
z
" clip-path="url(#pedb524a5f0)" style="fill: #ff0000"/>
   </g>
   <g id="patch_116">
    <path d="M 217.310542 328.575269 
L 221.588746 328.575269 
L 221.588746 313.773603 
L 217.310542 313.773603 
z
" clip-path="url(#pedb524a5f0)" style="fill: #ff0000"/>
   </g>
   <g id="patch_117">
    <path d="M 231.571221 318.119169 
L 235.849425 318.119169 
L 235.849425 314.721906 
L 231.571221 314.721906 
z
" clip-path="url(#pedb524a5f0)" style="fill: #ff0000"/>
   </g>
   <g id="patch_118">
    <path d="M 238.701561 316.019324 
L 242.979765 316.019324 
L 242.979765 306.858001 
L 238.701561 306.858001 
z
" clip-path="url(#pedb524a5f0)" style="fill: #ff0000"/>
   </g>
   <g id="patch_119">
    <path d="M 260.092579 339.961859 
L 264.370783 339.961859 
L 264.370783 337.818338 
L 260.092579 337.818338 
z
" clip-path="url(#pedb524a5f0)" style="fill: #ff0000"/>
   </g>
   <g id="patch_120">
    <path d="M 267.222919 333.942349 
L 271.501123 333.942349 
L 271.501123 327.369518 
L 267.222919 327.369518 
z
" clip-path="url(#pedb524a5f0)" style="fill: #ff0000"/>
   </g>
   <g id="patch_121">
    <path d="M 274.353258 328.450973 
L 278.631462 328.450973 
L 278.631462 325.467405 
L 274.353258 325.467405 
z
" clip-path="url(#pedb524a5f0)" style="fill: #ff0000"/>
   </g>
   <g id="patch_122">
    <path d="M 281.483598 322.669457 
L 285.761802 322.669457 
L 285.761802 314.377557 
L 281.483598 314.377557 
z
" clip-path="url(#pedb524a5f0)" style="fill: #ff0000"/>
   </g>
   <g id="patch_123">
    <path d="M 288.613938 314.408994 
L 292.892141 314.408994 
L 292.892141 307.627801 
L 288.613938 307.627801 
z
" clip-path="url(#pedb524a5f0)" style="fill: #ff0000"/>
   </g>
   <g id="patch_124">
    <path d="M 295.744277 305.477258 
L 300.022481 305.477258 
L 300.022481 292.094665 
L 295.744277 292.094665 
z
" clip-path="url(#pedb524a5f0)" style="fill: #ff0000"/>
   </g>
   <g id="patch_125">
    <path d="M 302.874617 290.961449 
L 307.15282 290.961449 
L 307.15282 282.495007 
L 302.874617 282.495007 
z
" clip-path="url(#pedb524a5f0)" style="fill: #ff0000"/>
   </g>
   <g id="patch_126">
    <path d="M 310.004956 275.887132 
L 314.28316 275.887132 
L 314.28316 272.511835 
L 310.004956 272.511835 
z
" clip-path="url(#pedb524a5f0)" style="fill: #ff0000"/>
   </g>
   <g id="patch_127">
    <path d="M 317.135296 278.136332 
L 321.413499 278.136332 
L 321.413499 253.703669 
L 317.135296 253.703669 
z
" clip-path="url(#pedb524a5f0)" style="fill: #ff0000"/>
   </g>
   <g id="patch_128">
    <path d="M 324.265635 249.609786 
L 328.543839 249.609786 
L 328.543839 249.156731 
L 324.265635 249.156731 
z
" clip-path="url(#pedb524a5f0)" style="fill: #ff0000"/>
   </g>
   <g id="patch_129">
    <path d="M 331.395975 249.029344 
L 335.674179 249.029344 
L 335.674179 213.862746 
L 331.395975 213.862746 
z
" clip-path="url(#pedb524a5f0)" style="fill: #ff0000"/>
   </g>
   <g id="patch_130">
    <path d="M 345.656654 206.793216 
L 349.934858 206.793216 
L 349.934858 172.322948 
L 345.656654 172.322948 
z
" clip-path="url(#pedb524a5f0)" style="fill: #ff0000"/>
   </g>
   <g id="patch_131">
    <path d="M 352.786993 173.543998 
L 357.065197 173.543998 
L 357.065197 157.866662 
L 352.786993 157.866662 
z
" clip-path="url(#pedb524a5f0)" style="fill: #ff0000"/>
   </g>
   <g id="patch_132">
    <path d="M 381.308352 215.34002 
L 385.586555 215.34002 
L 385.586555 170.650261 
L 381.308352 170.650261 
z
" clip-path="url(#pedb524a5f0)" style="fill: #ff0000"/>
   </g>
   <g id="patch_133">
    <path d="M 395.569031 177.818157 
L 399.847234 177.818157 
L 399.847234 172.990612 
L 395.569031 172.990612 
z
" clip-path="url(#pedb524a5f0)" style="fill: #ff0000"/>
   </g>
   <g id="patch_134">
    <path d="M 402.69937 175.613181 
L 406.977574 175.613181 
L 406.977574 131.613085 
L 402.69937 131.613085 
z
" clip-path="url(#pedb524a5f0)" style="fill: #ff0000"/>
   </g>
   <g id="patch_135">
    <path d="M 452.611747 143.777205 
L 456.889951 143.777205 
L 456.889951 109.857392 
L 452.611747 109.857392 
z
" clip-path="url(#pedb524a5f0)" style="fill: #ff0000"/>
   </g>
   <g id="patch_136">
    <path d="M 459.742087 109.987646 
L 464.02029 109.987646 
L 464.02029 97.194126 
L 459.742087 97.194126 
z
" clip-path="url(#pedb524a5f0)" style="fill: #ff0000"/>
   </g>
   <g id="patch_137">
    <path d="M 466.872426 104.107634 
L 471.15063 104.107634 
L 471.15063 91.431292 
L 466.872426 91.431292 
z
" clip-path="url(#pedb524a5f0)" style="fill: #ff0000"/>
   </g>
   <g id="patch_138">
    <path d="M 474.002766 86.734259 
L 478.280969 86.734259 
L 478.280969 78.648497 
L 474.002766 78.648497 
z
" clip-path="url(#pedb524a5f0)" style="fill: #ff0000"/>
   </g>
   <g id="patch_139">
    <path d="M 481.133105 67.745206 
L 485.411309 67.745206 
L 485.411309 49.79725 
L 481.133105 49.79725 
z
" clip-path="url(#pedb524a5f0)" style="fill: #ff0000"/>
   </g>
   <g id="patch_140">
    <path d="M 495.393784 146.740321 
L 499.671988 146.740321 
L 499.671988 100.68499 
L 495.393784 100.68499 
z
" clip-path="url(#pedb524a5f0)" style="fill: #ff0000"/>
   </g>
   <g id="patch_141">
    <path d="M 516.784803 106.410204 
L 521.063007 106.410204 
L 521.063007 89.070842 
L 516.784803 89.070842 
z
" clip-path="url(#pedb524a5f0)" style="fill: #ff0000"/>
   </g>
   <g id="patch_142">
    <path d="M 531.045482 72.2953 
L 535.323686 72.2953 
L 535.323686 51.181955 
L 531.045482 51.181955 
z
" clip-path="url(#pedb524a5f0)" style="fill: #ff0000"/>
   </g>
   <g id="patch_143">
    <path d="M 559.56684 130.211406 
L 563.845044 130.211406 
L 563.845044 101.402095 
L 559.56684 101.402095 
z
" clip-path="url(#pedb524a5f0)" style="fill: #ff0000"/>
   </g>
   <g id="patch_144">
    <path d="M 566.69718 95.869749 
L 570.975383 95.869749 
L 570.975383 73.880185 
L 566.69718 73.880185 
z
" clip-path="url(#pedb524a5f0)" style="fill: #ff0000"/>
   </g>
   <g id="patch_145">
    <path d="M 580.957859 92.98065 
L 585.236062 92.98065 
L 585.236062 92.887243 
L 580.957859 92.887243 
z
" clip-path="url(#pedb524a5f0)" style="fill: #ff0000"/>
   </g>
   <g id="patch_146">
    <path d="M 588.088198 93.044456 
L 592.366402 93.044456 
L 592.366402 67.141316 
L 588.088198 67.141316 
z
" clip-path="url(#pedb524a5f0)" style="fill: #ff0000"/>
   </g>
   <g id="patch_147">
    <path d="M 630.870235 158.719561 
L 635.148439 158.719561 
L 635.148439 151.37751 
L 630.870235 151.37751 
z
" clip-path="url(#pedb524a5f0)" style="fill: #ff0000"/>
   </g>
   <g id="patch_148">
    <path d="M 638.000575 151.474814 
L 642.278779 151.474814 
L 642.278779 141.840274 
L 638.000575 141.840274 
z
" clip-path="url(#pedb524a5f0)" style="fill: #ff0000"/>
   </g>
   <g id="patch_149">
    <path d="M 652.261254 145.2281 
L 656.539458 145.2281 
L 656.539458 135.90673 
L 652.261254 135.90673 
z
" clip-path="url(#pedb524a5f0)" style="fill: #ff0000"/>
   </g>
   <g id="patch_150">
    <path d="M 659.391594 129.313607 
L 663.669797 129.313607 
L 663.669797 126.165997 
L 659.391594 126.165997 
z
" clip-path="url(#pedb524a5f0)" style="fill: #ff0000"/>
   </g>
   <g id="patch_151">
    <path d="M 673.652273 134.836161 
L 677.930476 134.836161 
L 677.930476 129.204869 
L 673.652273 129.204869 
z
" clip-path="url(#pedb524a5f0)" style="fill: #ff0000"/>
   </g>
   <g id="patch_152">
    <path d="M 680.782612 129.17543 
L 685.060816 129.17543 
L 685.060816 112.455256 
L 680.782612 112.455256 
z
" clip-path="url(#pedb524a5f0)" style="fill: #ff0000"/>
   </g>
   <g id="patch_153">
    <path d="M 687.912952 109.21134 
L 692.191156 109.21134 
L 692.191156 97.119401 
L 687.912952 97.119401 
z
" clip-path="url(#pedb524a5f0)" style="fill: #ff0000"/>
   </g>
   <g id="patch_154">
    <path d="M 702.173631 111.040564 
L 706.451835 111.040564 
L 706.451835 106.387916 
L 702.173631 106.387916 
z
" clip-path="url(#pedb524a5f0)" style="fill: #ff0000"/>
   </g>
   <g id="patch_155">
    <path d="M 716.43431 118.18469 
L 720.712514 118.18469 
L 720.712514 107.096389 
L 716.43431 107.096389 
z
" clip-path="url(#pedb524a5f0)" style="fill: #ff0000"/>
   </g>
   <g id="patch_156">
    <path d="M 737.825329 143.287755 
L 742.103532 143.287755 
L 742.103532 121.309947 
L 737.825329 121.309947 
z
" clip-path="url(#pedb524a5f0)" style="fill: #ff0000"/>
   </g>
   <g id="patch_157">
    <path d="M 744.955668 117.182566 
L 749.233872 117.182566 
L 749.233872 111.676567 
L 744.955668 111.676567 
z
" clip-path="url(#pedb524a5f0)" style="fill: #ff0000"/>
   </g>
   <g id="patch_158">
    <path d="M 752.086008 102.973291 
L 756.364211 102.973291 
L 756.364211 91.028 
L 752.086008 91.028 
z
" clip-path="url(#pedb524a5f0)" style="fill: #ff0000"/>
   </g>
   <g id="patch_159">
    <path d="M 759.216347 89.440539 
L 763.494551 89.440539 
L 763.494551 87.112845 
L 759.216347 87.112845 
z
" clip-path="url(#pedb524a5f0)" style="fill: #ff0000"/>
   </g>
   <g id="patch_160">
    <path d="M 766.346687 86.305007 
L 770.62489 86.305007 
L 770.62489 77.423808 
L 766.346687 77.423808 
z
" clip-path="url(#pedb524a5f0)" style="fill: #ff0000"/>
   </g>
   <g id="patch_161">
    <path d="M 773.477026 80.152602 
L 777.75523 80.152602 
L 777.75523 72.842534 
L 773.477026 72.842534 
z
" clip-path="url(#pedb524a5f0)" style="fill: #ff0000"/>
   </g>
   <g id="patch_162">
    <path d="M 780.607366 71.88998 
L 784.88557 71.88998 
L 784.88557 62.831502 
L 780.607366 62.831502 
z
" clip-path="url(#pedb524a5f0)" style="fill: #ff0000"/>
   </g>
   <g id="patch_163">
    <path d="M 103.22511 406.198434 
L 107.503313 406.198434 
L 107.503313 398.839989 
L 103.22511 398.839989 
z
" clip-path="url(#pedb524a5f0)" style="fill: #008000"/>
   </g>
   <g id="patch_164">
    <path d="M 117.485789 397.860024 
L 121.763992 397.860024 
L 121.763992 396.879061 
L 117.485789 396.879061 
z
" clip-path="url(#pedb524a5f0)" style="fill: #008000"/>
   </g>
   <g id="patch_165">
    <path d="M 138.876807 393.896845 
L 143.155011 393.896845 
L 143.155011 388.861874 
L 138.876807 388.861874 
z
" clip-path="url(#pedb524a5f0)" style="fill: #008000"/>
   </g>
   <g id="patch_166">
    <path d="M 153.137486 382.272293 
L 157.41569 382.272293 
L 157.41569 378.756597 
L 153.137486 378.756597 
z
" clip-path="url(#pedb524a5f0)" style="fill: #008000"/>
   </g>
   <g id="patch_167">
    <path d="M 174.528505 372.190465 
L 178.806709 372.190465 
L 178.806709 369.841385 
L 174.528505 369.841385 
z
" clip-path="url(#pedb524a5f0)" style="fill: #008000"/>
   </g>
   <g id="patch_168">
    <path d="M 210.180203 328.072097 
L 214.458406 328.072097 
L 214.458406 323.55988 
L 210.180203 323.55988 
z
" clip-path="url(#pedb524a5f0)" style="fill: #008000"/>
   </g>
   <g id="patch_169">
    <path d="M 224.440882 319.443386 
L 228.719085 319.443386 
L 228.719085 314.974619 
L 224.440882 314.974619 
z
" clip-path="url(#pedb524a5f0)" style="fill: #008000"/>
   </g>
   <g id="patch_170">
    <path d="M 245.8319 310.398274 
L 250.110104 310.398274 
L 250.110104 308.525149 
L 245.8319 308.525149 
z
" clip-path="url(#pedb524a5f0)" style="fill: #008000"/>
   </g>
   <g id="patch_171">
    <path d="M 252.96224 338.036491 
L 257.240444 338.036491 
L 257.240444 313.601896 
L 252.96224 313.601896 
z
" clip-path="url(#pedb524a5f0)" style="fill: #008000"/>
   </g>
   <g id="patch_172">
    <path d="M 338.526314 204.499536 
L 342.804518 204.499536 
L 342.804518 198.397989 
L 338.526314 198.397989 
z
" clip-path="url(#pedb524a5f0)" style="fill: #008000"/>
   </g>
   <g id="patch_173">
    <path d="M 359.917333 162.478856 
L 364.195537 162.478856 
L 364.195537 148.622948 
L 359.917333 148.622948 
z
" clip-path="url(#pedb524a5f0)" style="fill: #008000"/>
   </g>
   <g id="patch_174">
    <path d="M 367.047673 173.736996 
L 371.325876 173.736996 
L 371.325876 157.493389 
L 367.047673 157.493389 
z
" clip-path="url(#pedb524a5f0)" style="fill: #008000"/>
   </g>
   <g id="patch_175">
    <path d="M 374.178012 216.083601 
L 378.456216 216.083601 
L 378.456216 172.54487 
L 374.178012 172.54487 
z
" clip-path="url(#pedb524a5f0)" style="fill: #008000"/>
   </g>
   <g id="patch_176">
    <path d="M 388.438691 176.662331 
L 392.716895 176.662331 
L 392.716895 166.125869 
L 388.438691 166.125869 
z
" clip-path="url(#pedb524a5f0)" style="fill: #008000"/>
   </g>
   <g id="patch_177">
    <path d="M 409.82971 138.718077 
L 414.107913 138.718077 
L 414.107913 133.256591 
L 409.82971 133.256591 
z
" clip-path="url(#pedb524a5f0)" style="fill: #008000"/>
   </g>
   <g id="patch_178">
    <path d="M 416.960049 133.501059 
L 421.238253 133.501059 
L 421.238253 132.796354 
L 416.960049 132.796354 
z
" clip-path="url(#pedb524a5f0)" style="fill: #008000"/>
   </g>
   <g id="patch_179">
    <path d="M 424.090389 132.996888 
L 428.368593 132.996888 
L 428.368593 129.976923 
L 424.090389 129.976923 
z
" clip-path="url(#pedb524a5f0)" style="fill: #008000"/>
   </g>
   <g id="patch_180">
    <path d="M 431.220728 138.220445 
L 435.498932 138.220445 
L 435.498932 134.834551 
L 431.220728 134.834551 
z
" clip-path="url(#pedb524a5f0)" style="fill: #008000"/>
   </g>
   <g id="patch_181">
    <path d="M 438.351068 138.372053 
L 442.629272 138.372053 
L 442.629272 137.843179 
L 438.351068 137.843179 
z
" clip-path="url(#pedb524a5f0)" style="fill: #008000"/>
   </g>
   <g id="patch_182">
    <path d="M 445.481407 134.272146 
L 449.759611 134.272146 
L 449.759611 134.150106 
L 445.481407 134.150106 
z
" clip-path="url(#pedb524a5f0)" style="fill: #008000"/>
   </g>
   <g id="patch_183">
    <path d="M 488.263445 91.873588 
L 492.541648 91.873588 
L 492.541648 61.986333 
L 488.263445 61.986333 
z
" clip-path="url(#pedb524a5f0)" style="fill: #008000"/>
   </g>
   <g id="patch_184">
    <path d="M 502.524124 106.646942 
L 506.802327 106.646942 
L 506.802327 84.251865 
L 502.524124 84.251865 
z
" clip-path="url(#pedb524a5f0)" style="fill: #008000"/>
   </g>
   <g id="patch_185">
    <path d="M 509.654463 113.514842 
L 513.932667 113.514842 
L 513.932667 109.060602 
L 509.654463 109.060602 
z
" clip-path="url(#pedb524a5f0)" style="fill: #008000"/>
   </g>
   <g id="patch_186">
    <path d="M 523.915142 75.563083 
L 528.193346 75.563083 
L 528.193346 72.079209 
L 523.915142 72.079209 
z
" clip-path="url(#pedb524a5f0)" style="fill: #008000"/>
   </g>
   <g id="patch_187">
    <path d="M 538.175821 67.363978 
L 542.454025 67.363978 
L 542.454025 56.013172 
L 538.175821 56.013172 
z
" clip-path="url(#pedb524a5f0)" style="fill: #008000"/>
   </g>
   <g id="patch_188">
    <path d="M 545.306161 89.918104 
L 549.584365 89.918104 
L 549.584365 70.305353 
L 545.306161 70.305353 
z
" clip-path="url(#pedb524a5f0)" style="fill: #008000"/>
   </g>
   <g id="patch_189">
    <path d="M 552.436501 105.493918 
L 556.714704 105.493918 
L 556.714704 90.25308 
L 552.436501 90.25308 
z
" clip-path="url(#pedb524a5f0)" style="fill: #008000"/>
   </g>
   <g id="patch_190">
    <path d="M 573.827519 88.466791 
L 578.105723 88.466791 
L 578.105723 81.816303 
L 573.827519 81.816303 
z
" clip-path="url(#pedb524a5f0)" style="fill: #008000"/>
   </g>
   <g id="patch_191">
    <path d="M 595.218538 96.431542 
L 599.496742 96.431542 
L 599.496742 83.59003 
L 595.218538 83.59003 
z
" clip-path="url(#pedb524a5f0)" style="fill: #008000"/>
   </g>
   <g id="patch_192">
    <path d="M 602.348877 103.966461 
L 606.627081 103.966461 
L 606.627081 99.215865 
L 602.348877 99.215865 
z
" clip-path="url(#pedb524a5f0)" style="fill: #008000"/>
   </g>
   <g id="patch_193">
    <path d="M 609.479217 124.760034 
L 613.757421 124.760034 
L 613.757421 108.679535 
L 609.479217 108.679535 
z
" clip-path="url(#pedb524a5f0)" style="fill: #008000"/>
   </g>
   <g id="patch_194">
    <path d="M 616.609556 172.93299 
L 620.88776 172.93299 
L 620.88776 147.708884 
L 616.609556 147.708884 
z
" clip-path="url(#pedb524a5f0)" style="fill: #008000"/>
   </g>
   <g id="patch_195">
    <path d="M 623.739896 170.250803 
L 628.0181 170.250803 
L 628.0181 164.528809 
L 623.739896 164.528809 
z
" clip-path="url(#pedb524a5f0)" style="fill: #008000"/>
   </g>
   <g id="patch_196">
    <path d="M 645.130915 143.964308 
L 649.409118 143.964308 
L 649.409118 140.890522 
L 645.130915 140.890522 
z
" clip-path="url(#pedb524a5f0)" style="fill: #008000"/>
   </g>
   <g id="patch_197">
    <path d="M 666.521933 136.009735 
L 670.800137 136.009735 
L 670.800137 125.741222 
L 666.521933 125.741222 
z
" clip-path="url(#pedb524a5f0)" style="fill: #008000"/>
   </g>
   <g id="patch_198">
    <path d="M 695.043291 107.211408 
L 699.321495 107.211408 
L 699.321495 101.808414 
L 695.043291 101.808414 
z
" clip-path="url(#pedb524a5f0)" style="fill: #008000"/>
   </g>
   <g id="patch_199">
    <path d="M 709.30397 121.295228 
L 713.582174 121.295228 
L 713.582174 103.286912 
L 709.30397 103.286912 
z
" clip-path="url(#pedb524a5f0)" style="fill: #008000"/>
   </g>
   <g id="patch_200">
    <path d="M 723.56465 120.067091 
L 727.842853 120.067091 
L 727.842853 119.117855 
L 723.56465 119.117855 
z
" clip-path="url(#pedb524a5f0)" style="fill: #008000"/>
   </g>
   <g id="patch_201">
    <path d="M 730.694989 144.283791 
L 734.973193 144.283791 
L 734.973193 123.738648 
L 730.694989 123.738648 
z
" clip-path="url(#pedb524a5f0)" style="fill: #008000"/>
   </g>
   <g id="patch_202">
    <path d="M 787.737705 71.547435 
L 792.015909 71.547435 
L 792.015909 61.824385 
L 787.737705 61.824385 
z
" clip-path="url(#pedb524a5f0)" style="fill: #008000"/>
   </g>
   <g id="matplotlib.axis_1">
    <g id="xtick_1">
     <g id="line2d_1">
      <defs>
       <path id="m691a9d5c24" d="M 0 0 
L 0 3.5 
" style="stroke: #000000; stroke-width: 0.8"/>
      </defs>
      <g>
       <use xlink:href="#m691a9d5c24" x="83.973193" y="467.6575" style="stroke: #000000; stroke-width: 0.8"/>
      </g>
     </g>
     <g id="text_1">
      <!-- 2025-06-23 -->
      <g transform="translate(71.422047 506.830859) rotate(-45) scale(0.08 -0.08)">
       <defs>
        <path id="SimHei-32" d="M 300 250 
Q 325 625 650 925 
Q 975 1225 1475 1862 
Q 1975 2500 2125 2850 
Q 2275 3200 2237 3450 
Q 2200 3700 2000 3862 
Q 1800 4025 1537 4000 
Q 1275 3975 1037 3800 
Q 800 3625 675 3275 
L 200 3350 
Q 400 3925 712 4187 
Q 1025 4450 1450 4475 
Q 1700 4500 1900 4462 
Q 2100 4425 2312 4287 
Q 2525 4150 2662 3875 
Q 2800 3600 2762 3212 
Q 2725 2825 2375 2287 
Q 2025 1750 1025 600 
L 2825 600 
L 2825 150 
L 300 150 
L 300 250 
z
" transform="scale(0.015625)"/>
        <path id="SimHei-30" d="M 225 2537 
Q 250 3200 412 3587 
Q 575 3975 875 4225 
Q 1175 4475 1612 4475 
Q 2050 4475 2375 4112 
Q 2700 3750 2800 3200 
Q 2900 2650 2862 1937 
Q 2825 1225 2612 775 
Q 2400 325 1975 150 
Q 1550 -25 1125 187 
Q 700 400 525 750 
Q 350 1100 275 1487 
Q 200 1875 225 2537 
z
M 750 2687 
Q 675 2000 800 1462 
Q 925 925 1212 700 
Q 1500 475 1800 612 
Q 2100 750 2237 1162 
Q 2375 1575 2375 2062 
Q 2375 2550 2337 2950 
Q 2300 3350 2112 3675 
Q 1925 4000 1612 4012 
Q 1300 4025 1062 3700 
Q 825 3375 750 2687 
z
" transform="scale(0.015625)"/>
        <path id="SimHei-35" d="M 550 1325 
Q 725 650 1150 575 
Q 1575 500 1837 662 
Q 2100 825 2212 1087 
Q 2325 1350 2312 1675 
Q 2300 2000 2137 2225 
Q 1975 2450 1725 2525 
Q 1475 2600 1162 2525 
Q 850 2450 650 2175 
L 225 2225 
Q 275 2375 700 4375 
L 2675 4375 
L 2675 3925 
L 1075 3925 
Q 950 3250 825 2850 
Q 1200 3025 1525 3012 
Q 1850 3000 2150 2862 
Q 2450 2725 2587 2487 
Q 2725 2250 2787 2012 
Q 2850 1775 2837 1500 
Q 2825 1225 2725 937 
Q 2625 650 2425 462 
Q 2225 275 1937 162 
Q 1650 50 1275 75 
Q 900 100 562 350 
Q 225 600 100 1200 
L 550 1325 
z
" transform="scale(0.015625)"/>
        <path id="SimHei-2d" d="M 2975 2125 
L 125 2125 
L 125 2525 
L 2975 2525 
L 2975 2125 
z
" transform="scale(0.015625)"/>
        <path id="SimHei-36" d="M 250 1612 
Q 275 1975 387 2225 
Q 500 2475 725 2850 
L 1750 4450 
L 2325 4450 
L 1275 2800 
Q 1950 2975 2350 2750 
Q 2750 2525 2887 2237 
Q 3025 1950 3037 1612 
Q 3050 1275 2937 950 
Q 2825 625 2537 362 
Q 2250 100 1737 75 
Q 1225 50 862 262 
Q 500 475 362 862 
Q 225 1250 250 1612 
z
M 1025 787 
Q 1250 550 1625 525 
Q 2000 500 2250 775 
Q 2500 1050 2500 1575 
Q 2500 2100 2187 2300 
Q 1875 2500 1487 2450 
Q 1100 2400 925 2075 
Q 750 1750 775 1387 
Q 800 1025 1025 787 
z
" transform="scale(0.015625)"/>
        <path id="SimHei-33" d="M 250 1225 
L 700 1300 
Q 800 975 1025 762 
Q 1250 550 1587 562 
Q 1925 575 2125 837 
Q 2325 1100 2300 1437 
Q 2275 1775 2037 1962 
Q 1800 2150 1275 2225 
L 1275 2550 
Q 1800 2600 2037 2825 
Q 2275 3050 2250 3412 
Q 2225 3775 1925 3937 
Q 1625 4100 1287 3975 
Q 950 3850 750 3275 
L 300 3350 
Q 450 3800 712 4100 
Q 975 4400 1425 4450 
Q 1875 4500 2212 4337 
Q 2550 4175 2687 3837 
Q 2825 3500 2725 3100 
Q 2625 2700 2150 2400 
Q 2500 2250 2687 1950 
Q 2875 1650 2812 1162 
Q 2750 675 2375 375 
Q 2000 75 1525 87 
Q 1050 100 700 387 
Q 350 675 250 1225 
z
" transform="scale(0.015625)"/>
       </defs>
       <use xlink:href="#SimHei-32"/>
       <use xlink:href="#SimHei-30" transform="translate(50 0)"/>
       <use xlink:href="#SimHei-32" transform="translate(100 0)"/>
       <use xlink:href="#SimHei-35" transform="translate(150 0)"/>
       <use xlink:href="#SimHei-2d" transform="translate(200 0)"/>
       <use xlink:href="#SimHei-30" transform="translate(250 0)"/>
       <use xlink:href="#SimHei-36" transform="translate(300 0)"/>
       <use xlink:href="#SimHei-2d" transform="translate(350 0)"/>
       <use xlink:href="#SimHei-32" transform="translate(400 0)"/>
       <use xlink:href="#SimHei-33" transform="translate(450 0)"/>
      </g>
     </g>
    </g>
    <g id="xtick_2">
     <g id="line2d_2">
      <g>
       <use xlink:href="#m691a9d5c24" x="119.62489" y="467.6575" style="stroke: #000000; stroke-width: 0.8"/>
      </g>
     </g>
     <g id="text_2">
      <!-- 2025-07-02 -->
      <g transform="translate(107.073745 506.830859) rotate(-45) scale(0.08 -0.08)">
       <defs>
        <path id="SimHei-37" d="M 850 150 
Q 1300 2050 2425 3925 
L 275 3925 
L 275 4375 
L 2950 4375 
L 2950 3950 
Q 1775 2050 1400 150 
L 850 150 
z
" transform="scale(0.015625)"/>
       </defs>
       <use xlink:href="#SimHei-32"/>
       <use xlink:href="#SimHei-30" transform="translate(50 0)"/>
       <use xlink:href="#SimHei-32" transform="translate(100 0)"/>
       <use xlink:href="#SimHei-35" transform="translate(150 0)"/>
       <use xlink:href="#SimHei-2d" transform="translate(200 0)"/>
       <use xlink:href="#SimHei-30" transform="translate(250 0)"/>
       <use xlink:href="#SimHei-37" transform="translate(300 0)"/>
       <use xlink:href="#SimHei-2d" transform="translate(350 0)"/>
       <use xlink:href="#SimHei-30" transform="translate(400 0)"/>
       <use xlink:href="#SimHei-32" transform="translate(450 0)"/>
      </g>
     </g>
    </g>
    <g id="xtick_3">
     <g id="line2d_3">
      <g>
       <use xlink:href="#m691a9d5c24" x="155.276588" y="467.6575" style="stroke: #000000; stroke-width: 0.8"/>
      </g>
     </g>
     <g id="text_3">
      <!-- 2025-07-09 -->
      <g transform="translate(142.725443 506.830859) rotate(-45) scale(0.08 -0.08)">
       <defs>
        <path id="SimHei-39" d="M 800 75 
Q 1350 1000 1700 1750 
Q 1075 1650 662 1912 
Q 250 2175 162 2625 
Q 75 3075 175 3437 
Q 275 3800 487 4037 
Q 700 4275 1000 4375 
Q 1300 4475 1537 4475 
Q 1775 4475 2025 4375 
Q 2275 4275 2475 4075 
Q 2675 3875 2750 3662 
Q 2825 3450 2825 3112 
Q 2825 2775 2575 2250 
Q 2325 1725 1350 75 
L 800 75 
z
M 662 2875 
Q 700 2550 937 2337 
Q 1175 2125 1450 2150 
Q 1725 2175 1887 2300 
Q 2050 2425 2200 2725 
Q 2300 3100 2250 3362 
Q 2200 3625 1987 3800 
Q 1775 3975 1525 3975 
Q 1375 4000 1137 3900 
Q 900 3800 762 3500 
Q 625 3200 662 2875 
z
" transform="scale(0.015625)"/>
       </defs>
       <use xlink:href="#SimHei-32"/>
       <use xlink:href="#SimHei-30" transform="translate(50 0)"/>
       <use xlink:href="#SimHei-32" transform="translate(100 0)"/>
       <use xlink:href="#SimHei-35" transform="translate(150 0)"/>
       <use xlink:href="#SimHei-2d" transform="translate(200 0)"/>
       <use xlink:href="#SimHei-30" transform="translate(250 0)"/>
       <use xlink:href="#SimHei-37" transform="translate(300 0)"/>
       <use xlink:href="#SimHei-2d" transform="translate(350 0)"/>
       <use xlink:href="#SimHei-30" transform="translate(400 0)"/>
       <use xlink:href="#SimHei-39" transform="translate(450 0)"/>
      </g>
     </g>
    </g>
    <g id="xtick_4">
     <g id="line2d_4">
      <g>
       <use xlink:href="#m691a9d5c24" x="190.928286" y="467.6575" style="stroke: #000000; stroke-width: 0.8"/>
      </g>
     </g>
     <g id="text_4">
      <!-- 2025-07-18 -->
      <g transform="translate(178.377141 506.830859) rotate(-45) scale(0.08 -0.08)">
       <defs>
        <path id="SimHei-31" d="M 1400 3600 
Q 1075 3275 575 2975 
L 575 3450 
Q 1200 3875 1600 4450 
L 1900 4450 
L 1900 150 
L 1400 150 
L 1400 3600 
z
" transform="scale(0.015625)"/>
        <path id="SimHei-38" d="M 175 1375 
Q 175 1675 325 1962 
Q 475 2250 825 2425 
Q 525 2600 425 2812 
Q 325 3025 312 3300 
Q 300 3575 387 3775 
Q 475 3975 650 4150 
Q 825 4325 1037 4387 
Q 1250 4450 1500 4450 
Q 1750 4450 1950 4400 
Q 2150 4350 2375 4187 
Q 2600 4025 2700 3725 
Q 2800 3425 2687 3025 
Q 2575 2625 2100 2400 
Q 2525 2275 2700 2012 
Q 2875 1750 2875 1375 
Q 2875 1000 2762 775 
Q 2650 550 2512 400 
Q 2375 250 2137 162 
Q 1900 75 1537 75 
Q 1175 75 912 162 
Q 650 250 475 425 
Q 300 600 237 837 
Q 175 1075 175 1375 
z
M 687 1400 
Q 675 1100 787 875 
Q 900 650 1200 587 
Q 1500 525 1825 600 
Q 2150 675 2275 950 
Q 2400 1225 2362 1500 
Q 2325 1775 2050 1962 
Q 1775 2150 1450 2125 
Q 1125 2100 912 1900 
Q 700 1700 687 1400 
z
M 775 3350 
Q 775 3100 950 2875 
Q 1125 2650 1500 2650 
Q 1875 2650 2062 2875 
Q 2250 3100 2237 3412 
Q 2225 3725 2012 3875 
Q 1800 4025 1437 4000 
Q 1075 3975 925 3787 
Q 775 3600 775 3350 
z
" transform="scale(0.015625)"/>
       </defs>
       <use xlink:href="#SimHei-32"/>
       <use xlink:href="#SimHei-30" transform="translate(50 0)"/>
       <use xlink:href="#SimHei-32" transform="translate(100 0)"/>
       <use xlink:href="#SimHei-35" transform="translate(150 0)"/>
       <use xlink:href="#SimHei-2d" transform="translate(200 0)"/>
       <use xlink:href="#SimHei-30" transform="translate(250 0)"/>
       <use xlink:href="#SimHei-37" transform="translate(300 0)"/>
       <use xlink:href="#SimHei-2d" transform="translate(350 0)"/>
       <use xlink:href="#SimHei-31" transform="translate(400 0)"/>
       <use xlink:href="#SimHei-38" transform="translate(450 0)"/>
      </g>
     </g>
    </g>
    <g id="xtick_5">
     <g id="line2d_5">
      <g>
       <use xlink:href="#m691a9d5c24" x="226.579984" y="467.6575" style="stroke: #000000; stroke-width: 0.8"/>
      </g>
     </g>
     <g id="text_5">
      <!-- 2025-07-25 -->
      <g transform="translate(214.028838 506.830859) rotate(-45) scale(0.08 -0.08)">
       <use xlink:href="#SimHei-32"/>
       <use xlink:href="#SimHei-30" transform="translate(50 0)"/>
       <use xlink:href="#SimHei-32" transform="translate(100 0)"/>
       <use xlink:href="#SimHei-35" transform="translate(150 0)"/>
       <use xlink:href="#SimHei-2d" transform="translate(200 0)"/>
       <use xlink:href="#SimHei-30" transform="translate(250 0)"/>
       <use xlink:href="#SimHei-37" transform="translate(300 0)"/>
       <use xlink:href="#SimHei-2d" transform="translate(350 0)"/>
       <use xlink:href="#SimHei-32" transform="translate(400 0)"/>
       <use xlink:href="#SimHei-35" transform="translate(450 0)"/>
      </g>
     </g>
    </g>
    <g id="xtick_6">
     <g id="line2d_6">
      <g>
       <use xlink:href="#m691a9d5c24" x="262.231681" y="467.6575" style="stroke: #000000; stroke-width: 0.8"/>
      </g>
     </g>
     <g id="text_6">
      <!-- 2025-08-04 -->
      <g transform="translate(249.680536 506.830859) rotate(-45) scale(0.08 -0.08)">
       <defs>
        <path id="SimHei-34" d="M 2000 1100 
L 75 1100 
L 75 1525 
L 2100 4450 
L 2475 4450 
L 2475 1525 
L 3075 1525 
L 3075 1100 
L 2475 1100 
L 2475 150 
L 2000 150 
L 2000 1100 
z
M 2000 1525 
L 2000 3500 
L 600 1525 
L 2000 1525 
z
" transform="scale(0.015625)"/>
       </defs>
       <use xlink:href="#SimHei-32"/>
       <use xlink:href="#SimHei-30" transform="translate(50 0)"/>
       <use xlink:href="#SimHei-32" transform="translate(100 0)"/>
       <use xlink:href="#SimHei-35" transform="translate(150 0)"/>
       <use xlink:href="#SimHei-2d" transform="translate(200 0)"/>
       <use xlink:href="#SimHei-30" transform="translate(250 0)"/>
       <use xlink:href="#SimHei-38" transform="translate(300 0)"/>
       <use xlink:href="#SimHei-2d" transform="translate(350 0)"/>
       <use xlink:href="#SimHei-30" transform="translate(400 0)"/>
       <use xlink:href="#SimHei-34" transform="translate(450 0)"/>
      </g>
     </g>
    </g>
    <g id="xtick_7">
     <g id="line2d_7">
      <g>
       <use xlink:href="#m691a9d5c24" x="297.883379" y="467.6575" style="stroke: #000000; stroke-width: 0.8"/>
      </g>
     </g>
     <g id="text_7">
      <!-- 2025-08-13 -->
      <g transform="translate(285.332234 506.830859) rotate(-45) scale(0.08 -0.08)">
       <use xlink:href="#SimHei-32"/>
       <use xlink:href="#SimHei-30" transform="translate(50 0)"/>
       <use xlink:href="#SimHei-32" transform="translate(100 0)"/>
       <use xlink:href="#SimHei-35" transform="translate(150 0)"/>
       <use xlink:href="#SimHei-2d" transform="translate(200 0)"/>
       <use xlink:href="#SimHei-30" transform="translate(250 0)"/>
       <use xlink:href="#SimHei-38" transform="translate(300 0)"/>
       <use xlink:href="#SimHei-2d" transform="translate(350 0)"/>
       <use xlink:href="#SimHei-31" transform="translate(400 0)"/>
       <use xlink:href="#SimHei-33" transform="translate(450 0)"/>
      </g>
     </g>
    </g>
    <g id="xtick_8">
     <g id="line2d_8">
      <g>
       <use xlink:href="#m691a9d5c24" x="333.535077" y="467.6575" style="stroke: #000000; stroke-width: 0.8"/>
      </g>
     </g>
     <g id="text_8">
      <!-- 2025-08-22 -->
      <g transform="translate(320.983931 506.830859) rotate(-45) scale(0.08 -0.08)">
       <use xlink:href="#SimHei-32"/>
       <use xlink:href="#SimHei-30" transform="translate(50 0)"/>
       <use xlink:href="#SimHei-32" transform="translate(100 0)"/>
       <use xlink:href="#SimHei-35" transform="translate(150 0)"/>
       <use xlink:href="#SimHei-2d" transform="translate(200 0)"/>
       <use xlink:href="#SimHei-30" transform="translate(250 0)"/>
       <use xlink:href="#SimHei-38" transform="translate(300 0)"/>
       <use xlink:href="#SimHei-2d" transform="translate(350 0)"/>
       <use xlink:href="#SimHei-32" transform="translate(400 0)"/>
       <use xlink:href="#SimHei-32" transform="translate(450 0)"/>
      </g>
     </g>
    </g>
    <g id="xtick_9">
     <g id="line2d_9">
      <g>
       <use xlink:href="#m691a9d5c24" x="369.186774" y="467.6575" style="stroke: #000000; stroke-width: 0.8"/>
      </g>
     </g>
     <g id="text_9">
      <!-- 2025-09-03 -->
      <g transform="translate(356.635629 506.830859) rotate(-45) scale(0.08 -0.08)">
       <use xlink:href="#SimHei-32"/>
       <use xlink:href="#SimHei-30" transform="translate(50 0)"/>
       <use xlink:href="#SimHei-32" transform="translate(100 0)"/>
       <use xlink:href="#SimHei-35" transform="translate(150 0)"/>
       <use xlink:href="#SimHei-2d" transform="translate(200 0)"/>
       <use xlink:href="#SimHei-30" transform="translate(250 0)"/>
       <use xlink:href="#SimHei-39" transform="translate(300 0)"/>
       <use xlink:href="#SimHei-2d" transform="translate(350 0)"/>
       <use xlink:href="#SimHei-30" transform="translate(400 0)"/>
       <use xlink:href="#SimHei-33" transform="translate(450 0)"/>
      </g>
     </g>
    </g>
    <g id="xtick_10">
     <g id="line2d_10">
      <g>
       <use xlink:href="#m691a9d5c24" x="404.838472" y="467.6575" style="stroke: #000000; stroke-width: 0.8"/>
      </g>
     </g>
     <g id="text_10">
      <!-- 2025-09-11 -->
      <g transform="translate(392.287327 506.830859) rotate(-45) scale(0.08 -0.08)">
       <use xlink:href="#SimHei-32"/>
       <use xlink:href="#SimHei-30" transform="translate(50 0)"/>
       <use xlink:href="#SimHei-32" transform="translate(100 0)"/>
       <use xlink:href="#SimHei-35" transform="translate(150 0)"/>
       <use xlink:href="#SimHei-2d" transform="translate(200 0)"/>
       <use xlink:href="#SimHei-30" transform="translate(250 0)"/>
       <use xlink:href="#SimHei-39" transform="translate(300 0)"/>
       <use xlink:href="#SimHei-2d" transform="translate(350 0)"/>
       <use xlink:href="#SimHei-31" transform="translate(400 0)"/>
       <use xlink:href="#SimHei-31" transform="translate(450 0)"/>
      </g>
     </g>
    </g>
    <g id="xtick_11">
     <g id="line2d_11">
      <g>
       <use xlink:href="#m691a9d5c24" x="440.49017" y="467.6575" style="stroke: #000000; stroke-width: 0.8"/>
      </g>
     </g>
     <g id="text_11">
      <!-- 2025-09-19 -->
      <g transform="translate(427.939024 506.830859) rotate(-45) scale(0.08 -0.08)">
       <use xlink:href="#SimHei-32"/>
       <use xlink:href="#SimHei-30" transform="translate(50 0)"/>
       <use xlink:href="#SimHei-32" transform="translate(100 0)"/>
       <use xlink:href="#SimHei-35" transform="translate(150 0)"/>
       <use xlink:href="#SimHei-2d" transform="translate(200 0)"/>
       <use xlink:href="#SimHei-30" transform="translate(250 0)"/>
       <use xlink:href="#SimHei-39" transform="translate(300 0)"/>
       <use xlink:href="#SimHei-2d" transform="translate(350 0)"/>
       <use xlink:href="#SimHei-31" transform="translate(400 0)"/>
       <use xlink:href="#SimHei-39" transform="translate(450 0)"/>
      </g>
     </g>
    </g>
    <g id="xtick_12">
     <g id="line2d_12">
      <g>
       <use xlink:href="#m691a9d5c24" x="476.141867" y="467.6575" style="stroke: #000000; stroke-width: 0.8"/>
      </g>
     </g>
     <g id="text_12">
      <!-- 2025-09-30 -->
      <g transform="translate(463.590722 506.830859) rotate(-45) scale(0.08 -0.08)">
       <use xlink:href="#SimHei-32"/>
       <use xlink:href="#SimHei-30" transform="translate(50 0)"/>
       <use xlink:href="#SimHei-32" transform="translate(100 0)"/>
       <use xlink:href="#SimHei-35" transform="translate(150 0)"/>
       <use xlink:href="#SimHei-2d" transform="translate(200 0)"/>
       <use xlink:href="#SimHei-30" transform="translate(250 0)"/>
       <use xlink:href="#SimHei-39" transform="translate(300 0)"/>
       <use xlink:href="#SimHei-2d" transform="translate(350 0)"/>
       <use xlink:href="#SimHei-33" transform="translate(400 0)"/>
       <use xlink:href="#SimHei-30" transform="translate(450 0)"/>
      </g>
     </g>
    </g>
    <g id="xtick_13">
     <g id="line2d_13">
      <g>
       <use xlink:href="#m691a9d5c24" x="511.793565" y="467.6575" style="stroke: #000000; stroke-width: 0.8"/>
      </g>
     </g>
     <g id="text_13">
      <!-- 2025-10-23 -->
      <g transform="translate(499.24242 506.830859) rotate(-45) scale(0.08 -0.08)">
       <use xlink:href="#SimHei-32"/>
       <use xlink:href="#SimHei-30" transform="translate(50 0)"/>
       <use xlink:href="#SimHei-32" transform="translate(100 0)"/>
       <use xlink:href="#SimHei-35" transform="translate(150 0)"/>
       <use xlink:href="#SimHei-2d" transform="translate(200 0)"/>
       <use xlink:href="#SimHei-31" transform="translate(250 0)"/>
       <use xlink:href="#SimHei-30" transform="translate(300 0)"/>
       <use xlink:href="#SimHei-2d" transform="translate(350 0)"/>
       <use xlink:href="#SimHei-32" transform="translate(400 0)"/>
       <use xlink:href="#SimHei-33" transform="translate(450 0)"/>
      </g>
     </g>
    </g>
    <g id="xtick_14">
     <g id="line2d_14">
      <g>
       <use xlink:href="#m691a9d5c24" x="547.445263" y="467.6575" style="stroke: #000000; stroke-width: 0.8"/>
      </g>
     </g>
     <g id="text_14">
      <!-- 2025-10-31 -->
      <g transform="translate(534.894118 506.830859) rotate(-45) scale(0.08 -0.08)">
       <use xlink:href="#SimHei-32"/>
       <use xlink:href="#SimHei-30" transform="translate(50 0)"/>
       <use xlink:href="#SimHei-32" transform="translate(100 0)"/>
       <use xlink:href="#SimHei-35" transform="translate(150 0)"/>
       <use xlink:href="#SimHei-2d" transform="translate(200 0)"/>
       <use xlink:href="#SimHei-31" transform="translate(250 0)"/>
       <use xlink:href="#SimHei-30" transform="translate(300 0)"/>
       <use xlink:href="#SimHei-2d" transform="translate(350 0)"/>
       <use xlink:href="#SimHei-33" transform="translate(400 0)"/>
       <use xlink:href="#SimHei-31" transform="translate(450 0)"/>
      </g>
     </g>
    </g>
    <g id="xtick_15">
     <g id="line2d_15">
      <g>
       <use xlink:href="#m691a9d5c24" x="583.096961" y="467.6575" style="stroke: #000000; stroke-width: 0.8"/>
      </g>
     </g>
     <g id="text_15">
      <!-- 2025-11-12 -->
      <g transform="translate(570.545815 506.830859) rotate(-45) scale(0.08 -0.08)">
       <use xlink:href="#SimHei-32"/>
       <use xlink:href="#SimHei-30" transform="translate(50 0)"/>
       <use xlink:href="#SimHei-32" transform="translate(100 0)"/>
       <use xlink:href="#SimHei-35" transform="translate(150 0)"/>
       <use xlink:href="#SimHei-2d" transform="translate(200 0)"/>
       <use xlink:href="#SimHei-31" transform="translate(250 0)"/>
       <use xlink:href="#SimHei-31" transform="translate(300 0)"/>
       <use xlink:href="#SimHei-2d" transform="translate(350 0)"/>
       <use xlink:href="#SimHei-31" transform="translate(400 0)"/>
       <use xlink:href="#SimHei-32" transform="translate(450 0)"/>
      </g>
     </g>
    </g>
    <g id="xtick_16">
     <g id="line2d_16">
      <g>
       <use xlink:href="#m691a9d5c24" x="618.748658" y="467.6575" style="stroke: #000000; stroke-width: 0.8"/>
      </g>
     </g>
     <g id="text_16">
      <!-- 2025-11-21 -->
      <g transform="translate(606.197513 506.830859) rotate(-45) scale(0.08 -0.08)">
       <use xlink:href="#SimHei-32"/>
       <use xlink:href="#SimHei-30" transform="translate(50 0)"/>
       <use xlink:href="#SimHei-32" transform="translate(100 0)"/>
       <use xlink:href="#SimHei-35" transform="translate(150 0)"/>
       <use xlink:href="#SimHei-2d" transform="translate(200 0)"/>
       <use xlink:href="#SimHei-31" transform="translate(250 0)"/>
       <use xlink:href="#SimHei-31" transform="translate(300 0)"/>
       <use xlink:href="#SimHei-2d" transform="translate(350 0)"/>
       <use xlink:href="#SimHei-32" transform="translate(400 0)"/>
       <use xlink:href="#SimHei-31" transform="translate(450 0)"/>
      </g>
     </g>
    </g>
    <g id="xtick_17">
     <g id="line2d_17">
      <g>
       <use xlink:href="#m691a9d5c24" x="654.400356" y="467.6575" style="stroke: #000000; stroke-width: 0.8"/>
      </g>
     </g>
     <g id="text_17">
      <!-- 2025-11-28 -->
      <g transform="translate(641.849211 506.830859) rotate(-45) scale(0.08 -0.08)">
       <use xlink:href="#SimHei-32"/>
       <use xlink:href="#SimHei-30" transform="translate(50 0)"/>
       <use xlink:href="#SimHei-32" transform="translate(100 0)"/>
       <use xlink:href="#SimHei-35" transform="translate(150 0)"/>
       <use xlink:href="#SimHei-2d" transform="translate(200 0)"/>
       <use xlink:href="#SimHei-31" transform="translate(250 0)"/>
       <use xlink:href="#SimHei-31" transform="translate(300 0)"/>
       <use xlink:href="#SimHei-2d" transform="translate(350 0)"/>
       <use xlink:href="#SimHei-32" transform="translate(400 0)"/>
       <use xlink:href="#SimHei-38" transform="translate(450 0)"/>
      </g>
     </g>
    </g>
    <g id="xtick_18">
     <g id="line2d_18">
      <g>
       <use xlink:href="#m691a9d5c24" x="690.052054" y="467.6575" style="stroke: #000000; stroke-width: 0.8"/>
      </g>
     </g>
     <g id="text_18">
      <!-- 2025-12-08 -->
      <g transform="translate(677.500908 506.830859) rotate(-45) scale(0.08 -0.08)">
       <use xlink:href="#SimHei-32"/>
       <use xlink:href="#SimHei-30" transform="translate(50 0)"/>
       <use xlink:href="#SimHei-32" transform="translate(100 0)"/>
       <use xlink:href="#SimHei-35" transform="translate(150 0)"/>
       <use xlink:href="#SimHei-2d" transform="translate(200 0)"/>
       <use xlink:href="#SimHei-31" transform="translate(250 0)"/>
       <use xlink:href="#SimHei-32" transform="translate(300 0)"/>
       <use xlink:href="#SimHei-2d" transform="translate(350 0)"/>
       <use xlink:href="#SimHei-30" transform="translate(400 0)"/>
       <use xlink:href="#SimHei-38" transform="translate(450 0)"/>
      </g>
     </g>
    </g>
    <g id="xtick_19">
     <g id="line2d_19">
      <g>
       <use xlink:href="#m691a9d5c24" x="725.703751" y="467.6575" style="stroke: #000000; stroke-width: 0.8"/>
      </g>
     </g>
     <g id="text_19">
      <!-- 2025-12-15 -->
      <g transform="translate(713.152606 506.830859) rotate(-45) scale(0.08 -0.08)">
       <use xlink:href="#SimHei-32"/>
       <use xlink:href="#SimHei-30" transform="translate(50 0)"/>
       <use xlink:href="#SimHei-32" transform="translate(100 0)"/>
       <use xlink:href="#SimHei-35" transform="translate(150 0)"/>
       <use xlink:href="#SimHei-2d" transform="translate(200 0)"/>
       <use xlink:href="#SimHei-31" transform="translate(250 0)"/>
       <use xlink:href="#SimHei-32" transform="translate(300 0)"/>
       <use xlink:href="#SimHei-2d" transform="translate(350 0)"/>
       <use xlink:href="#SimHei-31" transform="translate(400 0)"/>
       <use xlink:href="#SimHei-35" transform="translate(450 0)"/>
      </g>
     </g>
    </g>
    <g id="xtick_20">
     <g id="line2d_20">
      <g>
       <use xlink:href="#m691a9d5c24" x="761.355449" y="467.6575" style="stroke: #000000; stroke-width: 0.8"/>
      </g>
     </g>
     <g id="text_20">
      <!-- 2025-12-23 -->
      <g transform="translate(748.804304 506.830859) rotate(-45) scale(0.08 -0.08)">
       <use xlink:href="#SimHei-32"/>
       <use xlink:href="#SimHei-30" transform="translate(50 0)"/>
       <use xlink:href="#SimHei-32" transform="translate(100 0)"/>
       <use xlink:href="#SimHei-35" transform="translate(150 0)"/>
       <use xlink:href="#SimHei-2d" transform="translate(200 0)"/>
       <use xlink:href="#SimHei-31" transform="translate(250 0)"/>
       <use xlink:href="#SimHei-32" transform="translate(300 0)"/>
       <use xlink:href="#SimHei-2d" transform="translate(350 0)"/>
       <use xlink:href="#SimHei-32" transform="translate(400 0)"/>
       <use xlink:href="#SimHei-33" transform="translate(450 0)"/>
      </g>
     </g>
    </g>
   </g>
   <g id="matplotlib.axis_2">
    <g id="ytick_1">
     <g id="line2d_21">
      <defs>
       <path id="m30be720c13" d="M 0 0 
L -3.5 0 
" style="stroke: #000000; stroke-width: 0.8"/>
      </defs>
      <g>
       <use xlink:href="#m30be720c13" x="46.325" y="406.767635" style="stroke: #000000; stroke-width: 0.8"/>
      </g>
     </g>
     <g id="text_21">
      <!-- 4600 -->
      <g transform="translate(19.325 410.205135) scale(0.1 -0.1)">
       <use xlink:href="#SimHei-34"/>
       <use xlink:href="#SimHei-36" transform="translate(50 0)"/>
       <use xlink:href="#SimHei-30" transform="translate(100 0)"/>
       <use xlink:href="#SimHei-30" transform="translate(150 0)"/>
      </g>
     </g>
    </g>
    <g id="ytick_2">
     <g id="line2d_22">
      <g>
       <use xlink:href="#m30be720c13" x="46.325" y="342.349268" style="stroke: #000000; stroke-width: 0.8"/>
      </g>
     </g>
     <g id="text_22">
      <!-- 4800 -->
      <g transform="translate(19.325 345.786768) scale(0.1 -0.1)">
       <use xlink:href="#SimHei-34"/>
       <use xlink:href="#SimHei-38" transform="translate(50 0)"/>
       <use xlink:href="#SimHei-30" transform="translate(100 0)"/>
       <use xlink:href="#SimHei-30" transform="translate(150 0)"/>
      </g>
     </g>
    </g>
    <g id="ytick_3">
     <g id="line2d_23">
      <g>
       <use xlink:href="#m30be720c13" x="46.325" y="277.930902" style="stroke: #000000; stroke-width: 0.8"/>
      </g>
     </g>
     <g id="text_23">
      <!-- 5000 -->
      <g transform="translate(19.325 281.368402) scale(0.1 -0.1)">
       <use xlink:href="#SimHei-35"/>
       <use xlink:href="#SimHei-30" transform="translate(50 0)"/>
       <use xlink:href="#SimHei-30" transform="translate(100 0)"/>
       <use xlink:href="#SimHei-30" transform="translate(150 0)"/>
      </g>
     </g>
    </g>
    <g id="ytick_4">
     <g id="line2d_24">
      <g>
       <use xlink:href="#m30be720c13" x="46.325" y="213.512535" style="stroke: #000000; stroke-width: 0.8"/>
      </g>
     </g>
     <g id="text_24">
      <!-- 5200 -->
      <g transform="translate(19.325 216.950035) scale(0.1 -0.1)">
       <use xlink:href="#SimHei-35"/>
       <use xlink:href="#SimHei-32" transform="translate(50 0)"/>
       <use xlink:href="#SimHei-30" transform="translate(100 0)"/>
       <use xlink:href="#SimHei-30" transform="translate(150 0)"/>
      </g>
     </g>
    </g>
    <g id="ytick_5">
     <g id="line2d_25">
      <g>
       <use xlink:href="#m30be720c13" x="46.325" y="149.094168" style="stroke: #000000; stroke-width: 0.8"/>
      </g>
     </g>
     <g id="text_25">
      <!-- 5400 -->
      <g transform="translate(19.325 152.531668) scale(0.1 -0.1)">
       <use xlink:href="#SimHei-35"/>
       <use xlink:href="#SimHei-34" transform="translate(50 0)"/>
       <use xlink:href="#SimHei-30" transform="translate(100 0)"/>
       <use xlink:href="#SimHei-30" transform="translate(150 0)"/>
      </g>
     </g>
    </g>
    <g id="ytick_6">
     <g id="line2d_26">
      <g>
       <use xlink:href="#m30be720c13" x="46.325" y="84.675802" style="stroke: #000000; stroke-width: 0.8"/>
      </g>
     </g>
     <g id="text_26">
      <!-- 5600 -->
      <g transform="translate(19.325 88.113302) scale(0.1 -0.1)">
       <use xlink:href="#SimHei-35"/>
       <use xlink:href="#SimHei-36" transform="translate(50 0)"/>
       <use xlink:href="#SimHei-30" transform="translate(100 0)"/>
       <use xlink:href="#SimHei-30" transform="translate(150 0)"/>
      </g>
     </g>
    </g>
    <g id="text_27">
     <!-- Price -->
     <g transform="translate(14.075 258.3975) rotate(-90) scale(0.1 -0.1)">
      <defs>
       <path id="SimHei-50" d="M 2950 3100 
Q 2950 2500 2600 2150 
Q 2250 1800 1625 1800 
L 900 1800 
L 900 125 
L 325 125 
L 325 4400 
L 1625 4400 
Q 2250 4400 2600 4050 
Q 2950 3700 2950 3100 
z
M 2375 3100 
Q 2375 3575 2150 3750 
Q 1925 3925 1475 3925 
L 900 3925 
L 900 2275 
L 1475 2275 
Q 1925 2275 2150 2450 
Q 2375 2625 2375 3100 
z
" transform="scale(0.015625)"/>
       <path id="SimHei-72" d="M 2500 2425 
Q 2025 2500 1700 2287 
Q 1375 2075 1150 1550 
L 1150 125 
L 650 125 
L 650 2925 
L 1150 2925 
L 1150 2200 
Q 1375 2600 1712 2787 
Q 2050 2975 2500 2975 
L 2500 2425 
z
" transform="scale(0.015625)"/>
       <path id="SimHei-69" d="M 1800 3725 
L 1300 3725 
L 1300 4375 
L 1800 4375 
L 1800 3725 
z
M 1800 125 
L 1300 125 
L 1300 2925 
L 1800 2925 
L 1800 125 
z
" transform="scale(0.015625)"/>
       <path id="SimHei-63" d="M 2850 1250 
Q 2850 725 2487 400 
Q 2125 75 1575 75 
Q 1025 75 625 462 
Q 225 850 225 1525 
Q 225 2200 625 2587 
Q 1025 2975 1575 2975 
Q 2125 2975 2450 2687 
Q 2775 2400 2775 2000 
L 2225 2000 
Q 2200 2300 2012 2412 
Q 1825 2525 1575 2525 
Q 1275 2525 1025 2287 
Q 775 2050 775 1525 
Q 775 1000 1025 762 
Q 1275 525 1575 525 
Q 1900 525 2100 700 
Q 2300 875 2300 1250 
L 2850 1250 
z
" transform="scale(0.015625)"/>
       <path id="SimHei-65" d="M 2850 1075 
Q 2800 625 2450 350 
Q 2100 75 1625 75 
Q 1025 75 637 462 
Q 250 850 250 1525 
Q 250 2200 637 2587 
Q 1025 2975 1625 2975 
Q 2150 2975 2487 2637 
Q 2825 2300 2825 1525 
L 800 1525 
Q 800 975 1037 750 
Q 1275 525 1625 525 
Q 1900 525 2075 662 
Q 2250 800 2300 1075 
L 2850 1075 
z
M 2250 1925 
Q 2200 2275 2025 2412 
Q 1850 2550 1575 2550 
Q 1325 2550 1125 2412 
Q 925 2275 825 1925 
L 2250 1925 
z
" transform="scale(0.015625)"/>
      </defs>
      <use xlink:href="#SimHei-50"/>
      <use xlink:href="#SimHei-72" transform="translate(50 0)"/>
      <use xlink:href="#SimHei-69" transform="translate(100 0)"/>
      <use xlink:href="#SimHei-63" transform="translate(150 0)"/>
      <use xlink:href="#SimHei-65" transform="translate(200 0)"/>
     </g>
    </g>
   </g>
   <g id="line2d_27">
    <path d="M 83.973193 447.4975 
L 483.272207 44.2975 
" clip-path="url(#pedb524a5f0)" style="fill: none; stroke: #800080; stroke-opacity: 0.8; stroke-width: 1.5; stroke-linecap: square"/>
   </g>
   <g id="line2d_28">
    <path d="M 511.793565 153.253405 
L 590.2273 66.904965 
" clip-path="url(#pedb524a5f0)" style="fill: none; stroke: #800080; stroke-opacity: 0.8; stroke-width: 1.5; stroke-linecap: square"/>
   </g>
   <g id="line2d_29">
    <path d="M 625.878998 183.35614 
L 690.052054 90.256977 
" clip-path="url(#pedb524a5f0)" style="fill: none; stroke: #800080; stroke-opacity: 0.8; stroke-width: 1.5; stroke-linecap: square"/>
   </g>
   <g id="line2d_30">
    <path d="M 732.834091 151.084599 
L 782.746468 55.829708 
" clip-path="url(#pedb524a5f0)" style="fill: none; stroke: #800080; stroke-opacity: 0.8; stroke-width: 1.5; stroke-linecap: square"/>
   </g>
   <g id="patch_203">
    <path d="M 46.325 467.6575 
L 46.325 24.1375 
" style="fill: none; stroke: #000000; stroke-width: 0.8; stroke-linejoin: miter; stroke-linecap: square"/>
   </g>
   <g id="patch_204">
    <path d="M 827.525 467.6575 
L 827.525 24.1375 
" style="fill: none; stroke: #000000; stroke-width: 0.8; stroke-linejoin: miter; stroke-linecap: square"/>
   </g>
   <g id="patch_205">
    <path d="M 46.325 467.6575 
L 827.525 467.6575 
" style="fill: none; stroke: #000000; stroke-width: 0.8; stroke-linejoin: miter; stroke-linecap: square"/>
   </g>
   <g id="patch_206">
    <path d="M 46.325 24.1375 
L 827.525 24.1375 
" style="fill: none; stroke: #000000; stroke-width: 0.8; stroke-linejoin: miter; stroke-linecap: square"/>
   </g>
   <g id="text_28">
    <!-- B 4473.55 -->
    <g style="fill: #0000ff" transform="translate(86.112295 450.379285) scale(0.08 -0.08)">
     <defs>
      <path id="SimHei-42" d="M 2950 1400 
Q 2950 675 2550 400 
Q 2150 125 1525 125 
L 275 125 
L 275 4400 
L 1575 4400 
Q 2200 4400 2512 4075 
Q 2825 3750 2825 3300 
Q 2825 2850 2612 2637 
Q 2400 2425 2175 2350 
Q 2475 2275 2712 2037 
Q 2950 1800 2950 1400 
z
M 2250 3300 
Q 2250 3625 2062 3775 
Q 1875 3925 1600 3925 
L 850 3925 
L 850 2600 
L 1575 2600 
Q 1850 2600 2050 2762 
Q 2250 2925 2250 3300 
z
M 2350 1400 
Q 2350 1800 2087 1962 
Q 1825 2125 1500 2125 
L 850 2125 
L 850 600 
L 1425 600 
Q 1875 600 2112 775 
Q 2350 950 2350 1400 
z
" transform="scale(0.015625)"/>
      <path id="SimHei-20" transform="scale(0.015625)"/>
      <path id="SimHei-2e" d="M 1075 125 
L 500 125 
L 500 675 
L 1075 675 
L 1075 125 
z
" transform="scale(0.015625)"/>
     </defs>
     <use xlink:href="#SimHei-42"/>
     <use xlink:href="#SimHei-20" transform="translate(50 0)"/>
     <use xlink:href="#SimHei-34" transform="translate(100 0)"/>
     <use xlink:href="#SimHei-34" transform="translate(150 0)"/>
     <use xlink:href="#SimHei-37" transform="translate(200 0)"/>
     <use xlink:href="#SimHei-33" transform="translate(250 0)"/>
     <use xlink:href="#SimHei-2e" transform="translate(300 0)"/>
     <use xlink:href="#SimHei-35" transform="translate(350 0)"/>
     <use xlink:href="#SimHei-35" transform="translate(400 0)"/>
    </g>
   </g>
   <g id="text_29">
    <!-- Tx -->
    <g style="fill: #808080" transform="translate(107.503313 390.265231) scale(0.08 -0.08)">
     <defs>
      <path id="SimHei-54" d="M 2850 3925 
L 1850 3925 
L 1850 125 
L 1275 125 
L 1275 3925 
L 275 3925 
L 275 4400 
L 2850 4400 
L 2850 3925 
z
" transform="scale(0.015625)"/>
      <path id="SimHei-78" d="M 2875 125 
L 2275 125 
L 1550 1200 
L 825 125 
L 225 125 
L 1250 1550 
L 300 2925 
L 900 2925 
L 1550 1875 
L 2200 2925 
L 2800 2925 
L 1850 1550 
L 2875 125 
z
" transform="scale(0.015625)"/>
     </defs>
     <use xlink:href="#SimHei-54"/>
     <use xlink:href="#SimHei-78" transform="translate(50 0)"/>
    </g>
   </g>
   <g id="text_30">
    <!-- Tx -->
    <g style="fill: #808080" transform="translate(136.024671 372.536463) scale(0.08 -0.08)">
     <use xlink:href="#SimHei-54"/>
     <use xlink:href="#SimHei-78" transform="translate(50 0)"/>
    </g>
   </g>
   <g id="text_31">
    <!-- Bx -->
    <g style="fill: #808080" transform="translate(143.155011 398.883982) scale(0.08 -0.08)">
     <use xlink:href="#SimHei-42"/>
     <use xlink:href="#SimHei-78" transform="translate(50 0)"/>
    </g>
   </g>
   <g id="text_32">
    <!-- Tx -->
    <g style="fill: #808080" transform="translate(171.676369 354.697011) scale(0.08 -0.08)">
     <use xlink:href="#SimHei-54"/>
     <use xlink:href="#SimHei-78" transform="translate(50 0)"/>
    </g>
   </g>
   <g id="text_33">
    <!-- Tx -->
    <g style="fill: #808080" transform="translate(228.719085 311.017114) scale(0.08 -0.08)">
     <use xlink:href="#SimHei-54"/>
     <use xlink:href="#SimHei-78" transform="translate(50 0)"/>
    </g>
   </g>
   <g id="text_34">
    <!-- Tx -->
    <g style="fill: #808080" transform="translate(250.110104 294.934849) scale(0.08 -0.08)">
     <use xlink:href="#SimHei-54"/>
     <use xlink:href="#SimHei-78" transform="translate(50 0)"/>
    </g>
   </g>
   <g id="text_35">
    <!-- Tx -->
    <g style="fill: #808080" transform="translate(314.28316 251.824496) scale(0.08 -0.08)">
     <use xlink:href="#SimHei-54"/>
     <use xlink:href="#SimHei-78" transform="translate(50 0)"/>
    </g>
   </g>
   <g id="text_36">
    <!-- Tx -->
    <g style="fill: #808080" transform="translate(342.804518 157.879559) scale(0.08 -0.08)">
     <use xlink:href="#SimHei-54"/>
     <use xlink:href="#SimHei-78" transform="translate(50 0)"/>
    </g>
   </g>
   <g id="text_37">
    <!-- Tx -->
    <g style="fill: #808080" transform="translate(364.195537 133.913984) scale(0.08 -0.08)">
     <use xlink:href="#SimHei-54"/>
     <use xlink:href="#SimHei-78" transform="translate(50 0)"/>
    </g>
   </g>
   <g id="text_38">
    <!-- Bx -->
    <g style="fill: #808080" transform="translate(399.847234 191.266057) scale(0.08 -0.08)">
     <use xlink:href="#SimHei-42"/>
     <use xlink:href="#SimHei-78" transform="translate(50 0)"/>
    </g>
   </g>
   <g id="text_39">
    <!-- Tx -->
    <g style="fill: #808080" transform="translate(421.238253 119.277295) scale(0.08 -0.08)">
     <use xlink:href="#SimHei-54"/>
     <use xlink:href="#SimHei-78" transform="translate(50 0)"/>
    </g>
   </g>
   <g id="text_40">
    <!-- Tx -->
    <g style="fill: #808080" transform="translate(435.498932 105.451541) scale(0.08 -0.08)">
     <use xlink:href="#SimHei-54"/>
     <use xlink:href="#SimHei-78" transform="translate(50 0)"/>
    </g>
   </g>
   <g id="text_41">
    <!-- Tx -->
    <g style="fill: #808080" transform="translate(464.02029 86.705718) scale(0.08 -0.08)">
     <use xlink:href="#SimHei-54"/>
     <use xlink:href="#SimHei-78" transform="translate(50 0)"/>
    </g>
   </g>
   <g id="text_42">
    <!-- T 5725.36 -->
    <g transform="translate(485.411309 42.453407) scale(0.08 -0.08)">
     <use xlink:href="#SimHei-54"/>
     <use xlink:href="#SimHei-20" transform="translate(50 0)"/>
     <use xlink:href="#SimHei-35" transform="translate(100 0)"/>
     <use xlink:href="#SimHei-37" transform="translate(150 0)"/>
     <use xlink:href="#SimHei-32" transform="translate(200 0)"/>
     <use xlink:href="#SimHei-35" transform="translate(250 0)"/>
     <use xlink:href="#SimHei-2e" transform="translate(300 0)"/>
     <use xlink:href="#SimHei-33" transform="translate(350 0)"/>
     <use xlink:href="#SimHei-36" transform="translate(400 0)"/>
    </g>
   </g>
   <g id="text_43">
    <!-- B 5387.09 -->
    <g style="fill: #0000ff" transform="translate(513.932667 156.723678) scale(0.08 -0.08)">
     <use xlink:href="#SimHei-42"/>
     <use xlink:href="#SimHei-20" transform="translate(50 0)"/>
     <use xlink:href="#SimHei-35" transform="translate(100 0)"/>
     <use xlink:href="#SimHei-33" transform="translate(150 0)"/>
     <use xlink:href="#SimHei-38" transform="translate(200 0)"/>
     <use xlink:href="#SimHei-37" transform="translate(250 0)"/>
     <use xlink:href="#SimHei-2e" transform="translate(300 0)"/>
     <use xlink:href="#SimHei-30" transform="translate(350 0)"/>
     <use xlink:href="#SimHei-39" transform="translate(400 0)"/>
    </g>
   </g>
   <g id="text_44">
    <!-- Tx -->
    <g style="fill: #808080" transform="translate(542.454025 46.304738) scale(0.08 -0.08)">
     <use xlink:href="#SimHei-54"/>
     <use xlink:href="#SimHei-78" transform="translate(50 0)"/>
    </g>
   </g>
   <g id="text_45">
    <!-- Bx -->
    <g style="fill: #808080" transform="translate(563.845044 133.727763) scale(0.08 -0.08)">
     <use xlink:href="#SimHei-42"/>
     <use xlink:href="#SimHei-78" transform="translate(50 0)"/>
    </g>
   </g>
   <g id="text_46">
    <!-- Bx -->
    <g style="fill: #808080" transform="translate(585.236062 107.772634) scale(0.08 -0.08)">
     <use xlink:href="#SimHei-42"/>
     <use xlink:href="#SimHei-78" transform="translate(50 0)"/>
    </g>
   </g>
   <g id="text_47">
    <!-- T 5655.17 -->
    <g transform="translate(592.366402 65.08348) scale(0.08 -0.08)">
     <use xlink:href="#SimHei-54"/>
     <use xlink:href="#SimHei-20" transform="translate(50 0)"/>
     <use xlink:href="#SimHei-35" transform="translate(100 0)"/>
     <use xlink:href="#SimHei-36" transform="translate(150 0)"/>
     <use xlink:href="#SimHei-35" transform="translate(200 0)"/>
     <use xlink:href="#SimHei-35" transform="translate(250 0)"/>
     <use xlink:href="#SimHei-2e" transform="translate(300 0)"/>
     <use xlink:href="#SimHei-31" transform="translate(350 0)"/>
     <use xlink:href="#SimHei-37" transform="translate(400 0)"/>
    </g>
   </g>
   <g id="text_48">
    <!-- B 5293.63 -->
    <g style="fill: #0000ff" transform="translate(628.0181 186.766208) scale(0.08 -0.08)">
     <use xlink:href="#SimHei-42"/>
     <use xlink:href="#SimHei-20" transform="translate(50 0)"/>
     <use xlink:href="#SimHei-35" transform="translate(100 0)"/>
     <use xlink:href="#SimHei-32" transform="translate(150 0)"/>
     <use xlink:href="#SimHei-39" transform="translate(200 0)"/>
     <use xlink:href="#SimHei-33" transform="translate(250 0)"/>
     <use xlink:href="#SimHei-2e" transform="translate(300 0)"/>
     <use xlink:href="#SimHei-36" transform="translate(350 0)"/>
     <use xlink:href="#SimHei-33" transform="translate(400 0)"/>
    </g>
   </g>
   <g id="text_49">
    <!-- Tx -->
    <g style="fill: #808080" transform="translate(649.409118 122.202008) scale(0.08 -0.08)">
     <use xlink:href="#SimHei-54"/>
     <use xlink:href="#SimHei-78" transform="translate(50 0)"/>
    </g>
   </g>
   <g id="text_50">
    <!-- Tx -->
    <g style="fill: #808080" transform="translate(663.669797 113.313379) scale(0.08 -0.08)">
     <use xlink:href="#SimHei-54"/>
     <use xlink:href="#SimHei-78" transform="translate(50 0)"/>
    </g>
   </g>
   <g id="text_51">
    <!-- Bx -->
    <g style="fill: #808080" transform="translate(677.930476 146.198196) scale(0.08 -0.08)">
     <use xlink:href="#SimHei-42"/>
     <use xlink:href="#SimHei-78" transform="translate(50 0)"/>
    </g>
   </g>
   <g id="text_52">
    <!-- T 5582.67 -->
    <g transform="translate(692.191156 88.458844) scale(0.08 -0.08)">
     <use xlink:href="#SimHei-54"/>
     <use xlink:href="#SimHei-20" transform="translate(50 0)"/>
     <use xlink:href="#SimHei-35" transform="translate(100 0)"/>
     <use xlink:href="#SimHei-35" transform="translate(150 0)"/>
     <use xlink:href="#SimHei-38" transform="translate(200 0)"/>
     <use xlink:href="#SimHei-32" transform="translate(250 0)"/>
     <use xlink:href="#SimHei-2e" transform="translate(300 0)"/>
     <use xlink:href="#SimHei-36" transform="translate(350 0)"/>
     <use xlink:href="#SimHei-37" transform="translate(400 0)"/>
    </g>
   </g>
   <g id="text_53">
    <!-- Bx -->
    <g style="fill: #808080" transform="translate(720.712514 131.920842) scale(0.08 -0.08)">
     <use xlink:href="#SimHei-42"/>
     <use xlink:href="#SimHei-78" transform="translate(50 0)"/>
    </g>
   </g>
   <g id="text_54">
    <!-- Tx -->
    <g style="fill: #808080" transform="translate(727.842853 101.446644) scale(0.08 -0.08)">
     <use xlink:href="#SimHei-54"/>
     <use xlink:href="#SimHei-78" transform="translate(50 0)"/>
    </g>
   </g>
   <g id="text_55">
    <!-- B 5393.82 -->
    <g style="fill: #0000ff" transform="translate(734.973193 154.55921) scale(0.08 -0.08)">
     <use xlink:href="#SimHei-42"/>
     <use xlink:href="#SimHei-20" transform="translate(50 0)"/>
     <use xlink:href="#SimHei-35" transform="translate(100 0)"/>
     <use xlink:href="#SimHei-33" transform="translate(150 0)"/>
     <use xlink:href="#SimHei-39" transform="translate(200 0)"/>
     <use xlink:href="#SimHei-33" transform="translate(250 0)"/>
     <use xlink:href="#SimHei-2e" transform="translate(300 0)"/>
     <use xlink:href="#SimHei-38" transform="translate(350 0)"/>
     <use xlink:href="#SimHei-32" transform="translate(400 0)"/>
    </g>
   </g>
   <g id="text_56">
    <!-- T 5689.56 -->
    <g transform="translate(784.88557 53.997148) scale(0.08 -0.08)">
     <use xlink:href="#SimHei-54"/>
     <use xlink:href="#SimHei-20" transform="translate(50 0)"/>
     <use xlink:href="#SimHei-35" transform="translate(100 0)"/>
     <use xlink:href="#SimHei-36" transform="translate(150 0)"/>
     <use xlink:href="#SimHei-38" transform="translate(200 0)"/>
     <use xlink:href="#SimHei-39" transform="translate(250 0)"/>
     <use xlink:href="#SimHei-2e" transform="translate(300 0)"/>
     <use xlink:href="#SimHei-35" transform="translate(350 0)"/>
     <use xlink:href="#SimHei-36" transform="translate(400 0)"/>
    </g>
   </g>
   <g id="text_57">
    <!-- Stroke Identification (Bill Williams / Chan Theory) -->
    <g transform="translate(258.425 18.1375) scale(0.14 -0.14)">
     <defs>
      <path id="SimHei-53" d="M 2900 1325 
Q 2900 750 2537 412 
Q 2175 75 1550 75 
Q 925 75 575 425 
Q 225 775 225 1300 
L 225 1475 
L 800 1475 
L 800 1325 
Q 800 950 1025 750 
Q 1250 550 1550 550 
Q 1950 550 2137 762 
Q 2325 975 2325 1275 
Q 2325 1525 2100 1737 
Q 1875 1950 1450 2125 
Q 850 2350 587 2625 
Q 325 2900 325 3275 
Q 325 3800 687 4125 
Q 1050 4450 1550 4450 
Q 2200 4450 2487 4062 
Q 2775 3675 2775 3225 
L 2200 3225 
Q 2225 3500 2050 3725 
Q 1875 3950 1550 3950 
Q 1250 3950 1075 3787 
Q 900 3625 900 3350 
Q 900 3125 1037 2962 
Q 1175 2800 1750 2575 
Q 2300 2350 2600 2037 
Q 2900 1725 2900 1325 
z
" transform="scale(0.015625)"/>
      <path id="SimHei-74" d="M 2750 200 
Q 2625 150 2462 112 
Q 2300 75 2025 75 
Q 1575 75 1300 325 
Q 1025 575 1025 1025 
L 1025 2525 
L 175 2525 
L 175 2925 
L 1025 2925 
L 1025 3900 
L 1525 3900 
L 1525 2925 
L 2550 2925 
L 2550 2525 
L 1525 2525 
L 1525 1000 
Q 1525 800 1625 662 
Q 1725 525 2000 525 
Q 2275 525 2450 575 
Q 2625 625 2750 700 
L 2750 200 
z
" transform="scale(0.015625)"/>
      <path id="SimHei-6f" d="M 2925 1525 
Q 2925 875 2525 475 
Q 2125 75 1575 75 
Q 1025 75 625 475 
Q 225 875 225 1525 
Q 225 2175 625 2575 
Q 1025 2975 1575 2975 
Q 2125 2975 2525 2575 
Q 2925 2175 2925 1525 
z
M 2375 1525 
Q 2375 2025 2125 2275 
Q 1875 2525 1575 2525 
Q 1275 2525 1025 2275 
Q 775 2025 775 1525 
Q 775 1025 1025 775 
Q 1275 525 1575 525 
Q 1875 525 2125 775 
Q 2375 1025 2375 1525 
z
" transform="scale(0.015625)"/>
      <path id="SimHei-6b" d="M 2925 125 
L 2350 125 
L 1450 1650 
L 875 1100 
L 875 125 
L 375 125 
L 375 4400 
L 875 4400 
L 875 1675 
L 2125 2925 
L 2750 2925 
L 1775 1975 
L 2925 125 
z
" transform="scale(0.015625)"/>
      <path id="SimHei-49" d="M 1850 125 
L 1275 125 
L 1275 4400 
L 1850 4400 
L 1850 125 
z
" transform="scale(0.015625)"/>
      <path id="SimHei-64" d="M 2750 125 
L 2250 125 
L 2250 500 
Q 2100 275 1900 175 
Q 1700 75 1425 75 
Q 925 75 575 437 
Q 225 800 225 1525 
Q 225 2250 575 2625 
Q 925 3000 1425 3000 
Q 1700 3000 1900 2887 
Q 2100 2775 2250 2550 
L 2250 4400 
L 2750 4400 
L 2750 125 
z
M 2250 1525 
Q 2250 2000 2037 2275 
Q 1825 2550 1525 2550 
Q 1150 2550 962 2275 
Q 775 2000 775 1525 
Q 775 1050 962 787 
Q 1150 525 1525 525 
Q 1825 525 2037 787 
Q 2250 1050 2250 1525 
z
" transform="scale(0.015625)"/>
      <path id="SimHei-6e" d="M 2800 125 
L 2300 125 
L 2300 1925 
Q 2300 2225 2150 2400 
Q 2000 2575 1750 2575 
Q 1425 2575 1137 2237 
Q 850 1900 850 1400 
L 850 125 
L 350 125 
L 350 2925 
L 850 2925 
L 850 2400 
Q 1050 2675 1287 2825 
Q 1525 2975 1900 2975 
Q 2350 2975 2575 2725 
Q 2800 2475 2800 2100 
L 2800 125 
z
" transform="scale(0.015625)"/>
      <path id="SimHei-66" d="M 2850 3825 
Q 2725 3900 2550 3950 
Q 2375 4000 2100 4000 
Q 1825 4000 1725 3862 
Q 1625 3725 1625 3525 
L 1625 2925 
L 2650 2925 
L 2650 2525 
L 1625 2525 
L 1625 125 
L 1125 125 
L 1125 2525 
L 275 2525 
L 275 2925 
L 1125 2925 
L 1125 3500 
Q 1125 3950 1400 4200 
Q 1675 4450 2125 4450 
Q 2400 4450 2562 4412 
Q 2725 4375 2850 4325 
L 2850 3825 
z
" transform="scale(0.015625)"/>
      <path id="SimHei-61" d="M 2875 125 
L 2275 125 
Q 2225 175 2200 262 
Q 2175 350 2175 475 
Q 2000 275 1750 175 
Q 1500 75 1225 75 
Q 825 75 550 275 
Q 275 475 275 850 
Q 275 1225 525 1450 
Q 775 1675 1300 1750 
Q 1650 1800 1912 1875 
Q 2175 1950 2175 2075 
Q 2175 2225 2062 2375 
Q 1950 2525 1575 2525 
Q 1275 2525 1137 2412 
Q 1000 2300 950 2100 
L 400 2100 
Q 450 2500 762 2737 
Q 1075 2975 1575 2975 
Q 2125 2975 2400 2725 
Q 2675 2475 2675 2025 
L 2675 650 
Q 2675 500 2725 375 
Q 2775 250 2875 125 
z
M 2175 1050 
L 2175 1550 
Q 2025 1500 1887 1462 
Q 1750 1425 1425 1375 
Q 1050 1325 937 1200 
Q 825 1075 825 900 
Q 825 750 937 637 
Q 1050 525 1275 525 
Q 1500 525 1762 650 
Q 2025 775 2175 1050 
z
" transform="scale(0.015625)"/>
      <path id="SimHei-28" d="M 2975 -200 
L 2700 -475 
Q 2075 125 1762 775 
Q 1450 1425 1450 2250 
Q 1450 3075 1762 3725 
Q 2075 4375 2700 5000 
L 2975 4725 
Q 2400 4175 2112 3587 
Q 1825 3000 1825 2250 
Q 1825 1500 2112 912 
Q 2400 325 2975 -200 
z
" transform="scale(0.015625)"/>
      <path id="SimHei-6c" d="M 1825 125 
L 1325 125 
L 1325 4400 
L 1825 4400 
L 1825 125 
z
" transform="scale(0.015625)"/>
      <path id="SimHei-57" d="M 3075 4400 
L 2525 75 
L 2025 75 
L 1575 3275 
L 1525 3275 
L 1075 75 
L 575 75 
L 25 4400 
L 575 4400 
L 850 1675 
L 900 1675 
L 1275 4400 
L 1825 4400 
L 2200 1675 
L 2250 1675 
L 2525 4400 
L 3075 4400 
z
" transform="scale(0.015625)"/>
      <path id="SimHei-6d" d="M 3050 125 
L 2550 125 
L 2550 2150 
Q 2550 2300 2500 2400 
Q 2450 2500 2300 2500 
Q 2125 2500 1975 2312 
Q 1825 2125 1825 1825 
L 1825 125 
L 1325 125 
L 1325 2150 
Q 1325 2300 1275 2400 
Q 1225 2500 1075 2500 
Q 900 2500 750 2312 
Q 600 2125 600 1825 
L 600 125 
L 100 125 
L 100 2925 
L 600 2925 
L 600 2550 
Q 725 2750 900 2862 
Q 1075 2975 1275 2975 
Q 1475 2975 1612 2862 
Q 1750 2750 1800 2550 
Q 1925 2750 2087 2862 
Q 2250 2975 2450 2975 
Q 2750 2975 2900 2812 
Q 3050 2650 3050 2350 
L 3050 125 
z
" transform="scale(0.015625)"/>
      <path id="SimHei-73" d="M 2750 900 
Q 2750 500 2437 287 
Q 2125 75 1650 75 
Q 1050 75 725 312 
Q 400 550 400 1000 
L 900 1000 
Q 900 700 1112 600 
Q 1325 500 1625 500 
Q 1925 500 2075 612 
Q 2225 725 2225 900 
Q 2225 1025 2100 1150 
Q 1975 1275 1475 1350 
Q 900 1425 687 1637 
Q 475 1850 475 2200 
Q 475 2500 762 2737 
Q 1050 2975 1600 2975 
Q 2100 2975 2387 2750 
Q 2675 2525 2675 2150 
L 2175 2150 
Q 2175 2375 2012 2462 
Q 1850 2550 1600 2550 
Q 1275 2550 1137 2437 
Q 1000 2325 1000 2175 
Q 1000 2000 1125 1900 
Q 1250 1800 1650 1750 
Q 2300 1650 2525 1437 
Q 2750 1225 2750 900 
z
" transform="scale(0.015625)"/>
      <path id="SimHei-2f" d="M 3000 4550 
L 350 -175 
L 100 -25 
L 2750 4700 
L 3000 4550 
z
" transform="scale(0.015625)"/>
      <path id="SimHei-43" d="M 2975 1825 
Q 2950 875 2575 475 
Q 2200 75 1675 75 
Q 1075 75 650 562 
Q 225 1050 225 2125 
Q 225 3300 637 3875 
Q 1050 4450 1700 4450 
Q 2250 4450 2612 4037 
Q 2975 3625 2950 2875 
L 2400 2875 
Q 2400 3425 2225 3700 
Q 2050 3975 1700 3975 
Q 1300 3975 1062 3562 
Q 825 3150 825 2175 
Q 825 1275 1062 912 
Q 1300 550 1675 550 
Q 1950 550 2175 812 
Q 2400 1075 2400 1825 
L 2975 1825 
z
" transform="scale(0.015625)"/>
      <path id="SimHei-68" d="M 2800 125 
L 2300 125 
L 2300 1925 
Q 2300 2225 2150 2400 
Q 2000 2575 1750 2575 
Q 1425 2575 1137 2237 
Q 850 1900 850 1400 
L 850 125 
L 350 125 
L 350 4400 
L 850 4400 
L 850 2400 
Q 1050 2675 1287 2825 
Q 1525 2975 1900 2975 
Q 2350 2975 2575 2725 
Q 2800 2475 2800 2100 
L 2800 125 
z
" transform="scale(0.015625)"/>
      <path id="SimHei-79" d="M 2900 2925 
L 1750 -100 
Q 1650 -450 1450 -625 
Q 1250 -800 950 -800 
Q 825 -800 712 -787 
Q 600 -775 500 -725 
L 500 -225 
Q 600 -275 700 -300 
Q 800 -325 875 -325 
Q 1075 -325 1150 -262 
Q 1225 -200 1300 25 
L 200 2925 
L 750 2925 
L 1550 725 
L 1575 725 
L 2350 2925 
L 2900 2925 
z
" transform="scale(0.015625)"/>
      <path id="SimHei-29" d="M 1675 2250 
Q 1675 1425 1362 775 
Q 1050 125 425 -475 
L 150 -200 
Q 725 325 1012 912 
Q 1300 1500 1300 2250 
Q 1300 3000 1012 3587 
Q 725 4175 150 4725 
L 425 5000 
Q 1050 4375 1362 3725 
Q 1675 3075 1675 2250 
z
" transform="scale(0.015625)"/>
     </defs>
     <use xlink:href="#SimHei-53"/>
     <use xlink:href="#SimHei-74" transform="translate(50 0)"/>
     <use xlink:href="#SimHei-72" transform="translate(100 0)"/>
     <use xlink:href="#SimHei-6f" transform="translate(150 0)"/>
     <use xlink:href="#SimHei-6b" transform="translate(200 0)"/>
     <use xlink:href="#SimHei-65" transform="translate(250 0)"/>
     <use xlink:href="#SimHei-20" transform="translate(300 0)"/>
     <use xlink:href="#SimHei-49" transform="translate(350 0)"/>
     <use xlink:href="#SimHei-64" transform="translate(400 0)"/>
     <use xlink:href="#SimHei-65" transform="translate(450 0)"/>
     <use xlink:href="#SimHei-6e" transform="translate(500 0)"/>
     <use xlink:href="#SimHei-74" transform="translate(550 0)"/>
     <use xlink:href="#SimHei-69" transform="translate(600 0)"/>
     <use xlink:href="#SimHei-66" transform="translate(650 0)"/>
     <use xlink:href="#SimHei-69" transform="translate(700 0)"/>
     <use xlink:href="#SimHei-63" transform="translate(750 0)"/>
     <use xlink:href="#SimHei-61" transform="translate(800 0)"/>
     <use xlink:href="#SimHei-74" transform="translate(850 0)"/>
     <use xlink:href="#SimHei-69" transform="translate(900 0)"/>
     <use xlink:href="#SimHei-6f" transform="translate(950 0)"/>
     <use xlink:href="#SimHei-6e" transform="translate(1000 0)"/>
     <use xlink:href="#SimHei-20" transform="translate(1050 0)"/>
     <use xlink:href="#SimHei-28" transform="translate(1100 0)"/>
     <use xlink:href="#SimHei-42" transform="translate(1150 0)"/>
     <use xlink:href="#SimHei-69" transform="translate(1200 0)"/>
     <use xlink:href="#SimHei-6c" transform="translate(1250 0)"/>
     <use xlink:href="#SimHei-6c" transform="translate(1300 0)"/>
     <use xlink:href="#SimHei-20" transform="translate(1350 0)"/>
     <use xlink:href="#SimHei-57" transform="translate(1400 0)"/>
     <use xlink:href="#SimHei-69" transform="translate(1450 0)"/>
     <use xlink:href="#SimHei-6c" transform="translate(1500 0)"/>
     <use xlink:href="#SimHei-6c" transform="translate(1550 0)"/>
     <use xlink:href="#SimHei-69" transform="translate(1600 0)"/>
     <use xlink:href="#SimHei-61" transform="translate(1650 0)"/>
     <use xlink:href="#SimHei-6d" transform="translate(1700 0)"/>
     <use xlink:href="#SimHei-73" transform="translate(1750 0)"/>
     <use xlink:href="#SimHei-20" transform="translate(1800 0)"/>
     <use xlink:href="#SimHei-2f" transform="translate(1850 0)"/>
     <use xlink:href="#SimHei-20" transform="translate(1900 0)"/>
     <use xlink:href="#SimHei-43" transform="translate(1950 0)"/>
     <use xlink:href="#SimHei-68" transform="translate(2000 0)"/>
     <use xlink:href="#SimHei-61" transform="translate(2050 0)"/>
     <use xlink:href="#SimHei-6e" transform="translate(2100 0)"/>
     <use xlink:href="#SimHei-20" transform="translate(2150 0)"/>
     <use xlink:href="#SimHei-54" transform="translate(2200 0)"/>
     <use xlink:href="#SimHei-68" transform="translate(2250 0)"/>
     <use xlink:href="#SimHei-65" transform="translate(2300 0)"/>
     <use xlink:href="#SimHei-6f" transform="translate(2350 0)"/>
     <use xlink:href="#SimHei-72" transform="translate(2400 0)"/>
     <use xlink:href="#SimHei-79" transform="translate(2450 0)"/>
     <use xlink:href="#SimHei-29" transform="translate(2500 0)"/>
    </g>
   </g>
  </g>
 </g>
 <defs>
  <clipPath id="pedb524a5f0">
   <rect x="46.325" y="24.1375" width="781.2" height="443.52"/>
  </clipPath>
 </defs>
</svg>
