<?xml version="1.0" encoding="utf-8" standalone="no"?>
<!DOCTYPE svg PUBLIC "-//W3C//DTD SVG 1.1//EN"
  "http://www.w3.org/Graphics/SVG/1.1/DTD/svg11.dtd">
<svg xmlns:xlink="http://www.w3.org/1999/xlink" width="834.725pt" height="514.737965pt" viewBox="0 0 834.725 514.737965" xmlns="http://www.w3.org/2000/svg" version="1.1">
 <metadata>
  <rdf:RDF xmlns:dc="http://purl.org/dc/elements/1.1/" xmlns:cc="http://creativecommons.org/ns#" xmlns:rdf="http://www.w3.org/1999/02/22-rdf-syntax-ns#">
   <cc:Work>
    <dc:type rdf:resource="http://purl.org/dc/dcmitype/StillImage"/>
    <dc:date>2025-12-30T15:08:07.291128</dc:date>
    <dc:format>image/svg+xml</dc:format>
    <dc:creator>
     <cc:Agent>
      <dc:title>Matplotlib v3.10.8, https://matplotlib.org/</dc:title>
     </cc:Agent>
    </dc:creator>
   </cc:Work>
  </rdf:RDF>
 </metadata>
 <defs>
  <style type="text/css">*{stroke-linejoin: round; stroke-linecap: butt}</style>
 </defs>
 <g id="figure_1">
  <g id="patch_1">
   <path d="M 0 514.737965 
L 834.725 514.737965 
L 834.725 0 
L 0 0 
z
" style="fill: #ffffff"/>
  </g>
  <g id="axes_1">
   <g id="patch_2">
    <path d="M 46.325 467.6575 
L 827.525 467.6575 
L 827.525 24.1375 
L 46.325 24.1375 
z
" style="fill: #ffffff"/>
   </g>
   <g id="patch_3">
    <path d="M 83.794934 371.982129 
L 84.151451 371.982129 
L 84.151451 333.391171 
L 83.794934 333.391171 
z
" clip-path="url(#p99839c200b)" style="fill: #ff0000"/>
   </g>
   <g id="patch_4">
    <path d="M 98.055613 358.962238 
L 98.41213 358.962238 
L 98.41213 316.022636 
L 98.055613 316.022636 
z
" clip-path="url(#p99839c200b)" style="fill: #ff0000"/>
   </g>
   <g id="patch_5">
    <path d="M 105.185953 351.098223 
L 105.54247 351.098223 
L 105.54247 296.570918 
L 105.185953 296.570918 
z
" clip-path="url(#p99839c200b)" style="fill: #ff0000"/>
   </g>
   <g id="patch_6">
    <path d="M 112.316292 390.209977 
L 112.672809 390.209977 
L 112.672809 317.767301 
L 112.316292 317.767301 
z
" clip-path="url(#p99839c200b)" style="fill: #ff0000"/>
   </g>
   <g id="patch_7">
    <path d="M 119.446632 342.895692 
L 119.803149 342.895692 
L 119.803149 269.124986 
L 119.446632 269.124986 
z
" clip-path="url(#p99839c200b)" style="fill: #ff0000"/>
   </g>
   <g id="patch_8">
    <path d="M 133.707311 377.450484 
L 134.063828 377.450484 
L 134.063828 330.787193 
L 133.707311 330.787193 
z
" clip-path="url(#p99839c200b)" style="fill: #ff0000"/>
   </g>
   <g id="patch_9">
    <path d="M 147.96799 403.698585 
L 148.324507 403.698585 
L 148.324507 372.607084 
L 147.96799 372.607084 
z
" clip-path="url(#p99839c200b)" style="fill: #ff0000"/>
   </g>
   <g id="patch_10">
    <path d="M 155.09833 382.866759 
L 155.454847 382.866759 
L 155.454847 344.614317 
L 155.09833 344.614317 
z
" clip-path="url(#p99839c200b)" style="fill: #ff0000"/>
   </g>
   <g id="patch_11">
    <path d="M 162.228669 366.800212 
L 162.585186 366.800212 
L 162.585186 309.48665 
L 162.228669 309.48665 
z
" clip-path="url(#p99839c200b)" style="fill: #ff0000"/>
   </g>
   <g id="patch_12">
    <path d="M 169.359009 343.390448 
L 169.715526 343.390448 
L 169.715526 252.667844 
L 169.359009 252.667844 
z
" clip-path="url(#p99839c200b)" style="fill: #ff0000"/>
   </g>
   <g id="patch_13">
    <path d="M 190.750027 370.159344 
L 191.106544 370.159344 
L 191.106544 343.781044 
L 190.750027 343.781044 
z
" clip-path="url(#p99839c200b)" style="fill: #ff0000"/>
   </g>
   <g id="patch_14">
    <path d="M 197.880367 361.04542 
L 198.236884 361.04542 
L 198.236884 305.242165 
L 197.880367 305.242165 
z
" clip-path="url(#p99839c200b)" style="fill: #ff0000"/>
   </g>
   <g id="patch_15">
    <path d="M 205.010706 312.559344 
L 205.367223 312.559344 
L 205.367223 281.832401 
L 205.010706 281.832401 
z
" clip-path="url(#p99839c200b)" style="fill: #ff0000"/>
   </g>
   <g id="patch_16">
    <path d="M 212.141046 297.768748 
L 212.497563 297.768748 
L 212.497563 230.27363 
L 212.141046 230.27363 
z
" clip-path="url(#p99839c200b)" style="fill: #ff0000"/>
   </g>
   <g id="patch_17">
    <path d="M 219.271386 224.154281 
L 219.627903 224.154281 
L 219.627903 156.320646 
L 219.271386 156.320646 
z
" clip-path="url(#p99839c200b)" style="fill: #ff0000"/>
   </g>
   <g id="patch_18">
    <path d="M 226.401725 208.400212 
L 226.758242 208.400212 
L 226.758242 145.904733 
L 226.401725 145.904733 
z
" clip-path="url(#p99839c200b)" style="fill: #ff0000"/>
   </g>
   <g id="patch_19">
    <path d="M 254.923083 307.351388 
L 255.2796 307.351388 
L 255.2796 254.855185 
L 254.923083 254.855185 
z
" clip-path="url(#p99839c200b)" style="fill: #ff0000"/>
   </g>
   <g id="patch_20">
    <path d="M 276.314102 351.46278 
L 276.670619 351.46278 
L 276.670619 325.735475 
L 276.314102 325.735475 
z
" clip-path="url(#p99839c200b)" style="fill: #ff0000"/>
   </g>
   <g id="patch_21">
    <path d="M 290.574781 343.807084 
L 290.931298 343.807084 
L 290.931298 268.317753 
L 290.574781 268.317753 
z
" clip-path="url(#p99839c200b)" style="fill: #ff0000"/>
   </g>
   <g id="patch_22">
    <path d="M 311.9658 349.171279 
L 312.322317 349.171279 
L 312.322317 279.983576 
L 311.9658 279.983576 
z
" clip-path="url(#p99839c200b)" style="fill: #ff0000"/>
   </g>
   <g id="patch_23">
    <path d="M 326.226479 343.546686 
L 326.582996 343.546686 
L 326.582996 308.28882 
L 326.226479 308.28882 
z
" clip-path="url(#p99839c200b)" style="fill: #ff0000"/>
   </g>
   <g id="patch_24">
    <path d="M 333.356818 320.371279 
L 333.713335 320.371279 
L 333.713335 266.208531 
L 333.356818 266.208531 
z
" clip-path="url(#p99839c200b)" style="fill: #ff0000"/>
   </g>
   <g id="patch_25">
    <path d="M 347.617497 287.118476 
L 347.974014 287.118476 
L 347.974014 237.043974 
L 347.617497 237.043974 
z
" clip-path="url(#p99839c200b)" style="fill: #ff0000"/>
   </g>
   <g id="patch_26">
    <path d="M 354.747837 221.394064 
L 355.104354 221.394064 
L 355.104354 153.716668 
L 354.747837 153.716668 
z
" clip-path="url(#p99839c200b)" style="fill: #ff0000"/>
   </g>
   <g id="patch_27">
    <path d="M 376.138855 268.291713 
L 376.495372 268.291713 
L 376.495372 188.662057 
L 376.138855 188.662057 
z
" clip-path="url(#p99839c200b)" style="fill: #ff0000"/>
   </g>
   <g id="patch_28">
    <path d="M 390.399535 200.588278 
L 390.756051 200.588278 
L 390.756051 119.86495 
L 390.399535 119.86495 
z
" clip-path="url(#p99839c200b)" style="fill: #ff0000"/>
   </g>
   <g id="patch_29">
    <path d="M 404.660214 246.236017 
L 405.016731 246.236017 
L 405.016731 197.203106 
L 404.660214 197.203106 
z
" clip-path="url(#p99839c200b)" style="fill: #ff0000"/>
   </g>
   <g id="patch_30">
    <path d="M 411.790553 237.043974 
L 412.14707 237.043974 
L 412.14707 177.230592 
L 411.790553 177.230592 
z
" clip-path="url(#p99839c200b)" style="fill: #ff0000"/>
   </g>
   <g id="patch_31">
    <path d="M 418.920893 201.890267 
L 419.27741 201.890267 
L 419.27741 126.531135 
L 418.920893 126.531135 
z
" clip-path="url(#p99839c200b)" style="fill: #ff0000"/>
   </g>
   <g id="patch_32">
    <path d="M 426.051232 160.434932 
L 426.407749 160.434932 
L 426.407749 117.391171 
L 426.051232 117.391171 
z
" clip-path="url(#p99839c200b)" style="fill: #ff0000"/>
   </g>
   <g id="patch_33">
    <path d="M 433.181572 125.958259 
L 433.538089 125.958259 
L 433.538089 65.311605 
L 433.181572 65.311605 
z
" clip-path="url(#p99839c200b)" style="fill: #ff0000"/>
   </g>
   <g id="patch_34">
    <path d="M 490.224288 330.761153 
L 490.580805 330.761153 
L 490.580805 285.972726 
L 490.224288 285.972726 
z
" clip-path="url(#p99839c200b)" style="fill: #ff0000"/>
   </g>
   <g id="patch_35">
    <path d="M 497.354628 301.15392 
L 497.711145 301.15392 
L 497.711145 221.446144 
L 497.354628 221.446144 
z
" clip-path="url(#p99839c200b)" style="fill: #ff0000"/>
   </g>
   <g id="patch_36">
    <path d="M 504.484967 351.619019 
L 504.841484 351.619019 
L 504.841484 301.15392 
L 504.484967 301.15392 
z
" clip-path="url(#p99839c200b)" style="fill: #ff0000"/>
   </g>
   <g id="patch_37">
    <path d="M 518.745646 364.326433 
L 519.102163 364.326433 
L 519.102163 344.197681 
L 518.745646 344.197681 
z
" clip-path="url(#p99839c200b)" style="fill: #ff0000"/>
   </g>
   <g id="patch_38">
    <path d="M 525.875986 325.605276 
L 526.232503 325.605276 
L 526.232503 237.043974 
L 525.875986 237.043974 
z
" clip-path="url(#p99839c200b)" style="fill: #ff0000"/>
   </g>
   <g id="patch_39">
    <path d="M 540.136665 260.792256 
L 540.493182 260.792256 
L 540.493182 222.722093 
L 540.136665 222.722093 
z
" clip-path="url(#p99839c200b)" style="fill: #ff0000"/>
   </g>
   <g id="patch_40">
    <path d="M 554.397344 280.790809 
L 554.753861 280.790809 
L 554.753861 224.544878 
L 554.397344 224.544878 
z
" clip-path="url(#p99839c200b)" style="fill: #ff0000"/>
   </g>
   <g id="patch_41">
    <path d="M 568.658023 309.981406 
L 569.01454 309.981406 
L 569.01454 270.374896 
L 568.658023 270.374896 
z
" clip-path="url(#p99839c200b)" style="fill: #ff0000"/>
   </g>
   <g id="patch_42">
    <path d="M 582.918702 346.905818 
L 583.275219 346.905818 
L 583.275219 308.31486 
L 582.918702 308.31486 
z
" clip-path="url(#p99839c200b)" style="fill: #ff0000"/>
   </g>
   <g id="patch_43">
    <path d="M 590.049042 351.358621 
L 590.405559 351.358621 
L 590.405559 310.528241 
L 590.049042 310.528241 
z
" clip-path="url(#p99839c200b)" style="fill: #ff0000"/>
   </g>
   <g id="patch_44">
    <path d="M 604.309721 325.579236 
L 604.666238 325.579236 
L 604.666238 295.763684 
L 604.309721 295.763684 
z
" clip-path="url(#p99839c200b)" style="fill: #ff0000"/>
   </g>
   <g id="patch_45">
    <path d="M 611.44006 312.559344 
L 611.796577 312.559344 
L 611.796577 237.851207 
L 611.44006 237.851207 
z
" clip-path="url(#p99839c200b)" style="fill: #ff0000"/>
   </g>
   <g id="patch_46">
    <path d="M 618.5704 249.51703 
L 618.926917 249.51703 
L 618.926917 199.650845 
L 618.5704 199.650845 
z
" clip-path="url(#p99839c200b)" style="fill: #ff0000"/>
   </g>
   <g id="patch_47">
    <path d="M 632.831079 284.462419 
L 633.187596 284.462419 
L 633.187596 213.608169 
L 632.831079 213.608169 
z
" clip-path="url(#p99839c200b)" style="fill: #ff0000"/>
   </g>
   <g id="patch_48">
    <path d="M 639.961418 221.524263 
L 640.317935 221.524263 
L 640.317935 179.574173 
L 639.961418 179.574173 
z
" clip-path="url(#p99839c200b)" style="fill: #ff0000"/>
   </g>
   <g id="patch_49">
    <path d="M 668.482777 290.217211 
L 668.839294 290.217211 
L 668.839294 264.411786 
L 668.482777 264.411786 
z
" clip-path="url(#p99839c200b)" style="fill: #ff0000"/>
   </g>
   <g id="patch_50">
    <path d="M 682.743456 291.727518 
L 683.099973 291.727518 
L 683.099973 241.548856 
L 682.743456 241.548856 
z
" clip-path="url(#p99839c200b)" style="fill: #ff0000"/>
   </g>
   <g id="patch_51">
    <path d="M 718.395153 447.4975 
L 718.75167 447.4975 
L 718.75167 396.407446 
L 718.395153 396.407446 
z
" clip-path="url(#p99839c200b)" style="fill: #ff0000"/>
   </g>
   <g id="patch_52">
    <path d="M 725.525493 399.662419 
L 725.88201 399.662419 
L 725.88201 372.476885 
L 725.525493 372.476885 
z
" clip-path="url(#p99839c200b)" style="fill: #ff0000"/>
   </g>
   <g id="patch_53">
    <path d="M 732.655832 368.362599 
L 733.012349 368.362599 
L 733.012349 338.599127 
L 732.655832 338.599127 
z
" clip-path="url(#p99839c200b)" style="fill: #ff0000"/>
   </g>
   <g id="patch_54">
    <path d="M 754.046851 338.599127 
L 754.403368 338.599127 
L 754.403368 299.695692 
L 754.046851 299.695692 
z
" clip-path="url(#p99839c200b)" style="fill: #ff0000"/>
   </g>
   <g id="patch_55">
    <path d="M 761.177191 401.068567 
L 761.533708 401.068567 
L 761.533708 371.279055 
L 761.177191 371.279055 
z
" clip-path="url(#p99839c200b)" style="fill: #ff0000"/>
   </g>
   <g id="patch_56">
    <path d="M 782.568209 390.678693 
L 782.924726 390.678693 
L 782.924726 352.973088 
L 782.568209 352.973088 
z
" clip-path="url(#p99839c200b)" style="fill: #ff0000"/>
   </g>
   <g id="patch_57">
    <path d="M 90.925274 348.989001 
L 91.281791 348.989001 
L 91.281791 290.581768 
L 90.925274 290.581768 
z
" clip-path="url(#p99839c200b)" style="fill: #008000"/>
   </g>
   <g id="patch_58">
    <path d="M 126.576972 350.29099 
L 126.933488 350.29099 
L 126.933488 275.582853 
L 126.576972 275.582853 
z
" clip-path="url(#p99839c200b)" style="fill: #008000"/>
   </g>
   <g id="patch_59">
    <path d="M 140.837651 395.652292 
L 141.194168 395.652292 
L 141.194168 343.807084 
L 140.837651 343.807084 
z
" clip-path="url(#p99839c200b)" style="fill: #008000"/>
   </g>
   <g id="patch_60">
    <path d="M 176.489348 347.452654 
L 176.845865 347.452654 
L 176.845865 312.611424 
L 176.489348 312.611424 
z
" clip-path="url(#p99839c200b)" style="fill: #008000"/>
   </g>
   <g id="patch_61">
    <path d="M 183.619688 382.033486 
L 183.976205 382.033486 
L 183.976205 349.06712 
L 183.619688 349.06712 
z
" clip-path="url(#p99839c200b)" style="fill: #008000"/>
   </g>
   <g id="patch_62">
    <path d="M 233.532065 265.687735 
L 233.888582 265.687735 
L 233.888582 165.694968 
L 233.532065 165.694968 
z
" clip-path="url(#p99839c200b)" style="fill: #008000"/>
   </g>
   <g id="patch_63">
    <path d="M 240.662404 309.174173 
L 241.018921 309.174173 
L 241.018921 260.505818 
L 240.662404 260.505818 
z
" clip-path="url(#p99839c200b)" style="fill: #008000"/>
   </g>
   <g id="patch_64">
    <path d="M 247.792744 312.533305 
L 248.149261 312.533305 
L 248.149261 276.650484 
L 247.792744 276.650484 
z
" clip-path="url(#p99839c200b)" style="fill: #008000"/>
   </g>
   <g id="patch_65">
    <path d="M 262.053423 356.826976 
L 262.40994 356.826976 
L 262.40994 286.858079 
L 262.053423 286.858079 
z
" clip-path="url(#p99839c200b)" style="fill: #008000"/>
   </g>
   <g id="patch_66">
    <path d="M 269.183762 367.242889 
L 269.540279 367.242889 
L 269.540279 346.74958 
L 269.183762 346.74958 
z
" clip-path="url(#p99839c200b)" style="fill: #008000"/>
   </g>
   <g id="patch_67">
    <path d="M 283.444441 356.826976 
L 283.800958 356.826976 
L 283.800958 334.69316 
L 283.444441 334.69316 
z
" clip-path="url(#p99839c200b)" style="fill: #008000"/>
   </g>
   <g id="patch_68">
    <path d="M 297.70512 309.955366 
L 298.061637 309.955366 
L 298.061637 234.257717 
L 297.70512 234.257717 
z
" clip-path="url(#p99839c200b)" style="fill: #008000"/>
   </g>
   <g id="patch_69">
    <path d="M 304.83546 351.619019 
L 305.191977 351.619019 
L 305.191977 315.996596 
L 304.83546 315.996596 
z
" clip-path="url(#p99839c200b)" style="fill: #008000"/>
   </g>
   <g id="patch_70">
    <path d="M 319.096139 351.046144 
L 319.452656 351.046144 
L 319.452656 329.068567 
L 319.096139 329.068567 
z
" clip-path="url(#p99839c200b)" style="fill: #008000"/>
   </g>
   <g id="patch_71">
    <path d="M 340.487158 290.034932 
L 340.843675 290.034932 
L 340.843675 260.505818 
L 340.487158 260.505818 
z
" clip-path="url(#p99839c200b)" style="fill: #008000"/>
   </g>
   <g id="patch_72">
    <path d="M 361.878176 278.707627 
L 362.234693 278.707627 
L 362.234693 182.542708 
L 361.878176 182.542708 
z
" clip-path="url(#p99839c200b)" style="fill: #008000"/>
   </g>
   <g id="patch_73">
    <path d="M 369.008516 302.742346 
L 369.365033 302.742346 
L 369.365033 257.615402 
L 369.008516 257.615402 
z
" clip-path="url(#p99839c200b)" style="fill: #008000"/>
   </g>
   <g id="patch_74">
    <path d="M 383.269195 232.617211 
L 383.625712 232.617211 
L 383.625712 174.548495 
L 383.269195 174.548495 
z
" clip-path="url(#p99839c200b)" style="fill: #008000"/>
   </g>
   <g id="patch_75">
    <path d="M 397.529874 231.836017 
L 397.886391 231.836017 
L 397.886391 134.186831 
L 397.529874 134.186831 
z
" clip-path="url(#p99839c200b)" style="fill: #008000"/>
   </g>
   <g id="patch_76">
    <path d="M 440.311911 115.880863 
L 440.668428 115.880863 
L 440.668428 44.2975 
L 440.311911 44.2975 
z
" clip-path="url(#p99839c200b)" style="fill: #008000"/>
   </g>
   <g id="patch_77">
    <path d="M 447.442251 153.169833 
L 447.798768 153.169833 
L 447.798768 97.783214 
L 447.442251 97.783214 
z
" clip-path="url(#p99839c200b)" style="fill: #008000"/>
   </g>
   <g id="patch_78">
    <path d="M 454.57259 169.314498 
L 454.929107 169.314498 
L 454.929107 116.531858 
L 454.57259 116.531858 
z
" clip-path="url(#p99839c200b)" style="fill: #008000"/>
   </g>
   <g id="patch_79">
    <path d="M 461.70293 238.345963 
L 462.059447 238.345963 
L 462.059447 149.029507 
L 461.70293 149.029507 
z
" clip-path="url(#p99839c200b)" style="fill: #008000"/>
   </g>
   <g id="patch_80">
    <path d="M 468.833269 255.245782 
L 469.189786 255.245782 
L 469.189786 207.098223 
L 468.833269 207.098223 
z
" clip-path="url(#p99839c200b)" style="fill: #008000"/>
   </g>
   <g id="patch_81">
    <path d="M 475.963609 273.47363 
L 476.320126 273.47363 
L 476.320126 226.70618 
L 475.963609 226.70618 
z
" clip-path="url(#p99839c200b)" style="fill: #008000"/>
   </g>
   <g id="patch_82">
    <path d="M 483.093949 299.539453 
L 483.450465 299.539453 
L 483.450465 253.969833 
L 483.093949 253.969833 
z
" clip-path="url(#p99839c200b)" style="fill: #008000"/>
   </g>
   <g id="patch_83">
    <path d="M 511.615307 332.089182 
L 511.971824 332.089182 
L 511.971824 299.695692 
L 511.615307 299.695692 
z
" clip-path="url(#p99839c200b)" style="fill: #008000"/>
   </g>
   <g id="patch_84">
    <path d="M 533.006325 260.479778 
L 533.362842 260.479778 
L 533.362842 174.548495 
L 533.006325 174.548495 
z
" clip-path="url(#p99839c200b)" style="fill: #008000"/>
   </g>
   <g id="patch_85">
    <path d="M 547.267004 257.8758 
L 547.623521 257.8758 
L 547.623521 221.576343 
L 547.267004 221.576343 
z
" clip-path="url(#p99839c200b)" style="fill: #008000"/>
   </g>
   <g id="patch_86">
    <path d="M 561.527683 275.218296 
L 561.8842 275.218296 
L 561.8842 198.296777 
L 561.527683 198.296777 
z
" clip-path="url(#p99839c200b)" style="fill: #008000"/>
   </g>
   <g id="patch_87">
    <path d="M 575.788363 325.475077 
L 576.14488 325.475077 
L 576.14488 282.483395 
L 575.788363 282.483395 
z
" clip-path="url(#p99839c200b)" style="fill: #008000"/>
   </g>
   <g id="patch_88">
    <path d="M 597.179381 351.592979 
L 597.535898 351.592979 
L 597.535898 323.001297 
L 597.179381 323.001297 
z
" clip-path="url(#p99839c200b)" style="fill: #008000"/>
   </g>
   <g id="patch_89">
    <path d="M 625.700739 257.094607 
L 626.057256 257.094607 
L 626.057256 212.097862 
L 625.700739 212.097862 
z
" clip-path="url(#p99839c200b)" style="fill: #008000"/>
   </g>
   <g id="patch_90">
    <path d="M 647.091758 257.8758 
L 647.448275 257.8758 
L 647.448275 195.640719 
L 647.091758 195.640719 
z
" clip-path="url(#p99839c200b)" style="fill: #008000"/>
   </g>
   <g id="patch_91">
    <path d="M 654.222097 270.557175 
L 654.578614 270.557175 
L 654.578614 218.816126 
L 654.222097 218.816126 
z
" clip-path="url(#p99839c200b)" style="fill: #008000"/>
   </g>
   <g id="patch_92">
    <path d="M 661.352437 287.821551 
L 661.708954 287.821551 
L 661.708954 252.667844 
L 661.352437 252.667844 
z
" clip-path="url(#p99839c200b)" style="fill: #008000"/>
   </g>
   <g id="patch_93">
    <path d="M 675.613116 302.039272 
L 675.969633 302.039272 
L 675.969633 273.49967 
L 675.613116 273.49967 
z
" clip-path="url(#p99839c200b)" style="fill: #008000"/>
   </g>
   <g id="patch_94">
    <path d="M 689.873795 312.507265 
L 690.230312 312.507265 
L 690.230312 268.500032 
L 689.873795 268.500032 
z
" clip-path="url(#p99839c200b)" style="fill: #008000"/>
   </g>
   <g id="patch_95">
    <path d="M 697.004135 330.787193 
L 697.360652 330.787193 
L 697.360652 310.033486 
L 697.004135 310.033486 
z
" clip-path="url(#p99839c200b)" style="fill: #008000"/>
   </g>
   <g id="patch_96">
    <path d="M 704.134474 356.2541 
L 704.490991 356.2541 
L 704.490991 319.06929 
L 704.134474 319.06929 
z
" clip-path="url(#p99839c200b)" style="fill: #008000"/>
   </g>
   <g id="patch_97">
    <path d="M 711.264814 403.568386 
L 711.621331 403.568386 
L 711.621331 349.015041 
L 711.264814 349.015041 
z
" clip-path="url(#p99839c200b)" style="fill: #008000"/>
   </g>
   <g id="patch_98">
    <path d="M 739.786172 337.11486 
L 740.142689 337.11486 
L 740.142689 299.565493 
L 739.786172 299.565493 
z
" clip-path="url(#p99839c200b)" style="fill: #008000"/>
   </g>
   <g id="patch_99">
    <path d="M 746.916512 364.63891 
L 747.273028 364.63891 
L 747.273028 328.75609 
L 746.916512 328.75609 
z
" clip-path="url(#p99839c200b)" style="fill: #008000"/>
   </g>
   <g id="patch_100">
    <path d="M 768.30753 386.564408 
L 768.664047 386.564408 
L 768.664047 366.878332 
L 768.30753 366.878332 
z
" clip-path="url(#p99839c200b)" style="fill: #008000"/>
   </g>
   <g id="patch_101">
    <path d="M 775.43787 411.015764 
L 775.794387 411.015764 
L 775.794387 382.189724 
L 775.43787 382.189724 
z
" clip-path="url(#p99839c200b)" style="fill: #008000"/>
   </g>
   <g id="patch_102">
    <path d="M 789.698549 401.094607 
L 790.055066 401.094607 
L 790.055066 366.904372 
L 789.698549 366.904372 
z
" clip-path="url(#p99839c200b)" style="fill: #008000"/>
   </g>
   <g id="patch_103">
    <path d="M 81.834091 351.619019 
L 86.112295 351.619019 
L 86.112295 333.391171 
L 81.834091 333.391171 
z
" clip-path="url(#p99839c200b)" style="fill: #ff0000"/>
   </g>
   <g id="patch_104">
    <path d="M 96.09477 335.995149 
L 100.372974 335.995149 
L 100.372974 335.995149 
L 96.09477 335.995149 
z
" clip-path="url(#p99839c200b)" style="fill: #ff0000"/>
   </g>
   <g id="patch_105">
    <path d="M 103.22511 342.296777 
L 107.503313 342.296777 
L 107.503313 329.068567 
L 103.22511 329.068567 
z
" clip-path="url(#p99839c200b)" style="fill: #ff0000"/>
   </g>
   <g id="patch_106">
    <path d="M 110.355449 351.619019 
L 114.633653 351.619019 
L 114.633653 351.619019 
L 110.355449 351.619019 
z
" clip-path="url(#p99839c200b)" style="fill: #ff0000"/>
   </g>
   <g id="patch_107">
    <path d="M 117.485789 342.895692 
L 121.763992 342.895692 
L 121.763992 306.830592 
L 117.485789 306.830592 
z
" clip-path="url(#p99839c200b)" style="fill: #ff0000"/>
   </g>
   <g id="patch_108">
    <path d="M 131.746468 364.63891 
L 136.024671 364.63891 
L 136.024671 351.619019 
L 131.746468 351.619019 
z
" clip-path="url(#p99839c200b)" style="fill: #ff0000"/>
   </g>
   <g id="patch_109">
    <path d="M 146.007147 394.584661 
L 150.28535 394.584661 
L 150.28535 378.700393 
L 146.007147 378.700393 
z
" clip-path="url(#p99839c200b)" style="fill: #ff0000"/>
   </g>
   <g id="patch_110">
    <path d="M 153.137486 372.450845 
L 157.41569 372.450845 
L 157.41569 363.076524 
L 153.137486 363.076524 
z
" clip-path="url(#p99839c200b)" style="fill: #ff0000"/>
   </g>
   <g id="patch_111">
    <path d="M 160.267826 362.816126 
L 164.54603 362.816126 
L 164.54603 334.69316 
L 160.267826 334.69316 
z
" clip-path="url(#p99839c200b)" style="fill: #ff0000"/>
   </g>
   <g id="patch_112">
    <path d="M 167.398165 343.390448 
L 171.676369 343.390448 
L 171.676369 333.391171 
L 167.398165 333.391171 
z
" clip-path="url(#p99839c200b)" style="fill: #ff0000"/>
   </g>
   <g id="patch_113">
    <path d="M 188.789184 367.294968 
L 193.067388 367.294968 
L 193.067388 361.12354 
L 188.789184 361.12354 
z
" clip-path="url(#p99839c200b)" style="fill: #ff0000"/>
   </g>
   <g id="patch_114">
    <path d="M 195.919524 351.619019 
L 200.197727 351.619019 
L 200.197727 307.351388 
L 195.919524 307.351388 
z
" clip-path="url(#p99839c200b)" style="fill: #ff0000"/>
   </g>
   <g id="patch_115">
    <path d="M 203.049863 307.377428 
L 207.328067 307.377428 
L 207.328067 291.727518 
L 203.049863 291.727518 
z
" clip-path="url(#p99839c200b)" style="fill: #ff0000"/>
   </g>
   <g id="patch_116">
    <path d="M 210.180203 289.12354 
L 214.458406 289.12354 
L 214.458406 234.492075 
L 210.180203 234.492075 
z
" clip-path="url(#p99839c200b)" style="fill: #ff0000"/>
   </g>
   <g id="patch_117">
    <path d="M 217.310542 224.024082 
L 221.588746 224.024082 
L 221.588746 207.098223 
L 217.310542 207.098223 
z
" clip-path="url(#p99839c200b)" style="fill: #ff0000"/>
   </g>
   <g id="patch_118">
    <path d="M 224.440882 205.796234 
L 228.719085 205.796234 
L 228.719085 165.434571 
L 224.440882 165.434571 
z
" clip-path="url(#p99839c200b)" style="fill: #ff0000"/>
   </g>
   <g id="patch_119">
    <path d="M 252.96224 289.12354 
L 257.240444 289.12354 
L 257.240444 274.957898 
L 252.96224 274.957898 
z
" clip-path="url(#p99839c200b)" style="fill: #ff0000"/>
   </g>
   <g id="patch_120">
    <path d="M 274.353258 349.015041 
L 278.631462 349.015041 
L 278.631462 345.49967 
L 274.353258 345.49967 
z
" clip-path="url(#p99839c200b)" style="fill: #ff0000"/>
   </g>
   <g id="patch_121">
    <path d="M 288.613938 342.505095 
L 292.892141 342.505095 
L 292.892141 286.519561 
L 288.613938 286.519561 
z
" clip-path="url(#p99839c200b)" style="fill: #ff0000"/>
   </g>
   <g id="patch_122">
    <path d="M 310.004956 349.171279 
L 314.28316 349.171279 
L 314.28316 333.417211 
L 310.004956 333.417211 
z
" clip-path="url(#p99839c200b)" style="fill: #ff0000"/>
   </g>
   <g id="patch_123">
    <path d="M 324.265635 333.417211 
L 328.543839 333.417211 
L 328.543839 329.485203 
L 324.265635 329.485203 
z
" clip-path="url(#p99839c200b)" style="fill: #ff0000"/>
   </g>
   <g id="patch_124">
    <path d="M 331.395975 316.465312 
L 335.674179 316.465312 
L 335.674179 273.49967 
L 331.395975 273.49967 
z
" clip-path="url(#p99839c200b)" style="fill: #ff0000"/>
   </g>
   <g id="patch_125">
    <path d="M 345.656654 276.416126 
L 349.934858 276.416126 
L 349.934858 237.174173 
L 345.656654 237.174173 
z
" clip-path="url(#p99839c200b)" style="fill: #ff0000"/>
   </g>
   <g id="patch_126">
    <path d="M 352.786993 221.394064 
L 357.065197 221.394064 
L 357.065197 191.187916 
L 352.786993 191.187916 
z
" clip-path="url(#p99839c200b)" style="fill: #ff0000"/>
   </g>
   <g id="patch_127">
    <path d="M 374.178012 265.687735 
L 378.456216 265.687735 
L 378.456216 195.380321 
L 374.178012 195.380321 
z
" clip-path="url(#p99839c200b)" style="fill: #ff0000"/>
   </g>
   <g id="patch_128">
    <path d="M 388.438691 198.869652 
L 392.716895 198.869652 
L 392.716895 165.955366 
L 388.438691 165.955366 
z
" clip-path="url(#p99839c200b)" style="fill: #ff0000"/>
   </g>
   <g id="patch_129">
    <path d="M 402.69937 216.212147 
L 406.977574 216.212147 
L 406.977574 214.493522 
L 402.69937 214.493522 
z
" clip-path="url(#p99839c200b)" style="fill: #ff0000"/>
   </g>
   <g id="patch_130">
    <path d="M 409.82971 218.816126 
L 414.107913 218.816126 
L 414.107913 187.568386 
L 409.82971 187.568386 
z
" clip-path="url(#p99839c200b)" style="fill: #ff0000"/>
   </g>
   <g id="patch_131">
    <path d="M 416.960049 187.568386 
L 421.238253 187.568386 
L 421.238253 140.097862 
L 416.960049 140.097862 
z
" clip-path="url(#p99839c200b)" style="fill: #ff0000"/>
   </g>
   <g id="patch_132">
    <path d="M 424.090389 130.280863 
L 428.368593 130.280863 
L 428.368593 130.280863 
L 424.090389 130.280863 
z
" clip-path="url(#p99839c200b)" style="fill: #ff0000"/>
   </g>
   <g id="patch_133">
    <path d="M 431.220728 125.958259 
L 435.498932 125.958259 
L 435.498932 82.107265 
L 431.220728 82.107265 
z
" clip-path="url(#p99839c200b)" style="fill: #ff0000"/>
   </g>
   <g id="patch_134">
    <path d="M 488.263445 314.981044 
L 492.541648 314.981044 
L 492.541648 312.559344 
L 488.263445 312.559344 
z
" clip-path="url(#p99839c200b)" style="fill: #ff0000"/>
   </g>
   <g id="patch_135">
    <path d="M 495.393784 301.15392 
L 499.671988 301.15392 
L 499.671988 289.14958 
L 495.393784 289.14958 
z
" clip-path="url(#p99839c200b)" style="fill: #ff0000"/>
   </g>
   <g id="patch_136">
    <path d="M 502.524124 309.955366 
L 506.802327 309.955366 
L 506.802327 307.924263 
L 502.524124 307.924263 
z
" clip-path="url(#p99839c200b)" style="fill: #ff0000"/>
   </g>
   <g id="patch_137">
    <path d="M 516.784803 362.816126 
L 521.063007 362.816126 
L 521.063007 353.702202 
L 516.784803 353.702202 
z
" clip-path="url(#p99839c200b)" style="fill: #ff0000"/>
   </g>
   <g id="patch_138">
    <path d="M 523.915142 325.605276 
L 528.193346 325.605276 
L 528.193346 242.25193 
L 523.915142 242.25193 
z
" clip-path="url(#p99839c200b)" style="fill: #ff0000"/>
   </g>
   <g id="patch_139">
    <path d="M 538.175821 260.479778 
L 542.454025 260.479778 
L 542.454025 252.850122 
L 538.175821 252.850122 
z
" clip-path="url(#p99839c200b)" style="fill: #ff0000"/>
   </g>
   <g id="patch_140">
    <path d="M 552.436501 260.479778 
L 556.714704 260.479778 
L 556.714704 226.68014 
L 552.436501 226.68014 
z
" clip-path="url(#p99839c200b)" style="fill: #ff0000"/>
   </g>
   <g id="patch_141">
    <path d="M 566.69718 299.539453 
L 570.975383 299.539453 
L 570.975383 286.519561 
L 566.69718 286.519561 
z
" clip-path="url(#p99839c200b)" style="fill: #ff0000"/>
   </g>
   <g id="patch_142">
    <path d="M 580.957859 346.905818 
L 585.236062 346.905818 
L 585.236062 334.068205 
L 580.957859 334.068205 
z
" clip-path="url(#p99839c200b)" style="fill: #ff0000"/>
   </g>
   <g id="patch_143">
    <path d="M 588.088198 346.411062 
L 592.366402 346.411062 
L 592.366402 328.183214 
L 588.088198 328.183214 
z
" clip-path="url(#p99839c200b)" style="fill: #ff0000"/>
   </g>
   <g id="patch_144">
    <path d="M 602.348877 325.579236 
L 606.627081 325.579236 
L 606.627081 316.907988 
L 602.348877 316.907988 
z
" clip-path="url(#p99839c200b)" style="fill: #ff0000"/>
   </g>
   <g id="patch_145">
    <path d="M 609.479217 312.559344 
L 613.757421 312.559344 
L 613.757421 250.089905 
L 609.479217 250.089905 
z
" clip-path="url(#p99839c200b)" style="fill: #ff0000"/>
   </g>
   <g id="patch_146">
    <path d="M 616.609556 247.511967 
L 620.88776 247.511967 
L 620.88776 234.049399 
L 616.609556 234.049399 
z
" clip-path="url(#p99839c200b)" style="fill: #ff0000"/>
   </g>
   <g id="patch_147">
    <path d="M 630.870235 263.083757 
L 635.148439 263.083757 
L 635.148439 218.816126 
L 630.870235 218.816126 
z
" clip-path="url(#p99839c200b)" style="fill: #ff0000"/>
   </g>
   <g id="patch_148">
    <path d="M 638.000575 219.597319 
L 642.278779 219.597319 
L 642.278779 218.790086 
L 638.000575 218.790086 
z
" clip-path="url(#p99839c200b)" style="fill: #ff0000"/>
   </g>
   <g id="patch_149">
    <path d="M 666.521933 276.416126 
L 670.800137 276.416126 
L 670.800137 275.713052 
L 666.521933 275.713052 
z
" clip-path="url(#p99839c200b)" style="fill: #ff0000"/>
   </g>
   <g id="patch_150">
    <path d="M 680.782612 282.613594 
L 685.060816 282.613594 
L 685.060816 278.707627 
L 680.782612 278.707627 
z
" clip-path="url(#p99839c200b)" style="fill: #ff0000"/>
   </g>
   <g id="patch_151">
    <path d="M 716.43431 403.698585 
L 720.712514 403.698585 
L 720.712514 396.407446 
L 716.43431 396.407446 
z
" clip-path="url(#p99839c200b)" style="fill: #ff0000"/>
   </g>
   <g id="patch_152">
    <path d="M 723.56465 386.35609 
L 727.842853 386.35609 
L 727.842853 372.476885 
L 723.56465 372.476885 
z
" clip-path="url(#p99839c200b)" style="fill: #ff0000"/>
   </g>
   <g id="patch_153">
    <path d="M 730.694989 356.826976 
L 734.973193 356.826976 
L 734.973193 349.926433 
L 730.694989 349.926433 
z
" clip-path="url(#p99839c200b)" style="fill: #ff0000"/>
   </g>
   <g id="patch_154">
    <path d="M 752.086008 338.599127 
L 756.364211 338.599127 
L 756.364211 322.975258 
L 752.086008 322.975258 
z
" clip-path="url(#p99839c200b)" style="fill: #ff0000"/>
   </g>
   <g id="patch_155">
    <path d="M 759.216347 377.658802 
L 763.494551 377.658802 
L 763.494551 377.658802 
L 759.216347 377.658802 
z
" clip-path="url(#p99839c200b)" style="fill: #ff0000"/>
   </g>
   <g id="patch_156">
    <path d="M 780.607366 390.678693 
L 784.88557 390.678693 
L 784.88557 366.904372 
L 780.607366 366.904372 
z
" clip-path="url(#p99839c200b)" style="fill: #ff0000"/>
   </g>
   <g id="patch_157">
    <path d="M 88.96443 338.599127 
L 93.242634 338.599127 
L 93.242634 299.539453 
L 88.96443 299.539453 
z
" clip-path="url(#p99839c200b)" style="fill: #008000"/>
   </g>
   <g id="patch_158">
    <path d="M 124.616128 310.319923 
L 128.894332 310.319923 
L 128.894332 301.856994 
L 124.616128 301.856994 
z
" clip-path="url(#p99839c200b)" style="fill: #008000"/>
   </g>
   <g id="patch_159">
    <path d="M 138.876807 395.652292 
L 143.155011 395.652292 
L 143.155011 351.592979 
L 138.876807 351.592979 
z
" clip-path="url(#p99839c200b)" style="fill: #008000"/>
   </g>
   <g id="patch_160">
    <path d="M 174.528505 342.244697 
L 178.806709 342.244697 
L 178.806709 325.579236 
L 174.528505 325.579236 
z
" clip-path="url(#p99839c200b)" style="fill: #008000"/>
   </g>
   <g id="patch_161">
    <path d="M 181.658844 374.976704 
L 185.937048 374.976704 
L 185.937048 349.06712 
L 181.658844 349.06712 
z
" clip-path="url(#p99839c200b)" style="fill: #008000"/>
   </g>
   <g id="patch_162">
    <path d="M 231.571221 260.479778 
L 235.849425 260.479778 
L 235.849425 165.694968 
L 231.571221 165.694968 
z
" clip-path="url(#p99839c200b)" style="fill: #008000"/>
   </g>
   <g id="patch_163">
    <path d="M 238.701561 303.028784 
L 242.979765 303.028784 
L 242.979765 265.687735 
L 238.701561 265.687735 
z
" clip-path="url(#p99839c200b)" style="fill: #008000"/>
   </g>
   <g id="patch_164">
    <path d="M 245.8319 302.143431 
L 250.110104 302.143431 
L 250.110104 300.581044 
L 245.8319 300.581044 
z
" clip-path="url(#p99839c200b)" style="fill: #008000"/>
   </g>
   <g id="patch_165">
    <path d="M 260.092579 347.270375 
L 264.370783 347.270375 
L 264.370783 291.727518 
L 260.092579 291.727518 
z
" clip-path="url(#p99839c200b)" style="fill: #008000"/>
   </g>
   <g id="patch_166">
    <path d="M 267.222919 354.222997 
L 271.501123 354.222997 
L 271.501123 346.74958 
L 267.222919 346.74958 
z
" clip-path="url(#p99839c200b)" style="fill: #008000"/>
   </g>
   <g id="patch_167">
    <path d="M 281.483598 349.09316 
L 285.761802 349.09316 
L 285.761802 343.676885 
L 281.483598 343.676885 
z
" clip-path="url(#p99839c200b)" style="fill: #008000"/>
   </g>
   <g id="patch_168">
    <path d="M 295.744277 307.247229 
L 300.022481 307.247229 
L 300.022481 276.103648 
L 295.744277 276.103648 
z
" clip-path="url(#p99839c200b)" style="fill: #008000"/>
   </g>
   <g id="patch_169">
    <path d="M 302.874617 351.48882 
L 307.15282 351.48882 
L 307.15282 338.599127 
L 302.874617 338.599127 
z
" clip-path="url(#p99839c200b)" style="fill: #008000"/>
   </g>
   <g id="patch_170">
    <path d="M 317.135296 346.202744 
L 321.413499 346.202744 
L 321.413499 335.969109 
L 317.135296 335.969109 
z
" clip-path="url(#p99839c200b)" style="fill: #008000"/>
   </g>
   <g id="patch_171">
    <path d="M 338.526314 278.056632 
L 342.804518 278.056632 
L 342.804518 264.515945 
L 338.526314 264.515945 
z
" clip-path="url(#p99839c200b)" style="fill: #008000"/>
   </g>
   <g id="patch_172">
    <path d="M 359.917333 278.707627 
L 364.195537 278.707627 
L 364.195537 190.484842 
L 359.917333 190.484842 
z
" clip-path="url(#p99839c200b)" style="fill: #008000"/>
   </g>
   <g id="patch_173">
    <path d="M 367.047673 283.655185 
L 371.325876 283.655185 
L 371.325876 278.785746 
L 367.047673 278.785746 
z
" clip-path="url(#p99839c200b)" style="fill: #008000"/>
   </g>
   <g id="patch_174">
    <path d="M 381.308352 205.535836 
L 385.586555 205.535836 
L 385.586555 189.651569 
L 381.308352 189.651569 
z
" clip-path="url(#p99839c200b)" style="fill: #008000"/>
   </g>
   <g id="patch_175">
    <path d="M 395.569031 193.948133 
L 399.847234 193.948133 
L 399.847234 166.73656 
L 395.569031 166.73656 
z
" clip-path="url(#p99839c200b)" style="fill: #008000"/>
   </g>
   <g id="patch_176">
    <path d="M 438.351068 101.637102 
L 442.629272 101.637102 
L 442.629272 75.597319 
L 438.351068 75.597319 
z
" clip-path="url(#p99839c200b)" style="fill: #008000"/>
   </g>
   <g id="patch_177">
    <path d="M 445.481407 143.352835 
L 449.759611 143.352835 
L 449.759611 101.975619 
L 445.481407 101.975619 
z
" clip-path="url(#p99839c200b)" style="fill: #008000"/>
   </g>
   <g id="patch_178">
    <path d="M 452.611747 161.528603 
L 456.889951 161.528603 
L 456.889951 143.326795 
L 452.611747 143.326795 
z
" clip-path="url(#p99839c200b)" style="fill: #008000"/>
   </g>
   <g id="patch_179">
    <path d="M 459.742087 226.73222 
L 464.02029 226.73222 
L 464.02029 164.132581 
L 459.742087 164.132581 
z
" clip-path="url(#p99839c200b)" style="fill: #008000"/>
   </g>
   <g id="patch_180">
    <path d="M 466.872426 226.70618 
L 471.15063 226.70618 
L 471.15063 226.6541 
L 466.872426 226.6541 
z
" clip-path="url(#p99839c200b)" style="fill: #008000"/>
   </g>
   <g id="patch_181">
    <path d="M 474.002766 264.776343 
L 478.280969 264.776343 
L 478.280969 234.205637 
L 474.002766 234.205637 
z
" clip-path="url(#p99839c200b)" style="fill: #008000"/>
   </g>
   <g id="patch_182">
    <path d="M 481.133105 280.217934 
L 485.411309 280.217934 
L 485.411309 272.197681 
L 481.133105 272.197681 
z
" clip-path="url(#p99839c200b)" style="fill: #008000"/>
   </g>
   <g id="patch_183">
    <path d="M 509.654463 325.579236 
L 513.932667 325.579236 
L 513.932667 305.789001 
L 509.654463 305.789001 
z
" clip-path="url(#p99839c200b)" style="fill: #008000"/>
   </g>
   <g id="patch_184">
    <path d="M 531.045482 260.479778 
L 535.323686 260.479778 
L 535.323686 242.460249 
L 531.045482 242.460249 
z
" clip-path="url(#p99839c200b)" style="fill: #008000"/>
   </g>
   <g id="patch_185">
    <path d="M 545.306161 250.845059 
L 549.584365 250.845059 
L 549.584365 250.063865 
L 545.306161 250.063865 
z
" clip-path="url(#p99839c200b)" style="fill: #008000"/>
   </g>
   <g id="patch_186">
    <path d="M 559.56684 273.49967 
L 563.845044 273.49967 
L 563.845044 226.758259 
L 559.56684 226.758259 
z
" clip-path="url(#p99839c200b)" style="fill: #008000"/>
   </g>
   <g id="patch_187">
    <path d="M 573.827519 320.631677 
L 578.105723 320.631677 
L 578.105723 299.487373 
L 573.827519 299.487373 
z
" clip-path="url(#p99839c200b)" style="fill: #008000"/>
   </g>
   <g id="patch_188">
    <path d="M 595.218538 351.410701 
L 599.496742 351.410701 
L 599.496742 336.281587 
L 595.218538 336.281587 
z
" clip-path="url(#p99839c200b)" style="fill: #008000"/>
   </g>
   <g id="patch_189">
    <path d="M 623.739896 256.313413 
L 628.0181 256.313413 
L 628.0181 241.939453 
L 623.739896 241.939453 
z
" clip-path="url(#p99839c200b)" style="fill: #008000"/>
   </g>
   <g id="patch_190">
    <path d="M 645.130915 230.27363 
L 649.409118 230.27363 
L 649.409118 216.212147 
L 645.130915 216.212147 
z
" clip-path="url(#p99839c200b)" style="fill: #008000"/>
   </g>
   <g id="patch_191">
    <path d="M 652.261254 268.291713 
L 656.539458 268.291713 
L 656.539458 229.232039 
L 652.261254 229.232039 
z
" clip-path="url(#p99839c200b)" style="fill: #008000"/>
   </g>
   <g id="patch_192">
    <path d="M 659.391594 287.430954 
L 663.669797 287.430954 
L 663.669797 252.667844 
L 659.391594 252.667844 
z
" clip-path="url(#p99839c200b)" style="fill: #008000"/>
   </g>
   <g id="patch_193">
    <path d="M 673.652273 280.530411 
L 677.930476 280.530411 
L 677.930476 274.801659 
L 673.652273 274.801659 
z
" clip-path="url(#p99839c200b)" style="fill: #008000"/>
   </g>
   <g id="patch_194">
    <path d="M 687.912952 309.877247 
L 692.191156 309.877247 
L 692.191156 278.707627 
L 687.912952 278.707627 
z
" clip-path="url(#p99839c200b)" style="fill: #008000"/>
   </g>
   <g id="patch_195">
    <path d="M 695.043291 327.922816 
L 699.321495 327.922816 
L 699.321495 310.450122 
L 695.043291 310.450122 
z
" clip-path="url(#p99839c200b)" style="fill: #008000"/>
   </g>
   <g id="patch_196">
    <path d="M 702.173631 356.2541 
L 706.451835 356.2541 
L 706.451835 327.922816 
L 702.173631 327.922816 
z
" clip-path="url(#p99839c200b)" style="fill: #008000"/>
   </g>
   <g id="patch_197">
    <path d="M 709.30397 401.068567 
L 713.582174 401.068567 
L 713.582174 356.228061 
L 709.30397 356.228061 
z
" clip-path="url(#p99839c200b)" style="fill: #008000"/>
   </g>
   <g id="patch_198">
    <path d="M 737.825329 335.995149 
L 742.103532 335.995149 
L 742.103532 300.607084 
L 737.825329 300.607084 
z
" clip-path="url(#p99839c200b)" style="fill: #008000"/>
   </g>
   <g id="patch_199">
    <path d="M 744.955668 346.411062 
L 749.233872 346.411062 
L 749.233872 335.474354 
L 744.955668 335.474354 
z
" clip-path="url(#p99839c200b)" style="fill: #008000"/>
   </g>
   <g id="patch_200">
    <path d="M 766.346687 382.189724 
L 770.62489 382.189724 
L 770.62489 377.658802 
L 766.346687 377.658802 
z
" clip-path="url(#p99839c200b)" style="fill: #008000"/>
   </g>
   <g id="patch_201">
    <path d="M 773.477026 401.355005 
L 777.75523 401.355005 
L 777.75523 382.189724 
L 773.477026 382.189724 
z
" clip-path="url(#p99839c200b)" style="fill: #008000"/>
   </g>
   <g id="patch_202">
    <path d="M 787.737705 398.490628 
L 792.015909 398.490628 
L 792.015909 366.904372 
L 787.737705 366.904372 
z
" clip-path="url(#p99839c200b)" style="fill: #008000"/>
   </g>
   <g id="matplotlib.axis_1">
    <g id="xtick_1">
     <g id="line2d_1">
      <defs>
       <path id="m503d029035" d="M 0 0 
L 0 3.5 
" style="stroke: #000000; stroke-width: 0.8"/>
      </defs>
      <g>
       <use xlink:href="#m503d029035" x="83.973193" y="467.6575" style="stroke: #000000; stroke-width: 0.8"/>
      </g>
     </g>
     <g id="text_1">
      <!-- 2025-06-17 -->
      <g transform="translate(71.422047 506.830859) rotate(-45) scale(0.08 -0.08)">
       <defs>
        <path id="SimHei-32" d="M 300 250 
Q 325 625 650 925 
Q 975 1225 1475 1862 
Q 1975 2500 2125 2850 
Q 2275 3200 2237 3450 
Q 2200 3700 2000 3862 
Q 1800 4025 1537 4000 
Q 1275 3975 1037 3800 
Q 800 3625 675 3275 
L 200 3350 
Q 400 3925 712 4187 
Q 1025 4450 1450 4475 
Q 1700 4500 1900 4462 
Q 2100 4425 2312 4287 
Q 2525 4150 2662 3875 
Q 2800 3600 2762 3212 
Q 2725 2825 2375 2287 
Q 2025 1750 1025 600 
L 2825 600 
L 2825 150 
L 300 150 
L 300 250 
z
" transform="scale(0.015625)"/>
        <path id="SimHei-30" d="M 225 2537 
Q 250 3200 412 3587 
Q 575 3975 875 4225 
Q 1175 4475 1612 4475 
Q 2050 4475 2375 4112 
Q 2700 3750 2800 3200 
Q 2900 2650 2862 1937 
Q 2825 1225 2612 775 
Q 2400 325 1975 150 
Q 1550 -25 1125 187 
Q 700 400 525 750 
Q 350 1100 275 1487 
Q 200 1875 225 2537 
z
M 750 2687 
Q 675 2000 800 1462 
Q 925 925 1212 700 
Q 1500 475 1800 612 
Q 2100 750 2237 1162 
Q 2375 1575 2375 2062 
Q 2375 2550 2337 2950 
Q 2300 3350 2112 3675 
Q 1925 4000 1612 4012 
Q 1300 4025 1062 3700 
Q 825 3375 750 2687 
z
" transform="scale(0.015625)"/>
        <path id="SimHei-35" d="M 550 1325 
Q 725 650 1150 575 
Q 1575 500 1837 662 
Q 2100 825 2212 1087 
Q 2325 1350 2312 1675 
Q 2300 2000 2137 2225 
Q 1975 2450 1725 2525 
Q 1475 2600 1162 2525 
Q 850 2450 650 2175 
L 225 2225 
Q 275 2375 700 4375 
L 2675 4375 
L 2675 3925 
L 1075 3925 
Q 950 3250 825 2850 
Q 1200 3025 1525 3012 
Q 1850 3000 2150 2862 
Q 2450 2725 2587 2487 
Q 2725 2250 2787 2012 
Q 2850 1775 2837 1500 
Q 2825 1225 2725 937 
Q 2625 650 2425 462 
Q 2225 275 1937 162 
Q 1650 50 1275 75 
Q 900 100 562 350 
Q 225 600 100 1200 
L 550 1325 
z
" transform="scale(0.015625)"/>
        <path id="SimHei-2d" d="M 2975 2125 
L 125 2125 
L 125 2525 
L 2975 2525 
L 2975 2125 
z
" transform="scale(0.015625)"/>
        <path id="SimHei-36" d="M 250 1612 
Q 275 1975 387 2225 
Q 500 2475 725 2850 
L 1750 4450 
L 2325 4450 
L 1275 2800 
Q 1950 2975 2350 2750 
Q 2750 2525 2887 2237 
Q 3025 1950 3037 1612 
Q 3050 1275 2937 950 
Q 2825 625 2537 362 
Q 2250 100 1737 75 
Q 1225 50 862 262 
Q 500 475 362 862 
Q 225 1250 250 1612 
z
M 1025 787 
Q 1250 550 1625 525 
Q 2000 500 2250 775 
Q 2500 1050 2500 1575 
Q 2500 2100 2187 2300 
Q 1875 2500 1487 2450 
Q 1100 2400 925 2075 
Q 750 1750 775 1387 
Q 800 1025 1025 787 
z
" transform="scale(0.015625)"/>
        <path id="SimHei-31" d="M 1400 3600 
Q 1075 3275 575 2975 
L 575 3450 
Q 1200 3875 1600 4450 
L 1900 4450 
L 1900 150 
L 1400 150 
L 1400 3600 
z
" transform="scale(0.015625)"/>
        <path id="SimHei-37" d="M 850 150 
Q 1300 2050 2425 3925 
L 275 3925 
L 275 4375 
L 2950 4375 
L 2950 3950 
Q 1775 2050 1400 150 
L 850 150 
z
" transform="scale(0.015625)"/>
       </defs>
       <use xlink:href="#SimHei-32"/>
       <use xlink:href="#SimHei-30" transform="translate(50 0)"/>
       <use xlink:href="#SimHei-32" transform="translate(100 0)"/>
       <use xlink:href="#SimHei-35" transform="translate(150 0)"/>
       <use xlink:href="#SimHei-2d" transform="translate(200 0)"/>
       <use xlink:href="#SimHei-30" transform="translate(250 0)"/>
       <use xlink:href="#SimHei-36" transform="translate(300 0)"/>
       <use xlink:href="#SimHei-2d" transform="translate(350 0)"/>
       <use xlink:href="#SimHei-31" transform="translate(400 0)"/>
       <use xlink:href="#SimHei-37" transform="translate(450 0)"/>
      </g>
     </g>
    </g>
    <g id="xtick_2">
     <g id="line2d_2">
      <g>
       <use xlink:href="#m503d029035" x="119.62489" y="467.6575" style="stroke: #000000; stroke-width: 0.8"/>
      </g>
     </g>
     <g id="text_2">
      <!-- 2025-06-24 -->
      <g transform="translate(107.073745 506.830859) rotate(-45) scale(0.08 -0.08)">
       <defs>
        <path id="SimHei-34" d="M 2000 1100 
L 75 1100 
L 75 1525 
L 2100 4450 
L 2475 4450 
L 2475 1525 
L 3075 1525 
L 3075 1100 
L 2475 1100 
L 2475 150 
L 2000 150 
L 2000 1100 
z
M 2000 1525 
L 2000 3500 
L 600 1525 
L 2000 1525 
z
" transform="scale(0.015625)"/>
       </defs>
       <use xlink:href="#SimHei-32"/>
       <use xlink:href="#SimHei-30" transform="translate(50 0)"/>
       <use xlink:href="#SimHei-32" transform="translate(100 0)"/>
       <use xlink:href="#SimHei-35" transform="translate(150 0)"/>
       <use xlink:href="#SimHei-2d" transform="translate(200 0)"/>
       <use xlink:href="#SimHei-30" transform="translate(250 0)"/>
       <use xlink:href="#SimHei-36" transform="translate(300 0)"/>
       <use xlink:href="#SimHei-2d" transform="translate(350 0)"/>
       <use xlink:href="#SimHei-32" transform="translate(400 0)"/>
       <use xlink:href="#SimHei-34" transform="translate(450 0)"/>
      </g>
     </g>
    </g>
    <g id="xtick_3">
     <g id="line2d_3">
      <g>
       <use xlink:href="#m503d029035" x="155.276588" y="467.6575" style="stroke: #000000; stroke-width: 0.8"/>
      </g>
     </g>
     <g id="text_3">
      <!-- 2025-07-03 -->
      <g transform="translate(142.725443 506.830859) rotate(-45) scale(0.08 -0.08)">
       <defs>
        <path id="SimHei-33" d="M 250 1225 
L 700 1300 
Q 800 975 1025 762 
Q 1250 550 1587 562 
Q 1925 575 2125 837 
Q 2325 1100 2300 1437 
Q 2275 1775 2037 1962 
Q 1800 2150 1275 2225 
L 1275 2550 
Q 1800 2600 2037 2825 
Q 2275 3050 2250 3412 
Q 2225 3775 1925 3937 
Q 1625 4100 1287 3975 
Q 950 3850 750 3275 
L 300 3350 
Q 450 3800 712 4100 
Q 975 4400 1425 4450 
Q 1875 4500 2212 4337 
Q 2550 4175 2687 3837 
Q 2825 3500 2725 3100 
Q 2625 2700 2150 2400 
Q 2500 2250 2687 1950 
Q 2875 1650 2812 1162 
Q 2750 675 2375 375 
Q 2000 75 1525 87 
Q 1050 100 700 387 
Q 350 675 250 1225 
z
" transform="scale(0.015625)"/>
       </defs>
       <use xlink:href="#SimHei-32"/>
       <use xlink:href="#SimHei-30" transform="translate(50 0)"/>
       <use xlink:href="#SimHei-32" transform="translate(100 0)"/>
       <use xlink:href="#SimHei-35" transform="translate(150 0)"/>
       <use xlink:href="#SimHei-2d" transform="translate(200 0)"/>
       <use xlink:href="#SimHei-30" transform="translate(250 0)"/>
       <use xlink:href="#SimHei-37" transform="translate(300 0)"/>
       <use xlink:href="#SimHei-2d" transform="translate(350 0)"/>
       <use xlink:href="#SimHei-30" transform="translate(400 0)"/>
       <use xlink:href="#SimHei-33" transform="translate(450 0)"/>
      </g>
     </g>
    </g>
    <g id="xtick_4">
     <g id="line2d_4">
      <g>
       <use xlink:href="#m503d029035" x="190.928286" y="467.6575" style="stroke: #000000; stroke-width: 0.8"/>
      </g>
     </g>
     <g id="text_4">
      <!-- 2025-07-17 -->
      <g transform="translate(178.377141 506.830859) rotate(-45) scale(0.08 -0.08)">
       <use xlink:href="#SimHei-32"/>
       <use xlink:href="#SimHei-30" transform="translate(50 0)"/>
       <use xlink:href="#SimHei-32" transform="translate(100 0)"/>
       <use xlink:href="#SimHei-35" transform="translate(150 0)"/>
       <use xlink:href="#SimHei-2d" transform="translate(200 0)"/>
       <use xlink:href="#SimHei-30" transform="translate(250 0)"/>
       <use xlink:href="#SimHei-37" transform="translate(300 0)"/>
       <use xlink:href="#SimHei-2d" transform="translate(350 0)"/>
       <use xlink:href="#SimHei-31" transform="translate(400 0)"/>
       <use xlink:href="#SimHei-37" transform="translate(450 0)"/>
      </g>
     </g>
    </g>
    <g id="xtick_5">
     <g id="line2d_5">
      <g>
       <use xlink:href="#m503d029035" x="226.579984" y="467.6575" style="stroke: #000000; stroke-width: 0.8"/>
      </g>
     </g>
     <g id="text_5">
      <!-- 2025-07-24 -->
      <g transform="translate(214.028838 506.830859) rotate(-45) scale(0.08 -0.08)">
       <use xlink:href="#SimHei-32"/>
       <use xlink:href="#SimHei-30" transform="translate(50 0)"/>
       <use xlink:href="#SimHei-32" transform="translate(100 0)"/>
       <use xlink:href="#SimHei-35" transform="translate(150 0)"/>
       <use xlink:href="#SimHei-2d" transform="translate(200 0)"/>
       <use xlink:href="#SimHei-30" transform="translate(250 0)"/>
       <use xlink:href="#SimHei-37" transform="translate(300 0)"/>
       <use xlink:href="#SimHei-2d" transform="translate(350 0)"/>
       <use xlink:href="#SimHei-32" transform="translate(400 0)"/>
       <use xlink:href="#SimHei-34" transform="translate(450 0)"/>
      </g>
     </g>
    </g>
    <g id="xtick_6">
     <g id="line2d_6">
      <g>
       <use xlink:href="#m503d029035" x="262.231681" y="467.6575" style="stroke: #000000; stroke-width: 0.8"/>
      </g>
     </g>
     <g id="text_6">
      <!-- 2025-07-31 -->
      <g transform="translate(249.680536 506.830859) rotate(-45) scale(0.08 -0.08)">
       <use xlink:href="#SimHei-32"/>
       <use xlink:href="#SimHei-30" transform="translate(50 0)"/>
       <use xlink:href="#SimHei-32" transform="translate(100 0)"/>
       <use xlink:href="#SimHei-35" transform="translate(150 0)"/>
       <use xlink:href="#SimHei-2d" transform="translate(200 0)"/>
       <use xlink:href="#SimHei-30" transform="translate(250 0)"/>
       <use xlink:href="#SimHei-37" transform="translate(300 0)"/>
       <use xlink:href="#SimHei-2d" transform="translate(350 0)"/>
       <use xlink:href="#SimHei-33" transform="translate(400 0)"/>
       <use xlink:href="#SimHei-31" transform="translate(450 0)"/>
      </g>
     </g>
    </g>
    <g id="xtick_7">
     <g id="line2d_7">
      <g>
       <use xlink:href="#m503d029035" x="297.883379" y="467.6575" style="stroke: #000000; stroke-width: 0.8"/>
      </g>
     </g>
     <g id="text_7">
      <!-- 2025-08-12 -->
      <g transform="translate(285.332234 506.830859) rotate(-45) scale(0.08 -0.08)">
       <defs>
        <path id="SimHei-38" d="M 175 1375 
Q 175 1675 325 1962 
Q 475 2250 825 2425 
Q 525 2600 425 2812 
Q 325 3025 312 3300 
Q 300 3575 387 3775 
Q 475 3975 650 4150 
Q 825 4325 1037 4387 
Q 1250 4450 1500 4450 
Q 1750 4450 1950 4400 
Q 2150 4350 2375 4187 
Q 2600 4025 2700 3725 
Q 2800 3425 2687 3025 
Q 2575 2625 2100 2400 
Q 2525 2275 2700 2012 
Q 2875 1750 2875 1375 
Q 2875 1000 2762 775 
Q 2650 550 2512 400 
Q 2375 250 2137 162 
Q 1900 75 1537 75 
Q 1175 75 912 162 
Q 650 250 475 425 
Q 300 600 237 837 
Q 175 1075 175 1375 
z
M 687 1400 
Q 675 1100 787 875 
Q 900 650 1200 587 
Q 1500 525 1825 600 
Q 2150 675 2275 950 
Q 2400 1225 2362 1500 
Q 2325 1775 2050 1962 
Q 1775 2150 1450 2125 
Q 1125 2100 912 1900 
Q 700 1700 687 1400 
z
M 775 3350 
Q 775 3100 950 2875 
Q 1125 2650 1500 2650 
Q 1875 2650 2062 2875 
Q 2250 3100 2237 3412 
Q 2225 3725 2012 3875 
Q 1800 4025 1437 4000 
Q 1075 3975 925 3787 
Q 775 3600 775 3350 
z
" transform="scale(0.015625)"/>
       </defs>
       <use xlink:href="#SimHei-32"/>
       <use xlink:href="#SimHei-30" transform="translate(50 0)"/>
       <use xlink:href="#SimHei-32" transform="translate(100 0)"/>
       <use xlink:href="#SimHei-35" transform="translate(150 0)"/>
       <use xlink:href="#SimHei-2d" transform="translate(200 0)"/>
       <use xlink:href="#SimHei-30" transform="translate(250 0)"/>
       <use xlink:href="#SimHei-38" transform="translate(300 0)"/>
       <use xlink:href="#SimHei-2d" transform="translate(350 0)"/>
       <use xlink:href="#SimHei-31" transform="translate(400 0)"/>
       <use xlink:href="#SimHei-32" transform="translate(450 0)"/>
      </g>
     </g>
    </g>
    <g id="xtick_8">
     <g id="line2d_8">
      <g>
       <use xlink:href="#m503d029035" x="333.535077" y="467.6575" style="stroke: #000000; stroke-width: 0.8"/>
      </g>
     </g>
     <g id="text_8">
      <!-- 2025-08-20 -->
      <g transform="translate(320.983931 506.830859) rotate(-45) scale(0.08 -0.08)">
       <use xlink:href="#SimHei-32"/>
       <use xlink:href="#SimHei-30" transform="translate(50 0)"/>
       <use xlink:href="#SimHei-32" transform="translate(100 0)"/>
       <use xlink:href="#SimHei-35" transform="translate(150 0)"/>
       <use xlink:href="#SimHei-2d" transform="translate(200 0)"/>
       <use xlink:href="#SimHei-30" transform="translate(250 0)"/>
       <use xlink:href="#SimHei-38" transform="translate(300 0)"/>
       <use xlink:href="#SimHei-2d" transform="translate(350 0)"/>
       <use xlink:href="#SimHei-32" transform="translate(400 0)"/>
       <use xlink:href="#SimHei-30" transform="translate(450 0)"/>
      </g>
     </g>
    </g>
    <g id="xtick_9">
     <g id="line2d_9">
      <g>
       <use xlink:href="#m503d029035" x="369.186774" y="467.6575" style="stroke: #000000; stroke-width: 0.8"/>
      </g>
     </g>
     <g id="text_9">
      <!-- 2025-08-28 -->
      <g transform="translate(356.635629 506.830859) rotate(-45) scale(0.08 -0.08)">
       <use xlink:href="#SimHei-32"/>
       <use xlink:href="#SimHei-30" transform="translate(50 0)"/>
       <use xlink:href="#SimHei-32" transform="translate(100 0)"/>
       <use xlink:href="#SimHei-35" transform="translate(150 0)"/>
       <use xlink:href="#SimHei-2d" transform="translate(200 0)"/>
       <use xlink:href="#SimHei-30" transform="translate(250 0)"/>
       <use xlink:href="#SimHei-38" transform="translate(300 0)"/>
       <use xlink:href="#SimHei-2d" transform="translate(350 0)"/>
       <use xlink:href="#SimHei-32" transform="translate(400 0)"/>
       <use xlink:href="#SimHei-38" transform="translate(450 0)"/>
      </g>
     </g>
    </g>
    <g id="xtick_10">
     <g id="line2d_10">
      <g>
       <use xlink:href="#m503d029035" x="404.838472" y="467.6575" style="stroke: #000000; stroke-width: 0.8"/>
      </g>
     </g>
     <g id="text_10">
      <!-- 2025-09-04 -->
      <g transform="translate(392.287327 506.830859) rotate(-45) scale(0.08 -0.08)">
       <defs>
        <path id="SimHei-39" d="M 800 75 
Q 1350 1000 1700 1750 
Q 1075 1650 662 1912 
Q 250 2175 162 2625 
Q 75 3075 175 3437 
Q 275 3800 487 4037 
Q 700 4275 1000 4375 
Q 1300 4475 1537 4475 
Q 1775 4475 2025 4375 
Q 2275 4275 2475 4075 
Q 2675 3875 2750 3662 
Q 2825 3450 2825 3112 
Q 2825 2775 2575 2250 
Q 2325 1725 1350 75 
L 800 75 
z
M 662 2875 
Q 700 2550 937 2337 
Q 1175 2125 1450 2150 
Q 1725 2175 1887 2300 
Q 2050 2425 2200 2725 
Q 2300 3100 2250 3362 
Q 2200 3625 1987 3800 
Q 1775 3975 1525 3975 
Q 1375 4000 1137 3900 
Q 900 3800 762 3500 
Q 625 3200 662 2875 
z
" transform="scale(0.015625)"/>
       </defs>
       <use xlink:href="#SimHei-32"/>
       <use xlink:href="#SimHei-30" transform="translate(50 0)"/>
       <use xlink:href="#SimHei-32" transform="translate(100 0)"/>
       <use xlink:href="#SimHei-35" transform="translate(150 0)"/>
       <use xlink:href="#SimHei-2d" transform="translate(200 0)"/>
       <use xlink:href="#SimHei-30" transform="translate(250 0)"/>
       <use xlink:href="#SimHei-39" transform="translate(300 0)"/>
       <use xlink:href="#SimHei-2d" transform="translate(350 0)"/>
       <use xlink:href="#SimHei-30" transform="translate(400 0)"/>
       <use xlink:href="#SimHei-34" transform="translate(450 0)"/>
      </g>
     </g>
    </g>
    <g id="xtick_11">
     <g id="line2d_11">
      <g>
       <use xlink:href="#m503d029035" x="440.49017" y="467.6575" style="stroke: #000000; stroke-width: 0.8"/>
      </g>
     </g>
     <g id="text_11">
      <!-- 2025-09-12 -->
      <g transform="translate(427.939024 506.830859) rotate(-45) scale(0.08 -0.08)">
       <use xlink:href="#SimHei-32"/>
       <use xlink:href="#SimHei-30" transform="translate(50 0)"/>
       <use xlink:href="#SimHei-32" transform="translate(100 0)"/>
       <use xlink:href="#SimHei-35" transform="translate(150 0)"/>
       <use xlink:href="#SimHei-2d" transform="translate(200 0)"/>
       <use xlink:href="#SimHei-30" transform="translate(250 0)"/>
       <use xlink:href="#SimHei-39" transform="translate(300 0)"/>
       <use xlink:href="#SimHei-2d" transform="translate(350 0)"/>
       <use xlink:href="#SimHei-31" transform="translate(400 0)"/>
       <use xlink:href="#SimHei-32" transform="translate(450 0)"/>
      </g>
     </g>
    </g>
    <g id="xtick_12">
     <g id="line2d_12">
      <g>
       <use xlink:href="#m503d029035" x="476.141867" y="467.6575" style="stroke: #000000; stroke-width: 0.8"/>
      </g>
     </g>
     <g id="text_12">
      <!-- 2025-09-22 -->
      <g transform="translate(463.590722 506.830859) rotate(-45) scale(0.08 -0.08)">
       <use xlink:href="#SimHei-32"/>
       <use xlink:href="#SimHei-30" transform="translate(50 0)"/>
       <use xlink:href="#SimHei-32" transform="translate(100 0)"/>
       <use xlink:href="#SimHei-35" transform="translate(150 0)"/>
       <use xlink:href="#SimHei-2d" transform="translate(200 0)"/>
       <use xlink:href="#SimHei-30" transform="translate(250 0)"/>
       <use xlink:href="#SimHei-39" transform="translate(300 0)"/>
       <use xlink:href="#SimHei-2d" transform="translate(350 0)"/>
       <use xlink:href="#SimHei-32" transform="translate(400 0)"/>
       <use xlink:href="#SimHei-32" transform="translate(450 0)"/>
      </g>
     </g>
    </g>
    <g id="xtick_13">
     <g id="line2d_13">
      <g>
       <use xlink:href="#m503d029035" x="511.793565" y="467.6575" style="stroke: #000000; stroke-width: 0.8"/>
      </g>
     </g>
     <g id="text_13">
      <!-- 2025-10-10 -->
      <g transform="translate(499.24242 506.830859) rotate(-45) scale(0.08 -0.08)">
       <use xlink:href="#SimHei-32"/>
       <use xlink:href="#SimHei-30" transform="translate(50 0)"/>
       <use xlink:href="#SimHei-32" transform="translate(100 0)"/>
       <use xlink:href="#SimHei-35" transform="translate(150 0)"/>
       <use xlink:href="#SimHei-2d" transform="translate(200 0)"/>
       <use xlink:href="#SimHei-31" transform="translate(250 0)"/>
       <use xlink:href="#SimHei-30" transform="translate(300 0)"/>
       <use xlink:href="#SimHei-2d" transform="translate(350 0)"/>
       <use xlink:href="#SimHei-31" transform="translate(400 0)"/>
       <use xlink:href="#SimHei-30" transform="translate(450 0)"/>
      </g>
     </g>
    </g>
    <g id="xtick_14">
     <g id="line2d_14">
      <g>
       <use xlink:href="#m503d029035" x="547.445263" y="467.6575" style="stroke: #000000; stroke-width: 0.8"/>
      </g>
     </g>
     <g id="text_14">
      <!-- 2025-10-22 -->
      <g transform="translate(534.894118 506.830859) rotate(-45) scale(0.08 -0.08)">
       <use xlink:href="#SimHei-32"/>
       <use xlink:href="#SimHei-30" transform="translate(50 0)"/>
       <use xlink:href="#SimHei-32" transform="translate(100 0)"/>
       <use xlink:href="#SimHei-35" transform="translate(150 0)"/>
       <use xlink:href="#SimHei-2d" transform="translate(200 0)"/>
       <use xlink:href="#SimHei-31" transform="translate(250 0)"/>
       <use xlink:href="#SimHei-30" transform="translate(300 0)"/>
       <use xlink:href="#SimHei-2d" transform="translate(350 0)"/>
       <use xlink:href="#SimHei-32" transform="translate(400 0)"/>
       <use xlink:href="#SimHei-32" transform="translate(450 0)"/>
      </g>
     </g>
    </g>
    <g id="xtick_15">
     <g id="line2d_15">
      <g>
       <use xlink:href="#m503d029035" x="583.096961" y="467.6575" style="stroke: #000000; stroke-width: 0.8"/>
      </g>
     </g>
     <g id="text_15">
      <!-- 2025-10-30 -->
      <g transform="translate(570.545815 506.830859) rotate(-45) scale(0.08 -0.08)">
       <use xlink:href="#SimHei-32"/>
       <use xlink:href="#SimHei-30" transform="translate(50 0)"/>
       <use xlink:href="#SimHei-32" transform="translate(100 0)"/>
       <use xlink:href="#SimHei-35" transform="translate(150 0)"/>
       <use xlink:href="#SimHei-2d" transform="translate(200 0)"/>
       <use xlink:href="#SimHei-31" transform="translate(250 0)"/>
       <use xlink:href="#SimHei-30" transform="translate(300 0)"/>
       <use xlink:href="#SimHei-2d" transform="translate(350 0)"/>
       <use xlink:href="#SimHei-33" transform="translate(400 0)"/>
       <use xlink:href="#SimHei-30" transform="translate(450 0)"/>
      </g>
     </g>
    </g>
    <g id="xtick_16">
     <g id="line2d_16">
      <g>
       <use xlink:href="#m503d029035" x="618.748658" y="467.6575" style="stroke: #000000; stroke-width: 0.8"/>
      </g>
     </g>
     <g id="text_16">
      <!-- 2025-11-12 -->
      <g transform="translate(606.197513 506.830859) rotate(-45) scale(0.08 -0.08)">
       <use xlink:href="#SimHei-32"/>
       <use xlink:href="#SimHei-30" transform="translate(50 0)"/>
       <use xlink:href="#SimHei-32" transform="translate(100 0)"/>
       <use xlink:href="#SimHei-35" transform="translate(150 0)"/>
       <use xlink:href="#SimHei-2d" transform="translate(200 0)"/>
       <use xlink:href="#SimHei-31" transform="translate(250 0)"/>
       <use xlink:href="#SimHei-31" transform="translate(300 0)"/>
       <use xlink:href="#SimHei-2d" transform="translate(350 0)"/>
       <use xlink:href="#SimHei-31" transform="translate(400 0)"/>
       <use xlink:href="#SimHei-32" transform="translate(450 0)"/>
      </g>
     </g>
    </g>
    <g id="xtick_17">
     <g id="line2d_17">
      <g>
       <use xlink:href="#m503d029035" x="654.400356" y="467.6575" style="stroke: #000000; stroke-width: 0.8"/>
      </g>
     </g>
     <g id="text_17">
      <!-- 2025-11-24 -->
      <g transform="translate(641.849211 506.830859) rotate(-45) scale(0.08 -0.08)">
       <use xlink:href="#SimHei-32"/>
       <use xlink:href="#SimHei-30" transform="translate(50 0)"/>
       <use xlink:href="#SimHei-32" transform="translate(100 0)"/>
       <use xlink:href="#SimHei-35" transform="translate(150 0)"/>
       <use xlink:href="#SimHei-2d" transform="translate(200 0)"/>
       <use xlink:href="#SimHei-31" transform="translate(250 0)"/>
       <use xlink:href="#SimHei-31" transform="translate(300 0)"/>
       <use xlink:href="#SimHei-2d" transform="translate(350 0)"/>
       <use xlink:href="#SimHei-32" transform="translate(400 0)"/>
       <use xlink:href="#SimHei-34" transform="translate(450 0)"/>
      </g>
     </g>
    </g>
    <g id="xtick_18">
     <g id="line2d_18">
      <g>
       <use xlink:href="#m503d029035" x="690.052054" y="467.6575" style="stroke: #000000; stroke-width: 0.8"/>
      </g>
     </g>
     <g id="text_18">
      <!-- 2025-12-02 -->
      <g transform="translate(677.500908 506.830859) rotate(-45) scale(0.08 -0.08)">
       <use xlink:href="#SimHei-32"/>
       <use xlink:href="#SimHei-30" transform="translate(50 0)"/>
       <use xlink:href="#SimHei-32" transform="translate(100 0)"/>
       <use xlink:href="#SimHei-35" transform="translate(150 0)"/>
       <use xlink:href="#SimHei-2d" transform="translate(200 0)"/>
       <use xlink:href="#SimHei-31" transform="translate(250 0)"/>
       <use xlink:href="#SimHei-32" transform="translate(300 0)"/>
       <use xlink:href="#SimHei-2d" transform="translate(350 0)"/>
       <use xlink:href="#SimHei-30" transform="translate(400 0)"/>
       <use xlink:href="#SimHei-32" transform="translate(450 0)"/>
      </g>
     </g>
    </g>
    <g id="xtick_19">
     <g id="line2d_19">
      <g>
       <use xlink:href="#m503d029035" x="725.703751" y="467.6575" style="stroke: #000000; stroke-width: 0.8"/>
      </g>
     </g>
     <g id="text_19">
      <!-- 2025-12-11 -->
      <g transform="translate(713.152606 506.830859) rotate(-45) scale(0.08 -0.08)">
       <use xlink:href="#SimHei-32"/>
       <use xlink:href="#SimHei-30" transform="translate(50 0)"/>
       <use xlink:href="#SimHei-32" transform="translate(100 0)"/>
       <use xlink:href="#SimHei-35" transform="translate(150 0)"/>
       <use xlink:href="#SimHei-2d" transform="translate(200 0)"/>
       <use xlink:href="#SimHei-31" transform="translate(250 0)"/>
       <use xlink:href="#SimHei-32" transform="translate(300 0)"/>
       <use xlink:href="#SimHei-2d" transform="translate(350 0)"/>
       <use xlink:href="#SimHei-31" transform="translate(400 0)"/>
       <use xlink:href="#SimHei-31" transform="translate(450 0)"/>
      </g>
     </g>
    </g>
    <g id="xtick_20">
     <g id="line2d_20">
      <g>
       <use xlink:href="#m503d029035" x="761.355449" y="467.6575" style="stroke: #000000; stroke-width: 0.8"/>
      </g>
     </g>
     <g id="text_20">
      <!-- 2025-12-19 -->
      <g transform="translate(748.804304 506.830859) rotate(-45) scale(0.08 -0.08)">
       <use xlink:href="#SimHei-32"/>
       <use xlink:href="#SimHei-30" transform="translate(50 0)"/>
       <use xlink:href="#SimHei-32" transform="translate(100 0)"/>
       <use xlink:href="#SimHei-35" transform="translate(150 0)"/>
       <use xlink:href="#SimHei-2d" transform="translate(200 0)"/>
       <use xlink:href="#SimHei-31" transform="translate(250 0)"/>
       <use xlink:href="#SimHei-32" transform="translate(300 0)"/>
       <use xlink:href="#SimHei-2d" transform="translate(350 0)"/>
       <use xlink:href="#SimHei-31" transform="translate(400 0)"/>
       <use xlink:href="#SimHei-39" transform="translate(450 0)"/>
      </g>
     </g>
    </g>
   </g>
   <g id="matplotlib.axis_2">
    <g id="ytick_1">
     <g id="line2d_21">
      <defs>
       <path id="m37144e0393" d="M 0 0 
L -3.5 0 
" style="stroke: #000000; stroke-width: 0.8"/>
      </defs>
      <g>
       <use xlink:href="#m37144e0393" x="46.325" y="455.778151" style="stroke: #000000; stroke-width: 0.8"/>
      </g>
     </g>
     <g id="text_21">
      <!-- 1380 -->
      <g transform="translate(19.325 459.215651) scale(0.1 -0.1)">
       <use xlink:href="#SimHei-31"/>
       <use xlink:href="#SimHei-33" transform="translate(50 0)"/>
       <use xlink:href="#SimHei-38" transform="translate(100 0)"/>
       <use xlink:href="#SimHei-30" transform="translate(150 0)"/>
      </g>
     </g>
    </g>
    <g id="ytick_2">
     <g id="line2d_22">
      <g>
       <use xlink:href="#m37144e0393" x="46.325" y="403.698585" style="stroke: #000000; stroke-width: 0.8"/>
      </g>
     </g>
     <g id="text_22">
      <!-- 1400 -->
      <g transform="translate(19.325 407.136085) scale(0.1 -0.1)">
       <use xlink:href="#SimHei-31"/>
       <use xlink:href="#SimHei-34" transform="translate(50 0)"/>
       <use xlink:href="#SimHei-30" transform="translate(100 0)"/>
       <use xlink:href="#SimHei-30" transform="translate(150 0)"/>
      </g>
     </g>
    </g>
    <g id="ytick_3">
     <g id="line2d_23">
      <g>
       <use xlink:href="#m37144e0393" x="46.325" y="351.619019" style="stroke: #000000; stroke-width: 0.8"/>
      </g>
     </g>
     <g id="text_23">
      <!-- 1420 -->
      <g transform="translate(19.325 355.056519) scale(0.1 -0.1)">
       <use xlink:href="#SimHei-31"/>
       <use xlink:href="#SimHei-34" transform="translate(50 0)"/>
       <use xlink:href="#SimHei-32" transform="translate(100 0)"/>
       <use xlink:href="#SimHei-30" transform="translate(150 0)"/>
      </g>
     </g>
    </g>
    <g id="ytick_4">
     <g id="line2d_24">
      <g>
       <use xlink:href="#m37144e0393" x="46.325" y="299.539453" style="stroke: #000000; stroke-width: 0.8"/>
      </g>
     </g>
     <g id="text_24">
      <!-- 1440 -->
      <g transform="translate(19.325 302.976953) scale(0.1 -0.1)">
       <use xlink:href="#SimHei-31"/>
       <use xlink:href="#SimHei-34" transform="translate(50 0)"/>
       <use xlink:href="#SimHei-34" transform="translate(100 0)"/>
       <use xlink:href="#SimHei-30" transform="translate(150 0)"/>
      </g>
     </g>
    </g>
    <g id="ytick_5">
     <g id="line2d_25">
      <g>
       <use xlink:href="#m37144e0393" x="46.325" y="247.459887" style="stroke: #000000; stroke-width: 0.8"/>
      </g>
     </g>
     <g id="text_25">
      <!-- 1460 -->
      <g transform="translate(19.325 250.897387) scale(0.1 -0.1)">
       <use xlink:href="#SimHei-31"/>
       <use xlink:href="#SimHei-34" transform="translate(50 0)"/>
       <use xlink:href="#SimHei-36" transform="translate(100 0)"/>
       <use xlink:href="#SimHei-30" transform="translate(150 0)"/>
      </g>
     </g>
    </g>
    <g id="ytick_6">
     <g id="line2d_26">
      <g>
       <use xlink:href="#m37144e0393" x="46.325" y="195.380321" style="stroke: #000000; stroke-width: 0.8"/>
      </g>
     </g>
     <g id="text_26">
      <!-- 1480 -->
      <g transform="translate(19.325 198.817821) scale(0.1 -0.1)">
       <use xlink:href="#SimHei-31"/>
       <use xlink:href="#SimHei-34" transform="translate(50 0)"/>
       <use xlink:href="#SimHei-38" transform="translate(100 0)"/>
       <use xlink:href="#SimHei-30" transform="translate(150 0)"/>
      </g>
     </g>
    </g>
    <g id="ytick_7">
     <g id="line2d_27">
      <g>
       <use xlink:href="#m37144e0393" x="46.325" y="143.300755" style="stroke: #000000; stroke-width: 0.8"/>
      </g>
     </g>
     <g id="text_27">
      <!-- 1500 -->
      <g transform="translate(19.325 146.738255) scale(0.1 -0.1)">
       <use xlink:href="#SimHei-31"/>
       <use xlink:href="#SimHei-35" transform="translate(50 0)"/>
       <use xlink:href="#SimHei-30" transform="translate(100 0)"/>
       <use xlink:href="#SimHei-30" transform="translate(150 0)"/>
      </g>
     </g>
    </g>
    <g id="ytick_8">
     <g id="line2d_28">
      <g>
       <use xlink:href="#m37144e0393" x="46.325" y="91.221189" style="stroke: #000000; stroke-width: 0.8"/>
      </g>
     </g>
     <g id="text_28">
      <!-- 1520 -->
      <g transform="translate(19.325 94.658689) scale(0.1 -0.1)">
       <use xlink:href="#SimHei-31"/>
       <use xlink:href="#SimHei-35" transform="translate(50 0)"/>
       <use xlink:href="#SimHei-32" transform="translate(100 0)"/>
       <use xlink:href="#SimHei-30" transform="translate(150 0)"/>
      </g>
     </g>
    </g>
    <g id="ytick_9">
     <g id="line2d_29">
      <g>
       <use xlink:href="#m37144e0393" x="46.325" y="39.141623" style="stroke: #000000; stroke-width: 0.8"/>
      </g>
     </g>
     <g id="text_29">
      <!-- 1540 -->
      <g transform="translate(19.325 42.579123) scale(0.1 -0.1)">
       <use xlink:href="#SimHei-31"/>
       <use xlink:href="#SimHei-35" transform="translate(50 0)"/>
       <use xlink:href="#SimHei-34" transform="translate(100 0)"/>
       <use xlink:href="#SimHei-30" transform="translate(150 0)"/>
      </g>
     </g>
    </g>
    <g id="text_30">
     <!-- Price -->
     <g transform="translate(14.075 258.3975) rotate(-90) scale(0.1 -0.1)">
      <defs>
       <path id="SimHei-50" d="M 2950 3100 
Q 2950 2500 2600 2150 
Q 2250 1800 1625 1800 
L 900 1800 
L 900 125 
L 325 125 
L 325 4400 
L 1625 4400 
Q 2250 4400 2600 4050 
Q 2950 3700 2950 3100 
z
M 2375 3100 
Q 2375 3575 2150 3750 
Q 1925 3925 1475 3925 
L 900 3925 
L 900 2275 
L 1475 2275 
Q 1925 2275 2150 2450 
Q 2375 2625 2375 3100 
z
" transform="scale(0.015625)"/>
       <path id="SimHei-72" d="M 2500 2425 
Q 2025 2500 1700 2287 
Q 1375 2075 1150 1550 
L 1150 125 
L 650 125 
L 650 2925 
L 1150 2925 
L 1150 2200 
Q 1375 2600 1712 2787 
Q 2050 2975 2500 2975 
L 2500 2425 
z
" transform="scale(0.015625)"/>
       <path id="SimHei-69" d="M 1800 3725 
L 1300 3725 
L 1300 4375 
L 1800 4375 
L 1800 3725 
z
M 1800 125 
L 1300 125 
L 1300 2925 
L 1800 2925 
L 1800 125 
z
" transform="scale(0.015625)"/>
       <path id="SimHei-63" d="M 2850 1250 
Q 2850 725 2487 400 
Q 2125 75 1575 75 
Q 1025 75 625 462 
Q 225 850 225 1525 
Q 225 2200 625 2587 
Q 1025 2975 1575 2975 
Q 2125 2975 2450 2687 
Q 2775 2400 2775 2000 
L 2225 2000 
Q 2200 2300 2012 2412 
Q 1825 2525 1575 2525 
Q 1275 2525 1025 2287 
Q 775 2050 775 1525 
Q 775 1000 1025 762 
Q 1275 525 1575 525 
Q 1900 525 2100 700 
Q 2300 875 2300 1250 
L 2850 1250 
z
" transform="scale(0.015625)"/>
       <path id="SimHei-65" d="M 2850 1075 
Q 2800 625 2450 350 
Q 2100 75 1625 75 
Q 1025 75 637 462 
Q 250 850 250 1525 
Q 250 2200 637 2587 
Q 1025 2975 1625 2975 
Q 2150 2975 2487 2637 
Q 2825 2300 2825 1525 
L 800 1525 
Q 800 975 1037 750 
Q 1275 525 1625 525 
Q 1900 525 2075 662 
Q 2250 800 2300 1075 
L 2850 1075 
z
M 2250 1925 
Q 2200 2275 2025 2412 
Q 1850 2550 1575 2550 
Q 1325 2550 1125 2412 
Q 925 2275 825 1925 
L 2250 1925 
z
" transform="scale(0.015625)"/>
      </defs>
      <use xlink:href="#SimHei-50"/>
      <use xlink:href="#SimHei-72" transform="translate(50 0)"/>
      <use xlink:href="#SimHei-69" transform="translate(100 0)"/>
      <use xlink:href="#SimHei-63" transform="translate(150 0)"/>
      <use xlink:href="#SimHei-65" transform="translate(200 0)"/>
     </g>
    </g>
   </g>
   <g id="line2d_30">
    <path d="M 148.146249 403.698585 
L 226.579984 145.904733 
" clip-path="url(#p99839c200b)" style="fill: none; stroke: #800080; stroke-opacity: 0.8; stroke-width: 1.5; stroke-linecap: square"/>
   </g>
   <g id="line2d_31">
    <path d="M 269.362021 367.242889 
L 440.49017 44.2975 
" clip-path="url(#p99839c200b)" style="fill: none; stroke: #800080; stroke-opacity: 0.8; stroke-width: 1.5; stroke-linecap: square"/>
   </g>
   <g id="line2d_32">
    <path d="M 597.35764 351.592979 
L 640.139677 179.574173 
" clip-path="url(#p99839c200b)" style="fill: none; stroke: #800080; stroke-opacity: 0.8; stroke-width: 1.5; stroke-linecap: square"/>
   </g>
   <g id="patch_203">
    <path d="M 46.325 467.6575 
L 46.325 24.1375 
" style="fill: none; stroke: #000000; stroke-width: 0.8; stroke-linejoin: miter; stroke-linecap: square"/>
   </g>
   <g id="patch_204">
    <path d="M 827.525 467.6575 
L 827.525 24.1375 
" style="fill: none; stroke: #000000; stroke-width: 0.8; stroke-linejoin: miter; stroke-linecap: square"/>
   </g>
   <g id="patch_205">
    <path d="M 46.325 467.6575 
L 827.525 467.6575 
" style="fill: none; stroke: #000000; stroke-width: 0.8; stroke-linejoin: miter; stroke-linecap: square"/>
   </g>
   <g id="patch_206">
    <path d="M 46.325 24.1375 
L 827.525 24.1375 
" style="fill: none; stroke: #000000; stroke-width: 0.8; stroke-linejoin: miter; stroke-linecap: square"/>
   </g>
   <g id="text_31">
    <!-- Tx -->
    <g style="fill: #808080" transform="translate(107.503313 292.81822) scale(0.08 -0.08)">
     <defs>
      <path id="SimHei-54" d="M 2850 3925 
L 1850 3925 
L 1850 125 
L 1275 125 
L 1275 3925 
L 275 3925 
L 275 4400 
L 2850 4400 
L 2850 3925 
z
" transform="scale(0.015625)"/>
      <path id="SimHei-78" d="M 2875 125 
L 2275 125 
L 1550 1200 
L 825 125 
L 225 125 
L 1250 1550 
L 300 2925 
L 900 2925 
L 1550 1875 
L 2200 2925 
L 2800 2925 
L 1850 1550 
L 2875 125 
z
" transform="scale(0.015625)"/>
     </defs>
     <use xlink:href="#SimHei-54"/>
     <use xlink:href="#SimHei-78" transform="translate(50 0)"/>
    </g>
   </g>
   <g id="text_32">
    <!-- Bx -->
    <g style="fill: #808080" transform="translate(114.633653 397.528094) scale(0.08 -0.08)">
     <defs>
      <path id="SimHei-42" d="M 2950 1400 
Q 2950 675 2550 400 
Q 2150 125 1525 125 
L 275 125 
L 275 4400 
L 1575 4400 
Q 2200 4400 2512 4075 
Q 2825 3750 2825 3300 
Q 2825 2850 2612 2637 
Q 2400 2425 2175 2350 
Q 2475 2275 2712 2037 
Q 2950 1800 2950 1400 
z
M 2250 3300 
Q 2250 3625 2062 3775 
Q 1875 3925 1600 3925 
L 850 3925 
L 850 2600 
L 1575 2600 
Q 1850 2600 2050 2762 
Q 2250 2925 2250 3300 
z
M 2350 1400 
Q 2350 1800 2087 1962 
Q 1825 2125 1500 2125 
L 850 2125 
L 850 600 
L 1425 600 
Q 1875 600 2112 775 
Q 2350 950 2350 1400 
z
" transform="scale(0.015625)"/>
     </defs>
     <use xlink:href="#SimHei-42"/>
     <use xlink:href="#SimHei-78" transform="translate(50 0)"/>
    </g>
   </g>
   <g id="text_33">
    <!-- B 1400.00 -->
    <g style="fill: #0000ff" transform="translate(150.28535 410.989724) scale(0.08 -0.08)">
     <defs>
      <path id="SimHei-20" transform="scale(0.015625)"/>
      <path id="SimHei-2e" d="M 1075 125 
L 500 125 
L 500 675 
L 1075 675 
L 1075 125 
z
" transform="scale(0.015625)"/>
     </defs>
     <use xlink:href="#SimHei-42"/>
     <use xlink:href="#SimHei-20" transform="translate(50 0)"/>
     <use xlink:href="#SimHei-31" transform="translate(100 0)"/>
     <use xlink:href="#SimHei-34" transform="translate(150 0)"/>
     <use xlink:href="#SimHei-30" transform="translate(200 0)"/>
     <use xlink:href="#SimHei-30" transform="translate(250 0)"/>
     <use xlink:href="#SimHei-2e" transform="translate(300 0)"/>
     <use xlink:href="#SimHei-30" transform="translate(350 0)"/>
     <use xlink:href="#SimHei-30" transform="translate(400 0)"/>
    </g>
   </g>
   <g id="text_34">
    <!-- T 1499.00 -->
    <g transform="translate(228.719085 142.00137) scale(0.08 -0.08)">
     <use xlink:href="#SimHei-54"/>
     <use xlink:href="#SimHei-20" transform="translate(50 0)"/>
     <use xlink:href="#SimHei-31" transform="translate(100 0)"/>
     <use xlink:href="#SimHei-34" transform="translate(150 0)"/>
     <use xlink:href="#SimHei-39" transform="translate(200 0)"/>
     <use xlink:href="#SimHei-39" transform="translate(250 0)"/>
     <use xlink:href="#SimHei-2e" transform="translate(300 0)"/>
     <use xlink:href="#SimHei-30" transform="translate(350 0)"/>
     <use xlink:href="#SimHei-30" transform="translate(400 0)"/>
    </g>
   </g>
   <g id="text_35">
    <!-- Bx -->
    <g style="fill: #808080" transform="translate(250.110104 320.006775) scale(0.08 -0.08)">
     <use xlink:href="#SimHei-42"/>
     <use xlink:href="#SimHei-78" transform="translate(50 0)"/>
    </g>
   </g>
   <g id="text_36">
    <!-- B 1414.00 -->
    <g style="fill: #0000ff" transform="translate(271.501123 374.606939) scale(0.08 -0.08)">
     <use xlink:href="#SimHei-42"/>
     <use xlink:href="#SimHei-20" transform="translate(50 0)"/>
     <use xlink:href="#SimHei-31" transform="translate(100 0)"/>
     <use xlink:href="#SimHei-34" transform="translate(150 0)"/>
     <use xlink:href="#SimHei-31" transform="translate(200 0)"/>
     <use xlink:href="#SimHei-34" transform="translate(250 0)"/>
     <use xlink:href="#SimHei-2e" transform="translate(300 0)"/>
     <use xlink:href="#SimHei-30" transform="translate(350 0)"/>
     <use xlink:href="#SimHei-30" transform="translate(400 0)"/>
    </g>
   </g>
   <g id="text_37">
    <!-- Tx -->
    <g style="fill: #808080" transform="translate(278.631462 322.011942) scale(0.08 -0.08)">
     <use xlink:href="#SimHei-54"/>
     <use xlink:href="#SimHei-78" transform="translate(50 0)"/>
    </g>
   </g>
   <g id="text_38">
    <!-- Tx -->
    <g style="fill: #808080" transform="translate(300.022481 230.442707) scale(0.08 -0.08)">
     <use xlink:href="#SimHei-54"/>
     <use xlink:href="#SimHei-78" transform="translate(50 0)"/>
    </g>
   </g>
   <g id="text_39">
    <!-- Bx -->
    <g style="fill: #808080" transform="translate(307.15282 359.014317) scale(0.08 -0.08)">
     <use xlink:href="#SimHei-42"/>
     <use xlink:href="#SimHei-78" transform="translate(50 0)"/>
    </g>
   </g>
   <g id="text_40">
    <!-- Tx -->
    <g style="fill: #808080" transform="translate(357.065197 149.821117) scale(0.08 -0.08)">
     <use xlink:href="#SimHei-54"/>
     <use xlink:href="#SimHei-78" transform="translate(50 0)"/>
    </g>
   </g>
   <g id="text_41">
    <!-- Tx -->
    <g style="fill: #808080" transform="translate(392.716895 115.935547) scale(0.08 -0.08)">
     <use xlink:href="#SimHei-54"/>
     <use xlink:href="#SimHei-78" transform="translate(50 0)"/>
    </g>
   </g>
   <g id="text_42">
    <!-- T 1538.02 -->
    <g transform="translate(442.629272 40.292529) scale(0.08 -0.08)">
     <use xlink:href="#SimHei-54"/>
     <use xlink:href="#SimHei-20" transform="translate(50 0)"/>
     <use xlink:href="#SimHei-31" transform="translate(100 0)"/>
     <use xlink:href="#SimHei-35" transform="translate(150 0)"/>
     <use xlink:href="#SimHei-33" transform="translate(200 0)"/>
     <use xlink:href="#SimHei-38" transform="translate(250 0)"/>
     <use xlink:href="#SimHei-2e" transform="translate(300 0)"/>
     <use xlink:href="#SimHei-30" transform="translate(350 0)"/>
     <use xlink:href="#SimHei-32" transform="translate(400 0)"/>
    </g>
   </g>
   <g id="text_43">
    <!-- Bx -->
    <g style="fill: #808080" transform="translate(492.541648 338.198167) scale(0.08 -0.08)">
     <use xlink:href="#SimHei-42"/>
     <use xlink:href="#SimHei-78" transform="translate(50 0)"/>
    </g>
   </g>
   <g id="text_44">
    <!-- Tx -->
    <g style="fill: #808080" transform="translate(499.671988 217.618322) scale(0.08 -0.08)">
     <use xlink:href="#SimHei-54"/>
     <use xlink:href="#SimHei-78" transform="translate(50 0)"/>
    </g>
   </g>
   <g id="text_45">
    <!-- Bx -->
    <g style="fill: #808080" transform="translate(506.802327 359.014317) scale(0.08 -0.08)">
     <use xlink:href="#SimHei-42"/>
     <use xlink:href="#SimHei-78" transform="translate(50 0)"/>
    </g>
   </g>
   <g id="text_46">
    <!-- Bx -->
    <g style="fill: #808080" transform="translate(521.063007 371.696317) scale(0.08 -0.08)">
     <use xlink:href="#SimHei-42"/>
     <use xlink:href="#SimHei-78" transform="translate(50 0)"/>
    </g>
   </g>
   <g id="text_47">
    <!-- Tx -->
    <g style="fill: #808080" transform="translate(549.584365 217.748651) scale(0.08 -0.08)">
     <use xlink:href="#SimHei-54"/>
     <use xlink:href="#SimHei-78" transform="translate(50 0)"/>
    </g>
   </g>
   <g id="text_48">
    <!-- Bx -->
    <g style="fill: #808080" transform="translate(556.714704 288.327764) scale(0.08 -0.08)">
     <use xlink:href="#SimHei-42"/>
     <use xlink:href="#SimHei-78" transform="translate(50 0)"/>
    </g>
   </g>
   <g id="text_49">
    <!-- B 1420.01 -->
    <g style="fill: #0000ff" transform="translate(599.496742 358.98833) scale(0.08 -0.08)">
     <use xlink:href="#SimHei-42"/>
     <use xlink:href="#SimHei-20" transform="translate(50 0)"/>
     <use xlink:href="#SimHei-31" transform="translate(100 0)"/>
     <use xlink:href="#SimHei-34" transform="translate(150 0)"/>
     <use xlink:href="#SimHei-32" transform="translate(200 0)"/>
     <use xlink:href="#SimHei-30" transform="translate(250 0)"/>
     <use xlink:href="#SimHei-2e" transform="translate(300 0)"/>
     <use xlink:href="#SimHei-30" transform="translate(350 0)"/>
     <use xlink:href="#SimHei-31" transform="translate(400 0)"/>
    </g>
   </g>
   <g id="text_50">
    <!-- T 1486.07 -->
    <g transform="translate(642.278779 175.704479) scale(0.08 -0.08)">
     <use xlink:href="#SimHei-54"/>
     <use xlink:href="#SimHei-20" transform="translate(50 0)"/>
     <use xlink:href="#SimHei-31" transform="translate(100 0)"/>
     <use xlink:href="#SimHei-34" transform="translate(150 0)"/>
     <use xlink:href="#SimHei-38" transform="translate(200 0)"/>
     <use xlink:href="#SimHei-36" transform="translate(250 0)"/>
     <use xlink:href="#SimHei-2e" transform="translate(300 0)"/>
     <use xlink:href="#SimHei-30" transform="translate(350 0)"/>
     <use xlink:href="#SimHei-37" transform="translate(400 0)"/>
    </g>
   </g>
   <g id="text_51">
    <!-- Bx -->
    <g style="fill: #808080" transform="translate(677.930476 309.53373) scale(0.08 -0.08)">
     <use xlink:href="#SimHei-42"/>
     <use xlink:href="#SimHei-78" transform="translate(50 0)"/>
    </g>
   </g>
   <g id="text_52">
    <!-- Tx -->
    <g style="fill: #808080" transform="translate(685.060816 237.741137) scale(0.08 -0.08)">
     <use xlink:href="#SimHei-54"/>
     <use xlink:href="#SimHei-78" transform="translate(50 0)"/>
    </g>
   </g>
   <g id="text_53">
    <!-- Bx -->
    <g style="fill: #808080" transform="translate(720.712514 454.701041) scale(0.08 -0.08)">
     <use xlink:href="#SimHei-42"/>
     <use xlink:href="#SimHei-78" transform="translate(50 0)"/>
    </g>
   </g>
   <g id="text_54">
    <!-- Tx -->
    <g style="fill: #808080" transform="translate(756.364211 295.946119) scale(0.08 -0.08)">
     <use xlink:href="#SimHei-54"/>
     <use xlink:href="#SimHei-78" transform="translate(50 0)"/>
    </g>
   </g>
   <g id="text_55">
    <!-- Bx -->
    <g style="fill: #808080" transform="translate(763.494551 408.364966) scale(0.08 -0.08)">
     <use xlink:href="#SimHei-42"/>
     <use xlink:href="#SimHei-78" transform="translate(50 0)"/>
    </g>
   </g>
   <g id="text_56">
    <!-- B 1397.19 -->
    <g style="fill: #0000ff" transform="translate(777.75523 418.292269) scale(0.08 -0.08)">
     <use xlink:href="#SimHei-42"/>
     <use xlink:href="#SimHei-20" transform="translate(50 0)"/>
     <use xlink:href="#SimHei-31" transform="translate(100 0)"/>
     <use xlink:href="#SimHei-33" transform="translate(150 0)"/>
     <use xlink:href="#SimHei-39" transform="translate(200 0)"/>
     <use xlink:href="#SimHei-37" transform="translate(250 0)"/>
     <use xlink:href="#SimHei-2e" transform="translate(300 0)"/>
     <use xlink:href="#SimHei-31" transform="translate(350 0)"/>
     <use xlink:href="#SimHei-39" transform="translate(400 0)"/>
    </g>
   </g>
   <g id="text_57">
    <!-- Stroke Identification (Bill Williams / Chan Theory) -->
    <g transform="translate(258.425 18.1375) scale(0.14 -0.14)">
     <defs>
      <path id="SimHei-53" d="M 2900 1325 
Q 2900 750 2537 412 
Q 2175 75 1550 75 
Q 925 75 575 425 
Q 225 775 225 1300 
L 225 1475 
L 800 1475 
L 800 1325 
Q 800 950 1025 750 
Q 1250 550 1550 550 
Q 1950 550 2137 762 
Q 2325 975 2325 1275 
Q 2325 1525 2100 1737 
Q 1875 1950 1450 2125 
Q 850 2350 587 2625 
Q 325 2900 325 3275 
Q 325 3800 687 4125 
Q 1050 4450 1550 4450 
Q 2200 4450 2487 4062 
Q 2775 3675 2775 3225 
L 2200 3225 
Q 2225 3500 2050 3725 
Q 1875 3950 1550 3950 
Q 1250 3950 1075 3787 
Q 900 3625 900 3350 
Q 900 3125 1037 2962 
Q 1175 2800 1750 2575 
Q 2300 2350 2600 2037 
Q 2900 1725 2900 1325 
z
" transform="scale(0.015625)"/>
      <path id="SimHei-74" d="M 2750 200 
Q 2625 150 2462 112 
Q 2300 75 2025 75 
Q 1575 75 1300 325 
Q 1025 575 1025 1025 
L 1025 2525 
L 175 2525 
L 175 2925 
L 1025 2925 
L 1025 3900 
L 1525 3900 
L 1525 2925 
L 2550 2925 
L 2550 2525 
L 1525 2525 
L 1525 1000 
Q 1525 800 1625 662 
Q 1725 525 2000 525 
Q 2275 525 2450 575 
Q 2625 625 2750 700 
L 2750 200 
z
" transform="scale(0.015625)"/>
      <path id="SimHei-6f" d="M 2925 1525 
Q 2925 875 2525 475 
Q 2125 75 1575 75 
Q 1025 75 625 475 
Q 225 875 225 1525 
Q 225 2175 625 2575 
Q 1025 2975 1575 2975 
Q 2125 2975 2525 2575 
Q 2925 2175 2925 1525 
z
M 2375 1525 
Q 2375 2025 2125 2275 
Q 1875 2525 1575 2525 
Q 1275 2525 1025 2275 
Q 775 2025 775 1525 
Q 775 1025 1025 775 
Q 1275 525 1575 525 
Q 1875 525 2125 775 
Q 2375 1025 2375 1525 
z
" transform="scale(0.015625)"/>
      <path id="SimHei-6b" d="M 2925 125 
L 2350 125 
L 1450 1650 
L 875 1100 
L 875 125 
L 375 125 
L 375 4400 
L 875 4400 
L 875 1675 
L 2125 2925 
L 2750 2925 
L 1775 1975 
L 2925 125 
z
" transform="scale(0.015625)"/>
      <path id="SimHei-49" d="M 1850 125 
L 1275 125 
L 1275 4400 
L 1850 4400 
L 1850 125 
z
" transform="scale(0.015625)"/>
      <path id="SimHei-64" d="M 2750 125 
L 2250 125 
L 2250 500 
Q 2100 275 1900 175 
Q 1700 75 1425 75 
Q 925 75 575 437 
Q 225 800 225 1525 
Q 225 2250 575 2625 
Q 925 3000 1425 3000 
Q 1700 3000 1900 2887 
Q 2100 2775 2250 2550 
L 2250 4400 
L 2750 4400 
L 2750 125 
z
M 2250 1525 
Q 2250 2000 2037 2275 
Q 1825 2550 1525 2550 
Q 1150 2550 962 2275 
Q 775 2000 775 1525 
Q 775 1050 962 787 
Q 1150 525 1525 525 
Q 1825 525 2037 787 
Q 2250 1050 2250 1525 
z
" transform="scale(0.015625)"/>
      <path id="SimHei-6e" d="M 2800 125 
L 2300 125 
L 2300 1925 
Q 2300 2225 2150 2400 
Q 2000 2575 1750 2575 
Q 1425 2575 1137 2237 
Q 850 1900 850 1400 
L 850 125 
L 350 125 
L 350 2925 
L 850 2925 
L 850 2400 
Q 1050 2675 1287 2825 
Q 1525 2975 1900 2975 
Q 2350 2975 2575 2725 
Q 2800 2475 2800 2100 
L 2800 125 
z
" transform="scale(0.015625)"/>
      <path id="SimHei-66" d="M 2850 3825 
Q 2725 3900 2550 3950 
Q 2375 4000 2100 4000 
Q 1825 4000 1725 3862 
Q 1625 3725 1625 3525 
L 1625 2925 
L 2650 2925 
L 2650 2525 
L 1625 2525 
L 1625 125 
L 1125 125 
L 1125 2525 
L 275 2525 
L 275 2925 
L 1125 2925 
L 1125 3500 
Q 1125 3950 1400 4200 
Q 1675 4450 2125 4450 
Q 2400 4450 2562 4412 
Q 2725 4375 2850 4325 
L 2850 3825 
z
" transform="scale(0.015625)"/>
      <path id="SimHei-61" d="M 2875 125 
L 2275 125 
Q 2225 175 2200 262 
Q 2175 350 2175 475 
Q 2000 275 1750 175 
Q 1500 75 1225 75 
Q 825 75 550 275 
Q 275 475 275 850 
Q 275 1225 525 1450 
Q 775 1675 1300 1750 
Q 1650 1800 1912 1875 
Q 2175 1950 2175 2075 
Q 2175 2225 2062 2375 
Q 1950 2525 1575 2525 
Q 1275 2525 1137 2412 
Q 1000 2300 950 2100 
L 400 2100 
Q 450 2500 762 2737 
Q 1075 2975 1575 2975 
Q 2125 2975 2400 2725 
Q 2675 2475 2675 2025 
L 2675 650 
Q 2675 500 2725 375 
Q 2775 250 2875 125 
z
M 2175 1050 
L 2175 1550 
Q 2025 1500 1887 1462 
Q 1750 1425 1425 1375 
Q 1050 1325 937 1200 
Q 825 1075 825 900 
Q 825 750 937 637 
Q 1050 525 1275 525 
Q 1500 525 1762 650 
Q 2025 775 2175 1050 
z
" transform="scale(0.015625)"/>
      <path id="SimHei-28" d="M 2975 -200 
L 2700 -475 
Q 2075 125 1762 775 
Q 1450 1425 1450 2250 
Q 1450 3075 1762 3725 
Q 2075 4375 2700 5000 
L 2975 4725 
Q 2400 4175 2112 3587 
Q 1825 3000 1825 2250 
Q 1825 1500 2112 912 
Q 2400 325 2975 -200 
z
" transform="scale(0.015625)"/>
      <path id="SimHei-6c" d="M 1825 125 
L 1325 125 
L 1325 4400 
L 1825 4400 
L 1825 125 
z
" transform="scale(0.015625)"/>
      <path id="SimHei-57" d="M 3075 4400 
L 2525 75 
L 2025 75 
L 1575 3275 
L 1525 3275 
L 1075 75 
L 575 75 
L 25 4400 
L 575 4400 
L 850 1675 
L 900 1675 
L 1275 4400 
L 1825 4400 
L 2200 1675 
L 2250 1675 
L 2525 4400 
L 3075 4400 
z
" transform="scale(0.015625)"/>
      <path id="SimHei-6d" d="M 3050 125 
L 2550 125 
L 2550 2150 
Q 2550 2300 2500 2400 
Q 2450 2500 2300 2500 
Q 2125 2500 1975 2312 
Q 1825 2125 1825 1825 
L 1825 125 
L 1325 125 
L 1325 2150 
Q 1325 2300 1275 2400 
Q 1225 2500 1075 2500 
Q 900 2500 750 2312 
Q 600 2125 600 1825 
L 600 125 
L 100 125 
L 100 2925 
L 600 2925 
L 600 2550 
Q 725 2750 900 2862 
Q 1075 2975 1275 2975 
Q 1475 2975 1612 2862 
Q 1750 2750 1800 2550 
Q 1925 2750 2087 2862 
Q 2250 2975 2450 2975 
Q 2750 2975 2900 2812 
Q 3050 2650 3050 2350 
L 3050 125 
z
" transform="scale(0.015625)"/>
      <path id="SimHei-73" d="M 2750 900 
Q 2750 500 2437 287 
Q 2125 75 1650 75 
Q 1050 75 725 312 
Q 400 550 400 1000 
L 900 1000 
Q 900 700 1112 600 
Q 1325 500 1625 500 
Q 1925 500 2075 612 
Q 2225 725 2225 900 
Q 2225 1025 2100 1150 
Q 1975 1275 1475 1350 
Q 900 1425 687 1637 
Q 475 1850 475 2200 
Q 475 2500 762 2737 
Q 1050 2975 1600 2975 
Q 2100 2975 2387 2750 
Q 2675 2525 2675 2150 
L 2175 2150 
Q 2175 2375 2012 2462 
Q 1850 2550 1600 2550 
Q 1275 2550 1137 2437 
Q 1000 2325 1000 2175 
Q 1000 2000 1125 1900 
Q 1250 1800 1650 1750 
Q 2300 1650 2525 1437 
Q 2750 1225 2750 900 
z
" transform="scale(0.015625)"/>
      <path id="SimHei-2f" d="M 3000 4550 
L 350 -175 
L 100 -25 
L 2750 4700 
L 3000 4550 
z
" transform="scale(0.015625)"/>
      <path id="SimHei-43" d="M 2975 1825 
Q 2950 875 2575 475 
Q 2200 75 1675 75 
Q 1075 75 650 562 
Q 225 1050 225 2125 
Q 225 3300 637 3875 
Q 1050 4450 1700 4450 
Q 2250 4450 2612 4037 
Q 2975 3625 2950 2875 
L 2400 2875 
Q 2400 3425 2225 3700 
Q 2050 3975 1700 3975 
Q 1300 3975 1062 3562 
Q 825 3150 825 2175 
Q 825 1275 1062 912 
Q 1300 550 1675 550 
Q 1950 550 2175 812 
Q 2400 1075 2400 1825 
L 2975 1825 
z
" transform="scale(0.015625)"/>
      <path id="SimHei-68" d="M 2800 125 
L 2300 125 
L 2300 1925 
Q 2300 2225 2150 2400 
Q 2000 2575 1750 2575 
Q 1425 2575 1137 2237 
Q 850 1900 850 1400 
L 850 125 
L 350 125 
L 350 4400 
L 850 4400 
L 850 2400 
Q 1050 2675 1287 2825 
Q 1525 2975 1900 2975 
Q 2350 2975 2575 2725 
Q 2800 2475 2800 2100 
L 2800 125 
z
" transform="scale(0.015625)"/>
      <path id="SimHei-79" d="M 2900 2925 
L 1750 -100 
Q 1650 -450 1450 -625 
Q 1250 -800 950 -800 
Q 825 -800 712 -787 
Q 600 -775 500 -725 
L 500 -225 
Q 600 -275 700 -300 
Q 800 -325 875 -325 
Q 1075 -325 1150 -262 
Q 1225 -200 1300 25 
L 200 2925 
L 750 2925 
L 1550 725 
L 1575 725 
L 2350 2925 
L 2900 2925 
z
" transform="scale(0.015625)"/>
      <path id="SimHei-29" d="M 1675 2250 
Q 1675 1425 1362 775 
Q 1050 125 425 -475 
L 150 -200 
Q 725 325 1012 912 
Q 1300 1500 1300 2250 
Q 1300 3000 1012 3587 
Q 725 4175 150 4725 
L 425 5000 
Q 1050 4375 1362 3725 
Q 1675 3075 1675 2250 
z
" transform="scale(0.015625)"/>
     </defs>
     <use xlink:href="#SimHei-53"/>
     <use xlink:href="#SimHei-74" transform="translate(50 0)"/>
     <use xlink:href="#SimHei-72" transform="translate(100 0)"/>
     <use xlink:href="#SimHei-6f" transform="translate(150 0)"/>
     <use xlink:href="#SimHei-6b" transform="translate(200 0)"/>
     <use xlink:href="#SimHei-65" transform="translate(250 0)"/>
     <use xlink:href="#SimHei-20" transform="translate(300 0)"/>
     <use xlink:href="#SimHei-49" transform="translate(350 0)"/>
     <use xlink:href="#SimHei-64" transform="translate(400 0)"/>
     <use xlink:href="#SimHei-65" transform="translate(450 0)"/>
     <use xlink:href="#SimHei-6e" transform="translate(500 0)"/>
     <use xlink:href="#SimHei-74" transform="translate(550 0)"/>
     <use xlink:href="#SimHei-69" transform="translate(600 0)"/>
     <use xlink:href="#SimHei-66" transform="translate(650 0)"/>
     <use xlink:href="#SimHei-69" transform="translate(700 0)"/>
     <use xlink:href="#SimHei-63" transform="translate(750 0)"/>
     <use xlink:href="#SimHei-61" transform="translate(800 0)"/>
     <use xlink:href="#SimHei-74" transform="translate(850 0)"/>
     <use xlink:href="#SimHei-69" transform="translate(900 0)"/>
     <use xlink:href="#SimHei-6f" transform="translate(950 0)"/>
     <use xlink:href="#SimHei-6e" transform="translate(1000 0)"/>
     <use xlink:href="#SimHei-20" transform="translate(1050 0)"/>
     <use xlink:href="#SimHei-28" transform="translate(1100 0)"/>
     <use xlink:href="#SimHei-42" transform="translate(1150 0)"/>
     <use xlink:href="#SimHei-69" transform="translate(1200 0)"/>
     <use xlink:href="#SimHei-6c" transform="translate(1250 0)"/>
     <use xlink:href="#SimHei-6c" transform="translate(1300 0)"/>
     <use xlink:href="#SimHei-20" transform="translate(1350 0)"/>
     <use xlink:href="#SimHei-57" transform="translate(1400 0)"/>
     <use xlink:href="#SimHei-69" transform="translate(1450 0)"/>
     <use xlink:href="#SimHei-6c" transform="translate(1500 0)"/>
     <use xlink:href="#SimHei-6c" transform="translate(1550 0)"/>
     <use xlink:href="#SimHei-69" transform="translate(1600 0)"/>
     <use xlink:href="#SimHei-61" transform="translate(1650 0)"/>
     <use xlink:href="#SimHei-6d" transform="translate(1700 0)"/>
     <use xlink:href="#SimHei-73" transform="translate(1750 0)"/>
     <use xlink:href="#SimHei-20" transform="translate(1800 0)"/>
     <use xlink:href="#SimHei-2f" transform="translate(1850 0)"/>
     <use xlink:href="#SimHei-20" transform="translate(1900 0)"/>
     <use xlink:href="#SimHei-43" transform="translate(1950 0)"/>
     <use xlink:href="#SimHei-68" transform="translate(2000 0)"/>
     <use xlink:href="#SimHei-61" transform="translate(2050 0)"/>
     <use xlink:href="#SimHei-6e" transform="translate(2100 0)"/>
     <use xlink:href="#SimHei-20" transform="translate(2150 0)"/>
     <use xlink:href="#SimHei-54" transform="translate(2200 0)"/>
     <use xlink:href="#SimHei-68" transform="translate(2250 0)"/>
     <use xlink:href="#SimHei-65" transform="translate(2300 0)"/>
     <use xlink:href="#SimHei-6f" transform="translate(2350 0)"/>
     <use xlink:href="#SimHei-72" transform="translate(2400 0)"/>
     <use xlink:href="#SimHei-79" transform="translate(2450 0)"/>
     <use xlink:href="#SimHei-29" transform="translate(2500 0)"/>
    </g>
   </g>
  </g>
 </g>
 <defs>
  <clipPath id="p99839c200b">
   <rect x="46.325" y="24.1375" width="781.2" height="443.52"/>
  </clipPath>
 </defs>
</svg>
