<?xml version="1.0" encoding="utf-8" standalone="no"?>
<!DOCTYPE svg PUBLIC "-//W3C//DTD SVG 1.1//EN"
  "http://www.w3.org/Graphics/SVG/1.1/DTD/svg11.dtd">
<svg xmlns:xlink="http://www.w3.org/1999/xlink" width="829.725pt" height="514.737965pt" viewBox="0 0 829.725 514.737965" xmlns="http://www.w3.org/2000/svg" version="1.1">
 <metadata>
  <rdf:RDF xmlns:dc="http://purl.org/dc/elements/1.1/" xmlns:cc="http://creativecommons.org/ns#" xmlns:rdf="http://www.w3.org/1999/02/22-rdf-syntax-ns#">
   <cc:Work>
    <dc:type rdf:resource="http://purl.org/dc/dcmitype/StillImage"/>
    <dc:date>2025-12-30T15:08:10.460295</dc:date>
    <dc:format>image/svg+xml</dc:format>
    <dc:creator>
     <cc:Agent>
      <dc:title>Matplotlib v3.10.8, https://matplotlib.org/</dc:title>
     </cc:Agent>
    </dc:creator>
   </cc:Work>
  </rdf:RDF>
 </metadata>
 <defs>
  <style type="text/css">*{stroke-linejoin: round; stroke-linecap: butt}</style>
 </defs>
 <g id="figure_1">
  <g id="patch_1">
   <path d="M 0 514.737965 
L 829.725 514.737965 
L 829.725 0 
L 0 0 
z
" style="fill: #ffffff"/>
  </g>
  <g id="axes_1">
   <g id="patch_2">
    <path d="M 41.325 467.6575 
L 822.525 467.6575 
L 822.525 24.1375 
L 41.325 24.1375 
z
" style="fill: #ffffff"/>
   </g>
   <g id="patch_3">
    <path d="M 85.925274 61.114183 
L 86.281791 61.114183 
L 86.281791 49.502664 
L 85.925274 49.502664 
z
" clip-path="url(#pb5dbdfc375)" style="fill: #ff0000"/>
   </g>
   <g id="patch_4">
    <path d="M 93.055613 55.108225 
L 93.41213 55.108225 
L 93.41213 45.899089 
L 93.055613 45.899089 
z
" clip-path="url(#pb5dbdfc375)" style="fill: #ff0000"/>
   </g>
   <g id="patch_5">
    <path d="M 114.446632 67.920936 
L 114.803149 67.920936 
L 114.803149 54.707828 
L 114.446632 54.707828 
z
" clip-path="url(#pb5dbdfc375)" style="fill: #ff0000"/>
   </g>
   <g id="patch_6">
    <path d="M 128.707311 92.345166 
L 129.063828 92.345166 
L 129.063828 72.325305 
L 128.707311 72.325305 
z
" clip-path="url(#pb5dbdfc375)" style="fill: #ff0000"/>
   </g>
   <g id="patch_7">
    <path d="M 142.96799 81.934839 
L 143.324507 81.934839 
L 143.324507 64.717758 
L 142.96799 64.717758 
z
" clip-path="url(#pb5dbdfc375)" style="fill: #ff0000"/>
   </g>
   <g id="patch_8">
    <path d="M 185.750027 150.80316 
L 186.106544 150.80316 
L 186.106544 117.169794 
L 185.750027 117.169794 
z
" clip-path="url(#pb5dbdfc375)" style="fill: #ff0000"/>
   </g>
   <g id="patch_9">
    <path d="M 207.141046 166.418652 
L 207.497563 166.418652 
L 207.497563 142.795216 
L 207.141046 142.795216 
z
" clip-path="url(#pb5dbdfc375)" style="fill: #ff0000"/>
   </g>
   <g id="patch_10">
    <path d="M 221.401725 192.844868 
L 221.758242 192.844868 
L 221.758242 153.205544 
L 221.401725 153.205544 
z
" clip-path="url(#pb5dbdfc375)" style="fill: #ff0000"/>
   </g>
   <g id="patch_11">
    <path d="M 228.532065 150.402763 
L 228.888582 150.402763 
L 228.888582 130.382902 
L 228.532065 130.382902 
z
" clip-path="url(#pb5dbdfc375)" style="fill: #ff0000"/>
   </g>
   <g id="patch_12">
    <path d="M 235.662404 142.394819 
L 236.018921 142.394819 
L 236.018921 122.775355 
L 235.662404 122.775355 
z
" clip-path="url(#pb5dbdfc375)" style="fill: #ff0000"/>
   </g>
   <g id="patch_13">
    <path d="M 249.923083 135.988463 
L 250.2796 135.988463 
L 250.2796 118.771383 
L 249.923083 118.771383 
z
" clip-path="url(#pb5dbdfc375)" style="fill: #ff0000"/>
   </g>
   <g id="patch_14">
    <path d="M 285.574781 191.643677 
L 285.931298 191.643677 
L 285.931298 160.813091 
L 285.574781 160.813091 
z
" clip-path="url(#pb5dbdfc375)" style="fill: #ff0000"/>
   </g>
   <g id="patch_15">
    <path d="M 306.9658 286.137421 
L 307.322317 286.137421 
L 307.322317 248.900479 
L 306.9658 248.900479 
z
" clip-path="url(#pb5dbdfc375)" style="fill: #ff0000"/>
   </g>
   <g id="patch_16">
    <path d="M 314.096139 267.719148 
L 314.452656 267.719148 
L 314.452656 222.474263 
L 314.096139 222.474263 
z
" clip-path="url(#pb5dbdfc375)" style="fill: #ff0000"/>
   </g>
   <g id="patch_17">
    <path d="M 321.226479 232.083796 
L 321.582996 232.083796 
L 321.582996 206.057977 
L 321.226479 206.057977 
z
" clip-path="url(#pb5dbdfc375)" style="fill: #ff0000"/>
   </g>
   <g id="patch_18">
    <path d="M 328.356818 225.277043 
L 328.713335 225.277043 
L 328.713335 202.454402 
L 328.356818 202.454402 
z
" clip-path="url(#pb5dbdfc375)" style="fill: #ff0000"/>
   </g>
   <g id="patch_19">
    <path d="M 342.617497 246.097699 
L 342.974014 246.097699 
L 342.974014 222.073865 
L 342.617497 222.073865 
z
" clip-path="url(#pb5dbdfc375)" style="fill: #ff0000"/>
   </g>
   <g id="patch_20">
    <path d="M 356.878176 233.284988 
L 357.234693 233.284988 
L 357.234693 208.860757 
L 356.878176 208.860757 
z
" clip-path="url(#pb5dbdfc375)" style="fill: #ff0000"/>
   </g>
   <g id="patch_21">
    <path d="M 378.269195 264.916368 
L 378.625712 264.916368 
L 378.625712 242.894521 
L 378.269195 242.894521 
z
" clip-path="url(#pb5dbdfc375)" style="fill: #ff0000"/>
   </g>
   <g id="patch_22">
    <path d="M 406.790553 311.362445 
L 407.14707 311.362445 
L 407.14707 287.338612 
L 406.790553 287.338612 
z
" clip-path="url(#pb5dbdfc375)" style="fill: #ff0000"/>
   </g>
   <g id="patch_23">
    <path d="M 413.920893 292.944173 
L 414.27741 292.944173 
L 414.27741 270.922326 
L 413.920893 270.922326 
z
" clip-path="url(#pb5dbdfc375)" style="fill: #ff0000"/>
   </g>
   <g id="patch_24">
    <path d="M 421.051232 280.932257 
L 421.407749 280.932257 
L 421.407749 261.71319 
L 421.051232 261.71319 
z
" clip-path="url(#pb5dbdfc375)" style="fill: #ff0000"/>
   </g>
   <g id="patch_25">
    <path d="M 449.57259 364.615276 
L 449.929107 364.615276 
L 449.929107 329.780717 
L 449.57259 329.780717 
z
" clip-path="url(#pb5dbdfc375)" style="fill: #ff0000"/>
   </g>
   <g id="patch_26">
    <path d="M 463.833269 365.015673 
L 464.189786 365.015673 
L 464.189786 327.778731 
L 463.833269 327.778731 
z
" clip-path="url(#pb5dbdfc375)" style="fill: #ff0000"/>
   </g>
   <g id="patch_27">
    <path d="M 470.963609 346.597401 
L 471.320126 346.597401 
L 471.320126 314.165226 
L 470.963609 314.165226 
z
" clip-path="url(#pb5dbdfc375)" style="fill: #ff0000"/>
   </g>
   <g id="patch_28">
    <path d="M 485.224288 328.579526 
L 485.580805 328.579526 
L 485.580805 303.754898 
L 485.224288 303.754898 
z
" clip-path="url(#pb5dbdfc375)" style="fill: #ff0000"/>
   </g>
   <g id="patch_29">
    <path d="M 492.354628 329.780717 
L 492.711145 329.780717 
L 492.711145 304.555693 
L 492.354628 304.555693 
z
" clip-path="url(#pb5dbdfc375)" style="fill: #ff0000"/>
   </g>
   <g id="patch_30">
    <path d="M 499.484967 316.567609 
L 499.841484 316.567609 
L 499.841484 291.342584 
L 499.484967 291.342584 
z
" clip-path="url(#pb5dbdfc375)" style="fill: #ff0000"/>
   </g>
   <g id="patch_31">
    <path d="M 506.615307 289.740996 
L 506.971824 289.740996 
L 506.971824 263.314779 
L 506.615307 263.314779 
z
" clip-path="url(#pb5dbdfc375)" style="fill: #ff0000"/>
   </g>
   <g id="patch_32">
    <path d="M 513.745646 296.147351 
L 514.102163 296.147351 
L 514.102163 273.725107 
L 513.745646 273.725107 
z
" clip-path="url(#pb5dbdfc375)" style="fill: #ff0000"/>
   </g>
   <g id="patch_33">
    <path d="M 535.136665 314.165226 
L 535.493182 314.165226 
L 535.493182 282.533846 
L 535.136665 282.533846 
z
" clip-path="url(#pb5dbdfc375)" style="fill: #ff0000"/>
   </g>
   <g id="patch_34">
    <path d="M 542.267004 265.316765 
L 542.623521 265.316765 
L 542.623521 244.896507 
L 542.267004 244.896507 
z
" clip-path="url(#pb5dbdfc375)" style="fill: #ff0000"/>
   </g>
   <g id="patch_35">
    <path d="M 549.397344 244.49611 
L 549.753861 244.49611 
L 549.753861 228.880618 
L 549.397344 228.880618 
z
" clip-path="url(#pb5dbdfc375)" style="fill: #ff0000"/>
   </g>
   <g id="patch_36">
    <path d="M 556.527683 244.896507 
L 556.8842 244.896507 
L 556.8842 234.886576 
L 556.527683 234.886576 
z
" clip-path="url(#pb5dbdfc375)" style="fill: #ff0000"/>
   </g>
   <g id="patch_37">
    <path d="M 577.918702 267.318751 
L 578.275219 267.318751 
L 578.275219 246.097699 
L 577.918702 246.097699 
z
" clip-path="url(#pb5dbdfc375)" style="fill: #ff0000"/>
   </g>
   <g id="patch_38">
    <path d="M 585.049042 247.699287 
L 585.405559 247.699287 
L 585.405559 232.083796 
L 585.049042 232.083796 
z
" clip-path="url(#pb5dbdfc375)" style="fill: #ff0000"/>
   </g>
   <g id="patch_39">
    <path d="M 606.44006 249.701274 
L 606.796577 249.701274 
L 606.796577 231.283001 
L 606.44006 231.283001 
z
" clip-path="url(#pb5dbdfc375)" style="fill: #ff0000"/>
   </g>
   <g id="patch_40">
    <path d="M 634.961418 282.133448 
L 635.317935 282.133448 
L 635.317935 265.316765 
L 634.961418 265.316765 
z
" clip-path="url(#pb5dbdfc375)" style="fill: #ff0000"/>
   </g>
   <g id="patch_41">
    <path d="M 656.352437 328.179129 
L 656.708954 328.179129 
L 656.708954 317.368404 
L 656.352437 317.368404 
z
" clip-path="url(#pb5dbdfc375)" style="fill: #ff0000"/>
   </g>
   <g id="patch_42">
    <path d="M 713.395153 406.656984 
L 713.75167 406.656984 
L 713.75167 377.427987 
L 713.395153 377.427987 
z
" clip-path="url(#pb5dbdfc375)" style="fill: #ff0000"/>
   </g>
   <g id="patch_43">
    <path d="M 741.916512 437.087172 
L 742.273028 437.087172 
L 742.273028 412.662942 
L 741.916512 412.662942 
z
" clip-path="url(#pb5dbdfc375)" style="fill: #ff0000"/>
   </g>
   <g id="patch_44">
    <path d="M 749.046851 419.870092 
L 749.403368 419.870092 
L 749.403368 394.645067 
L 749.046851 394.645067 
z
" clip-path="url(#pb5dbdfc375)" style="fill: #ff0000"/>
   </g>
   <g id="patch_45">
    <path d="M 756.177191 419.069297 
L 756.533708 419.069297 
L 756.533708 392.242684 
L 756.177191 392.242684 
z
" clip-path="url(#pb5dbdfc375)" style="fill: #ff0000"/>
   </g>
   <g id="patch_46">
    <path d="M 770.43787 424.274461 
L 770.794387 424.274461 
L 770.794387 381.832356 
L 770.43787 381.832356 
z
" clip-path="url(#pb5dbdfc375)" style="fill: #ff0000"/>
   </g>
   <g id="patch_47">
    <path d="M 777.568209 397.447848 
L 777.924726 397.447848 
L 777.924726 374.625206 
L 777.568209 374.625206 
z
" clip-path="url(#pb5dbdfc375)" style="fill: #ff0000"/>
   </g>
   <g id="patch_48">
    <path d="M 78.794934 91.143975 
L 79.151451 91.143975 
L 79.151451 67.520539 
L 78.794934 67.520539 
z
" clip-path="url(#pb5dbdfc375)" style="fill: #008000"/>
   </g>
   <g id="patch_49">
    <path d="M 100.185953 53.907033 
L 100.54247 53.907033 
L 100.54247 44.2975 
L 100.185953 44.2975 
z
" clip-path="url(#pb5dbdfc375)" style="fill: #008000"/>
   </g>
   <g id="patch_50">
    <path d="M 107.316292 65.91895 
L 107.672809 65.91895 
L 107.672809 54.30743 
L 107.316292 54.30743 
z
" clip-path="url(#pb5dbdfc375)" style="fill: #008000"/>
   </g>
   <g id="patch_51">
    <path d="M 121.576972 79.932853 
L 121.933488 79.932853 
L 121.933488 56.309417 
L 121.576972 56.309417 
z
" clip-path="url(#pb5dbdfc375)" style="fill: #008000"/>
   </g>
   <g id="patch_52">
    <path d="M 135.837651 95.948741 
L 136.194168 95.948741 
L 136.194168 79.932853 
L 135.837651 79.932853 
z
" clip-path="url(#pb5dbdfc375)" style="fill: #008000"/>
   </g>
   <g id="patch_53">
    <path d="M 150.09833 73.526497 
L 150.454847 73.526497 
L 150.454847 63.516567 
L 150.09833 63.516567 
z
" clip-path="url(#pb5dbdfc375)" style="fill: #008000"/>
   </g>
   <g id="patch_54">
    <path d="M 157.228669 72.325305 
L 157.585186 72.325305 
L 157.585186 62.715772 
L 157.228669 62.715772 
z
" clip-path="url(#pb5dbdfc375)" style="fill: #008000"/>
   </g>
   <g id="patch_55">
    <path d="M 164.359009 79.932853 
L 164.715526 79.932853 
L 164.715526 71.124114 
L 164.359009 71.124114 
z
" clip-path="url(#pb5dbdfc375)" style="fill: #008000"/>
   </g>
   <g id="patch_56">
    <path d="M 171.489348 107.560261 
L 171.845865 107.560261 
L 171.845865 88.741591 
L 171.489348 88.741591 
z
" clip-path="url(#pb5dbdfc375)" style="fill: #008000"/>
   </g>
   <g id="patch_57">
    <path d="M 178.619688 122.775355 
L 178.976205 122.775355 
L 178.976205 94.347152 
L 178.619688 94.347152 
z
" clip-path="url(#pb5dbdfc375)" style="fill: #008000"/>
   </g>
   <g id="patch_58">
    <path d="M 192.880367 170.422624 
L 193.236884 170.422624 
L 193.236884 133.986477 
L 192.880367 133.986477 
z
" clip-path="url(#pb5dbdfc375)" style="fill: #008000"/>
   </g>
   <g id="patch_59">
    <path d="M 200.010706 184.436527 
L 200.367223 184.436527 
L 200.367223 152.004352 
L 200.010706 152.004352 
z
" clip-path="url(#pb5dbdfc375)" style="fill: #008000"/>
   </g>
   <g id="patch_60">
    <path d="M 214.271386 186.438513 
L 214.627903 186.438513 
L 214.627903 152.004352 
L 214.271386 152.004352 
z
" clip-path="url(#pb5dbdfc375)" style="fill: #008000"/>
   </g>
   <g id="patch_61">
    <path d="M 242.792744 133.58608 
L 243.149261 133.58608 
L 243.149261 106.359069 
L 242.792744 106.359069 
z
" clip-path="url(#pb5dbdfc375)" style="fill: #008000"/>
   </g>
   <g id="patch_62">
    <path d="M 257.053423 129.181711 
L 257.40994 129.181711 
L 257.40994 111.163836 
L 257.053423 111.163836 
z
" clip-path="url(#pb5dbdfc375)" style="fill: #008000"/>
   </g>
   <g id="patch_63">
    <path d="M 264.183762 133.986477 
L 264.540279 133.986477 
L 264.540279 114.367013 
L 264.183762 114.367013 
z
" clip-path="url(#pb5dbdfc375)" style="fill: #008000"/>
   </g>
   <g id="patch_64">
    <path d="M 271.314102 162.41468 
L 271.670619 162.41468 
L 271.670619 132.785286 
L 271.314102 132.785286 
z
" clip-path="url(#pb5dbdfc375)" style="fill: #008000"/>
   </g>
   <g id="patch_65">
    <path d="M 278.444441 182.034143 
L 278.800958 182.034143 
L 278.800958 154.807133 
L 278.444441 154.807133 
z
" clip-path="url(#pb5dbdfc375)" style="fill: #008000"/>
   </g>
   <g id="patch_66">
    <path d="M 292.70512 200.452416 
L 293.061637 200.452416 
L 293.061637 172.42461 
L 292.70512 172.42461 
z
" clip-path="url(#pb5dbdfc375)" style="fill: #008000"/>
   </g>
   <g id="patch_67">
    <path d="M 299.83546 263.314779 
L 300.191977 263.314779 
L 300.191977 221.273071 
L 299.83546 221.273071 
z
" clip-path="url(#pb5dbdfc375)" style="fill: #008000"/>
   </g>
   <g id="patch_68">
    <path d="M 335.487158 241.693329 
L 335.843675 241.693329 
L 335.843675 205.257182 
L 335.487158 205.257182 
z
" clip-path="url(#pb5dbdfc375)" style="fill: #008000"/>
   </g>
   <g id="patch_69">
    <path d="M 349.747837 238.089754 
L 350.104354 238.089754 
L 350.104354 216.868702 
L 349.747837 216.868702 
z
" clip-path="url(#pb5dbdfc375)" style="fill: #008000"/>
   </g>
   <g id="patch_70">
    <path d="M 364.008516 208.860757 
L 364.365033 208.860757 
L 364.365033 194.846855 
L 364.008516 194.846855 
z
" clip-path="url(#pb5dbdfc375)" style="fill: #008000"/>
   </g>
   <g id="patch_71">
    <path d="M 371.138855 250.101671 
L 371.495372 250.101671 
L 371.495372 209.661552 
L 371.138855 209.661552 
z
" clip-path="url(#pb5dbdfc375)" style="fill: #008000"/>
   </g>
   <g id="patch_72">
    <path d="M 385.399535 271.723121 
L 385.756051 271.723121 
L 385.756051 256.508026 
L 385.399535 256.508026 
z
" clip-path="url(#pb5dbdfc375)" style="fill: #008000"/>
   </g>
   <g id="patch_73">
    <path d="M 392.529874 309.360459 
L 392.886391 309.360459 
L 392.886391 270.521929 
L 392.529874 270.521929 
z
" clip-path="url(#pb5dbdfc375)" style="fill: #008000"/>
   </g>
   <g id="patch_74">
    <path d="M 399.660214 324.575554 
L 400.016731 324.575554 
L 400.016731 291.742982 
L 399.660214 291.742982 
z
" clip-path="url(#pb5dbdfc375)" style="fill: #008000"/>
   </g>
   <g id="patch_75">
    <path d="M 428.181572 310.561651 
L 428.538089 310.561651 
L 428.538089 272.924312 
L 428.181572 272.924312 
z
" clip-path="url(#pb5dbdfc375)" style="fill: #008000"/>
   </g>
   <g id="patch_76">
    <path d="M 435.311911 330.581512 
L 435.668428 330.581512 
L 435.668428 300.55172 
L 435.311911 300.55172 
z
" clip-path="url(#pb5dbdfc375)" style="fill: #008000"/>
   </g>
   <g id="patch_77">
    <path d="M 442.442251 343.394223 
L 442.798768 343.394223 
L 442.798768 316.567609 
L 442.442251 316.567609 
z
" clip-path="url(#pb5dbdfc375)" style="fill: #008000"/>
   </g>
   <g id="patch_78">
    <path d="M 456.70293 349.800578 
L 457.059447 349.800578 
L 457.059447 318.569595 
L 456.70293 318.569595 
z
" clip-path="url(#pb5dbdfc375)" style="fill: #008000"/>
   </g>
   <g id="patch_79">
    <path d="M 478.093949 342.593429 
L 478.450465 342.593429 
L 478.450465 309.760857 
L 478.093949 309.760857 
z
" clip-path="url(#pb5dbdfc375)" style="fill: #008000"/>
   </g>
   <g id="patch_80">
    <path d="M 520.875986 286.137421 
L 521.232503 286.137421 
L 521.232503 266.918354 
L 520.875986 266.918354 
z
" clip-path="url(#pb5dbdfc375)" style="fill: #008000"/>
   </g>
   <g id="patch_81">
    <path d="M 528.006325 293.344571 
L 528.362842 293.344571 
L 528.362842 267.318751 
L 528.006325 267.318751 
z
" clip-path="url(#pb5dbdfc375)" style="fill: #008000"/>
   </g>
   <g id="patch_82">
    <path d="M 563.658023 243.294918 
L 564.01454 243.294918 
L 564.01454 222.474263 
L 563.658023 222.474263 
z
" clip-path="url(#pb5dbdfc375)" style="fill: #008000"/>
   </g>
   <g id="patch_83">
    <path d="M 570.788363 258.109615 
L 571.14488 258.109615 
L 571.14488 238.490151 
L 570.788363 238.490151 
z
" clip-path="url(#pb5dbdfc375)" style="fill: #008000"/>
   </g>
   <g id="patch_84">
    <path d="M 592.179381 255.707232 
L 592.535898 255.707232 
L 592.535898 242.494124 
L 592.179381 242.494124 
z
" clip-path="url(#pb5dbdfc375)" style="fill: #008000"/>
   </g>
   <g id="patch_85">
    <path d="M 599.309721 260.511999 
L 599.666238 260.511999 
L 599.666238 246.898493 
L 599.309721 246.898493 
z
" clip-path="url(#pb5dbdfc375)" style="fill: #008000"/>
   </g>
   <g id="patch_86">
    <path d="M 613.5704 256.107629 
L 613.926917 256.107629 
L 613.926917 239.691343 
L 613.5704 239.691343 
z
" clip-path="url(#pb5dbdfc375)" style="fill: #008000"/>
   </g>
   <g id="patch_87">
    <path d="M 620.700739 264.515971 
L 621.057256 264.515971 
L 621.057256 245.697301 
L 620.700739 245.697301 
z
" clip-path="url(#pb5dbdfc375)" style="fill: #008000"/>
   </g>
   <g id="patch_88">
    <path d="M 627.831079 280.932257 
L 628.187596 280.932257 
L 628.187596 256.908424 
L 627.831079 256.908424 
z
" clip-path="url(#pb5dbdfc375)" style="fill: #008000"/>
   </g>
   <g id="patch_89">
    <path d="M 642.091758 292.543776 
L 642.448275 292.543776 
L 642.448275 273.725107 
L 642.091758 273.725107 
z
" clip-path="url(#pb5dbdfc375)" style="fill: #008000"/>
   </g>
   <g id="patch_90">
    <path d="M 649.222097 327.378334 
L 649.578614 327.378334 
L 649.578614 293.744968 
L 649.222097 293.744968 
z
" clip-path="url(#pb5dbdfc375)" style="fill: #008000"/>
   </g>
   <g id="patch_91">
    <path d="M 663.482777 325.776745 
L 663.839294 325.776745 
L 663.839294 308.960062 
L 663.482777 308.960062 
z
" clip-path="url(#pb5dbdfc375)" style="fill: #008000"/>
   </g>
   <g id="patch_92">
    <path d="M 670.613116 329.780717 
L 670.969633 329.780717 
L 670.969633 312.563637 
L 670.613116 312.563637 
z
" clip-path="url(#pb5dbdfc375)" style="fill: #008000"/>
   </g>
   <g id="patch_93">
    <path d="M 677.743456 346.597401 
L 678.099973 346.597401 
L 678.099973 322.573568 
L 677.743456 322.573568 
z
" clip-path="url(#pb5dbdfc375)" style="fill: #008000"/>
   </g>
   <g id="patch_94">
    <path d="M 684.873795 357.408126 
L 685.230312 357.408126 
L 685.230312 330.981909 
L 684.873795 330.981909 
z
" clip-path="url(#pb5dbdfc375)" style="fill: #008000"/>
   </g>
   <g id="patch_95">
    <path d="M 692.004135 409.059367 
L 692.360652 409.059367 
L 692.360652 375.426 
L 692.004135 375.426 
z
" clip-path="url(#pb5dbdfc375)" style="fill: #008000"/>
   </g>
   <g id="patch_96">
    <path d="M 699.134474 419.469695 
L 699.490991 419.469695 
L 699.490991 389.039506 
L 699.134474 389.039506 
z
" clip-path="url(#pb5dbdfc375)" style="fill: #008000"/>
   </g>
   <g id="patch_97">
    <path d="M 706.264814 431.081214 
L 706.621331 431.081214 
L 706.621331 396.647053 
L 706.264814 396.647053 
z
" clip-path="url(#pb5dbdfc375)" style="fill: #008000"/>
   </g>
   <g id="patch_98">
    <path d="M 720.525493 399.850231 
L 720.88201 399.850231 
L 720.88201 354.605345 
L 720.525493 354.605345 
z
" clip-path="url(#pb5dbdfc375)" style="fill: #008000"/>
   </g>
   <g id="patch_99">
    <path d="M 727.655832 441.491542 
L 728.012349 441.491542 
L 728.012349 402.252614 
L 727.655832 402.252614 
z
" clip-path="url(#pb5dbdfc375)" style="fill: #008000"/>
   </g>
   <g id="patch_100">
    <path d="M 734.786172 447.4975 
L 735.142689 447.4975 
L 735.142689 422.672872 
L 734.786172 422.672872 
z
" clip-path="url(#pb5dbdfc375)" style="fill: #008000"/>
   </g>
   <g id="patch_101">
    <path d="M 763.30753 429.479625 
L 763.664047 429.479625 
L 763.664047 396.647053 
L 763.30753 396.647053 
z
" clip-path="url(#pb5dbdfc375)" style="fill: #008000"/>
   </g>
   <g id="patch_102">
    <path d="M 784.698549 443.893925 
L 785.055066 443.893925 
L 785.055066 380.631164 
L 784.698549 380.631164 
z
" clip-path="url(#pb5dbdfc375)" style="fill: #008000"/>
   </g>
   <g id="patch_103">
    <path d="M 83.96443 59.112197 
L 88.242634 59.112197 
L 88.242634 53.106239 
L 83.96443 53.106239 
z
" clip-path="url(#pb5dbdfc375)" style="fill: #ff0000"/>
   </g>
   <g id="patch_104">
    <path d="M 91.09477 53.907033 
L 95.372974 53.907033 
L 95.372974 50.303458 
L 91.09477 50.303458 
z
" clip-path="url(#pb5dbdfc375)" style="fill: #ff0000"/>
   </g>
   <g id="patch_105">
    <path d="M 112.485789 62.315375 
L 116.763992 62.315375 
L 116.763992 54.707828 
L 112.485789 54.707828 
z
" clip-path="url(#pb5dbdfc375)" style="fill: #ff0000"/>
   </g>
   <g id="patch_106">
    <path d="M 126.746468 79.932853 
L 131.024671 79.932853 
L 131.024671 73.926894 
L 126.746468 73.926894 
z
" clip-path="url(#pb5dbdfc375)" style="fill: #ff0000"/>
   </g>
   <g id="patch_107">
    <path d="M 141.007147 77.930866 
L 145.28535 77.930866 
L 145.28535 67.920936 
L 141.007147 67.920936 
z
" clip-path="url(#pb5dbdfc375)" style="fill: #ff0000"/>
   </g>
   <g id="patch_108">
    <path d="M 183.789184 142.394819 
L 188.067388 142.394819 
L 188.067388 127.580122 
L 183.789184 127.580122 
z
" clip-path="url(#pb5dbdfc375)" style="fill: #ff0000"/>
   </g>
   <g id="patch_109">
    <path d="M 205.180203 156.408721 
L 209.458406 156.408721 
L 209.458406 147.199585 
L 205.180203 147.199585 
z
" clip-path="url(#pb5dbdfc375)" style="fill: #ff0000"/>
   </g>
   <g id="patch_110">
    <path d="M 219.440882 178.430569 
L 223.719085 178.430569 
L 223.719085 164.016269 
L 219.440882 164.016269 
z
" clip-path="url(#pb5dbdfc375)" style="fill: #ff0000"/>
   </g>
   <g id="patch_111">
    <path d="M 226.571221 150.402763 
L 230.849425 150.402763 
L 230.849425 133.58608 
L 226.571221 133.58608 
z
" clip-path="url(#pb5dbdfc375)" style="fill: #ff0000"/>
   </g>
   <g id="patch_112">
    <path d="M 233.701561 140.392833 
L 237.979765 140.392833 
L 237.979765 136.789258 
L 233.701561 136.789258 
z
" clip-path="url(#pb5dbdfc375)" style="fill: #ff0000"/>
   </g>
   <g id="patch_113">
    <path d="M 247.96224 130.382902 
L 252.240444 130.382902 
L 252.240444 125.177738 
L 247.96224 125.177738 
z
" clip-path="url(#pb5dbdfc375)" style="fill: #ff0000"/>
   </g>
   <g id="patch_114">
    <path d="M 283.613938 188.040102 
L 287.892141 188.040102 
L 287.892141 167.619844 
L 283.613938 167.619844 
z
" clip-path="url(#pb5dbdfc375)" style="fill: #ff0000"/>
   </g>
   <g id="patch_115">
    <path d="M 305.004956 279.330668 
L 309.28316 279.330668 
L 309.28316 254.105643 
L 305.004956 254.105643 
z
" clip-path="url(#pb5dbdfc375)" style="fill: #ff0000"/>
   </g>
   <g id="patch_116">
    <path d="M 312.135296 257.308821 
L 316.413499 257.308821 
L 316.413499 226.478235 
L 312.135296 226.478235 
z
" clip-path="url(#pb5dbdfc375)" style="fill: #ff0000"/>
   </g>
   <g id="patch_117">
    <path d="M 319.265635 220.472277 
L 323.543839 220.472277 
L 323.543839 207.659566 
L 319.265635 207.659566 
z
" clip-path="url(#pb5dbdfc375)" style="fill: #ff0000"/>
   </g>
   <g id="patch_118">
    <path d="M 326.395975 213.665524 
L 330.674179 213.665524 
L 330.674179 202.454402 
L 326.395975 202.454402 
z
" clip-path="url(#pb5dbdfc375)" style="fill: #ff0000"/>
   </g>
   <g id="patch_119">
    <path d="M 340.656654 239.290946 
L 344.934858 239.290946 
L 344.934858 222.073865 
L 340.656654 222.073865 
z
" clip-path="url(#pb5dbdfc375)" style="fill: #ff0000"/>
   </g>
   <g id="patch_120">
    <path d="M 354.917333 224.476249 
L 359.195537 224.476249 
L 359.195537 212.464332 
L 354.917333 212.464332 
z
" clip-path="url(#pb5dbdfc375)" style="fill: #ff0000"/>
   </g>
   <g id="patch_121">
    <path d="M 376.308352 256.107629 
L 380.586555 256.107629 
L 380.586555 256.107629 
L 376.308352 256.107629 
z
" clip-path="url(#pb5dbdfc375)" style="fill: #ff0000"/>
   </g>
   <g id="patch_122">
    <path d="M 404.82971 306.958076 
L 409.107913 306.958076 
L 409.107913 287.739009 
L 404.82971 287.739009 
z
" clip-path="url(#pb5dbdfc375)" style="fill: #ff0000"/>
   </g>
   <g id="patch_123">
    <path d="M 411.960049 288.139407 
L 416.238253 288.139407 
L 416.238253 279.330668 
L 411.960049 279.330668 
z
" clip-path="url(#pb5dbdfc375)" style="fill: #ff0000"/>
   </g>
   <g id="patch_124">
    <path d="M 419.090389 280.932257 
L 423.368593 280.932257 
L 423.368593 273.725107 
L 419.090389 273.725107 
z
" clip-path="url(#pb5dbdfc375)" style="fill: #ff0000"/>
   </g>
   <g id="patch_125">
    <path d="M 447.611747 344.995812 
L 451.889951 344.995812 
L 451.889951 334.185087 
L 447.611747 334.185087 
z
" clip-path="url(#pb5dbdfc375)" style="fill: #ff0000"/>
   </g>
   <g id="patch_126">
    <path d="M 461.872426 354.605345 
L 466.15063 354.605345 
L 466.15063 342.593429 
L 461.872426 342.593429 
z
" clip-path="url(#pb5dbdfc375)" style="fill: #ff0000"/>
   </g>
   <g id="patch_127">
    <path d="M 469.002766 346.597401 
L 473.280969 346.597401 
L 473.280969 317.368404 
L 469.002766 317.368404 
z
" clip-path="url(#pb5dbdfc375)" style="fill: #ff0000"/>
   </g>
   <g id="patch_128">
    <path d="M 483.263445 310.561651 
L 487.541648 310.561651 
L 487.541648 308.159268 
L 483.263445 308.159268 
z
" clip-path="url(#pb5dbdfc375)" style="fill: #ff0000"/>
   </g>
   <g id="patch_129">
    <path d="M 490.393784 320.571581 
L 494.671988 320.571581 
L 494.671988 315.366418 
L 490.393784 315.366418 
z
" clip-path="url(#pb5dbdfc375)" style="fill: #ff0000"/>
   </g>
   <g id="patch_130">
    <path d="M 497.524124 312.16324 
L 501.802327 312.16324 
L 501.802327 300.151323 
L 497.524124 300.151323 
z
" clip-path="url(#pb5dbdfc375)" style="fill: #ff0000"/>
   </g>
   <g id="patch_131">
    <path d="M 504.654463 289.740996 
L 508.932667 289.740996 
L 508.932667 286.537818 
L 504.654463 286.537818 
z
" clip-path="url(#pb5dbdfc375)" style="fill: #ff0000"/>
   </g>
   <g id="patch_132">
    <path d="M 511.784803 288.940201 
L 516.063007 288.940201 
L 516.063007 274.926298 
L 511.784803 274.926298 
z
" clip-path="url(#pb5dbdfc375)" style="fill: #ff0000"/>
   </g>
   <g id="patch_133">
    <path d="M 533.175821 298.549734 
L 537.454025 298.549734 
L 537.454025 282.533846 
L 533.175821 282.533846 
z
" clip-path="url(#pb5dbdfc375)" style="fill: #ff0000"/>
   </g>
   <g id="patch_134">
    <path d="M 540.306161 262.914382 
L 544.584365 262.914382 
L 544.584365 252.504054 
L 540.306161 252.504054 
z
" clip-path="url(#pb5dbdfc375)" style="fill: #ff0000"/>
   </g>
   <g id="patch_135">
    <path d="M 547.436501 244.49611 
L 551.714704 244.49611 
L 551.714704 238.089754 
L 547.436501 238.089754 
z
" clip-path="url(#pb5dbdfc375)" style="fill: #ff0000"/>
   </g>
   <g id="patch_136">
    <path d="M 554.56684 239.290946 
L 558.845044 239.290946 
L 558.845044 237.689357 
L 554.56684 237.689357 
z
" clip-path="url(#pb5dbdfc375)" style="fill: #ff0000"/>
   </g>
   <g id="patch_137">
    <path d="M 575.957859 248.500082 
L 580.236062 248.500082 
L 580.236062 247.29889 
L 575.957859 247.29889 
z
" clip-path="url(#pb5dbdfc375)" style="fill: #ff0000"/>
   </g>
   <g id="patch_138">
    <path d="M 583.088198 243.294918 
L 587.366402 243.294918 
L 587.366402 240.492138 
L 583.088198 240.492138 
z
" clip-path="url(#pb5dbdfc375)" style="fill: #ff0000"/>
   </g>
   <g id="patch_139">
    <path d="M 604.479217 249.701274 
L 608.757421 249.701274 
L 608.757421 237.28896 
L 604.479217 237.28896 
z
" clip-path="url(#pb5dbdfc375)" style="fill: #ff0000"/>
   </g>
   <g id="patch_140">
    <path d="M 633.000575 276.527887 
L 637.278779 276.527887 
L 637.278779 268.119546 
L 633.000575 268.119546 
z
" clip-path="url(#pb5dbdfc375)" style="fill: #ff0000"/>
   </g>
   <g id="patch_141">
    <path d="M 654.391594 323.374362 
L 658.669797 323.374362 
L 658.669797 321.772773 
L 654.391594 321.772773 
z
" clip-path="url(#pb5dbdfc375)" style="fill: #ff0000"/>
   </g>
   <g id="patch_142">
    <path d="M 711.43431 396.647053 
L 715.712514 396.647053 
L 715.712514 387.03752 
L 711.43431 387.03752 
z
" clip-path="url(#pb5dbdfc375)" style="fill: #ff0000"/>
   </g>
   <g id="patch_143">
    <path d="M 739.955668 435.885981 
L 744.233872 435.885981 
L 744.233872 413.063339 
L 739.955668 413.063339 
z
" clip-path="url(#pb5dbdfc375)" style="fill: #ff0000"/>
   </g>
   <g id="patch_144">
    <path d="M 747.086008 409.860161 
L 751.364211 409.860161 
L 751.364211 408.65897 
L 747.086008 408.65897 
z
" clip-path="url(#pb5dbdfc375)" style="fill: #ff0000"/>
   </g>
   <g id="patch_145">
    <path d="M 754.216347 408.65897 
L 758.494551 408.65897 
L 758.494551 392.242684 
L 754.216347 392.242684 
z
" clip-path="url(#pb5dbdfc375)" style="fill: #ff0000"/>
   </g>
   <g id="patch_146">
    <path d="M 768.477026 421.471681 
L 772.75523 421.471681 
L 772.75523 385.435931 
L 768.477026 385.435931 
z
" clip-path="url(#pb5dbdfc375)" style="fill: #ff0000"/>
   </g>
   <g id="patch_147">
    <path d="M 775.607366 389.8403 
L 779.88557 389.8403 
L 779.88557 380.230767 
L 775.607366 380.230767 
z
" clip-path="url(#pb5dbdfc375)" style="fill: #ff0000"/>
   </g>
   <g id="patch_148">
    <path d="M 76.834091 68.72173 
L 81.112295 68.72173 
L 81.112295 67.920936 
L 76.834091 67.920936 
z
" clip-path="url(#pb5dbdfc375)" style="fill: #008000"/>
   </g>
   <g id="patch_149">
    <path d="M 98.22511 52.305444 
L 102.503313 52.305444 
L 102.503313 48.301472 
L 98.22511 48.301472 
z
" clip-path="url(#pb5dbdfc375)" style="fill: #008000"/>
   </g>
   <g id="patch_150">
    <path d="M 105.355449 61.51458 
L 109.633653 61.51458 
L 109.633653 55.508622 
L 105.355449 55.508622 
z
" clip-path="url(#pb5dbdfc375)" style="fill: #008000"/>
   </g>
   <g id="patch_151">
    <path d="M 119.616128 77.130072 
L 123.894332 77.130072 
L 123.894332 57.510608 
L 119.616128 57.510608 
z
" clip-path="url(#pb5dbdfc375)" style="fill: #008000"/>
   </g>
   <g id="patch_152">
    <path d="M 133.876807 86.739605 
L 138.155011 86.739605 
L 138.155011 80.733647 
L 133.876807 80.733647 
z
" clip-path="url(#pb5dbdfc375)" style="fill: #008000"/>
   </g>
   <g id="patch_153">
    <path d="M 148.137486 69.922922 
L 152.41569 69.922922 
L 152.41569 65.118155 
L 148.137486 65.118155 
z
" clip-path="url(#pb5dbdfc375)" style="fill: #008000"/>
   </g>
   <g id="patch_154">
    <path d="M 155.267826 69.122128 
L 159.54603 69.122128 
L 159.54603 68.321333 
L 155.267826 68.321333 
z
" clip-path="url(#pb5dbdfc375)" style="fill: #008000"/>
   </g>
   <g id="patch_155">
    <path d="M 162.398165 79.932853 
L 166.676369 79.932853 
L 166.676369 73.1261 
L 162.398165 73.1261 
z
" clip-path="url(#pb5dbdfc375)" style="fill: #008000"/>
   </g>
   <g id="patch_156">
    <path d="M 169.528505 99.552316 
L 173.806709 99.552316 
L 173.806709 89.942783 
L 169.528505 89.942783 
z
" clip-path="url(#pb5dbdfc375)" style="fill: #008000"/>
   </g>
   <g id="patch_157">
    <path d="M 176.658844 120.372972 
L 180.937048 120.372972 
L 180.937048 98.351125 
L 176.658844 98.351125 
z
" clip-path="url(#pb5dbdfc375)" style="fill: #008000"/>
   </g>
   <g id="patch_158">
    <path d="M 190.919524 168.420638 
L 195.197727 168.420638 
L 195.197727 134.787272 
L 190.919524 134.787272 
z
" clip-path="url(#pb5dbdfc375)" style="fill: #008000"/>
   </g>
   <g id="patch_159">
    <path d="M 198.049863 180.432555 
L 202.328067 180.432555 
L 202.328067 164.416666 
L 198.049863 164.416666 
z
" clip-path="url(#pb5dbdfc375)" style="fill: #008000"/>
   </g>
   <g id="patch_160">
    <path d="M 212.310542 183.635732 
L 216.588746 183.635732 
L 216.588746 152.004352 
L 212.310542 152.004352 
z
" clip-path="url(#pb5dbdfc375)" style="fill: #008000"/>
   </g>
   <g id="patch_161">
    <path d="M 240.8319 130.783299 
L 245.110104 130.783299 
L 245.110104 110.363041 
L 240.8319 110.363041 
z
" clip-path="url(#pb5dbdfc375)" style="fill: #008000"/>
   </g>
   <g id="patch_162">
    <path d="M 255.092579 123.175752 
L 259.370783 123.175752 
L 259.370783 121.974561 
L 255.092579 121.974561 
z
" clip-path="url(#pb5dbdfc375)" style="fill: #008000"/>
   </g>
   <g id="patch_163">
    <path d="M 262.222919 125.578136 
L 266.501123 125.578136 
L 266.501123 118.370986 
L 262.222919 118.370986 
z
" clip-path="url(#pb5dbdfc375)" style="fill: #008000"/>
   </g>
   <g id="patch_164">
    <path d="M 269.353258 154.406735 
L 273.631462 154.406735 
L 273.631462 132.785286 
L 269.353258 132.785286 
z
" clip-path="url(#pb5dbdfc375)" style="fill: #008000"/>
   </g>
   <g id="patch_165">
    <path d="M 276.483598 172.825007 
L 280.761802 172.825007 
L 280.761802 160.012296 
L 276.483598 160.012296 
z
" clip-path="url(#pb5dbdfc375)" style="fill: #008000"/>
   </g>
   <g id="patch_166">
    <path d="M 290.744277 199.251224 
L 295.022481 199.251224 
L 295.022481 173.225405 
L 290.744277 173.225405 
z
" clip-path="url(#pb5dbdfc375)" style="fill: #008000"/>
   </g>
   <g id="patch_167">
    <path d="M 297.874617 256.508026 
L 302.15282 256.508026 
L 302.15282 221.273071 
L 297.874617 221.273071 
z
" clip-path="url(#pb5dbdfc375)" style="fill: #008000"/>
   </g>
   <g id="patch_168">
    <path d="M 333.526314 240.09174 
L 337.804518 240.09174 
L 337.804518 205.657579 
L 333.526314 205.657579 
z
" clip-path="url(#pb5dbdfc375)" style="fill: #008000"/>
   </g>
   <g id="patch_169">
    <path d="M 347.786993 231.283001 
L 352.065197 231.283001 
L 352.065197 220.071879 
L 347.786993 220.071879 
z
" clip-path="url(#pb5dbdfc375)" style="fill: #008000"/>
   </g>
   <g id="patch_170">
    <path d="M 362.047673 205.257182 
L 366.325876 205.257182 
L 366.325876 200.452416 
L 362.047673 200.452416 
z
" clip-path="url(#pb5dbdfc375)" style="fill: #008000"/>
   </g>
   <g id="patch_171">
    <path d="M 369.178012 244.49611 
L 373.456216 244.49611 
L 373.456216 212.464332 
L 369.178012 212.464332 
z
" clip-path="url(#pb5dbdfc375)" style="fill: #008000"/>
   </g>
   <g id="patch_172">
    <path d="M 383.438691 269.721135 
L 387.716895 269.721135 
L 387.716895 256.508026 
L 383.438691 256.508026 
z
" clip-path="url(#pb5dbdfc375)" style="fill: #008000"/>
   </g>
   <g id="patch_173">
    <path d="M 390.569031 308.159268 
L 394.847234 308.159268 
L 394.847234 277.729079 
L 390.569031 277.729079 
z
" clip-path="url(#pb5dbdfc375)" style="fill: #008000"/>
   </g>
   <g id="patch_174">
    <path d="M 397.69937 308.960062 
L 401.977574 308.960062 
L 401.977574 304.555693 
L 397.69937 304.555693 
z
" clip-path="url(#pb5dbdfc375)" style="fill: #008000"/>
   </g>
   <g id="patch_175">
    <path d="M 426.220728 293.344571 
L 430.498932 293.344571 
L 430.498932 272.924312 
L 426.220728 272.924312 
z
" clip-path="url(#pb5dbdfc375)" style="fill: #008000"/>
   </g>
   <g id="patch_176">
    <path d="M 433.351068 325.776745 
L 437.629272 325.776745 
L 437.629272 300.55172 
L 433.351068 300.55172 
z
" clip-path="url(#pb5dbdfc375)" style="fill: #008000"/>
   </g>
   <g id="patch_177">
    <path d="M 440.481407 335.786676 
L 444.759611 335.786676 
L 444.759611 318.169198 
L 440.481407 318.169198 
z
" clip-path="url(#pb5dbdfc375)" style="fill: #008000"/>
   </g>
   <g id="patch_178">
    <path d="M 454.742087 349.800578 
L 459.02029 349.800578 
L 459.02029 329.38032 
L 454.742087 329.38032 
z
" clip-path="url(#pb5dbdfc375)" style="fill: #008000"/>
   </g>
   <g id="patch_179">
    <path d="M 476.133105 339.790648 
L 480.411309 339.790648 
L 480.411309 314.96602 
L 476.133105 314.96602 
z
" clip-path="url(#pb5dbdfc375)" style="fill: #008000"/>
   </g>
   <g id="patch_180">
    <path d="M 518.915142 274.125504 
L 523.193346 274.125504 
L 523.193346 270.121532 
L 518.915142 270.121532 
z
" clip-path="url(#pb5dbdfc375)" style="fill: #008000"/>
   </g>
   <g id="patch_181">
    <path d="M 526.045482 290.141393 
L 530.323686 290.141393 
L 530.323686 276.12749 
L 526.045482 276.12749 
z
" clip-path="url(#pb5dbdfc375)" style="fill: #008000"/>
   </g>
   <g id="patch_182">
    <path d="M 561.69718 241.292932 
L 565.975383 241.292932 
L 565.975383 227.279029 
L 561.69718 227.279029 
z
" clip-path="url(#pb5dbdfc375)" style="fill: #008000"/>
   </g>
   <g id="patch_183">
    <path d="M 568.827519 254.105643 
L 573.105723 254.105643 
L 573.105723 245.296904 
L 568.827519 245.296904 
z
" clip-path="url(#pb5dbdfc375)" style="fill: #008000"/>
   </g>
   <g id="patch_184">
    <path d="M 590.218538 253.304849 
L 594.496742 253.304849 
L 594.496742 242.494124 
L 590.218538 242.494124 
z
" clip-path="url(#pb5dbdfc375)" style="fill: #008000"/>
   </g>
   <g id="patch_185">
    <path d="M 597.348877 252.103657 
L 601.627081 252.103657 
L 601.627081 248.500082 
L 597.348877 248.500082 
z
" clip-path="url(#pb5dbdfc375)" style="fill: #008000"/>
   </g>
   <g id="patch_186">
    <path d="M 611.609556 254.906437 
L 615.88776 254.906437 
L 615.88776 241.292932 
L 611.609556 241.292932 
z
" clip-path="url(#pb5dbdfc375)" style="fill: #008000"/>
   </g>
   <g id="patch_187">
    <path d="M 618.739896 263.715176 
L 623.0181 263.715176 
L 623.0181 256.107629 
L 618.739896 256.107629 
z
" clip-path="url(#pb5dbdfc375)" style="fill: #008000"/>
   </g>
   <g id="patch_188">
    <path d="M 625.870235 275.727093 
L 630.148439 275.727093 
L 630.148439 260.111601 
L 625.870235 260.111601 
z
" clip-path="url(#pb5dbdfc375)" style="fill: #008000"/>
   </g>
   <g id="patch_189">
    <path d="M 640.130915 292.143379 
L 644.409118 292.143379 
L 644.409118 283.33464 
L 640.130915 283.33464 
z
" clip-path="url(#pb5dbdfc375)" style="fill: #008000"/>
   </g>
   <g id="patch_190">
    <path d="M 647.261254 326.977937 
L 651.539458 326.977937 
L 651.539458 295.346557 
L 647.261254 295.346557 
z
" clip-path="url(#pb5dbdfc375)" style="fill: #008000"/>
   </g>
   <g id="patch_191">
    <path d="M 661.521933 318.969993 
L 665.800137 318.969993 
L 665.800137 316.167212 
L 661.521933 316.167212 
z
" clip-path="url(#pb5dbdfc375)" style="fill: #008000"/>
   </g>
   <g id="patch_192">
    <path d="M 668.652273 323.774759 
L 672.930476 323.774759 
L 672.930476 320.571581 
L 668.652273 320.571581 
z
" clip-path="url(#pb5dbdfc375)" style="fill: #008000"/>
   </g>
   <g id="patch_193">
    <path d="M 675.782612 342.993826 
L 680.060816 342.993826 
L 680.060816 324.575554 
L 675.782612 324.575554 
z
" clip-path="url(#pb5dbdfc375)" style="fill: #008000"/>
   </g>
   <g id="patch_194">
    <path d="M 682.912952 354.204948 
L 687.191156 354.204948 
L 687.191156 338.989854 
L 682.912952 338.989854 
z
" clip-path="url(#pb5dbdfc375)" style="fill: #008000"/>
   </g>
   <g id="patch_195">
    <path d="M 690.043291 400.651025 
L 694.321495 400.651025 
L 694.321495 382.63315 
L 690.043291 382.63315 
z
" clip-path="url(#pb5dbdfc375)" style="fill: #008000"/>
   </g>
   <g id="patch_196">
    <path d="M 697.173631 398.248642 
L 701.451835 398.248642 
L 701.451835 394.24467 
L 697.173631 394.24467 
z
" clip-path="url(#pb5dbdfc375)" style="fill: #008000"/>
   </g>
   <g id="patch_197">
    <path d="M 704.30397 409.059367 
L 708.582174 409.059367 
L 708.582174 402.252614 
L 704.30397 402.252614 
z
" clip-path="url(#pb5dbdfc375)" style="fill: #008000"/>
   </g>
   <g id="patch_198">
    <path d="M 718.56465 399.850231 
L 722.842853 399.850231 
L 722.842853 375.426 
L 718.56465 375.426 
z
" clip-path="url(#pb5dbdfc375)" style="fill: #008000"/>
   </g>
   <g id="patch_199">
    <path d="M 725.694989 437.48757 
L 729.973193 437.48757 
L 729.973193 408.65897 
L 725.694989 408.65897 
z
" clip-path="url(#pb5dbdfc375)" style="fill: #008000"/>
   </g>
   <g id="patch_200">
    <path d="M 732.825329 443.093131 
L 737.103532 443.093131 
L 737.103532 437.887967 
L 732.825329 437.887967 
z
" clip-path="url(#pb5dbdfc375)" style="fill: #008000"/>
   </g>
   <g id="patch_201">
    <path d="M 761.346687 419.469695 
L 765.62489 419.469695 
L 765.62489 400.250628 
L 761.346687 400.250628 
z
" clip-path="url(#pb5dbdfc375)" style="fill: #008000"/>
   </g>
   <g id="patch_202">
    <path d="M 782.737705 425.87605 
L 787.015909 425.87605 
L 787.015909 383.433945 
L 782.737705 383.433945 
z
" clip-path="url(#pb5dbdfc375)" style="fill: #008000"/>
   </g>
   <g id="matplotlib.axis_1">
    <g id="xtick_1">
     <g id="line2d_1">
      <defs>
       <path id="m19bd65ebe2" d="M 0 0 
L 0 3.5 
" style="stroke: #000000; stroke-width: 0.8"/>
      </defs>
      <g>
       <use xlink:href="#m19bd65ebe2" x="78.973193" y="467.6575" style="stroke: #000000; stroke-width: 0.8"/>
      </g>
     </g>
     <g id="text_1">
      <!-- 2025-07-01 -->
      <g transform="translate(66.422047 506.830859) rotate(-45) scale(0.08 -0.08)">
       <defs>
        <path id="SimHei-32" d="M 300 250 
Q 325 625 650 925 
Q 975 1225 1475 1862 
Q 1975 2500 2125 2850 
Q 2275 3200 2237 3450 
Q 2200 3700 2000 3862 
Q 1800 4025 1537 4000 
Q 1275 3975 1037 3800 
Q 800 3625 675 3275 
L 200 3350 
Q 400 3925 712 4187 
Q 1025 4450 1450 4475 
Q 1700 4500 1900 4462 
Q 2100 4425 2312 4287 
Q 2525 4150 2662 3875 
Q 2800 3600 2762 3212 
Q 2725 2825 2375 2287 
Q 2025 1750 1025 600 
L 2825 600 
L 2825 150 
L 300 150 
L 300 250 
z
" transform="scale(0.015625)"/>
        <path id="SimHei-30" d="M 225 2537 
Q 250 3200 412 3587 
Q 575 3975 875 4225 
Q 1175 4475 1612 4475 
Q 2050 4475 2375 4112 
Q 2700 3750 2800 3200 
Q 2900 2650 2862 1937 
Q 2825 1225 2612 775 
Q 2400 325 1975 150 
Q 1550 -25 1125 187 
Q 700 400 525 750 
Q 350 1100 275 1487 
Q 200 1875 225 2537 
z
M 750 2687 
Q 675 2000 800 1462 
Q 925 925 1212 700 
Q 1500 475 1800 612 
Q 2100 750 2237 1162 
Q 2375 1575 2375 2062 
Q 2375 2550 2337 2950 
Q 2300 3350 2112 3675 
Q 1925 4000 1612 4012 
Q 1300 4025 1062 3700 
Q 825 3375 750 2687 
z
" transform="scale(0.015625)"/>
        <path id="SimHei-35" d="M 550 1325 
Q 725 650 1150 575 
Q 1575 500 1837 662 
Q 2100 825 2212 1087 
Q 2325 1350 2312 1675 
Q 2300 2000 2137 2225 
Q 1975 2450 1725 2525 
Q 1475 2600 1162 2525 
Q 850 2450 650 2175 
L 225 2225 
Q 275 2375 700 4375 
L 2675 4375 
L 2675 3925 
L 1075 3925 
Q 950 3250 825 2850 
Q 1200 3025 1525 3012 
Q 1850 3000 2150 2862 
Q 2450 2725 2587 2487 
Q 2725 2250 2787 2012 
Q 2850 1775 2837 1500 
Q 2825 1225 2725 937 
Q 2625 650 2425 462 
Q 2225 275 1937 162 
Q 1650 50 1275 75 
Q 900 100 562 350 
Q 225 600 100 1200 
L 550 1325 
z
" transform="scale(0.015625)"/>
        <path id="SimHei-2d" d="M 2975 2125 
L 125 2125 
L 125 2525 
L 2975 2525 
L 2975 2125 
z
" transform="scale(0.015625)"/>
        <path id="SimHei-37" d="M 850 150 
Q 1300 2050 2425 3925 
L 275 3925 
L 275 4375 
L 2950 4375 
L 2950 3950 
Q 1775 2050 1400 150 
L 850 150 
z
" transform="scale(0.015625)"/>
        <path id="SimHei-31" d="M 1400 3600 
Q 1075 3275 575 2975 
L 575 3450 
Q 1200 3875 1600 4450 
L 1900 4450 
L 1900 150 
L 1400 150 
L 1400 3600 
z
" transform="scale(0.015625)"/>
       </defs>
       <use xlink:href="#SimHei-32"/>
       <use xlink:href="#SimHei-30" transform="translate(50 0)"/>
       <use xlink:href="#SimHei-32" transform="translate(100 0)"/>
       <use xlink:href="#SimHei-35" transform="translate(150 0)"/>
       <use xlink:href="#SimHei-2d" transform="translate(200 0)"/>
       <use xlink:href="#SimHei-30" transform="translate(250 0)"/>
       <use xlink:href="#SimHei-37" transform="translate(300 0)"/>
       <use xlink:href="#SimHei-2d" transform="translate(350 0)"/>
       <use xlink:href="#SimHei-30" transform="translate(400 0)"/>
       <use xlink:href="#SimHei-31" transform="translate(450 0)"/>
      </g>
     </g>
    </g>
    <g id="xtick_2">
     <g id="line2d_2">
      <g>
       <use xlink:href="#m19bd65ebe2" x="114.62489" y="467.6575" style="stroke: #000000; stroke-width: 0.8"/>
      </g>
     </g>
     <g id="text_2">
      <!-- 2025-07-09 -->
      <g transform="translate(102.073745 506.830859) rotate(-45) scale(0.08 -0.08)">
       <defs>
        <path id="SimHei-39" d="M 800 75 
Q 1350 1000 1700 1750 
Q 1075 1650 662 1912 
Q 250 2175 162 2625 
Q 75 3075 175 3437 
Q 275 3800 487 4037 
Q 700 4275 1000 4375 
Q 1300 4475 1537 4475 
Q 1775 4475 2025 4375 
Q 2275 4275 2475 4075 
Q 2675 3875 2750 3662 
Q 2825 3450 2825 3112 
Q 2825 2775 2575 2250 
Q 2325 1725 1350 75 
L 800 75 
z
M 662 2875 
Q 700 2550 937 2337 
Q 1175 2125 1450 2150 
Q 1725 2175 1887 2300 
Q 2050 2425 2200 2725 
Q 2300 3100 2250 3362 
Q 2200 3625 1987 3800 
Q 1775 3975 1525 3975 
Q 1375 4000 1137 3900 
Q 900 3800 762 3500 
Q 625 3200 662 2875 
z
" transform="scale(0.015625)"/>
       </defs>
       <use xlink:href="#SimHei-32"/>
       <use xlink:href="#SimHei-30" transform="translate(50 0)"/>
       <use xlink:href="#SimHei-32" transform="translate(100 0)"/>
       <use xlink:href="#SimHei-35" transform="translate(150 0)"/>
       <use xlink:href="#SimHei-2d" transform="translate(200 0)"/>
       <use xlink:href="#SimHei-30" transform="translate(250 0)"/>
       <use xlink:href="#SimHei-37" transform="translate(300 0)"/>
       <use xlink:href="#SimHei-2d" transform="translate(350 0)"/>
       <use xlink:href="#SimHei-30" transform="translate(400 0)"/>
       <use xlink:href="#SimHei-39" transform="translate(450 0)"/>
      </g>
     </g>
    </g>
    <g id="xtick_3">
     <g id="line2d_3">
      <g>
       <use xlink:href="#m19bd65ebe2" x="150.276588" y="467.6575" style="stroke: #000000; stroke-width: 0.8"/>
      </g>
     </g>
     <g id="text_3">
      <!-- 2025-07-16 -->
      <g transform="translate(137.725443 506.830859) rotate(-45) scale(0.08 -0.08)">
       <defs>
        <path id="SimHei-36" d="M 250 1612 
Q 275 1975 387 2225 
Q 500 2475 725 2850 
L 1750 4450 
L 2325 4450 
L 1275 2800 
Q 1950 2975 2350 2750 
Q 2750 2525 2887 2237 
Q 3025 1950 3037 1612 
Q 3050 1275 2937 950 
Q 2825 625 2537 362 
Q 2250 100 1737 75 
Q 1225 50 862 262 
Q 500 475 362 862 
Q 225 1250 250 1612 
z
M 1025 787 
Q 1250 550 1625 525 
Q 2000 500 2250 775 
Q 2500 1050 2500 1575 
Q 2500 2100 2187 2300 
Q 1875 2500 1487 2450 
Q 1100 2400 925 2075 
Q 750 1750 775 1387 
Q 800 1025 1025 787 
z
" transform="scale(0.015625)"/>
       </defs>
       <use xlink:href="#SimHei-32"/>
       <use xlink:href="#SimHei-30" transform="translate(50 0)"/>
       <use xlink:href="#SimHei-32" transform="translate(100 0)"/>
       <use xlink:href="#SimHei-35" transform="translate(150 0)"/>
       <use xlink:href="#SimHei-2d" transform="translate(200 0)"/>
       <use xlink:href="#SimHei-30" transform="translate(250 0)"/>
       <use xlink:href="#SimHei-37" transform="translate(300 0)"/>
       <use xlink:href="#SimHei-2d" transform="translate(350 0)"/>
       <use xlink:href="#SimHei-31" transform="translate(400 0)"/>
       <use xlink:href="#SimHei-36" transform="translate(450 0)"/>
      </g>
     </g>
    </g>
    <g id="xtick_4">
     <g id="line2d_4">
      <g>
       <use xlink:href="#m19bd65ebe2" x="185.928286" y="467.6575" style="stroke: #000000; stroke-width: 0.8"/>
      </g>
     </g>
     <g id="text_4">
      <!-- 2025-07-23 -->
      <g transform="translate(173.377141 506.830859) rotate(-45) scale(0.08 -0.08)">
       <defs>
        <path id="SimHei-33" d="M 250 1225 
L 700 1300 
Q 800 975 1025 762 
Q 1250 550 1587 562 
Q 1925 575 2125 837 
Q 2325 1100 2300 1437 
Q 2275 1775 2037 1962 
Q 1800 2150 1275 2225 
L 1275 2550 
Q 1800 2600 2037 2825 
Q 2275 3050 2250 3412 
Q 2225 3775 1925 3937 
Q 1625 4100 1287 3975 
Q 950 3850 750 3275 
L 300 3350 
Q 450 3800 712 4100 
Q 975 4400 1425 4450 
Q 1875 4500 2212 4337 
Q 2550 4175 2687 3837 
Q 2825 3500 2725 3100 
Q 2625 2700 2150 2400 
Q 2500 2250 2687 1950 
Q 2875 1650 2812 1162 
Q 2750 675 2375 375 
Q 2000 75 1525 87 
Q 1050 100 700 387 
Q 350 675 250 1225 
z
" transform="scale(0.015625)"/>
       </defs>
       <use xlink:href="#SimHei-32"/>
       <use xlink:href="#SimHei-30" transform="translate(50 0)"/>
       <use xlink:href="#SimHei-32" transform="translate(100 0)"/>
       <use xlink:href="#SimHei-35" transform="translate(150 0)"/>
       <use xlink:href="#SimHei-2d" transform="translate(200 0)"/>
       <use xlink:href="#SimHei-30" transform="translate(250 0)"/>
       <use xlink:href="#SimHei-37" transform="translate(300 0)"/>
       <use xlink:href="#SimHei-2d" transform="translate(350 0)"/>
       <use xlink:href="#SimHei-32" transform="translate(400 0)"/>
       <use xlink:href="#SimHei-33" transform="translate(450 0)"/>
      </g>
     </g>
    </g>
    <g id="xtick_5">
     <g id="line2d_5">
      <g>
       <use xlink:href="#m19bd65ebe2" x="221.579984" y="467.6575" style="stroke: #000000; stroke-width: 0.8"/>
      </g>
     </g>
     <g id="text_5">
      <!-- 2025-07-30 -->
      <g transform="translate(209.028838 506.830859) rotate(-45) scale(0.08 -0.08)">
       <use xlink:href="#SimHei-32"/>
       <use xlink:href="#SimHei-30" transform="translate(50 0)"/>
       <use xlink:href="#SimHei-32" transform="translate(100 0)"/>
       <use xlink:href="#SimHei-35" transform="translate(150 0)"/>
       <use xlink:href="#SimHei-2d" transform="translate(200 0)"/>
       <use xlink:href="#SimHei-30" transform="translate(250 0)"/>
       <use xlink:href="#SimHei-37" transform="translate(300 0)"/>
       <use xlink:href="#SimHei-2d" transform="translate(350 0)"/>
       <use xlink:href="#SimHei-33" transform="translate(400 0)"/>
       <use xlink:href="#SimHei-30" transform="translate(450 0)"/>
      </g>
     </g>
    </g>
    <g id="xtick_6">
     <g id="line2d_6">
      <g>
       <use xlink:href="#m19bd65ebe2" x="257.231681" y="467.6575" style="stroke: #000000; stroke-width: 0.8"/>
      </g>
     </g>
     <g id="text_6">
      <!-- 2025-08-07 -->
      <g transform="translate(244.680536 506.830859) rotate(-45) scale(0.08 -0.08)">
       <defs>
        <path id="SimHei-38" d="M 175 1375 
Q 175 1675 325 1962 
Q 475 2250 825 2425 
Q 525 2600 425 2812 
Q 325 3025 312 3300 
Q 300 3575 387 3775 
Q 475 3975 650 4150 
Q 825 4325 1037 4387 
Q 1250 4450 1500 4450 
Q 1750 4450 1950 4400 
Q 2150 4350 2375 4187 
Q 2600 4025 2700 3725 
Q 2800 3425 2687 3025 
Q 2575 2625 2100 2400 
Q 2525 2275 2700 2012 
Q 2875 1750 2875 1375 
Q 2875 1000 2762 775 
Q 2650 550 2512 400 
Q 2375 250 2137 162 
Q 1900 75 1537 75 
Q 1175 75 912 162 
Q 650 250 475 425 
Q 300 600 237 837 
Q 175 1075 175 1375 
z
M 687 1400 
Q 675 1100 787 875 
Q 900 650 1200 587 
Q 1500 525 1825 600 
Q 2150 675 2275 950 
Q 2400 1225 2362 1500 
Q 2325 1775 2050 1962 
Q 1775 2150 1450 2125 
Q 1125 2100 912 1900 
Q 700 1700 687 1400 
z
M 775 3350 
Q 775 3100 950 2875 
Q 1125 2650 1500 2650 
Q 1875 2650 2062 2875 
Q 2250 3100 2237 3412 
Q 2225 3725 2012 3875 
Q 1800 4025 1437 4000 
Q 1075 3975 925 3787 
Q 775 3600 775 3350 
z
" transform="scale(0.015625)"/>
       </defs>
       <use xlink:href="#SimHei-32"/>
       <use xlink:href="#SimHei-30" transform="translate(50 0)"/>
       <use xlink:href="#SimHei-32" transform="translate(100 0)"/>
       <use xlink:href="#SimHei-35" transform="translate(150 0)"/>
       <use xlink:href="#SimHei-2d" transform="translate(200 0)"/>
       <use xlink:href="#SimHei-30" transform="translate(250 0)"/>
       <use xlink:href="#SimHei-38" transform="translate(300 0)"/>
       <use xlink:href="#SimHei-2d" transform="translate(350 0)"/>
       <use xlink:href="#SimHei-30" transform="translate(400 0)"/>
       <use xlink:href="#SimHei-37" transform="translate(450 0)"/>
      </g>
     </g>
    </g>
    <g id="xtick_7">
     <g id="line2d_7">
      <g>
       <use xlink:href="#m19bd65ebe2" x="292.883379" y="467.6575" style="stroke: #000000; stroke-width: 0.8"/>
      </g>
     </g>
     <g id="text_7">
      <!-- 2025-08-15 -->
      <g transform="translate(280.332234 506.830859) rotate(-45) scale(0.08 -0.08)">
       <use xlink:href="#SimHei-32"/>
       <use xlink:href="#SimHei-30" transform="translate(50 0)"/>
       <use xlink:href="#SimHei-32" transform="translate(100 0)"/>
       <use xlink:href="#SimHei-35" transform="translate(150 0)"/>
       <use xlink:href="#SimHei-2d" transform="translate(200 0)"/>
       <use xlink:href="#SimHei-30" transform="translate(250 0)"/>
       <use xlink:href="#SimHei-38" transform="translate(300 0)"/>
       <use xlink:href="#SimHei-2d" transform="translate(350 0)"/>
       <use xlink:href="#SimHei-31" transform="translate(400 0)"/>
       <use xlink:href="#SimHei-35" transform="translate(450 0)"/>
      </g>
     </g>
    </g>
    <g id="xtick_8">
     <g id="line2d_8">
      <g>
       <use xlink:href="#m19bd65ebe2" x="328.535077" y="467.6575" style="stroke: #000000; stroke-width: 0.8"/>
      </g>
     </g>
     <g id="text_8">
      <!-- 2025-08-27 -->
      <g transform="translate(315.983931 506.830859) rotate(-45) scale(0.08 -0.08)">
       <use xlink:href="#SimHei-32"/>
       <use xlink:href="#SimHei-30" transform="translate(50 0)"/>
       <use xlink:href="#SimHei-32" transform="translate(100 0)"/>
       <use xlink:href="#SimHei-35" transform="translate(150 0)"/>
       <use xlink:href="#SimHei-2d" transform="translate(200 0)"/>
       <use xlink:href="#SimHei-30" transform="translate(250 0)"/>
       <use xlink:href="#SimHei-38" transform="translate(300 0)"/>
       <use xlink:href="#SimHei-2d" transform="translate(350 0)"/>
       <use xlink:href="#SimHei-32" transform="translate(400 0)"/>
       <use xlink:href="#SimHei-37" transform="translate(450 0)"/>
      </g>
     </g>
    </g>
    <g id="xtick_9">
     <g id="line2d_9">
      <g>
       <use xlink:href="#m19bd65ebe2" x="364.186774" y="467.6575" style="stroke: #000000; stroke-width: 0.8"/>
      </g>
     </g>
     <g id="text_9">
      <!-- 2025-09-04 -->
      <g transform="translate(351.635629 506.830859) rotate(-45) scale(0.08 -0.08)">
       <defs>
        <path id="SimHei-34" d="M 2000 1100 
L 75 1100 
L 75 1525 
L 2100 4450 
L 2475 4450 
L 2475 1525 
L 3075 1525 
L 3075 1100 
L 2475 1100 
L 2475 150 
L 2000 150 
L 2000 1100 
z
M 2000 1525 
L 2000 3500 
L 600 1525 
L 2000 1525 
z
" transform="scale(0.015625)"/>
       </defs>
       <use xlink:href="#SimHei-32"/>
       <use xlink:href="#SimHei-30" transform="translate(50 0)"/>
       <use xlink:href="#SimHei-32" transform="translate(100 0)"/>
       <use xlink:href="#SimHei-35" transform="translate(150 0)"/>
       <use xlink:href="#SimHei-2d" transform="translate(200 0)"/>
       <use xlink:href="#SimHei-30" transform="translate(250 0)"/>
       <use xlink:href="#SimHei-39" transform="translate(300 0)"/>
       <use xlink:href="#SimHei-2d" transform="translate(350 0)"/>
       <use xlink:href="#SimHei-30" transform="translate(400 0)"/>
       <use xlink:href="#SimHei-34" transform="translate(450 0)"/>
      </g>
     </g>
    </g>
    <g id="xtick_10">
     <g id="line2d_10">
      <g>
       <use xlink:href="#m19bd65ebe2" x="399.838472" y="467.6575" style="stroke: #000000; stroke-width: 0.8"/>
      </g>
     </g>
     <g id="text_10">
      <!-- 2025-09-11 -->
      <g transform="translate(387.287327 506.830859) rotate(-45) scale(0.08 -0.08)">
       <use xlink:href="#SimHei-32"/>
       <use xlink:href="#SimHei-30" transform="translate(50 0)"/>
       <use xlink:href="#SimHei-32" transform="translate(100 0)"/>
       <use xlink:href="#SimHei-35" transform="translate(150 0)"/>
       <use xlink:href="#SimHei-2d" transform="translate(200 0)"/>
       <use xlink:href="#SimHei-30" transform="translate(250 0)"/>
       <use xlink:href="#SimHei-39" transform="translate(300 0)"/>
       <use xlink:href="#SimHei-2d" transform="translate(350 0)"/>
       <use xlink:href="#SimHei-31" transform="translate(400 0)"/>
       <use xlink:href="#SimHei-31" transform="translate(450 0)"/>
      </g>
     </g>
    </g>
    <g id="xtick_11">
     <g id="line2d_11">
      <g>
       <use xlink:href="#m19bd65ebe2" x="435.49017" y="467.6575" style="stroke: #000000; stroke-width: 0.8"/>
      </g>
     </g>
     <g id="text_11">
      <!-- 2025-09-23 -->
      <g transform="translate(422.939024 506.830859) rotate(-45) scale(0.08 -0.08)">
       <use xlink:href="#SimHei-32"/>
       <use xlink:href="#SimHei-30" transform="translate(50 0)"/>
       <use xlink:href="#SimHei-32" transform="translate(100 0)"/>
       <use xlink:href="#SimHei-35" transform="translate(150 0)"/>
       <use xlink:href="#SimHei-2d" transform="translate(200 0)"/>
       <use xlink:href="#SimHei-30" transform="translate(250 0)"/>
       <use xlink:href="#SimHei-39" transform="translate(300 0)"/>
       <use xlink:href="#SimHei-2d" transform="translate(350 0)"/>
       <use xlink:href="#SimHei-32" transform="translate(400 0)"/>
       <use xlink:href="#SimHei-33" transform="translate(450 0)"/>
      </g>
     </g>
    </g>
    <g id="xtick_12">
     <g id="line2d_12">
      <g>
       <use xlink:href="#m19bd65ebe2" x="471.141867" y="467.6575" style="stroke: #000000; stroke-width: 0.8"/>
      </g>
     </g>
     <g id="text_12">
      <!-- 2025-10-09 -->
      <g transform="translate(458.590722 506.830859) rotate(-45) scale(0.08 -0.08)">
       <use xlink:href="#SimHei-32"/>
       <use xlink:href="#SimHei-30" transform="translate(50 0)"/>
       <use xlink:href="#SimHei-32" transform="translate(100 0)"/>
       <use xlink:href="#SimHei-35" transform="translate(150 0)"/>
       <use xlink:href="#SimHei-2d" transform="translate(200 0)"/>
       <use xlink:href="#SimHei-31" transform="translate(250 0)"/>
       <use xlink:href="#SimHei-30" transform="translate(300 0)"/>
       <use xlink:href="#SimHei-2d" transform="translate(350 0)"/>
       <use xlink:href="#SimHei-30" transform="translate(400 0)"/>
       <use xlink:href="#SimHei-39" transform="translate(450 0)"/>
      </g>
     </g>
    </g>
    <g id="xtick_13">
     <g id="line2d_13">
      <g>
       <use xlink:href="#m19bd65ebe2" x="506.793565" y="467.6575" style="stroke: #000000; stroke-width: 0.8"/>
      </g>
     </g>
     <g id="text_13">
      <!-- 2025-10-20 -->
      <g transform="translate(494.24242 506.830859) rotate(-45) scale(0.08 -0.08)">
       <use xlink:href="#SimHei-32"/>
       <use xlink:href="#SimHei-30" transform="translate(50 0)"/>
       <use xlink:href="#SimHei-32" transform="translate(100 0)"/>
       <use xlink:href="#SimHei-35" transform="translate(150 0)"/>
       <use xlink:href="#SimHei-2d" transform="translate(200 0)"/>
       <use xlink:href="#SimHei-31" transform="translate(250 0)"/>
       <use xlink:href="#SimHei-30" transform="translate(300 0)"/>
       <use xlink:href="#SimHei-2d" transform="translate(350 0)"/>
       <use xlink:href="#SimHei-32" transform="translate(400 0)"/>
       <use xlink:href="#SimHei-30" transform="translate(450 0)"/>
      </g>
     </g>
    </g>
    <g id="xtick_14">
     <g id="line2d_14">
      <g>
       <use xlink:href="#m19bd65ebe2" x="542.445263" y="467.6575" style="stroke: #000000; stroke-width: 0.8"/>
      </g>
     </g>
     <g id="text_14">
      <!-- 2025-10-30 -->
      <g transform="translate(529.894118 506.830859) rotate(-45) scale(0.08 -0.08)">
       <use xlink:href="#SimHei-32"/>
       <use xlink:href="#SimHei-30" transform="translate(50 0)"/>
       <use xlink:href="#SimHei-32" transform="translate(100 0)"/>
       <use xlink:href="#SimHei-35" transform="translate(150 0)"/>
       <use xlink:href="#SimHei-2d" transform="translate(200 0)"/>
       <use xlink:href="#SimHei-31" transform="translate(250 0)"/>
       <use xlink:href="#SimHei-30" transform="translate(300 0)"/>
       <use xlink:href="#SimHei-2d" transform="translate(350 0)"/>
       <use xlink:href="#SimHei-33" transform="translate(400 0)"/>
       <use xlink:href="#SimHei-30" transform="translate(450 0)"/>
      </g>
     </g>
    </g>
    <g id="xtick_15">
     <g id="line2d_15">
      <g>
       <use xlink:href="#m19bd65ebe2" x="578.096961" y="467.6575" style="stroke: #000000; stroke-width: 0.8"/>
      </g>
     </g>
     <g id="text_15">
      <!-- 2025-11-10 -->
      <g transform="translate(565.545815 506.830859) rotate(-45) scale(0.08 -0.08)">
       <use xlink:href="#SimHei-32"/>
       <use xlink:href="#SimHei-30" transform="translate(50 0)"/>
       <use xlink:href="#SimHei-32" transform="translate(100 0)"/>
       <use xlink:href="#SimHei-35" transform="translate(150 0)"/>
       <use xlink:href="#SimHei-2d" transform="translate(200 0)"/>
       <use xlink:href="#SimHei-31" transform="translate(250 0)"/>
       <use xlink:href="#SimHei-31" transform="translate(300 0)"/>
       <use xlink:href="#SimHei-2d" transform="translate(350 0)"/>
       <use xlink:href="#SimHei-31" transform="translate(400 0)"/>
       <use xlink:href="#SimHei-30" transform="translate(450 0)"/>
      </g>
     </g>
    </g>
    <g id="xtick_16">
     <g id="line2d_16">
      <g>
       <use xlink:href="#m19bd65ebe2" x="613.748658" y="467.6575" style="stroke: #000000; stroke-width: 0.8"/>
      </g>
     </g>
     <g id="text_16">
      <!-- 2025-11-19 -->
      <g transform="translate(601.197513 506.830859) rotate(-45) scale(0.08 -0.08)">
       <use xlink:href="#SimHei-32"/>
       <use xlink:href="#SimHei-30" transform="translate(50 0)"/>
       <use xlink:href="#SimHei-32" transform="translate(100 0)"/>
       <use xlink:href="#SimHei-35" transform="translate(150 0)"/>
       <use xlink:href="#SimHei-2d" transform="translate(200 0)"/>
       <use xlink:href="#SimHei-31" transform="translate(250 0)"/>
       <use xlink:href="#SimHei-31" transform="translate(300 0)"/>
       <use xlink:href="#SimHei-2d" transform="translate(350 0)"/>
       <use xlink:href="#SimHei-31" transform="translate(400 0)"/>
       <use xlink:href="#SimHei-39" transform="translate(450 0)"/>
      </g>
     </g>
    </g>
    <g id="xtick_17">
     <g id="line2d_17">
      <g>
       <use xlink:href="#m19bd65ebe2" x="649.400356" y="467.6575" style="stroke: #000000; stroke-width: 0.8"/>
      </g>
     </g>
     <g id="text_17">
      <!-- 2025-11-26 -->
      <g transform="translate(636.849211 506.830859) rotate(-45) scale(0.08 -0.08)">
       <use xlink:href="#SimHei-32"/>
       <use xlink:href="#SimHei-30" transform="translate(50 0)"/>
       <use xlink:href="#SimHei-32" transform="translate(100 0)"/>
       <use xlink:href="#SimHei-35" transform="translate(150 0)"/>
       <use xlink:href="#SimHei-2d" transform="translate(200 0)"/>
       <use xlink:href="#SimHei-31" transform="translate(250 0)"/>
       <use xlink:href="#SimHei-31" transform="translate(300 0)"/>
       <use xlink:href="#SimHei-2d" transform="translate(350 0)"/>
       <use xlink:href="#SimHei-32" transform="translate(400 0)"/>
       <use xlink:href="#SimHei-36" transform="translate(450 0)"/>
      </g>
     </g>
    </g>
    <g id="xtick_18">
     <g id="line2d_18">
      <g>
       <use xlink:href="#m19bd65ebe2" x="685.052054" y="467.6575" style="stroke: #000000; stroke-width: 0.8"/>
      </g>
     </g>
     <g id="text_18">
      <!-- 2025-12-03 -->
      <g transform="translate(672.500908 506.830859) rotate(-45) scale(0.08 -0.08)">
       <use xlink:href="#SimHei-32"/>
       <use xlink:href="#SimHei-30" transform="translate(50 0)"/>
       <use xlink:href="#SimHei-32" transform="translate(100 0)"/>
       <use xlink:href="#SimHei-35" transform="translate(150 0)"/>
       <use xlink:href="#SimHei-2d" transform="translate(200 0)"/>
       <use xlink:href="#SimHei-31" transform="translate(250 0)"/>
       <use xlink:href="#SimHei-32" transform="translate(300 0)"/>
       <use xlink:href="#SimHei-2d" transform="translate(350 0)"/>
       <use xlink:href="#SimHei-30" transform="translate(400 0)"/>
       <use xlink:href="#SimHei-33" transform="translate(450 0)"/>
      </g>
     </g>
    </g>
    <g id="xtick_19">
     <g id="line2d_19">
      <g>
       <use xlink:href="#m19bd65ebe2" x="720.703751" y="467.6575" style="stroke: #000000; stroke-width: 0.8"/>
      </g>
     </g>
     <g id="text_19">
      <!-- 2025-12-12 -->
      <g transform="translate(708.152606 506.830859) rotate(-45) scale(0.08 -0.08)">
       <use xlink:href="#SimHei-32"/>
       <use xlink:href="#SimHei-30" transform="translate(50 0)"/>
       <use xlink:href="#SimHei-32" transform="translate(100 0)"/>
       <use xlink:href="#SimHei-35" transform="translate(150 0)"/>
       <use xlink:href="#SimHei-2d" transform="translate(200 0)"/>
       <use xlink:href="#SimHei-31" transform="translate(250 0)"/>
       <use xlink:href="#SimHei-32" transform="translate(300 0)"/>
       <use xlink:href="#SimHei-2d" transform="translate(350 0)"/>
       <use xlink:href="#SimHei-31" transform="translate(400 0)"/>
       <use xlink:href="#SimHei-32" transform="translate(450 0)"/>
      </g>
     </g>
    </g>
    <g id="xtick_20">
     <g id="line2d_20">
      <g>
       <use xlink:href="#m19bd65ebe2" x="756.355449" y="467.6575" style="stroke: #000000; stroke-width: 0.8"/>
      </g>
     </g>
     <g id="text_20">
      <!-- 2025-12-19 -->
      <g transform="translate(743.804304 506.830859) rotate(-45) scale(0.08 -0.08)">
       <use xlink:href="#SimHei-32"/>
       <use xlink:href="#SimHei-30" transform="translate(50 0)"/>
       <use xlink:href="#SimHei-32" transform="translate(100 0)"/>
       <use xlink:href="#SimHei-35" transform="translate(150 0)"/>
       <use xlink:href="#SimHei-2d" transform="translate(200 0)"/>
       <use xlink:href="#SimHei-31" transform="translate(250 0)"/>
       <use xlink:href="#SimHei-32" transform="translate(300 0)"/>
       <use xlink:href="#SimHei-2d" transform="translate(350 0)"/>
       <use xlink:href="#SimHei-31" transform="translate(400 0)"/>
       <use xlink:href="#SimHei-39" transform="translate(450 0)"/>
      </g>
     </g>
    </g>
   </g>
   <g id="matplotlib.axis_2">
    <g id="ytick_1">
     <g id="line2d_21">
      <defs>
       <path id="m3218074681" d="M 0 0 
L -3.5 0 
" style="stroke: #000000; stroke-width: 0.8"/>
      </defs>
      <g>
       <use xlink:href="#m3218074681" x="41.325" y="418.6689" style="stroke: #000000; stroke-width: 0.8"/>
      </g>
     </g>
     <g id="text_21">
      <!-- 112 -->
      <g transform="translate(19.325 422.1064) scale(0.1 -0.1)">
       <use xlink:href="#SimHei-31"/>
       <use xlink:href="#SimHei-31" transform="translate(50 0)"/>
       <use xlink:href="#SimHei-32" transform="translate(100 0)"/>
      </g>
     </g>
    </g>
    <g id="ytick_2">
     <g id="line2d_22">
      <g>
       <use xlink:href="#m3218074681" x="41.325" y="338.589456" style="stroke: #000000; stroke-width: 0.8"/>
      </g>
     </g>
     <g id="text_22">
      <!-- 114 -->
      <g transform="translate(19.325 342.026956) scale(0.1 -0.1)">
       <use xlink:href="#SimHei-31"/>
       <use xlink:href="#SimHei-31" transform="translate(50 0)"/>
       <use xlink:href="#SimHei-34" transform="translate(100 0)"/>
      </g>
     </g>
    </g>
    <g id="ytick_3">
     <g id="line2d_23">
      <g>
       <use xlink:href="#m3218074681" x="41.325" y="258.510012" style="stroke: #000000; stroke-width: 0.8"/>
      </g>
     </g>
     <g id="text_23">
      <!-- 116 -->
      <g transform="translate(19.325 261.947512) scale(0.1 -0.1)">
       <use xlink:href="#SimHei-31"/>
       <use xlink:href="#SimHei-31" transform="translate(50 0)"/>
       <use xlink:href="#SimHei-36" transform="translate(100 0)"/>
      </g>
     </g>
    </g>
    <g id="ytick_4">
     <g id="line2d_24">
      <g>
       <use xlink:href="#m3218074681" x="41.325" y="178.430569" style="stroke: #000000; stroke-width: 0.8"/>
      </g>
     </g>
     <g id="text_24">
      <!-- 118 -->
      <g transform="translate(19.325 181.868069) scale(0.1 -0.1)">
       <use xlink:href="#SimHei-31"/>
       <use xlink:href="#SimHei-31" transform="translate(50 0)"/>
       <use xlink:href="#SimHei-38" transform="translate(100 0)"/>
      </g>
     </g>
    </g>
    <g id="ytick_5">
     <g id="line2d_25">
      <g>
       <use xlink:href="#m3218074681" x="41.325" y="98.351125" style="stroke: #000000; stroke-width: 0.8"/>
      </g>
     </g>
     <g id="text_25">
      <!-- 120 -->
      <g transform="translate(19.325 101.788625) scale(0.1 -0.1)">
       <use xlink:href="#SimHei-31"/>
       <use xlink:href="#SimHei-32" transform="translate(50 0)"/>
       <use xlink:href="#SimHei-30" transform="translate(100 0)"/>
      </g>
     </g>
    </g>
    <g id="text_26">
     <!-- Price -->
     <g transform="translate(14.075 258.3975) rotate(-90) scale(0.1 -0.1)">
      <defs>
       <path id="SimHei-50" d="M 2950 3100 
Q 2950 2500 2600 2150 
Q 2250 1800 1625 1800 
L 900 1800 
L 900 125 
L 325 125 
L 325 4400 
L 1625 4400 
Q 2250 4400 2600 4050 
Q 2950 3700 2950 3100 
z
M 2375 3100 
Q 2375 3575 2150 3750 
Q 1925 3925 1475 3925 
L 900 3925 
L 900 2275 
L 1475 2275 
Q 1925 2275 2150 2450 
Q 2375 2625 2375 3100 
z
" transform="scale(0.015625)"/>
       <path id="SimHei-72" d="M 2500 2425 
Q 2025 2500 1700 2287 
Q 1375 2075 1150 1550 
L 1150 125 
L 650 125 
L 650 2925 
L 1150 2925 
L 1150 2200 
Q 1375 2600 1712 2787 
Q 2050 2975 2500 2975 
L 2500 2425 
z
" transform="scale(0.015625)"/>
       <path id="SimHei-69" d="M 1800 3725 
L 1300 3725 
L 1300 4375 
L 1800 4375 
L 1800 3725 
z
M 1800 125 
L 1300 125 
L 1300 2925 
L 1800 2925 
L 1800 125 
z
" transform="scale(0.015625)"/>
       <path id="SimHei-63" d="M 2850 1250 
Q 2850 725 2487 400 
Q 2125 75 1575 75 
Q 1025 75 625 462 
Q 225 850 225 1525 
Q 225 2200 625 2587 
Q 1025 2975 1575 2975 
Q 2125 2975 2450 2687 
Q 2775 2400 2775 2000 
L 2225 2000 
Q 2200 2300 2012 2412 
Q 1825 2525 1575 2525 
Q 1275 2525 1025 2287 
Q 775 2050 775 1525 
Q 775 1000 1025 762 
Q 1275 525 1575 525 
Q 1900 525 2100 700 
Q 2300 875 2300 1250 
L 2850 1250 
z
" transform="scale(0.015625)"/>
       <path id="SimHei-65" d="M 2850 1075 
Q 2800 625 2450 350 
Q 2100 75 1625 75 
Q 1025 75 637 462 
Q 250 850 250 1525 
Q 250 2200 637 2587 
Q 1025 2975 1625 2975 
Q 2150 2975 2487 2637 
Q 2825 2300 2825 1525 
L 800 1525 
Q 800 975 1037 750 
Q 1275 525 1625 525 
Q 1900 525 2075 662 
Q 2250 800 2300 1075 
L 2850 1075 
z
M 2250 1925 
Q 2200 2275 2025 2412 
Q 1850 2550 1575 2550 
Q 1325 2550 1125 2412 
Q 925 2275 825 1925 
L 2250 1925 
z
" transform="scale(0.015625)"/>
      </defs>
      <use xlink:href="#SimHei-50"/>
      <use xlink:href="#SimHei-72" transform="translate(50 0)"/>
      <use xlink:href="#SimHei-69" transform="translate(100 0)"/>
      <use xlink:href="#SimHei-63" transform="translate(150 0)"/>
      <use xlink:href="#SimHei-65" transform="translate(200 0)"/>
     </g>
    </g>
   </g>
   <g id="line2d_26">
    <path d="M 307.144058 286.137421 
L 364.186774 194.846855 
" clip-path="url(#pb5dbdfc375)" style="fill: none; stroke: #800080; stroke-opacity: 0.8; stroke-width: 1.5; stroke-linecap: square"/>
   </g>
   <g id="line2d_27">
    <path d="M 464.011528 365.015673 
L 506.793565 263.314779 
" clip-path="url(#pb5dbdfc375)" style="fill: none; stroke: #800080; stroke-opacity: 0.8; stroke-width: 1.5; stroke-linecap: square"/>
   </g>
   <g id="line2d_28">
    <path d="M 535.314923 314.165226 
L 606.618319 231.283001 
" clip-path="url(#pb5dbdfc375)" style="fill: none; stroke: #800080; stroke-opacity: 0.8; stroke-width: 1.5; stroke-linecap: square"/>
   </g>
   <g id="line2d_29">
    <path d="M 734.96443 447.4975 
L 777.746468 374.625206 
" clip-path="url(#pb5dbdfc375)" style="fill: none; stroke: #800080; stroke-opacity: 0.8; stroke-width: 1.5; stroke-linecap: square"/>
   </g>
   <g id="patch_203">
    <path d="M 41.325 467.6575 
L 41.325 24.1375 
" style="fill: none; stroke: #000000; stroke-width: 0.8; stroke-linejoin: miter; stroke-linecap: square"/>
   </g>
   <g id="patch_204">
    <path d="M 822.525 467.6575 
L 822.525 24.1375 
" style="fill: none; stroke: #000000; stroke-width: 0.8; stroke-linejoin: miter; stroke-linecap: square"/>
   </g>
   <g id="patch_205">
    <path d="M 41.325 467.6575 
L 822.525 467.6575 
" style="fill: none; stroke: #000000; stroke-width: 0.8; stroke-linejoin: miter; stroke-linecap: square"/>
   </g>
   <g id="patch_206">
    <path d="M 41.325 24.1375 
L 822.525 24.1375 
" style="fill: none; stroke: #000000; stroke-width: 0.8; stroke-linejoin: miter; stroke-linecap: square"/>
   </g>
   <g id="text_27">
    <!-- Bx -->
    <g style="fill: #808080" transform="translate(81.112295 100.767922) scale(0.08 -0.08)">
     <defs>
      <path id="SimHei-42" d="M 2950 1400 
Q 2950 675 2550 400 
Q 2150 125 1525 125 
L 275 125 
L 275 4400 
L 1575 4400 
Q 2200 4400 2512 4075 
Q 2825 3750 2825 3300 
Q 2825 2850 2612 2637 
Q 2400 2425 2175 2350 
Q 2475 2275 2712 2037 
Q 2950 1800 2950 1400 
z
M 2250 3300 
Q 2250 3625 2062 3775 
Q 1875 3925 1600 3925 
L 850 3925 
L 850 2600 
L 1575 2600 
Q 1850 2600 2050 2762 
Q 2250 2925 2250 3300 
z
M 2350 1400 
Q 2350 1800 2087 1962 
Q 1825 2125 1500 2125 
L 850 2125 
L 850 600 
L 1425 600 
Q 1875 600 2112 775 
Q 2350 950 2350 1400 
z
" transform="scale(0.015625)"/>
      <path id="SimHei-78" d="M 2875 125 
L 2275 125 
L 1550 1200 
L 825 125 
L 225 125 
L 1250 1550 
L 300 2925 
L 900 2925 
L 1550 1875 
L 2200 2925 
L 2800 2925 
L 1850 1550 
L 2875 125 
z
" transform="scale(0.015625)"/>
     </defs>
     <use xlink:href="#SimHei-42"/>
     <use xlink:href="#SimHei-78" transform="translate(50 0)"/>
    </g>
   </g>
   <g id="text_28">
    <!-- Tx -->
    <g style="fill: #808080" transform="translate(102.503313 39.43868) scale(0.08 -0.08)">
     <defs>
      <path id="SimHei-54" d="M 2850 3925 
L 1850 3925 
L 1850 125 
L 1275 125 
L 1275 3925 
L 275 3925 
L 275 4400 
L 2850 4400 
L 2850 3925 
z
" transform="scale(0.015625)"/>
     </defs>
     <use xlink:href="#SimHei-54"/>
     <use xlink:href="#SimHei-78" transform="translate(50 0)"/>
    </g>
   </g>
   <g id="text_29">
    <!-- Bx -->
    <g style="fill: #808080" transform="translate(138.155011 105.563079) scale(0.08 -0.08)">
     <use xlink:href="#SimHei-42"/>
     <use xlink:href="#SimHei-78" transform="translate(50 0)"/>
    </g>
   </g>
   <g id="text_30">
    <!-- Bx -->
    <g style="fill: #808080" transform="translate(202.328067 193.873889) scale(0.08 -0.08)">
     <use xlink:href="#SimHei-42"/>
     <use xlink:href="#SimHei-78" transform="translate(50 0)"/>
    </g>
   </g>
   <g id="text_31">
    <!-- Bx -->
    <g style="fill: #808080" transform="translate(223.719085 202.265414) scale(0.08 -0.08)">
     <use xlink:href="#SimHei-42"/>
     <use xlink:href="#SimHei-78" transform="translate(50 0)"/>
    </g>
   </g>
   <g id="text_32">
    <!-- Tx -->
    <g style="fill: #808080" transform="translate(259.370783 106.371882) scale(0.08 -0.08)">
     <use xlink:href="#SimHei-54"/>
     <use xlink:href="#SimHei-78" transform="translate(50 0)"/>
    </g>
   </g>
   <g id="text_33">
    <!-- B 115.31 -->
    <g style="fill: #0000ff" transform="translate(309.28316 295.371381) scale(0.08 -0.08)">
     <defs>
      <path id="SimHei-20" transform="scale(0.015625)"/>
      <path id="SimHei-2e" d="M 1075 125 
L 500 125 
L 500 675 
L 1075 675 
L 1075 125 
z
" transform="scale(0.015625)"/>
     </defs>
     <use xlink:href="#SimHei-42"/>
     <use xlink:href="#SimHei-20" transform="translate(50 0)"/>
     <use xlink:href="#SimHei-31" transform="translate(100 0)"/>
     <use xlink:href="#SimHei-31" transform="translate(150 0)"/>
     <use xlink:href="#SimHei-35" transform="translate(200 0)"/>
     <use xlink:href="#SimHei-2e" transform="translate(250 0)"/>
     <use xlink:href="#SimHei-33" transform="translate(300 0)"/>
     <use xlink:href="#SimHei-31" transform="translate(350 0)"/>
    </g>
   </g>
   <g id="text_34">
    <!-- T 117.59 -->
    <g transform="translate(366.325876 190.138584) scale(0.08 -0.08)">
     <use xlink:href="#SimHei-54"/>
     <use xlink:href="#SimHei-20" transform="translate(50 0)"/>
     <use xlink:href="#SimHei-31" transform="translate(100 0)"/>
     <use xlink:href="#SimHei-31" transform="translate(150 0)"/>
     <use xlink:href="#SimHei-37" transform="translate(200 0)"/>
     <use xlink:href="#SimHei-2e" transform="translate(250 0)"/>
     <use xlink:href="#SimHei-35" transform="translate(300 0)"/>
     <use xlink:href="#SimHei-39" transform="translate(350 0)"/>
    </g>
   </g>
   <g id="text_35">
    <!-- Bx -->
    <g style="fill: #808080" transform="translate(401.977574 333.732638) scale(0.08 -0.08)">
     <use xlink:href="#SimHei-42"/>
     <use xlink:href="#SimHei-78" transform="translate(50 0)"/>
    </g>
   </g>
   <g id="text_36">
    <!-- Tx -->
    <g style="fill: #808080" transform="translate(423.368593 257.071786) scale(0.08 -0.08)">
     <use xlink:href="#SimHei-54"/>
     <use xlink:href="#SimHei-78" transform="translate(50 0)"/>
    </g>
   </g>
   <g id="text_37">
    <!-- Bx -->
    <g style="fill: #808080" transform="translate(451.889951 373.692281) scale(0.08 -0.08)">
     <use xlink:href="#SimHei-42"/>
     <use xlink:href="#SimHei-78" transform="translate(50 0)"/>
    </g>
   </g>
   <g id="text_38">
    <!-- B 113.34 -->
    <g style="fill: #0000ff" transform="translate(466.15063 374.091877) scale(0.08 -0.08)">
     <use xlink:href="#SimHei-42"/>
     <use xlink:href="#SimHei-20" transform="translate(50 0)"/>
     <use xlink:href="#SimHei-31" transform="translate(100 0)"/>
     <use xlink:href="#SimHei-31" transform="translate(150 0)"/>
     <use xlink:href="#SimHei-33" transform="translate(200 0)"/>
     <use xlink:href="#SimHei-2e" transform="translate(250 0)"/>
     <use xlink:href="#SimHei-33" transform="translate(300 0)"/>
     <use xlink:href="#SimHei-34" transform="translate(350 0)"/>
    </g>
   </g>
   <g id="text_39">
    <!-- T 115.88 -->
    <g transform="translate(508.932667 258.674976) scale(0.08 -0.08)">
     <use xlink:href="#SimHei-54"/>
     <use xlink:href="#SimHei-20" transform="translate(50 0)"/>
     <use xlink:href="#SimHei-31" transform="translate(100 0)"/>
     <use xlink:href="#SimHei-31" transform="translate(150 0)"/>
     <use xlink:href="#SimHei-35" transform="translate(200 0)"/>
     <use xlink:href="#SimHei-2e" transform="translate(250 0)"/>
     <use xlink:href="#SimHei-38" transform="translate(300 0)"/>
     <use xlink:href="#SimHei-38" transform="translate(350 0)"/>
    </g>
   </g>
   <g id="text_40">
    <!-- Bx -->
    <g style="fill: #808080" transform="translate(516.063007 305.361292) scale(0.08 -0.08)">
     <use xlink:href="#SimHei-42"/>
     <use xlink:href="#SimHei-78" transform="translate(50 0)"/>
    </g>
   </g>
   <g id="text_41">
    <!-- B 114.61 -->
    <g style="fill: #0000ff" transform="translate(537.454025 323.343131) scale(0.08 -0.08)">
     <use xlink:href="#SimHei-42"/>
     <use xlink:href="#SimHei-20" transform="translate(50 0)"/>
     <use xlink:href="#SimHei-31" transform="translate(100 0)"/>
     <use xlink:href="#SimHei-31" transform="translate(150 0)"/>
     <use xlink:href="#SimHei-34" transform="translate(200 0)"/>
     <use xlink:href="#SimHei-2e" transform="translate(250 0)"/>
     <use xlink:href="#SimHei-36" transform="translate(300 0)"/>
     <use xlink:href="#SimHei-31" transform="translate(350 0)"/>
    </g>
   </g>
   <g id="text_42">
    <!-- Tx -->
    <g style="fill: #808080" transform="translate(551.714704 224.206381) scale(0.08 -0.08)">
     <use xlink:href="#SimHei-54"/>
     <use xlink:href="#SimHei-78" transform="translate(50 0)"/>
    </g>
   </g>
   <g id="text_43">
    <!-- Tx -->
    <g style="fill: #808080" transform="translate(565.975383 217.793619) scale(0.08 -0.08)">
     <use xlink:href="#SimHei-54"/>
     <use xlink:href="#SimHei-78" transform="translate(50 0)"/>
    </g>
   </g>
   <g id="text_44">
    <!-- Bx -->
    <g style="fill: #808080" transform="translate(580.236062 276.590349) scale(0.08 -0.08)">
     <use xlink:href="#SimHei-42"/>
     <use xlink:href="#SimHei-78" transform="translate(50 0)"/>
    </g>
   </g>
   <g id="text_45">
    <!-- Bx -->
    <g style="fill: #808080" transform="translate(601.627081 269.79721) scale(0.08 -0.08)">
     <use xlink:href="#SimHei-42"/>
     <use xlink:href="#SimHei-78" transform="translate(50 0)"/>
    </g>
   </g>
   <g id="text_46">
    <!-- T 116.68 -->
    <g transform="translate(608.757421 226.611167) scale(0.08 -0.08)">
     <use xlink:href="#SimHei-54"/>
     <use xlink:href="#SimHei-20" transform="translate(50 0)"/>
     <use xlink:href="#SimHei-31" transform="translate(100 0)"/>
     <use xlink:href="#SimHei-31" transform="translate(150 0)"/>
     <use xlink:href="#SimHei-36" transform="translate(200 0)"/>
     <use xlink:href="#SimHei-2e" transform="translate(250 0)"/>
     <use xlink:href="#SimHei-36" transform="translate(300 0)"/>
     <use xlink:href="#SimHei-38" transform="translate(350 0)"/>
    </g>
   </g>
   <g id="text_47">
    <!-- Bx -->
    <g style="fill: #808080" transform="translate(658.669797 337.329006) scale(0.08 -0.08)">
     <use xlink:href="#SimHei-42"/>
     <use xlink:href="#SimHei-78" transform="translate(50 0)"/>
    </g>
   </g>
   <g id="text_48">
    <!-- Tx -->
    <g style="fill: #808080" transform="translate(665.800137 304.365904) scale(0.08 -0.08)">
     <use xlink:href="#SimHei-54"/>
     <use xlink:href="#SimHei-78" transform="translate(50 0)"/>
    </g>
   </g>
   <g id="text_49">
    <!-- Bx -->
    <g style="fill: #808080" transform="translate(708.582174 440.025287) scale(0.08 -0.08)">
     <use xlink:href="#SimHei-42"/>
     <use xlink:href="#SimHei-78" transform="translate(50 0)"/>
    </g>
   </g>
   <g id="text_50">
    <!-- B 111.28 -->
    <g style="fill: #0000ff" transform="translate(737.103532 456.408741) scale(0.08 -0.08)">
     <use xlink:href="#SimHei-42"/>
     <use xlink:href="#SimHei-20" transform="translate(50 0)"/>
     <use xlink:href="#SimHei-31" transform="translate(100 0)"/>
     <use xlink:href="#SimHei-31" transform="translate(150 0)"/>
     <use xlink:href="#SimHei-31" transform="translate(200 0)"/>
     <use xlink:href="#SimHei-2e" transform="translate(250 0)"/>
     <use xlink:href="#SimHei-32" transform="translate(300 0)"/>
     <use xlink:href="#SimHei-38" transform="translate(350 0)"/>
    </g>
   </g>
   <g id="text_51">
    <!-- T 113.10 -->
    <g transform="translate(779.88557 370.096714) scale(0.08 -0.08)">
     <use xlink:href="#SimHei-54"/>
     <use xlink:href="#SimHei-20" transform="translate(50 0)"/>
     <use xlink:href="#SimHei-31" transform="translate(100 0)"/>
     <use xlink:href="#SimHei-31" transform="translate(150 0)"/>
     <use xlink:href="#SimHei-33" transform="translate(200 0)"/>
     <use xlink:href="#SimHei-2e" transform="translate(250 0)"/>
     <use xlink:href="#SimHei-31" transform="translate(300 0)"/>
     <use xlink:href="#SimHei-30" transform="translate(350 0)"/>
    </g>
   </g>
   <g id="text_52">
    <!-- Stroke Identification (Bill Williams / Chan Theory) -->
    <g transform="translate(253.425 18.1375) scale(0.14 -0.14)">
     <defs>
      <path id="SimHei-53" d="M 2900 1325 
Q 2900 750 2537 412 
Q 2175 75 1550 75 
Q 925 75 575 425 
Q 225 775 225 1300 
L 225 1475 
L 800 1475 
L 800 1325 
Q 800 950 1025 750 
Q 1250 550 1550 550 
Q 1950 550 2137 762 
Q 2325 975 2325 1275 
Q 2325 1525 2100 1737 
Q 1875 1950 1450 2125 
Q 850 2350 587 2625 
Q 325 2900 325 3275 
Q 325 3800 687 4125 
Q 1050 4450 1550 4450 
Q 2200 4450 2487 4062 
Q 2775 3675 2775 3225 
L 2200 3225 
Q 2225 3500 2050 3725 
Q 1875 3950 1550 3950 
Q 1250 3950 1075 3787 
Q 900 3625 900 3350 
Q 900 3125 1037 2962 
Q 1175 2800 1750 2575 
Q 2300 2350 2600 2037 
Q 2900 1725 2900 1325 
z
" transform="scale(0.015625)"/>
      <path id="SimHei-74" d="M 2750 200 
Q 2625 150 2462 112 
Q 2300 75 2025 75 
Q 1575 75 1300 325 
Q 1025 575 1025 1025 
L 1025 2525 
L 175 2525 
L 175 2925 
L 1025 2925 
L 1025 3900 
L 1525 3900 
L 1525 2925 
L 2550 2925 
L 2550 2525 
L 1525 2525 
L 1525 1000 
Q 1525 800 1625 662 
Q 1725 525 2000 525 
Q 2275 525 2450 575 
Q 2625 625 2750 700 
L 2750 200 
z
" transform="scale(0.015625)"/>
      <path id="SimHei-6f" d="M 2925 1525 
Q 2925 875 2525 475 
Q 2125 75 1575 75 
Q 1025 75 625 475 
Q 225 875 225 1525 
Q 225 2175 625 2575 
Q 1025 2975 1575 2975 
Q 2125 2975 2525 2575 
Q 2925 2175 2925 1525 
z
M 2375 1525 
Q 2375 2025 2125 2275 
Q 1875 2525 1575 2525 
Q 1275 2525 1025 2275 
Q 775 2025 775 1525 
Q 775 1025 1025 775 
Q 1275 525 1575 525 
Q 1875 525 2125 775 
Q 2375 1025 2375 1525 
z
" transform="scale(0.015625)"/>
      <path id="SimHei-6b" d="M 2925 125 
L 2350 125 
L 1450 1650 
L 875 1100 
L 875 125 
L 375 125 
L 375 4400 
L 875 4400 
L 875 1675 
L 2125 2925 
L 2750 2925 
L 1775 1975 
L 2925 125 
z
" transform="scale(0.015625)"/>
      <path id="SimHei-49" d="M 1850 125 
L 1275 125 
L 1275 4400 
L 1850 4400 
L 1850 125 
z
" transform="scale(0.015625)"/>
      <path id="SimHei-64" d="M 2750 125 
L 2250 125 
L 2250 500 
Q 2100 275 1900 175 
Q 1700 75 1425 75 
Q 925 75 575 437 
Q 225 800 225 1525 
Q 225 2250 575 2625 
Q 925 3000 1425 3000 
Q 1700 3000 1900 2887 
Q 2100 2775 2250 2550 
L 2250 4400 
L 2750 4400 
L 2750 125 
z
M 2250 1525 
Q 2250 2000 2037 2275 
Q 1825 2550 1525 2550 
Q 1150 2550 962 2275 
Q 775 2000 775 1525 
Q 775 1050 962 787 
Q 1150 525 1525 525 
Q 1825 525 2037 787 
Q 2250 1050 2250 1525 
z
" transform="scale(0.015625)"/>
      <path id="SimHei-6e" d="M 2800 125 
L 2300 125 
L 2300 1925 
Q 2300 2225 2150 2400 
Q 2000 2575 1750 2575 
Q 1425 2575 1137 2237 
Q 850 1900 850 1400 
L 850 125 
L 350 125 
L 350 2925 
L 850 2925 
L 850 2400 
Q 1050 2675 1287 2825 
Q 1525 2975 1900 2975 
Q 2350 2975 2575 2725 
Q 2800 2475 2800 2100 
L 2800 125 
z
" transform="scale(0.015625)"/>
      <path id="SimHei-66" d="M 2850 3825 
Q 2725 3900 2550 3950 
Q 2375 4000 2100 4000 
Q 1825 4000 1725 3862 
Q 1625 3725 1625 3525 
L 1625 2925 
L 2650 2925 
L 2650 2525 
L 1625 2525 
L 1625 125 
L 1125 125 
L 1125 2525 
L 275 2525 
L 275 2925 
L 1125 2925 
L 1125 3500 
Q 1125 3950 1400 4200 
Q 1675 4450 2125 4450 
Q 2400 4450 2562 4412 
Q 2725 4375 2850 4325 
L 2850 3825 
z
" transform="scale(0.015625)"/>
      <path id="SimHei-61" d="M 2875 125 
L 2275 125 
Q 2225 175 2200 262 
Q 2175 350 2175 475 
Q 2000 275 1750 175 
Q 1500 75 1225 75 
Q 825 75 550 275 
Q 275 475 275 850 
Q 275 1225 525 1450 
Q 775 1675 1300 1750 
Q 1650 1800 1912 1875 
Q 2175 1950 2175 2075 
Q 2175 2225 2062 2375 
Q 1950 2525 1575 2525 
Q 1275 2525 1137 2412 
Q 1000 2300 950 2100 
L 400 2100 
Q 450 2500 762 2737 
Q 1075 2975 1575 2975 
Q 2125 2975 2400 2725 
Q 2675 2475 2675 2025 
L 2675 650 
Q 2675 500 2725 375 
Q 2775 250 2875 125 
z
M 2175 1050 
L 2175 1550 
Q 2025 1500 1887 1462 
Q 1750 1425 1425 1375 
Q 1050 1325 937 1200 
Q 825 1075 825 900 
Q 825 750 937 637 
Q 1050 525 1275 525 
Q 1500 525 1762 650 
Q 2025 775 2175 1050 
z
" transform="scale(0.015625)"/>
      <path id="SimHei-28" d="M 2975 -200 
L 2700 -475 
Q 2075 125 1762 775 
Q 1450 1425 1450 2250 
Q 1450 3075 1762 3725 
Q 2075 4375 2700 5000 
L 2975 4725 
Q 2400 4175 2112 3587 
Q 1825 3000 1825 2250 
Q 1825 1500 2112 912 
Q 2400 325 2975 -200 
z
" transform="scale(0.015625)"/>
      <path id="SimHei-6c" d="M 1825 125 
L 1325 125 
L 1325 4400 
L 1825 4400 
L 1825 125 
z
" transform="scale(0.015625)"/>
      <path id="SimHei-57" d="M 3075 4400 
L 2525 75 
L 2025 75 
L 1575 3275 
L 1525 3275 
L 1075 75 
L 575 75 
L 25 4400 
L 575 4400 
L 850 1675 
L 900 1675 
L 1275 4400 
L 1825 4400 
L 2200 1675 
L 2250 1675 
L 2525 4400 
L 3075 4400 
z
" transform="scale(0.015625)"/>
      <path id="SimHei-6d" d="M 3050 125 
L 2550 125 
L 2550 2150 
Q 2550 2300 2500 2400 
Q 2450 2500 2300 2500 
Q 2125 2500 1975 2312 
Q 1825 2125 1825 1825 
L 1825 125 
L 1325 125 
L 1325 2150 
Q 1325 2300 1275 2400 
Q 1225 2500 1075 2500 
Q 900 2500 750 2312 
Q 600 2125 600 1825 
L 600 125 
L 100 125 
L 100 2925 
L 600 2925 
L 600 2550 
Q 725 2750 900 2862 
Q 1075 2975 1275 2975 
Q 1475 2975 1612 2862 
Q 1750 2750 1800 2550 
Q 1925 2750 2087 2862 
Q 2250 2975 2450 2975 
Q 2750 2975 2900 2812 
Q 3050 2650 3050 2350 
L 3050 125 
z
" transform="scale(0.015625)"/>
      <path id="SimHei-73" d="M 2750 900 
Q 2750 500 2437 287 
Q 2125 75 1650 75 
Q 1050 75 725 312 
Q 400 550 400 1000 
L 900 1000 
Q 900 700 1112 600 
Q 1325 500 1625 500 
Q 1925 500 2075 612 
Q 2225 725 2225 900 
Q 2225 1025 2100 1150 
Q 1975 1275 1475 1350 
Q 900 1425 687 1637 
Q 475 1850 475 2200 
Q 475 2500 762 2737 
Q 1050 2975 1600 2975 
Q 2100 2975 2387 2750 
Q 2675 2525 2675 2150 
L 2175 2150 
Q 2175 2375 2012 2462 
Q 1850 2550 1600 2550 
Q 1275 2550 1137 2437 
Q 1000 2325 1000 2175 
Q 1000 2000 1125 1900 
Q 1250 1800 1650 1750 
Q 2300 1650 2525 1437 
Q 2750 1225 2750 900 
z
" transform="scale(0.015625)"/>
      <path id="SimHei-2f" d="M 3000 4550 
L 350 -175 
L 100 -25 
L 2750 4700 
L 3000 4550 
z
" transform="scale(0.015625)"/>
      <path id="SimHei-43" d="M 2975 1825 
Q 2950 875 2575 475 
Q 2200 75 1675 75 
Q 1075 75 650 562 
Q 225 1050 225 2125 
Q 225 3300 637 3875 
Q 1050 4450 1700 4450 
Q 2250 4450 2612 4037 
Q 2975 3625 2950 2875 
L 2400 2875 
Q 2400 3425 2225 3700 
Q 2050 3975 1700 3975 
Q 1300 3975 1062 3562 
Q 825 3150 825 2175 
Q 825 1275 1062 912 
Q 1300 550 1675 550 
Q 1950 550 2175 812 
Q 2400 1075 2400 1825 
L 2975 1825 
z
" transform="scale(0.015625)"/>
      <path id="SimHei-68" d="M 2800 125 
L 2300 125 
L 2300 1925 
Q 2300 2225 2150 2400 
Q 2000 2575 1750 2575 
Q 1425 2575 1137 2237 
Q 850 1900 850 1400 
L 850 125 
L 350 125 
L 350 4400 
L 850 4400 
L 850 2400 
Q 1050 2675 1287 2825 
Q 1525 2975 1900 2975 
Q 2350 2975 2575 2725 
Q 2800 2475 2800 2100 
L 2800 125 
z
" transform="scale(0.015625)"/>
      <path id="SimHei-79" d="M 2900 2925 
L 1750 -100 
Q 1650 -450 1450 -625 
Q 1250 -800 950 -800 
Q 825 -800 712 -787 
Q 600 -775 500 -725 
L 500 -225 
Q 600 -275 700 -300 
Q 800 -325 875 -325 
Q 1075 -325 1150 -262 
Q 1225 -200 1300 25 
L 200 2925 
L 750 2925 
L 1550 725 
L 1575 725 
L 2350 2925 
L 2900 2925 
z
" transform="scale(0.015625)"/>
      <path id="SimHei-29" d="M 1675 2250 
Q 1675 1425 1362 775 
Q 1050 125 425 -475 
L 150 -200 
Q 725 325 1012 912 
Q 1300 1500 1300 2250 
Q 1300 3000 1012 3587 
Q 725 4175 150 4725 
L 425 5000 
Q 1050 4375 1362 3725 
Q 1675 3075 1675 2250 
z
" transform="scale(0.015625)"/>
     </defs>
     <use xlink:href="#SimHei-53"/>
     <use xlink:href="#SimHei-74" transform="translate(50 0)"/>
     <use xlink:href="#SimHei-72" transform="translate(100 0)"/>
     <use xlink:href="#SimHei-6f" transform="translate(150 0)"/>
     <use xlink:href="#SimHei-6b" transform="translate(200 0)"/>
     <use xlink:href="#SimHei-65" transform="translate(250 0)"/>
     <use xlink:href="#SimHei-20" transform="translate(300 0)"/>
     <use xlink:href="#SimHei-49" transform="translate(350 0)"/>
     <use xlink:href="#SimHei-64" transform="translate(400 0)"/>
     <use xlink:href="#SimHei-65" transform="translate(450 0)"/>
     <use xlink:href="#SimHei-6e" transform="translate(500 0)"/>
     <use xlink:href="#SimHei-74" transform="translate(550 0)"/>
     <use xlink:href="#SimHei-69" transform="translate(600 0)"/>
     <use xlink:href="#SimHei-66" transform="translate(650 0)"/>
     <use xlink:href="#SimHei-69" transform="translate(700 0)"/>
     <use xlink:href="#SimHei-63" transform="translate(750 0)"/>
     <use xlink:href="#SimHei-61" transform="translate(800 0)"/>
     <use xlink:href="#SimHei-74" transform="translate(850 0)"/>
     <use xlink:href="#SimHei-69" transform="translate(900 0)"/>
     <use xlink:href="#SimHei-6f" transform="translate(950 0)"/>
     <use xlink:href="#SimHei-6e" transform="translate(1000 0)"/>
     <use xlink:href="#SimHei-20" transform="translate(1050 0)"/>
     <use xlink:href="#SimHei-28" transform="translate(1100 0)"/>
     <use xlink:href="#SimHei-42" transform="translate(1150 0)"/>
     <use xlink:href="#SimHei-69" transform="translate(1200 0)"/>
     <use xlink:href="#SimHei-6c" transform="translate(1250 0)"/>
     <use xlink:href="#SimHei-6c" transform="translate(1300 0)"/>
     <use xlink:href="#SimHei-20" transform="translate(1350 0)"/>
     <use xlink:href="#SimHei-57" transform="translate(1400 0)"/>
     <use xlink:href="#SimHei-69" transform="translate(1450 0)"/>
     <use xlink:href="#SimHei-6c" transform="translate(1500 0)"/>
     <use xlink:href="#SimHei-6c" transform="translate(1550 0)"/>
     <use xlink:href="#SimHei-69" transform="translate(1600 0)"/>
     <use xlink:href="#SimHei-61" transform="translate(1650 0)"/>
     <use xlink:href="#SimHei-6d" transform="translate(1700 0)"/>
     <use xlink:href="#SimHei-73" transform="translate(1750 0)"/>
     <use xlink:href="#SimHei-20" transform="translate(1800 0)"/>
     <use xlink:href="#SimHei-2f" transform="translate(1850 0)"/>
     <use xlink:href="#SimHei-20" transform="translate(1900 0)"/>
     <use xlink:href="#SimHei-43" transform="translate(1950 0)"/>
     <use xlink:href="#SimHei-68" transform="translate(2000 0)"/>
     <use xlink:href="#SimHei-61" transform="translate(2050 0)"/>
     <use xlink:href="#SimHei-6e" transform="translate(2100 0)"/>
     <use xlink:href="#SimHei-20" transform="translate(2150 0)"/>
     <use xlink:href="#SimHei-54" transform="translate(2200 0)"/>
     <use xlink:href="#SimHei-68" transform="translate(2250 0)"/>
     <use xlink:href="#SimHei-65" transform="translate(2300 0)"/>
     <use xlink:href="#SimHei-6f" transform="translate(2350 0)"/>
     <use xlink:href="#SimHei-72" transform="translate(2400 0)"/>
     <use xlink:href="#SimHei-79" transform="translate(2450 0)"/>
     <use xlink:href="#SimHei-29" transform="translate(2500 0)"/>
    </g>
   </g>
  </g>
 </g>
 <defs>
  <clipPath id="pb5dbdfc375">
   <rect x="41.325" y="24.1375" width="781.2" height="443.52"/>
  </clipPath>
 </defs>
</svg>
