<?xml version="1.0" encoding="utf-8" standalone="no"?>
<!DOCTYPE svg PUBLIC "-//W3C//DTD SVG 1.1//EN"
  "http://www.w3.org/Graphics/SVG/1.1/DTD/svg11.dtd">
<svg xmlns:xlink="http://www.w3.org/1999/xlink" width="839.725pt" height="514.737965pt" viewBox="0 0 839.725 514.737965" xmlns="http://www.w3.org/2000/svg" version="1.1">
 <metadata>
  <rdf:RDF xmlns:dc="http://purl.org/dc/elements/1.1/" xmlns:cc="http://creativecommons.org/ns#" xmlns:rdf="http://www.w3.org/1999/02/22-rdf-syntax-ns#">
   <cc:Work>
    <dc:type rdf:resource="http://purl.org/dc/dcmitype/StillImage"/>
    <dc:date>2025-12-30T13:19:05.713514</dc:date>
    <dc:format>image/svg+xml</dc:format>
    <dc:creator>
     <cc:Agent>
      <dc:title>Matplotlib v3.10.8, https://matplotlib.org/</dc:title>
     </cc:Agent>
    </dc:creator>
   </cc:Work>
  </rdf:RDF>
 </metadata>
 <defs>
  <style type="text/css">*{stroke-linejoin: round; stroke-linecap: butt}</style>
 </defs>
 <g id="figure_1">
  <g id="patch_1">
   <path d="M 0 514.737965 
L 839.725 514.737965 
L 839.725 0 
L 0 0 
z
" style="fill: #ffffff"/>
  </g>
  <g id="axes_1">
   <g id="patch_2">
    <path d="M 51.325 467.6575 
L 832.525 467.6575 
L 832.525 24.1375 
L 51.325 24.1375 
z
" style="fill: #ffffff"/>
   </g>
   <g id="patch_3">
    <path d="M 95.925274 439.428509 
L 96.281791 439.428509 
L 96.281791 418.124522 
L 95.925274 418.124522 
z
" clip-path="url(#p85c80b43b1)" style="fill: #ff0000"/>
   </g>
   <g id="patch_4">
    <path d="M 103.055613 426.597012 
L 103.41213 426.597012 
L 103.41213 404.416595 
L 103.055613 404.416595 
z
" clip-path="url(#p85c80b43b1)" style="fill: #ff0000"/>
   </g>
   <g id="patch_5">
    <path d="M 110.185953 408.251353 
L 110.54247 408.251353 
L 110.54247 392.514859 
L 110.185953 392.514859 
z
" clip-path="url(#p85c80b43b1)" style="fill: #ff0000"/>
   </g>
   <g id="patch_6">
    <path d="M 124.446632 420.028316 
L 124.803149 420.028316 
L 124.803149 400.240724 
L 124.446632 400.240724 
z
" clip-path="url(#p85c80b43b1)" style="fill: #ff0000"/>
   </g>
   <g id="patch_7">
    <path d="M 131.576972 391.0479 
L 131.933488 391.0479 
L 131.933488 374.955018 
L 131.576972 374.955018 
z
" clip-path="url(#p85c80b43b1)" style="fill: #ff0000"/>
   </g>
   <g id="patch_8">
    <path d="M 145.837651 391.292284 
L 146.194168 391.292284 
L 146.194168 373.011024 
L 145.837651 373.011024 
z
" clip-path="url(#p85c80b43b1)" style="fill: #ff0000"/>
   </g>
   <g id="patch_9">
    <path d="M 160.09833 397.165672 
L 160.454847 397.165672 
L 160.454847 379.018241 
L 160.09833 379.018241 
z
" clip-path="url(#p85c80b43b1)" style="fill: #ff0000"/>
   </g>
   <g id="patch_10">
    <path d="M 174.359009 397.760357 
L 174.715526 397.760357 
L 174.715526 371.680782 
L 174.359009 371.680782 
z
" clip-path="url(#p85c80b43b1)" style="fill: #ff0000"/>
   </g>
   <g id="patch_11">
    <path d="M 181.489348 373.999146 
L 181.845865 373.999146 
L 181.845865 353.953957 
L 181.489348 353.953957 
z
" clip-path="url(#p85c80b43b1)" style="fill: #ff0000"/>
   </g>
   <g id="patch_12">
    <path d="M 195.750027 352.121605 
L 196.106544 352.121605 
L 196.106544 337.88138 
L 195.750027 337.88138 
z
" clip-path="url(#p85c80b43b1)" style="fill: #ff0000"/>
   </g>
   <g id="patch_13">
    <path d="M 217.141046 344.971305 
L 217.497563 344.971305 
L 217.497563 331.657823 
L 217.141046 331.657823 
z
" clip-path="url(#p85c80b43b1)" style="fill: #ff0000"/>
   </g>
   <g id="patch_14">
    <path d="M 245.662404 367.147698 
L 246.018921 367.147698 
L 246.018921 345.268145 
L 245.662404 345.268145 
z
" clip-path="url(#p85c80b43b1)" style="fill: #ff0000"/>
   </g>
   <g id="patch_15">
    <path d="M 259.923083 360.237889 
L 260.2796 360.237889 
L 260.2796 331.236211 
L 259.923083 331.236211 
z
" clip-path="url(#p85c80b43b1)" style="fill: #ff0000"/>
   </g>
   <g id="patch_16">
    <path d="M 274.183762 320.457431 
L 274.540279 320.457431 
L 274.540279 302.181202 
L 274.183762 302.181202 
z
" clip-path="url(#p85c80b43b1)" style="fill: #ff0000"/>
   </g>
   <g id="patch_17">
    <path d="M 288.444441 311.736401 
L 288.800958 311.736401 
L 288.800958 279.011657 
L 288.444441 279.011657 
z
" clip-path="url(#p85c80b43b1)" style="fill: #ff0000"/>
   </g>
   <g id="patch_18">
    <path d="M 302.70512 289.126321 
L 303.061637 289.126321 
L 303.061637 273.099025 
L 302.70512 273.099025 
z
" clip-path="url(#p85c80b43b1)" style="fill: #ff0000"/>
   </g>
   <g id="patch_19">
    <path d="M 316.9658 300.352875 
L 317.322317 300.352875 
L 317.322317 290.683972 
L 316.9658 290.683972 
z
" clip-path="url(#p85c80b43b1)" style="fill: #ff0000"/>
   </g>
   <g id="patch_20">
    <path d="M 338.356818 345.876916 
L 338.713335 345.876916 
L 338.713335 306.596557 
L 338.356818 306.596557 
z
" clip-path="url(#p85c80b43b1)" style="fill: #ff0000"/>
   </g>
   <g id="patch_21">
    <path d="M 345.487158 320.789489 
L 345.843675 320.789489 
L 345.843675 305.017776 
L 345.487158 305.017776 
z
" clip-path="url(#p85c80b43b1)" style="fill: #ff0000"/>
   </g>
   <g id="patch_22">
    <path d="M 352.617497 312.700373 
L 352.974014 312.700373 
L 352.974014 289.906153 
L 352.617497 289.906153 
z
" clip-path="url(#p85c80b43b1)" style="fill: #ff0000"/>
   </g>
   <g id="patch_23">
    <path d="M 366.878176 366.716023 
L 367.234693 366.716023 
L 367.234693 340.112201 
L 366.878176 340.112201 
z
" clip-path="url(#p85c80b43b1)" style="fill: #ff0000"/>
   </g>
   <g id="patch_24">
    <path d="M 374.008516 336.405235 
L 374.365033 336.405235 
L 374.365033 316.392246 
L 374.008516 316.392246 
z
" clip-path="url(#p85c80b43b1)" style="fill: #ff0000"/>
   </g>
   <g id="patch_25">
    <path d="M 381.138855 327.126751 
L 381.495372 327.126751 
L 381.495372 300.188859 
L 381.138855 300.188859 
z
" clip-path="url(#p85c80b43b1)" style="fill: #ff0000"/>
   </g>
   <g id="patch_26">
    <path d="M 395.399535 294.256103 
L 395.756051 294.256103 
L 395.756051 278.717836 
L 395.399535 278.717836 
z
" clip-path="url(#p85c80b43b1)" style="fill: #ff0000"/>
   </g>
   <g id="patch_27">
    <path d="M 409.660214 275.639766 
L 410.016731 275.639766 
L 410.016731 262.204529 
L 409.660214 262.204529 
z
" clip-path="url(#p85c80b43b1)" style="fill: #ff0000"/>
   </g>
   <g id="patch_28">
    <path d="M 416.790553 265.515039 
L 417.14707 265.515039 
L 417.14707 250.07639 
L 416.790553 250.07639 
z
" clip-path="url(#p85c80b43b1)" style="fill: #ff0000"/>
   </g>
   <g id="patch_29">
    <path d="M 423.920893 246.445898 
L 424.27741 246.445898 
L 424.27741 233.948471 
L 423.920893 233.948471 
z
" clip-path="url(#p85c80b43b1)" style="fill: #ff0000"/>
   </g>
   <g id="patch_30">
    <path d="M 445.311911 228.897176 
L 445.668428 228.897176 
L 445.668428 208.070143 
L 445.311911 208.070143 
z
" clip-path="url(#p85c80b43b1)" style="fill: #ff0000"/>
   </g>
   <g id="patch_31">
    <path d="M 452.442251 216.647282 
L 452.798768 216.647282 
L 452.798768 199.274651 
L 452.442251 199.274651 
z
" clip-path="url(#p85c80b43b1)" style="fill: #ff0000"/>
   </g>
   <g id="patch_32">
    <path d="M 459.57259 205.698449 
L 459.929107 205.698449 
L 459.929107 185.207499 
L 459.57259 185.207499 
z
" clip-path="url(#p85c80b43b1)" style="fill: #ff0000"/>
   </g>
   <g id="patch_33">
    <path d="M 480.963609 245.11465 
L 481.320126 245.11465 
L 481.320126 217.514656 
L 480.963609 217.514656 
z
" clip-path="url(#p85c80b43b1)" style="fill: #ff0000"/>
   </g>
   <g id="patch_34">
    <path d="M 488.093949 233.912246 
L 488.450465 233.912246 
L 488.450465 212.512666 
L 488.093949 212.512666 
z
" clip-path="url(#p85c80b43b1)" style="fill: #ff0000"/>
   </g>
   <g id="patch_35">
    <path d="M 509.484967 209.488933 
L 509.841484 209.488933 
L 509.841484 185.416796 
L 509.484967 185.416796 
z
" clip-path="url(#p85c80b43b1)" style="fill: #ff0000"/>
   </g>
   <g id="patch_36">
    <path d="M 516.615307 238.080068 
L 516.971824 238.080068 
L 516.971824 186.753074 
L 516.615307 186.753074 
z
" clip-path="url(#p85c80b43b1)" style="fill: #ff0000"/>
   </g>
   <g id="patch_37">
    <path d="M 523.745646 212.389906 
L 524.102163 212.389906 
L 524.102163 163.415488 
L 523.745646 163.415488 
z
" clip-path="url(#p85c80b43b1)" style="fill: #ff0000"/>
   </g>
   <g id="patch_38">
    <path d="M 530.875986 164.139976 
L 531.232503 164.139976 
L 531.232503 144.74884 
L 530.875986 144.74884 
z
" clip-path="url(#p85c80b43b1)" style="fill: #ff0000"/>
   </g>
   <g id="patch_39">
    <path d="M 538.006325 198.250305 
L 538.362842 198.250305 
L 538.362842 150.487393 
L 538.006325 150.487393 
z
" clip-path="url(#p85c80b43b1)" style="fill: #ff0000"/>
   </g>
   <g id="patch_40">
    <path d="M 545.136665 134.193384 
L 545.493182 134.193384 
L 545.493182 121.119828 
L 545.136665 121.119828 
z
" clip-path="url(#p85c80b43b1)" style="fill: #ff0000"/>
   </g>
   <g id="patch_41">
    <path d="M 552.267004 97.197237 
L 552.623521 97.197237 
L 552.623521 78.818372 
L 552.267004 78.818372 
z
" clip-path="url(#p85c80b43b1)" style="fill: #ff0000"/>
   </g>
   <g id="patch_42">
    <path d="M 559.397344 76.2565 
L 559.753861 76.2565 
L 559.753861 53.818487 
L 559.397344 53.818487 
z
" clip-path="url(#p85c80b43b1)" style="fill: #ff0000"/>
   </g>
   <g id="patch_43">
    <path d="M 602.179381 126.526947 
L 602.535898 126.526947 
L 602.535898 87.687319 
L 602.179381 87.687319 
z
" clip-path="url(#p85c80b43b1)" style="fill: #ff0000"/>
   </g>
   <g id="patch_44">
    <path d="M 616.44006 203.113434 
L 616.796577 203.113434 
L 616.796577 156.689819 
L 616.44006 156.689819 
z
" clip-path="url(#p85c80b43b1)" style="fill: #ff0000"/>
   </g>
   <g id="patch_45">
    <path d="M 623.5704 124.920998 
L 623.926917 124.920998 
L 623.926917 97.284779 
L 623.5704 97.284779 
z
" clip-path="url(#p85c80b43b1)" style="fill: #ff0000"/>
   </g>
   <g id="patch_46">
    <path d="M 644.961418 210.044354 
L 645.317935 210.044354 
L 645.317935 146.525849 
L 644.961418 146.525849 
z
" clip-path="url(#p85c80b43b1)" style="fill: #ff0000"/>
   </g>
   <g id="patch_47">
    <path d="M 659.222097 278.555833 
L 659.578614 278.555833 
L 659.578614 211.358516 
L 659.222097 211.358516 
z
" clip-path="url(#p85c80b43b1)" style="fill: #ff0000"/>
   </g>
   <g id="patch_48">
    <path d="M 666.352437 218.018779 
L 666.708954 218.018779 
L 666.708954 170.933063 
L 666.352437 170.933063 
z
" clip-path="url(#p85c80b43b1)" style="fill: #ff0000"/>
   </g>
   <g id="patch_49">
    <path d="M 673.482777 209.257499 
L 673.839294 209.257499 
L 673.839294 156.247076 
L 673.482777 156.247076 
z
" clip-path="url(#p85c80b43b1)" style="fill: #ff0000"/>
   </g>
   <g id="patch_50">
    <path d="M 680.613116 155.40989 
L 680.969633 155.40989 
L 680.969633 132.136702 
L 680.613116 132.136702 
z
" clip-path="url(#p85c80b43b1)" style="fill: #ff0000"/>
   </g>
   <g id="patch_51">
    <path d="M 687.743456 134.973538 
L 688.099973 134.973538 
L 688.099973 118.647128 
L 687.743456 118.647128 
z
" clip-path="url(#p85c80b43b1)" style="fill: #ff0000"/>
   </g>
   <g id="patch_52">
    <path d="M 694.873795 126.078167 
L 695.230312 126.078167 
L 695.230312 100.598308 
L 694.873795 100.598308 
z
" clip-path="url(#p85c80b43b1)" style="fill: #ff0000"/>
   </g>
   <g id="patch_53">
    <path d="M 702.004135 124.158272 
L 702.360652 124.158272 
L 702.360652 98.846455 
L 702.004135 98.846455 
z
" clip-path="url(#p85c80b43b1)" style="fill: #ff0000"/>
   </g>
   <g id="patch_54">
    <path d="M 723.395153 112.500045 
L 723.75167 112.500045 
L 723.75167 85.116391 
L 723.395153 85.116391 
z
" clip-path="url(#p85c80b43b1)" style="fill: #ff0000"/>
   </g>
   <g id="patch_55">
    <path d="M 730.525493 125.794409 
L 730.88201 125.794409 
L 730.88201 93.181357 
L 730.525493 93.181357 
z
" clip-path="url(#p85c80b43b1)" style="fill: #ff0000"/>
   </g>
   <g id="patch_56">
    <path d="M 751.916512 198.70311 
L 752.273028 198.70311 
L 752.273028 146.724077 
L 751.916512 146.724077 
z
" clip-path="url(#p85c80b43b1)" style="fill: #ff0000"/>
   </g>
   <g id="patch_57">
    <path d="M 759.046851 149.73473 
L 759.403368 149.73473 
L 759.403368 127.541231 
L 759.046851 127.541231 
z
" clip-path="url(#p85c80b43b1)" style="fill: #ff0000"/>
   </g>
   <g id="patch_58">
    <path d="M 773.30753 122.667033 
L 773.664047 122.667033 
L 773.664047 103.8736 
L 773.30753 103.8736 
z
" clip-path="url(#p85c80b43b1)" style="fill: #ff0000"/>
   </g>
   <g id="patch_59">
    <path d="M 780.43787 107.212144 
L 780.794387 107.212144 
L 780.794387 96.30191 
L 780.43787 96.30191 
z
" clip-path="url(#p85c80b43b1)" style="fill: #ff0000"/>
   </g>
   <g id="patch_60">
    <path d="M 794.698549 118.872525 
L 795.055066 118.872525 
L 795.055066 103.057544 
L 794.698549 103.057544 
z
" clip-path="url(#p85c80b43b1)" style="fill: #ff0000"/>
   </g>
   <g id="patch_61">
    <path d="M 88.794934 447.4975 
L 89.151451 447.4975 
L 89.151451 431.986402 
L 88.794934 431.986402 
z
" clip-path="url(#p85c80b43b1)" style="fill: #008000"/>
   </g>
   <g id="patch_62">
    <path d="M 117.316292 426.063708 
L 117.672809 426.063708 
L 117.672809 401.595115 
L 117.316292 401.595115 
z
" clip-path="url(#p85c80b43b1)" style="fill: #008000"/>
   </g>
   <g id="patch_63">
    <path d="M 138.707311 406.001414 
L 139.063828 406.001414 
L 139.063828 388.459735 
L 138.707311 388.459735 
z
" clip-path="url(#p85c80b43b1)" style="fill: #008000"/>
   </g>
   <g id="patch_64">
    <path d="M 152.96799 393.027032 
L 153.324507 393.027032 
L 153.324507 373.845192 
L 152.96799 373.845192 
z
" clip-path="url(#p85c80b43b1)" style="fill: #008000"/>
   </g>
   <g id="patch_65">
    <path d="M 167.228669 376.921249 
L 167.585186 376.921249 
L 167.585186 359.271904 
L 167.228669 359.271904 
z
" clip-path="url(#p85c80b43b1)" style="fill: #008000"/>
   </g>
   <g id="patch_66">
    <path d="M 188.619688 362.643794 
L 188.976205 362.643794 
L 188.976205 349.074728 
L 188.619688 349.074728 
z
" clip-path="url(#p85c80b43b1)" style="fill: #008000"/>
   </g>
   <g id="patch_67">
    <path d="M 202.880367 369.13501 
L 203.236884 369.13501 
L 203.236884 346.175768 
L 202.880367 346.175768 
z
" clip-path="url(#p85c80b43b1)" style="fill: #008000"/>
   </g>
   <g id="patch_68">
    <path d="M 210.010706 349.370561 
L 210.367223 349.370561 
L 210.367223 337.474862 
L 210.010706 337.474862 
z
" clip-path="url(#p85c80b43b1)" style="fill: #008000"/>
   </g>
   <g id="patch_69">
    <path d="M 224.271386 334.323337 
L 224.627903 334.323337 
L 224.627903 313.080729 
L 224.271386 313.080729 
z
" clip-path="url(#p85c80b43b1)" style="fill: #008000"/>
   </g>
   <g id="patch_70">
    <path d="M 231.401725 346.769446 
L 231.758242 346.769446 
L 231.758242 319.497484 
L 231.401725 319.497484 
z
" clip-path="url(#p85c80b43b1)" style="fill: #008000"/>
   </g>
   <g id="patch_71">
    <path d="M 238.532065 397.306545 
L 238.888582 397.306545 
L 238.888582 367.261402 
L 238.532065 367.261402 
z
" clip-path="url(#p85c80b43b1)" style="fill: #008000"/>
   </g>
   <g id="patch_72">
    <path d="M 252.792744 363.672165 
L 253.149261 363.672165 
L 253.149261 335.707915 
L 252.792744 335.707915 
z
" clip-path="url(#p85c80b43b1)" style="fill: #008000"/>
   </g>
   <g id="patch_73">
    <path d="M 267.053423 341.778525 
L 267.40994 341.778525 
L 267.40994 308.068678 
L 267.053423 308.068678 
z
" clip-path="url(#p85c80b43b1)" style="fill: #008000"/>
   </g>
   <g id="patch_74">
    <path d="M 281.314102 315.764356 
L 281.670619 315.764356 
L 281.670619 294.256103 
L 281.314102 294.256103 
z
" clip-path="url(#p85c80b43b1)" style="fill: #008000"/>
   </g>
   <g id="patch_75">
    <path d="M 295.574781 285.087298 
L 295.931298 285.087298 
L 295.931298 266.959991 
L 295.574781 266.959991 
z
" clip-path="url(#p85c80b43b1)" style="fill: #008000"/>
   </g>
   <g id="patch_76">
    <path d="M 309.83546 298.964272 
L 310.191977 298.964272 
L 310.191977 282.584794 
L 309.83546 282.584794 
z
" clip-path="url(#p85c80b43b1)" style="fill: #008000"/>
   </g>
   <g id="patch_77">
    <path d="M 324.096139 329.64133 
L 324.452656 329.64133 
L 324.452656 294.492568 
L 324.096139 294.492568 
z
" clip-path="url(#p85c80b43b1)" style="fill: #008000"/>
   </g>
   <g id="patch_78">
    <path d="M 331.226479 368.546363 
L 331.582996 368.546363 
L 331.582996 329.936156 
L 331.226479 329.936156 
z
" clip-path="url(#p85c80b43b1)" style="fill: #008000"/>
   </g>
   <g id="patch_79">
    <path d="M 359.747837 328.874579 
L 360.104354 328.874579 
L 360.104354 303.358496 
L 359.747837 303.358496 
z
" clip-path="url(#p85c80b43b1)" style="fill: #008000"/>
   </g>
   <g id="patch_80">
    <path d="M 388.269195 291.535246 
L 388.625712 291.535246 
L 388.625712 277.929955 
L 388.269195 277.929955 
z
" clip-path="url(#p85c80b43b1)" style="fill: #008000"/>
   </g>
   <g id="patch_81">
    <path d="M 402.529874 288.008395 
L 402.886391 288.008395 
L 402.886391 268.03968 
L 402.529874 268.03968 
z
" clip-path="url(#p85c80b43b1)" style="fill: #008000"/>
   </g>
   <g id="patch_82">
    <path d="M 431.051232 239.294592 
L 431.407749 239.294592 
L 431.407749 229.318788 
L 431.051232 229.318788 
z
" clip-path="url(#p85c80b43b1)" style="fill: #008000"/>
   </g>
   <g id="patch_83">
    <path d="M 438.181572 263.89299 
L 438.538089 263.89299 
L 438.538089 234.479762 
L 438.181572 234.479762 
z
" clip-path="url(#p85c80b43b1)" style="fill: #008000"/>
   </g>
   <g id="patch_84">
    <path d="M 466.70293 209.883377 
L 467.059447 209.883377 
L 467.059447 186.961365 
L 466.70293 186.961365 
z
" clip-path="url(#p85c80b43b1)" style="fill: #008000"/>
   </g>
   <g id="patch_85">
    <path d="M 473.833269 224.766585 
L 474.189786 224.766585 
L 474.189786 198.420358 
L 473.833269 198.420358 
z
" clip-path="url(#p85c80b43b1)" style="fill: #008000"/>
   </g>
   <g id="patch_86">
    <path d="M 495.224288 207.49659 
L 495.580805 207.49659 
L 495.580805 189.22841 
L 495.224288 189.22841 
z
" clip-path="url(#p85c80b43b1)" style="fill: #008000"/>
   </g>
   <g id="patch_87">
    <path d="M 502.354628 241.554594 
L 502.711145 241.554594 
L 502.711145 194.313917 
L 502.354628 194.313917 
z
" clip-path="url(#p85c80b43b1)" style="fill: #008000"/>
   </g>
   <g id="patch_88">
    <path d="M 566.527683 71.933718 
L 566.8842 71.933718 
L 566.8842 44.2975 
L 566.527683 44.2975 
z
" clip-path="url(#p85c80b43b1)" style="fill: #008000"/>
   </g>
   <g id="patch_89">
    <path d="M 573.658023 89.548852 
L 574.01454 89.548852 
L 574.01454 59.433273 
L 573.658023 59.433273 
z
" clip-path="url(#p85c80b43b1)" style="fill: #008000"/>
   </g>
   <g id="patch_90">
    <path d="M 580.788363 86.641842 
L 581.14488 86.641842 
L 581.14488 56.232442 
L 580.788363 56.232442 
z
" clip-path="url(#p85c80b43b1)" style="fill: #008000"/>
   </g>
   <g id="patch_91">
    <path d="M 587.918702 73.902918 
L 588.275219 73.902918 
L 588.275219 49.25119 
L 587.918702 49.25119 
z
" clip-path="url(#p85c80b43b1)" style="fill: #008000"/>
   </g>
   <g id="patch_92">
    <path d="M 595.049042 121.423328 
L 595.405559 121.423328 
L 595.405559 86.546249 
L 595.049042 86.546249 
z
" clip-path="url(#p85c80b43b1)" style="fill: #008000"/>
   </g>
   <g id="patch_93">
    <path d="M 609.309721 154.868536 
L 609.666238 154.868536 
L 609.666238 106.066184 
L 609.309721 106.066184 
z
" clip-path="url(#p85c80b43b1)" style="fill: #008000"/>
   </g>
   <g id="patch_94">
    <path d="M 630.700739 124.028468 
L 631.057256 124.028468 
L 631.057256 96.514004 
L 630.700739 96.514004 
z
" clip-path="url(#p85c80b43b1)" style="fill: #008000"/>
   </g>
   <g id="patch_95">
    <path d="M 637.831079 172.441407 
L 638.187596 172.441407 
L 638.187596 123.396553 
L 637.831079 123.396553 
z
" clip-path="url(#p85c80b43b1)" style="fill: #008000"/>
   </g>
   <g id="patch_96">
    <path d="M 652.091758 258.395933 
L 652.448275 258.395933 
L 652.448275 189.897556 
L 652.091758 189.897556 
z
" clip-path="url(#p85c80b43b1)" style="fill: #008000"/>
   </g>
   <g id="patch_97">
    <path d="M 709.134474 117.925659 
L 709.490991 117.925659 
L 709.490991 97.007059 
L 709.134474 97.007059 
z
" clip-path="url(#p85c80b43b1)" style="fill: #008000"/>
   </g>
   <g id="patch_98">
    <path d="M 716.264814 101.124568 
L 716.621331 101.124568 
L 716.621331 79.912148 
L 716.264814 79.912148 
z
" clip-path="url(#p85c80b43b1)" style="fill: #008000"/>
   </g>
   <g id="patch_99">
    <path d="M 737.655832 152.71117 
L 738.012349 152.71117 
L 738.012349 102.278719 
L 737.655832 102.278719 
z
" clip-path="url(#p85c80b43b1)" style="fill: #008000"/>
   </g>
   <g id="patch_100">
    <path d="M 744.786172 160.949208 
L 745.142689 160.949208 
L 745.142689 125.247018 
L 744.786172 125.247018 
z
" clip-path="url(#p85c80b43b1)" style="fill: #008000"/>
   </g>
   <g id="patch_101">
    <path d="M 766.177191 122.835075 
L 766.533708 122.835075 
L 766.533708 107.496043 
L 766.177191 107.496043 
z
" clip-path="url(#p85c80b43b1)" style="fill: #008000"/>
   </g>
   <g id="patch_102">
    <path d="M 787.568209 100.825717 
L 787.924726 100.825717 
L 787.924726 91.126627 
L 787.568209 91.126627 
z
" clip-path="url(#p85c80b43b1)" style="fill: #008000"/>
   </g>
   <g id="patch_103">
    <path d="M 93.96443 432.086019 
L 98.242634 432.086019 
L 98.242634 420.106803 
L 93.96443 420.106803 
z
" clip-path="url(#p85c80b43b1)" style="fill: #ff0000"/>
   </g>
   <g id="patch_104">
    <path d="M 101.09477 416.325375 
L 105.372974 416.325375 
L 105.372974 411.361622 
L 101.09477 411.361622 
z
" clip-path="url(#p85c80b43b1)" style="fill: #ff0000"/>
   </g>
   <g id="patch_105">
    <path d="M 108.22511 401.42808 
L 112.503313 401.42808 
L 112.503313 396.790347 
L 108.22511 396.790347 
z
" clip-path="url(#p85c80b43b1)" style="fill: #ff0000"/>
   </g>
   <g id="patch_106">
    <path d="M 122.485789 419.651985 
L 126.763992 419.651985 
L 126.763992 400.525488 
L 122.485789 400.525488 
z
" clip-path="url(#p85c80b43b1)" style="fill: #ff0000"/>
   </g>
   <g id="patch_107">
    <path d="M 129.616128 389.481948 
L 133.894332 389.481948 
L 133.894332 377.877172 
L 129.616128 377.877172 
z
" clip-path="url(#p85c80b43b1)" style="fill: #ff0000"/>
   </g>
   <g id="patch_108">
    <path d="M 143.876807 384.579697 
L 148.155011 384.579697 
L 148.155011 378.084456 
L 143.876807 378.084456 
z
" clip-path="url(#p85c80b43b1)" style="fill: #ff0000"/>
   </g>
   <g id="patch_109">
    <path d="M 158.137486 388.84311 
L 162.41569 388.84311 
L 162.41569 379.018241 
L 158.137486 379.018241 
z
" clip-path="url(#p85c80b43b1)" style="fill: #ff0000"/>
   </g>
   <g id="patch_110">
    <path d="M 172.398165 375.026511 
L 176.676369 375.026511 
L 176.676369 373.751612 
L 172.398165 373.751612 
z
" clip-path="url(#p85c80b43b1)" style="fill: #ff0000"/>
   </g>
   <g id="patch_111">
    <path d="M 179.528505 371.432243 
L 183.806709 371.432243 
L 183.806709 356.335713 
L 179.528505 356.335713 
z
" clip-path="url(#p85c80b43b1)" style="fill: #ff0000"/>
   </g>
   <g id="patch_112">
    <path d="M 193.789184 351.916333 
L 198.067388 351.916333 
L 198.067388 346.37299 
L 193.789184 346.37299 
z
" clip-path="url(#p85c80b43b1)" style="fill: #ff0000"/>
   </g>
   <g id="patch_113">
    <path d="M 215.180203 343.897654 
L 219.458406 343.897654 
L 219.458406 337.096518 
L 215.180203 337.096518 
z
" clip-path="url(#p85c80b43b1)" style="fill: #ff0000"/>
   </g>
   <g id="patch_114">
    <path d="M 243.701561 365.822488 
L 247.979765 365.822488 
L 247.979765 345.512659 
L 243.701561 345.512659 
z
" clip-path="url(#p85c80b43b1)" style="fill: #ff0000"/>
   </g>
   <g id="patch_115">
    <path d="M 257.96224 357.352009 
L 262.240444 357.352009 
L 262.240444 332.790842 
L 257.96224 332.790842 
z
" clip-path="url(#p85c80b43b1)" style="fill: #ff0000"/>
   </g>
   <g id="patch_116">
    <path d="M 272.222919 318.391633 
L 276.501123 318.391633 
L 276.501123 302.983171 
L 272.222919 302.983171 
z
" clip-path="url(#p85c80b43b1)" style="fill: #ff0000"/>
   </g>
   <g id="patch_117">
    <path d="M 286.483598 298.924022 
L 290.761802 298.924022 
L 290.761802 280.048078 
L 286.483598 280.048078 
z
" clip-path="url(#p85c80b43b1)" style="fill: #ff0000"/>
   </g>
   <g id="patch_118">
    <path d="M 300.744277 286.507094 
L 305.022481 286.507094 
L 305.022481 280.728292 
L 300.744277 280.728292 
z
" clip-path="url(#p85c80b43b1)" style="fill: #ff0000"/>
   </g>
   <g id="patch_119">
    <path d="M 315.004956 294.846762 
L 319.28316 294.846762 
L 319.28316 292.670278 
L 315.004956 292.670278 
z
" clip-path="url(#p85c80b43b1)" style="fill: #ff0000"/>
   </g>
   <g id="patch_120">
    <path d="M 336.395975 345.876916 
L 340.674179 345.876916 
L 340.674179 311.634771 
L 336.395975 311.634771 
z
" clip-path="url(#p85c80b43b1)" style="fill: #ff0000"/>
   </g>
   <g id="patch_121">
    <path d="M 343.526314 314.212743 
L 347.804518 314.212743 
L 347.804518 307.553486 
L 343.526314 307.553486 
z
" clip-path="url(#p85c80b43b1)" style="fill: #ff0000"/>
   </g>
   <g id="patch_122">
    <path d="M 350.656654 303.981355 
L 354.934858 303.981355 
L 354.934858 293.707705 
L 350.656654 293.707705 
z
" clip-path="url(#p85c80b43b1)" style="fill: #ff0000"/>
   </g>
   <g id="patch_123">
    <path d="M 364.917333 362.431479 
L 369.195537 362.431479 
L 369.195537 341.236165 
L 364.917333 341.236165 
z
" clip-path="url(#p85c80b43b1)" style="fill: #ff0000"/>
   </g>
   <g id="patch_124">
    <path d="M 372.047673 325.421184 
L 376.325876 325.421184 
L 376.325876 322.748626 
L 372.047673 322.748626 
z
" clip-path="url(#p85c80b43b1)" style="fill: #ff0000"/>
   </g>
   <g id="patch_125">
    <path d="M 379.178012 319.996576 
L 383.456216 319.996576 
L 383.456216 300.795618 
L 379.178012 300.795618 
z
" clip-path="url(#p85c80b43b1)" style="fill: #ff0000"/>
   </g>
   <g id="patch_126">
    <path d="M 393.438691 281.544348 
L 397.716895 281.544348 
L 397.716895 279.987704 
L 393.438691 279.987704 
z
" clip-path="url(#p85c80b43b1)" style="fill: #ff0000"/>
   </g>
   <g id="patch_127">
    <path d="M 407.69937 268.237909 
L 411.977574 268.237909 
L 411.977574 264.616472 
L 407.69937 264.616472 
z
" clip-path="url(#p85c80b43b1)" style="fill: #ff0000"/>
   </g>
   <g id="patch_128">
    <path d="M 414.82971 260.771652 
L 419.107913 260.771652 
L 419.107913 254.591362 
L 414.82971 254.591362 
z
" clip-path="url(#p85c80b43b1)" style="fill: #ff0000"/>
   </g>
   <g id="patch_129">
    <path d="M 421.960049 245.896494 
L 426.238253 245.896494 
L 426.238253 234.30669 
L 421.960049 234.30669 
z
" clip-path="url(#p85c80b43b1)" style="fill: #ff0000"/>
   </g>
   <g id="patch_130">
    <path d="M 443.351068 221.484249 
L 447.629272 221.484249 
L 447.629272 218.095253 
L 443.351068 218.095253 
z
" clip-path="url(#p85c80b43b1)" style="fill: #ff0000"/>
   </g>
   <g id="patch_131">
    <path d="M 450.481407 210.694401 
L 454.759611 210.694401 
L 454.759611 200.852426 
L 450.481407 200.852426 
z
" clip-path="url(#p85c80b43b1)" style="fill: #ff0000"/>
   </g>
   <g id="patch_132">
    <path d="M 457.611747 204.683159 
L 461.889951 204.683159 
L 461.889951 187.286379 
L 457.611747 187.286379 
z
" clip-path="url(#p85c80b43b1)" style="fill: #ff0000"/>
   </g>
   <g id="patch_133">
    <path d="M 479.002766 231.494266 
L 483.280969 231.494266 
L 483.280969 223.889149 
L 479.002766 223.889149 
z
" clip-path="url(#p85c80b43b1)" style="fill: #ff0000"/>
   </g>
   <g id="patch_134">
    <path d="M 486.133105 222.516645 
L 490.411309 222.516645 
L 490.411309 213.168731 
L 486.133105 213.168731 
z
" clip-path="url(#p85c80b43b1)" style="fill: #ff0000"/>
   </g>
   <g id="patch_135">
    <path d="M 507.524124 200.903744 
L 511.802327 200.903744 
L 511.802327 188.375124 
L 507.524124 188.375124 
z
" clip-path="url(#p85c80b43b1)" style="fill: #ff0000"/>
   </g>
   <g id="patch_136">
    <path d="M 514.654463 219.298709 
L 518.932667 219.298709 
L 518.932667 205.574683 
L 514.654463 205.574683 
z
" clip-path="url(#p85c80b43b1)" style="fill: #ff0000"/>
   </g>
   <g id="patch_137">
    <path d="M 521.784803 182.630534 
L 526.063007 182.630534 
L 526.063007 181.562919 
L 521.784803 181.562919 
z
" clip-path="url(#p85c80b43b1)" style="fill: #ff0000"/>
   </g>
   <g id="patch_138">
    <path d="M 528.915142 164.139976 
L 533.193346 164.139976 
L 533.193346 150.452175 
L 528.915142 150.452175 
z
" clip-path="url(#p85c80b43b1)" style="fill: #ff0000"/>
   </g>
   <g id="patch_139">
    <path d="M 536.045482 153.822052 
L 540.323686 153.822052 
L 540.323686 153.441696 
L 536.045482 153.441696 
z
" clip-path="url(#p85c80b43b1)" style="fill: #ff0000"/>
   </g>
   <g id="patch_140">
    <path d="M 543.175821 132.277686 
L 547.454025 132.277686 
L 547.454025 127.205149 
L 543.175821 127.205149 
z
" clip-path="url(#p85c80b43b1)" style="fill: #ff0000"/>
   </g>
   <g id="patch_141">
    <path d="M 550.306161 92.611828 
L 554.584365 92.611828 
L 554.584365 80.577269 
L 550.306161 80.577269 
z
" clip-path="url(#p85c80b43b1)" style="fill: #ff0000"/>
   </g>
   <g id="patch_142">
    <path d="M 557.436501 69.399015 
L 561.714704 69.399015 
L 561.714704 61.397442 
L 557.436501 61.397442 
z
" clip-path="url(#p85c80b43b1)" style="fill: #ff0000"/>
   </g>
   <g id="patch_143">
    <path d="M 600.218538 119.65135 
L 604.496742 119.65135 
L 604.496742 100.854898 
L 600.218538 100.854898 
z
" clip-path="url(#p85c80b43b1)" style="fill: #ff0000"/>
   </g>
   <g id="patch_144">
    <path d="M 614.479217 165.485311 
L 618.757421 165.485311 
L 618.757421 157.226142 
L 614.479217 157.226142 
z
" clip-path="url(#p85c80b43b1)" style="fill: #ff0000"/>
   </g>
   <g id="patch_145">
    <path d="M 621.609556 121.166738 
L 625.88776 121.166738 
L 625.88776 109.562847 
L 621.609556 109.562847 
z
" clip-path="url(#p85c80b43b1)" style="fill: #ff0000"/>
   </g>
   <g id="patch_146">
    <path d="M 643.000575 197.602179 
L 647.278779 197.602179 
L 647.278779 183.377159 
L 643.000575 183.377159 
z
" clip-path="url(#p85c80b43b1)" style="fill: #ff0000"/>
   </g>
   <g id="patch_147">
    <path d="M 657.261254 250.016016 
L 661.539458 250.016016 
L 661.539458 239.761485 
L 657.261254 239.761485 
z
" clip-path="url(#p85c80b43b1)" style="fill: #ff0000"/>
   </g>
   <g id="patch_148">
    <path d="M 664.391594 217.292278 
L 668.669797 217.292278 
L 668.669797 175.938071 
L 664.391594 175.938071 
z
" clip-path="url(#p85c80b43b1)" style="fill: #ff0000"/>
   </g>
   <g id="patch_149">
    <path d="M 671.521933 184.3683 
L 675.800137 184.3683 
L 675.800137 161.396982 
L 671.521933 161.396982 
z
" clip-path="url(#p85c80b43b1)" style="fill: #ff0000"/>
   </g>
   <g id="patch_150">
    <path d="M 678.652273 146.308503 
L 682.930476 146.308503 
L 682.930476 139.402718 
L 678.652273 139.402718 
z
" clip-path="url(#p85c80b43b1)" style="fill: #ff0000"/>
   </g>
   <g id="patch_151">
    <path d="M 685.782612 132.022555 
L 690.060816 132.022555 
L 690.060816 128.745693 
L 685.782612 128.745693 
z
" clip-path="url(#p85c80b43b1)" style="fill: #ff0000"/>
   </g>
   <g id="patch_152">
    <path d="M 692.912952 117.976977 
L 697.191156 117.976977 
L 697.191156 107.311902 
L 692.912952 107.311902 
z
" clip-path="url(#p85c80b43b1)" style="fill: #ff0000"/>
   </g>
   <g id="patch_153">
    <path d="M 700.043291 118.596817 
L 704.321495 118.596817 
L 704.321495 102.212308 
L 700.043291 102.212308 
z
" clip-path="url(#p85c80b43b1)" style="fill: #ff0000"/>
   </g>
   <g id="patch_154">
    <path d="M 721.43431 103.507331 
L 725.712514 103.507331 
L 725.712514 85.116391 
L 721.43431 85.116391 
z
" clip-path="url(#p85c80b43b1)" style="fill: #ff0000"/>
   </g>
   <g id="patch_155">
    <path d="M 728.56465 103.032388 
L 732.842853 103.032388 
L 732.842853 94.148348 
L 728.56465 94.148348 
z
" clip-path="url(#p85c80b43b1)" style="fill: #ff0000"/>
   </g>
   <g id="patch_156">
    <path d="M 749.955668 164.100733 
L 754.233872 164.100733 
L 754.233872 161.295353 
L 749.955668 161.295353 
z
" clip-path="url(#p85c80b43b1)" style="fill: #ff0000"/>
   </g>
   <g id="patch_157">
    <path d="M 757.086008 148.4226 
L 761.364211 148.4226 
L 761.364211 128.410617 
L 757.086008 128.410617 
z
" clip-path="url(#p85c80b43b1)" style="fill: #ff0000"/>
   </g>
   <g id="patch_158">
    <path d="M 771.346687 118.827244 
L 775.62489 118.827244 
L 775.62489 104.094971 
L 771.346687 104.094971 
z
" clip-path="url(#p85c80b43b1)" style="fill: #ff0000"/>
   </g>
   <g id="patch_159">
    <path d="M 778.477026 104.647434 
L 782.75523 104.647434 
L 782.75523 97.22038 
L 778.477026 97.22038 
z
" clip-path="url(#p85c80b43b1)" style="fill: #ff0000"/>
   </g>
   <g id="patch_160">
    <path d="M 792.737705 116.731259 
L 797.015909 116.731259 
L 797.015909 110.360791 
L 792.737705 110.360791 
z
" clip-path="url(#p85c80b43b1)" style="fill: #ff0000"/>
   </g>
   <g id="patch_161">
    <path d="M 86.834091 441.192437 
L 91.112295 441.192437 
L 91.112295 436.971286 
L 86.834091 436.971286 
z
" clip-path="url(#p85c80b43b1)" style="fill: #008000"/>
   </g>
   <g id="patch_162">
    <path d="M 115.355449 417.002571 
L 119.633653 417.002571 
L 119.633653 405.296044 
L 115.355449 405.296044 
z
" clip-path="url(#p85c80b43b1)" style="fill: #008000"/>
   </g>
   <g id="patch_163">
    <path d="M 136.746468 394.451859 
L 141.024671 394.451859 
L 141.024671 389.206361 
L 136.746468 389.206361 
z
" clip-path="url(#p85c80b43b1)" style="fill: #008000"/>
   </g>
   <g id="patch_164">
    <path d="M 151.007147 381.67168 
L 155.28535 381.67168 
L 155.28535 375.516547 
L 151.007147 375.516547 
z
" clip-path="url(#p85c80b43b1)" style="fill: #008000"/>
   </g>
   <g id="patch_165">
    <path d="M 165.267826 376.104187 
L 169.54603 376.104187 
L 169.54603 360.782261 
L 165.267826 360.782261 
z
" clip-path="url(#p85c80b43b1)" style="fill: #008000"/>
   </g>
   <g id="patch_166">
    <path d="M 186.658844 357.903426 
L 190.937048 357.903426 
L 190.937048 350.898024 
L 186.658844 350.898024 
z
" clip-path="url(#p85c80b43b1)" style="fill: #008000"/>
   </g>
   <g id="patch_167">
    <path d="M 200.919524 348.148993 
L 205.197727 348.148993 
L 205.197727 346.175768 
L 200.919524 346.175768 
z
" clip-path="url(#p85c80b43b1)" style="fill: #008000"/>
   </g>
   <g id="patch_168">
    <path d="M 208.049863 342.368178 
L 212.328067 342.368178 
L 212.328067 341.469611 
L 208.049863 341.469611 
z
" clip-path="url(#p85c80b43b1)" style="fill: #008000"/>
   </g>
   <g id="patch_169">
    <path d="M 222.310542 333.469044 
L 226.588746 333.469044 
L 226.588746 329.964331 
L 222.310542 329.964331 
z
" clip-path="url(#p85c80b43b1)" style="fill: #008000"/>
   </g>
   <g id="patch_170">
    <path d="M 229.440882 342.543263 
L 233.719085 342.543263 
L 233.719085 330.547946 
L 229.440882 330.547946 
z
" clip-path="url(#p85c80b43b1)" style="fill: #008000"/>
   </g>
   <g id="patch_171">
    <path d="M 236.571221 388.307794 
L 240.849425 388.307794 
L 240.849425 370.421984 
L 236.571221 370.421984 
z
" clip-path="url(#p85c80b43b1)" style="fill: #008000"/>
   </g>
   <g id="patch_172">
    <path d="M 250.8319 362.62367 
L 255.110104 362.62367 
L 255.110104 340.813546 
L 250.8319 340.813546 
z
" clip-path="url(#p85c80b43b1)" style="fill: #008000"/>
   </g>
   <g id="patch_173">
    <path d="M 265.092579 325.295405 
L 269.370783 325.295405 
L 269.370783 315.847873 
L 265.092579 315.847873 
z
" clip-path="url(#p85c80b43b1)" style="fill: #008000"/>
   </g>
   <g id="patch_174">
    <path d="M 279.353258 311.499936 
L 283.631462 311.499936 
L 283.631462 301.197105 
L 279.353258 301.197105 
z
" clip-path="url(#p85c80b43b1)" style="fill: #008000"/>
   </g>
   <g id="patch_175">
    <path d="M 293.613938 279.057943 
L 297.892141 279.057943 
L 297.892141 270.402318 
L 293.613938 270.402318 
z
" clip-path="url(#p85c80b43b1)" style="fill: #008000"/>
   </g>
   <g id="patch_176">
    <path d="M 307.874617 292.840331 
L 312.15282 292.840331 
L 312.15282 283.086905 
L 307.874617 283.086905 
z
" clip-path="url(#p85c80b43b1)" style="fill: #008000"/>
   </g>
   <g id="patch_177">
    <path d="M 322.135296 325.774372 
L 326.413499 325.774372 
L 326.413499 295.160707 
L 322.135296 295.160707 
z
" clip-path="url(#p85c80b43b1)" style="fill: #008000"/>
   </g>
   <g id="patch_178">
    <path d="M 329.265635 350.144355 
L 333.543839 350.144355 
L 333.543839 329.936156 
L 329.265635 329.936156 
z
" clip-path="url(#p85c80b43b1)" style="fill: #008000"/>
   </g>
   <g id="patch_179">
    <path d="M 357.786993 322.690265 
L 362.065197 322.690265 
L 362.065197 303.358496 
L 357.786993 303.358496 
z
" clip-path="url(#p85c80b43b1)" style="fill: #008000"/>
   </g>
   <g id="patch_180">
    <path d="M 386.308352 287.786018 
L 390.586555 287.786018 
L 390.586555 279.768345 
L 386.308352 279.768345 
z
" clip-path="url(#p85c80b43b1)" style="fill: #008000"/>
   </g>
   <g id="patch_181">
    <path d="M 400.569031 279.0348 
L 404.847234 279.0348 
L 404.847234 270.77865 
L 400.569031 270.77865 
z
" clip-path="url(#p85c80b43b1)" style="fill: #008000"/>
   </g>
   <g id="patch_182">
    <path d="M 429.090389 236.271865 
L 433.368593 236.271865 
L 433.368593 229.379162 
L 429.090389 229.379162 
z
" clip-path="url(#p85c80b43b1)" style="fill: #008000"/>
   </g>
   <g id="patch_183">
    <path d="M 436.220728 241.359384 
L 440.498932 241.359384 
L 440.498932 235.046272 
L 436.220728 235.046272 
z
" clip-path="url(#p85c80b43b1)" style="fill: #008000"/>
   </g>
   <g id="patch_184">
    <path d="M 464.742087 205.489153 
L 469.02029 205.489153 
L 469.02029 188.124571 
L 464.742087 188.124571 
z
" clip-path="url(#p85c80b43b1)" style="fill: #008000"/>
   </g>
   <g id="patch_185">
    <path d="M 471.872426 213.196906 
L 476.15063 213.196906 
L 476.15063 198.566262 
L 471.872426 198.566262 
z
" clip-path="url(#p85c80b43b1)" style="fill: #008000"/>
   </g>
   <g id="patch_186">
    <path d="M 493.263445 202.351715 
L 497.541648 202.351715 
L 497.541648 200.573699 
L 493.263445 200.573699 
z
" clip-path="url(#p85c80b43b1)" style="fill: #008000"/>
   </g>
   <g id="patch_187">
    <path d="M 500.393784 241.554594 
L 504.671988 241.554594 
L 504.671988 203.755411 
L 500.393784 203.755411 
z
" clip-path="url(#p85c80b43b1)" style="fill: #008000"/>
   </g>
   <g id="patch_188">
    <path d="M 564.56684 50.561307 
L 568.845044 50.561307 
L 568.845044 47.756933 
L 564.56684 47.756933 
z
" clip-path="url(#p85c80b43b1)" style="fill: #008000"/>
   </g>
   <g id="patch_189">
    <path d="M 571.69718 89.305343 
L 575.975383 89.305343 
L 575.975383 67.271836 
L 571.69718 67.271836 
z
" clip-path="url(#p85c80b43b1)" style="fill: #008000"/>
   </g>
   <g id="patch_190">
    <path d="M 578.827519 76.896465 
L 583.105723 76.896465 
L 583.105723 56.98913 
L 578.827519 56.98913 
z
" clip-path="url(#p85c80b43b1)" style="fill: #008000"/>
   </g>
   <g id="patch_191">
    <path d="M 585.957859 65.343892 
L 590.236062 65.343892 
L 590.236062 51.138885 
L 585.957859 51.138885 
z
" clip-path="url(#p85c80b43b1)" style="fill: #008000"/>
   </g>
   <g id="patch_192">
    <path d="M 593.088198 119.40281 
L 597.366402 119.40281 
L 597.366402 104.848641 
L 593.088198 104.848641 
z
" clip-path="url(#p85c80b43b1)" style="fill: #008000"/>
   </g>
   <g id="patch_193">
    <path d="M 607.348877 150.15936 
L 611.627081 150.15936 
L 611.627081 106.066184 
L 607.348877 106.066184 
z
" clip-path="url(#p85c80b43b1)" style="fill: #008000"/>
   </g>
   <g id="patch_194">
    <path d="M 628.739896 111.188922 
L 633.0181 111.188922 
L 633.0181 96.612615 
L 628.739896 96.612615 
z
" clip-path="url(#p85c80b43b1)" style="fill: #008000"/>
   </g>
   <g id="patch_195">
    <path d="M 635.870235 163.902505 
L 640.148439 163.902505 
L 640.148439 124.308201 
L 635.870235 124.308201 
z
" clip-path="url(#p85c80b43b1)" style="fill: #008000"/>
   </g>
   <g id="patch_196">
    <path d="M 650.130915 258.395933 
L 654.409118 258.395933 
L 654.409118 198.283511 
L 650.130915 198.283511 
z
" clip-path="url(#p85c80b43b1)" style="fill: #008000"/>
   </g>
   <g id="patch_197">
    <path d="M 707.173631 104.711793 
L 711.451835 104.711793 
L 711.451835 97.02014 
L 707.173631 97.02014 
z
" clip-path="url(#p85c80b43b1)" style="fill: #008000"/>
   </g>
   <g id="patch_198">
    <path d="M 714.30397 100.05796 
L 718.582174 100.05796 
L 718.582174 97.056364 
L 714.30397 97.056364 
z
" clip-path="url(#p85c80b43b1)" style="fill: #008000"/>
   </g>
   <g id="patch_199">
    <path d="M 735.694989 143.448785 
L 739.973193 143.448785 
L 739.973193 109.758057 
L 735.694989 109.758057 
z
" clip-path="url(#p85c80b43b1)" style="fill: #008000"/>
   </g>
   <g id="patch_200">
    <path d="M 742.825329 156.476498 
L 747.103532 156.476498 
L 747.103532 127.737447 
L 742.825329 127.737447 
z
" clip-path="url(#p85c80b43b1)" style="fill: #008000"/>
   </g>
   <g id="patch_201">
    <path d="M 764.216347 116.786602 
L 768.494551 116.786602 
L 768.494551 110.147469 
L 764.216347 110.147469 
z
" clip-path="url(#p85c80b43b1)" style="fill: #008000"/>
   </g>
   <g id="patch_202">
    <path d="M 785.607366 98.403712 
L 789.88557 98.403712 
L 789.88557 93.544607 
L 785.607366 93.544607 
z
" clip-path="url(#p85c80b43b1)" style="fill: #008000"/>
   </g>
   <g id="matplotlib.axis_1">
    <g id="xtick_1">
     <g id="line2d_1">
      <defs>
       <path id="m5dc9cc8c07" d="M 0 0 
L 0 3.5 
" style="stroke: #000000; stroke-width: 0.8"/>
      </defs>
      <g>
       <use xlink:href="#m5dc9cc8c07" x="88.973193" y="467.6575" style="stroke: #000000; stroke-width: 0.8"/>
      </g>
     </g>
     <g id="text_1">
      <!-- 2025-06-25 -->
      <g transform="translate(76.422047 506.830859) rotate(-45) scale(0.08 -0.08)">
       <defs>
        <path id="SimHei-32" d="M 300 250 
Q 325 625 650 925 
Q 975 1225 1475 1862 
Q 1975 2500 2125 2850 
Q 2275 3200 2237 3450 
Q 2200 3700 2000 3862 
Q 1800 4025 1537 4000 
Q 1275 3975 1037 3800 
Q 800 3625 675 3275 
L 200 3350 
Q 400 3925 712 4187 
Q 1025 4450 1450 4475 
Q 1700 4500 1900 4462 
Q 2100 4425 2312 4287 
Q 2525 4150 2662 3875 
Q 2800 3600 2762 3212 
Q 2725 2825 2375 2287 
Q 2025 1750 1025 600 
L 2825 600 
L 2825 150 
L 300 150 
L 300 250 
z
" transform="scale(0.015625)"/>
        <path id="SimHei-30" d="M 225 2537 
Q 250 3200 412 3587 
Q 575 3975 875 4225 
Q 1175 4475 1612 4475 
Q 2050 4475 2375 4112 
Q 2700 3750 2800 3200 
Q 2900 2650 2862 1937 
Q 2825 1225 2612 775 
Q 2400 325 1975 150 
Q 1550 -25 1125 187 
Q 700 400 525 750 
Q 350 1100 275 1487 
Q 200 1875 225 2537 
z
M 750 2687 
Q 675 2000 800 1462 
Q 925 925 1212 700 
Q 1500 475 1800 612 
Q 2100 750 2237 1162 
Q 2375 1575 2375 2062 
Q 2375 2550 2337 2950 
Q 2300 3350 2112 3675 
Q 1925 4000 1612 4012 
Q 1300 4025 1062 3700 
Q 825 3375 750 2687 
z
" transform="scale(0.015625)"/>
        <path id="SimHei-35" d="M 550 1325 
Q 725 650 1150 575 
Q 1575 500 1837 662 
Q 2100 825 2212 1087 
Q 2325 1350 2312 1675 
Q 2300 2000 2137 2225 
Q 1975 2450 1725 2525 
Q 1475 2600 1162 2525 
Q 850 2450 650 2175 
L 225 2225 
Q 275 2375 700 4375 
L 2675 4375 
L 2675 3925 
L 1075 3925 
Q 950 3250 825 2850 
Q 1200 3025 1525 3012 
Q 1850 3000 2150 2862 
Q 2450 2725 2587 2487 
Q 2725 2250 2787 2012 
Q 2850 1775 2837 1500 
Q 2825 1225 2725 937 
Q 2625 650 2425 462 
Q 2225 275 1937 162 
Q 1650 50 1275 75 
Q 900 100 562 350 
Q 225 600 100 1200 
L 550 1325 
z
" transform="scale(0.015625)"/>
        <path id="SimHei-2d" d="M 2975 2125 
L 125 2125 
L 125 2525 
L 2975 2525 
L 2975 2125 
z
" transform="scale(0.015625)"/>
        <path id="SimHei-36" d="M 250 1612 
Q 275 1975 387 2225 
Q 500 2475 725 2850 
L 1750 4450 
L 2325 4450 
L 1275 2800 
Q 1950 2975 2350 2750 
Q 2750 2525 2887 2237 
Q 3025 1950 3037 1612 
Q 3050 1275 2937 950 
Q 2825 625 2537 362 
Q 2250 100 1737 75 
Q 1225 50 862 262 
Q 500 475 362 862 
Q 225 1250 250 1612 
z
M 1025 787 
Q 1250 550 1625 525 
Q 2000 500 2250 775 
Q 2500 1050 2500 1575 
Q 2500 2100 2187 2300 
Q 1875 2500 1487 2450 
Q 1100 2400 925 2075 
Q 750 1750 775 1387 
Q 800 1025 1025 787 
z
" transform="scale(0.015625)"/>
       </defs>
       <use xlink:href="#SimHei-32"/>
       <use xlink:href="#SimHei-30" transform="translate(50 0)"/>
       <use xlink:href="#SimHei-32" transform="translate(100 0)"/>
       <use xlink:href="#SimHei-35" transform="translate(150 0)"/>
       <use xlink:href="#SimHei-2d" transform="translate(200 0)"/>
       <use xlink:href="#SimHei-30" transform="translate(250 0)"/>
       <use xlink:href="#SimHei-36" transform="translate(300 0)"/>
       <use xlink:href="#SimHei-2d" transform="translate(350 0)"/>
       <use xlink:href="#SimHei-32" transform="translate(400 0)"/>
       <use xlink:href="#SimHei-35" transform="translate(450 0)"/>
      </g>
     </g>
    </g>
    <g id="xtick_2">
     <g id="line2d_2">
      <g>
       <use xlink:href="#m5dc9cc8c07" x="124.62489" y="467.6575" style="stroke: #000000; stroke-width: 0.8"/>
      </g>
     </g>
     <g id="text_2">
      <!-- 2025-07-02 -->
      <g transform="translate(112.073745 506.830859) rotate(-45) scale(0.08 -0.08)">
       <defs>
        <path id="SimHei-37" d="M 850 150 
Q 1300 2050 2425 3925 
L 275 3925 
L 275 4375 
L 2950 4375 
L 2950 3950 
Q 1775 2050 1400 150 
L 850 150 
z
" transform="scale(0.015625)"/>
       </defs>
       <use xlink:href="#SimHei-32"/>
       <use xlink:href="#SimHei-30" transform="translate(50 0)"/>
       <use xlink:href="#SimHei-32" transform="translate(100 0)"/>
       <use xlink:href="#SimHei-35" transform="translate(150 0)"/>
       <use xlink:href="#SimHei-2d" transform="translate(200 0)"/>
       <use xlink:href="#SimHei-30" transform="translate(250 0)"/>
       <use xlink:href="#SimHei-37" transform="translate(300 0)"/>
       <use xlink:href="#SimHei-2d" transform="translate(350 0)"/>
       <use xlink:href="#SimHei-30" transform="translate(400 0)"/>
       <use xlink:href="#SimHei-32" transform="translate(450 0)"/>
      </g>
     </g>
    </g>
    <g id="xtick_3">
     <g id="line2d_3">
      <g>
       <use xlink:href="#m5dc9cc8c07" x="160.276588" y="467.6575" style="stroke: #000000; stroke-width: 0.8"/>
      </g>
     </g>
     <g id="text_3">
      <!-- 2025-07-14 -->
      <g transform="translate(147.725443 506.830859) rotate(-45) scale(0.08 -0.08)">
       <defs>
        <path id="SimHei-31" d="M 1400 3600 
Q 1075 3275 575 2975 
L 575 3450 
Q 1200 3875 1600 4450 
L 1900 4450 
L 1900 150 
L 1400 150 
L 1400 3600 
z
" transform="scale(0.015625)"/>
        <path id="SimHei-34" d="M 2000 1100 
L 75 1100 
L 75 1525 
L 2100 4450 
L 2475 4450 
L 2475 1525 
L 3075 1525 
L 3075 1100 
L 2475 1100 
L 2475 150 
L 2000 150 
L 2000 1100 
z
M 2000 1525 
L 2000 3500 
L 600 1525 
L 2000 1525 
z
" transform="scale(0.015625)"/>
       </defs>
       <use xlink:href="#SimHei-32"/>
       <use xlink:href="#SimHei-30" transform="translate(50 0)"/>
       <use xlink:href="#SimHei-32" transform="translate(100 0)"/>
       <use xlink:href="#SimHei-35" transform="translate(150 0)"/>
       <use xlink:href="#SimHei-2d" transform="translate(200 0)"/>
       <use xlink:href="#SimHei-30" transform="translate(250 0)"/>
       <use xlink:href="#SimHei-37" transform="translate(300 0)"/>
       <use xlink:href="#SimHei-2d" transform="translate(350 0)"/>
       <use xlink:href="#SimHei-31" transform="translate(400 0)"/>
       <use xlink:href="#SimHei-34" transform="translate(450 0)"/>
      </g>
     </g>
    </g>
    <g id="xtick_4">
     <g id="line2d_4">
      <g>
       <use xlink:href="#m5dc9cc8c07" x="195.928286" y="467.6575" style="stroke: #000000; stroke-width: 0.8"/>
      </g>
     </g>
     <g id="text_4">
      <!-- 2025-07-21 -->
      <g transform="translate(183.377141 506.830859) rotate(-45) scale(0.08 -0.08)">
       <use xlink:href="#SimHei-32"/>
       <use xlink:href="#SimHei-30" transform="translate(50 0)"/>
       <use xlink:href="#SimHei-32" transform="translate(100 0)"/>
       <use xlink:href="#SimHei-35" transform="translate(150 0)"/>
       <use xlink:href="#SimHei-2d" transform="translate(200 0)"/>
       <use xlink:href="#SimHei-30" transform="translate(250 0)"/>
       <use xlink:href="#SimHei-37" transform="translate(300 0)"/>
       <use xlink:href="#SimHei-2d" transform="translate(350 0)"/>
       <use xlink:href="#SimHei-32" transform="translate(400 0)"/>
       <use xlink:href="#SimHei-31" transform="translate(450 0)"/>
      </g>
     </g>
    </g>
    <g id="xtick_5">
     <g id="line2d_5">
      <g>
       <use xlink:href="#m5dc9cc8c07" x="231.579984" y="467.6575" style="stroke: #000000; stroke-width: 0.8"/>
      </g>
     </g>
     <g id="text_5">
      <!-- 2025-07-31 -->
      <g transform="translate(219.028838 506.830859) rotate(-45) scale(0.08 -0.08)">
       <defs>
        <path id="SimHei-33" d="M 250 1225 
L 700 1300 
Q 800 975 1025 762 
Q 1250 550 1587 562 
Q 1925 575 2125 837 
Q 2325 1100 2300 1437 
Q 2275 1775 2037 1962 
Q 1800 2150 1275 2225 
L 1275 2550 
Q 1800 2600 2037 2825 
Q 2275 3050 2250 3412 
Q 2225 3775 1925 3937 
Q 1625 4100 1287 3975 
Q 950 3850 750 3275 
L 300 3350 
Q 450 3800 712 4100 
Q 975 4400 1425 4450 
Q 1875 4500 2212 4337 
Q 2550 4175 2687 3837 
Q 2825 3500 2725 3100 
Q 2625 2700 2150 2400 
Q 2500 2250 2687 1950 
Q 2875 1650 2812 1162 
Q 2750 675 2375 375 
Q 2000 75 1525 87 
Q 1050 100 700 387 
Q 350 675 250 1225 
z
" transform="scale(0.015625)"/>
       </defs>
       <use xlink:href="#SimHei-32"/>
       <use xlink:href="#SimHei-30" transform="translate(50 0)"/>
       <use xlink:href="#SimHei-32" transform="translate(100 0)"/>
       <use xlink:href="#SimHei-35" transform="translate(150 0)"/>
       <use xlink:href="#SimHei-2d" transform="translate(200 0)"/>
       <use xlink:href="#SimHei-30" transform="translate(250 0)"/>
       <use xlink:href="#SimHei-37" transform="translate(300 0)"/>
       <use xlink:href="#SimHei-2d" transform="translate(350 0)"/>
       <use xlink:href="#SimHei-33" transform="translate(400 0)"/>
       <use xlink:href="#SimHei-31" transform="translate(450 0)"/>
      </g>
     </g>
    </g>
    <g id="xtick_6">
     <g id="line2d_6">
      <g>
       <use xlink:href="#m5dc9cc8c07" x="267.231681" y="467.6575" style="stroke: #000000; stroke-width: 0.8"/>
      </g>
     </g>
     <g id="text_6">
      <!-- 2025-08-07 -->
      <g transform="translate(254.680536 506.830859) rotate(-45) scale(0.08 -0.08)">
       <defs>
        <path id="SimHei-38" d="M 175 1375 
Q 175 1675 325 1962 
Q 475 2250 825 2425 
Q 525 2600 425 2812 
Q 325 3025 312 3300 
Q 300 3575 387 3775 
Q 475 3975 650 4150 
Q 825 4325 1037 4387 
Q 1250 4450 1500 4450 
Q 1750 4450 1950 4400 
Q 2150 4350 2375 4187 
Q 2600 4025 2700 3725 
Q 2800 3425 2687 3025 
Q 2575 2625 2100 2400 
Q 2525 2275 2700 2012 
Q 2875 1750 2875 1375 
Q 2875 1000 2762 775 
Q 2650 550 2512 400 
Q 2375 250 2137 162 
Q 1900 75 1537 75 
Q 1175 75 912 162 
Q 650 250 475 425 
Q 300 600 237 837 
Q 175 1075 175 1375 
z
M 687 1400 
Q 675 1100 787 875 
Q 900 650 1200 587 
Q 1500 525 1825 600 
Q 2150 675 2275 950 
Q 2400 1225 2362 1500 
Q 2325 1775 2050 1962 
Q 1775 2150 1450 2125 
Q 1125 2100 912 1900 
Q 700 1700 687 1400 
z
M 775 3350 
Q 775 3100 950 2875 
Q 1125 2650 1500 2650 
Q 1875 2650 2062 2875 
Q 2250 3100 2237 3412 
Q 2225 3725 2012 3875 
Q 1800 4025 1437 4000 
Q 1075 3975 925 3787 
Q 775 3600 775 3350 
z
" transform="scale(0.015625)"/>
       </defs>
       <use xlink:href="#SimHei-32"/>
       <use xlink:href="#SimHei-30" transform="translate(50 0)"/>
       <use xlink:href="#SimHei-32" transform="translate(100 0)"/>
       <use xlink:href="#SimHei-35" transform="translate(150 0)"/>
       <use xlink:href="#SimHei-2d" transform="translate(200 0)"/>
       <use xlink:href="#SimHei-30" transform="translate(250 0)"/>
       <use xlink:href="#SimHei-38" transform="translate(300 0)"/>
       <use xlink:href="#SimHei-2d" transform="translate(350 0)"/>
       <use xlink:href="#SimHei-30" transform="translate(400 0)"/>
       <use xlink:href="#SimHei-37" transform="translate(450 0)"/>
      </g>
     </g>
    </g>
    <g id="xtick_7">
     <g id="line2d_7">
      <g>
       <use xlink:href="#m5dc9cc8c07" x="302.883379" y="467.6575" style="stroke: #000000; stroke-width: 0.8"/>
      </g>
     </g>
     <g id="text_7">
      <!-- 2025-08-14 -->
      <g transform="translate(290.332234 506.830859) rotate(-45) scale(0.08 -0.08)">
       <use xlink:href="#SimHei-32"/>
       <use xlink:href="#SimHei-30" transform="translate(50 0)"/>
       <use xlink:href="#SimHei-32" transform="translate(100 0)"/>
       <use xlink:href="#SimHei-35" transform="translate(150 0)"/>
       <use xlink:href="#SimHei-2d" transform="translate(200 0)"/>
       <use xlink:href="#SimHei-30" transform="translate(250 0)"/>
       <use xlink:href="#SimHei-38" transform="translate(300 0)"/>
       <use xlink:href="#SimHei-2d" transform="translate(350 0)"/>
       <use xlink:href="#SimHei-31" transform="translate(400 0)"/>
       <use xlink:href="#SimHei-34" transform="translate(450 0)"/>
      </g>
     </g>
    </g>
    <g id="xtick_8">
     <g id="line2d_8">
      <g>
       <use xlink:href="#m5dc9cc8c07" x="338.535077" y="467.6575" style="stroke: #000000; stroke-width: 0.8"/>
      </g>
     </g>
     <g id="text_8">
      <!-- 2025-08-26 -->
      <g transform="translate(325.983931 506.830859) rotate(-45) scale(0.08 -0.08)">
       <use xlink:href="#SimHei-32"/>
       <use xlink:href="#SimHei-30" transform="translate(50 0)"/>
       <use xlink:href="#SimHei-32" transform="translate(100 0)"/>
       <use xlink:href="#SimHei-35" transform="translate(150 0)"/>
       <use xlink:href="#SimHei-2d" transform="translate(200 0)"/>
       <use xlink:href="#SimHei-30" transform="translate(250 0)"/>
       <use xlink:href="#SimHei-38" transform="translate(300 0)"/>
       <use xlink:href="#SimHei-2d" transform="translate(350 0)"/>
       <use xlink:href="#SimHei-32" transform="translate(400 0)"/>
       <use xlink:href="#SimHei-36" transform="translate(450 0)"/>
      </g>
     </g>
    </g>
    <g id="xtick_9">
     <g id="line2d_9">
      <g>
       <use xlink:href="#m5dc9cc8c07" x="374.186774" y="467.6575" style="stroke: #000000; stroke-width: 0.8"/>
      </g>
     </g>
     <g id="text_9">
      <!-- 2025-09-03 -->
      <g transform="translate(361.635629 506.830859) rotate(-45) scale(0.08 -0.08)">
       <defs>
        <path id="SimHei-39" d="M 800 75 
Q 1350 1000 1700 1750 
Q 1075 1650 662 1912 
Q 250 2175 162 2625 
Q 75 3075 175 3437 
Q 275 3800 487 4037 
Q 700 4275 1000 4375 
Q 1300 4475 1537 4475 
Q 1775 4475 2025 4375 
Q 2275 4275 2475 4075 
Q 2675 3875 2750 3662 
Q 2825 3450 2825 3112 
Q 2825 2775 2575 2250 
Q 2325 1725 1350 75 
L 800 75 
z
M 662 2875 
Q 700 2550 937 2337 
Q 1175 2125 1450 2150 
Q 1725 2175 1887 2300 
Q 2050 2425 2200 2725 
Q 2300 3100 2250 3362 
Q 2200 3625 1987 3800 
Q 1775 3975 1525 3975 
Q 1375 4000 1137 3900 
Q 900 3800 762 3500 
Q 625 3200 662 2875 
z
" transform="scale(0.015625)"/>
       </defs>
       <use xlink:href="#SimHei-32"/>
       <use xlink:href="#SimHei-30" transform="translate(50 0)"/>
       <use xlink:href="#SimHei-32" transform="translate(100 0)"/>
       <use xlink:href="#SimHei-35" transform="translate(150 0)"/>
       <use xlink:href="#SimHei-2d" transform="translate(200 0)"/>
       <use xlink:href="#SimHei-30" transform="translate(250 0)"/>
       <use xlink:href="#SimHei-39" transform="translate(300 0)"/>
       <use xlink:href="#SimHei-2d" transform="translate(350 0)"/>
       <use xlink:href="#SimHei-30" transform="translate(400 0)"/>
       <use xlink:href="#SimHei-33" transform="translate(450 0)"/>
      </g>
     </g>
    </g>
    <g id="xtick_10">
     <g id="line2d_10">
      <g>
       <use xlink:href="#m5dc9cc8c07" x="409.838472" y="467.6575" style="stroke: #000000; stroke-width: 0.8"/>
      </g>
     </g>
     <g id="text_10">
      <!-- 2025-09-11 -->
      <g transform="translate(397.287327 506.830859) rotate(-45) scale(0.08 -0.08)">
       <use xlink:href="#SimHei-32"/>
       <use xlink:href="#SimHei-30" transform="translate(50 0)"/>
       <use xlink:href="#SimHei-32" transform="translate(100 0)"/>
       <use xlink:href="#SimHei-35" transform="translate(150 0)"/>
       <use xlink:href="#SimHei-2d" transform="translate(200 0)"/>
       <use xlink:href="#SimHei-30" transform="translate(250 0)"/>
       <use xlink:href="#SimHei-39" transform="translate(300 0)"/>
       <use xlink:href="#SimHei-2d" transform="translate(350 0)"/>
       <use xlink:href="#SimHei-31" transform="translate(400 0)"/>
       <use xlink:href="#SimHei-31" transform="translate(450 0)"/>
      </g>
     </g>
    </g>
    <g id="xtick_11">
     <g id="line2d_11">
      <g>
       <use xlink:href="#m5dc9cc8c07" x="445.49017" y="467.6575" style="stroke: #000000; stroke-width: 0.8"/>
      </g>
     </g>
     <g id="text_11">
      <!-- 2025-09-18 -->
      <g transform="translate(432.939024 506.830859) rotate(-45) scale(0.08 -0.08)">
       <use xlink:href="#SimHei-32"/>
       <use xlink:href="#SimHei-30" transform="translate(50 0)"/>
       <use xlink:href="#SimHei-32" transform="translate(100 0)"/>
       <use xlink:href="#SimHei-35" transform="translate(150 0)"/>
       <use xlink:href="#SimHei-2d" transform="translate(200 0)"/>
       <use xlink:href="#SimHei-30" transform="translate(250 0)"/>
       <use xlink:href="#SimHei-39" transform="translate(300 0)"/>
       <use xlink:href="#SimHei-2d" transform="translate(350 0)"/>
       <use xlink:href="#SimHei-31" transform="translate(400 0)"/>
       <use xlink:href="#SimHei-38" transform="translate(450 0)"/>
      </g>
     </g>
    </g>
    <g id="xtick_12">
     <g id="line2d_12">
      <g>
       <use xlink:href="#m5dc9cc8c07" x="481.141867" y="467.6575" style="stroke: #000000; stroke-width: 0.8"/>
      </g>
     </g>
     <g id="text_12">
      <!-- 2025-09-25 -->
      <g transform="translate(468.590722 506.830859) rotate(-45) scale(0.08 -0.08)">
       <use xlink:href="#SimHei-32"/>
       <use xlink:href="#SimHei-30" transform="translate(50 0)"/>
       <use xlink:href="#SimHei-32" transform="translate(100 0)"/>
       <use xlink:href="#SimHei-35" transform="translate(150 0)"/>
       <use xlink:href="#SimHei-2d" transform="translate(200 0)"/>
       <use xlink:href="#SimHei-30" transform="translate(250 0)"/>
       <use xlink:href="#SimHei-39" transform="translate(300 0)"/>
       <use xlink:href="#SimHei-2d" transform="translate(350 0)"/>
       <use xlink:href="#SimHei-32" transform="translate(400 0)"/>
       <use xlink:href="#SimHei-35" transform="translate(450 0)"/>
      </g>
     </g>
    </g>
    <g id="xtick_13">
     <g id="line2d_13">
      <g>
       <use xlink:href="#m5dc9cc8c07" x="516.793565" y="467.6575" style="stroke: #000000; stroke-width: 0.8"/>
      </g>
     </g>
     <g id="text_13">
      <!-- 2025-10-14 -->
      <g transform="translate(504.24242 506.830859) rotate(-45) scale(0.08 -0.08)">
       <use xlink:href="#SimHei-32"/>
       <use xlink:href="#SimHei-30" transform="translate(50 0)"/>
       <use xlink:href="#SimHei-32" transform="translate(100 0)"/>
       <use xlink:href="#SimHei-35" transform="translate(150 0)"/>
       <use xlink:href="#SimHei-2d" transform="translate(200 0)"/>
       <use xlink:href="#SimHei-31" transform="translate(250 0)"/>
       <use xlink:href="#SimHei-30" transform="translate(300 0)"/>
       <use xlink:href="#SimHei-2d" transform="translate(350 0)"/>
       <use xlink:href="#SimHei-31" transform="translate(400 0)"/>
       <use xlink:href="#SimHei-34" transform="translate(450 0)"/>
      </g>
     </g>
    </g>
    <g id="xtick_14">
     <g id="line2d_14">
      <g>
       <use xlink:href="#m5dc9cc8c07" x="552.445263" y="467.6575" style="stroke: #000000; stroke-width: 0.8"/>
      </g>
     </g>
     <g id="text_14">
      <!-- 2025-10-27 -->
      <g transform="translate(539.894118 506.830859) rotate(-45) scale(0.08 -0.08)">
       <use xlink:href="#SimHei-32"/>
       <use xlink:href="#SimHei-30" transform="translate(50 0)"/>
       <use xlink:href="#SimHei-32" transform="translate(100 0)"/>
       <use xlink:href="#SimHei-35" transform="translate(150 0)"/>
       <use xlink:href="#SimHei-2d" transform="translate(200 0)"/>
       <use xlink:href="#SimHei-31" transform="translate(250 0)"/>
       <use xlink:href="#SimHei-30" transform="translate(300 0)"/>
       <use xlink:href="#SimHei-2d" transform="translate(350 0)"/>
       <use xlink:href="#SimHei-32" transform="translate(400 0)"/>
       <use xlink:href="#SimHei-37" transform="translate(450 0)"/>
      </g>
     </g>
    </g>
    <g id="xtick_15">
     <g id="line2d_15">
      <g>
       <use xlink:href="#m5dc9cc8c07" x="588.096961" y="467.6575" style="stroke: #000000; stroke-width: 0.8"/>
      </g>
     </g>
     <g id="text_15">
      <!-- 2025-11-03 -->
      <g transform="translate(575.545815 506.830859) rotate(-45) scale(0.08 -0.08)">
       <use xlink:href="#SimHei-32"/>
       <use xlink:href="#SimHei-30" transform="translate(50 0)"/>
       <use xlink:href="#SimHei-32" transform="translate(100 0)"/>
       <use xlink:href="#SimHei-35" transform="translate(150 0)"/>
       <use xlink:href="#SimHei-2d" transform="translate(200 0)"/>
       <use xlink:href="#SimHei-31" transform="translate(250 0)"/>
       <use xlink:href="#SimHei-31" transform="translate(300 0)"/>
       <use xlink:href="#SimHei-2d" transform="translate(350 0)"/>
       <use xlink:href="#SimHei-30" transform="translate(400 0)"/>
       <use xlink:href="#SimHei-33" transform="translate(450 0)"/>
      </g>
     </g>
    </g>
    <g id="xtick_16">
     <g id="line2d_16">
      <g>
       <use xlink:href="#m5dc9cc8c07" x="623.748658" y="467.6575" style="stroke: #000000; stroke-width: 0.8"/>
      </g>
     </g>
     <g id="text_16">
      <!-- 2025-11-11 -->
      <g transform="translate(611.197513 506.830859) rotate(-45) scale(0.08 -0.08)">
       <use xlink:href="#SimHei-32"/>
       <use xlink:href="#SimHei-30" transform="translate(50 0)"/>
       <use xlink:href="#SimHei-32" transform="translate(100 0)"/>
       <use xlink:href="#SimHei-35" transform="translate(150 0)"/>
       <use xlink:href="#SimHei-2d" transform="translate(200 0)"/>
       <use xlink:href="#SimHei-31" transform="translate(250 0)"/>
       <use xlink:href="#SimHei-31" transform="translate(300 0)"/>
       <use xlink:href="#SimHei-2d" transform="translate(350 0)"/>
       <use xlink:href="#SimHei-31" transform="translate(400 0)"/>
       <use xlink:href="#SimHei-31" transform="translate(450 0)"/>
      </g>
     </g>
    </g>
    <g id="xtick_17">
     <g id="line2d_17">
      <g>
       <use xlink:href="#m5dc9cc8c07" x="659.400356" y="467.6575" style="stroke: #000000; stroke-width: 0.8"/>
      </g>
     </g>
     <g id="text_17">
      <!-- 2025-11-21 -->
      <g transform="translate(646.849211 506.830859) rotate(-45) scale(0.08 -0.08)">
       <use xlink:href="#SimHei-32"/>
       <use xlink:href="#SimHei-30" transform="translate(50 0)"/>
       <use xlink:href="#SimHei-32" transform="translate(100 0)"/>
       <use xlink:href="#SimHei-35" transform="translate(150 0)"/>
       <use xlink:href="#SimHei-2d" transform="translate(200 0)"/>
       <use xlink:href="#SimHei-31" transform="translate(250 0)"/>
       <use xlink:href="#SimHei-31" transform="translate(300 0)"/>
       <use xlink:href="#SimHei-2d" transform="translate(350 0)"/>
       <use xlink:href="#SimHei-32" transform="translate(400 0)"/>
       <use xlink:href="#SimHei-31" transform="translate(450 0)"/>
      </g>
     </g>
    </g>
    <g id="xtick_18">
     <g id="line2d_18">
      <g>
       <use xlink:href="#m5dc9cc8c07" x="695.052054" y="467.6575" style="stroke: #000000; stroke-width: 0.8"/>
      </g>
     </g>
     <g id="text_18">
      <!-- 2025-12-02 -->
      <g transform="translate(682.500908 506.830859) rotate(-45) scale(0.08 -0.08)">
       <use xlink:href="#SimHei-32"/>
       <use xlink:href="#SimHei-30" transform="translate(50 0)"/>
       <use xlink:href="#SimHei-32" transform="translate(100 0)"/>
       <use xlink:href="#SimHei-35" transform="translate(150 0)"/>
       <use xlink:href="#SimHei-2d" transform="translate(200 0)"/>
       <use xlink:href="#SimHei-31" transform="translate(250 0)"/>
       <use xlink:href="#SimHei-32" transform="translate(300 0)"/>
       <use xlink:href="#SimHei-2d" transform="translate(350 0)"/>
       <use xlink:href="#SimHei-30" transform="translate(400 0)"/>
       <use xlink:href="#SimHei-32" transform="translate(450 0)"/>
      </g>
     </g>
    </g>
    <g id="xtick_19">
     <g id="line2d_19">
      <g>
       <use xlink:href="#m5dc9cc8c07" x="730.703751" y="467.6575" style="stroke: #000000; stroke-width: 0.8"/>
      </g>
     </g>
     <g id="text_19">
      <!-- 2025-12-11 -->
      <g transform="translate(718.152606 506.830859) rotate(-45) scale(0.08 -0.08)">
       <use xlink:href="#SimHei-32"/>
       <use xlink:href="#SimHei-30" transform="translate(50 0)"/>
       <use xlink:href="#SimHei-32" transform="translate(100 0)"/>
       <use xlink:href="#SimHei-35" transform="translate(150 0)"/>
       <use xlink:href="#SimHei-2d" transform="translate(200 0)"/>
       <use xlink:href="#SimHei-31" transform="translate(250 0)"/>
       <use xlink:href="#SimHei-32" transform="translate(300 0)"/>
       <use xlink:href="#SimHei-2d" transform="translate(350 0)"/>
       <use xlink:href="#SimHei-31" transform="translate(400 0)"/>
       <use xlink:href="#SimHei-31" transform="translate(450 0)"/>
      </g>
     </g>
    </g>
    <g id="xtick_20">
     <g id="line2d_20">
      <g>
       <use xlink:href="#m5dc9cc8c07" x="766.355449" y="467.6575" style="stroke: #000000; stroke-width: 0.8"/>
      </g>
     </g>
     <g id="text_20">
      <!-- 2025-12-22 -->
      <g transform="translate(753.804304 506.830859) rotate(-45) scale(0.08 -0.08)">
       <use xlink:href="#SimHei-32"/>
       <use xlink:href="#SimHei-30" transform="translate(50 0)"/>
       <use xlink:href="#SimHei-32" transform="translate(100 0)"/>
       <use xlink:href="#SimHei-35" transform="translate(150 0)"/>
       <use xlink:href="#SimHei-2d" transform="translate(200 0)"/>
       <use xlink:href="#SimHei-31" transform="translate(250 0)"/>
       <use xlink:href="#SimHei-32" transform="translate(300 0)"/>
       <use xlink:href="#SimHei-2d" transform="translate(350 0)"/>
       <use xlink:href="#SimHei-32" transform="translate(400 0)"/>
       <use xlink:href="#SimHei-32" transform="translate(450 0)"/>
      </g>
     </g>
    </g>
   </g>
   <g id="matplotlib.axis_2">
    <g id="ytick_1">
     <g id="line2d_21">
      <defs>
       <path id="m253b2739ef" d="M 0 0 
L -3.5 0 
" style="stroke: #000000; stroke-width: 0.8"/>
      </defs>
      <g>
       <use xlink:href="#m253b2739ef" x="51.325" y="465.114646" style="stroke: #000000; stroke-width: 0.8"/>
      </g>
     </g>
     <g id="text_21">
      <!-- 22000 -->
      <g transform="translate(19.325 468.552146) scale(0.1 -0.1)">
       <use xlink:href="#SimHei-32"/>
       <use xlink:href="#SimHei-32" transform="translate(50 0)"/>
       <use xlink:href="#SimHei-30" transform="translate(100 0)"/>
       <use xlink:href="#SimHei-30" transform="translate(150 0)"/>
       <use xlink:href="#SimHei-30" transform="translate(200 0)"/>
      </g>
     </g>
    </g>
    <g id="ytick_2">
     <g id="line2d_22">
      <g>
       <use xlink:href="#m253b2739ef" x="51.325" y="414.802943" style="stroke: #000000; stroke-width: 0.8"/>
      </g>
     </g>
     <g id="text_22">
      <!-- 22500 -->
      <g transform="translate(19.325 418.240443) scale(0.1 -0.1)">
       <use xlink:href="#SimHei-32"/>
       <use xlink:href="#SimHei-32" transform="translate(50 0)"/>
       <use xlink:href="#SimHei-35" transform="translate(100 0)"/>
       <use xlink:href="#SimHei-30" transform="translate(150 0)"/>
       <use xlink:href="#SimHei-30" transform="translate(200 0)"/>
      </g>
     </g>
    </g>
    <g id="ytick_3">
     <g id="line2d_23">
      <g>
       <use xlink:href="#m253b2739ef" x="51.325" y="364.49124" style="stroke: #000000; stroke-width: 0.8"/>
      </g>
     </g>
     <g id="text_23">
      <!-- 23000 -->
      <g transform="translate(19.325 367.92874) scale(0.1 -0.1)">
       <use xlink:href="#SimHei-32"/>
       <use xlink:href="#SimHei-33" transform="translate(50 0)"/>
       <use xlink:href="#SimHei-30" transform="translate(100 0)"/>
       <use xlink:href="#SimHei-30" transform="translate(150 0)"/>
       <use xlink:href="#SimHei-30" transform="translate(200 0)"/>
      </g>
     </g>
    </g>
    <g id="ytick_4">
     <g id="line2d_24">
      <g>
       <use xlink:href="#m253b2739ef" x="51.325" y="314.179537" style="stroke: #000000; stroke-width: 0.8"/>
      </g>
     </g>
     <g id="text_24">
      <!-- 23500 -->
      <g transform="translate(19.325 317.617037) scale(0.1 -0.1)">
       <use xlink:href="#SimHei-32"/>
       <use xlink:href="#SimHei-33" transform="translate(50 0)"/>
       <use xlink:href="#SimHei-35" transform="translate(100 0)"/>
       <use xlink:href="#SimHei-30" transform="translate(150 0)"/>
       <use xlink:href="#SimHei-30" transform="translate(200 0)"/>
      </g>
     </g>
    </g>
    <g id="ytick_5">
     <g id="line2d_25">
      <g>
       <use xlink:href="#m253b2739ef" x="51.325" y="263.867834" style="stroke: #000000; stroke-width: 0.8"/>
      </g>
     </g>
     <g id="text_25">
      <!-- 24000 -->
      <g transform="translate(19.325 267.305334) scale(0.1 -0.1)">
       <use xlink:href="#SimHei-32"/>
       <use xlink:href="#SimHei-34" transform="translate(50 0)"/>
       <use xlink:href="#SimHei-30" transform="translate(100 0)"/>
       <use xlink:href="#SimHei-30" transform="translate(150 0)"/>
       <use xlink:href="#SimHei-30" transform="translate(200 0)"/>
      </g>
     </g>
    </g>
    <g id="ytick_6">
     <g id="line2d_26">
      <g>
       <use xlink:href="#m253b2739ef" x="51.325" y="213.556131" style="stroke: #000000; stroke-width: 0.8"/>
      </g>
     </g>
     <g id="text_26">
      <!-- 24500 -->
      <g transform="translate(19.325 216.993631) scale(0.1 -0.1)">
       <use xlink:href="#SimHei-32"/>
       <use xlink:href="#SimHei-34" transform="translate(50 0)"/>
       <use xlink:href="#SimHei-35" transform="translate(100 0)"/>
       <use xlink:href="#SimHei-30" transform="translate(150 0)"/>
       <use xlink:href="#SimHei-30" transform="translate(200 0)"/>
      </g>
     </g>
    </g>
    <g id="ytick_7">
     <g id="line2d_27">
      <g>
       <use xlink:href="#m253b2739ef" x="51.325" y="163.244428" style="stroke: #000000; stroke-width: 0.8"/>
      </g>
     </g>
     <g id="text_27">
      <!-- 25000 -->
      <g transform="translate(19.325 166.681928) scale(0.1 -0.1)">
       <use xlink:href="#SimHei-32"/>
       <use xlink:href="#SimHei-35" transform="translate(50 0)"/>
       <use xlink:href="#SimHei-30" transform="translate(100 0)"/>
       <use xlink:href="#SimHei-30" transform="translate(150 0)"/>
       <use xlink:href="#SimHei-30" transform="translate(200 0)"/>
      </g>
     </g>
    </g>
    <g id="ytick_8">
     <g id="line2d_28">
      <g>
       <use xlink:href="#m253b2739ef" x="51.325" y="112.932725" style="stroke: #000000; stroke-width: 0.8"/>
      </g>
     </g>
     <g id="text_28">
      <!-- 25500 -->
      <g transform="translate(19.325 116.370225) scale(0.1 -0.1)">
       <use xlink:href="#SimHei-32"/>
       <use xlink:href="#SimHei-35" transform="translate(50 0)"/>
       <use xlink:href="#SimHei-35" transform="translate(100 0)"/>
       <use xlink:href="#SimHei-30" transform="translate(150 0)"/>
       <use xlink:href="#SimHei-30" transform="translate(200 0)"/>
      </g>
     </g>
    </g>
    <g id="ytick_9">
     <g id="line2d_29">
      <g>
       <use xlink:href="#m253b2739ef" x="51.325" y="62.621022" style="stroke: #000000; stroke-width: 0.8"/>
      </g>
     </g>
     <g id="text_29">
      <!-- 26000 -->
      <g transform="translate(19.325 66.058522) scale(0.1 -0.1)">
       <use xlink:href="#SimHei-32"/>
       <use xlink:href="#SimHei-36" transform="translate(50 0)"/>
       <use xlink:href="#SimHei-30" transform="translate(100 0)"/>
       <use xlink:href="#SimHei-30" transform="translate(150 0)"/>
       <use xlink:href="#SimHei-30" transform="translate(200 0)"/>
      </g>
     </g>
    </g>
    <g id="text_30">
     <!-- Price -->
     <g transform="translate(14.075 258.3975) rotate(-90) scale(0.1 -0.1)">
      <defs>
       <path id="SimHei-50" d="M 2950 3100 
Q 2950 2500 2600 2150 
Q 2250 1800 1625 1800 
L 900 1800 
L 900 125 
L 325 125 
L 325 4400 
L 1625 4400 
Q 2250 4400 2600 4050 
Q 2950 3700 2950 3100 
z
M 2375 3100 
Q 2375 3575 2150 3750 
Q 1925 3925 1475 3925 
L 900 3925 
L 900 2275 
L 1475 2275 
Q 1925 2275 2150 2450 
Q 2375 2625 2375 3100 
z
" transform="scale(0.015625)"/>
       <path id="SimHei-72" d="M 2500 2425 
Q 2025 2500 1700 2287 
Q 1375 2075 1150 1550 
L 1150 125 
L 650 125 
L 650 2925 
L 1150 2925 
L 1150 2200 
Q 1375 2600 1712 2787 
Q 2050 2975 2500 2975 
L 2500 2425 
z
" transform="scale(0.015625)"/>
       <path id="SimHei-69" d="M 1800 3725 
L 1300 3725 
L 1300 4375 
L 1800 4375 
L 1800 3725 
z
M 1800 125 
L 1300 125 
L 1300 2925 
L 1800 2925 
L 1800 125 
z
" transform="scale(0.015625)"/>
       <path id="SimHei-63" d="M 2850 1250 
Q 2850 725 2487 400 
Q 2125 75 1575 75 
Q 1025 75 625 462 
Q 225 850 225 1525 
Q 225 2200 625 2587 
Q 1025 2975 1575 2975 
Q 2125 2975 2450 2687 
Q 2775 2400 2775 2000 
L 2225 2000 
Q 2200 2300 2012 2412 
Q 1825 2525 1575 2525 
Q 1275 2525 1025 2287 
Q 775 2050 775 1525 
Q 775 1000 1025 762 
Q 1275 525 1575 525 
Q 1900 525 2100 700 
Q 2300 875 2300 1250 
L 2850 1250 
z
" transform="scale(0.015625)"/>
       <path id="SimHei-65" d="M 2850 1075 
Q 2800 625 2450 350 
Q 2100 75 1625 75 
Q 1025 75 637 462 
Q 250 850 250 1525 
Q 250 2200 637 2587 
Q 1025 2975 1625 2975 
Q 2150 2975 2487 2637 
Q 2825 2300 2825 1525 
L 800 1525 
Q 800 975 1037 750 
Q 1275 525 1625 525 
Q 1900 525 2075 662 
Q 2250 800 2300 1075 
L 2850 1075 
z
M 2250 1925 
Q 2200 2275 2025 2412 
Q 1850 2550 1575 2550 
Q 1325 2550 1125 2412 
Q 925 2275 825 1925 
L 2250 1925 
z
" transform="scale(0.015625)"/>
      </defs>
      <use xlink:href="#SimHei-50"/>
      <use xlink:href="#SimHei-72" transform="translate(50 0)"/>
      <use xlink:href="#SimHei-69" transform="translate(100 0)"/>
      <use xlink:href="#SimHei-63" transform="translate(150 0)"/>
      <use xlink:href="#SimHei-65" transform="translate(200 0)"/>
     </g>
    </g>
   </g>
   <g id="line2d_30">
    <path d="M 331.404737 368.546363 
L 566.705942 44.2975 
" clip-path="url(#p85c80b43b1)" style="fill: none; stroke: #800080; stroke-opacity: 0.8; stroke-width: 1.5; stroke-linecap: square"/>
   </g>
   <g id="line2d_31">
    <path d="M 659.400356 278.555833 
L 716.443072 79.912148 
" clip-path="url(#p85c80b43b1)" style="fill: none; stroke: #800080; stroke-opacity: 0.8; stroke-width: 1.5; stroke-linecap: square"/>
   </g>
   <g id="line2d_32">
    <path d="M 752.09477 198.70311 
L 787.746468 91.126627 
" clip-path="url(#p85c80b43b1)" style="fill: none; stroke: #800080; stroke-opacity: 0.8; stroke-width: 1.5; stroke-linecap: square"/>
   </g>
   <g id="patch_203">
    <path d="M 51.325 467.6575 
L 51.325 24.1375 
" style="fill: none; stroke: #000000; stroke-width: 0.8; stroke-linejoin: miter; stroke-linecap: square"/>
   </g>
   <g id="patch_204">
    <path d="M 832.525 467.6575 
L 832.525 24.1375 
" style="fill: none; stroke: #000000; stroke-width: 0.8; stroke-linejoin: miter; stroke-linecap: square"/>
   </g>
   <g id="patch_205">
    <path d="M 51.325 467.6575 
L 832.525 467.6575 
" style="fill: none; stroke: #000000; stroke-width: 0.8; stroke-linejoin: miter; stroke-linecap: square"/>
   </g>
   <g id="patch_206">
    <path d="M 51.325 24.1375 
L 832.525 24.1375 
" style="fill: none; stroke: #000000; stroke-width: 0.8; stroke-linejoin: miter; stroke-linecap: square"/>
   </g>
   <g id="text_31">
    <!-- Tx -->
    <g style="fill: #808080" transform="translate(112.503313 390.228544) scale(0.08 -0.08)">
     <defs>
      <path id="SimHei-54" d="M 2850 3925 
L 1850 3925 
L 1850 125 
L 1275 125 
L 1275 3925 
L 275 3925 
L 275 4400 
L 2850 4400 
L 2850 3925 
z
" transform="scale(0.015625)"/>
      <path id="SimHei-78" d="M 2875 125 
L 2275 125 
L 1550 1200 
L 825 125 
L 225 125 
L 1250 1550 
L 300 2925 
L 900 2925 
L 1550 1875 
L 2200 2925 
L 2800 2925 
L 1850 1550 
L 2875 125 
z
" transform="scale(0.015625)"/>
     </defs>
     <use xlink:href="#SimHei-54"/>
     <use xlink:href="#SimHei-78" transform="translate(50 0)"/>
    </g>
   </g>
   <g id="text_32">
    <!-- Bx -->
    <g style="fill: #808080" transform="translate(119.633653 430.56924) scale(0.08 -0.08)">
     <defs>
      <path id="SimHei-42" d="M 2950 1400 
Q 2950 675 2550 400 
Q 2150 125 1525 125 
L 275 125 
L 275 4400 
L 1575 4400 
Q 2200 4400 2512 4075 
Q 2825 3750 2825 3300 
Q 2825 2850 2612 2637 
Q 2400 2425 2175 2350 
Q 2475 2275 2712 2037 
Q 2950 1800 2950 1400 
z
M 2250 3300 
Q 2250 3625 2062 3775 
Q 1875 3925 1600 3925 
L 850 3925 
L 850 2600 
L 1575 2600 
Q 1850 2600 2050 2762 
Q 2250 2925 2250 3300 
z
M 2350 1400 
Q 2350 1800 2087 1962 
Q 1825 2125 1500 2125 
L 850 2125 
L 850 600 
L 1425 600 
Q 1875 600 2112 775 
Q 2350 950 2350 1400 
z
" transform="scale(0.015625)"/>
     </defs>
     <use xlink:href="#SimHei-42"/>
     <use xlink:href="#SimHei-78" transform="translate(50 0)"/>
    </g>
   </g>
   <g id="text_33">
    <!-- Tx -->
    <g style="fill: #808080" transform="translate(133.894332 372.651143) scale(0.08 -0.08)">
     <use xlink:href="#SimHei-54"/>
     <use xlink:href="#SimHei-78" transform="translate(50 0)"/>
    </g>
   </g>
   <g id="text_34">
    <!-- Tx -->
    <g style="fill: #808080" transform="translate(148.155011 370.705205) scale(0.08 -0.08)">
     <use xlink:href="#SimHei-54"/>
     <use xlink:href="#SimHei-78" transform="translate(50 0)"/>
    </g>
   </g>
   <g id="text_35">
    <!-- Tx -->
    <g style="fill: #808080" transform="translate(169.54603 356.952346) scale(0.08 -0.08)">
     <use xlink:href="#SimHei-54"/>
     <use xlink:href="#SimHei-78" transform="translate(50 0)"/>
    </g>
   </g>
   <g id="text_36">
    <!-- Tx -->
    <g style="fill: #808080" transform="translate(198.067388 335.540432) scale(0.08 -0.08)">
     <use xlink:href="#SimHei-54"/>
     <use xlink:href="#SimHei-78" transform="translate(50 0)"/>
    </g>
   </g>
   <g id="text_37">
    <!-- Tx -->
    <g style="fill: #808080" transform="translate(226.588746 310.714981) scale(0.08 -0.08)">
     <use xlink:href="#SimHei-54"/>
     <use xlink:href="#SimHei-78" transform="translate(50 0)"/>
    </g>
   </g>
   <g id="text_38">
    <!-- T 23969.27 -->
    <g transform="translate(297.892141 264.548122) scale(0.08 -0.08)">
     <defs>
      <path id="SimHei-20" transform="scale(0.015625)"/>
      <path id="SimHei-2e" d="M 1075 125 
L 500 125 
L 500 675 
L 1075 675 
L 1075 125 
z
" transform="scale(0.015625)"/>
     </defs>
     <use xlink:href="#SimHei-54"/>
     <use xlink:href="#SimHei-20" transform="translate(50 0)"/>
     <use xlink:href="#SimHei-32" transform="translate(100 0)"/>
     <use xlink:href="#SimHei-33" transform="translate(150 0)"/>
     <use xlink:href="#SimHei-39" transform="translate(200 0)"/>
     <use xlink:href="#SimHei-36" transform="translate(250 0)"/>
     <use xlink:href="#SimHei-39" transform="translate(300 0)"/>
     <use xlink:href="#SimHei-2e" transform="translate(350 0)"/>
     <use xlink:href="#SimHei-32" transform="translate(400 0)"/>
     <use xlink:href="#SimHei-37" transform="translate(450 0)"/>
    </g>
   </g>
   <g id="text_39">
    <!-- B 22959.70 -->
    <g style="fill: #0000ff" transform="translate(333.543839 373.16693) scale(0.08 -0.08)">
     <use xlink:href="#SimHei-42"/>
     <use xlink:href="#SimHei-20" transform="translate(50 0)"/>
     <use xlink:href="#SimHei-32" transform="translate(100 0)"/>
     <use xlink:href="#SimHei-32" transform="translate(150 0)"/>
     <use xlink:href="#SimHei-39" transform="translate(200 0)"/>
     <use xlink:href="#SimHei-35" transform="translate(250 0)"/>
     <use xlink:href="#SimHei-39" transform="translate(300 0)"/>
     <use xlink:href="#SimHei-2e" transform="translate(350 0)"/>
     <use xlink:href="#SimHei-37" transform="translate(400 0)"/>
     <use xlink:href="#SimHei-30" transform="translate(450 0)"/>
    </g>
   </g>
   <g id="text_40">
    <!-- Tx -->
    <g style="fill: #808080" transform="translate(354.934858 287.517229) scale(0.08 -0.08)">
     <use xlink:href="#SimHei-54"/>
     <use xlink:href="#SimHei-78" transform="translate(50 0)"/>
    </g>
   </g>
   <g id="text_41">
    <!-- Tx -->
    <g style="fill: #808080" transform="translate(390.586555 275.529055) scale(0.08 -0.08)">
     <use xlink:href="#SimHei-54"/>
     <use xlink:href="#SimHei-78" transform="translate(50 0)"/>
    </g>
   </g>
   <g id="text_42">
    <!-- Bx -->
    <g style="fill: #808080" transform="translate(397.716895 299.02525) scale(0.08 -0.08)">
     <use xlink:href="#SimHei-42"/>
     <use xlink:href="#SimHei-78" transform="translate(50 0)"/>
    </g>
   </g>
   <g id="text_43">
    <!-- Tx -->
    <g style="fill: #808080" transform="translate(433.368593 226.869277) scale(0.08 -0.08)">
     <use xlink:href="#SimHei-54"/>
     <use xlink:href="#SimHei-78" transform="translate(50 0)"/>
    </g>
   </g>
   <g id="text_44">
    <!-- Tx -->
    <g style="fill: #808080" transform="translate(461.889951 182.713877) scale(0.08 -0.08)">
     <use xlink:href="#SimHei-54"/>
     <use xlink:href="#SimHei-78" transform="translate(50 0)"/>
    </g>
   </g>
   <g id="text_45">
    <!-- Bx -->
    <g style="fill: #808080" transform="translate(504.671988 246.429144) scale(0.08 -0.08)">
     <use xlink:href="#SimHei-42"/>
     <use xlink:href="#SimHei-78" transform="translate(50 0)"/>
    </g>
   </g>
   <g id="text_46">
    <!-- Tx -->
    <g style="fill: #808080" transform="translate(511.802327 182.923383) scale(0.08 -0.08)">
     <use xlink:href="#SimHei-54"/>
     <use xlink:href="#SimHei-78" transform="translate(50 0)"/>
    </g>
   </g>
   <g id="text_47">
    <!-- Tx -->
    <g style="fill: #808080" transform="translate(533.193346 142.214759) scale(0.08 -0.08)">
     <use xlink:href="#SimHei-54"/>
     <use xlink:href="#SimHei-78" transform="translate(50 0)"/>
    </g>
   </g>
   <g id="text_48">
    <!-- T 26182.10 -->
    <g transform="translate(568.845044 41.662968) scale(0.08 -0.08)">
     <use xlink:href="#SimHei-54"/>
     <use xlink:href="#SimHei-20" transform="translate(50 0)"/>
     <use xlink:href="#SimHei-32" transform="translate(100 0)"/>
     <use xlink:href="#SimHei-36" transform="translate(150 0)"/>
     <use xlink:href="#SimHei-31" transform="translate(200 0)"/>
     <use xlink:href="#SimHei-38" transform="translate(250 0)"/>
     <use xlink:href="#SimHei-32" transform="translate(300 0)"/>
     <use xlink:href="#SimHei-2e" transform="translate(350 0)"/>
     <use xlink:href="#SimHei-31" transform="translate(400 0)"/>
     <use xlink:href="#SimHei-30" transform="translate(450 0)"/>
    </g>
   </g>
   <g id="text_49">
    <!-- Bx -->
    <g style="fill: #808080" transform="translate(618.757421 208.064866) scale(0.08 -0.08)">
     <use xlink:href="#SimHei-42"/>
     <use xlink:href="#SimHei-78" transform="translate(50 0)"/>
    </g>
   </g>
   <g id="text_50">
    <!-- Tx -->
    <g style="fill: #808080" transform="translate(633.0181 93.931688) scale(0.08 -0.08)">
     <use xlink:href="#SimHei-54"/>
     <use xlink:href="#SimHei-78" transform="translate(50 0)"/>
    </g>
   </g>
   <g id="text_51">
    <!-- B 23854.03 -->
    <g style="fill: #0000ff" transform="translate(661.539458 283.35638) scale(0.08 -0.08)">
     <use xlink:href="#SimHei-42"/>
     <use xlink:href="#SimHei-20" transform="translate(50 0)"/>
     <use xlink:href="#SimHei-32" transform="translate(100 0)"/>
     <use xlink:href="#SimHei-33" transform="translate(150 0)"/>
     <use xlink:href="#SimHei-38" transform="translate(200 0)"/>
     <use xlink:href="#SimHei-35" transform="translate(250 0)"/>
     <use xlink:href="#SimHei-34" transform="translate(300 0)"/>
     <use xlink:href="#SimHei-2e" transform="translate(350 0)"/>
     <use xlink:href="#SimHei-30" transform="translate(400 0)"/>
     <use xlink:href="#SimHei-33" transform="translate(450 0)"/>
    </g>
   </g>
   <g id="text_52">
    <!-- T 25828.16 -->
    <g transform="translate(718.582174 77.313231) scale(0.08 -0.08)">
     <use xlink:href="#SimHei-54"/>
     <use xlink:href="#SimHei-20" transform="translate(50 0)"/>
     <use xlink:href="#SimHei-32" transform="translate(100 0)"/>
     <use xlink:href="#SimHei-35" transform="translate(150 0)"/>
     <use xlink:href="#SimHei-38" transform="translate(200 0)"/>
     <use xlink:href="#SimHei-32" transform="translate(250 0)"/>
     <use xlink:href="#SimHei-38" transform="translate(300 0)"/>
     <use xlink:href="#SimHei-2e" transform="translate(350 0)"/>
     <use xlink:href="#SimHei-31" transform="translate(400 0)"/>
     <use xlink:href="#SimHei-36" transform="translate(450 0)"/>
    </g>
   </g>
   <g id="text_53">
    <!-- B 24647.61 -->
    <g style="fill: #0000ff" transform="translate(754.233872 203.663363) scale(0.08 -0.08)">
     <use xlink:href="#SimHei-42"/>
     <use xlink:href="#SimHei-20" transform="translate(50 0)"/>
     <use xlink:href="#SimHei-32" transform="translate(100 0)"/>
     <use xlink:href="#SimHei-34" transform="translate(150 0)"/>
     <use xlink:href="#SimHei-36" transform="translate(200 0)"/>
     <use xlink:href="#SimHei-34" transform="translate(250 0)"/>
     <use xlink:href="#SimHei-37" transform="translate(300 0)"/>
     <use xlink:href="#SimHei-2e" transform="translate(350 0)"/>
     <use xlink:href="#SimHei-36" transform="translate(400 0)"/>
     <use xlink:href="#SimHei-31" transform="translate(450 0)"/>
    </g>
   </g>
   <g id="text_54">
    <!-- T 25716.71 -->
    <g transform="translate(789.88557 88.538924) scale(0.08 -0.08)">
     <use xlink:href="#SimHei-54"/>
     <use xlink:href="#SimHei-20" transform="translate(50 0)"/>
     <use xlink:href="#SimHei-32" transform="translate(100 0)"/>
     <use xlink:href="#SimHei-35" transform="translate(150 0)"/>
     <use xlink:href="#SimHei-37" transform="translate(200 0)"/>
     <use xlink:href="#SimHei-31" transform="translate(250 0)"/>
     <use xlink:href="#SimHei-36" transform="translate(300 0)"/>
     <use xlink:href="#SimHei-2e" transform="translate(350 0)"/>
     <use xlink:href="#SimHei-37" transform="translate(400 0)"/>
     <use xlink:href="#SimHei-31" transform="translate(450 0)"/>
    </g>
   </g>
   <g id="text_55">
    <!-- Stroke Identification (Bill Williams / Chan Theory) -->
    <g transform="translate(263.425 18.1375) scale(0.14 -0.14)">
     <defs>
      <path id="SimHei-53" d="M 2900 1325 
Q 2900 750 2537 412 
Q 2175 75 1550 75 
Q 925 75 575 425 
Q 225 775 225 1300 
L 225 1475 
L 800 1475 
L 800 1325 
Q 800 950 1025 750 
Q 1250 550 1550 550 
Q 1950 550 2137 762 
Q 2325 975 2325 1275 
Q 2325 1525 2100 1737 
Q 1875 1950 1450 2125 
Q 850 2350 587 2625 
Q 325 2900 325 3275 
Q 325 3800 687 4125 
Q 1050 4450 1550 4450 
Q 2200 4450 2487 4062 
Q 2775 3675 2775 3225 
L 2200 3225 
Q 2225 3500 2050 3725 
Q 1875 3950 1550 3950 
Q 1250 3950 1075 3787 
Q 900 3625 900 3350 
Q 900 3125 1037 2962 
Q 1175 2800 1750 2575 
Q 2300 2350 2600 2037 
Q 2900 1725 2900 1325 
z
" transform="scale(0.015625)"/>
      <path id="SimHei-74" d="M 2750 200 
Q 2625 150 2462 112 
Q 2300 75 2025 75 
Q 1575 75 1300 325 
Q 1025 575 1025 1025 
L 1025 2525 
L 175 2525 
L 175 2925 
L 1025 2925 
L 1025 3900 
L 1525 3900 
L 1525 2925 
L 2550 2925 
L 2550 2525 
L 1525 2525 
L 1525 1000 
Q 1525 800 1625 662 
Q 1725 525 2000 525 
Q 2275 525 2450 575 
Q 2625 625 2750 700 
L 2750 200 
z
" transform="scale(0.015625)"/>
      <path id="SimHei-6f" d="M 2925 1525 
Q 2925 875 2525 475 
Q 2125 75 1575 75 
Q 1025 75 625 475 
Q 225 875 225 1525 
Q 225 2175 625 2575 
Q 1025 2975 1575 2975 
Q 2125 2975 2525 2575 
Q 2925 2175 2925 1525 
z
M 2375 1525 
Q 2375 2025 2125 2275 
Q 1875 2525 1575 2525 
Q 1275 2525 1025 2275 
Q 775 2025 775 1525 
Q 775 1025 1025 775 
Q 1275 525 1575 525 
Q 1875 525 2125 775 
Q 2375 1025 2375 1525 
z
" transform="scale(0.015625)"/>
      <path id="SimHei-6b" d="M 2925 125 
L 2350 125 
L 1450 1650 
L 875 1100 
L 875 125 
L 375 125 
L 375 4400 
L 875 4400 
L 875 1675 
L 2125 2925 
L 2750 2925 
L 1775 1975 
L 2925 125 
z
" transform="scale(0.015625)"/>
      <path id="SimHei-49" d="M 1850 125 
L 1275 125 
L 1275 4400 
L 1850 4400 
L 1850 125 
z
" transform="scale(0.015625)"/>
      <path id="SimHei-64" d="M 2750 125 
L 2250 125 
L 2250 500 
Q 2100 275 1900 175 
Q 1700 75 1425 75 
Q 925 75 575 437 
Q 225 800 225 1525 
Q 225 2250 575 2625 
Q 925 3000 1425 3000 
Q 1700 3000 1900 2887 
Q 2100 2775 2250 2550 
L 2250 4400 
L 2750 4400 
L 2750 125 
z
M 2250 1525 
Q 2250 2000 2037 2275 
Q 1825 2550 1525 2550 
Q 1150 2550 962 2275 
Q 775 2000 775 1525 
Q 775 1050 962 787 
Q 1150 525 1525 525 
Q 1825 525 2037 787 
Q 2250 1050 2250 1525 
z
" transform="scale(0.015625)"/>
      <path id="SimHei-6e" d="M 2800 125 
L 2300 125 
L 2300 1925 
Q 2300 2225 2150 2400 
Q 2000 2575 1750 2575 
Q 1425 2575 1137 2237 
Q 850 1900 850 1400 
L 850 125 
L 350 125 
L 350 2925 
L 850 2925 
L 850 2400 
Q 1050 2675 1287 2825 
Q 1525 2975 1900 2975 
Q 2350 2975 2575 2725 
Q 2800 2475 2800 2100 
L 2800 125 
z
" transform="scale(0.015625)"/>
      <path id="SimHei-66" d="M 2850 3825 
Q 2725 3900 2550 3950 
Q 2375 4000 2100 4000 
Q 1825 4000 1725 3862 
Q 1625 3725 1625 3525 
L 1625 2925 
L 2650 2925 
L 2650 2525 
L 1625 2525 
L 1625 125 
L 1125 125 
L 1125 2525 
L 275 2525 
L 275 2925 
L 1125 2925 
L 1125 3500 
Q 1125 3950 1400 4200 
Q 1675 4450 2125 4450 
Q 2400 4450 2562 4412 
Q 2725 4375 2850 4325 
L 2850 3825 
z
" transform="scale(0.015625)"/>
      <path id="SimHei-61" d="M 2875 125 
L 2275 125 
Q 2225 175 2200 262 
Q 2175 350 2175 475 
Q 2000 275 1750 175 
Q 1500 75 1225 75 
Q 825 75 550 275 
Q 275 475 275 850 
Q 275 1225 525 1450 
Q 775 1675 1300 1750 
Q 1650 1800 1912 1875 
Q 2175 1950 2175 2075 
Q 2175 2225 2062 2375 
Q 1950 2525 1575 2525 
Q 1275 2525 1137 2412 
Q 1000 2300 950 2100 
L 400 2100 
Q 450 2500 762 2737 
Q 1075 2975 1575 2975 
Q 2125 2975 2400 2725 
Q 2675 2475 2675 2025 
L 2675 650 
Q 2675 500 2725 375 
Q 2775 250 2875 125 
z
M 2175 1050 
L 2175 1550 
Q 2025 1500 1887 1462 
Q 1750 1425 1425 1375 
Q 1050 1325 937 1200 
Q 825 1075 825 900 
Q 825 750 937 637 
Q 1050 525 1275 525 
Q 1500 525 1762 650 
Q 2025 775 2175 1050 
z
" transform="scale(0.015625)"/>
      <path id="SimHei-28" d="M 2975 -200 
L 2700 -475 
Q 2075 125 1762 775 
Q 1450 1425 1450 2250 
Q 1450 3075 1762 3725 
Q 2075 4375 2700 5000 
L 2975 4725 
Q 2400 4175 2112 3587 
Q 1825 3000 1825 2250 
Q 1825 1500 2112 912 
Q 2400 325 2975 -200 
z
" transform="scale(0.015625)"/>
      <path id="SimHei-6c" d="M 1825 125 
L 1325 125 
L 1325 4400 
L 1825 4400 
L 1825 125 
z
" transform="scale(0.015625)"/>
      <path id="SimHei-57" d="M 3075 4400 
L 2525 75 
L 2025 75 
L 1575 3275 
L 1525 3275 
L 1075 75 
L 575 75 
L 25 4400 
L 575 4400 
L 850 1675 
L 900 1675 
L 1275 4400 
L 1825 4400 
L 2200 1675 
L 2250 1675 
L 2525 4400 
L 3075 4400 
z
" transform="scale(0.015625)"/>
      <path id="SimHei-6d" d="M 3050 125 
L 2550 125 
L 2550 2150 
Q 2550 2300 2500 2400 
Q 2450 2500 2300 2500 
Q 2125 2500 1975 2312 
Q 1825 2125 1825 1825 
L 1825 125 
L 1325 125 
L 1325 2150 
Q 1325 2300 1275 2400 
Q 1225 2500 1075 2500 
Q 900 2500 750 2312 
Q 600 2125 600 1825 
L 600 125 
L 100 125 
L 100 2925 
L 600 2925 
L 600 2550 
Q 725 2750 900 2862 
Q 1075 2975 1275 2975 
Q 1475 2975 1612 2862 
Q 1750 2750 1800 2550 
Q 1925 2750 2087 2862 
Q 2250 2975 2450 2975 
Q 2750 2975 2900 2812 
Q 3050 2650 3050 2350 
L 3050 125 
z
" transform="scale(0.015625)"/>
      <path id="SimHei-73" d="M 2750 900 
Q 2750 500 2437 287 
Q 2125 75 1650 75 
Q 1050 75 725 312 
Q 400 550 400 1000 
L 900 1000 
Q 900 700 1112 600 
Q 1325 500 1625 500 
Q 1925 500 2075 612 
Q 2225 725 2225 900 
Q 2225 1025 2100 1150 
Q 1975 1275 1475 1350 
Q 900 1425 687 1637 
Q 475 1850 475 2200 
Q 475 2500 762 2737 
Q 1050 2975 1600 2975 
Q 2100 2975 2387 2750 
Q 2675 2525 2675 2150 
L 2175 2150 
Q 2175 2375 2012 2462 
Q 1850 2550 1600 2550 
Q 1275 2550 1137 2437 
Q 1000 2325 1000 2175 
Q 1000 2000 1125 1900 
Q 1250 1800 1650 1750 
Q 2300 1650 2525 1437 
Q 2750 1225 2750 900 
z
" transform="scale(0.015625)"/>
      <path id="SimHei-2f" d="M 3000 4550 
L 350 -175 
L 100 -25 
L 2750 4700 
L 3000 4550 
z
" transform="scale(0.015625)"/>
      <path id="SimHei-43" d="M 2975 1825 
Q 2950 875 2575 475 
Q 2200 75 1675 75 
Q 1075 75 650 562 
Q 225 1050 225 2125 
Q 225 3300 637 3875 
Q 1050 4450 1700 4450 
Q 2250 4450 2612 4037 
Q 2975 3625 2950 2875 
L 2400 2875 
Q 2400 3425 2225 3700 
Q 2050 3975 1700 3975 
Q 1300 3975 1062 3562 
Q 825 3150 825 2175 
Q 825 1275 1062 912 
Q 1300 550 1675 550 
Q 1950 550 2175 812 
Q 2400 1075 2400 1825 
L 2975 1825 
z
" transform="scale(0.015625)"/>
      <path id="SimHei-68" d="M 2800 125 
L 2300 125 
L 2300 1925 
Q 2300 2225 2150 2400 
Q 2000 2575 1750 2575 
Q 1425 2575 1137 2237 
Q 850 1900 850 1400 
L 850 125 
L 350 125 
L 350 4400 
L 850 4400 
L 850 2400 
Q 1050 2675 1287 2825 
Q 1525 2975 1900 2975 
Q 2350 2975 2575 2725 
Q 2800 2475 2800 2100 
L 2800 125 
z
" transform="scale(0.015625)"/>
      <path id="SimHei-79" d="M 2900 2925 
L 1750 -100 
Q 1650 -450 1450 -625 
Q 1250 -800 950 -800 
Q 825 -800 712 -787 
Q 600 -775 500 -725 
L 500 -225 
Q 600 -275 700 -300 
Q 800 -325 875 -325 
Q 1075 -325 1150 -262 
Q 1225 -200 1300 25 
L 200 2925 
L 750 2925 
L 1550 725 
L 1575 725 
L 2350 2925 
L 2900 2925 
z
" transform="scale(0.015625)"/>
      <path id="SimHei-29" d="M 1675 2250 
Q 1675 1425 1362 775 
Q 1050 125 425 -475 
L 150 -200 
Q 725 325 1012 912 
Q 1300 1500 1300 2250 
Q 1300 3000 1012 3587 
Q 725 4175 150 4725 
L 425 5000 
Q 1050 4375 1362 3725 
Q 1675 3075 1675 2250 
z
" transform="scale(0.015625)"/>
     </defs>
     <use xlink:href="#SimHei-53"/>
     <use xlink:href="#SimHei-74" transform="translate(50 0)"/>
     <use xlink:href="#SimHei-72" transform="translate(100 0)"/>
     <use xlink:href="#SimHei-6f" transform="translate(150 0)"/>
     <use xlink:href="#SimHei-6b" transform="translate(200 0)"/>
     <use xlink:href="#SimHei-65" transform="translate(250 0)"/>
     <use xlink:href="#SimHei-20" transform="translate(300 0)"/>
     <use xlink:href="#SimHei-49" transform="translate(350 0)"/>
     <use xlink:href="#SimHei-64" transform="translate(400 0)"/>
     <use xlink:href="#SimHei-65" transform="translate(450 0)"/>
     <use xlink:href="#SimHei-6e" transform="translate(500 0)"/>
     <use xlink:href="#SimHei-74" transform="translate(550 0)"/>
     <use xlink:href="#SimHei-69" transform="translate(600 0)"/>
     <use xlink:href="#SimHei-66" transform="translate(650 0)"/>
     <use xlink:href="#SimHei-69" transform="translate(700 0)"/>
     <use xlink:href="#SimHei-63" transform="translate(750 0)"/>
     <use xlink:href="#SimHei-61" transform="translate(800 0)"/>
     <use xlink:href="#SimHei-74" transform="translate(850 0)"/>
     <use xlink:href="#SimHei-69" transform="translate(900 0)"/>
     <use xlink:href="#SimHei-6f" transform="translate(950 0)"/>
     <use xlink:href="#SimHei-6e" transform="translate(1000 0)"/>
     <use xlink:href="#SimHei-20" transform="translate(1050 0)"/>
     <use xlink:href="#SimHei-28" transform="translate(1100 0)"/>
     <use xlink:href="#SimHei-42" transform="translate(1150 0)"/>
     <use xlink:href="#SimHei-69" transform="translate(1200 0)"/>
     <use xlink:href="#SimHei-6c" transform="translate(1250 0)"/>
     <use xlink:href="#SimHei-6c" transform="translate(1300 0)"/>
     <use xlink:href="#SimHei-20" transform="translate(1350 0)"/>
     <use xlink:href="#SimHei-57" transform="translate(1400 0)"/>
     <use xlink:href="#SimHei-69" transform="translate(1450 0)"/>
     <use xlink:href="#SimHei-6c" transform="translate(1500 0)"/>
     <use xlink:href="#SimHei-6c" transform="translate(1550 0)"/>
     <use xlink:href="#SimHei-69" transform="translate(1600 0)"/>
     <use xlink:href="#SimHei-61" transform="translate(1650 0)"/>
     <use xlink:href="#SimHei-6d" transform="translate(1700 0)"/>
     <use xlink:href="#SimHei-73" transform="translate(1750 0)"/>
     <use xlink:href="#SimHei-20" transform="translate(1800 0)"/>
     <use xlink:href="#SimHei-2f" transform="translate(1850 0)"/>
     <use xlink:href="#SimHei-20" transform="translate(1900 0)"/>
     <use xlink:href="#SimHei-43" transform="translate(1950 0)"/>
     <use xlink:href="#SimHei-68" transform="translate(2000 0)"/>
     <use xlink:href="#SimHei-61" transform="translate(2050 0)"/>
     <use xlink:href="#SimHei-6e" transform="translate(2100 0)"/>
     <use xlink:href="#SimHei-20" transform="translate(2150 0)"/>
     <use xlink:href="#SimHei-54" transform="translate(2200 0)"/>
     <use xlink:href="#SimHei-68" transform="translate(2250 0)"/>
     <use xlink:href="#SimHei-65" transform="translate(2300 0)"/>
     <use xlink:href="#SimHei-6f" transform="translate(2350 0)"/>
     <use xlink:href="#SimHei-72" transform="translate(2400 0)"/>
     <use xlink:href="#SimHei-79" transform="translate(2450 0)"/>
     <use xlink:href="#SimHei-29" transform="translate(2500 0)"/>
    </g>
   </g>
  </g>
 </g>
 <defs>
  <clipPath id="p85c80b43b1">
   <rect x="51.325" y="24.1375" width="781.2" height="443.52"/>
  </clipPath>
 </defs>
</svg>
