<?xml version="1.0" encoding="utf-8" standalone="no"?>
<!DOCTYPE svg PUBLIC "-//W3C//DTD SVG 1.1//EN"
  "http://www.w3.org/Graphics/SVG/1.1/DTD/svg11.dtd">
<svg xmlns:xlink="http://www.w3.org/1999/xlink" width="1000.165pt" height="569.017206pt" viewBox="0 0 1000.165 569.017206" xmlns="http://www.w3.org/2000/svg" version="1.1">
 <metadata>
  <rdf:RDF xmlns:dc="http://purl.org/dc/elements/1.1/" xmlns:cc="http://creativecommons.org/ns#" xmlns:rdf="http://www.w3.org/1999/02/22-rdf-syntax-ns#">
   <cc:Work>
    <dc:type rdf:resource="http://purl.org/dc/dcmitype/StillImage"/>
    <dc:date>2025-12-29T16:57:47.141727</dc:date>
    <dc:format>image/svg+xml</dc:format>
    <dc:creator>
     <cc:Agent>
      <dc:title>Matplotlib v3.10.8, https://matplotlib.org/</dc:title>
     </cc:Agent>
    </dc:creator>
   </cc:Work>
  </rdf:RDF>
 </metadata>
 <defs>
  <style type="text/css">*{stroke-linejoin: round; stroke-linecap: butt}</style>
 </defs>
 <g id="figure_1">
  <g id="patch_1">
   <path d="M 0 569.017206 
L 1000.165 569.017206 
L 1000.165 0 
L 0 0 
z
" style="fill: #ffffff"/>
  </g>
  <g id="axes_1">
   <g id="patch_2">
    <path d="M 41.325 521.93674 
L 992.965 521.93674 
L 992.965 24.1375 
L 41.325 24.1375 
z
" style="fill: #ffffff"/>
   </g>
   <g id="patch_3">
    <path d="M 95.656035 65.639495 
L 96.090336 65.639495 
L 96.090336 52.606925 
L 95.656035 52.606925 
z
" clip-path="url(#p5981138cc6)" style="fill: #ff0000"/>
   </g>
   <g id="patch_4">
    <path d="M 104.342052 58.89851 
L 104.776353 58.89851 
L 104.776353 48.562334 
L 104.342052 48.562334 
z
" clip-path="url(#p5981138cc6)" style="fill: #ff0000"/>
   </g>
   <g id="patch_5">
    <path d="M 130.400102 73.279277 
L 130.834403 73.279277 
L 130.834403 58.449111 
L 130.400102 58.449111 
z
" clip-path="url(#p5981138cc6)" style="fill: #ff0000"/>
   </g>
   <g id="patch_6">
    <path d="M 147.772136 100.692615 
L 148.206437 100.692615 
L 148.206437 78.222666 
L 147.772136 78.222666 
z
" clip-path="url(#p5981138cc6)" style="fill: #ff0000"/>
   </g>
   <g id="patch_7">
    <path d="M 165.144169 89.008241 
L 165.57847 89.008241 
L 165.57847 69.684086 
L 165.144169 69.684086 
z
" clip-path="url(#p5981138cc6)" style="fill: #ff0000"/>
   </g>
   <g id="patch_8">
    <path d="M 217.26027 166.304865 
L 217.694571 166.304865 
L 217.694571 128.555351 
L 217.26027 128.555351 
z
" clip-path="url(#p5981138cc6)" style="fill: #ff0000"/>
   </g>
   <g id="patch_9">
    <path d="M 243.318321 183.831424 
L 243.752621 183.831424 
L 243.752621 157.316885 
L 243.318321 157.316885 
z
" clip-path="url(#p5981138cc6)" style="fill: #ff0000"/>
   </g>
   <g id="patch_10">
    <path d="M 260.690354 213.491756 
L 261.124655 213.491756 
L 261.124655 169.001258 
L 260.690354 169.001258 
z
" clip-path="url(#p5981138cc6)" style="fill: #ff0000"/>
   </g>
   <g id="patch_11">
    <path d="M 269.376371 165.855466 
L 269.810672 165.855466 
L 269.810672 143.385517 
L 269.376371 143.385517 
z
" clip-path="url(#p5981138cc6)" style="fill: #ff0000"/>
   </g>
   <g id="patch_12">
    <path d="M 278.062388 156.867486 
L 278.496689 156.867486 
L 278.496689 134.846937 
L 278.062388 134.846937 
z
" clip-path="url(#p5981138cc6)" style="fill: #ff0000"/>
   </g>
   <g id="patch_13">
    <path d="M 295.434421 149.677103 
L 295.868722 149.677103 
L 295.868722 130.352947 
L 295.434421 130.352947 
z
" clip-path="url(#p5981138cc6)" style="fill: #ff0000"/>
   </g>
   <g id="patch_14">
    <path d="M 338.864505 212.14356 
L 339.298806 212.14356 
L 339.298806 177.539839 
L 338.864505 177.539839 
z
" clip-path="url(#p5981138cc6)" style="fill: #ff0000"/>
   </g>
   <g id="patch_15">
    <path d="M 364.922556 318.201717 
L 365.356857 318.201717 
L 365.356857 276.407612 
L 364.922556 276.407612 
z
" clip-path="url(#p5981138cc6)" style="fill: #ff0000"/>
   </g>
   <g id="patch_16">
    <path d="M 373.608572 297.529364 
L 374.042873 297.529364 
L 374.042873 246.74728 
L 373.608572 246.74728 
z
" clip-path="url(#p5981138cc6)" style="fill: #ff0000"/>
   </g>
   <g id="patch_17">
    <path d="M 382.294589 257.532856 
L 382.72889 257.532856 
L 382.72889 228.321923 
L 382.294589 228.321923 
z
" clip-path="url(#p5981138cc6)" style="fill: #ff0000"/>
   </g>
   <g id="patch_18">
    <path d="M 390.980606 249.893073 
L 391.414907 249.893073 
L 391.414907 224.277332 
L 390.980606 224.277332 
z
" clip-path="url(#p5981138cc6)" style="fill: #ff0000"/>
   </g>
   <g id="patch_19">
    <path d="M 408.35264 273.26182 
L 408.78694 273.26182 
L 408.78694 246.297881 
L 408.35264 246.297881 
z
" clip-path="url(#p5981138cc6)" style="fill: #ff0000"/>
   </g>
   <g id="patch_20">
    <path d="M 425.724673 258.881053 
L 426.158974 258.881053 
L 426.158974 231.467715 
L 425.724673 231.467715 
z
" clip-path="url(#p5981138cc6)" style="fill: #ff0000"/>
   </g>
   <g id="patch_21">
    <path d="M 451.782724 294.383571 
L 452.217024 294.383571 
L 452.217024 269.666628 
L 451.782724 269.666628 
z
" clip-path="url(#p5981138cc6)" style="fill: #ff0000"/>
   </g>
   <g id="patch_22">
    <path d="M 486.526791 346.513852 
L 486.961092 346.513852 
L 486.961092 319.549914 
L 486.526791 319.549914 
z
" clip-path="url(#p5981138cc6)" style="fill: #ff0000"/>
   </g>
   <g id="patch_23">
    <path d="M 495.212808 325.841499 
L 495.647108 325.841499 
L 495.647108 301.124556 
L 495.212808 301.124556 
z
" clip-path="url(#p5981138cc6)" style="fill: #ff0000"/>
   </g>
   <g id="patch_24">
    <path d="M 503.898824 312.35953 
L 504.333125 312.35953 
L 504.333125 290.78838 
L 503.898824 290.78838 
z
" clip-path="url(#p5981138cc6)" style="fill: #ff0000"/>
   </g>
   <g id="patch_25">
    <path d="M 538.642892 406.283915 
L 539.077192 406.283915 
L 539.077192 367.186205 
L 538.642892 367.186205 
z
" clip-path="url(#p5981138cc6)" style="fill: #ff0000"/>
   </g>
   <g id="patch_26">
    <path d="M 556.014925 406.733314 
L 556.449226 406.733314 
L 556.449226 364.93921 
L 556.014925 364.93921 
z
" clip-path="url(#p5981138cc6)" style="fill: #ff0000"/>
   </g>
   <g id="patch_27">
    <path d="M 564.700942 386.060961 
L 565.135243 386.060961 
L 565.135243 349.659645 
L 564.700942 349.659645 
z
" clip-path="url(#p5981138cc6)" style="fill: #ff0000"/>
   </g>
   <g id="patch_28">
    <path d="M 582.072976 365.838008 
L 582.507276 365.838008 
L 582.507276 337.975271 
L 582.072976 337.975271 
z
" clip-path="url(#p5981138cc6)" style="fill: #ff0000"/>
   </g>
   <g id="patch_29">
    <path d="M 590.758992 367.186205 
L 591.193293 367.186205 
L 591.193293 338.874069 
L 590.758992 338.874069 
z
" clip-path="url(#p5981138cc6)" style="fill: #ff0000"/>
   </g>
   <g id="patch_30">
    <path d="M 599.445009 352.356039 
L 599.87931 352.356039 
L 599.87931 324.043903 
L 599.445009 324.043903 
z
" clip-path="url(#p5981138cc6)" style="fill: #ff0000"/>
   </g>
   <g id="patch_31">
    <path d="M 608.131026 322.246307 
L 608.565327 322.246307 
L 608.565327 292.585975 
L 608.131026 292.585975 
z
" clip-path="url(#p5981138cc6)" style="fill: #ff0000"/>
   </g>
   <g id="patch_32">
    <path d="M 616.817043 329.436691 
L 617.251344 329.436691 
L 617.251344 304.270349 
L 616.817043 304.270349 
z
" clip-path="url(#p5981138cc6)" style="fill: #ff0000"/>
   </g>
   <g id="patch_33">
    <path d="M 642.875093 349.659645 
L 643.309394 349.659645 
L 643.309394 314.157126 
L 642.875093 314.157126 
z
" clip-path="url(#p5981138cc6)" style="fill: #ff0000"/>
   </g>
   <g id="patch_34">
    <path d="M 651.56111 294.83297 
L 651.995411 294.83297 
L 651.995411 271.913623 
L 651.56111 271.913623 
z
" clip-path="url(#p5981138cc6)" style="fill: #ff0000"/>
   </g>
   <g id="patch_35">
    <path d="M 660.247127 271.464224 
L 660.681428 271.464224 
L 660.681428 253.937664 
L 660.247127 253.937664 
z
" clip-path="url(#p5981138cc6)" style="fill: #ff0000"/>
   </g>
   <g id="patch_36">
    <path d="M 668.933143 271.913623 
L 669.367444 271.913623 
L 669.367444 260.678648 
L 668.933143 260.678648 
z
" clip-path="url(#p5981138cc6)" style="fill: #ff0000"/>
   </g>
   <g id="patch_37">
    <path d="M 694.991194 297.079965 
L 695.425495 297.079965 
L 695.425495 273.26182 
L 694.991194 273.26182 
z
" clip-path="url(#p5981138cc6)" style="fill: #ff0000"/>
   </g>
   <g id="patch_38">
    <path d="M 703.677211 275.059416 
L 704.111512 275.059416 
L 704.111512 257.532856 
L 703.677211 257.532856 
z
" clip-path="url(#p5981138cc6)" style="fill: #ff0000"/>
   </g>
   <g id="patch_39">
    <path d="M 729.735261 277.30641 
L 730.169562 277.30641 
L 730.169562 256.634058 
L 729.735261 256.634058 
z
" clip-path="url(#p5981138cc6)" style="fill: #ff0000"/>
   </g>
   <g id="patch_40">
    <path d="M 764.479328 313.707727 
L 764.913629 313.707727 
L 764.913629 294.83297 
L 764.479328 294.83297 
z
" clip-path="url(#p5981138cc6)" style="fill: #ff0000"/>
   </g>
   <g id="patch_41">
    <path d="M 790.537379 365.388609 
L 790.971679 365.388609 
L 790.971679 353.254836 
L 790.537379 353.254836 
z
" clip-path="url(#p5981138cc6)" style="fill: #ff0000"/>
   </g>
   <g id="patch_42">
    <path d="M 860.025513 453.470807 
L 860.459814 453.470807 
L 860.459814 420.664682 
L 860.025513 420.664682 
z
" clip-path="url(#p5981138cc6)" style="fill: #ff0000"/>
   </g>
   <g id="patch_43">
    <path d="M 894.76958 487.625129 
L 895.203881 487.625129 
L 895.203881 460.211792 
L 894.76958 460.211792 
z
" clip-path="url(#p5981138cc6)" style="fill: #ff0000"/>
   </g>
   <g id="patch_44">
    <path d="M 903.455597 468.300973 
L 903.889898 468.300973 
L 903.889898 439.988838 
L 903.455597 439.988838 
z
" clip-path="url(#p5981138cc6)" style="fill: #ff0000"/>
   </g>
   <g id="patch_45">
    <path d="M 912.141614 467.402175 
L 912.575915 467.402175 
L 912.575915 437.292444 
L 912.141614 437.292444 
z
" clip-path="url(#p5981138cc6)" style="fill: #ff0000"/>
   </g>
   <g id="patch_46">
    <path d="M 929.513647 473.244362 
L 929.947948 473.244362 
L 929.947948 425.608071 
L 929.513647 425.608071 
z
" clip-path="url(#p5981138cc6)" style="fill: #ff0000"/>
   </g>
   <g id="patch_47">
    <path d="M 938.199664 443.134631 
L 938.633965 443.134631 
L 938.633965 417.518889 
L 938.199664 417.518889 
z
" clip-path="url(#p5981138cc6)" style="fill: #ff0000"/>
   </g>
   <g id="patch_48">
    <path d="M 86.970018 99.344418 
L 87.404319 99.344418 
L 87.404319 72.829879 
L 86.970018 72.829879 
z
" clip-path="url(#p5981138cc6)" style="fill: #008000"/>
   </g>
   <g id="patch_49">
    <path d="M 113.028069 57.550314 
L 113.462369 57.550314 
L 113.462369 46.764738 
L 113.028069 46.764738 
z
" clip-path="url(#p5981138cc6)" style="fill: #008000"/>
   </g>
   <g id="patch_50">
    <path d="M 121.714085 71.032283 
L 122.148386 71.032283 
L 122.148386 57.999712 
L 121.714085 57.999712 
z
" clip-path="url(#p5981138cc6)" style="fill: #008000"/>
   </g>
   <g id="patch_51">
    <path d="M 139.086119 86.761247 
L 139.52042 86.761247 
L 139.52042 60.246707 
L 139.086119 60.246707 
z
" clip-path="url(#p5981138cc6)" style="fill: #008000"/>
   </g>
   <g id="patch_52">
    <path d="M 156.458153 104.737205 
L 156.892453 104.737205 
L 156.892453 86.761247 
L 156.458153 86.761247 
z
" clip-path="url(#p5981138cc6)" style="fill: #008000"/>
   </g>
   <g id="patch_53">
    <path d="M 173.830186 79.570863 
L 174.264487 79.570863 
L 174.264487 68.335889 
L 173.830186 68.335889 
z
" clip-path="url(#p5981138cc6)" style="fill: #008000"/>
   </g>
   <g id="patch_54">
    <path d="M 182.516203 78.222666 
L 182.950504 78.222666 
L 182.950504 67.437091 
L 182.516203 67.437091 
z
" clip-path="url(#p5981138cc6)" style="fill: #008000"/>
   </g>
   <g id="patch_55">
    <path d="M 191.20222 86.761247 
L 191.636521 86.761247 
L 191.636521 76.874469 
L 191.20222 76.874469 
z
" clip-path="url(#p5981138cc6)" style="fill: #008000"/>
   </g>
   <g id="patch_56">
    <path d="M 199.888237 117.769776 
L 200.322537 117.769776 
L 200.322537 96.648024 
L 199.888237 96.648024 
z
" clip-path="url(#p5981138cc6)" style="fill: #008000"/>
   </g>
   <g id="patch_57">
    <path d="M 208.574253 134.846937 
L 209.008554 134.846937 
L 209.008554 102.93961 
L 208.574253 102.93961 
z
" clip-path="url(#p5981138cc6)" style="fill: #008000"/>
   </g>
   <g id="patch_58">
    <path d="M 225.946287 188.325414 
L 226.380588 188.325414 
L 226.380588 147.430108 
L 225.946287 147.430108 
z
" clip-path="url(#p5981138cc6)" style="fill: #008000"/>
   </g>
   <g id="patch_59">
    <path d="M 234.632304 204.054378 
L 235.066605 204.054378 
L 235.066605 167.653061 
L 234.632304 167.653061 
z
" clip-path="url(#p5981138cc6)" style="fill: #008000"/>
   </g>
   <g id="patch_60">
    <path d="M 252.004337 206.301373 
L 252.438638 206.301373 
L 252.438638 167.653061 
L 252.004337 167.653061 
z
" clip-path="url(#p5981138cc6)" style="fill: #008000"/>
   </g>
   <g id="patch_61">
    <path d="M 286.748405 146.980709 
L 287.182705 146.980709 
L 287.182705 116.421579 
L 286.748405 116.421579 
z
" clip-path="url(#p5981138cc6)" style="fill: #008000"/>
   </g>
   <g id="patch_62">
    <path d="M 304.120438 142.03732 
L 304.554739 142.03732 
L 304.554739 121.814366 
L 304.120438 121.814366 
z
" clip-path="url(#p5981138cc6)" style="fill: #008000"/>
   </g>
   <g id="patch_63">
    <path d="M 312.806455 147.430108 
L 313.240756 147.430108 
L 313.240756 125.409558 
L 312.806455 125.409558 
z
" clip-path="url(#p5981138cc6)" style="fill: #008000"/>
   </g>
   <g id="patch_64">
    <path d="M 321.492472 179.337435 
L 321.926773 179.337435 
L 321.926773 146.081911 
L 321.492472 146.081911 
z
" clip-path="url(#p5981138cc6)" style="fill: #008000"/>
   </g>
   <g id="patch_65">
    <path d="M 330.178488 201.357984 
L 330.612789 201.357984 
L 330.612789 170.798854 
L 330.178488 170.798854 
z
" clip-path="url(#p5981138cc6)" style="fill: #008000"/>
   </g>
   <g id="patch_66">
    <path d="M 347.550522 222.030337 
L 347.984823 222.030337 
L 347.984823 190.572409 
L 347.550522 190.572409 
z
" clip-path="url(#p5981138cc6)" style="fill: #008000"/>
   </g>
   <g id="patch_67">
    <path d="M 356.236539 292.585975 
L 356.67084 292.585975 
L 356.67084 245.399083 
L 356.236539 245.399083 
z
" clip-path="url(#p5981138cc6)" style="fill: #008000"/>
   </g>
   <g id="patch_68">
    <path d="M 399.666623 268.318431 
L 400.100924 268.318431 
L 400.100924 227.423125 
L 399.666623 227.423125 
z
" clip-path="url(#p5981138cc6)" style="fill: #008000"/>
   </g>
   <g id="patch_69">
    <path d="M 417.038656 264.27384 
L 417.472957 264.27384 
L 417.472957 240.455695 
L 417.038656 240.455695 
z
" clip-path="url(#p5981138cc6)" style="fill: #008000"/>
   </g>
   <g id="patch_70">
    <path d="M 434.41069 231.467715 
L 434.844991 231.467715 
L 434.844991 215.738751 
L 434.41069 215.738751 
z
" clip-path="url(#p5981138cc6)" style="fill: #008000"/>
   </g>
   <g id="patch_71">
    <path d="M 443.096707 277.755809 
L 443.531008 277.755809 
L 443.531008 232.366513 
L 443.096707 232.366513 
z
" clip-path="url(#p5981138cc6)" style="fill: #008000"/>
   </g>
   <g id="patch_72">
    <path d="M 460.46874 302.023354 
L 460.903041 302.023354 
L 460.903041 284.946193 
L 460.46874 284.946193 
z
" clip-path="url(#p5981138cc6)" style="fill: #008000"/>
   </g>
   <g id="patch_73">
    <path d="M 469.154757 344.266857 
L 469.589058 344.266857 
L 469.589058 300.675157 
L 469.154757 300.675157 
z
" clip-path="url(#p5981138cc6)" style="fill: #008000"/>
   </g>
   <g id="patch_74">
    <path d="M 477.840774 361.344018 
L 478.275075 361.344018 
L 478.275075 324.493302 
L 477.840774 324.493302 
z
" clip-path="url(#p5981138cc6)" style="fill: #008000"/>
   </g>
   <g id="patch_75">
    <path d="M 512.584841 345.615054 
L 513.019142 345.615054 
L 513.019142 303.371551 
L 512.584841 303.371551 
z
" clip-path="url(#p5981138cc6)" style="fill: #008000"/>
   </g>
   <g id="patch_76">
    <path d="M 521.270858 368.085003 
L 521.705159 368.085003 
L 521.705159 334.38008 
L 521.270858 334.38008 
z
" clip-path="url(#p5981138cc6)" style="fill: #008000"/>
   </g>
   <g id="patch_77">
    <path d="M 529.956875 382.46577 
L 530.391176 382.46577 
L 530.391176 352.356039 
L 529.956875 352.356039 
z
" clip-path="url(#p5981138cc6)" style="fill: #008000"/>
   </g>
   <g id="patch_78">
    <path d="M 547.328908 389.656153 
L 547.763209 389.656153 
L 547.763209 354.603033 
L 547.328908 354.603033 
z
" clip-path="url(#p5981138cc6)" style="fill: #008000"/>
   </g>
   <g id="patch_79">
    <path d="M 573.386959 381.566972 
L 573.82126 381.566972 
L 573.82126 344.716256 
L 573.386959 344.716256 
z
" clip-path="url(#p5981138cc6)" style="fill: #008000"/>
   </g>
   <g id="patch_80">
    <path d="M 625.50306 318.201717 
L 625.93736 318.201717 
L 625.93736 296.630566 
L 625.50306 296.630566 
z
" clip-path="url(#p5981138cc6)" style="fill: #008000"/>
   </g>
   <g id="patch_81">
    <path d="M 634.189076 326.290898 
L 634.623377 326.290898 
L 634.623377 297.079965 
L 634.189076 297.079965 
z
" clip-path="url(#p5981138cc6)" style="fill: #008000"/>
   </g>
   <g id="patch_82">
    <path d="M 677.61916 270.116027 
L 678.053461 270.116027 
L 678.053461 246.74728 
L 677.61916 246.74728 
z
" clip-path="url(#p5981138cc6)" style="fill: #008000"/>
   </g>
   <g id="patch_83">
    <path d="M 686.305177 286.743789 
L 686.739478 286.743789 
L 686.739478 264.723239 
L 686.305177 264.723239 
z
" clip-path="url(#p5981138cc6)" style="fill: #008000"/>
   </g>
   <g id="patch_84">
    <path d="M 712.363227 284.047395 
L 712.797528 284.047395 
L 712.797528 269.217229 
L 712.363227 269.217229 
z
" clip-path="url(#p5981138cc6)" style="fill: #008000"/>
   </g>
   <g id="patch_85">
    <path d="M 721.049244 289.440183 
L 721.483545 289.440183 
L 721.483545 274.160618 
L 721.049244 274.160618 
z
" clip-path="url(#p5981138cc6)" style="fill: #008000"/>
   </g>
   <g id="patch_86">
    <path d="M 738.421278 284.496794 
L 738.855579 284.496794 
L 738.855579 266.071436 
L 738.421278 266.071436 
z
" clip-path="url(#p5981138cc6)" style="fill: #008000"/>
   </g>
   <g id="patch_87">
    <path d="M 747.107295 293.934172 
L 747.541595 293.934172 
L 747.541595 272.812421 
L 747.107295 272.812421 
z
" clip-path="url(#p5981138cc6)" style="fill: #008000"/>
   </g>
   <g id="patch_88">
    <path d="M 755.793311 312.35953 
L 756.227612 312.35953 
L 756.227612 285.395592 
L 755.793311 285.395592 
z
" clip-path="url(#p5981138cc6)" style="fill: #008000"/>
   </g>
   <g id="patch_89">
    <path d="M 773.165345 325.3921 
L 773.599646 325.3921 
L 773.599646 304.270349 
L 773.165345 304.270349 
z
" clip-path="url(#p5981138cc6)" style="fill: #008000"/>
   </g>
   <g id="patch_90">
    <path d="M 781.851362 364.489811 
L 782.285663 364.489811 
L 782.285663 326.740297 
L 781.851362 326.740297 
z
" clip-path="url(#p5981138cc6)" style="fill: #008000"/>
   </g>
   <g id="patch_91">
    <path d="M 799.223395 362.692215 
L 799.657696 362.692215 
L 799.657696 343.817458 
L 799.223395 343.817458 
z
" clip-path="url(#p5981138cc6)" style="fill: #008000"/>
   </g>
   <g id="patch_92">
    <path d="M 807.909412 367.186205 
L 808.343713 367.186205 
L 808.343713 347.862049 
L 807.909412 347.862049 
z
" clip-path="url(#p5981138cc6)" style="fill: #008000"/>
   </g>
   <g id="patch_93">
    <path d="M 816.595429 386.060961 
L 817.02973 386.060961 
L 817.02973 359.097023 
L 816.595429 359.097023 
z
" clip-path="url(#p5981138cc6)" style="fill: #008000"/>
   </g>
   <g id="patch_94">
    <path d="M 825.281446 398.194734 
L 825.715747 398.194734 
L 825.715747 368.534402 
L 825.281446 368.534402 
z
" clip-path="url(#p5981138cc6)" style="fill: #008000"/>
   </g>
   <g id="patch_95">
    <path d="M 833.967463 456.167201 
L 834.401763 456.167201 
L 834.401763 418.417687 
L 833.967463 418.417687 
z
" clip-path="url(#p5981138cc6)" style="fill: #008000"/>
   </g>
   <g id="patch_96">
    <path d="M 842.653479 467.851574 
L 843.08778 467.851574 
L 843.08778 433.697252 
L 842.653479 433.697252 
z
" clip-path="url(#p5981138cc6)" style="fill: #008000"/>
   </g>
   <g id="patch_97">
    <path d="M 851.339496 480.884144 
L 851.773797 480.884144 
L 851.773797 442.235833 
L 851.339496 442.235833 
z
" clip-path="url(#p5981138cc6)" style="fill: #008000"/>
   </g>
   <g id="patch_98">
    <path d="M 868.71153 445.831025 
L 869.145831 445.831025 
L 869.145831 395.048941 
L 868.71153 395.048941 
z
" clip-path="url(#p5981138cc6)" style="fill: #008000"/>
   </g>
   <g id="patch_99">
    <path d="M 877.397547 492.568518 
L 877.831847 492.568518 
L 877.831847 448.527418 
L 877.397547 448.527418 
z
" clip-path="url(#p5981138cc6)" style="fill: #008000"/>
   </g>
   <g id="patch_100">
    <path d="M 886.083563 499.309502 
L 886.517864 499.309502 
L 886.517864 471.446766 
L 886.083563 471.446766 
z
" clip-path="url(#p5981138cc6)" style="fill: #008000"/>
   </g>
   <g id="patch_101">
    <path d="M 920.827631 479.086548 
L 921.261931 479.086548 
L 921.261931 442.235833 
L 920.827631 442.235833 
z
" clip-path="url(#p5981138cc6)" style="fill: #008000"/>
   </g>
   <g id="patch_102">
    <path d="M 946.885681 479.985346 
L 947.319982 479.985346 
L 947.319982 424.259874 
L 946.885681 424.259874 
z
" clip-path="url(#p5981138cc6)" style="fill: #008000"/>
   </g>
   <g id="patch_103">
    <path d="M 93.26738 63.3925 
L 98.478991 63.3925 
L 98.478991 56.651516 
L 93.26738 56.651516 
z
" clip-path="url(#p5981138cc6)" style="fill: #ff0000"/>
   </g>
   <g id="patch_104">
    <path d="M 101.953397 57.550314 
L 107.165007 57.550314 
L 107.165007 53.505723 
L 101.953397 53.505723 
z
" clip-path="url(#p5981138cc6)" style="fill: #ff0000"/>
   </g>
   <g id="patch_105">
    <path d="M 128.011448 66.987692 
L 133.223058 66.987692 
L 133.223058 58.449111 
L 128.011448 58.449111 
z
" clip-path="url(#p5981138cc6)" style="fill: #ff0000"/>
   </g>
   <g id="patch_106">
    <path d="M 145.383481 86.761247 
L 150.595091 86.761247 
L 150.595091 80.020262 
L 145.383481 80.020262 
z
" clip-path="url(#p5981138cc6)" style="fill: #ff0000"/>
   </g>
   <g id="patch_107">
    <path d="M 162.755515 84.514252 
L 167.967125 84.514252 
L 167.967125 73.279277 
L 162.755515 73.279277 
z
" clip-path="url(#p5981138cc6)" style="fill: #ff0000"/>
   </g>
   <g id="patch_108">
    <path d="M 214.871616 156.867486 
L 220.083226 156.867486 
L 220.083226 140.239724 
L 214.871616 140.239724 
z
" clip-path="url(#p5981138cc6)" style="fill: #ff0000"/>
   </g>
   <g id="patch_109">
    <path d="M 240.929666 172.59645 
L 246.141276 172.59645 
L 246.141276 162.260274 
L 240.929666 162.260274 
z
" clip-path="url(#p5981138cc6)" style="fill: #ff0000"/>
   </g>
   <g id="patch_110">
    <path d="M 258.3017 197.313394 
L 263.51331 197.313394 
L 263.51331 181.135031 
L 258.3017 181.135031 
z
" clip-path="url(#p5981138cc6)" style="fill: #ff0000"/>
   </g>
   <g id="patch_111">
    <path d="M 266.987716 165.855466 
L 272.199326 165.855466 
L 272.199326 146.980709 
L 266.987716 146.980709 
z
" clip-path="url(#p5981138cc6)" style="fill: #ff0000"/>
   </g>
   <g id="patch_112">
    <path d="M 275.673733 154.620491 
L 280.885343 154.620491 
L 280.885343 150.575901 
L 275.673733 150.575901 
z
" clip-path="url(#p5981138cc6)" style="fill: #ff0000"/>
   </g>
   <g id="patch_113">
    <path d="M 293.045767 143.385517 
L 298.257377 143.385517 
L 298.257377 137.54333 
L 293.045767 137.54333 
z
" clip-path="url(#p5981138cc6)" style="fill: #ff0000"/>
   </g>
   <g id="patch_114">
    <path d="M 336.475851 208.098969 
L 341.687461 208.098969 
L 341.687461 185.179621 
L 336.475851 185.179621 
z
" clip-path="url(#p5981138cc6)" style="fill: #ff0000"/>
   </g>
   <g id="patch_115">
    <path d="M 362.533901 310.561934 
L 367.745511 310.561934 
L 367.745511 282.249799 
L 362.533901 282.249799 
z
" clip-path="url(#p5981138cc6)" style="fill: #ff0000"/>
   </g>
   <g id="patch_116">
    <path d="M 371.219918 285.844991 
L 376.431528 285.844991 
L 376.431528 251.24127 
L 371.219918 251.24127 
z
" clip-path="url(#p5981138cc6)" style="fill: #ff0000"/>
   </g>
   <g id="patch_117">
    <path d="M 379.905935 244.500285 
L 385.117545 244.500285 
L 385.117545 230.119518 
L 379.905935 230.119518 
z
" clip-path="url(#p5981138cc6)" style="fill: #ff0000"/>
   </g>
   <g id="patch_118">
    <path d="M 388.591951 236.860503 
L 393.803562 236.860503 
L 393.803562 224.277332 
L 388.591951 224.277332 
z
" clip-path="url(#p5981138cc6)" style="fill: #ff0000"/>
   </g>
   <g id="patch_119">
    <path d="M 405.963985 265.622037 
L 411.175595 265.622037 
L 411.175595 246.297881 
L 405.963985 246.297881 
z
" clip-path="url(#p5981138cc6)" style="fill: #ff0000"/>
   </g>
   <g id="patch_120">
    <path d="M 423.336019 248.994275 
L 428.547629 248.994275 
L 428.547629 235.512306 
L 423.336019 235.512306 
z
" clip-path="url(#p5981138cc6)" style="fill: #ff0000"/>
   </g>
   <g id="patch_121">
    <path d="M 449.394069 284.496794 
L 454.605679 284.496794 
L 454.605679 284.496794 
L 449.394069 284.496794 
z
" clip-path="url(#p5981138cc6)" style="fill: #ff0000"/>
   </g>
   <g id="patch_122">
    <path d="M 484.138136 341.570463 
L 489.349746 341.570463 
L 489.349746 319.999313 
L 484.138136 319.999313 
z
" clip-path="url(#p5981138cc6)" style="fill: #ff0000"/>
   </g>
   <g id="patch_123">
    <path d="M 492.824153 320.448712 
L 498.035763 320.448712 
L 498.035763 310.561934 
L 492.824153 310.561934 
z
" clip-path="url(#p5981138cc6)" style="fill: #ff0000"/>
   </g>
   <g id="patch_124">
    <path d="M 501.51017 312.35953 
L 506.72178 312.35953 
L 506.72178 304.270349 
L 501.51017 304.270349 
z
" clip-path="url(#p5981138cc6)" style="fill: #ff0000"/>
   </g>
   <g id="patch_125">
    <path d="M 536.254237 384.263366 
L 541.465847 384.263366 
L 541.465847 372.129593 
L 536.254237 372.129593 
z
" clip-path="url(#p5981138cc6)" style="fill: #ff0000"/>
   </g>
   <g id="patch_126">
    <path d="M 553.626271 395.048941 
L 558.837881 395.048941 
L 558.837881 381.566972 
L 553.626271 381.566972 
z
" clip-path="url(#p5981138cc6)" style="fill: #ff0000"/>
   </g>
   <g id="patch_127">
    <path d="M 562.312287 386.060961 
L 567.523897 386.060961 
L 567.523897 353.254836 
L 562.312287 353.254836 
z
" clip-path="url(#p5981138cc6)" style="fill: #ff0000"/>
   </g>
   <g id="patch_128">
    <path d="M 579.684321 345.615054 
L 584.895931 345.615054 
L 584.895931 342.91866 
L 579.684321 342.91866 
z
" clip-path="url(#p5981138cc6)" style="fill: #ff0000"/>
   </g>
   <g id="patch_129">
    <path d="M 588.370338 356.850028 
L 593.581948 356.850028 
L 593.581948 351.007842 
L 588.370338 351.007842 
z
" clip-path="url(#p5981138cc6)" style="fill: #ff0000"/>
   </g>
   <g id="patch_130">
    <path d="M 597.056355 347.41265 
L 602.267965 347.41265 
L 602.267965 333.930681 
L 597.056355 333.930681 
z
" clip-path="url(#p5981138cc6)" style="fill: #ff0000"/>
   </g>
   <g id="patch_131">
    <path d="M 605.742371 322.246307 
L 610.953981 322.246307 
L 610.953981 318.651116 
L 605.742371 318.651116 
z
" clip-path="url(#p5981138cc6)" style="fill: #ff0000"/>
   </g>
   <g id="patch_132">
    <path d="M 614.428388 321.34751 
L 619.639998 321.34751 
L 619.639998 305.618546 
L 614.428388 305.618546 
z
" clip-path="url(#p5981138cc6)" style="fill: #ff0000"/>
   </g>
   <g id="patch_133">
    <path d="M 640.486438 332.133085 
L 645.698049 332.133085 
L 645.698049 314.157126 
L 640.486438 314.157126 
z
" clip-path="url(#p5981138cc6)" style="fill: #ff0000"/>
   </g>
   <g id="patch_134">
    <path d="M 649.172455 292.136576 
L 654.384065 292.136576 
L 654.384065 280.452203 
L 649.172455 280.452203 
z
" clip-path="url(#p5981138cc6)" style="fill: #ff0000"/>
   </g>
   <g id="patch_135">
    <path d="M 657.858472 271.464224 
L 663.070082 271.464224 
L 663.070082 264.27384 
L 657.858472 264.27384 
z
" clip-path="url(#p5981138cc6)" style="fill: #ff0000"/>
   </g>
   <g id="patch_136">
    <path d="M 666.544489 265.622037 
L 671.756099 265.622037 
L 671.756099 263.824441 
L 666.544489 263.824441 
z
" clip-path="url(#p5981138cc6)" style="fill: #ff0000"/>
   </g>
   <g id="patch_137">
    <path d="M 692.602539 275.958213 
L 697.814149 275.958213 
L 697.814149 274.610017 
L 692.602539 274.610017 
z
" clip-path="url(#p5981138cc6)" style="fill: #ff0000"/>
   </g>
   <g id="patch_138">
    <path d="M 701.288556 270.116027 
L 706.500166 270.116027 
L 706.500166 266.970234 
L 701.288556 266.970234 
z
" clip-path="url(#p5981138cc6)" style="fill: #ff0000"/>
   </g>
   <g id="patch_139">
    <path d="M 727.346606 277.30641 
L 732.558217 277.30641 
L 732.558217 263.375042 
L 727.346606 263.375042 
z
" clip-path="url(#p5981138cc6)" style="fill: #ff0000"/>
   </g>
   <g id="patch_140">
    <path d="M 762.090674 307.416141 
L 767.302284 307.416141 
L 767.302284 297.978763 
L 762.090674 297.978763 
z
" clip-path="url(#p5981138cc6)" style="fill: #ff0000"/>
   </g>
   <g id="patch_141">
    <path d="M 788.148724 359.995821 
L 793.360334 359.995821 
L 793.360334 358.198225 
L 788.148724 358.198225 
z
" clip-path="url(#p5981138cc6)" style="fill: #ff0000"/>
   </g>
   <g id="patch_142">
    <path d="M 857.636858 442.235833 
L 862.848468 442.235833 
L 862.848468 431.450257 
L 857.636858 431.450257 
z
" clip-path="url(#p5981138cc6)" style="fill: #ff0000"/>
   </g>
   <g id="patch_143">
    <path d="M 892.380926 486.276932 
L 897.592536 486.276932 
L 897.592536 460.661191 
L 892.380926 460.661191 
z
" clip-path="url(#p5981138cc6)" style="fill: #ff0000"/>
   </g>
   <g id="patch_144">
    <path d="M 901.066942 457.065999 
L 906.278552 457.065999 
L 906.278552 455.717802 
L 901.066942 455.717802 
z
" clip-path="url(#p5981138cc6)" style="fill: #ff0000"/>
   </g>
   <g id="patch_145">
    <path d="M 909.752959 455.717802 
L 914.964569 455.717802 
L 914.964569 437.292444 
L 909.752959 437.292444 
z
" clip-path="url(#p5981138cc6)" style="fill: #ff0000"/>
   </g>
   <g id="patch_146">
    <path d="M 927.124993 470.098569 
L 932.336603 470.098569 
L 932.336603 429.652662 
L 927.124993 429.652662 
z
" clip-path="url(#p5981138cc6)" style="fill: #ff0000"/>
   </g>
   <g id="patch_147">
    <path d="M 935.811009 434.59605 
L 941.02262 434.59605 
L 941.02262 423.810475 
L 935.811009 423.810475 
z
" clip-path="url(#p5981138cc6)" style="fill: #ff0000"/>
   </g>
   <g id="patch_148">
    <path d="M 84.581364 74.178075 
L 89.792974 74.178075 
L 89.792974 73.279277 
L 84.581364 73.279277 
z
" clip-path="url(#p5981138cc6)" style="fill: #008000"/>
   </g>
   <g id="patch_149">
    <path d="M 110.639414 55.752718 
L 115.851024 55.752718 
L 115.851024 51.258728 
L 110.639414 51.258728 
z
" clip-path="url(#p5981138cc6)" style="fill: #008000"/>
   </g>
   <g id="patch_150">
    <path d="M 119.325431 66.088894 
L 124.537041 66.088894 
L 124.537041 59.347909 
L 119.325431 59.347909 
z
" clip-path="url(#p5981138cc6)" style="fill: #008000"/>
   </g>
   <g id="patch_151">
    <path d="M 136.697464 83.615454 
L 141.909074 83.615454 
L 141.909074 61.594904 
L 136.697464 61.594904 
z
" clip-path="url(#p5981138cc6)" style="fill: #008000"/>
   </g>
   <g id="patch_152">
    <path d="M 154.069498 94.401029 
L 159.281108 94.401029 
L 159.281108 87.660045 
L 154.069498 87.660045 
z
" clip-path="url(#p5981138cc6)" style="fill: #008000"/>
   </g>
   <g id="patch_153">
    <path d="M 171.441532 75.526272 
L 176.653142 75.526272 
L 176.653142 70.133485 
L 171.441532 70.133485 
z
" clip-path="url(#p5981138cc6)" style="fill: #008000"/>
   </g>
   <g id="patch_154">
    <path d="M 180.127548 74.627474 
L 185.339158 74.627474 
L 185.339158 73.728676 
L 180.127548 73.728676 
z
" clip-path="url(#p5981138cc6)" style="fill: #008000"/>
   </g>
   <g id="patch_155">
    <path d="M 188.813565 86.761247 
L 194.025175 86.761247 
L 194.025175 79.121464 
L 188.813565 79.121464 
z
" clip-path="url(#p5981138cc6)" style="fill: #008000"/>
   </g>
   <g id="patch_156">
    <path d="M 197.499582 108.781796 
L 202.711192 108.781796 
L 202.711192 97.996221 
L 197.499582 97.996221 
z
" clip-path="url(#p5981138cc6)" style="fill: #008000"/>
   </g>
   <g id="patch_157">
    <path d="M 206.185599 132.150543 
L 211.397209 132.150543 
L 211.397209 107.433599 
L 206.185599 107.433599 
z
" clip-path="url(#p5981138cc6)" style="fill: #008000"/>
   </g>
   <g id="patch_158">
    <path d="M 223.557632 186.078419 
L 228.769242 186.078419 
L 228.769242 148.328906 
L 223.557632 148.328906 
z
" clip-path="url(#p5981138cc6)" style="fill: #008000"/>
   </g>
   <g id="patch_159">
    <path d="M 232.243649 199.560388 
L 237.455259 199.560388 
L 237.455259 181.58443 
L 232.243649 181.58443 
z
" clip-path="url(#p5981138cc6)" style="fill: #008000"/>
   </g>
   <g id="patch_160">
    <path d="M 249.615683 203.15558 
L 254.827293 203.15558 
L 254.827293 167.653061 
L 249.615683 167.653061 
z
" clip-path="url(#p5981138cc6)" style="fill: #008000"/>
   </g>
   <g id="patch_161">
    <path d="M 284.35975 143.834916 
L 289.57136 143.834916 
L 289.57136 120.915568 
L 284.35975 120.915568 
z
" clip-path="url(#p5981138cc6)" style="fill: #008000"/>
   </g>
   <g id="patch_162">
    <path d="M 301.731783 135.296336 
L 306.943394 135.296336 
L 306.943394 133.948139 
L 301.731783 133.948139 
z
" clip-path="url(#p5981138cc6)" style="fill: #008000"/>
   </g>
   <g id="patch_163">
    <path d="M 310.4178 137.992729 
L 315.62941 137.992729 
L 315.62941 129.903548 
L 310.4178 129.903548 
z
" clip-path="url(#p5981138cc6)" style="fill: #008000"/>
   </g>
   <g id="patch_164">
    <path d="M 319.103817 170.349455 
L 324.315427 170.349455 
L 324.315427 146.081911 
L 319.103817 146.081911 
z
" clip-path="url(#p5981138cc6)" style="fill: #008000"/>
   </g>
   <g id="patch_165">
    <path d="M 327.789834 191.021808 
L 333.001444 191.021808 
L 333.001444 176.641041 
L 327.789834 176.641041 
z
" clip-path="url(#p5981138cc6)" style="fill: #008000"/>
   </g>
   <g id="patch_166">
    <path d="M 345.161867 220.68214 
L 350.373478 220.68214 
L 350.373478 191.471207 
L 345.161867 191.471207 
z
" clip-path="url(#p5981138cc6)" style="fill: #008000"/>
   </g>
   <g id="patch_167">
    <path d="M 353.847884 284.946193 
L 359.059494 284.946193 
L 359.059494 245.399083 
L 353.847884 245.399083 
z
" clip-path="url(#p5981138cc6)" style="fill: #008000"/>
   </g>
   <g id="patch_168">
    <path d="M 397.277968 266.520835 
L 402.489578 266.520835 
L 402.489578 227.872524 
L 397.277968 227.872524 
z
" clip-path="url(#p5981138cc6)" style="fill: #008000"/>
   </g>
   <g id="patch_169">
    <path d="M 414.650002 256.634058 
L 419.861612 256.634058 
L 419.861612 244.050887 
L 414.650002 244.050887 
z
" clip-path="url(#p5981138cc6)" style="fill: #008000"/>
   </g>
   <g id="patch_170">
    <path d="M 432.022035 227.423125 
L 437.233645 227.423125 
L 437.233645 222.030337 
L 432.022035 222.030337 
z
" clip-path="url(#p5981138cc6)" style="fill: #008000"/>
   </g>
   <g id="patch_171">
    <path d="M 440.708052 271.464224 
L 445.919662 271.464224 
L 445.919662 235.512306 
L 440.708052 235.512306 
z
" clip-path="url(#p5981138cc6)" style="fill: #008000"/>
   </g>
   <g id="patch_172">
    <path d="M 458.080086 299.776359 
L 463.291696 299.776359 
L 463.291696 284.946193 
L 458.080086 284.946193 
z
" clip-path="url(#p5981138cc6)" style="fill: #008000"/>
   </g>
   <g id="patch_173">
    <path d="M 466.766103 342.91866 
L 471.977713 342.91866 
L 471.977713 308.764338 
L 466.766103 308.764338 
z
" clip-path="url(#p5981138cc6)" style="fill: #008000"/>
   </g>
   <g id="patch_174">
    <path d="M 475.452119 343.817458 
L 480.663729 343.817458 
L 480.663729 338.874069 
L 475.452119 338.874069 
z
" clip-path="url(#p5981138cc6)" style="fill: #008000"/>
   </g>
   <g id="patch_175">
    <path d="M 510.196187 326.290898 
L 515.407797 326.290898 
L 515.407797 303.371551 
L 510.196187 303.371551 
z
" clip-path="url(#p5981138cc6)" style="fill: #008000"/>
   </g>
   <g id="patch_176">
    <path d="M 518.882203 362.692215 
L 524.093813 362.692215 
L 524.093813 334.38008 
L 518.882203 334.38008 
z
" clip-path="url(#p5981138cc6)" style="fill: #008000"/>
   </g>
   <g id="patch_177">
    <path d="M 527.56822 373.927189 
L 532.77983 373.927189 
L 532.77983 354.153634 
L 527.56822 354.153634 
z
" clip-path="url(#p5981138cc6)" style="fill: #008000"/>
   </g>
   <g id="patch_178">
    <path d="M 544.940254 389.656153 
L 550.151864 389.656153 
L 550.151864 366.736806 
L 544.940254 366.736806 
z
" clip-path="url(#p5981138cc6)" style="fill: #008000"/>
   </g>
   <g id="patch_179">
    <path d="M 570.998304 378.421179 
L 576.209914 378.421179 
L 576.209914 350.558443 
L 570.998304 350.558443 
z
" clip-path="url(#p5981138cc6)" style="fill: #008000"/>
   </g>
   <g id="patch_180">
    <path d="M 623.114405 304.719748 
L 628.326015 304.719748 
L 628.326015 300.225758 
L 623.114405 300.225758 
z
" clip-path="url(#p5981138cc6)" style="fill: #008000"/>
   </g>
   <g id="patch_181">
    <path d="M 631.800422 322.695706 
L 637.012032 322.695706 
L 637.012032 306.966742 
L 631.800422 306.966742 
z
" clip-path="url(#p5981138cc6)" style="fill: #008000"/>
   </g>
   <g id="patch_182">
    <path d="M 675.230506 267.869032 
L 680.442116 267.869032 
L 680.442116 252.140068 
L 675.230506 252.140068 
z
" clip-path="url(#p5981138cc6)" style="fill: #008000"/>
   </g>
   <g id="patch_183">
    <path d="M 683.916522 282.249799 
L 689.128133 282.249799 
L 689.128133 272.363022 
L 683.916522 272.363022 
z
" clip-path="url(#p5981138cc6)" style="fill: #008000"/>
   </g>
   <g id="patch_184">
    <path d="M 709.974573 281.351001 
L 715.186183 281.351001 
L 715.186183 269.217229 
L 709.974573 269.217229 
z
" clip-path="url(#p5981138cc6)" style="fill: #008000"/>
   </g>
   <g id="patch_185">
    <path d="M 718.66059 280.002804 
L 723.8722 280.002804 
L 723.8722 275.958213 
L 718.66059 275.958213 
z
" clip-path="url(#p5981138cc6)" style="fill: #008000"/>
   </g>
   <g id="patch_186">
    <path d="M 736.032623 283.148597 
L 741.244233 283.148597 
L 741.244233 267.869032 
L 736.032623 267.869032 
z
" clip-path="url(#p5981138cc6)" style="fill: #008000"/>
   </g>
   <g id="patch_187">
    <path d="M 744.71864 293.035374 
L 749.93025 293.035374 
L 749.93025 284.496794 
L 744.71864 284.496794 
z
" clip-path="url(#p5981138cc6)" style="fill: #008000"/>
   </g>
   <g id="patch_188">
    <path d="M 753.404657 306.517343 
L 758.616267 306.517343 
L 758.616267 288.990784 
L 753.404657 288.990784 
z
" clip-path="url(#p5981138cc6)" style="fill: #008000"/>
   </g>
   <g id="patch_189">
    <path d="M 770.77669 324.942701 
L 775.9883 324.942701 
L 775.9883 315.055924 
L 770.77669 315.055924 
z
" clip-path="url(#p5981138cc6)" style="fill: #008000"/>
   </g>
   <g id="patch_190">
    <path d="M 779.462707 364.040412 
L 784.674317 364.040412 
L 784.674317 328.537893 
L 779.462707 328.537893 
z
" clip-path="url(#p5981138cc6)" style="fill: #008000"/>
   </g>
   <g id="patch_191">
    <path d="M 796.834741 355.052432 
L 802.046351 355.052432 
L 802.046351 351.90664 
L 796.834741 351.90664 
z
" clip-path="url(#p5981138cc6)" style="fill: #008000"/>
   </g>
   <g id="patch_192">
    <path d="M 805.520758 360.44522 
L 810.732368 360.44522 
L 810.732368 356.850028 
L 805.520758 356.850028 
z
" clip-path="url(#p5981138cc6)" style="fill: #008000"/>
   </g>
   <g id="patch_193">
    <path d="M 814.206774 382.016371 
L 819.418384 382.016371 
L 819.418384 361.344018 
L 814.206774 361.344018 
z
" clip-path="url(#p5981138cc6)" style="fill: #008000"/>
   </g>
   <g id="patch_194">
    <path d="M 822.892791 394.599542 
L 828.104401 394.599542 
L 828.104401 377.522381 
L 822.892791 377.522381 
z
" clip-path="url(#p5981138cc6)" style="fill: #008000"/>
   </g>
   <g id="patch_195">
    <path d="M 831.578808 446.729822 
L 836.790418 446.729822 
L 836.790418 426.506869 
L 831.578808 426.506869 
z
" clip-path="url(#p5981138cc6)" style="fill: #008000"/>
   </g>
   <g id="patch_196">
    <path d="M 840.264825 444.033429 
L 845.476435 444.033429 
L 845.476435 439.539439 
L 840.264825 439.539439 
z
" clip-path="url(#p5981138cc6)" style="fill: #008000"/>
   </g>
   <g id="patch_197">
    <path d="M 848.950842 456.167201 
L 854.162452 456.167201 
L 854.162452 448.527418 
L 848.950842 448.527418 
z
" clip-path="url(#p5981138cc6)" style="fill: #008000"/>
   </g>
   <g id="patch_198">
    <path d="M 866.322875 445.831025 
L 871.534485 445.831025 
L 871.534485 418.417687 
L 866.322875 418.417687 
z
" clip-path="url(#p5981138cc6)" style="fill: #008000"/>
   </g>
   <g id="patch_199">
    <path d="M 875.008892 488.074528 
L 880.220502 488.074528 
L 880.220502 455.717802 
L 875.008892 455.717802 
z
" clip-path="url(#p5981138cc6)" style="fill: #008000"/>
   </g>
   <g id="patch_200">
    <path d="M 883.694909 494.366113 
L 888.906519 494.366113 
L 888.906519 488.523927 
L 883.694909 488.523927 
z
" clip-path="url(#p5981138cc6)" style="fill: #008000"/>
   </g>
   <g id="patch_201">
    <path d="M 918.438976 467.851574 
L 923.650586 467.851574 
L 923.650586 446.280424 
L 918.438976 446.280424 
z
" clip-path="url(#p5981138cc6)" style="fill: #008000"/>
   </g>
   <g id="patch_202">
    <path d="M 944.497026 473.693761 
L 949.708636 473.693761 
L 949.708636 427.405667 
L 944.497026 427.405667 
z
" clip-path="url(#p5981138cc6)" style="fill: #008000"/>
   </g>
   <g id="matplotlib.axis_1">
    <g id="xtick_1">
     <g id="line2d_1">
      <defs>
       <path id="m269efb630c" d="M 0 0 
L 0 3.5 
" style="stroke: #000000; stroke-width: 0.8"/>
      </defs>
      <g>
       <use xlink:href="#m269efb630c" x="87.187169" y="521.93674" style="stroke: #000000; stroke-width: 0.8"/>
      </g>
     </g>
     <g id="text_1">
      <!-- 2025-07-01 -->
      <g transform="translate(74.636023 561.110099) rotate(-45) scale(0.08 -0.08)">
       <defs>
        <path id="SimHei-32" d="M 300 250 
Q 325 625 650 925 
Q 975 1225 1475 1862 
Q 1975 2500 2125 2850 
Q 2275 3200 2237 3450 
Q 2200 3700 2000 3862 
Q 1800 4025 1537 4000 
Q 1275 3975 1037 3800 
Q 800 3625 675 3275 
L 200 3350 
Q 400 3925 712 4187 
Q 1025 4450 1450 4475 
Q 1700 4500 1900 4462 
Q 2100 4425 2312 4287 
Q 2525 4150 2662 3875 
Q 2800 3600 2762 3212 
Q 2725 2825 2375 2287 
Q 2025 1750 1025 600 
L 2825 600 
L 2825 150 
L 300 150 
L 300 250 
z
" transform="scale(0.015625)"/>
        <path id="SimHei-30" d="M 225 2537 
Q 250 3200 412 3587 
Q 575 3975 875 4225 
Q 1175 4475 1612 4475 
Q 2050 4475 2375 4112 
Q 2700 3750 2800 3200 
Q 2900 2650 2862 1937 
Q 2825 1225 2612 775 
Q 2400 325 1975 150 
Q 1550 -25 1125 187 
Q 700 400 525 750 
Q 350 1100 275 1487 
Q 200 1875 225 2537 
z
M 750 2687 
Q 675 2000 800 1462 
Q 925 925 1212 700 
Q 1500 475 1800 612 
Q 2100 750 2237 1162 
Q 2375 1575 2375 2062 
Q 2375 2550 2337 2950 
Q 2300 3350 2112 3675 
Q 1925 4000 1612 4012 
Q 1300 4025 1062 3700 
Q 825 3375 750 2687 
z
" transform="scale(0.015625)"/>
        <path id="SimHei-35" d="M 550 1325 
Q 725 650 1150 575 
Q 1575 500 1837 662 
Q 2100 825 2212 1087 
Q 2325 1350 2312 1675 
Q 2300 2000 2137 2225 
Q 1975 2450 1725 2525 
Q 1475 2600 1162 2525 
Q 850 2450 650 2175 
L 225 2225 
Q 275 2375 700 4375 
L 2675 4375 
L 2675 3925 
L 1075 3925 
Q 950 3250 825 2850 
Q 1200 3025 1525 3012 
Q 1850 3000 2150 2862 
Q 2450 2725 2587 2487 
Q 2725 2250 2787 2012 
Q 2850 1775 2837 1500 
Q 2825 1225 2725 937 
Q 2625 650 2425 462 
Q 2225 275 1937 162 
Q 1650 50 1275 75 
Q 900 100 562 350 
Q 225 600 100 1200 
L 550 1325 
z
" transform="scale(0.015625)"/>
        <path id="SimHei-2d" d="M 2975 2125 
L 125 2125 
L 125 2525 
L 2975 2525 
L 2975 2125 
z
" transform="scale(0.015625)"/>
        <path id="SimHei-37" d="M 850 150 
Q 1300 2050 2425 3925 
L 275 3925 
L 275 4375 
L 2950 4375 
L 2950 3950 
Q 1775 2050 1400 150 
L 850 150 
z
" transform="scale(0.015625)"/>
        <path id="SimHei-31" d="M 1400 3600 
Q 1075 3275 575 2975 
L 575 3450 
Q 1200 3875 1600 4450 
L 1900 4450 
L 1900 150 
L 1400 150 
L 1400 3600 
z
" transform="scale(0.015625)"/>
       </defs>
       <use xlink:href="#SimHei-32"/>
       <use xlink:href="#SimHei-30" transform="translate(50 0)"/>
       <use xlink:href="#SimHei-32" transform="translate(100 0)"/>
       <use xlink:href="#SimHei-35" transform="translate(150 0)"/>
       <use xlink:href="#SimHei-2d" transform="translate(200 0)"/>
       <use xlink:href="#SimHei-30" transform="translate(250 0)"/>
       <use xlink:href="#SimHei-37" transform="translate(300 0)"/>
       <use xlink:href="#SimHei-2d" transform="translate(350 0)"/>
       <use xlink:href="#SimHei-30" transform="translate(400 0)"/>
       <use xlink:href="#SimHei-31" transform="translate(450 0)"/>
      </g>
     </g>
    </g>
    <g id="xtick_2">
     <g id="line2d_2">
      <g>
       <use xlink:href="#m269efb630c" x="130.617253" y="521.93674" style="stroke: #000000; stroke-width: 0.8"/>
      </g>
     </g>
     <g id="text_2">
      <!-- 2025-07-09 -->
      <g transform="translate(118.066107 561.110099) rotate(-45) scale(0.08 -0.08)">
       <defs>
        <path id="SimHei-39" d="M 800 75 
Q 1350 1000 1700 1750 
Q 1075 1650 662 1912 
Q 250 2175 162 2625 
Q 75 3075 175 3437 
Q 275 3800 487 4037 
Q 700 4275 1000 4375 
Q 1300 4475 1537 4475 
Q 1775 4475 2025 4375 
Q 2275 4275 2475 4075 
Q 2675 3875 2750 3662 
Q 2825 3450 2825 3112 
Q 2825 2775 2575 2250 
Q 2325 1725 1350 75 
L 800 75 
z
M 662 2875 
Q 700 2550 937 2337 
Q 1175 2125 1450 2150 
Q 1725 2175 1887 2300 
Q 2050 2425 2200 2725 
Q 2300 3100 2250 3362 
Q 2200 3625 1987 3800 
Q 1775 3975 1525 3975 
Q 1375 4000 1137 3900 
Q 900 3800 762 3500 
Q 625 3200 662 2875 
z
" transform="scale(0.015625)"/>
       </defs>
       <use xlink:href="#SimHei-32"/>
       <use xlink:href="#SimHei-30" transform="translate(50 0)"/>
       <use xlink:href="#SimHei-32" transform="translate(100 0)"/>
       <use xlink:href="#SimHei-35" transform="translate(150 0)"/>
       <use xlink:href="#SimHei-2d" transform="translate(200 0)"/>
       <use xlink:href="#SimHei-30" transform="translate(250 0)"/>
       <use xlink:href="#SimHei-37" transform="translate(300 0)"/>
       <use xlink:href="#SimHei-2d" transform="translate(350 0)"/>
       <use xlink:href="#SimHei-30" transform="translate(400 0)"/>
       <use xlink:href="#SimHei-39" transform="translate(450 0)"/>
      </g>
     </g>
    </g>
    <g id="xtick_3">
     <g id="line2d_3">
      <g>
       <use xlink:href="#m269efb630c" x="174.047337" y="521.93674" style="stroke: #000000; stroke-width: 0.8"/>
      </g>
     </g>
     <g id="text_3">
      <!-- 2025-07-16 -->
      <g transform="translate(161.496191 561.110099) rotate(-45) scale(0.08 -0.08)">
       <defs>
        <path id="SimHei-36" d="M 250 1612 
Q 275 1975 387 2225 
Q 500 2475 725 2850 
L 1750 4450 
L 2325 4450 
L 1275 2800 
Q 1950 2975 2350 2750 
Q 2750 2525 2887 2237 
Q 3025 1950 3037 1612 
Q 3050 1275 2937 950 
Q 2825 625 2537 362 
Q 2250 100 1737 75 
Q 1225 50 862 262 
Q 500 475 362 862 
Q 225 1250 250 1612 
z
M 1025 787 
Q 1250 550 1625 525 
Q 2000 500 2250 775 
Q 2500 1050 2500 1575 
Q 2500 2100 2187 2300 
Q 1875 2500 1487 2450 
Q 1100 2400 925 2075 
Q 750 1750 775 1387 
Q 800 1025 1025 787 
z
" transform="scale(0.015625)"/>
       </defs>
       <use xlink:href="#SimHei-32"/>
       <use xlink:href="#SimHei-30" transform="translate(50 0)"/>
       <use xlink:href="#SimHei-32" transform="translate(100 0)"/>
       <use xlink:href="#SimHei-35" transform="translate(150 0)"/>
       <use xlink:href="#SimHei-2d" transform="translate(200 0)"/>
       <use xlink:href="#SimHei-30" transform="translate(250 0)"/>
       <use xlink:href="#SimHei-37" transform="translate(300 0)"/>
       <use xlink:href="#SimHei-2d" transform="translate(350 0)"/>
       <use xlink:href="#SimHei-31" transform="translate(400 0)"/>
       <use xlink:href="#SimHei-36" transform="translate(450 0)"/>
      </g>
     </g>
    </g>
    <g id="xtick_4">
     <g id="line2d_4">
      <g>
       <use xlink:href="#m269efb630c" x="217.477421" y="521.93674" style="stroke: #000000; stroke-width: 0.8"/>
      </g>
     </g>
     <g id="text_4">
      <!-- 2025-07-23 -->
      <g transform="translate(204.926275 561.110099) rotate(-45) scale(0.08 -0.08)">
       <defs>
        <path id="SimHei-33" d="M 250 1225 
L 700 1300 
Q 800 975 1025 762 
Q 1250 550 1587 562 
Q 1925 575 2125 837 
Q 2325 1100 2300 1437 
Q 2275 1775 2037 1962 
Q 1800 2150 1275 2225 
L 1275 2550 
Q 1800 2600 2037 2825 
Q 2275 3050 2250 3412 
Q 2225 3775 1925 3937 
Q 1625 4100 1287 3975 
Q 950 3850 750 3275 
L 300 3350 
Q 450 3800 712 4100 
Q 975 4400 1425 4450 
Q 1875 4500 2212 4337 
Q 2550 4175 2687 3837 
Q 2825 3500 2725 3100 
Q 2625 2700 2150 2400 
Q 2500 2250 2687 1950 
Q 2875 1650 2812 1162 
Q 2750 675 2375 375 
Q 2000 75 1525 87 
Q 1050 100 700 387 
Q 350 675 250 1225 
z
" transform="scale(0.015625)"/>
       </defs>
       <use xlink:href="#SimHei-32"/>
       <use xlink:href="#SimHei-30" transform="translate(50 0)"/>
       <use xlink:href="#SimHei-32" transform="translate(100 0)"/>
       <use xlink:href="#SimHei-35" transform="translate(150 0)"/>
       <use xlink:href="#SimHei-2d" transform="translate(200 0)"/>
       <use xlink:href="#SimHei-30" transform="translate(250 0)"/>
       <use xlink:href="#SimHei-37" transform="translate(300 0)"/>
       <use xlink:href="#SimHei-2d" transform="translate(350 0)"/>
       <use xlink:href="#SimHei-32" transform="translate(400 0)"/>
       <use xlink:href="#SimHei-33" transform="translate(450 0)"/>
      </g>
     </g>
    </g>
    <g id="xtick_5">
     <g id="line2d_5">
      <g>
       <use xlink:href="#m269efb630c" x="260.907505" y="521.93674" style="stroke: #000000; stroke-width: 0.8"/>
      </g>
     </g>
     <g id="text_5">
      <!-- 2025-07-30 -->
      <g transform="translate(248.356359 561.110099) rotate(-45) scale(0.08 -0.08)">
       <use xlink:href="#SimHei-32"/>
       <use xlink:href="#SimHei-30" transform="translate(50 0)"/>
       <use xlink:href="#SimHei-32" transform="translate(100 0)"/>
       <use xlink:href="#SimHei-35" transform="translate(150 0)"/>
       <use xlink:href="#SimHei-2d" transform="translate(200 0)"/>
       <use xlink:href="#SimHei-30" transform="translate(250 0)"/>
       <use xlink:href="#SimHei-37" transform="translate(300 0)"/>
       <use xlink:href="#SimHei-2d" transform="translate(350 0)"/>
       <use xlink:href="#SimHei-33" transform="translate(400 0)"/>
       <use xlink:href="#SimHei-30" transform="translate(450 0)"/>
      </g>
     </g>
    </g>
    <g id="xtick_6">
     <g id="line2d_6">
      <g>
       <use xlink:href="#m269efb630c" x="304.337589" y="521.93674" style="stroke: #000000; stroke-width: 0.8"/>
      </g>
     </g>
     <g id="text_6">
      <!-- 2025-08-07 -->
      <g transform="translate(291.786443 561.110099) rotate(-45) scale(0.08 -0.08)">
       <defs>
        <path id="SimHei-38" d="M 175 1375 
Q 175 1675 325 1962 
Q 475 2250 825 2425 
Q 525 2600 425 2812 
Q 325 3025 312 3300 
Q 300 3575 387 3775 
Q 475 3975 650 4150 
Q 825 4325 1037 4387 
Q 1250 4450 1500 4450 
Q 1750 4450 1950 4400 
Q 2150 4350 2375 4187 
Q 2600 4025 2700 3725 
Q 2800 3425 2687 3025 
Q 2575 2625 2100 2400 
Q 2525 2275 2700 2012 
Q 2875 1750 2875 1375 
Q 2875 1000 2762 775 
Q 2650 550 2512 400 
Q 2375 250 2137 162 
Q 1900 75 1537 75 
Q 1175 75 912 162 
Q 650 250 475 425 
Q 300 600 237 837 
Q 175 1075 175 1375 
z
M 687 1400 
Q 675 1100 787 875 
Q 900 650 1200 587 
Q 1500 525 1825 600 
Q 2150 675 2275 950 
Q 2400 1225 2362 1500 
Q 2325 1775 2050 1962 
Q 1775 2150 1450 2125 
Q 1125 2100 912 1900 
Q 700 1700 687 1400 
z
M 775 3350 
Q 775 3100 950 2875 
Q 1125 2650 1500 2650 
Q 1875 2650 2062 2875 
Q 2250 3100 2237 3412 
Q 2225 3725 2012 3875 
Q 1800 4025 1437 4000 
Q 1075 3975 925 3787 
Q 775 3600 775 3350 
z
" transform="scale(0.015625)"/>
       </defs>
       <use xlink:href="#SimHei-32"/>
       <use xlink:href="#SimHei-30" transform="translate(50 0)"/>
       <use xlink:href="#SimHei-32" transform="translate(100 0)"/>
       <use xlink:href="#SimHei-35" transform="translate(150 0)"/>
       <use xlink:href="#SimHei-2d" transform="translate(200 0)"/>
       <use xlink:href="#SimHei-30" transform="translate(250 0)"/>
       <use xlink:href="#SimHei-38" transform="translate(300 0)"/>
       <use xlink:href="#SimHei-2d" transform="translate(350 0)"/>
       <use xlink:href="#SimHei-30" transform="translate(400 0)"/>
       <use xlink:href="#SimHei-37" transform="translate(450 0)"/>
      </g>
     </g>
    </g>
    <g id="xtick_7">
     <g id="line2d_7">
      <g>
       <use xlink:href="#m269efb630c" x="347.767673" y="521.93674" style="stroke: #000000; stroke-width: 0.8"/>
      </g>
     </g>
     <g id="text_7">
      <!-- 2025-08-15 -->
      <g transform="translate(335.216527 561.110099) rotate(-45) scale(0.08 -0.08)">
       <use xlink:href="#SimHei-32"/>
       <use xlink:href="#SimHei-30" transform="translate(50 0)"/>
       <use xlink:href="#SimHei-32" transform="translate(100 0)"/>
       <use xlink:href="#SimHei-35" transform="translate(150 0)"/>
       <use xlink:href="#SimHei-2d" transform="translate(200 0)"/>
       <use xlink:href="#SimHei-30" transform="translate(250 0)"/>
       <use xlink:href="#SimHei-38" transform="translate(300 0)"/>
       <use xlink:href="#SimHei-2d" transform="translate(350 0)"/>
       <use xlink:href="#SimHei-31" transform="translate(400 0)"/>
       <use xlink:href="#SimHei-35" transform="translate(450 0)"/>
      </g>
     </g>
    </g>
    <g id="xtick_8">
     <g id="line2d_8">
      <g>
       <use xlink:href="#m269efb630c" x="391.197756" y="521.93674" style="stroke: #000000; stroke-width: 0.8"/>
      </g>
     </g>
     <g id="text_8">
      <!-- 2025-08-27 -->
      <g transform="translate(378.646611 561.110099) rotate(-45) scale(0.08 -0.08)">
       <use xlink:href="#SimHei-32"/>
       <use xlink:href="#SimHei-30" transform="translate(50 0)"/>
       <use xlink:href="#SimHei-32" transform="translate(100 0)"/>
       <use xlink:href="#SimHei-35" transform="translate(150 0)"/>
       <use xlink:href="#SimHei-2d" transform="translate(200 0)"/>
       <use xlink:href="#SimHei-30" transform="translate(250 0)"/>
       <use xlink:href="#SimHei-38" transform="translate(300 0)"/>
       <use xlink:href="#SimHei-2d" transform="translate(350 0)"/>
       <use xlink:href="#SimHei-32" transform="translate(400 0)"/>
       <use xlink:href="#SimHei-37" transform="translate(450 0)"/>
      </g>
     </g>
    </g>
    <g id="xtick_9">
     <g id="line2d_9">
      <g>
       <use xlink:href="#m269efb630c" x="434.62784" y="521.93674" style="stroke: #000000; stroke-width: 0.8"/>
      </g>
     </g>
     <g id="text_9">
      <!-- 2025-09-04 -->
      <g transform="translate(422.076695 561.110099) rotate(-45) scale(0.08 -0.08)">
       <defs>
        <path id="SimHei-34" d="M 2000 1100 
L 75 1100 
L 75 1525 
L 2100 4450 
L 2475 4450 
L 2475 1525 
L 3075 1525 
L 3075 1100 
L 2475 1100 
L 2475 150 
L 2000 150 
L 2000 1100 
z
M 2000 1525 
L 2000 3500 
L 600 1525 
L 2000 1525 
z
" transform="scale(0.015625)"/>
       </defs>
       <use xlink:href="#SimHei-32"/>
       <use xlink:href="#SimHei-30" transform="translate(50 0)"/>
       <use xlink:href="#SimHei-32" transform="translate(100 0)"/>
       <use xlink:href="#SimHei-35" transform="translate(150 0)"/>
       <use xlink:href="#SimHei-2d" transform="translate(200 0)"/>
       <use xlink:href="#SimHei-30" transform="translate(250 0)"/>
       <use xlink:href="#SimHei-39" transform="translate(300 0)"/>
       <use xlink:href="#SimHei-2d" transform="translate(350 0)"/>
       <use xlink:href="#SimHei-30" transform="translate(400 0)"/>
       <use xlink:href="#SimHei-34" transform="translate(450 0)"/>
      </g>
     </g>
    </g>
    <g id="xtick_10">
     <g id="line2d_10">
      <g>
       <use xlink:href="#m269efb630c" x="478.057924" y="521.93674" style="stroke: #000000; stroke-width: 0.8"/>
      </g>
     </g>
     <g id="text_10">
      <!-- 2025-09-11 -->
      <g transform="translate(465.506779 561.110099) rotate(-45) scale(0.08 -0.08)">
       <use xlink:href="#SimHei-32"/>
       <use xlink:href="#SimHei-30" transform="translate(50 0)"/>
       <use xlink:href="#SimHei-32" transform="translate(100 0)"/>
       <use xlink:href="#SimHei-35" transform="translate(150 0)"/>
       <use xlink:href="#SimHei-2d" transform="translate(200 0)"/>
       <use xlink:href="#SimHei-30" transform="translate(250 0)"/>
       <use xlink:href="#SimHei-39" transform="translate(300 0)"/>
       <use xlink:href="#SimHei-2d" transform="translate(350 0)"/>
       <use xlink:href="#SimHei-31" transform="translate(400 0)"/>
       <use xlink:href="#SimHei-31" transform="translate(450 0)"/>
      </g>
     </g>
    </g>
    <g id="xtick_11">
     <g id="line2d_11">
      <g>
       <use xlink:href="#m269efb630c" x="521.488008" y="521.93674" style="stroke: #000000; stroke-width: 0.8"/>
      </g>
     </g>
     <g id="text_11">
      <!-- 2025-09-23 -->
      <g transform="translate(508.936863 561.110099) rotate(-45) scale(0.08 -0.08)">
       <use xlink:href="#SimHei-32"/>
       <use xlink:href="#SimHei-30" transform="translate(50 0)"/>
       <use xlink:href="#SimHei-32" transform="translate(100 0)"/>
       <use xlink:href="#SimHei-35" transform="translate(150 0)"/>
       <use xlink:href="#SimHei-2d" transform="translate(200 0)"/>
       <use xlink:href="#SimHei-30" transform="translate(250 0)"/>
       <use xlink:href="#SimHei-39" transform="translate(300 0)"/>
       <use xlink:href="#SimHei-2d" transform="translate(350 0)"/>
       <use xlink:href="#SimHei-32" transform="translate(400 0)"/>
       <use xlink:href="#SimHei-33" transform="translate(450 0)"/>
      </g>
     </g>
    </g>
    <g id="xtick_12">
     <g id="line2d_12">
      <g>
       <use xlink:href="#m269efb630c" x="564.918092" y="521.93674" style="stroke: #000000; stroke-width: 0.8"/>
      </g>
     </g>
     <g id="text_12">
      <!-- 2025-10-09 -->
      <g transform="translate(552.366947 561.110099) rotate(-45) scale(0.08 -0.08)">
       <use xlink:href="#SimHei-32"/>
       <use xlink:href="#SimHei-30" transform="translate(50 0)"/>
       <use xlink:href="#SimHei-32" transform="translate(100 0)"/>
       <use xlink:href="#SimHei-35" transform="translate(150 0)"/>
       <use xlink:href="#SimHei-2d" transform="translate(200 0)"/>
       <use xlink:href="#SimHei-31" transform="translate(250 0)"/>
       <use xlink:href="#SimHei-30" transform="translate(300 0)"/>
       <use xlink:href="#SimHei-2d" transform="translate(350 0)"/>
       <use xlink:href="#SimHei-30" transform="translate(400 0)"/>
       <use xlink:href="#SimHei-39" transform="translate(450 0)"/>
      </g>
     </g>
    </g>
    <g id="xtick_13">
     <g id="line2d_13">
      <g>
       <use xlink:href="#m269efb630c" x="608.348176" y="521.93674" style="stroke: #000000; stroke-width: 0.8"/>
      </g>
     </g>
     <g id="text_13">
      <!-- 2025-10-20 -->
      <g transform="translate(595.797031 561.110099) rotate(-45) scale(0.08 -0.08)">
       <use xlink:href="#SimHei-32"/>
       <use xlink:href="#SimHei-30" transform="translate(50 0)"/>
       <use xlink:href="#SimHei-32" transform="translate(100 0)"/>
       <use xlink:href="#SimHei-35" transform="translate(150 0)"/>
       <use xlink:href="#SimHei-2d" transform="translate(200 0)"/>
       <use xlink:href="#SimHei-31" transform="translate(250 0)"/>
       <use xlink:href="#SimHei-30" transform="translate(300 0)"/>
       <use xlink:href="#SimHei-2d" transform="translate(350 0)"/>
       <use xlink:href="#SimHei-32" transform="translate(400 0)"/>
       <use xlink:href="#SimHei-30" transform="translate(450 0)"/>
      </g>
     </g>
    </g>
    <g id="xtick_14">
     <g id="line2d_14">
      <g>
       <use xlink:href="#m269efb630c" x="651.77826" y="521.93674" style="stroke: #000000; stroke-width: 0.8"/>
      </g>
     </g>
     <g id="text_14">
      <!-- 2025-10-30 -->
      <g transform="translate(639.227115 561.110099) rotate(-45) scale(0.08 -0.08)">
       <use xlink:href="#SimHei-32"/>
       <use xlink:href="#SimHei-30" transform="translate(50 0)"/>
       <use xlink:href="#SimHei-32" transform="translate(100 0)"/>
       <use xlink:href="#SimHei-35" transform="translate(150 0)"/>
       <use xlink:href="#SimHei-2d" transform="translate(200 0)"/>
       <use xlink:href="#SimHei-31" transform="translate(250 0)"/>
       <use xlink:href="#SimHei-30" transform="translate(300 0)"/>
       <use xlink:href="#SimHei-2d" transform="translate(350 0)"/>
       <use xlink:href="#SimHei-33" transform="translate(400 0)"/>
       <use xlink:href="#SimHei-30" transform="translate(450 0)"/>
      </g>
     </g>
    </g>
    <g id="xtick_15">
     <g id="line2d_15">
      <g>
       <use xlink:href="#m269efb630c" x="695.208344" y="521.93674" style="stroke: #000000; stroke-width: 0.8"/>
      </g>
     </g>
     <g id="text_15">
      <!-- 2025-11-10 -->
      <g transform="translate(682.657199 561.110099) rotate(-45) scale(0.08 -0.08)">
       <use xlink:href="#SimHei-32"/>
       <use xlink:href="#SimHei-30" transform="translate(50 0)"/>
       <use xlink:href="#SimHei-32" transform="translate(100 0)"/>
       <use xlink:href="#SimHei-35" transform="translate(150 0)"/>
       <use xlink:href="#SimHei-2d" transform="translate(200 0)"/>
       <use xlink:href="#SimHei-31" transform="translate(250 0)"/>
       <use xlink:href="#SimHei-31" transform="translate(300 0)"/>
       <use xlink:href="#SimHei-2d" transform="translate(350 0)"/>
       <use xlink:href="#SimHei-31" transform="translate(400 0)"/>
       <use xlink:href="#SimHei-30" transform="translate(450 0)"/>
      </g>
     </g>
    </g>
    <g id="xtick_16">
     <g id="line2d_16">
      <g>
       <use xlink:href="#m269efb630c" x="738.638428" y="521.93674" style="stroke: #000000; stroke-width: 0.8"/>
      </g>
     </g>
     <g id="text_16">
      <!-- 2025-11-19 -->
      <g transform="translate(726.087283 561.110099) rotate(-45) scale(0.08 -0.08)">
       <use xlink:href="#SimHei-32"/>
       <use xlink:href="#SimHei-30" transform="translate(50 0)"/>
       <use xlink:href="#SimHei-32" transform="translate(100 0)"/>
       <use xlink:href="#SimHei-35" transform="translate(150 0)"/>
       <use xlink:href="#SimHei-2d" transform="translate(200 0)"/>
       <use xlink:href="#SimHei-31" transform="translate(250 0)"/>
       <use xlink:href="#SimHei-31" transform="translate(300 0)"/>
       <use xlink:href="#SimHei-2d" transform="translate(350 0)"/>
       <use xlink:href="#SimHei-31" transform="translate(400 0)"/>
       <use xlink:href="#SimHei-39" transform="translate(450 0)"/>
      </g>
     </g>
    </g>
    <g id="xtick_17">
     <g id="line2d_17">
      <g>
       <use xlink:href="#m269efb630c" x="782.068512" y="521.93674" style="stroke: #000000; stroke-width: 0.8"/>
      </g>
     </g>
     <g id="text_17">
      <!-- 2025-11-26 -->
      <g transform="translate(769.517367 561.110099) rotate(-45) scale(0.08 -0.08)">
       <use xlink:href="#SimHei-32"/>
       <use xlink:href="#SimHei-30" transform="translate(50 0)"/>
       <use xlink:href="#SimHei-32" transform="translate(100 0)"/>
       <use xlink:href="#SimHei-35" transform="translate(150 0)"/>
       <use xlink:href="#SimHei-2d" transform="translate(200 0)"/>
       <use xlink:href="#SimHei-31" transform="translate(250 0)"/>
       <use xlink:href="#SimHei-31" transform="translate(300 0)"/>
       <use xlink:href="#SimHei-2d" transform="translate(350 0)"/>
       <use xlink:href="#SimHei-32" transform="translate(400 0)"/>
       <use xlink:href="#SimHei-36" transform="translate(450 0)"/>
      </g>
     </g>
    </g>
    <g id="xtick_18">
     <g id="line2d_18">
      <g>
       <use xlink:href="#m269efb630c" x="825.498596" y="521.93674" style="stroke: #000000; stroke-width: 0.8"/>
      </g>
     </g>
     <g id="text_18">
      <!-- 2025-12-03 -->
      <g transform="translate(812.947451 561.110099) rotate(-45) scale(0.08 -0.08)">
       <use xlink:href="#SimHei-32"/>
       <use xlink:href="#SimHei-30" transform="translate(50 0)"/>
       <use xlink:href="#SimHei-32" transform="translate(100 0)"/>
       <use xlink:href="#SimHei-35" transform="translate(150 0)"/>
       <use xlink:href="#SimHei-2d" transform="translate(200 0)"/>
       <use xlink:href="#SimHei-31" transform="translate(250 0)"/>
       <use xlink:href="#SimHei-32" transform="translate(300 0)"/>
       <use xlink:href="#SimHei-2d" transform="translate(350 0)"/>
       <use xlink:href="#SimHei-30" transform="translate(400 0)"/>
       <use xlink:href="#SimHei-33" transform="translate(450 0)"/>
      </g>
     </g>
    </g>
    <g id="xtick_19">
     <g id="line2d_19">
      <g>
       <use xlink:href="#m269efb630c" x="868.92868" y="521.93674" style="stroke: #000000; stroke-width: 0.8"/>
      </g>
     </g>
     <g id="text_19">
      <!-- 2025-12-12 -->
      <g transform="translate(856.377535 561.110099) rotate(-45) scale(0.08 -0.08)">
       <use xlink:href="#SimHei-32"/>
       <use xlink:href="#SimHei-30" transform="translate(50 0)"/>
       <use xlink:href="#SimHei-32" transform="translate(100 0)"/>
       <use xlink:href="#SimHei-35" transform="translate(150 0)"/>
       <use xlink:href="#SimHei-2d" transform="translate(200 0)"/>
       <use xlink:href="#SimHei-31" transform="translate(250 0)"/>
       <use xlink:href="#SimHei-32" transform="translate(300 0)"/>
       <use xlink:href="#SimHei-2d" transform="translate(350 0)"/>
       <use xlink:href="#SimHei-31" transform="translate(400 0)"/>
       <use xlink:href="#SimHei-32" transform="translate(450 0)"/>
      </g>
     </g>
    </g>
    <g id="xtick_20">
     <g id="line2d_20">
      <g>
       <use xlink:href="#m269efb630c" x="912.358764" y="521.93674" style="stroke: #000000; stroke-width: 0.8"/>
      </g>
     </g>
     <g id="text_20">
      <!-- 2025-12-19 -->
      <g transform="translate(899.807619 561.110099) rotate(-45) scale(0.08 -0.08)">
       <use xlink:href="#SimHei-32"/>
       <use xlink:href="#SimHei-30" transform="translate(50 0)"/>
       <use xlink:href="#SimHei-32" transform="translate(100 0)"/>
       <use xlink:href="#SimHei-35" transform="translate(150 0)"/>
       <use xlink:href="#SimHei-2d" transform="translate(200 0)"/>
       <use xlink:href="#SimHei-31" transform="translate(250 0)"/>
       <use xlink:href="#SimHei-32" transform="translate(300 0)"/>
       <use xlink:href="#SimHei-2d" transform="translate(350 0)"/>
       <use xlink:href="#SimHei-31" transform="translate(400 0)"/>
       <use xlink:href="#SimHei-39" transform="translate(450 0)"/>
      </g>
     </g>
    </g>
   </g>
   <g id="matplotlib.axis_2">
    <g id="ytick_1">
     <g id="line2d_21">
      <defs>
       <path id="ma3b1503ea8" d="M 0 0 
L -3.5 0 
" style="stroke: #000000; stroke-width: 0.8"/>
      </defs>
      <g>
       <use xlink:href="#ma3b1503ea8" x="41.325" y="466.952776" style="stroke: #000000; stroke-width: 0.8"/>
      </g>
     </g>
     <g id="text_21">
      <!-- 112 -->
      <g transform="translate(19.325 470.390276) scale(0.1 -0.1)">
       <use xlink:href="#SimHei-31"/>
       <use xlink:href="#SimHei-31" transform="translate(50 0)"/>
       <use xlink:href="#SimHei-32" transform="translate(100 0)"/>
      </g>
     </g>
    </g>
    <g id="ytick_2">
     <g id="line2d_22">
      <g>
       <use xlink:href="#ma3b1503ea8" x="41.325" y="377.072982" style="stroke: #000000; stroke-width: 0.8"/>
      </g>
     </g>
     <g id="text_22">
      <!-- 114 -->
      <g transform="translate(19.325 380.510482) scale(0.1 -0.1)">
       <use xlink:href="#SimHei-31"/>
       <use xlink:href="#SimHei-31" transform="translate(50 0)"/>
       <use xlink:href="#SimHei-34" transform="translate(100 0)"/>
      </g>
     </g>
    </g>
    <g id="ytick_3">
     <g id="line2d_23">
      <g>
       <use xlink:href="#ma3b1503ea8" x="41.325" y="287.193188" style="stroke: #000000; stroke-width: 0.8"/>
      </g>
     </g>
     <g id="text_23">
      <!-- 116 -->
      <g transform="translate(19.325 290.630688) scale(0.1 -0.1)">
       <use xlink:href="#SimHei-31"/>
       <use xlink:href="#SimHei-31" transform="translate(50 0)"/>
       <use xlink:href="#SimHei-36" transform="translate(100 0)"/>
      </g>
     </g>
    </g>
    <g id="ytick_4">
     <g id="line2d_24">
      <g>
       <use xlink:href="#ma3b1503ea8" x="41.325" y="197.313394" style="stroke: #000000; stroke-width: 0.8"/>
      </g>
     </g>
     <g id="text_24">
      <!-- 118 -->
      <g transform="translate(19.325 200.750894) scale(0.1 -0.1)">
       <use xlink:href="#SimHei-31"/>
       <use xlink:href="#SimHei-31" transform="translate(50 0)"/>
       <use xlink:href="#SimHei-38" transform="translate(100 0)"/>
      </g>
     </g>
    </g>
    <g id="ytick_5">
     <g id="line2d_25">
      <g>
       <use xlink:href="#ma3b1503ea8" x="41.325" y="107.433599" style="stroke: #000000; stroke-width: 0.8"/>
      </g>
     </g>
     <g id="text_25">
      <!-- 120 -->
      <g transform="translate(19.325 110.871099) scale(0.1 -0.1)">
       <use xlink:href="#SimHei-31"/>
       <use xlink:href="#SimHei-32" transform="translate(50 0)"/>
       <use xlink:href="#SimHei-30" transform="translate(100 0)"/>
      </g>
     </g>
    </g>
    <g id="text_26">
     <!-- Price -->
     <g transform="translate(14.075 285.53712) rotate(-90) scale(0.1 -0.1)">
      <defs>
       <path id="SimHei-50" d="M 2950 3100 
Q 2950 2500 2600 2150 
Q 2250 1800 1625 1800 
L 900 1800 
L 900 125 
L 325 125 
L 325 4400 
L 1625 4400 
Q 2250 4400 2600 4050 
Q 2950 3700 2950 3100 
z
M 2375 3100 
Q 2375 3575 2150 3750 
Q 1925 3925 1475 3925 
L 900 3925 
L 900 2275 
L 1475 2275 
Q 1925 2275 2150 2450 
Q 2375 2625 2375 3100 
z
" transform="scale(0.015625)"/>
       <path id="SimHei-72" d="M 2500 2425 
Q 2025 2500 1700 2287 
Q 1375 2075 1150 1550 
L 1150 125 
L 650 125 
L 650 2925 
L 1150 2925 
L 1150 2200 
Q 1375 2600 1712 2787 
Q 2050 2975 2500 2975 
L 2500 2425 
z
" transform="scale(0.015625)"/>
       <path id="SimHei-69" d="M 1800 3725 
L 1300 3725 
L 1300 4375 
L 1800 4375 
L 1800 3725 
z
M 1800 125 
L 1300 125 
L 1300 2925 
L 1800 2925 
L 1800 125 
z
" transform="scale(0.015625)"/>
       <path id="SimHei-63" d="M 2850 1250 
Q 2850 725 2487 400 
Q 2125 75 1575 75 
Q 1025 75 625 462 
Q 225 850 225 1525 
Q 225 2200 625 2587 
Q 1025 2975 1575 2975 
Q 2125 2975 2450 2687 
Q 2775 2400 2775 2000 
L 2225 2000 
Q 2200 2300 2012 2412 
Q 1825 2525 1575 2525 
Q 1275 2525 1025 2287 
Q 775 2050 775 1525 
Q 775 1000 1025 762 
Q 1275 525 1575 525 
Q 1900 525 2100 700 
Q 2300 875 2300 1250 
L 2850 1250 
z
" transform="scale(0.015625)"/>
       <path id="SimHei-65" d="M 2850 1075 
Q 2800 625 2450 350 
Q 2100 75 1625 75 
Q 1025 75 637 462 
Q 250 850 250 1525 
Q 250 2200 637 2587 
Q 1025 2975 1625 2975 
Q 2150 2975 2487 2637 
Q 2825 2300 2825 1525 
L 800 1525 
Q 800 975 1037 750 
Q 1275 525 1625 525 
Q 1900 525 2075 662 
Q 2250 800 2300 1075 
L 2850 1075 
z
M 2250 1925 
Q 2200 2275 2025 2412 
Q 1850 2550 1575 2550 
Q 1325 2550 1125 2412 
Q 925 2275 825 1925 
L 2250 1925 
z
" transform="scale(0.015625)"/>
      </defs>
      <use xlink:href="#SimHei-50"/>
      <use xlink:href="#SimHei-72" transform="translate(50 0)"/>
      <use xlink:href="#SimHei-69" transform="translate(100 0)"/>
      <use xlink:href="#SimHei-63" transform="translate(150 0)"/>
      <use xlink:href="#SimHei-65" transform="translate(200 0)"/>
     </g>
    </g>
   </g>
   <g id="line2d_26">
    <path d="M 260.907505 213.491756 
L 304.337589 121.814366 
" clip-path="url(#p5981138cc6)" style="fill: none; stroke: #800080; stroke-opacity: 0.8; stroke-width: 1.5; stroke-linecap: square"/>
   </g>
   <g id="line2d_27">
    <path d="M 365.139706 318.201717 
L 434.62784 215.738751 
" clip-path="url(#p5981138cc6)" style="fill: none; stroke: #800080; stroke-opacity: 0.8; stroke-width: 1.5; stroke-linecap: square"/>
   </g>
   <g id="line2d_28">
    <path d="M 556.232076 406.733314 
L 608.348176 292.585975 
" clip-path="url(#p5981138cc6)" style="fill: none; stroke: #800080; stroke-opacity: 0.8; stroke-width: 1.5; stroke-linecap: square"/>
   </g>
   <g id="line2d_29">
    <path d="M 643.092244 349.659645 
L 677.836311 246.74728 
" clip-path="url(#p5981138cc6)" style="fill: none; stroke: #800080; stroke-opacity: 0.8; stroke-width: 1.5; stroke-linecap: square"/>
   </g>
   <g id="line2d_30">
    <path d="M 886.300714 499.309502 
L 938.416815 417.518889 
" clip-path="url(#p5981138cc6)" style="fill: none; stroke: #800080; stroke-opacity: 0.8; stroke-width: 1.5; stroke-linecap: square"/>
   </g>
   <g id="patch_203">
    <path d="M 41.325 521.93674 
L 41.325 24.1375 
" style="fill: none; stroke: #000000; stroke-width: 0.8; stroke-linejoin: miter; stroke-linecap: square"/>
   </g>
   <g id="patch_204">
    <path d="M 992.965 521.93674 
L 992.965 24.1375 
" style="fill: none; stroke: #000000; stroke-width: 0.8; stroke-linejoin: miter; stroke-linecap: square"/>
   </g>
   <g id="patch_205">
    <path d="M 41.325 521.93674 
L 992.965 521.93674 
" style="fill: none; stroke: #000000; stroke-width: 0.8; stroke-linejoin: miter; stroke-linecap: square"/>
   </g>
   <g id="patch_206">
    <path d="M 41.325 24.1375 
L 992.965 24.1375 
" style="fill: none; stroke: #000000; stroke-width: 0.8; stroke-linejoin: miter; stroke-linecap: square"/>
   </g>
   <g id="text_27">
    <!-- Bx -->
    <g style="fill: #808080" transform="translate(89.792974 110.146171) scale(0.08 -0.08)">
     <defs>
      <path id="SimHei-42" d="M 2950 1400 
Q 2950 675 2550 400 
Q 2150 125 1525 125 
L 275 125 
L 275 4400 
L 1575 4400 
Q 2200 4400 2512 4075 
Q 2825 3750 2825 3300 
Q 2825 2850 2612 2637 
Q 2400 2425 2175 2350 
Q 2475 2275 2712 2037 
Q 2950 1800 2950 1400 
z
M 2250 3300 
Q 2250 3625 2062 3775 
Q 1875 3925 1600 3925 
L 850 3925 
L 850 2600 
L 1575 2600 
Q 1850 2600 2050 2762 
Q 2250 2925 2250 3300 
z
M 2350 1400 
Q 2350 1800 2087 1962 
Q 1825 2125 1500 2125 
L 850 2125 
L 850 600 
L 1425 600 
Q 1875 600 2112 775 
Q 2350 950 2350 1400 
z
" transform="scale(0.015625)"/>
      <path id="SimHei-78" d="M 2875 125 
L 2275 125 
L 1550 1200 
L 825 125 
L 225 125 
L 1250 1550 
L 300 2925 
L 900 2925 
L 1550 1875 
L 2200 2925 
L 2800 2925 
L 1850 1550 
L 2875 125 
z
" transform="scale(0.015625)"/>
     </defs>
     <use xlink:href="#SimHei-42"/>
     <use xlink:href="#SimHei-78" transform="translate(50 0)"/>
    </g>
   </g>
   <g id="text_28">
    <!-- Tx -->
    <g style="fill: #808080" transform="translate(115.851024 41.311282) scale(0.08 -0.08)">
     <defs>
      <path id="SimHei-54" d="M 2850 3925 
L 1850 3925 
L 1850 125 
L 1275 125 
L 1275 3925 
L 275 3925 
L 275 4400 
L 2850 4400 
L 2850 3925 
z
" transform="scale(0.015625)"/>
     </defs>
     <use xlink:href="#SimHei-54"/>
     <use xlink:href="#SimHei-78" transform="translate(50 0)"/>
    </g>
   </g>
   <g id="text_29">
    <!-- Bx -->
    <g style="fill: #808080" transform="translate(159.281108 115.528174) scale(0.08 -0.08)">
     <use xlink:href="#SimHei-42"/>
     <use xlink:href="#SimHei-78" transform="translate(50 0)"/>
    </g>
   </g>
   <g id="text_30">
    <!-- Bx -->
    <g style="fill: #808080" transform="translate(237.455259 214.646712) scale(0.08 -0.08)">
     <use xlink:href="#SimHei-42"/>
     <use xlink:href="#SimHei-78" transform="translate(50 0)"/>
    </g>
   </g>
   <g id="text_31">
    <!-- B 117.64 -->
    <g style="fill: #0000ff" transform="translate(263.51331 224.065215) scale(0.08 -0.08)">
     <defs>
      <path id="SimHei-20" transform="scale(0.015625)"/>
      <path id="SimHei-2e" d="M 1075 125 
L 500 125 
L 500 675 
L 1075 675 
L 1075 125 
z
" transform="scale(0.015625)"/>
     </defs>
     <use xlink:href="#SimHei-42"/>
     <use xlink:href="#SimHei-20" transform="translate(50 0)"/>
     <use xlink:href="#SimHei-31" transform="translate(100 0)"/>
     <use xlink:href="#SimHei-31" transform="translate(150 0)"/>
     <use xlink:href="#SimHei-37" transform="translate(200 0)"/>
     <use xlink:href="#SimHei-2e" transform="translate(250 0)"/>
     <use xlink:href="#SimHei-36" transform="translate(300 0)"/>
     <use xlink:href="#SimHei-34" transform="translate(350 0)"/>
    </g>
   </g>
   <g id="text_32">
    <!-- T 119.68 -->
    <g transform="translate(306.943394 116.435959) scale(0.08 -0.08)">
     <use xlink:href="#SimHei-54"/>
     <use xlink:href="#SimHei-20" transform="translate(50 0)"/>
     <use xlink:href="#SimHei-31" transform="translate(100 0)"/>
     <use xlink:href="#SimHei-31" transform="translate(150 0)"/>
     <use xlink:href="#SimHei-39" transform="translate(200 0)"/>
     <use xlink:href="#SimHei-2e" transform="translate(250 0)"/>
     <use xlink:href="#SimHei-36" transform="translate(300 0)"/>
     <use xlink:href="#SimHei-38" transform="translate(350 0)"/>
    </g>
   </g>
   <g id="text_33">
    <!-- B 115.31 -->
    <g style="fill: #0000ff" transform="translate(367.745511 328.565756) scale(0.08 -0.08)">
     <use xlink:href="#SimHei-42"/>
     <use xlink:href="#SimHei-20" transform="translate(50 0)"/>
     <use xlink:href="#SimHei-31" transform="translate(100 0)"/>
     <use xlink:href="#SimHei-31" transform="translate(150 0)"/>
     <use xlink:href="#SimHei-35" transform="translate(200 0)"/>
     <use xlink:href="#SimHei-2e" transform="translate(250 0)"/>
     <use xlink:href="#SimHei-33" transform="translate(300 0)"/>
     <use xlink:href="#SimHei-31" transform="translate(350 0)"/>
    </g>
   </g>
   <g id="text_34">
    <!-- Tx -->
    <g style="fill: #808080" transform="translate(393.803562 219.001388) scale(0.08 -0.08)">
     <use xlink:href="#SimHei-54"/>
     <use xlink:href="#SimHei-78" transform="translate(50 0)"/>
    </g>
   </g>
   <g id="text_35">
    <!-- T 117.59 -->
    <g transform="translate(437.233645 210.454269) scale(0.08 -0.08)">
     <use xlink:href="#SimHei-54"/>
     <use xlink:href="#SimHei-20" transform="translate(50 0)"/>
     <use xlink:href="#SimHei-31" transform="translate(100 0)"/>
     <use xlink:href="#SimHei-31" transform="translate(150 0)"/>
     <use xlink:href="#SimHei-37" transform="translate(200 0)"/>
     <use xlink:href="#SimHei-2e" transform="translate(250 0)"/>
     <use xlink:href="#SimHei-35" transform="translate(300 0)"/>
     <use xlink:href="#SimHei-39" transform="translate(350 0)"/>
    </g>
   </g>
   <g id="text_36">
    <!-- Bx -->
    <g style="fill: #808080" transform="translate(480.663729 371.621772) scale(0.08 -0.08)">
     <use xlink:href="#SimHei-42"/>
     <use xlink:href="#SimHei-78" transform="translate(50 0)"/>
    </g>
   </g>
   <g id="text_37">
    <!-- Tx -->
    <g style="fill: #808080" transform="translate(506.72178 285.578947) scale(0.08 -0.08)">
     <use xlink:href="#SimHei-54"/>
     <use xlink:href="#SimHei-78" transform="translate(50 0)"/>
    </g>
   </g>
   <g id="text_38">
    <!-- Bx -->
    <g style="fill: #808080" transform="translate(541.465847 416.47179) scale(0.08 -0.08)">
     <use xlink:href="#SimHei-42"/>
     <use xlink:href="#SimHei-78" transform="translate(50 0)"/>
    </g>
   </g>
   <g id="text_39">
    <!-- B 113.34 -->
    <g style="fill: #0000ff" transform="translate(558.837881 416.92029) scale(0.08 -0.08)">
     <use xlink:href="#SimHei-42"/>
     <use xlink:href="#SimHei-20" transform="translate(50 0)"/>
     <use xlink:href="#SimHei-31" transform="translate(100 0)"/>
     <use xlink:href="#SimHei-31" transform="translate(150 0)"/>
     <use xlink:href="#SimHei-33" transform="translate(200 0)"/>
     <use xlink:href="#SimHei-2e" transform="translate(250 0)"/>
     <use xlink:href="#SimHei-33" transform="translate(300 0)"/>
     <use xlink:href="#SimHei-34" transform="translate(350 0)"/>
    </g>
   </g>
   <g id="text_40">
    <!-- T 115.88 -->
    <g transform="translate(610.953981 287.37834) scale(0.08 -0.08)">
     <use xlink:href="#SimHei-54"/>
     <use xlink:href="#SimHei-20" transform="translate(50 0)"/>
     <use xlink:href="#SimHei-31" transform="translate(100 0)"/>
     <use xlink:href="#SimHei-31" transform="translate(150 0)"/>
     <use xlink:href="#SimHei-35" transform="translate(200 0)"/>
     <use xlink:href="#SimHei-2e" transform="translate(250 0)"/>
     <use xlink:href="#SimHei-38" transform="translate(300 0)"/>
     <use xlink:href="#SimHei-38" transform="translate(350 0)"/>
    </g>
   </g>
   <g id="text_41">
    <!-- Bx -->
    <g style="fill: #808080" transform="translate(619.639998 339.77826) scale(0.08 -0.08)">
     <use xlink:href="#SimHei-42"/>
     <use xlink:href="#SimHei-78" transform="translate(50 0)"/>
    </g>
   </g>
   <g id="text_42">
    <!-- B 114.61 -->
    <g style="fill: #0000ff" transform="translate(645.698049 359.960768) scale(0.08 -0.08)">
     <use xlink:href="#SimHei-42"/>
     <use xlink:href="#SimHei-20" transform="translate(50 0)"/>
     <use xlink:href="#SimHei-31" transform="translate(100 0)"/>
     <use xlink:href="#SimHei-31" transform="translate(150 0)"/>
     <use xlink:href="#SimHei-34" transform="translate(200 0)"/>
     <use xlink:href="#SimHei-2e" transform="translate(250 0)"/>
     <use xlink:href="#SimHei-36" transform="translate(300 0)"/>
     <use xlink:href="#SimHei-31" transform="translate(350 0)"/>
    </g>
   </g>
   <g id="text_43">
    <!-- Tx -->
    <g style="fill: #808080" transform="translate(663.070082 248.69138) scale(0.08 -0.08)">
     <use xlink:href="#SimHei-54"/>
     <use xlink:href="#SimHei-78" transform="translate(50 0)"/>
    </g>
   </g>
   <g id="text_44">
    <!-- T 116.90 -->
    <g transform="translate(680.442116 241.493806) scale(0.08 -0.08)">
     <use xlink:href="#SimHei-54"/>
     <use xlink:href="#SimHei-20" transform="translate(50 0)"/>
     <use xlink:href="#SimHei-31" transform="translate(100 0)"/>
     <use xlink:href="#SimHei-31" transform="translate(150 0)"/>
     <use xlink:href="#SimHei-36" transform="translate(200 0)"/>
     <use xlink:href="#SimHei-2e" transform="translate(250 0)"/>
     <use xlink:href="#SimHei-39" transform="translate(300 0)"/>
     <use xlink:href="#SimHei-30" transform="translate(350 0)"/>
    </g>
   </g>
   <g id="text_45">
    <!-- Bx -->
    <g style="fill: #808080" transform="translate(697.814149 307.486248) scale(0.08 -0.08)">
     <use xlink:href="#SimHei-42"/>
     <use xlink:href="#SimHei-78" transform="translate(50 0)"/>
    </g>
   </g>
   <g id="text_46">
    <!-- Bx -->
    <g style="fill: #808080" transform="translate(723.8722 299.861745) scale(0.08 -0.08)">
     <use xlink:href="#SimHei-42"/>
     <use xlink:href="#SimHei-78" transform="translate(50 0)"/>
    </g>
   </g>
   <g id="text_47">
    <!-- Tx -->
    <g style="fill: #808080" transform="translate(732.558217 251.390471) scale(0.08 -0.08)">
     <use xlink:href="#SimHei-54"/>
     <use xlink:href="#SimHei-78" transform="translate(50 0)"/>
    </g>
   </g>
   <g id="text_48">
    <!-- Bx -->
    <g style="fill: #808080" transform="translate(793.360334 375.658274) scale(0.08 -0.08)">
     <use xlink:href="#SimHei-42"/>
     <use xlink:href="#SimHei-78" transform="translate(50 0)"/>
    </g>
   </g>
   <g id="text_49">
    <!-- Bx -->
    <g style="fill: #808080" transform="translate(854.162452 490.922819) scale(0.08 -0.08)">
     <use xlink:href="#SimHei-42"/>
     <use xlink:href="#SimHei-78" transform="translate(50 0)"/>
    </g>
   </g>
   <g id="text_50">
    <!-- B 111.28 -->
    <g style="fill: #0000ff" transform="translate(888.906519 509.311326) scale(0.08 -0.08)">
     <use xlink:href="#SimHei-42"/>
     <use xlink:href="#SimHei-20" transform="translate(50 0)"/>
     <use xlink:href="#SimHei-31" transform="translate(100 0)"/>
     <use xlink:href="#SimHei-31" transform="translate(150 0)"/>
     <use xlink:href="#SimHei-31" transform="translate(200 0)"/>
     <use xlink:href="#SimHei-2e" transform="translate(250 0)"/>
     <use xlink:href="#SimHei-32" transform="translate(300 0)"/>
     <use xlink:href="#SimHei-38" transform="translate(350 0)"/>
    </g>
   </g>
   <g id="text_51">
    <!-- T 113.10 -->
    <g transform="translate(941.02262 412.436187) scale(0.08 -0.08)">
     <use xlink:href="#SimHei-54"/>
     <use xlink:href="#SimHei-20" transform="translate(50 0)"/>
     <use xlink:href="#SimHei-31" transform="translate(100 0)"/>
     <use xlink:href="#SimHei-31" transform="translate(150 0)"/>
     <use xlink:href="#SimHei-33" transform="translate(200 0)"/>
     <use xlink:href="#SimHei-2e" transform="translate(250 0)"/>
     <use xlink:href="#SimHei-31" transform="translate(300 0)"/>
     <use xlink:href="#SimHei-30" transform="translate(350 0)"/>
    </g>
   </g>
   <g id="text_52">
    <!-- Stroke Identification (Bill Williams / Chan Theory) -->
    <g transform="translate(338.645 18.1375) scale(0.14 -0.14)">
     <defs>
      <path id="SimHei-53" d="M 2900 1325 
Q 2900 750 2537 412 
Q 2175 75 1550 75 
Q 925 75 575 425 
Q 225 775 225 1300 
L 225 1475 
L 800 1475 
L 800 1325 
Q 800 950 1025 750 
Q 1250 550 1550 550 
Q 1950 550 2137 762 
Q 2325 975 2325 1275 
Q 2325 1525 2100 1737 
Q 1875 1950 1450 2125 
Q 850 2350 587 2625 
Q 325 2900 325 3275 
Q 325 3800 687 4125 
Q 1050 4450 1550 4450 
Q 2200 4450 2487 4062 
Q 2775 3675 2775 3225 
L 2200 3225 
Q 2225 3500 2050 3725 
Q 1875 3950 1550 3950 
Q 1250 3950 1075 3787 
Q 900 3625 900 3350 
Q 900 3125 1037 2962 
Q 1175 2800 1750 2575 
Q 2300 2350 2600 2037 
Q 2900 1725 2900 1325 
z
" transform="scale(0.015625)"/>
      <path id="SimHei-74" d="M 2750 200 
Q 2625 150 2462 112 
Q 2300 75 2025 75 
Q 1575 75 1300 325 
Q 1025 575 1025 1025 
L 1025 2525 
L 175 2525 
L 175 2925 
L 1025 2925 
L 1025 3900 
L 1525 3900 
L 1525 2925 
L 2550 2925 
L 2550 2525 
L 1525 2525 
L 1525 1000 
Q 1525 800 1625 662 
Q 1725 525 2000 525 
Q 2275 525 2450 575 
Q 2625 625 2750 700 
L 2750 200 
z
" transform="scale(0.015625)"/>
      <path id="SimHei-6f" d="M 2925 1525 
Q 2925 875 2525 475 
Q 2125 75 1575 75 
Q 1025 75 625 475 
Q 225 875 225 1525 
Q 225 2175 625 2575 
Q 1025 2975 1575 2975 
Q 2125 2975 2525 2575 
Q 2925 2175 2925 1525 
z
M 2375 1525 
Q 2375 2025 2125 2275 
Q 1875 2525 1575 2525 
Q 1275 2525 1025 2275 
Q 775 2025 775 1525 
Q 775 1025 1025 775 
Q 1275 525 1575 525 
Q 1875 525 2125 775 
Q 2375 1025 2375 1525 
z
" transform="scale(0.015625)"/>
      <path id="SimHei-6b" d="M 2925 125 
L 2350 125 
L 1450 1650 
L 875 1100 
L 875 125 
L 375 125 
L 375 4400 
L 875 4400 
L 875 1675 
L 2125 2925 
L 2750 2925 
L 1775 1975 
L 2925 125 
z
" transform="scale(0.015625)"/>
      <path id="SimHei-49" d="M 1850 125 
L 1275 125 
L 1275 4400 
L 1850 4400 
L 1850 125 
z
" transform="scale(0.015625)"/>
      <path id="SimHei-64" d="M 2750 125 
L 2250 125 
L 2250 500 
Q 2100 275 1900 175 
Q 1700 75 1425 75 
Q 925 75 575 437 
Q 225 800 225 1525 
Q 225 2250 575 2625 
Q 925 3000 1425 3000 
Q 1700 3000 1900 2887 
Q 2100 2775 2250 2550 
L 2250 4400 
L 2750 4400 
L 2750 125 
z
M 2250 1525 
Q 2250 2000 2037 2275 
Q 1825 2550 1525 2550 
Q 1150 2550 962 2275 
Q 775 2000 775 1525 
Q 775 1050 962 787 
Q 1150 525 1525 525 
Q 1825 525 2037 787 
Q 2250 1050 2250 1525 
z
" transform="scale(0.015625)"/>
      <path id="SimHei-6e" d="M 2800 125 
L 2300 125 
L 2300 1925 
Q 2300 2225 2150 2400 
Q 2000 2575 1750 2575 
Q 1425 2575 1137 2237 
Q 850 1900 850 1400 
L 850 125 
L 350 125 
L 350 2925 
L 850 2925 
L 850 2400 
Q 1050 2675 1287 2825 
Q 1525 2975 1900 2975 
Q 2350 2975 2575 2725 
Q 2800 2475 2800 2100 
L 2800 125 
z
" transform="scale(0.015625)"/>
      <path id="SimHei-66" d="M 2850 3825 
Q 2725 3900 2550 3950 
Q 2375 4000 2100 4000 
Q 1825 4000 1725 3862 
Q 1625 3725 1625 3525 
L 1625 2925 
L 2650 2925 
L 2650 2525 
L 1625 2525 
L 1625 125 
L 1125 125 
L 1125 2525 
L 275 2525 
L 275 2925 
L 1125 2925 
L 1125 3500 
Q 1125 3950 1400 4200 
Q 1675 4450 2125 4450 
Q 2400 4450 2562 4412 
Q 2725 4375 2850 4325 
L 2850 3825 
z
" transform="scale(0.015625)"/>
      <path id="SimHei-61" d="M 2875 125 
L 2275 125 
Q 2225 175 2200 262 
Q 2175 350 2175 475 
Q 2000 275 1750 175 
Q 1500 75 1225 75 
Q 825 75 550 275 
Q 275 475 275 850 
Q 275 1225 525 1450 
Q 775 1675 1300 1750 
Q 1650 1800 1912 1875 
Q 2175 1950 2175 2075 
Q 2175 2225 2062 2375 
Q 1950 2525 1575 2525 
Q 1275 2525 1137 2412 
Q 1000 2300 950 2100 
L 400 2100 
Q 450 2500 762 2737 
Q 1075 2975 1575 2975 
Q 2125 2975 2400 2725 
Q 2675 2475 2675 2025 
L 2675 650 
Q 2675 500 2725 375 
Q 2775 250 2875 125 
z
M 2175 1050 
L 2175 1550 
Q 2025 1500 1887 1462 
Q 1750 1425 1425 1375 
Q 1050 1325 937 1200 
Q 825 1075 825 900 
Q 825 750 937 637 
Q 1050 525 1275 525 
Q 1500 525 1762 650 
Q 2025 775 2175 1050 
z
" transform="scale(0.015625)"/>
      <path id="SimHei-28" d="M 2975 -200 
L 2700 -475 
Q 2075 125 1762 775 
Q 1450 1425 1450 2250 
Q 1450 3075 1762 3725 
Q 2075 4375 2700 5000 
L 2975 4725 
Q 2400 4175 2112 3587 
Q 1825 3000 1825 2250 
Q 1825 1500 2112 912 
Q 2400 325 2975 -200 
z
" transform="scale(0.015625)"/>
      <path id="SimHei-6c" d="M 1825 125 
L 1325 125 
L 1325 4400 
L 1825 4400 
L 1825 125 
z
" transform="scale(0.015625)"/>
      <path id="SimHei-57" d="M 3075 4400 
L 2525 75 
L 2025 75 
L 1575 3275 
L 1525 3275 
L 1075 75 
L 575 75 
L 25 4400 
L 575 4400 
L 850 1675 
L 900 1675 
L 1275 4400 
L 1825 4400 
L 2200 1675 
L 2250 1675 
L 2525 4400 
L 3075 4400 
z
" transform="scale(0.015625)"/>
      <path id="SimHei-6d" d="M 3050 125 
L 2550 125 
L 2550 2150 
Q 2550 2300 2500 2400 
Q 2450 2500 2300 2500 
Q 2125 2500 1975 2312 
Q 1825 2125 1825 1825 
L 1825 125 
L 1325 125 
L 1325 2150 
Q 1325 2300 1275 2400 
Q 1225 2500 1075 2500 
Q 900 2500 750 2312 
Q 600 2125 600 1825 
L 600 125 
L 100 125 
L 100 2925 
L 600 2925 
L 600 2550 
Q 725 2750 900 2862 
Q 1075 2975 1275 2975 
Q 1475 2975 1612 2862 
Q 1750 2750 1800 2550 
Q 1925 2750 2087 2862 
Q 2250 2975 2450 2975 
Q 2750 2975 2900 2812 
Q 3050 2650 3050 2350 
L 3050 125 
z
" transform="scale(0.015625)"/>
      <path id="SimHei-73" d="M 2750 900 
Q 2750 500 2437 287 
Q 2125 75 1650 75 
Q 1050 75 725 312 
Q 400 550 400 1000 
L 900 1000 
Q 900 700 1112 600 
Q 1325 500 1625 500 
Q 1925 500 2075 612 
Q 2225 725 2225 900 
Q 2225 1025 2100 1150 
Q 1975 1275 1475 1350 
Q 900 1425 687 1637 
Q 475 1850 475 2200 
Q 475 2500 762 2737 
Q 1050 2975 1600 2975 
Q 2100 2975 2387 2750 
Q 2675 2525 2675 2150 
L 2175 2150 
Q 2175 2375 2012 2462 
Q 1850 2550 1600 2550 
Q 1275 2550 1137 2437 
Q 1000 2325 1000 2175 
Q 1000 2000 1125 1900 
Q 1250 1800 1650 1750 
Q 2300 1650 2525 1437 
Q 2750 1225 2750 900 
z
" transform="scale(0.015625)"/>
      <path id="SimHei-2f" d="M 3000 4550 
L 350 -175 
L 100 -25 
L 2750 4700 
L 3000 4550 
z
" transform="scale(0.015625)"/>
      <path id="SimHei-43" d="M 2975 1825 
Q 2950 875 2575 475 
Q 2200 75 1675 75 
Q 1075 75 650 562 
Q 225 1050 225 2125 
Q 225 3300 637 3875 
Q 1050 4450 1700 4450 
Q 2250 4450 2612 4037 
Q 2975 3625 2950 2875 
L 2400 2875 
Q 2400 3425 2225 3700 
Q 2050 3975 1700 3975 
Q 1300 3975 1062 3562 
Q 825 3150 825 2175 
Q 825 1275 1062 912 
Q 1300 550 1675 550 
Q 1950 550 2175 812 
Q 2400 1075 2400 1825 
L 2975 1825 
z
" transform="scale(0.015625)"/>
      <path id="SimHei-68" d="M 2800 125 
L 2300 125 
L 2300 1925 
Q 2300 2225 2150 2400 
Q 2000 2575 1750 2575 
Q 1425 2575 1137 2237 
Q 850 1900 850 1400 
L 850 125 
L 350 125 
L 350 4400 
L 850 4400 
L 850 2400 
Q 1050 2675 1287 2825 
Q 1525 2975 1900 2975 
Q 2350 2975 2575 2725 
Q 2800 2475 2800 2100 
L 2800 125 
z
" transform="scale(0.015625)"/>
      <path id="SimHei-79" d="M 2900 2925 
L 1750 -100 
Q 1650 -450 1450 -625 
Q 1250 -800 950 -800 
Q 825 -800 712 -787 
Q 600 -775 500 -725 
L 500 -225 
Q 600 -275 700 -300 
Q 800 -325 875 -325 
Q 1075 -325 1150 -262 
Q 1225 -200 1300 25 
L 200 2925 
L 750 2925 
L 1550 725 
L 1575 725 
L 2350 2925 
L 2900 2925 
z
" transform="scale(0.015625)"/>
      <path id="SimHei-29" d="M 1675 2250 
Q 1675 1425 1362 775 
Q 1050 125 425 -475 
L 150 -200 
Q 725 325 1012 912 
Q 1300 1500 1300 2250 
Q 1300 3000 1012 3587 
Q 725 4175 150 4725 
L 425 5000 
Q 1050 4375 1362 3725 
Q 1675 3075 1675 2250 
z
" transform="scale(0.015625)"/>
     </defs>
     <use xlink:href="#SimHei-53"/>
     <use xlink:href="#SimHei-74" transform="translate(50 0)"/>
     <use xlink:href="#SimHei-72" transform="translate(100 0)"/>
     <use xlink:href="#SimHei-6f" transform="translate(150 0)"/>
     <use xlink:href="#SimHei-6b" transform="translate(200 0)"/>
     <use xlink:href="#SimHei-65" transform="translate(250 0)"/>
     <use xlink:href="#SimHei-20" transform="translate(300 0)"/>
     <use xlink:href="#SimHei-49" transform="translate(350 0)"/>
     <use xlink:href="#SimHei-64" transform="translate(400 0)"/>
     <use xlink:href="#SimHei-65" transform="translate(450 0)"/>
     <use xlink:href="#SimHei-6e" transform="translate(500 0)"/>
     <use xlink:href="#SimHei-74" transform="translate(550 0)"/>
     <use xlink:href="#SimHei-69" transform="translate(600 0)"/>
     <use xlink:href="#SimHei-66" transform="translate(650 0)"/>
     <use xlink:href="#SimHei-69" transform="translate(700 0)"/>
     <use xlink:href="#SimHei-63" transform="translate(750 0)"/>
     <use xlink:href="#SimHei-61" transform="translate(800 0)"/>
     <use xlink:href="#SimHei-74" transform="translate(850 0)"/>
     <use xlink:href="#SimHei-69" transform="translate(900 0)"/>
     <use xlink:href="#SimHei-6f" transform="translate(950 0)"/>
     <use xlink:href="#SimHei-6e" transform="translate(1000 0)"/>
     <use xlink:href="#SimHei-20" transform="translate(1050 0)"/>
     <use xlink:href="#SimHei-28" transform="translate(1100 0)"/>
     <use xlink:href="#SimHei-42" transform="translate(1150 0)"/>
     <use xlink:href="#SimHei-69" transform="translate(1200 0)"/>
     <use xlink:href="#SimHei-6c" transform="translate(1250 0)"/>
     <use xlink:href="#SimHei-6c" transform="translate(1300 0)"/>
     <use xlink:href="#SimHei-20" transform="translate(1350 0)"/>
     <use xlink:href="#SimHei-57" transform="translate(1400 0)"/>
     <use xlink:href="#SimHei-69" transform="translate(1450 0)"/>
     <use xlink:href="#SimHei-6c" transform="translate(1500 0)"/>
     <use xlink:href="#SimHei-6c" transform="translate(1550 0)"/>
     <use xlink:href="#SimHei-69" transform="translate(1600 0)"/>
     <use xlink:href="#SimHei-61" transform="translate(1650 0)"/>
     <use xlink:href="#SimHei-6d" transform="translate(1700 0)"/>
     <use xlink:href="#SimHei-73" transform="translate(1750 0)"/>
     <use xlink:href="#SimHei-20" transform="translate(1800 0)"/>
     <use xlink:href="#SimHei-2f" transform="translate(1850 0)"/>
     <use xlink:href="#SimHei-20" transform="translate(1900 0)"/>
     <use xlink:href="#SimHei-43" transform="translate(1950 0)"/>
     <use xlink:href="#SimHei-68" transform="translate(2000 0)"/>
     <use xlink:href="#SimHei-61" transform="translate(2050 0)"/>
     <use xlink:href="#SimHei-6e" transform="translate(2100 0)"/>
     <use xlink:href="#SimHei-20" transform="translate(2150 0)"/>
     <use xlink:href="#SimHei-54" transform="translate(2200 0)"/>
     <use xlink:href="#SimHei-68" transform="translate(2250 0)"/>
     <use xlink:href="#SimHei-65" transform="translate(2300 0)"/>
     <use xlink:href="#SimHei-6f" transform="translate(2350 0)"/>
     <use xlink:href="#SimHei-72" transform="translate(2400 0)"/>
     <use xlink:href="#SimHei-79" transform="translate(2450 0)"/>
     <use xlink:href="#SimHei-29" transform="translate(2500 0)"/>
    </g>
   </g>
  </g>
 </g>
 <defs>
  <clipPath id="p5981138cc6">
   <rect x="41.325" y="24.1375" width="951.64" height="497.79924"/>
  </clipPath>
 </defs>
</svg>
