<?xml version="1.0" encoding="utf-8" standalone="no"?>
<!DOCTYPE svg PUBLIC "-//W3C//DTD SVG 1.1//EN"
  "http://www.w3.org/Graphics/SVG/1.1/DTD/svg11.dtd">
<svg xmlns:xlink="http://www.w3.org/1999/xlink" width="824.725pt" height="514.737965pt" viewBox="0 0 824.725 514.737965" xmlns="http://www.w3.org/2000/svg" version="1.1">
 <metadata>
  <rdf:RDF xmlns:dc="http://purl.org/dc/elements/1.1/" xmlns:cc="http://creativecommons.org/ns#" xmlns:rdf="http://www.w3.org/1999/02/22-rdf-syntax-ns#">
   <cc:Work>
    <dc:type rdf:resource="http://purl.org/dc/dcmitype/StillImage"/>
    <dc:date>2025-12-30T15:08:06.391973</dc:date>
    <dc:format>image/svg+xml</dc:format>
    <dc:creator>
     <cc:Agent>
      <dc:title>Matplotlib v3.10.8, https://matplotlib.org/</dc:title>
     </cc:Agent>
    </dc:creator>
   </cc:Work>
  </rdf:RDF>
 </metadata>
 <defs>
  <style type="text/css">*{stroke-linejoin: round; stroke-linecap: butt}</style>
 </defs>
 <g id="figure_1">
  <g id="patch_1">
   <path d="M 0 514.737965 
L 824.725 514.737965 
L 824.725 0 
L 0 0 
z
" style="fill: #ffffff"/>
  </g>
  <g id="axes_1">
   <g id="patch_2">
    <path d="M 36.325 467.6575 
L 817.525 467.6575 
L 817.525 24.1375 
L 36.325 24.1375 
z
" style="fill: #ffffff"/>
   </g>
   <g id="patch_3">
    <path d="M 73.794934 341.79929 
L 74.151451 341.79929 
L 74.151451 297.973203 
L 73.794934 297.973203 
z
" clip-path="url(#pbb407e189c)" style="fill: #ff0000"/>
   </g>
   <g id="patch_4">
    <path d="M 88.055613 317.566042 
L 88.41213 317.566042 
L 88.41213 294.363996 
L 88.055613 294.363996 
z
" clip-path="url(#pbb407e189c)" style="fill: #ff0000"/>
   </g>
   <g id="patch_5">
    <path d="M 95.185953 300.551208 
L 95.54247 300.551208 
L 95.54247 271.677551 
L 95.185953 271.677551 
z
" clip-path="url(#pbb407e189c)" style="fill: #ff0000"/>
   </g>
   <g id="patch_6">
    <path d="M 102.316292 303.129214 
L 102.672809 303.129214 
L 102.672809 280.95837 
L 102.316292 280.95837 
z
" clip-path="url(#pbb407e189c)" style="fill: #ff0000"/>
   </g>
   <g id="patch_7">
    <path d="M 109.446632 286.629981 
L 109.803149 286.629981 
L 109.803149 252.600313 
L 109.446632 252.600313 
z
" clip-path="url(#pbb407e189c)" style="fill: #ff0000"/>
   </g>
   <g id="patch_8">
    <path d="M 123.707311 272.708753 
L 124.063828 272.708753 
L 124.063828 216.508242 
L 123.707311 216.508242 
z
" clip-path="url(#pbb407e189c)" style="fill: #ff0000"/>
   </g>
   <g id="patch_9">
    <path d="M 145.09833 288.176784 
L 145.454847 288.176784 
L 145.454847 250.537909 
L 145.09833 250.537909 
z
" clip-path="url(#pbb407e189c)" style="fill: #ff0000"/>
   </g>
   <g id="patch_10">
    <path d="M 152.228669 254.147116 
L 152.585186 254.147116 
L 152.585186 173.197756 
L 152.228669 173.197756 
z
" clip-path="url(#pbb407e189c)" style="fill: #ff0000"/>
   </g>
   <g id="patch_11">
    <path d="M 159.359009 189.696988 
L 159.715526 189.696988 
L 159.715526 114.93484 
L 159.359009 114.93484 
z
" clip-path="url(#pbb407e189c)" style="fill: #ff0000"/>
   </g>
   <g id="patch_12">
    <path d="M 195.010706 309.832027 
L 195.367223 309.832027 
L 195.367223 278.380364 
L 195.010706 278.380364 
z
" clip-path="url(#pbb407e189c)" style="fill: #ff0000"/>
   </g>
   <g id="patch_13">
    <path d="M 202.141046 288.176784 
L 202.497563 288.176784 
L 202.497563 231.460671 
L 202.141046 231.460671 
z
" clip-path="url(#pbb407e189c)" style="fill: #ff0000"/>
   </g>
   <g id="patch_14">
    <path d="M 216.401725 304.676017 
L 216.758242 304.676017 
L 216.758242 281.473971 
L 216.401725 281.473971 
z
" clip-path="url(#pbb407e189c)" style="fill: #ff0000"/>
   </g>
   <g id="patch_15">
    <path d="M 223.532065 292.817193 
L 223.888582 292.817193 
L 223.888582 267.552743 
L 223.532065 267.552743 
z
" clip-path="url(#pbb407e189c)" style="fill: #ff0000"/>
   </g>
   <g id="patch_16">
    <path d="M 230.662404 284.051976 
L 231.018921 284.051976 
L 231.018921 245.381899 
L 230.662404 245.381899 
z
" clip-path="url(#pbb407e189c)" style="fill: #ff0000"/>
   </g>
   <g id="patch_17">
    <path d="M 237.792744 227.335863 
L 238.149261 227.335863 
L 238.149261 165.46374 
L 237.792744 165.46374 
z
" clip-path="url(#pbb407e189c)" style="fill: #ff0000"/>
   </g>
   <g id="patch_18">
    <path d="M 244.923083 198.977807 
L 245.2796 198.977807 
L 245.2796 160.823331 
L 244.923083 160.823331 
z
" clip-path="url(#pbb407e189c)" style="fill: #ff0000"/>
   </g>
   <g id="patch_19">
    <path d="M 259.183762 209.289827 
L 259.540279 209.289827 
L 259.540279 176.806963 
L 259.183762 176.806963 
z
" clip-path="url(#pbb407e189c)" style="fill: #ff0000"/>
   </g>
   <g id="patch_20">
    <path d="M 273.444441 195.884201 
L 273.800958 195.884201 
L 273.800958 142.261694 
L 273.444441 142.261694 
z
" clip-path="url(#pbb407e189c)" style="fill: #ff0000"/>
   </g>
   <g id="patch_21">
    <path d="M 280.574781 175.775761 
L 280.931298 175.775761 
L 280.931298 101.529214 
L 280.574781 101.529214 
z
" clip-path="url(#pbb407e189c)" style="fill: #ff0000"/>
   </g>
   <g id="patch_22">
    <path d="M 287.70512 126.793664 
L 288.061637 126.793664 
L 288.061637 101.013613 
L 287.70512 101.013613 
z
" clip-path="url(#pbb407e189c)" style="fill: #ff0000"/>
   </g>
   <g id="patch_23">
    <path d="M 301.9658 168.557347 
L 302.322317 168.557347 
L 302.322317 135.558881 
L 301.9658 135.558881 
z
" clip-path="url(#pbb407e189c)" style="fill: #ff0000"/>
   </g>
   <g id="patch_24">
    <path d="M 359.008516 278.895965 
L 359.365033 278.895965 
L 359.365033 230.94507 
L 359.008516 230.94507 
z
" clip-path="url(#pbb407e189c)" style="fill: #ff0000"/>
   </g>
   <g id="patch_25">
    <path d="M 373.269195 264.974738 
L 373.625712 264.974738 
L 373.625712 196.399802 
L 373.269195 196.399802 
z
" clip-path="url(#pbb407e189c)" style="fill: #ff0000"/>
   </g>
   <g id="patch_26">
    <path d="M 380.399535 219.086247 
L 380.756051 219.086247 
L 380.756051 193.306196 
L 380.399535 193.306196 
z
" clip-path="url(#pbb407e189c)" style="fill: #ff0000"/>
   </g>
   <g id="patch_27">
    <path d="M 401.790553 217.023843 
L 402.14707 217.023843 
L 402.14707 158.760927 
L 401.790553 158.760927 
z
" clip-path="url(#pbb407e189c)" style="fill: #ff0000"/>
   </g>
   <g id="patch_28">
    <path d="M 408.920893 191.243792 
L 409.27741 191.243792 
L 409.27741 63.890339 
L 408.920893 63.890339 
z
" clip-path="url(#pbb407e189c)" style="fill: #ff0000"/>
   </g>
   <g id="patch_29">
    <path d="M 437.442251 126.793664 
L 437.798768 126.793664 
L 437.798768 78.327168 
L 437.442251 78.327168 
z
" clip-path="url(#pbb407e189c)" style="fill: #ff0000"/>
   </g>
   <g id="patch_30">
    <path d="M 465.963609 239.194687 
L 466.320126 239.194687 
L 466.320126 206.711822 
L 465.963609 206.711822 
z
" clip-path="url(#pbb407e189c)" style="fill: #ff0000"/>
   </g>
   <g id="patch_31">
    <path d="M 487.354628 257.240723 
L 487.711145 257.240723 
L 487.711145 214.445838 
L 487.354628 214.445838 
z
" clip-path="url(#pbb407e189c)" style="fill: #ff0000"/>
   </g>
   <g id="patch_32">
    <path d="M 523.006325 323.237653 
L 523.362842 323.237653 
L 523.362842 296.942001 
L 523.006325 296.942001 
z
" clip-path="url(#pbb407e189c)" style="fill: #ff0000"/>
   </g>
   <g id="patch_33">
    <path d="M 530.136665 358.814124 
L 530.493182 358.814124 
L 530.493182 297.457602 
L 530.136665 297.457602 
z
" clip-path="url(#pbb407e189c)" style="fill: #ff0000"/>
   </g>
   <g id="patch_34">
    <path d="M 537.267004 296.942001 
L 537.623521 296.942001 
L 537.623521 261.881132 
L 537.267004 261.881132 
z
" clip-path="url(#pbb407e189c)" style="fill: #ff0000"/>
   </g>
   <g id="patch_35">
    <path d="M 544.397344 254.147116 
L 544.753861 254.147116 
L 544.753861 203.618216 
L 544.397344 203.618216 
z
" clip-path="url(#pbb407e189c)" style="fill: #ff0000"/>
   </g>
   <g id="patch_36">
    <path d="M 558.658023 269.099546 
L 559.01454 269.099546 
L 559.01454 231.460671 
L 558.658023 231.460671 
z
" clip-path="url(#pbb407e189c)" style="fill: #ff0000"/>
   </g>
   <g id="patch_37">
    <path d="M 594.309721 323.753254 
L 594.666238 323.753254 
L 594.666238 298.488804 
L 594.309721 298.488804 
z
" clip-path="url(#pbb407e189c)" style="fill: #ff0000"/>
   </g>
   <g id="patch_38">
    <path d="M 615.700739 361.392129 
L 616.057256 361.392129 
L 616.057256 337.158881 
L 615.700739 337.158881 
z
" clip-path="url(#pbb407e189c)" style="fill: #ff0000"/>
   </g>
   <g id="patch_39">
    <path d="M 622.831079 351.080109 
L 623.187596 351.080109 
L 623.187596 333.034073 
L 622.831079 333.034073 
z
" clip-path="url(#pbb407e189c)" style="fill: #ff0000"/>
   </g>
   <g id="patch_40">
    <path d="M 644.222097 416.561439 
L 644.578614 416.561439 
L 644.578614 392.843792 
L 644.222097 392.843792 
z
" clip-path="url(#pbb407e189c)" style="fill: #ff0000"/>
   </g>
   <g id="patch_41">
    <path d="M 658.482777 407.796221 
L 658.839294 407.796221 
L 658.839294 385.625377 
L 658.482777 385.625377 
z
" clip-path="url(#pbb407e189c)" style="fill: #ff0000"/>
   </g>
   <g id="patch_42">
    <path d="M 687.004135 447.4975 
L 687.360652 447.4975 
L 687.360652 428.420262 
L 687.004135 428.420262 
z
" clip-path="url(#pbb407e189c)" style="fill: #ff0000"/>
   </g>
   <g id="patch_43">
    <path d="M 694.134474 441.310288 
L 694.490991 441.310288 
L 694.490991 422.748651 
L 694.134474 422.748651 
z
" clip-path="url(#pbb407e189c)" style="fill: #ff0000"/>
   </g>
   <g id="patch_44">
    <path d="M 701.264814 424.811055 
L 701.621331 424.811055 
L 701.621331 400.577807 
L 701.264814 400.577807 
z
" clip-path="url(#pbb407e189c)" style="fill: #ff0000"/>
   </g>
   <g id="patch_45">
    <path d="M 715.525493 422.748651 
L 715.88201 422.748651 
L 715.88201 405.733817 
L 715.525493 405.733817 
z
" clip-path="url(#pbb407e189c)" style="fill: #ff0000"/>
   </g>
   <g id="patch_46">
    <path d="M 729.786172 417.592641 
L 730.142689 417.592641 
L 730.142689 402.640211 
L 729.786172 402.640211 
z
" clip-path="url(#pbb407e189c)" style="fill: #ff0000"/>
   </g>
   <g id="patch_47">
    <path d="M 744.046851 428.935863 
L 744.403368 428.935863 
L 744.403368 410.889827 
L 744.046851 410.889827 
z
" clip-path="url(#pbb407e189c)" style="fill: #ff0000"/>
   </g>
   <g id="patch_48">
    <path d="M 758.30753 428.420262 
L 758.664047 428.420262 
L 758.664047 406.765019 
L 758.30753 406.765019 
z
" clip-path="url(#pbb407e189c)" style="fill: #ff0000"/>
   </g>
   <g id="patch_49">
    <path d="M 765.43787 411.405428 
L 765.794387 411.405428 
L 765.794387 386.656579 
L 765.43787 386.656579 
z
" clip-path="url(#pbb407e189c)" style="fill: #ff0000"/>
   </g>
   <g id="patch_50">
    <path d="M 779.698549 428.420262 
L 780.055066 428.420262 
L 780.055066 383.047372 
L 779.698549 383.047372 
z
" clip-path="url(#pbb407e189c)" style="fill: #ff0000"/>
   </g>
   <g id="patch_51">
    <path d="M 80.925274 309.316426 
L 81.281791 309.316426 
L 81.281791 271.677551 
L 80.925274 271.677551 
z
" clip-path="url(#pbb407e189c)" style="fill: #008000"/>
   </g>
   <g id="patch_52">
    <path d="M 116.576972 278.895965 
L 116.933488 278.895965 
L 116.933488 231.460671 
L 116.576972 231.460671 
z
" clip-path="url(#pbb407e189c)" style="fill: #008000"/>
   </g>
   <g id="patch_53">
    <path d="M 130.837651 271.16195 
L 131.194168 271.16195 
L 131.194168 213.414636 
L 130.837651 213.414636 
z
" clip-path="url(#pbb407e189c)" style="fill: #008000"/>
   </g>
   <g id="patch_54">
    <path d="M 137.96799 286.629981 
L 138.324507 286.629981 
L 138.324507 245.381899 
L 137.96799 245.381899 
z
" clip-path="url(#pbb407e189c)" style="fill: #008000"/>
   </g>
   <g id="patch_55">
    <path d="M 166.489348 164.432538 
L 166.845865 164.432538 
L 166.845865 112.356835 
L 166.489348 112.356835 
z
" clip-path="url(#pbb407e189c)" style="fill: #008000"/>
   </g>
   <g id="patch_56">
    <path d="M 173.619688 242.288293 
L 173.976205 242.288293 
L 173.976205 122.668855 
L 173.619688 122.668855 
z
" clip-path="url(#pbb407e189c)" style="fill: #008000"/>
   </g>
   <g id="patch_57">
    <path d="M 180.750027 264.974738 
L 181.106544 264.974738 
L 181.106544 196.399802 
L 180.750027 196.399802 
z
" clip-path="url(#pbb407e189c)" style="fill: #008000"/>
   </g>
   <g id="patch_58">
    <path d="M 187.880367 286.629981 
L 188.236884 286.629981 
L 188.236884 254.147116 
L 187.880367 254.147116 
z
" clip-path="url(#pbb407e189c)" style="fill: #008000"/>
   </g>
   <g id="patch_59">
    <path d="M 209.271386 299.520006 
L 209.627903 299.520006 
L 209.627903 255.693919 
L 209.271386 255.693919 
z
" clip-path="url(#pbb407e189c)" style="fill: #008000"/>
   </g>
   <g id="patch_60">
    <path d="M 252.053423 196.399802 
L 252.40994 196.399802 
L 252.40994 142.261694 
L 252.053423 142.261694 
z
" clip-path="url(#pbb407e189c)" style="fill: #008000"/>
   </g>
   <g id="patch_61">
    <path d="M 266.314102 213.414636 
L 266.670619 213.414636 
L 266.670619 179.384968 
L 266.314102 179.384968 
z
" clip-path="url(#pbb407e189c)" style="fill: #008000"/>
   </g>
   <g id="patch_62">
    <path d="M 294.83546 146.902104 
L 295.191977 146.902104 
L 295.191977 107.716426 
L 294.83546 107.716426 
z
" clip-path="url(#pbb407e189c)" style="fill: #008000"/>
   </g>
   <g id="patch_63">
    <path d="M 309.096139 201.555812 
L 309.452656 201.555812 
L 309.452656 144.324098 
L 309.096139 144.324098 
z
" clip-path="url(#pbb407e189c)" style="fill: #008000"/>
   </g>
   <g id="patch_64">
    <path d="M 316.226479 233.007474 
L 316.582996 233.007474 
L 316.582996 198.977807 
L 316.226479 198.977807 
z
" clip-path="url(#pbb407e189c)" style="fill: #008000"/>
   </g>
   <g id="patch_65">
    <path d="M 323.356818 248.475505 
L 323.713335 248.475505 
L 323.713335 222.179853 
L 323.356818 222.179853 
z
" clip-path="url(#pbb407e189c)" style="fill: #008000"/>
   </g>
   <g id="patch_66">
    <path d="M 330.487158 256.20952 
L 330.843675 256.20952 
L 330.843675 235.58548 
L 330.487158 235.58548 
z
" clip-path="url(#pbb407e189c)" style="fill: #008000"/>
   </g>
   <g id="patch_67">
    <path d="M 337.617497 260.334329 
L 337.974014 260.334329 
L 337.974014 238.679086 
L 337.617497 238.679086 
z
" clip-path="url(#pbb407e189c)" style="fill: #008000"/>
   </g>
   <g id="patch_68">
    <path d="M 344.747837 267.037142 
L 345.104354 267.037142 
L 345.104354 248.991106 
L 344.747837 248.991106 
z
" clip-path="url(#pbb407e189c)" style="fill: #008000"/>
   </g>
   <g id="patch_69">
    <path d="M 351.878176 291.785991 
L 352.234693 291.785991 
L 352.234693 258.787526 
L 351.878176 258.787526 
z
" clip-path="url(#pbb407e189c)" style="fill: #008000"/>
   </g>
   <g id="patch_70">
    <path d="M 366.138855 283.536375 
L 366.495372 283.536375 
L 366.495372 242.288293 
L 366.138855 242.288293 
z
" clip-path="url(#pbb407e189c)" style="fill: #008000"/>
   </g>
   <g id="patch_71">
    <path d="M 387.529874 230.94507 
L 387.886391 230.94507 
L 387.886391 194.852999 
L 387.529874 194.852999 
z
" clip-path="url(#pbb407e189c)" style="fill: #008000"/>
   </g>
   <g id="patch_72">
    <path d="M 394.660214 207.227423 
L 395.016731 207.227423 
L 395.016731 121.637653 
L 394.660214 121.637653 
z
" clip-path="url(#pbb407e189c)" style="fill: #008000"/>
   </g>
   <g id="patch_73">
    <path d="M 416.051232 106.169623 
L 416.407749 106.169623 
L 416.407749 44.2975 
L 416.051232 44.2975 
z
" clip-path="url(#pbb407e189c)" style="fill: #008000"/>
   </g>
   <g id="patch_74">
    <path d="M 423.181572 118.544047 
L 423.538089 118.544047 
L 423.538089 67.499546 
L 423.181572 67.499546 
z
" clip-path="url(#pbb407e189c)" style="fill: #008000"/>
   </g>
   <g id="patch_75">
    <path d="M 430.311911 153.604917 
L 430.668428 153.604917 
L 430.668428 119.059648 
L 430.311911 119.059648 
z
" clip-path="url(#pbb407e189c)" style="fill: #008000"/>
   </g>
   <g id="patch_76">
    <path d="M 444.57259 98.951208 
L 444.929107 98.951208 
L 444.929107 55.125121 
L 444.57259 55.125121 
z
" clip-path="url(#pbb407e189c)" style="fill: #008000"/>
   </g>
   <g id="patch_77">
    <path d="M 451.70293 189.696988 
L 452.059447 189.696988 
L 452.059447 99.466809 
L 451.70293 99.466809 
z
" clip-path="url(#pbb407e189c)" style="fill: #008000"/>
   </g>
   <g id="patch_78">
    <path d="M 458.833269 223.726656 
L 459.189786 223.726656 
L 459.189786 175.775761 
L 458.833269 175.775761 
z
" clip-path="url(#pbb407e189c)" style="fill: #008000"/>
   </g>
   <g id="patch_79">
    <path d="M 473.093949 230.94507 
L 473.450465 230.94507 
L 473.450465 186.087781 
L 473.093949 186.087781 
z
" clip-path="url(#pbb407e189c)" style="fill: #008000"/>
   </g>
   <g id="patch_80">
    <path d="M 480.224288 242.803894 
L 480.580805 242.803894 
L 480.580805 210.321029 
L 480.224288 210.321029 
z
" clip-path="url(#pbb407e189c)" style="fill: #008000"/>
   </g>
   <g id="patch_81">
    <path d="M 494.484967 237.132283 
L 494.841484 237.132283 
L 494.841484 213.930237 
L 494.484967 213.930237 
z
" clip-path="url(#pbb407e189c)" style="fill: #008000"/>
   </g>
   <g id="patch_82">
    <path d="M 501.615307 270.646349 
L 501.971824 270.646349 
L 501.971824 229.913868 
L 501.615307 229.913868 
z
" clip-path="url(#pbb407e189c)" style="fill: #008000"/>
   </g>
   <g id="patch_83">
    <path d="M 508.745646 287.661183 
L 509.102163 287.661183 
L 509.102163 239.710288 
L 508.745646 239.710288 
z
" clip-path="url(#pbb407e189c)" style="fill: #008000"/>
   </g>
   <g id="patch_84">
    <path d="M 515.875986 322.722052 
L 516.232503 322.722052 
L 516.232503 253.631515 
L 515.875986 253.631515 
z
" clip-path="url(#pbb407e189c)" style="fill: #008000"/>
   </g>
   <g id="patch_85">
    <path d="M 551.527683 266.00594 
L 551.8842 266.00594 
L 551.8842 213.414636 
L 551.527683 213.414636 
z
" clip-path="url(#pbb407e189c)" style="fill: #008000"/>
   </g>
   <g id="patch_86">
    <path d="M 565.788363 285.083178 
L 566.14488 285.083178 
L 566.14488 257.240723 
L 565.788363 257.240723 
z
" clip-path="url(#pbb407e189c)" style="fill: #008000"/>
   </g>
   <g id="patch_87">
    <path d="M 572.918702 296.942001 
L 573.275219 296.942001 
L 573.275219 268.583945 
L 572.918702 268.583945 
z
" clip-path="url(#pbb407e189c)" style="fill: #008000"/>
   </g>
   <g id="patch_88">
    <path d="M 580.049042 321.69085 
L 580.405559 321.69085 
L 580.405559 294.363996 
L 580.049042 294.363996 
z
" clip-path="url(#pbb407e189c)" style="fill: #008000"/>
   </g>
   <g id="patch_89">
    <path d="M 587.179381 332.518472 
L 587.535898 332.518472 
L 587.535898 304.676017 
L 587.179381 304.676017 
z
" clip-path="url(#pbb407e189c)" style="fill: #008000"/>
   </g>
   <g id="patch_90">
    <path d="M 601.44006 329.424866 
L 601.796577 329.424866 
L 601.796577 299.520006 
L 601.44006 299.520006 
z
" clip-path="url(#pbb407e189c)" style="fill: #008000"/>
   </g>
   <g id="patch_91">
    <path d="M 608.5704 355.720518 
L 608.926917 355.720518 
L 608.926917 321.175249 
L 608.5704 321.175249 
z
" clip-path="url(#pbb407e189c)" style="fill: #008000"/>
   </g>
   <g id="patch_92">
    <path d="M 629.961418 413.983434 
L 630.317935 413.983434 
L 630.317935 353.658114 
L 629.961418 353.658114 
z
" clip-path="url(#pbb407e189c)" style="fill: #008000"/>
   </g>
   <g id="patch_93">
    <path d="M 637.091758 417.07704 
L 637.448275 417.07704 
L 637.448275 397.484201 
L 637.091758 397.484201 
z
" clip-path="url(#pbb407e189c)" style="fill: #008000"/>
   </g>
   <g id="patch_94">
    <path d="M 651.352437 401.609009 
L 651.708954 401.609009 
L 651.708954 380.984968 
L 651.352437 380.984968 
z
" clip-path="url(#pbb407e189c)" style="fill: #008000"/>
   </g>
   <g id="patch_95">
    <path d="M 665.613116 415.530237 
L 665.969633 415.530237 
L 665.969633 395.937398 
L 665.613116 395.937398 
z
" clip-path="url(#pbb407e189c)" style="fill: #008000"/>
   </g>
   <g id="patch_96">
    <path d="M 672.743456 435.638676 
L 673.099973 435.638676 
L 673.099973 402.640211 
L 672.743456 402.640211 
z
" clip-path="url(#pbb407e189c)" style="fill: #008000"/>
   </g>
   <g id="patch_97">
    <path d="M 679.873795 440.279086 
L 680.230312 440.279086 
L 680.230312 421.717449 
L 679.873795 421.717449 
z
" clip-path="url(#pbb407e189c)" style="fill: #008000"/>
   </g>
   <g id="patch_98">
    <path d="M 708.395153 428.420262 
L 708.75167 428.420262 
L 708.75167 411.921029 
L 708.395153 411.921029 
z
" clip-path="url(#pbb407e189c)" style="fill: #008000"/>
   </g>
   <g id="patch_99">
    <path d="M 722.655832 407.28062 
L 723.012349 407.28062 
L 723.012349 390.781387 
L 722.655832 390.781387 
z
" clip-path="url(#pbb407e189c)" style="fill: #008000"/>
   </g>
   <g id="patch_100">
    <path d="M 736.916512 416.561439 
L 737.273028 416.561439 
L 737.273028 400.062206 
L 736.916512 400.062206 
z
" clip-path="url(#pbb407e189c)" style="fill: #008000"/>
   </g>
   <g id="patch_101">
    <path d="M 751.177191 418.623843 
L 751.533708 418.623843 
L 751.533708 399.031004 
L 751.177191 399.031004 
z
" clip-path="url(#pbb407e189c)" style="fill: #008000"/>
   </g>
   <g id="patch_102">
    <path d="M 772.568209 437.18548 
L 772.924726 437.18548 
L 772.924726 398.515403 
L 772.568209 398.515403 
z
" clip-path="url(#pbb407e189c)" style="fill: #008000"/>
   </g>
   <g id="patch_103">
    <path d="M 71.834091 341.79929 
L 76.112295 341.79929 
L 76.112295 306.22282 
L 71.834091 306.22282 
z
" clip-path="url(#pbb407e189c)" style="fill: #ff0000"/>
   </g>
   <g id="patch_104">
    <path d="M 86.09477 301.58241 
L 90.372974 301.58241 
L 90.372974 297.973203 
L 86.09477 297.973203 
z
" clip-path="url(#pbb407e189c)" style="fill: #ff0000"/>
   </g>
   <g id="patch_105">
    <path d="M 93.22511 296.942001 
L 97.503313 296.942001 
L 97.503313 281.473971 
L 93.22511 281.473971 
z
" clip-path="url(#pbb407e189c)" style="fill: #ff0000"/>
   </g>
   <g id="patch_106">
    <path d="M 100.355449 286.629981 
L 104.633653 286.629981 
L 104.633653 285.083178 
L 100.355449 285.083178 
z
" clip-path="url(#pbb407e189c)" style="fill: #ff0000"/>
   </g>
   <g id="patch_107">
    <path d="M 107.485789 285.083178 
L 111.763992 285.083178 
L 111.763992 255.693919 
L 107.485789 255.693919 
z
" clip-path="url(#pbb407e189c)" style="fill: #ff0000"/>
   </g>
   <g id="patch_108">
    <path d="M 121.746468 270.646349 
L 126.024671 270.646349 
L 126.024671 230.94507 
L 121.746468 230.94507 
z
" clip-path="url(#pbb407e189c)" style="fill: #ff0000"/>
   </g>
   <g id="patch_109">
    <path d="M 143.137486 288.176784 
L 147.41569 288.176784 
L 147.41569 253.115914 
L 143.137486 253.115914 
z
" clip-path="url(#pbb407e189c)" style="fill: #ff0000"/>
   </g>
   <g id="patch_110">
    <path d="M 150.267826 254.147116 
L 154.54603 254.147116 
L 154.54603 183.509776 
L 150.267826 183.509776 
z
" clip-path="url(#pbb407e189c)" style="fill: #ff0000"/>
   </g>
   <g id="patch_111">
    <path d="M 157.398165 179.900569 
L 161.676369 179.900569 
L 161.676369 121.122052 
L 157.398165 121.122052 
z
" clip-path="url(#pbb407e189c)" style="fill: #ff0000"/>
   </g>
   <g id="patch_112">
    <path d="M 193.049863 291.27039 
L 197.328067 291.27039 
L 197.328067 289.207986 
L 193.049863 289.207986 
z
" clip-path="url(#pbb407e189c)" style="fill: #ff0000"/>
   </g>
   <g id="patch_113">
    <path d="M 200.180203 288.176784 
L 204.458406 288.176784 
L 204.458406 257.756324 
L 200.180203 257.756324 
z
" clip-path="url(#pbb407e189c)" style="fill: #ff0000"/>
   </g>
   <g id="patch_114">
    <path d="M 214.440882 291.27039 
L 218.719085 291.27039 
L 218.719085 286.11438 
L 214.440882 286.11438 
z
" clip-path="url(#pbb407e189c)" style="fill: #ff0000"/>
   </g>
   <g id="patch_115">
    <path d="M 221.571221 291.785991 
L 225.849425 291.785991 
L 225.849425 277.349162 
L 221.571221 277.349162 
z
" clip-path="url(#pbb407e189c)" style="fill: #ff0000"/>
   </g>
   <g id="patch_116">
    <path d="M 228.701561 281.473971 
L 232.979765 281.473971 
L 232.979765 252.600313 
L 228.701561 252.600313 
z
" clip-path="url(#pbb407e189c)" style="fill: #ff0000"/>
   </g>
   <g id="patch_117">
    <path d="M 235.8319 227.335863 
L 240.110104 227.335863 
L 240.110104 184.540978 
L 235.8319 184.540978 
z
" clip-path="url(#pbb407e189c)" style="fill: #ff0000"/>
   </g>
   <g id="patch_118">
    <path d="M 242.96224 198.977807 
L 247.240444 198.977807 
L 247.240444 165.46374 
L 242.96224 165.46374 
z
" clip-path="url(#pbb407e189c)" style="fill: #ff0000"/>
   </g>
   <g id="patch_119">
    <path d="M 257.222919 204.133817 
L 261.501123 204.133817 
L 261.501123 192.790595 
L 257.222919 192.790595 
z
" clip-path="url(#pbb407e189c)" style="fill: #ff0000"/>
   </g>
   <g id="patch_120">
    <path d="M 271.483598 195.884201 
L 275.761802 195.884201 
L 275.761802 169.072948 
L 271.483598 169.072948 
z
" clip-path="url(#pbb407e189c)" style="fill: #ff0000"/>
   </g>
   <g id="patch_121">
    <path d="M 278.613938 173.197756 
L 282.892141 173.197756 
L 282.892141 117.512845 
L 278.613938 117.512845 
z
" clip-path="url(#pbb407e189c)" style="fill: #ff0000"/>
   </g>
   <g id="patch_122">
    <path d="M 285.744277 115.966042 
L 290.022481 115.966042 
L 290.022481 115.450441 
L 285.744277 115.450441 
z
" clip-path="url(#pbb407e189c)" style="fill: #ff0000"/>
   </g>
   <g id="patch_123">
    <path d="M 300.004956 167.526145 
L 304.28316 167.526145 
L 304.28316 152.573715 
L 300.004956 152.573715 
z
" clip-path="url(#pbb407e189c)" style="fill: #ff0000"/>
   </g>
   <g id="patch_124">
    <path d="M 357.047673 278.895965 
L 361.325876 278.895965 
L 361.325876 241.257091 
L 357.047673 241.257091 
z
" clip-path="url(#pbb407e189c)" style="fill: #ff0000"/>
   </g>
   <g id="patch_125">
    <path d="M 371.308352 264.974738 
L 375.586555 264.974738 
L 375.586555 213.414636 
L 371.308352 213.414636 
z
" clip-path="url(#pbb407e189c)" style="fill: #ff0000"/>
   </g>
   <g id="patch_126">
    <path d="M 378.438691 206.711822 
L 382.716895 206.711822 
L 382.716895 206.711822 
L 378.438691 206.711822 
z
" clip-path="url(#pbb407e189c)" style="fill: #ff0000"/>
   </g>
   <g id="patch_127">
    <path d="M 399.82971 202.587014 
L 404.107913 202.587014 
L 404.107913 171.650953 
L 399.82971 171.650953 
z
" clip-path="url(#pbb407e189c)" style="fill: #ff0000"/>
   </g>
   <g id="patch_128">
    <path d="M 406.960049 171.650953 
L 411.238253 171.650953 
L 411.238253 63.890339 
L 406.960049 63.890339 
z
" clip-path="url(#pbb407e189c)" style="fill: #ff0000"/>
   </g>
   <g id="patch_129">
    <path d="M 435.481407 126.793664 
L 439.759611 126.793664 
L 439.759611 90.701592 
L 435.481407 90.701592 
z
" clip-path="url(#pbb407e189c)" style="fill: #ff0000"/>
   </g>
   <g id="patch_130">
    <path d="M 464.002766 214.445838 
L 468.280969 214.445838 
L 468.280969 209.289827 
L 464.002766 209.289827 
z
" clip-path="url(#pbb407e189c)" style="fill: #ff0000"/>
   </g>
   <g id="patch_131">
    <path d="M 485.393784 244.350697 
L 489.671988 244.350697 
L 489.671988 226.820262 
L 485.393784 226.820262 
z
" clip-path="url(#pbb407e189c)" style="fill: #ff0000"/>
   </g>
   <g id="patch_132">
    <path d="M 521.045482 322.722052 
L 525.323686 322.722052 
L 525.323686 316.53484 
L 521.045482 316.53484 
z
" clip-path="url(#pbb407e189c)" style="fill: #ff0000"/>
   </g>
   <g id="patch_133">
    <path d="M 528.175821 343.346093 
L 532.454025 343.346093 
L 532.454025 303.644815 
L 528.175821 303.644815 
z
" clip-path="url(#pbb407e189c)" style="fill: #ff0000"/>
   </g>
   <g id="patch_134">
    <path d="M 535.306161 291.785991 
L 539.584365 291.785991 
L 539.584365 269.099546 
L 535.306161 269.099546 
z
" clip-path="url(#pbb407e189c)" style="fill: #ff0000"/>
   </g>
   <g id="patch_135">
    <path d="M 542.436501 229.913868 
L 546.714704 229.913868 
L 546.714704 223.726656 
L 542.436501 223.726656 
z
" clip-path="url(#pbb407e189c)" style="fill: #ff0000"/>
   </g>
   <g id="patch_136">
    <path d="M 556.69718 260.84993 
L 560.975383 260.84993 
L 560.975383 257.240723 
L 556.69718 257.240723 
z
" clip-path="url(#pbb407e189c)" style="fill: #ff0000"/>
   </g>
   <g id="patch_137">
    <path d="M 592.348877 320.144047 
L 596.627081 320.144047 
L 596.627081 300.551208 
L 592.348877 300.551208 
z
" clip-path="url(#pbb407e189c)" style="fill: #ff0000"/>
   </g>
   <g id="patch_138">
    <path d="M 613.739896 354.689316 
L 618.0181 354.689316 
L 618.0181 343.346093 
L 613.739896 343.346093 
z
" clip-path="url(#pbb407e189c)" style="fill: #ff0000"/>
   </g>
   <g id="patch_139">
    <path d="M 620.870235 346.955301 
L 625.148439 346.955301 
L 625.148439 342.830492 
L 620.870235 342.830492 
z
" clip-path="url(#pbb407e189c)" style="fill: #ff0000"/>
   </g>
   <g id="patch_140">
    <path d="M 642.261254 411.405428 
L 646.539458 411.405428 
L 646.539458 393.359393 
L 642.261254 393.359393 
z
" clip-path="url(#pbb407e189c)" style="fill: #ff0000"/>
   </g>
   <g id="patch_141">
    <path d="M 656.521933 404.187014 
L 660.800137 404.187014 
L 660.800137 393.874994 
L 656.521933 393.874994 
z
" clip-path="url(#pbb407e189c)" style="fill: #ff0000"/>
   </g>
   <g id="patch_142">
    <path d="M 685.043291 445.950697 
L 689.321495 445.950697 
L 689.321495 440.279086 
L 685.043291 440.279086 
z
" clip-path="url(#pbb407e189c)" style="fill: #ff0000"/>
   </g>
   <g id="patch_143">
    <path d="M 692.173631 438.732283 
L 696.451835 438.732283 
L 696.451835 425.842257 
L 692.173631 425.842257 
z
" clip-path="url(#pbb407e189c)" style="fill: #ff0000"/>
   </g>
   <g id="patch_144">
    <path d="M 699.30397 424.811055 
L 703.582174 424.811055 
L 703.582174 418.623843 
L 699.30397 418.623843 
z
" clip-path="url(#pbb407e189c)" style="fill: #ff0000"/>
   </g>
   <g id="patch_145">
    <path d="M 713.56465 416.045838 
L 717.842853 416.045838 
L 717.842853 407.28062 
L 713.56465 407.28062 
z
" clip-path="url(#pbb407e189c)" style="fill: #ff0000"/>
   </g>
   <g id="patch_146">
    <path d="M 727.825329 404.702615 
L 732.103532 404.702615 
L 732.103532 403.671413 
L 727.825329 403.671413 
z
" clip-path="url(#pbb407e189c)" style="fill: #ff0000"/>
   </g>
   <g id="patch_147">
    <path d="M 742.086008 412.952231 
L 746.364211 412.952231 
L 746.364211 412.952231 
L 742.086008 412.952231 
z
" clip-path="url(#pbb407e189c)" style="fill: #ff0000"/>
   </g>
   <g id="patch_148">
    <path d="M 756.346687 417.592641 
L 760.62489 417.592641 
L 760.62489 407.28062 
L 756.346687 407.28062 
z
" clip-path="url(#pbb407e189c)" style="fill: #ff0000"/>
   </g>
   <g id="patch_149">
    <path d="M 763.477026 411.405428 
L 767.75523 411.405428 
L 767.75523 404.702615 
L 763.477026 404.702615 
z
" clip-path="url(#pbb407e189c)" style="fill: #ff0000"/>
   </g>
   <g id="patch_150">
    <path d="M 777.737705 421.201848 
L 782.015909 421.201848 
L 782.015909 410.889827 
L 777.737705 410.889827 
z
" clip-path="url(#pbb407e189c)" style="fill: #ff0000"/>
   </g>
   <g id="patch_151">
    <path d="M 78.96443 300.551208 
L 83.242634 300.551208 
L 83.242634 287.145582 
L 78.96443 287.145582 
z
" clip-path="url(#pbb407e189c)" style="fill: #008000"/>
   </g>
   <g id="patch_152">
    <path d="M 114.616128 263.943536 
L 118.894332 263.943536 
L 118.894332 257.240723 
L 114.616128 257.240723 
z
" clip-path="url(#pbb407e189c)" style="fill: #008000"/>
   </g>
   <g id="patch_153">
    <path d="M 128.876807 246.928702 
L 133.155011 246.928702 
L 133.155011 222.695454 
L 128.876807 222.695454 
z
" clip-path="url(#pbb407e189c)" style="fill: #008000"/>
   </g>
   <g id="patch_154">
    <path d="M 136.007147 274.255556 
L 140.28535 274.255556 
L 140.28535 247.444303 
L 136.007147 247.444303 
z
" clip-path="url(#pbb407e189c)" style="fill: #008000"/>
   </g>
   <g id="patch_155">
    <path d="M 164.528505 130.402871 
L 168.806709 130.402871 
L 168.806709 121.122052 
L 164.528505 121.122052 
z
" clip-path="url(#pbb407e189c)" style="fill: #008000"/>
   </g>
   <g id="patch_156">
    <path d="M 171.658844 241.257091 
L 175.937048 241.257091 
L 175.937048 134.527679 
L 171.658844 134.527679 
z
" clip-path="url(#pbb407e189c)" style="fill: #008000"/>
   </g>
   <g id="patch_157">
    <path d="M 178.789184 248.991106 
L 183.067388 248.991106 
L 183.067388 237.647884 
L 178.789184 237.647884 
z
" clip-path="url(#pbb407e189c)" style="fill: #008000"/>
   </g>
   <g id="patch_158">
    <path d="M 185.919524 282.505173 
L 190.197727 282.505173 
L 190.197727 254.147116 
L 185.919524 254.147116 
z
" clip-path="url(#pbb407e189c)" style="fill: #008000"/>
   </g>
   <g id="patch_159">
    <path d="M 207.310542 292.301592 
L 211.588746 292.301592 
L 211.588746 255.693919 
L 207.310542 255.693919 
z
" clip-path="url(#pbb407e189c)" style="fill: #008000"/>
   </g>
   <g id="patch_160">
    <path d="M 250.092579 196.399802 
L 254.370783 196.399802 
L 254.370783 176.291362 
L 250.092579 176.291362 
z
" clip-path="url(#pbb407e189c)" style="fill: #008000"/>
   </g>
   <g id="patch_161">
    <path d="M 264.353258 208.774226 
L 268.631462 208.774226 
L 268.631462 187.118983 
L 264.353258 187.118983 
z
" clip-path="url(#pbb407e189c)" style="fill: #008000"/>
   </g>
   <g id="patch_162">
    <path d="M 292.874617 134.527679 
L 297.15282 134.527679 
L 297.15282 118.544047 
L 292.874617 118.544047 
z
" clip-path="url(#pbb407e189c)" style="fill: #008000"/>
   </g>
   <g id="patch_163">
    <path d="M 307.135296 193.821797 
L 311.413499 193.821797 
L 311.413499 144.839699 
L 307.135296 144.839699 
z
" clip-path="url(#pbb407e189c)" style="fill: #008000"/>
   </g>
   <g id="patch_164">
    <path d="M 314.265635 224.242257 
L 318.543839 224.242257 
L 318.543839 198.977807 
L 314.265635 198.977807 
z
" clip-path="url(#pbb407e189c)" style="fill: #008000"/>
   </g>
   <g id="patch_165">
    <path d="M 321.395975 238.163485 
L 325.674179 238.163485 
L 325.674179 222.179853 
L 321.395975 222.179853 
z
" clip-path="url(#pbb407e189c)" style="fill: #008000"/>
   </g>
   <g id="patch_166">
    <path d="M 328.526314 246.928702 
L 332.804518 246.928702 
L 332.804518 240.225889 
L 328.526314 240.225889 
z
" clip-path="url(#pbb407e189c)" style="fill: #008000"/>
   </g>
   <g id="patch_167">
    <path d="M 335.656654 255.693919 
L 339.934858 255.693919 
L 339.934858 244.866298 
L 335.656654 244.866298 
z
" clip-path="url(#pbb407e189c)" style="fill: #008000"/>
   </g>
   <g id="patch_168">
    <path d="M 342.786993 262.396733 
L 347.065197 262.396733 
L 347.065197 255.693919 
L 342.786993 255.693919 
z
" clip-path="url(#pbb407e189c)" style="fill: #008000"/>
   </g>
   <g id="patch_169">
    <path d="M 349.917333 282.505173 
L 354.195537 282.505173 
L 354.195537 258.787526 
L 349.917333 258.787526 
z
" clip-path="url(#pbb407e189c)" style="fill: #008000"/>
   </g>
   <g id="patch_170">
    <path d="M 364.178012 267.552743 
L 368.456216 267.552743 
L 368.456216 242.288293 
L 364.178012 242.288293 
z
" clip-path="url(#pbb407e189c)" style="fill: #008000"/>
   </g>
   <g id="patch_171">
    <path d="M 385.569031 222.179853 
L 389.847234 222.179853 
L 389.847234 209.289827 
L 385.569031 209.289827 
z
" clip-path="url(#pbb407e189c)" style="fill: #008000"/>
   </g>
   <g id="patch_172">
    <path d="M 392.69937 202.587014 
L 396.977574 202.587014 
L 396.977574 182.994175 
L 392.69937 182.994175 
z
" clip-path="url(#pbb407e189c)" style="fill: #008000"/>
   </g>
   <g id="patch_173">
    <path d="M 414.090389 98.435607 
L 418.368593 98.435607 
L 418.368593 69.046349 
L 414.090389 69.046349 
z
" clip-path="url(#pbb407e189c)" style="fill: #008000"/>
   </g>
   <g id="patch_174">
    <path d="M 421.220728 116.481643 
L 425.498932 116.481643 
L 425.498932 96.888804 
L 421.220728 96.888804 
z
" clip-path="url(#pbb407e189c)" style="fill: #008000"/>
   </g>
   <g id="patch_175">
    <path d="M 428.351068 129.371669 
L 432.629272 129.371669 
L 432.629272 123.184457 
L 428.351068 123.184457 
z
" clip-path="url(#pbb407e189c)" style="fill: #008000"/>
   </g>
   <g id="patch_176">
    <path d="M 442.611747 91.217193 
L 446.889951 91.217193 
L 446.889951 80.389572 
L 442.611747 80.389572 
z
" clip-path="url(#pbb407e189c)" style="fill: #008000"/>
   </g>
   <g id="patch_177">
    <path d="M 449.742087 175.775761 
L 454.02029 175.775761 
L 454.02029 99.466809 
L 449.742087 99.466809 
z
" clip-path="url(#pbb407e189c)" style="fill: #008000"/>
   </g>
   <g id="patch_178">
    <path d="M 456.872426 212.383434 
L 461.15063 212.383434 
L 461.15063 175.775761 
L 456.872426 175.775761 
z
" clip-path="url(#pbb407e189c)" style="fill: #008000"/>
   </g>
   <g id="patch_179">
    <path d="M 471.133105 226.304661 
L 475.411309 226.304661 
L 475.411309 208.774226 
L 471.133105 208.774226 
z
" clip-path="url(#pbb407e189c)" style="fill: #008000"/>
   </g>
   <g id="patch_180">
    <path d="M 478.263445 239.710288 
L 482.541648 239.710288 
L 482.541648 235.069879 
L 478.263445 235.069879 
z
" clip-path="url(#pbb407e189c)" style="fill: #008000"/>
   </g>
   <g id="patch_181">
    <path d="M 492.524124 229.398267 
L 496.802327 229.398267 
L 496.802327 218.055045 
L 492.524124 218.055045 
z
" clip-path="url(#pbb407e189c)" style="fill: #008000"/>
   </g>
   <g id="patch_182">
    <path d="M 499.654463 238.163485 
L 503.932667 238.163485 
L 503.932667 235.069879 
L 499.654463 235.069879 
z
" clip-path="url(#pbb407e189c)" style="fill: #008000"/>
   </g>
   <g id="patch_183">
    <path d="M 506.784803 250.537909 
L 511.063007 250.537909 
L 511.063007 239.710288 
L 506.784803 239.710288 
z
" clip-path="url(#pbb407e189c)" style="fill: #008000"/>
   </g>
   <g id="patch_184">
    <path d="M 513.915142 294.363996 
L 518.193346 294.363996 
L 518.193346 253.631515 
L 513.915142 253.631515 
z
" clip-path="url(#pbb407e189c)" style="fill: #008000"/>
   </g>
   <g id="patch_185">
    <path d="M 549.56684 261.881132 
L 553.845044 261.881132 
L 553.845044 220.63305 
L 549.56684 220.63305 
z
" clip-path="url(#pbb407e189c)" style="fill: #008000"/>
   </g>
   <g id="patch_186">
    <path d="M 563.827519 279.411566 
L 568.105723 279.411566 
L 568.105723 260.84993 
L 563.827519 260.84993 
z
" clip-path="url(#pbb407e189c)" style="fill: #008000"/>
   </g>
   <g id="patch_187">
    <path d="M 570.957859 288.692385 
L 575.236062 288.692385 
L 575.236062 281.473971 
L 570.957859 281.473971 
z
" clip-path="url(#pbb407e189c)" style="fill: #008000"/>
   </g>
   <g id="patch_188">
    <path d="M 578.088198 303.129214 
L 582.366402 303.129214 
L 582.366402 294.363996 
L 578.088198 294.363996 
z
" clip-path="url(#pbb407e189c)" style="fill: #008000"/>
   </g>
   <g id="patch_189">
    <path d="M 585.218538 329.940467 
L 589.496742 329.940467 
L 589.496742 304.676017 
L 585.218538 304.676017 
z
" clip-path="url(#pbb407e189c)" style="fill: #008000"/>
   </g>
   <g id="patch_190">
    <path d="M 599.479217 317.566042 
L 603.757421 317.566042 
L 603.757421 300.551208 
L 599.479217 300.551208 
z
" clip-path="url(#pbb407e189c)" style="fill: #008000"/>
   </g>
   <g id="patch_191">
    <path d="M 606.609556 351.080109 
L 610.88776 351.080109 
L 610.88776 322.206451 
L 606.609556 322.206451 
z
" clip-path="url(#pbb407e189c)" style="fill: #008000"/>
   </g>
   <g id="patch_192">
    <path d="M 628.000575 403.155812 
L 632.278779 403.155812 
L 632.278779 353.658114 
L 628.000575 353.658114 
z
" clip-path="url(#pbb407e189c)" style="fill: #008000"/>
   </g>
   <g id="patch_193">
    <path d="M 635.130915 408.827423 
L 639.409118 408.827423 
L 639.409118 403.671413 
L 635.130915 403.671413 
z
" clip-path="url(#pbb407e189c)" style="fill: #008000"/>
   </g>
   <g id="patch_194">
    <path d="M 649.391594 401.093408 
L 653.669797 401.093408 
L 653.669797 398.515403 
L 649.391594 398.515403 
z
" clip-path="url(#pbb407e189c)" style="fill: #008000"/>
   </g>
   <g id="patch_195">
    <path d="M 663.652273 405.733817 
L 667.930476 405.733817 
L 667.930476 400.062206 
L 663.652273 400.062206 
z
" clip-path="url(#pbb407e189c)" style="fill: #008000"/>
   </g>
   <g id="patch_196">
    <path d="M 670.782612 428.420262 
L 675.060816 428.420262 
L 675.060816 409.343024 
L 670.782612 409.343024 
z
" clip-path="url(#pbb407e189c)" style="fill: #008000"/>
   </g>
   <g id="patch_197">
    <path d="M 677.912952 436.669879 
L 682.191156 436.669879 
L 682.191156 423.264252 
L 677.912952 423.264252 
z
" clip-path="url(#pbb407e189c)" style="fill: #008000"/>
   </g>
   <g id="patch_198">
    <path d="M 706.43431 418.108242 
L 710.712514 418.108242 
L 710.712514 414.499035 
L 706.43431 414.499035 
z
" clip-path="url(#pbb407e189c)" style="fill: #008000"/>
   </g>
   <g id="patch_199">
    <path d="M 720.694989 405.733817 
L 724.973193 405.733817 
L 724.973193 404.187014 
L 720.694989 404.187014 
z
" clip-path="url(#pbb407e189c)" style="fill: #008000"/>
   </g>
   <g id="patch_200">
    <path d="M 734.955668 413.467832 
L 739.233872 413.467832 
L 739.233872 404.187014 
L 734.955668 404.187014 
z
" clip-path="url(#pbb407e189c)" style="fill: #008000"/>
   </g>
   <g id="patch_201">
    <path d="M 749.216347 417.07704 
L 753.494551 417.07704 
L 753.494551 415.530237 
L 749.216347 415.530237 
z
" clip-path="url(#pbb407e189c)" style="fill: #008000"/>
   </g>
   <g id="patch_202">
    <path d="M 770.607366 436.154277 
L 774.88557 436.154277 
L 774.88557 406.765019 
L 770.607366 406.765019 
z
" clip-path="url(#pbb407e189c)" style="fill: #008000"/>
   </g>
   <g id="matplotlib.axis_1">
    <g id="xtick_1">
     <g id="line2d_1">
      <defs>
       <path id="m1f33d5cd36" d="M 0 0 
L 0 3.5 
" style="stroke: #000000; stroke-width: 0.8"/>
      </defs>
      <g>
       <use xlink:href="#m1f33d5cd36" x="73.973193" y="467.6575" style="stroke: #000000; stroke-width: 0.8"/>
      </g>
     </g>
     <g id="text_1">
      <!-- 2025-06-04 -->
      <g transform="translate(61.422047 506.830859) rotate(-45) scale(0.08 -0.08)">
       <defs>
        <path id="SimHei-32" d="M 300 250 
Q 325 625 650 925 
Q 975 1225 1475 1862 
Q 1975 2500 2125 2850 
Q 2275 3200 2237 3450 
Q 2200 3700 2000 3862 
Q 1800 4025 1537 4000 
Q 1275 3975 1037 3800 
Q 800 3625 675 3275 
L 200 3350 
Q 400 3925 712 4187 
Q 1025 4450 1450 4475 
Q 1700 4500 1900 4462 
Q 2100 4425 2312 4287 
Q 2525 4150 2662 3875 
Q 2800 3600 2762 3212 
Q 2725 2825 2375 2287 
Q 2025 1750 1025 600 
L 2825 600 
L 2825 150 
L 300 150 
L 300 250 
z
" transform="scale(0.015625)"/>
        <path id="SimHei-30" d="M 225 2537 
Q 250 3200 412 3587 
Q 575 3975 875 4225 
Q 1175 4475 1612 4475 
Q 2050 4475 2375 4112 
Q 2700 3750 2800 3200 
Q 2900 2650 2862 1937 
Q 2825 1225 2612 775 
Q 2400 325 1975 150 
Q 1550 -25 1125 187 
Q 700 400 525 750 
Q 350 1100 275 1487 
Q 200 1875 225 2537 
z
M 750 2687 
Q 675 2000 800 1462 
Q 925 925 1212 700 
Q 1500 475 1800 612 
Q 2100 750 2237 1162 
Q 2375 1575 2375 2062 
Q 2375 2550 2337 2950 
Q 2300 3350 2112 3675 
Q 1925 4000 1612 4012 
Q 1300 4025 1062 3700 
Q 825 3375 750 2687 
z
" transform="scale(0.015625)"/>
        <path id="SimHei-35" d="M 550 1325 
Q 725 650 1150 575 
Q 1575 500 1837 662 
Q 2100 825 2212 1087 
Q 2325 1350 2312 1675 
Q 2300 2000 2137 2225 
Q 1975 2450 1725 2525 
Q 1475 2600 1162 2525 
Q 850 2450 650 2175 
L 225 2225 
Q 275 2375 700 4375 
L 2675 4375 
L 2675 3925 
L 1075 3925 
Q 950 3250 825 2850 
Q 1200 3025 1525 3012 
Q 1850 3000 2150 2862 
Q 2450 2725 2587 2487 
Q 2725 2250 2787 2012 
Q 2850 1775 2837 1500 
Q 2825 1225 2725 937 
Q 2625 650 2425 462 
Q 2225 275 1937 162 
Q 1650 50 1275 75 
Q 900 100 562 350 
Q 225 600 100 1200 
L 550 1325 
z
" transform="scale(0.015625)"/>
        <path id="SimHei-2d" d="M 2975 2125 
L 125 2125 
L 125 2525 
L 2975 2525 
L 2975 2125 
z
" transform="scale(0.015625)"/>
        <path id="SimHei-36" d="M 250 1612 
Q 275 1975 387 2225 
Q 500 2475 725 2850 
L 1750 4450 
L 2325 4450 
L 1275 2800 
Q 1950 2975 2350 2750 
Q 2750 2525 2887 2237 
Q 3025 1950 3037 1612 
Q 3050 1275 2937 950 
Q 2825 625 2537 362 
Q 2250 100 1737 75 
Q 1225 50 862 262 
Q 500 475 362 862 
Q 225 1250 250 1612 
z
M 1025 787 
Q 1250 550 1625 525 
Q 2000 500 2250 775 
Q 2500 1050 2500 1575 
Q 2500 2100 2187 2300 
Q 1875 2500 1487 2450 
Q 1100 2400 925 2075 
Q 750 1750 775 1387 
Q 800 1025 1025 787 
z
" transform="scale(0.015625)"/>
        <path id="SimHei-34" d="M 2000 1100 
L 75 1100 
L 75 1525 
L 2100 4450 
L 2475 4450 
L 2475 1525 
L 3075 1525 
L 3075 1100 
L 2475 1100 
L 2475 150 
L 2000 150 
L 2000 1100 
z
M 2000 1525 
L 2000 3500 
L 600 1525 
L 2000 1525 
z
" transform="scale(0.015625)"/>
       </defs>
       <use xlink:href="#SimHei-32"/>
       <use xlink:href="#SimHei-30" transform="translate(50 0)"/>
       <use xlink:href="#SimHei-32" transform="translate(100 0)"/>
       <use xlink:href="#SimHei-35" transform="translate(150 0)"/>
       <use xlink:href="#SimHei-2d" transform="translate(200 0)"/>
       <use xlink:href="#SimHei-30" transform="translate(250 0)"/>
       <use xlink:href="#SimHei-36" transform="translate(300 0)"/>
       <use xlink:href="#SimHei-2d" transform="translate(350 0)"/>
       <use xlink:href="#SimHei-30" transform="translate(400 0)"/>
       <use xlink:href="#SimHei-34" transform="translate(450 0)"/>
      </g>
     </g>
    </g>
    <g id="xtick_2">
     <g id="line2d_2">
      <g>
       <use xlink:href="#m1f33d5cd36" x="109.62489" y="467.6575" style="stroke: #000000; stroke-width: 0.8"/>
      </g>
     </g>
     <g id="text_2">
      <!-- 2025-06-13 -->
      <g transform="translate(97.073745 506.830859) rotate(-45) scale(0.08 -0.08)">
       <defs>
        <path id="SimHei-31" d="M 1400 3600 
Q 1075 3275 575 2975 
L 575 3450 
Q 1200 3875 1600 4450 
L 1900 4450 
L 1900 150 
L 1400 150 
L 1400 3600 
z
" transform="scale(0.015625)"/>
        <path id="SimHei-33" d="M 250 1225 
L 700 1300 
Q 800 975 1025 762 
Q 1250 550 1587 562 
Q 1925 575 2125 837 
Q 2325 1100 2300 1437 
Q 2275 1775 2037 1962 
Q 1800 2150 1275 2225 
L 1275 2550 
Q 1800 2600 2037 2825 
Q 2275 3050 2250 3412 
Q 2225 3775 1925 3937 
Q 1625 4100 1287 3975 
Q 950 3850 750 3275 
L 300 3350 
Q 450 3800 712 4100 
Q 975 4400 1425 4450 
Q 1875 4500 2212 4337 
Q 2550 4175 2687 3837 
Q 2825 3500 2725 3100 
Q 2625 2700 2150 2400 
Q 2500 2250 2687 1950 
Q 2875 1650 2812 1162 
Q 2750 675 2375 375 
Q 2000 75 1525 87 
Q 1050 100 700 387 
Q 350 675 250 1225 
z
" transform="scale(0.015625)"/>
       </defs>
       <use xlink:href="#SimHei-32"/>
       <use xlink:href="#SimHei-30" transform="translate(50 0)"/>
       <use xlink:href="#SimHei-32" transform="translate(100 0)"/>
       <use xlink:href="#SimHei-35" transform="translate(150 0)"/>
       <use xlink:href="#SimHei-2d" transform="translate(200 0)"/>
       <use xlink:href="#SimHei-30" transform="translate(250 0)"/>
       <use xlink:href="#SimHei-36" transform="translate(300 0)"/>
       <use xlink:href="#SimHei-2d" transform="translate(350 0)"/>
       <use xlink:href="#SimHei-31" transform="translate(400 0)"/>
       <use xlink:href="#SimHei-33" transform="translate(450 0)"/>
      </g>
     </g>
    </g>
    <g id="xtick_3">
     <g id="line2d_3">
      <g>
       <use xlink:href="#m1f33d5cd36" x="145.276588" y="467.6575" style="stroke: #000000; stroke-width: 0.8"/>
      </g>
     </g>
     <g id="text_3">
      <!-- 2025-06-23 -->
      <g transform="translate(132.725443 506.830859) rotate(-45) scale(0.08 -0.08)">
       <use xlink:href="#SimHei-32"/>
       <use xlink:href="#SimHei-30" transform="translate(50 0)"/>
       <use xlink:href="#SimHei-32" transform="translate(100 0)"/>
       <use xlink:href="#SimHei-35" transform="translate(150 0)"/>
       <use xlink:href="#SimHei-2d" transform="translate(200 0)"/>
       <use xlink:href="#SimHei-30" transform="translate(250 0)"/>
       <use xlink:href="#SimHei-36" transform="translate(300 0)"/>
       <use xlink:href="#SimHei-2d" transform="translate(350 0)"/>
       <use xlink:href="#SimHei-32" transform="translate(400 0)"/>
       <use xlink:href="#SimHei-33" transform="translate(450 0)"/>
      </g>
     </g>
    </g>
    <g id="xtick_4">
     <g id="line2d_4">
      <g>
       <use xlink:href="#m1f33d5cd36" x="180.928286" y="467.6575" style="stroke: #000000; stroke-width: 0.8"/>
      </g>
     </g>
     <g id="text_4">
      <!-- 2025-07-01 -->
      <g transform="translate(168.377141 506.830859) rotate(-45) scale(0.08 -0.08)">
       <defs>
        <path id="SimHei-37" d="M 850 150 
Q 1300 2050 2425 3925 
L 275 3925 
L 275 4375 
L 2950 4375 
L 2950 3950 
Q 1775 2050 1400 150 
L 850 150 
z
" transform="scale(0.015625)"/>
       </defs>
       <use xlink:href="#SimHei-32"/>
       <use xlink:href="#SimHei-30" transform="translate(50 0)"/>
       <use xlink:href="#SimHei-32" transform="translate(100 0)"/>
       <use xlink:href="#SimHei-35" transform="translate(150 0)"/>
       <use xlink:href="#SimHei-2d" transform="translate(200 0)"/>
       <use xlink:href="#SimHei-30" transform="translate(250 0)"/>
       <use xlink:href="#SimHei-37" transform="translate(300 0)"/>
       <use xlink:href="#SimHei-2d" transform="translate(350 0)"/>
       <use xlink:href="#SimHei-30" transform="translate(400 0)"/>
       <use xlink:href="#SimHei-31" transform="translate(450 0)"/>
      </g>
     </g>
    </g>
    <g id="xtick_5">
     <g id="line2d_5">
      <g>
       <use xlink:href="#m1f33d5cd36" x="216.579984" y="467.6575" style="stroke: #000000; stroke-width: 0.8"/>
      </g>
     </g>
     <g id="text_5">
      <!-- 2025-07-14 -->
      <g transform="translate(204.028838 506.830859) rotate(-45) scale(0.08 -0.08)">
       <use xlink:href="#SimHei-32"/>
       <use xlink:href="#SimHei-30" transform="translate(50 0)"/>
       <use xlink:href="#SimHei-32" transform="translate(100 0)"/>
       <use xlink:href="#SimHei-35" transform="translate(150 0)"/>
       <use xlink:href="#SimHei-2d" transform="translate(200 0)"/>
       <use xlink:href="#SimHei-30" transform="translate(250 0)"/>
       <use xlink:href="#SimHei-37" transform="translate(300 0)"/>
       <use xlink:href="#SimHei-2d" transform="translate(350 0)"/>
       <use xlink:href="#SimHei-31" transform="translate(400 0)"/>
       <use xlink:href="#SimHei-34" transform="translate(450 0)"/>
      </g>
     </g>
    </g>
    <g id="xtick_6">
     <g id="line2d_6">
      <g>
       <use xlink:href="#m1f33d5cd36" x="252.231681" y="467.6575" style="stroke: #000000; stroke-width: 0.8"/>
      </g>
     </g>
     <g id="text_6">
      <!-- 2025-07-22 -->
      <g transform="translate(239.680536 506.830859) rotate(-45) scale(0.08 -0.08)">
       <use xlink:href="#SimHei-32"/>
       <use xlink:href="#SimHei-30" transform="translate(50 0)"/>
       <use xlink:href="#SimHei-32" transform="translate(100 0)"/>
       <use xlink:href="#SimHei-35" transform="translate(150 0)"/>
       <use xlink:href="#SimHei-2d" transform="translate(200 0)"/>
       <use xlink:href="#SimHei-30" transform="translate(250 0)"/>
       <use xlink:href="#SimHei-37" transform="translate(300 0)"/>
       <use xlink:href="#SimHei-2d" transform="translate(350 0)"/>
       <use xlink:href="#SimHei-32" transform="translate(400 0)"/>
       <use xlink:href="#SimHei-32" transform="translate(450 0)"/>
      </g>
     </g>
    </g>
    <g id="xtick_7">
     <g id="line2d_7">
      <g>
       <use xlink:href="#m1f33d5cd36" x="287.883379" y="467.6575" style="stroke: #000000; stroke-width: 0.8"/>
      </g>
     </g>
     <g id="text_7">
      <!-- 2025-07-29 -->
      <g transform="translate(275.332234 506.830859) rotate(-45) scale(0.08 -0.08)">
       <defs>
        <path id="SimHei-39" d="M 800 75 
Q 1350 1000 1700 1750 
Q 1075 1650 662 1912 
Q 250 2175 162 2625 
Q 75 3075 175 3437 
Q 275 3800 487 4037 
Q 700 4275 1000 4375 
Q 1300 4475 1537 4475 
Q 1775 4475 2025 4375 
Q 2275 4275 2475 4075 
Q 2675 3875 2750 3662 
Q 2825 3450 2825 3112 
Q 2825 2775 2575 2250 
Q 2325 1725 1350 75 
L 800 75 
z
M 662 2875 
Q 700 2550 937 2337 
Q 1175 2125 1450 2150 
Q 1725 2175 1887 2300 
Q 2050 2425 2200 2725 
Q 2300 3100 2250 3362 
Q 2200 3625 1987 3800 
Q 1775 3975 1525 3975 
Q 1375 4000 1137 3900 
Q 900 3800 762 3500 
Q 625 3200 662 2875 
z
" transform="scale(0.015625)"/>
       </defs>
       <use xlink:href="#SimHei-32"/>
       <use xlink:href="#SimHei-30" transform="translate(50 0)"/>
       <use xlink:href="#SimHei-32" transform="translate(100 0)"/>
       <use xlink:href="#SimHei-35" transform="translate(150 0)"/>
       <use xlink:href="#SimHei-2d" transform="translate(200 0)"/>
       <use xlink:href="#SimHei-30" transform="translate(250 0)"/>
       <use xlink:href="#SimHei-37" transform="translate(300 0)"/>
       <use xlink:href="#SimHei-2d" transform="translate(350 0)"/>
       <use xlink:href="#SimHei-32" transform="translate(400 0)"/>
       <use xlink:href="#SimHei-39" transform="translate(450 0)"/>
      </g>
     </g>
    </g>
    <g id="xtick_8">
     <g id="line2d_8">
      <g>
       <use xlink:href="#m1f33d5cd36" x="323.535077" y="467.6575" style="stroke: #000000; stroke-width: 0.8"/>
      </g>
     </g>
     <g id="text_8">
      <!-- 2025-08-06 -->
      <g transform="translate(310.983931 506.830859) rotate(-45) scale(0.08 -0.08)">
       <defs>
        <path id="SimHei-38" d="M 175 1375 
Q 175 1675 325 1962 
Q 475 2250 825 2425 
Q 525 2600 425 2812 
Q 325 3025 312 3300 
Q 300 3575 387 3775 
Q 475 3975 650 4150 
Q 825 4325 1037 4387 
Q 1250 4450 1500 4450 
Q 1750 4450 1950 4400 
Q 2150 4350 2375 4187 
Q 2600 4025 2700 3725 
Q 2800 3425 2687 3025 
Q 2575 2625 2100 2400 
Q 2525 2275 2700 2012 
Q 2875 1750 2875 1375 
Q 2875 1000 2762 775 
Q 2650 550 2512 400 
Q 2375 250 2137 162 
Q 1900 75 1537 75 
Q 1175 75 912 162 
Q 650 250 475 425 
Q 300 600 237 837 
Q 175 1075 175 1375 
z
M 687 1400 
Q 675 1100 787 875 
Q 900 650 1200 587 
Q 1500 525 1825 600 
Q 2150 675 2275 950 
Q 2400 1225 2362 1500 
Q 2325 1775 2050 1962 
Q 1775 2150 1450 2125 
Q 1125 2100 912 1900 
Q 700 1700 687 1400 
z
M 775 3350 
Q 775 3100 950 2875 
Q 1125 2650 1500 2650 
Q 1875 2650 2062 2875 
Q 2250 3100 2237 3412 
Q 2225 3725 2012 3875 
Q 1800 4025 1437 4000 
Q 1075 3975 925 3787 
Q 775 3600 775 3350 
z
" transform="scale(0.015625)"/>
       </defs>
       <use xlink:href="#SimHei-32"/>
       <use xlink:href="#SimHei-30" transform="translate(50 0)"/>
       <use xlink:href="#SimHei-32" transform="translate(100 0)"/>
       <use xlink:href="#SimHei-35" transform="translate(150 0)"/>
       <use xlink:href="#SimHei-2d" transform="translate(200 0)"/>
       <use xlink:href="#SimHei-30" transform="translate(250 0)"/>
       <use xlink:href="#SimHei-38" transform="translate(300 0)"/>
       <use xlink:href="#SimHei-2d" transform="translate(350 0)"/>
       <use xlink:href="#SimHei-30" transform="translate(400 0)"/>
       <use xlink:href="#SimHei-36" transform="translate(450 0)"/>
      </g>
     </g>
    </g>
    <g id="xtick_9">
     <g id="line2d_9">
      <g>
       <use xlink:href="#m1f33d5cd36" x="359.186774" y="467.6575" style="stroke: #000000; stroke-width: 0.8"/>
      </g>
     </g>
     <g id="text_9">
      <!-- 2025-08-14 -->
      <g transform="translate(346.635629 506.830859) rotate(-45) scale(0.08 -0.08)">
       <use xlink:href="#SimHei-32"/>
       <use xlink:href="#SimHei-30" transform="translate(50 0)"/>
       <use xlink:href="#SimHei-32" transform="translate(100 0)"/>
       <use xlink:href="#SimHei-35" transform="translate(150 0)"/>
       <use xlink:href="#SimHei-2d" transform="translate(200 0)"/>
       <use xlink:href="#SimHei-30" transform="translate(250 0)"/>
       <use xlink:href="#SimHei-38" transform="translate(300 0)"/>
       <use xlink:href="#SimHei-2d" transform="translate(350 0)"/>
       <use xlink:href="#SimHei-31" transform="translate(400 0)"/>
       <use xlink:href="#SimHei-34" transform="translate(450 0)"/>
      </g>
     </g>
    </g>
    <g id="xtick_10">
     <g id="line2d_10">
      <g>
       <use xlink:href="#m1f33d5cd36" x="394.838472" y="467.6575" style="stroke: #000000; stroke-width: 0.8"/>
      </g>
     </g>
     <g id="text_10">
      <!-- 2025-08-21 -->
      <g transform="translate(382.287327 506.830859) rotate(-45) scale(0.08 -0.08)">
       <use xlink:href="#SimHei-32"/>
       <use xlink:href="#SimHei-30" transform="translate(50 0)"/>
       <use xlink:href="#SimHei-32" transform="translate(100 0)"/>
       <use xlink:href="#SimHei-35" transform="translate(150 0)"/>
       <use xlink:href="#SimHei-2d" transform="translate(200 0)"/>
       <use xlink:href="#SimHei-30" transform="translate(250 0)"/>
       <use xlink:href="#SimHei-38" transform="translate(300 0)"/>
       <use xlink:href="#SimHei-2d" transform="translate(350 0)"/>
       <use xlink:href="#SimHei-32" transform="translate(400 0)"/>
       <use xlink:href="#SimHei-31" transform="translate(450 0)"/>
      </g>
     </g>
    </g>
    <g id="xtick_11">
     <g id="line2d_11">
      <g>
       <use xlink:href="#m1f33d5cd36" x="430.49017" y="467.6575" style="stroke: #000000; stroke-width: 0.8"/>
      </g>
     </g>
     <g id="text_11">
      <!-- 2025-08-28 -->
      <g transform="translate(417.939024 506.830859) rotate(-45) scale(0.08 -0.08)">
       <use xlink:href="#SimHei-32"/>
       <use xlink:href="#SimHei-30" transform="translate(50 0)"/>
       <use xlink:href="#SimHei-32" transform="translate(100 0)"/>
       <use xlink:href="#SimHei-35" transform="translate(150 0)"/>
       <use xlink:href="#SimHei-2d" transform="translate(200 0)"/>
       <use xlink:href="#SimHei-30" transform="translate(250 0)"/>
       <use xlink:href="#SimHei-38" transform="translate(300 0)"/>
       <use xlink:href="#SimHei-2d" transform="translate(350 0)"/>
       <use xlink:href="#SimHei-32" transform="translate(400 0)"/>
       <use xlink:href="#SimHei-38" transform="translate(450 0)"/>
      </g>
     </g>
    </g>
    <g id="xtick_12">
     <g id="line2d_12">
      <g>
       <use xlink:href="#m1f33d5cd36" x="466.141867" y="467.6575" style="stroke: #000000; stroke-width: 0.8"/>
      </g>
     </g>
     <g id="text_12">
      <!-- 2025-09-05 -->
      <g transform="translate(453.590722 506.830859) rotate(-45) scale(0.08 -0.08)">
       <use xlink:href="#SimHei-32"/>
       <use xlink:href="#SimHei-30" transform="translate(50 0)"/>
       <use xlink:href="#SimHei-32" transform="translate(100 0)"/>
       <use xlink:href="#SimHei-35" transform="translate(150 0)"/>
       <use xlink:href="#SimHei-2d" transform="translate(200 0)"/>
       <use xlink:href="#SimHei-30" transform="translate(250 0)"/>
       <use xlink:href="#SimHei-39" transform="translate(300 0)"/>
       <use xlink:href="#SimHei-2d" transform="translate(350 0)"/>
       <use xlink:href="#SimHei-30" transform="translate(400 0)"/>
       <use xlink:href="#SimHei-35" transform="translate(450 0)"/>
      </g>
     </g>
    </g>
    <g id="xtick_13">
     <g id="line2d_13">
      <g>
       <use xlink:href="#m1f33d5cd36" x="501.793565" y="467.6575" style="stroke: #000000; stroke-width: 0.8"/>
      </g>
     </g>
     <g id="text_13">
      <!-- 2025-09-19 -->
      <g transform="translate(489.24242 506.830859) rotate(-45) scale(0.08 -0.08)">
       <use xlink:href="#SimHei-32"/>
       <use xlink:href="#SimHei-30" transform="translate(50 0)"/>
       <use xlink:href="#SimHei-32" transform="translate(100 0)"/>
       <use xlink:href="#SimHei-35" transform="translate(150 0)"/>
       <use xlink:href="#SimHei-2d" transform="translate(200 0)"/>
       <use xlink:href="#SimHei-30" transform="translate(250 0)"/>
       <use xlink:href="#SimHei-39" transform="translate(300 0)"/>
       <use xlink:href="#SimHei-2d" transform="translate(350 0)"/>
       <use xlink:href="#SimHei-31" transform="translate(400 0)"/>
       <use xlink:href="#SimHei-39" transform="translate(450 0)"/>
      </g>
     </g>
    </g>
    <g id="xtick_14">
     <g id="line2d_14">
      <g>
       <use xlink:href="#m1f33d5cd36" x="537.445263" y="467.6575" style="stroke: #000000; stroke-width: 0.8"/>
      </g>
     </g>
     <g id="text_14">
      <!-- 2025-10-14 -->
      <g transform="translate(524.894118 506.830859) rotate(-45) scale(0.08 -0.08)">
       <use xlink:href="#SimHei-32"/>
       <use xlink:href="#SimHei-30" transform="translate(50 0)"/>
       <use xlink:href="#SimHei-32" transform="translate(100 0)"/>
       <use xlink:href="#SimHei-35" transform="translate(150 0)"/>
       <use xlink:href="#SimHei-2d" transform="translate(200 0)"/>
       <use xlink:href="#SimHei-31" transform="translate(250 0)"/>
       <use xlink:href="#SimHei-30" transform="translate(300 0)"/>
       <use xlink:href="#SimHei-2d" transform="translate(350 0)"/>
       <use xlink:href="#SimHei-31" transform="translate(400 0)"/>
       <use xlink:href="#SimHei-34" transform="translate(450 0)"/>
      </g>
     </g>
    </g>
    <g id="xtick_15">
     <g id="line2d_15">
      <g>
       <use xlink:href="#m1f33d5cd36" x="573.096961" y="467.6575" style="stroke: #000000; stroke-width: 0.8"/>
      </g>
     </g>
     <g id="text_15">
      <!-- 2025-10-22 -->
      <g transform="translate(560.545815 506.830859) rotate(-45) scale(0.08 -0.08)">
       <use xlink:href="#SimHei-32"/>
       <use xlink:href="#SimHei-30" transform="translate(50 0)"/>
       <use xlink:href="#SimHei-32" transform="translate(100 0)"/>
       <use xlink:href="#SimHei-35" transform="translate(150 0)"/>
       <use xlink:href="#SimHei-2d" transform="translate(200 0)"/>
       <use xlink:href="#SimHei-31" transform="translate(250 0)"/>
       <use xlink:href="#SimHei-30" transform="translate(300 0)"/>
       <use xlink:href="#SimHei-2d" transform="translate(350 0)"/>
       <use xlink:href="#SimHei-32" transform="translate(400 0)"/>
       <use xlink:href="#SimHei-32" transform="translate(450 0)"/>
      </g>
     </g>
    </g>
    <g id="xtick_16">
     <g id="line2d_16">
      <g>
       <use xlink:href="#m1f33d5cd36" x="608.748658" y="467.6575" style="stroke: #000000; stroke-width: 0.8"/>
      </g>
     </g>
     <g id="text_16">
      <!-- 2025-11-04 -->
      <g transform="translate(596.197513 506.830859) rotate(-45) scale(0.08 -0.08)">
       <use xlink:href="#SimHei-32"/>
       <use xlink:href="#SimHei-30" transform="translate(50 0)"/>
       <use xlink:href="#SimHei-32" transform="translate(100 0)"/>
       <use xlink:href="#SimHei-35" transform="translate(150 0)"/>
       <use xlink:href="#SimHei-2d" transform="translate(200 0)"/>
       <use xlink:href="#SimHei-31" transform="translate(250 0)"/>
       <use xlink:href="#SimHei-31" transform="translate(300 0)"/>
       <use xlink:href="#SimHei-2d" transform="translate(350 0)"/>
       <use xlink:href="#SimHei-30" transform="translate(400 0)"/>
       <use xlink:href="#SimHei-34" transform="translate(450 0)"/>
      </g>
     </g>
    </g>
    <g id="xtick_17">
     <g id="line2d_17">
      <g>
       <use xlink:href="#m1f33d5cd36" x="644.400356" y="467.6575" style="stroke: #000000; stroke-width: 0.8"/>
      </g>
     </g>
     <g id="text_17">
      <!-- 2025-11-13 -->
      <g transform="translate(631.849211 506.830859) rotate(-45) scale(0.08 -0.08)">
       <use xlink:href="#SimHei-32"/>
       <use xlink:href="#SimHei-30" transform="translate(50 0)"/>
       <use xlink:href="#SimHei-32" transform="translate(100 0)"/>
       <use xlink:href="#SimHei-35" transform="translate(150 0)"/>
       <use xlink:href="#SimHei-2d" transform="translate(200 0)"/>
       <use xlink:href="#SimHei-31" transform="translate(250 0)"/>
       <use xlink:href="#SimHei-31" transform="translate(300 0)"/>
       <use xlink:href="#SimHei-2d" transform="translate(350 0)"/>
       <use xlink:href="#SimHei-31" transform="translate(400 0)"/>
       <use xlink:href="#SimHei-33" transform="translate(450 0)"/>
      </g>
     </g>
    </g>
    <g id="xtick_18">
     <g id="line2d_18">
      <g>
       <use xlink:href="#m1f33d5cd36" x="680.052054" y="467.6575" style="stroke: #000000; stroke-width: 0.8"/>
      </g>
     </g>
     <g id="text_18">
      <!-- 2025-11-20 -->
      <g transform="translate(667.500908 506.830859) rotate(-45) scale(0.08 -0.08)">
       <use xlink:href="#SimHei-32"/>
       <use xlink:href="#SimHei-30" transform="translate(50 0)"/>
       <use xlink:href="#SimHei-32" transform="translate(100 0)"/>
       <use xlink:href="#SimHei-35" transform="translate(150 0)"/>
       <use xlink:href="#SimHei-2d" transform="translate(200 0)"/>
       <use xlink:href="#SimHei-31" transform="translate(250 0)"/>
       <use xlink:href="#SimHei-31" transform="translate(300 0)"/>
       <use xlink:href="#SimHei-2d" transform="translate(350 0)"/>
       <use xlink:href="#SimHei-32" transform="translate(400 0)"/>
       <use xlink:href="#SimHei-30" transform="translate(450 0)"/>
      </g>
     </g>
    </g>
    <g id="xtick_19">
     <g id="line2d_19">
      <g>
       <use xlink:href="#m1f33d5cd36" x="715.703751" y="467.6575" style="stroke: #000000; stroke-width: 0.8"/>
      </g>
     </g>
     <g id="text_19">
      <!-- 2025-12-05 -->
      <g transform="translate(703.152606 506.830859) rotate(-45) scale(0.08 -0.08)">
       <use xlink:href="#SimHei-32"/>
       <use xlink:href="#SimHei-30" transform="translate(50 0)"/>
       <use xlink:href="#SimHei-32" transform="translate(100 0)"/>
       <use xlink:href="#SimHei-35" transform="translate(150 0)"/>
       <use xlink:href="#SimHei-2d" transform="translate(200 0)"/>
       <use xlink:href="#SimHei-31" transform="translate(250 0)"/>
       <use xlink:href="#SimHei-32" transform="translate(300 0)"/>
       <use xlink:href="#SimHei-2d" transform="translate(350 0)"/>
       <use xlink:href="#SimHei-30" transform="translate(400 0)"/>
       <use xlink:href="#SimHei-35" transform="translate(450 0)"/>
      </g>
     </g>
    </g>
    <g id="xtick_20">
     <g id="line2d_20">
      <g>
       <use xlink:href="#m1f33d5cd36" x="751.355449" y="467.6575" style="stroke: #000000; stroke-width: 0.8"/>
      </g>
     </g>
     <g id="text_20">
      <!-- 2025-12-15 -->
      <g transform="translate(738.804304 506.830859) rotate(-45) scale(0.08 -0.08)">
       <use xlink:href="#SimHei-32"/>
       <use xlink:href="#SimHei-30" transform="translate(50 0)"/>
       <use xlink:href="#SimHei-32" transform="translate(100 0)"/>
       <use xlink:href="#SimHei-35" transform="translate(150 0)"/>
       <use xlink:href="#SimHei-2d" transform="translate(200 0)"/>
       <use xlink:href="#SimHei-31" transform="translate(250 0)"/>
       <use xlink:href="#SimHei-32" transform="translate(300 0)"/>
       <use xlink:href="#SimHei-2d" transform="translate(350 0)"/>
       <use xlink:href="#SimHei-31" transform="translate(400 0)"/>
       <use xlink:href="#SimHei-35" transform="translate(450 0)"/>
      </g>
     </g>
    </g>
   </g>
   <g id="matplotlib.axis_2">
    <g id="ytick_1">
     <g id="line2d_21">
      <defs>
       <path id="m3f9295279e" d="M 0 0 
L -3.5 0 
" style="stroke: #000000; stroke-width: 0.8"/>
      </defs>
      <g>
       <use xlink:href="#m3f9295279e" x="36.325" y="425.842257" style="stroke: #000000; stroke-width: 0.8"/>
      </g>
     </g>
     <g id="text_21">
      <!-- 16 -->
      <g transform="translate(19.325 429.279757) scale(0.1 -0.1)">
       <use xlink:href="#SimHei-31"/>
       <use xlink:href="#SimHei-36" transform="translate(50 0)"/>
      </g>
     </g>
    </g>
    <g id="ytick_2">
     <g id="line2d_22">
      <g>
       <use xlink:href="#m3f9295279e" x="36.325" y="374.282155" style="stroke: #000000; stroke-width: 0.8"/>
      </g>
     </g>
     <g id="text_22">
      <!-- 17 -->
      <g transform="translate(19.325 377.719655) scale(0.1 -0.1)">
       <use xlink:href="#SimHei-31"/>
       <use xlink:href="#SimHei-37" transform="translate(50 0)"/>
      </g>
     </g>
    </g>
    <g id="ytick_3">
     <g id="line2d_23">
      <g>
       <use xlink:href="#m3f9295279e" x="36.325" y="322.722052" style="stroke: #000000; stroke-width: 0.8"/>
      </g>
     </g>
     <g id="text_23">
      <!-- 18 -->
      <g transform="translate(19.325 326.159552) scale(0.1 -0.1)">
       <use xlink:href="#SimHei-31"/>
       <use xlink:href="#SimHei-38" transform="translate(50 0)"/>
      </g>
     </g>
    </g>
    <g id="ytick_4">
     <g id="line2d_24">
      <g>
       <use xlink:href="#m3f9295279e" x="36.325" y="271.16195" style="stroke: #000000; stroke-width: 0.8"/>
      </g>
     </g>
     <g id="text_24">
      <!-- 19 -->
      <g transform="translate(19.325 274.59945) scale(0.1 -0.1)">
       <use xlink:href="#SimHei-31"/>
       <use xlink:href="#SimHei-39" transform="translate(50 0)"/>
      </g>
     </g>
    </g>
    <g id="ytick_5">
     <g id="line2d_25">
      <g>
       <use xlink:href="#m3f9295279e" x="36.325" y="219.601848" style="stroke: #000000; stroke-width: 0.8"/>
      </g>
     </g>
     <g id="text_25">
      <!-- 20 -->
      <g transform="translate(19.325 223.039348) scale(0.1 -0.1)">
       <use xlink:href="#SimHei-32"/>
       <use xlink:href="#SimHei-30" transform="translate(50 0)"/>
      </g>
     </g>
    </g>
    <g id="ytick_6">
     <g id="line2d_26">
      <g>
       <use xlink:href="#m3f9295279e" x="36.325" y="168.041746" style="stroke: #000000; stroke-width: 0.8"/>
      </g>
     </g>
     <g id="text_26">
      <!-- 21 -->
      <g transform="translate(19.325 171.479246) scale(0.1 -0.1)">
       <use xlink:href="#SimHei-32"/>
       <use xlink:href="#SimHei-31" transform="translate(50 0)"/>
      </g>
     </g>
    </g>
    <g id="ytick_7">
     <g id="line2d_27">
      <g>
       <use xlink:href="#m3f9295279e" x="36.325" y="116.481643" style="stroke: #000000; stroke-width: 0.8"/>
      </g>
     </g>
     <g id="text_27">
      <!-- 22 -->
      <g transform="translate(19.325 119.919143) scale(0.1 -0.1)">
       <use xlink:href="#SimHei-32"/>
       <use xlink:href="#SimHei-32" transform="translate(50 0)"/>
      </g>
     </g>
    </g>
    <g id="ytick_8">
     <g id="line2d_28">
      <g>
       <use xlink:href="#m3f9295279e" x="36.325" y="64.921541" style="stroke: #000000; stroke-width: 0.8"/>
      </g>
     </g>
     <g id="text_28">
      <!-- 23 -->
      <g transform="translate(19.325 68.359041) scale(0.1 -0.1)">
       <use xlink:href="#SimHei-32"/>
       <use xlink:href="#SimHei-33" transform="translate(50 0)"/>
      </g>
     </g>
    </g>
    <g id="text_29">
     <!-- Price -->
     <g transform="translate(14.075 258.3975) rotate(-90) scale(0.1 -0.1)">
      <defs>
       <path id="SimHei-50" d="M 2950 3100 
Q 2950 2500 2600 2150 
Q 2250 1800 1625 1800 
L 900 1800 
L 900 125 
L 325 125 
L 325 4400 
L 1625 4400 
Q 2250 4400 2600 4050 
Q 2950 3700 2950 3100 
z
M 2375 3100 
Q 2375 3575 2150 3750 
Q 1925 3925 1475 3925 
L 900 3925 
L 900 2275 
L 1475 2275 
Q 1925 2275 2150 2450 
Q 2375 2625 2375 3100 
z
" transform="scale(0.015625)"/>
       <path id="SimHei-72" d="M 2500 2425 
Q 2025 2500 1700 2287 
Q 1375 2075 1150 1550 
L 1150 125 
L 650 125 
L 650 2925 
L 1150 2925 
L 1150 2200 
Q 1375 2600 1712 2787 
Q 2050 2975 2500 2975 
L 2500 2425 
z
" transform="scale(0.015625)"/>
       <path id="SimHei-69" d="M 1800 3725 
L 1300 3725 
L 1300 4375 
L 1800 4375 
L 1800 3725 
z
M 1800 125 
L 1300 125 
L 1300 2925 
L 1800 2925 
L 1800 125 
z
" transform="scale(0.015625)"/>
       <path id="SimHei-63" d="M 2850 1250 
Q 2850 725 2487 400 
Q 2125 75 1575 75 
Q 1025 75 625 462 
Q 225 850 225 1525 
Q 225 2200 625 2587 
Q 1025 2975 1575 2975 
Q 2125 2975 2450 2687 
Q 2775 2400 2775 2000 
L 2225 2000 
Q 2200 2300 2012 2412 
Q 1825 2525 1575 2525 
Q 1275 2525 1025 2287 
Q 775 2050 775 1525 
Q 775 1000 1025 762 
Q 1275 525 1575 525 
Q 1900 525 2100 700 
Q 2300 875 2300 1250 
L 2850 1250 
z
" transform="scale(0.015625)"/>
       <path id="SimHei-65" d="M 2850 1075 
Q 2800 625 2450 350 
Q 2100 75 1625 75 
Q 1025 75 637 462 
Q 250 850 250 1525 
Q 250 2200 637 2587 
Q 1025 2975 1625 2975 
Q 2150 2975 2487 2637 
Q 2825 2300 2825 1525 
L 800 1525 
Q 800 975 1037 750 
Q 1275 525 1625 525 
Q 1900 525 2075 662 
Q 2250 800 2300 1075 
L 2850 1075 
z
M 2250 1925 
Q 2200 2275 2025 2412 
Q 1850 2550 1575 2550 
Q 1325 2550 1125 2412 
Q 925 2275 825 1925 
L 2250 1925 
z
" transform="scale(0.015625)"/>
      </defs>
      <use xlink:href="#SimHei-50"/>
      <use xlink:href="#SimHei-72" transform="translate(50 0)"/>
      <use xlink:href="#SimHei-69" transform="translate(100 0)"/>
      <use xlink:href="#SimHei-63" transform="translate(150 0)"/>
      <use xlink:href="#SimHei-65" transform="translate(200 0)"/>
     </g>
    </g>
   </g>
   <g id="line2d_29">
    <path d="M 195.188965 309.832027 
L 287.883379 101.013613 
" clip-path="url(#pbb407e189c)" style="fill: none; stroke: #800080; stroke-opacity: 0.8; stroke-width: 1.5; stroke-linecap: square"/>
   </g>
   <g id="line2d_30">
    <path d="M 352.056435 291.785991 
L 416.229491 44.2975 
" clip-path="url(#pbb407e189c)" style="fill: none; stroke: #800080; stroke-opacity: 0.8; stroke-width: 1.5; stroke-linecap: square"/>
   </g>
   <g id="line2d_31">
    <path d="M 687.182393 447.4975 
L 765.616128 386.656579 
" clip-path="url(#pbb407e189c)" style="fill: none; stroke: #800080; stroke-opacity: 0.8; stroke-width: 1.5; stroke-linecap: square"/>
   </g>
   <g id="patch_203">
    <path d="M 36.325 467.6575 
L 36.325 24.1375 
" style="fill: none; stroke: #000000; stroke-width: 0.8; stroke-linejoin: miter; stroke-linecap: square"/>
   </g>
   <g id="patch_204">
    <path d="M 817.525 467.6575 
L 817.525 24.1375 
" style="fill: none; stroke: #000000; stroke-width: 0.8; stroke-linejoin: miter; stroke-linecap: square"/>
   </g>
   <g id="patch_205">
    <path d="M 36.325 467.6575 
L 817.525 467.6575 
" style="fill: none; stroke: #000000; stroke-width: 0.8; stroke-linejoin: miter; stroke-linecap: square"/>
   </g>
   <g id="patch_206">
    <path d="M 36.325 24.1375 
L 817.525 24.1375 
" style="fill: none; stroke: #000000; stroke-width: 0.8; stroke-linejoin: miter; stroke-linecap: square"/>
   </g>
   <g id="text_30">
    <!-- Tx -->
    <g style="fill: #808080" transform="translate(83.242634 270.698425) scale(0.08 -0.08)">
     <defs>
      <path id="SimHei-54" d="M 2850 3925 
L 1850 3925 
L 1850 125 
L 1275 125 
L 1275 3925 
L 275 3925 
L 275 4400 
L 2850 4400 
L 2850 3925 
z
" transform="scale(0.015625)"/>
      <path id="SimHei-78" d="M 2875 125 
L 2275 125 
L 1550 1200 
L 825 125 
L 225 125 
L 1250 1550 
L 300 2925 
L 900 2925 
L 1550 1875 
L 2200 2925 
L 2800 2925 
L 1850 1550 
L 2875 125 
z
" transform="scale(0.015625)"/>
     </defs>
     <use xlink:href="#SimHei-54"/>
     <use xlink:href="#SimHei-78" transform="translate(50 0)"/>
    </g>
   </g>
   <g id="text_31">
    <!-- Tx -->
    <g style="fill: #808080" transform="translate(133.155011 212.377246) scale(0.08 -0.08)">
     <use xlink:href="#SimHei-54"/>
     <use xlink:href="#SimHei-78" transform="translate(50 0)"/>
    </g>
   </g>
   <g id="text_32">
    <!-- T 22.08 -->
    <g transform="translate(168.806709 111.218388) scale(0.08 -0.08)">
     <defs>
      <path id="SimHei-20" transform="scale(0.015625)"/>
      <path id="SimHei-2e" d="M 1075 125 
L 500 125 
L 500 675 
L 1075 675 
L 1075 125 
z
" transform="scale(0.015625)"/>
     </defs>
     <use xlink:href="#SimHei-54"/>
     <use xlink:href="#SimHei-20" transform="translate(50 0)"/>
     <use xlink:href="#SimHei-32" transform="translate(100 0)"/>
     <use xlink:href="#SimHei-32" transform="translate(150 0)"/>
     <use xlink:href="#SimHei-2e" transform="translate(200 0)"/>
     <use xlink:href="#SimHei-30" transform="translate(250 0)"/>
     <use xlink:href="#SimHei-38" transform="translate(300 0)"/>
    </g>
   </g>
   <g id="text_33">
    <!-- B 18.25 -->
    <g style="fill: #0000ff" transform="translate(197.328067 311.713971) scale(0.08 -0.08)">
     <defs>
      <path id="SimHei-42" d="M 2950 1400 
Q 2950 675 2550 400 
Q 2150 125 1525 125 
L 275 125 
L 275 4400 
L 1575 4400 
Q 2200 4400 2512 4075 
Q 2825 3750 2825 3300 
Q 2825 2850 2612 2637 
Q 2400 2425 2175 2350 
Q 2475 2275 2712 2037 
Q 2950 1800 2950 1400 
z
M 2250 3300 
Q 2250 3625 2062 3775 
Q 1875 3925 1600 3925 
L 850 3925 
L 850 2600 
L 1575 2600 
Q 1850 2600 2050 2762 
Q 2250 2925 2250 3300 
z
M 2350 1400 
Q 2350 1800 2087 1962 
Q 1825 2125 1500 2125 
L 850 2125 
L 850 600 
L 1425 600 
Q 1875 600 2112 775 
Q 2350 950 2350 1400 
z
" transform="scale(0.015625)"/>
     </defs>
     <use xlink:href="#SimHei-42"/>
     <use xlink:href="#SimHei-20" transform="translate(50 0)"/>
     <use xlink:href="#SimHei-31" transform="translate(100 0)"/>
     <use xlink:href="#SimHei-38" transform="translate(150 0)"/>
     <use xlink:href="#SimHei-2e" transform="translate(200 0)"/>
     <use xlink:href="#SimHei-32" transform="translate(250 0)"/>
     <use xlink:href="#SimHei-35" transform="translate(300 0)"/>
    </g>
   </g>
   <g id="text_34">
    <!-- Tx -->
    <g style="fill: #808080" transform="translate(204.458406 230.441328) scale(0.08 -0.08)">
     <use xlink:href="#SimHei-54"/>
     <use xlink:href="#SimHei-78" transform="translate(50 0)"/>
    </g>
   </g>
   <g id="text_35">
    <!-- Tx -->
    <g style="fill: #808080" transform="translate(254.370783 141.153152) scale(0.08 -0.08)">
     <use xlink:href="#SimHei-54"/>
     <use xlink:href="#SimHei-78" transform="translate(50 0)"/>
    </g>
   </g>
   <g id="text_36">
    <!-- Bx -->
    <g style="fill: #808080" transform="translate(268.631462 215.489414) scale(0.08 -0.08)">
     <use xlink:href="#SimHei-42"/>
     <use xlink:href="#SimHei-78" transform="translate(50 0)"/>
    </g>
   </g>
   <g id="text_37">
    <!-- T 22.30 -->
    <g transform="translate(290.022481 99.863822) scale(0.08 -0.08)">
     <use xlink:href="#SimHei-54"/>
     <use xlink:href="#SimHei-20" transform="translate(50 0)"/>
     <use xlink:href="#SimHei-32" transform="translate(100 0)"/>
     <use xlink:href="#SimHei-32" transform="translate(150 0)"/>
     <use xlink:href="#SimHei-2e" transform="translate(200 0)"/>
     <use xlink:href="#SimHei-33" transform="translate(250 0)"/>
     <use xlink:href="#SimHei-30" transform="translate(300 0)"/>
    </g>
   </g>
   <g id="text_38">
    <!-- B 18.60 -->
    <g style="fill: #0000ff" transform="translate(354.195537 293.704027) scale(0.08 -0.08)">
     <use xlink:href="#SimHei-42"/>
     <use xlink:href="#SimHei-20" transform="translate(50 0)"/>
     <use xlink:href="#SimHei-31" transform="translate(100 0)"/>
     <use xlink:href="#SimHei-38" transform="translate(150 0)"/>
     <use xlink:href="#SimHei-2e" transform="translate(200 0)"/>
     <use xlink:href="#SimHei-36" transform="translate(250 0)"/>
     <use xlink:href="#SimHei-30" transform="translate(300 0)"/>
    </g>
   </g>
   <g id="text_39">
    <!-- Tx -->
    <g style="fill: #808080" transform="translate(361.325876 229.925212) scale(0.08 -0.08)">
     <use xlink:href="#SimHei-54"/>
     <use xlink:href="#SimHei-78" transform="translate(50 0)"/>
    </g>
   </g>
   <g id="text_40">
    <!-- Tx -->
    <g style="fill: #808080" transform="translate(382.716895 192.248698) scale(0.08 -0.08)">
     <use xlink:href="#SimHei-54"/>
     <use xlink:href="#SimHei-78" transform="translate(50 0)"/>
    </g>
   </g>
   <g id="text_41">
    <!-- Bx -->
    <g style="fill: #808080" transform="translate(389.847234 232.984788) scale(0.08 -0.08)">
     <use xlink:href="#SimHei-42"/>
     <use xlink:href="#SimHei-78" transform="translate(50 0)"/>
    </g>
   </g>
   <g id="text_42">
    <!-- Tx -->
    <g style="fill: #808080" transform="translate(396.977574 120.508487) scale(0.08 -0.08)">
     <use xlink:href="#SimHei-54"/>
     <use xlink:href="#SimHei-78" transform="translate(50 0)"/>
    </g>
   </g>
   <g id="text_43">
    <!-- T 23.40 -->
    <g transform="translate(418.368593 43.090994) scale(0.08 -0.08)">
     <use xlink:href="#SimHei-54"/>
     <use xlink:href="#SimHei-20" transform="translate(50 0)"/>
     <use xlink:href="#SimHei-32" transform="translate(100 0)"/>
     <use xlink:href="#SimHei-33" transform="translate(150 0)"/>
     <use xlink:href="#SimHei-2e" transform="translate(200 0)"/>
     <use xlink:href="#SimHei-34" transform="translate(250 0)"/>
     <use xlink:href="#SimHei-30" transform="translate(300 0)"/>
    </g>
   </g>
   <g id="text_44">
    <!-- Bx -->
    <g style="fill: #808080" transform="translate(468.280969 241.217905) scale(0.08 -0.08)">
     <use xlink:href="#SimHei-42"/>
     <use xlink:href="#SimHei-78" transform="translate(50 0)"/>
    </g>
   </g>
   <g id="text_45">
    <!-- Tx -->
    <g style="fill: #808080" transform="translate(475.411309 185.023065) scale(0.08 -0.08)">
     <use xlink:href="#SimHei-54"/>
     <use xlink:href="#SimHei-78" transform="translate(50 0)"/>
    </g>
   </g>
   <g id="text_46">
    <!-- Bx -->
    <g style="fill: #808080" transform="translate(489.671988 259.227849) scale(0.08 -0.08)">
     <use xlink:href="#SimHei-42"/>
     <use xlink:href="#SimHei-78" transform="translate(50 0)"/>
    </g>
   </g>
   <g id="text_47">
    <!-- Bx -->
    <g style="fill: #808080" transform="translate(532.454025 360.598104) scale(0.08 -0.08)">
     <use xlink:href="#SimHei-42"/>
     <use xlink:href="#SimHei-78" transform="translate(50 0)"/>
    </g>
   </g>
   <g id="text_48">
    <!-- Tx -->
    <g style="fill: #808080" transform="translate(596.627081 297.536489) scale(0.08 -0.08)">
     <use xlink:href="#SimHei-54"/>
     <use xlink:href="#SimHei-78" transform="translate(50 0)"/>
    </g>
   </g>
   <g id="text_49">
    <!-- Bx -->
    <g style="fill: #808080" transform="translate(618.0181 363.170953) scale(0.08 -0.08)">
     <use xlink:href="#SimHei-42"/>
     <use xlink:href="#SimHei-78" transform="translate(50 0)"/>
    </g>
   </g>
   <g id="text_50">
    <!-- Bx -->
    <g style="fill: #808080" transform="translate(639.409118 418.744493) scale(0.08 -0.08)">
     <use xlink:href="#SimHei-42"/>
     <use xlink:href="#SimHei-78" transform="translate(50 0)"/>
    </g>
   </g>
   <g id="text_51">
    <!-- B 15.58 -->
    <g style="fill: #0000ff" transform="translate(689.321495 449.104113) scale(0.08 -0.08)">
     <use xlink:href="#SimHei-42"/>
     <use xlink:href="#SimHei-20" transform="translate(50 0)"/>
     <use xlink:href="#SimHei-31" transform="translate(100 0)"/>
     <use xlink:href="#SimHei-35" transform="translate(150 0)"/>
     <use xlink:href="#SimHei-2e" transform="translate(200 0)"/>
     <use xlink:href="#SimHei-35" transform="translate(250 0)"/>
     <use xlink:href="#SimHei-38" transform="translate(300 0)"/>
    </g>
   </g>
   <g id="text_52">
    <!-- Tx -->
    <g style="fill: #808080" transform="translate(724.973193 389.921365) scale(0.08 -0.08)">
     <use xlink:href="#SimHei-54"/>
     <use xlink:href="#SimHei-78" transform="translate(50 0)"/>
    </g>
   </g>
   <g id="text_53">
    <!-- Bx -->
    <g style="fill: #808080" transform="translate(732.103532 419.259063) scale(0.08 -0.08)">
     <use xlink:href="#SimHei-42"/>
     <use xlink:href="#SimHei-78" transform="translate(50 0)"/>
    </g>
   </g>
   <g id="text_54">
    <!-- Bx -->
    <g style="fill: #808080" transform="translate(760.62489 430.065029) scale(0.08 -0.08)">
     <use xlink:href="#SimHei-42"/>
     <use xlink:href="#SimHei-78" transform="translate(50 0)"/>
    </g>
   </g>
   <g id="text_55">
    <!-- T 16.76 -->
    <g transform="translate(767.75523 385.792432) scale(0.08 -0.08)">
     <use xlink:href="#SimHei-54"/>
     <use xlink:href="#SimHei-20" transform="translate(50 0)"/>
     <use xlink:href="#SimHei-31" transform="translate(100 0)"/>
     <use xlink:href="#SimHei-36" transform="translate(150 0)"/>
     <use xlink:href="#SimHei-2e" transform="translate(200 0)"/>
     <use xlink:href="#SimHei-37" transform="translate(250 0)"/>
     <use xlink:href="#SimHei-36" transform="translate(300 0)"/>
    </g>
   </g>
   <g id="text_56">
    <!-- Stroke Identification (Bill Williams / Chan Theory) -->
    <g transform="translate(248.425 18.1375) scale(0.14 -0.14)">
     <defs>
      <path id="SimHei-53" d="M 2900 1325 
Q 2900 750 2537 412 
Q 2175 75 1550 75 
Q 925 75 575 425 
Q 225 775 225 1300 
L 225 1475 
L 800 1475 
L 800 1325 
Q 800 950 1025 750 
Q 1250 550 1550 550 
Q 1950 550 2137 762 
Q 2325 975 2325 1275 
Q 2325 1525 2100 1737 
Q 1875 1950 1450 2125 
Q 850 2350 587 2625 
Q 325 2900 325 3275 
Q 325 3800 687 4125 
Q 1050 4450 1550 4450 
Q 2200 4450 2487 4062 
Q 2775 3675 2775 3225 
L 2200 3225 
Q 2225 3500 2050 3725 
Q 1875 3950 1550 3950 
Q 1250 3950 1075 3787 
Q 900 3625 900 3350 
Q 900 3125 1037 2962 
Q 1175 2800 1750 2575 
Q 2300 2350 2600 2037 
Q 2900 1725 2900 1325 
z
" transform="scale(0.015625)"/>
      <path id="SimHei-74" d="M 2750 200 
Q 2625 150 2462 112 
Q 2300 75 2025 75 
Q 1575 75 1300 325 
Q 1025 575 1025 1025 
L 1025 2525 
L 175 2525 
L 175 2925 
L 1025 2925 
L 1025 3900 
L 1525 3900 
L 1525 2925 
L 2550 2925 
L 2550 2525 
L 1525 2525 
L 1525 1000 
Q 1525 800 1625 662 
Q 1725 525 2000 525 
Q 2275 525 2450 575 
Q 2625 625 2750 700 
L 2750 200 
z
" transform="scale(0.015625)"/>
      <path id="SimHei-6f" d="M 2925 1525 
Q 2925 875 2525 475 
Q 2125 75 1575 75 
Q 1025 75 625 475 
Q 225 875 225 1525 
Q 225 2175 625 2575 
Q 1025 2975 1575 2975 
Q 2125 2975 2525 2575 
Q 2925 2175 2925 1525 
z
M 2375 1525 
Q 2375 2025 2125 2275 
Q 1875 2525 1575 2525 
Q 1275 2525 1025 2275 
Q 775 2025 775 1525 
Q 775 1025 1025 775 
Q 1275 525 1575 525 
Q 1875 525 2125 775 
Q 2375 1025 2375 1525 
z
" transform="scale(0.015625)"/>
      <path id="SimHei-6b" d="M 2925 125 
L 2350 125 
L 1450 1650 
L 875 1100 
L 875 125 
L 375 125 
L 375 4400 
L 875 4400 
L 875 1675 
L 2125 2925 
L 2750 2925 
L 1775 1975 
L 2925 125 
z
" transform="scale(0.015625)"/>
      <path id="SimHei-49" d="M 1850 125 
L 1275 125 
L 1275 4400 
L 1850 4400 
L 1850 125 
z
" transform="scale(0.015625)"/>
      <path id="SimHei-64" d="M 2750 125 
L 2250 125 
L 2250 500 
Q 2100 275 1900 175 
Q 1700 75 1425 75 
Q 925 75 575 437 
Q 225 800 225 1525 
Q 225 2250 575 2625 
Q 925 3000 1425 3000 
Q 1700 3000 1900 2887 
Q 2100 2775 2250 2550 
L 2250 4400 
L 2750 4400 
L 2750 125 
z
M 2250 1525 
Q 2250 2000 2037 2275 
Q 1825 2550 1525 2550 
Q 1150 2550 962 2275 
Q 775 2000 775 1525 
Q 775 1050 962 787 
Q 1150 525 1525 525 
Q 1825 525 2037 787 
Q 2250 1050 2250 1525 
z
" transform="scale(0.015625)"/>
      <path id="SimHei-6e" d="M 2800 125 
L 2300 125 
L 2300 1925 
Q 2300 2225 2150 2400 
Q 2000 2575 1750 2575 
Q 1425 2575 1137 2237 
Q 850 1900 850 1400 
L 850 125 
L 350 125 
L 350 2925 
L 850 2925 
L 850 2400 
Q 1050 2675 1287 2825 
Q 1525 2975 1900 2975 
Q 2350 2975 2575 2725 
Q 2800 2475 2800 2100 
L 2800 125 
z
" transform="scale(0.015625)"/>
      <path id="SimHei-66" d="M 2850 3825 
Q 2725 3900 2550 3950 
Q 2375 4000 2100 4000 
Q 1825 4000 1725 3862 
Q 1625 3725 1625 3525 
L 1625 2925 
L 2650 2925 
L 2650 2525 
L 1625 2525 
L 1625 125 
L 1125 125 
L 1125 2525 
L 275 2525 
L 275 2925 
L 1125 2925 
L 1125 3500 
Q 1125 3950 1400 4200 
Q 1675 4450 2125 4450 
Q 2400 4450 2562 4412 
Q 2725 4375 2850 4325 
L 2850 3825 
z
" transform="scale(0.015625)"/>
      <path id="SimHei-61" d="M 2875 125 
L 2275 125 
Q 2225 175 2200 262 
Q 2175 350 2175 475 
Q 2000 275 1750 175 
Q 1500 75 1225 75 
Q 825 75 550 275 
Q 275 475 275 850 
Q 275 1225 525 1450 
Q 775 1675 1300 1750 
Q 1650 1800 1912 1875 
Q 2175 1950 2175 2075 
Q 2175 2225 2062 2375 
Q 1950 2525 1575 2525 
Q 1275 2525 1137 2412 
Q 1000 2300 950 2100 
L 400 2100 
Q 450 2500 762 2737 
Q 1075 2975 1575 2975 
Q 2125 2975 2400 2725 
Q 2675 2475 2675 2025 
L 2675 650 
Q 2675 500 2725 375 
Q 2775 250 2875 125 
z
M 2175 1050 
L 2175 1550 
Q 2025 1500 1887 1462 
Q 1750 1425 1425 1375 
Q 1050 1325 937 1200 
Q 825 1075 825 900 
Q 825 750 937 637 
Q 1050 525 1275 525 
Q 1500 525 1762 650 
Q 2025 775 2175 1050 
z
" transform="scale(0.015625)"/>
      <path id="SimHei-28" d="M 2975 -200 
L 2700 -475 
Q 2075 125 1762 775 
Q 1450 1425 1450 2250 
Q 1450 3075 1762 3725 
Q 2075 4375 2700 5000 
L 2975 4725 
Q 2400 4175 2112 3587 
Q 1825 3000 1825 2250 
Q 1825 1500 2112 912 
Q 2400 325 2975 -200 
z
" transform="scale(0.015625)"/>
      <path id="SimHei-6c" d="M 1825 125 
L 1325 125 
L 1325 4400 
L 1825 4400 
L 1825 125 
z
" transform="scale(0.015625)"/>
      <path id="SimHei-57" d="M 3075 4400 
L 2525 75 
L 2025 75 
L 1575 3275 
L 1525 3275 
L 1075 75 
L 575 75 
L 25 4400 
L 575 4400 
L 850 1675 
L 900 1675 
L 1275 4400 
L 1825 4400 
L 2200 1675 
L 2250 1675 
L 2525 4400 
L 3075 4400 
z
" transform="scale(0.015625)"/>
      <path id="SimHei-6d" d="M 3050 125 
L 2550 125 
L 2550 2150 
Q 2550 2300 2500 2400 
Q 2450 2500 2300 2500 
Q 2125 2500 1975 2312 
Q 1825 2125 1825 1825 
L 1825 125 
L 1325 125 
L 1325 2150 
Q 1325 2300 1275 2400 
Q 1225 2500 1075 2500 
Q 900 2500 750 2312 
Q 600 2125 600 1825 
L 600 125 
L 100 125 
L 100 2925 
L 600 2925 
L 600 2550 
Q 725 2750 900 2862 
Q 1075 2975 1275 2975 
Q 1475 2975 1612 2862 
Q 1750 2750 1800 2550 
Q 1925 2750 2087 2862 
Q 2250 2975 2450 2975 
Q 2750 2975 2900 2812 
Q 3050 2650 3050 2350 
L 3050 125 
z
" transform="scale(0.015625)"/>
      <path id="SimHei-73" d="M 2750 900 
Q 2750 500 2437 287 
Q 2125 75 1650 75 
Q 1050 75 725 312 
Q 400 550 400 1000 
L 900 1000 
Q 900 700 1112 600 
Q 1325 500 1625 500 
Q 1925 500 2075 612 
Q 2225 725 2225 900 
Q 2225 1025 2100 1150 
Q 1975 1275 1475 1350 
Q 900 1425 687 1637 
Q 475 1850 475 2200 
Q 475 2500 762 2737 
Q 1050 2975 1600 2975 
Q 2100 2975 2387 2750 
Q 2675 2525 2675 2150 
L 2175 2150 
Q 2175 2375 2012 2462 
Q 1850 2550 1600 2550 
Q 1275 2550 1137 2437 
Q 1000 2325 1000 2175 
Q 1000 2000 1125 1900 
Q 1250 1800 1650 1750 
Q 2300 1650 2525 1437 
Q 2750 1225 2750 900 
z
" transform="scale(0.015625)"/>
      <path id="SimHei-2f" d="M 3000 4550 
L 350 -175 
L 100 -25 
L 2750 4700 
L 3000 4550 
z
" transform="scale(0.015625)"/>
      <path id="SimHei-43" d="M 2975 1825 
Q 2950 875 2575 475 
Q 2200 75 1675 75 
Q 1075 75 650 562 
Q 225 1050 225 2125 
Q 225 3300 637 3875 
Q 1050 4450 1700 4450 
Q 2250 4450 2612 4037 
Q 2975 3625 2950 2875 
L 2400 2875 
Q 2400 3425 2225 3700 
Q 2050 3975 1700 3975 
Q 1300 3975 1062 3562 
Q 825 3150 825 2175 
Q 825 1275 1062 912 
Q 1300 550 1675 550 
Q 1950 550 2175 812 
Q 2400 1075 2400 1825 
L 2975 1825 
z
" transform="scale(0.015625)"/>
      <path id="SimHei-68" d="M 2800 125 
L 2300 125 
L 2300 1925 
Q 2300 2225 2150 2400 
Q 2000 2575 1750 2575 
Q 1425 2575 1137 2237 
Q 850 1900 850 1400 
L 850 125 
L 350 125 
L 350 4400 
L 850 4400 
L 850 2400 
Q 1050 2675 1287 2825 
Q 1525 2975 1900 2975 
Q 2350 2975 2575 2725 
Q 2800 2475 2800 2100 
L 2800 125 
z
" transform="scale(0.015625)"/>
      <path id="SimHei-79" d="M 2900 2925 
L 1750 -100 
Q 1650 -450 1450 -625 
Q 1250 -800 950 -800 
Q 825 -800 712 -787 
Q 600 -775 500 -725 
L 500 -225 
Q 600 -275 700 -300 
Q 800 -325 875 -325 
Q 1075 -325 1150 -262 
Q 1225 -200 1300 25 
L 200 2925 
L 750 2925 
L 1550 725 
L 1575 725 
L 2350 2925 
L 2900 2925 
z
" transform="scale(0.015625)"/>
      <path id="SimHei-29" d="M 1675 2250 
Q 1675 1425 1362 775 
Q 1050 125 425 -475 
L 150 -200 
Q 725 325 1012 912 
Q 1300 1500 1300 2250 
Q 1300 3000 1012 3587 
Q 725 4175 150 4725 
L 425 5000 
Q 1050 4375 1362 3725 
Q 1675 3075 1675 2250 
z
" transform="scale(0.015625)"/>
     </defs>
     <use xlink:href="#SimHei-53"/>
     <use xlink:href="#SimHei-74" transform="translate(50 0)"/>
     <use xlink:href="#SimHei-72" transform="translate(100 0)"/>
     <use xlink:href="#SimHei-6f" transform="translate(150 0)"/>
     <use xlink:href="#SimHei-6b" transform="translate(200 0)"/>
     <use xlink:href="#SimHei-65" transform="translate(250 0)"/>
     <use xlink:href="#SimHei-20" transform="translate(300 0)"/>
     <use xlink:href="#SimHei-49" transform="translate(350 0)"/>
     <use xlink:href="#SimHei-64" transform="translate(400 0)"/>
     <use xlink:href="#SimHei-65" transform="translate(450 0)"/>
     <use xlink:href="#SimHei-6e" transform="translate(500 0)"/>
     <use xlink:href="#SimHei-74" transform="translate(550 0)"/>
     <use xlink:href="#SimHei-69" transform="translate(600 0)"/>
     <use xlink:href="#SimHei-66" transform="translate(650 0)"/>
     <use xlink:href="#SimHei-69" transform="translate(700 0)"/>
     <use xlink:href="#SimHei-63" transform="translate(750 0)"/>
     <use xlink:href="#SimHei-61" transform="translate(800 0)"/>
     <use xlink:href="#SimHei-74" transform="translate(850 0)"/>
     <use xlink:href="#SimHei-69" transform="translate(900 0)"/>
     <use xlink:href="#SimHei-6f" transform="translate(950 0)"/>
     <use xlink:href="#SimHei-6e" transform="translate(1000 0)"/>
     <use xlink:href="#SimHei-20" transform="translate(1050 0)"/>
     <use xlink:href="#SimHei-28" transform="translate(1100 0)"/>
     <use xlink:href="#SimHei-42" transform="translate(1150 0)"/>
     <use xlink:href="#SimHei-69" transform="translate(1200 0)"/>
     <use xlink:href="#SimHei-6c" transform="translate(1250 0)"/>
     <use xlink:href="#SimHei-6c" transform="translate(1300 0)"/>
     <use xlink:href="#SimHei-20" transform="translate(1350 0)"/>
     <use xlink:href="#SimHei-57" transform="translate(1400 0)"/>
     <use xlink:href="#SimHei-69" transform="translate(1450 0)"/>
     <use xlink:href="#SimHei-6c" transform="translate(1500 0)"/>
     <use xlink:href="#SimHei-6c" transform="translate(1550 0)"/>
     <use xlink:href="#SimHei-69" transform="translate(1600 0)"/>
     <use xlink:href="#SimHei-61" transform="translate(1650 0)"/>
     <use xlink:href="#SimHei-6d" transform="translate(1700 0)"/>
     <use xlink:href="#SimHei-73" transform="translate(1750 0)"/>
     <use xlink:href="#SimHei-20" transform="translate(1800 0)"/>
     <use xlink:href="#SimHei-2f" transform="translate(1850 0)"/>
     <use xlink:href="#SimHei-20" transform="translate(1900 0)"/>
     <use xlink:href="#SimHei-43" transform="translate(1950 0)"/>
     <use xlink:href="#SimHei-68" transform="translate(2000 0)"/>
     <use xlink:href="#SimHei-61" transform="translate(2050 0)"/>
     <use xlink:href="#SimHei-6e" transform="translate(2100 0)"/>
     <use xlink:href="#SimHei-20" transform="translate(2150 0)"/>
     <use xlink:href="#SimHei-54" transform="translate(2200 0)"/>
     <use xlink:href="#SimHei-68" transform="translate(2250 0)"/>
     <use xlink:href="#SimHei-65" transform="translate(2300 0)"/>
     <use xlink:href="#SimHei-6f" transform="translate(2350 0)"/>
     <use xlink:href="#SimHei-72" transform="translate(2400 0)"/>
     <use xlink:href="#SimHei-79" transform="translate(2450 0)"/>
     <use xlink:href="#SimHei-29" transform="translate(2500 0)"/>
    </g>
   </g>
  </g>
 </g>
 <defs>
  <clipPath id="pbb407e189c">
   <rect x="36.325" y="24.1375" width="781.2" height="443.52"/>
  </clipPath>
 </defs>
</svg>
