<?xml version="1.0" encoding="utf-8" standalone="no"?>
<!DOCTYPE svg PUBLIC "-//W3C//DTD SVG 1.1//EN"
  "http://www.w3.org/Graphics/SVG/1.1/DTD/svg11.dtd">
<svg xmlns:xlink="http://www.w3.org/1999/xlink" width="834.725pt" height="514.737965pt" viewBox="0 0 834.725 514.737965" xmlns="http://www.w3.org/2000/svg" version="1.1">
 <metadata>
  <rdf:RDF xmlns:dc="http://purl.org/dc/elements/1.1/" xmlns:cc="http://creativecommons.org/ns#" xmlns:rdf="http://www.w3.org/1999/02/22-rdf-syntax-ns#">
   <cc:Work>
    <dc:type rdf:resource="http://purl.org/dc/dcmitype/StillImage"/>
    <dc:date>2025-12-30T15:08:11.451484</dc:date>
    <dc:format>image/svg+xml</dc:format>
    <dc:creator>
     <cc:Agent>
      <dc:title>Matplotlib v3.10.8, https://matplotlib.org/</dc:title>
     </cc:Agent>
    </dc:creator>
   </cc:Work>
  </rdf:RDF>
 </metadata>
 <defs>
  <style type="text/css">*{stroke-linejoin: round; stroke-linecap: butt}</style>
 </defs>
 <g id="figure_1">
  <g id="patch_1">
   <path d="M 0 514.737965 
L 834.725 514.737965 
L 834.725 0 
L 0 0 
z
" style="fill: #ffffff"/>
  </g>
  <g id="axes_1">
   <g id="patch_2">
    <path d="M 46.325 467.6575 
L 827.525 467.6575 
L 827.525 24.1375 
L 46.325 24.1375 
z
" style="fill: #ffffff"/>
   </g>
   <g id="patch_3">
    <path d="M 98.055613 399.59255 
L 98.41213 399.59255 
L 98.41213 329.331955 
L 98.055613 329.331955 
z
" clip-path="url(#pa1211925b7)" style="fill: #ff0000"/>
   </g>
   <g id="patch_4">
    <path d="M 105.185953 351.687599 
L 105.54247 351.687599 
L 105.54247 326.936708 
L 105.185953 326.936708 
z
" clip-path="url(#pa1211925b7)" style="fill: #ff0000"/>
   </g>
   <g id="patch_5">
    <path d="M 119.446632 383.624233 
L 119.803149 383.624233 
L 119.803149 356.478094 
L 119.446632 356.478094 
z
" clip-path="url(#pa1211925b7)" style="fill: #ff0000"/>
   </g>
   <g id="patch_6">
    <path d="M 126.576972 363.663837 
L 126.933488 363.663837 
L 126.933488 342.106609 
L 126.576972 342.106609 
z
" clip-path="url(#pa1211925b7)" style="fill: #ff0000"/>
   </g>
   <g id="patch_7">
    <path d="M 133.707311 345.300272 
L 134.063828 345.300272 
L 134.063828 322.944629 
L 133.707311 322.944629 
z
" clip-path="url(#pa1211925b7)" style="fill: #ff0000"/>
   </g>
   <g id="patch_8">
    <path d="M 140.837651 327.735124 
L 141.194168 327.735124 
L 141.194168 300.588985 
L 140.837651 300.588985 
z
" clip-path="url(#pa1211925b7)" style="fill: #ff0000"/>
   </g>
   <g id="patch_9">
    <path d="M 147.96799 332.525619 
L 148.324507 332.525619 
L 148.324507 316.557302 
L 147.96799 316.557302 
z
" clip-path="url(#pa1211925b7)" style="fill: #ff0000"/>
   </g>
   <g id="patch_10">
    <path d="M 155.09833 323.743045 
L 155.454847 323.743045 
L 155.454847 306.976312 
L 155.09833 306.976312 
z
" clip-path="url(#pa1211925b7)" style="fill: #ff0000"/>
   </g>
   <g id="patch_11">
    <path d="M 162.228669 310.169975 
L 162.585186 310.169975 
L 162.585186 294.201658 
L 162.228669 294.201658 
z
" clip-path="url(#pa1211925b7)" style="fill: #ff0000"/>
   </g>
   <g id="patch_12">
    <path d="M 169.359009 327.735124 
L 169.715526 327.735124 
L 169.715526 306.976312 
L 169.359009 306.976312 
z
" clip-path="url(#pa1211925b7)" style="fill: #ff0000"/>
   </g>
   <g id="patch_13">
    <path d="M 205.010706 407.576708 
L 205.367223 407.576708 
L 205.367223 387.616312 
L 205.010706 387.616312 
z
" clip-path="url(#pa1211925b7)" style="fill: #ff0000"/>
   </g>
   <g id="patch_14">
    <path d="M 226.401725 405.979876 
L 226.758242 405.979876 
L 226.758242 390.809975 
L 226.401725 390.809975 
z
" clip-path="url(#pa1211925b7)" style="fill: #ff0000"/>
   </g>
   <g id="patch_15">
    <path d="M 233.532065 412.367203 
L 233.888582 412.367203 
L 233.888582 399.59255 
L 233.532065 399.59255 
z
" clip-path="url(#pa1211925b7)" style="fill: #ff0000"/>
   </g>
   <g id="patch_16">
    <path d="M 240.662404 401.189381 
L 241.018921 401.189381 
L 241.018921 388.414728 
L 240.662404 388.414728 
z
" clip-path="url(#pa1211925b7)" style="fill: #ff0000"/>
   </g>
   <g id="patch_17">
    <path d="M 254.923083 396.398886 
L 255.2796 396.398886 
L 255.2796 386.817896 
L 254.923083 386.817896 
z
" clip-path="url(#pa1211925b7)" style="fill: #ff0000"/>
   </g>
   <g id="patch_18">
    <path d="M 262.053423 393.205223 
L 262.40994 393.205223 
L 262.40994 378.833738 
L 262.053423 378.833738 
z
" clip-path="url(#pa1211925b7)" style="fill: #ff0000"/>
   </g>
   <g id="patch_19">
    <path d="M 283.444441 401.987797 
L 283.800958 401.987797 
L 283.800958 395.60047 
L 283.444441 395.60047 
z
" clip-path="url(#pa1211925b7)" style="fill: #ff0000"/>
   </g>
   <g id="patch_20">
    <path d="M 290.574781 396.398886 
L 290.931298 396.398886 
L 290.931298 386.817896 
L 290.574781 386.817896 
z
" clip-path="url(#pa1211925b7)" style="fill: #ff0000"/>
   </g>
   <g id="patch_21">
    <path d="M 297.70512 394.003639 
L 298.061637 394.003639 
L 298.061637 367.655916 
L 297.70512 367.655916 
z
" clip-path="url(#pa1211925b7)" style="fill: #ff0000"/>
   </g>
   <g id="patch_22">
    <path d="M 304.83546 373.244827 
L 305.191977 373.244827 
L 305.191977 351.687599 
L 304.83546 351.687599 
z
" clip-path="url(#pa1211925b7)" style="fill: #ff0000"/>
   </g>
   <g id="patch_23">
    <path d="M 311.9658 359.671757 
L 312.322317 359.671757 
L 312.322317 339.711361 
L 311.9658 339.711361 
z
" clip-path="url(#pa1211925b7)" style="fill: #ff0000"/>
   </g>
   <g id="patch_24">
    <path d="M 326.226479 351.687599 
L 326.582996 351.687599 
L 326.582996 339.711361 
L 326.226479 339.711361 
z
" clip-path="url(#pa1211925b7)" style="fill: #ff0000"/>
   </g>
   <g id="patch_25">
    <path d="M 333.356818 348.493936 
L 333.713335 348.493936 
L 333.713335 316.557302 
L 333.356818 316.557302 
z
" clip-path="url(#pa1211925b7)" style="fill: #ff0000"/>
   </g>
   <g id="patch_26">
    <path d="M 340.487158 316.557302 
L 340.843675 316.557302 
L 340.843675 273.442847 
L 340.487158 273.442847 
z
" clip-path="url(#pa1211925b7)" style="fill: #ff0000"/>
   </g>
   <g id="patch_27">
    <path d="M 347.617497 300.588985 
L 347.974014 300.588985 
L 347.974014 227.134728 
L 347.617497 227.134728 
z
" clip-path="url(#pa1211925b7)" style="fill: #ff0000"/>
   </g>
   <g id="patch_28">
    <path d="M 369.008516 279.830173 
L 369.365033 279.830173 
L 369.365033 223.941064 
L 369.008516 223.941064 
z
" clip-path="url(#pa1211925b7)" style="fill: #ff0000"/>
   </g>
   <g id="patch_29">
    <path d="M 383.269195 323.743045 
L 383.625712 323.743045 
L 383.625712 273.442847 
L 383.269195 273.442847 
z
" clip-path="url(#pa1211925b7)" style="fill: #ff0000"/>
   </g>
   <g id="patch_30">
    <path d="M 390.399535 279.830173 
L 390.756051 279.830173 
L 390.756051 247.89354 
L 390.399535 247.89354 
z
" clip-path="url(#pa1211925b7)" style="fill: #ff0000"/>
   </g>
   <g id="patch_31">
    <path d="M 397.529874 271.846015 
L 397.886391 271.846015 
L 397.886391 225.537896 
L 397.529874 225.537896 
z
" clip-path="url(#pa1211925b7)" style="fill: #ff0000"/>
   </g>
   <g id="patch_32">
    <path d="M 404.660214 233.522054 
L 405.016731 233.522054 
L 405.016731 161.664629 
L 404.660214 161.664629 
z
" clip-path="url(#pa1211925b7)" style="fill: #ff0000"/>
   </g>
   <g id="patch_33">
    <path d="M 418.920893 219.948985 
L 419.27741 219.948985 
L 419.27741 192.004431 
L 418.920893 192.004431 
z
" clip-path="url(#pa1211925b7)" style="fill: #ff0000"/>
   </g>
   <g id="patch_34">
    <path d="M 426.051232 201.585421 
L 426.407749 201.585421 
L 426.407749 160.067797 
L 426.051232 160.067797 
z
" clip-path="url(#pa1211925b7)" style="fill: #ff0000"/>
   </g>
   <g id="patch_35">
    <path d="M 440.311911 244.699876 
L 440.668428 244.699876 
L 440.668428 215.956906 
L 440.311911 215.956906 
z
" clip-path="url(#pa1211925b7)" style="fill: #ff0000"/>
   </g>
   <g id="patch_36">
    <path d="M 447.442251 223.941064 
L 447.798768 223.941064 
L 447.798768 176.036114 
L 447.442251 176.036114 
z
" clip-path="url(#pa1211925b7)" style="fill: #ff0000"/>
   </g>
   <g id="patch_37">
    <path d="M 454.57259 188.012351 
L 454.929107 188.012351 
L 454.929107 164.059876 
L 454.57259 164.059876 
z
" clip-path="url(#pa1211925b7)" style="fill: #ff0000"/>
   </g>
   <g id="patch_38">
    <path d="M 461.70293 177.632946 
L 462.059447 177.632946 
L 462.059447 144.09948 
L 461.70293 144.09948 
z
" clip-path="url(#pa1211925b7)" style="fill: #ff0000"/>
   </g>
   <g id="patch_39">
    <path d="M 468.833269 156.075718 
L 469.189786 156.075718 
L 469.189786 92.20245 
L 468.833269 92.20245 
z
" clip-path="url(#pa1211925b7)" style="fill: #ff0000"/>
   </g>
   <g id="patch_40">
    <path d="M 490.224288 206.375916 
L 490.580805 206.375916 
L 490.580805 170.447203 
L 490.224288 170.447203 
z
" clip-path="url(#pa1211925b7)" style="fill: #ff0000"/>
   </g>
   <g id="patch_41">
    <path d="M 497.354628 172.044035 
L 497.711145 172.044035 
L 497.711145 137.712153 
L 497.354628 137.712153 
z
" clip-path="url(#pa1211925b7)" style="fill: #ff0000"/>
   </g>
   <g id="patch_42">
    <path d="M 504.484967 158.470965 
L 504.841484 158.470965 
L 504.841484 136.115322 
L 504.484967 136.115322 
z
" clip-path="url(#pa1211925b7)" style="fill: #ff0000"/>
   </g>
   <g id="patch_43">
    <path d="M 511.615307 152.083639 
L 511.971824 152.083639 
L 511.971824 112.162847 
L 511.615307 112.162847 
z
" clip-path="url(#pa1211925b7)" style="fill: #ff0000"/>
   </g>
   <g id="patch_44">
    <path d="M 540.136665 197.593342 
L 540.493182 197.593342 
L 540.493182 176.036114 
L 540.136665 176.036114 
z
" clip-path="url(#pa1211925b7)" style="fill: #ff0000"/>
   </g>
   <g id="patch_45">
    <path d="M 554.397344 227.933144 
L 554.753861 227.933144 
L 554.753861 206.375916 
L 554.397344 206.375916 
z
" clip-path="url(#pa1211925b7)" style="fill: #ff0000"/>
   </g>
   <g id="patch_46">
    <path d="M 575.788363 223.142649 
L 576.14488 223.142649 
L 576.14488 188.810767 
L 575.788363 188.810767 
z
" clip-path="url(#pa1211925b7)" style="fill: #ff0000"/>
   </g>
   <g id="patch_47">
    <path d="M 590.049042 219.150569 
L 590.405559 219.150569 
L 590.405559 192.164114 
L 590.049042 192.164114 
z
" clip-path="url(#pa1211925b7)" style="fill: #ff0000"/>
   </g>
   <g id="patch_48">
    <path d="M 604.309721 164.059876 
L 604.666238 164.059876 
L 604.666238 120.147005 
L 604.309721 120.147005 
z
" clip-path="url(#pa1211925b7)" style="fill: #ff0000"/>
   </g>
   <g id="patch_49">
    <path d="M 625.700739 176.036114 
L 626.057256 176.036114 
L 626.057256 156.075718 
L 625.700739 156.075718 
z
" clip-path="url(#pa1211925b7)" style="fill: #ff0000"/>
   </g>
   <g id="patch_50">
    <path d="M 632.831079 160.067797 
L 633.187596 160.067797 
L 633.187596 140.107401 
L 632.831079 140.107401 
z
" clip-path="url(#pa1211925b7)" style="fill: #ff0000"/>
   </g>
   <g id="patch_51">
    <path d="M 639.961418 152.083639 
L 640.317935 152.083639 
L 640.317935 131.324827 
L 639.961418 131.324827 
z
" clip-path="url(#pa1211925b7)" style="fill: #ff0000"/>
   </g>
   <g id="patch_52">
    <path d="M 661.352437 144.09948 
L 661.708954 144.09948 
L 661.708954 131.324827 
L 661.352437 131.324827 
z
" clip-path="url(#pa1211925b7)" style="fill: #ff0000"/>
   </g>
   <g id="patch_53">
    <path d="M 668.482777 145.696312 
L 668.839294 145.696312 
L 668.839294 136.115322 
L 668.482777 136.115322 
z
" clip-path="url(#pa1211925b7)" style="fill: #ff0000"/>
   </g>
   <g id="patch_54">
    <path d="M 675.613116 136.115322 
L 675.969633 136.115322 
L 675.969633 124.139084 
L 675.613116 124.139084 
z
" clip-path="url(#pa1211925b7)" style="fill: #ff0000"/>
   </g>
   <g id="patch_55">
    <path d="M 682.743456 129.727995 
L 683.099973 129.727995 
L 683.099973 123.340668 
L 682.743456 123.340668 
z
" clip-path="url(#pa1211925b7)" style="fill: #ff0000"/>
   </g>
   <g id="patch_56">
    <path d="M 689.873795 123.340668 
L 690.230312 123.340668 
L 690.230312 112.961262 
L 689.873795 112.961262 
z
" clip-path="url(#pa1211925b7)" style="fill: #ff0000"/>
   </g>
   <g id="patch_57">
    <path d="M 697.004135 113.759678 
L 697.360652 113.759678 
L 697.360652 68.249975 
L 697.004135 68.249975 
z
" clip-path="url(#pa1211925b7)" style="fill: #ff0000"/>
   </g>
   <g id="patch_58">
    <path d="M 704.134474 75.435718 
L 704.490991 75.435718 
L 704.490991 44.2975 
L 704.134474 44.2975 
z
" clip-path="url(#pa1211925b7)" style="fill: #ff0000"/>
   </g>
   <g id="patch_59">
    <path d="M 718.395153 108.170767 
L 718.75167 108.170767 
L 718.75167 83.419876 
L 718.395153 83.419876 
z
" clip-path="url(#pa1211925b7)" style="fill: #ff0000"/>
   </g>
   <g id="patch_60">
    <path d="M 725.525493 94.597698 
L 725.88201 94.597698 
L 725.88201 76.234134 
L 725.525493 76.234134 
z
" clip-path="url(#pa1211925b7)" style="fill: #ff0000"/>
   </g>
   <g id="patch_61">
    <path d="M 732.655832 72.242054 
L 733.012349 72.242054 
L 733.012349 48.289579 
L 732.655832 48.289579 
z
" clip-path="url(#pa1211925b7)" style="fill: #ff0000"/>
   </g>
   <g id="patch_62">
    <path d="M 746.916512 91.404035 
L 747.273028 91.404035 
L 747.273028 75.435718 
L 746.916512 75.435718 
z
" clip-path="url(#pa1211925b7)" style="fill: #ff0000"/>
   </g>
   <g id="patch_63">
    <path d="M 761.177191 92.20245 
L 761.533708 92.20245 
L 761.533708 67.451559 
L 761.177191 67.451559 
z
" clip-path="url(#pa1211925b7)" style="fill: #ff0000"/>
   </g>
   <g id="patch_64">
    <path d="M 782.568209 93.000866 
L 782.924726 93.000866 
L 782.924726 78.629381 
L 782.568209 78.629381 
z
" clip-path="url(#pa1211925b7)" style="fill: #ff0000"/>
   </g>
   <g id="patch_65">
    <path d="M 83.794934 397.995718 
L 84.151451 397.995718 
L 84.151451 375.640074 
L 83.794934 375.640074 
z
" clip-path="url(#pa1211925b7)" style="fill: #008000"/>
   </g>
   <g id="patch_66">
    <path d="M 90.925274 447.4975 
L 91.281791 447.4975 
L 91.281791 399.59255 
L 90.925274 399.59255 
z
" clip-path="url(#pa1211925b7)" style="fill: #008000"/>
   </g>
   <g id="patch_67">
    <path d="M 112.316292 375.640074 
L 112.672809 375.640074 
L 112.672809 335.559599 
L 112.316292 335.559599 
z
" clip-path="url(#pa1211925b7)" style="fill: #008000"/>
   </g>
   <g id="patch_68">
    <path d="M 176.489348 356.478094 
L 176.845865 356.478094 
L 176.845865 335.719282 
L 176.489348 335.719282 
z
" clip-path="url(#pa1211925b7)" style="fill: #008000"/>
   </g>
   <g id="patch_69">
    <path d="M 183.619688 358.074926 
L 183.976205 358.074926 
L 183.976205 342.106609 
L 183.619688 342.106609 
z
" clip-path="url(#pa1211925b7)" style="fill: #008000"/>
   </g>
   <g id="patch_70">
    <path d="M 190.750027 379.632153 
L 191.106544 379.632153 
L 191.106544 343.703441 
L 190.750027 343.703441 
z
" clip-path="url(#pa1211925b7)" style="fill: #008000"/>
   </g>
   <g id="patch_71">
    <path d="M 197.880367 399.59255 
L 198.236884 399.59255 
L 198.236884 371.647995 
L 197.880367 371.647995 
z
" clip-path="url(#pa1211925b7)" style="fill: #008000"/>
   </g>
   <g id="patch_72">
    <path d="M 212.141046 396.398886 
L 212.497563 396.398886 
L 212.497563 386.817896 
L 212.141046 386.817896 
z
" clip-path="url(#pa1211925b7)" style="fill: #008000"/>
   </g>
   <g id="patch_73">
    <path d="M 219.271386 411.568787 
L 219.627903 411.568787 
L 219.627903 395.60047 
L 219.271386 395.60047 
z
" clip-path="url(#pa1211925b7)" style="fill: #008000"/>
   </g>
   <g id="patch_74">
    <path d="M 247.792744 394.802054 
L 248.149261 394.802054 
L 248.149261 375.640074 
L 247.792744 375.640074 
z
" clip-path="url(#pa1211925b7)" style="fill: #008000"/>
   </g>
   <g id="patch_75">
    <path d="M 269.183762 396.398886 
L 269.540279 396.398886 
L 269.540279 383.624233 
L 269.183762 383.624233 
z
" clip-path="url(#pa1211925b7)" style="fill: #008000"/>
   </g>
   <g id="patch_76">
    <path d="M 276.314102 408.375124 
L 276.670619 408.375124 
L 276.670619 396.398886 
L 276.314102 396.398886 
z
" clip-path="url(#pa1211925b7)" style="fill: #008000"/>
   </g>
   <g id="patch_77">
    <path d="M 319.096139 378.833738 
L 319.452656 378.833738 
L 319.452656 358.074926 
L 319.096139 358.074926 
z
" clip-path="url(#pa1211925b7)" style="fill: #008000"/>
   </g>
   <g id="patch_78">
    <path d="M 354.747837 278.233342 
L 355.104354 278.233342 
L 355.104354 220.747401 
L 354.747837 220.747401 
z
" clip-path="url(#pa1211925b7)" style="fill: #008000"/>
   </g>
   <g id="patch_79">
    <path d="M 361.878176 284.620668 
L 362.234693 284.620668 
L 362.234693 268.652351 
L 361.878176 268.652351 
z
" clip-path="url(#pa1211925b7)" style="fill: #008000"/>
   </g>
   <g id="patch_80">
    <path d="M 376.138855 335.719282 
L 376.495372 335.719282 
L 376.495372 284.620668 
L 376.138855 284.620668 
z
" clip-path="url(#pa1211925b7)" style="fill: #008000"/>
   </g>
   <g id="patch_81">
    <path d="M 411.790553 206.375916 
L 412.14707 206.375916 
L 412.14707 156.075718 
L 411.790553 156.075718 
z
" clip-path="url(#pa1211925b7)" style="fill: #008000"/>
   </g>
   <g id="patch_82">
    <path d="M 433.181572 227.933144 
L 433.538089 227.933144 
L 433.538089 199.988589 
L 433.181572 199.988589 
z
" clip-path="url(#pa1211925b7)" style="fill: #008000"/>
   </g>
   <g id="patch_83">
    <path d="M 475.963609 160.866213 
L 476.320126 160.866213 
L 476.320126 136.115322 
L 475.963609 136.115322 
z
" clip-path="url(#pa1211925b7)" style="fill: #008000"/>
   </g>
   <g id="patch_84">
    <path d="M 483.093949 177.632946 
L 483.450465 177.632946 
L 483.450465 144.09948 
L 483.093949 144.09948 
z
" clip-path="url(#pa1211925b7)" style="fill: #008000"/>
   </g>
   <g id="patch_85">
    <path d="M 518.745646 142.502649 
L 519.102163 142.502649 
L 519.102163 86.61354 
L 518.745646 86.61354 
z
" clip-path="url(#pa1211925b7)" style="fill: #008000"/>
   </g>
   <g id="patch_86">
    <path d="M 525.875986 171.245619 
L 526.232503 171.245619 
L 526.232503 136.115322 
L 525.875986 136.115322 
z
" clip-path="url(#pa1211925b7)" style="fill: #008000"/>
   </g>
   <g id="patch_87">
    <path d="M 533.006325 195.99651 
L 533.362842 195.99651 
L 533.362842 152.083639 
L 533.006325 152.083639 
z
" clip-path="url(#pa1211925b7)" style="fill: #008000"/>
   </g>
   <g id="patch_88">
    <path d="M 547.267004 247.89354 
L 547.623521 247.89354 
L 547.623521 214.360074 
L 547.267004 214.360074 
z
" clip-path="url(#pa1211925b7)" style="fill: #008000"/>
   </g>
   <g id="patch_89">
    <path d="M 561.527683 223.941064 
L 561.8842 223.941064 
L 561.8842 179.229777 
L 561.527683 179.229777 
z
" clip-path="url(#pa1211925b7)" style="fill: #008000"/>
   </g>
   <g id="patch_90">
    <path d="M 568.658023 235.118886 
L 569.01454 235.118886 
L 569.01454 223.941064 
L 568.658023 223.941064 
z
" clip-path="url(#pa1211925b7)" style="fill: #008000"/>
   </g>
   <g id="patch_91">
    <path d="M 582.918702 214.360074 
L 583.275219 214.360074 
L 583.275219 188.012351 
L 582.918702 188.012351 
z
" clip-path="url(#pa1211925b7)" style="fill: #008000"/>
   </g>
   <g id="patch_92">
    <path d="M 597.179381 152.083639 
L 597.535898 152.083639 
L 597.535898 56.273738 
L 597.179381 56.273738 
z
" clip-path="url(#pa1211925b7)" style="fill: #008000"/>
   </g>
   <g id="patch_93">
    <path d="M 611.44006 144.09948 
L 611.796577 144.09948 
L 611.796577 104.178688 
L 611.44006 104.178688 
z
" clip-path="url(#pa1211925b7)" style="fill: #008000"/>
   </g>
   <g id="patch_94">
    <path d="M 618.5704 170.447203 
L 618.926917 170.447203 
L 618.926917 140.905817 
L 618.5704 140.905817 
z
" clip-path="url(#pa1211925b7)" style="fill: #008000"/>
   </g>
   <g id="patch_95">
    <path d="M 647.091758 144.09948 
L 647.448275 144.09948 
L 647.448275 124.139084 
L 647.091758 124.139084 
z
" clip-path="url(#pa1211925b7)" style="fill: #008000"/>
   </g>
   <g id="patch_96">
    <path d="M 654.222097 147.293144 
L 654.578614 147.293144 
L 654.578614 139.308985 
L 654.222097 139.308985 
z
" clip-path="url(#pa1211925b7)" style="fill: #008000"/>
   </g>
   <g id="patch_97">
    <path d="M 711.264814 98.589777 
L 711.621331 98.589777 
L 711.621331 64.257896 
L 711.264814 64.257896 
z
" clip-path="url(#pa1211925b7)" style="fill: #008000"/>
   </g>
   <g id="patch_98">
    <path d="M 739.786172 88.210371 
L 740.142689 88.210371 
L 740.142689 64.257896 
L 739.786172 64.257896 
z
" clip-path="url(#pa1211925b7)" style="fill: #008000"/>
   </g>
   <g id="patch_99">
    <path d="M 754.046851 93.000866 
L 754.403368 93.000866 
L 754.403368 80.226213 
L 754.046851 80.226213 
z
" clip-path="url(#pa1211925b7)" style="fill: #008000"/>
   </g>
   <g id="patch_100">
    <path d="M 768.30753 93.000866 
L 768.664047 93.000866 
L 768.664047 72.242054 
L 768.30753 72.242054 
z
" clip-path="url(#pa1211925b7)" style="fill: #008000"/>
   </g>
   <g id="patch_101">
    <path d="M 775.43787 93.799282 
L 775.794387 93.799282 
L 775.794387 80.226213 
L 775.43787 80.226213 
z
" clip-path="url(#pa1211925b7)" style="fill: #008000"/>
   </g>
   <g id="patch_102">
    <path d="M 789.698549 96.19453 
L 790.055066 96.19453 
L 790.055066 80.226213 
L 789.698549 80.226213 
z
" clip-path="url(#pa1211925b7)" style="fill: #008000"/>
   </g>
   <g id="patch_103">
    <path d="M 96.09477 399.59255 
L 100.372974 399.59255 
L 100.372974 351.687599 
L 96.09477 351.687599 
z
" clip-path="url(#pa1211925b7)" style="fill: #ff0000"/>
   </g>
   <g id="patch_104">
    <path d="M 103.22511 351.687599 
L 107.503313 351.687599 
L 107.503313 337.316114 
L 103.22511 337.316114 
z
" clip-path="url(#pa1211925b7)" style="fill: #ff0000"/>
   </g>
   <g id="patch_105">
    <path d="M 117.485789 379.632153 
L 121.763992 379.632153 
L 121.763992 358.074926 
L 117.485789 358.074926 
z
" clip-path="url(#pa1211925b7)" style="fill: #ff0000"/>
   </g>
   <g id="patch_106">
    <path d="M 124.616128 359.671757 
L 128.894332 359.671757 
L 128.894332 345.300272 
L 124.616128 345.300272 
z
" clip-path="url(#pa1211925b7)" style="fill: #ff0000"/>
   </g>
   <g id="patch_107">
    <path d="M 131.746468 340.509777 
L 136.024671 340.509777 
L 136.024671 326.138292 
L 131.746468 326.138292 
z
" clip-path="url(#pa1211925b7)" style="fill: #ff0000"/>
   </g>
   <g id="patch_108">
    <path d="M 138.876807 323.743045 
L 143.155011 323.743045 
L 143.155011 321.347797 
L 138.876807 321.347797 
z
" clip-path="url(#pa1211925b7)" style="fill: #ff0000"/>
   </g>
   <g id="patch_109">
    <path d="M 146.007147 323.743045 
L 150.28535 323.743045 
L 150.28535 319.750965 
L 146.007147 319.750965 
z
" clip-path="url(#pa1211925b7)" style="fill: #ff0000"/>
   </g>
   <g id="patch_110">
    <path d="M 153.137486 319.750965 
L 157.41569 319.750965 
L 157.41569 307.774728 
L 153.137486 307.774728 
z
" clip-path="url(#pa1211925b7)" style="fill: #ff0000"/>
   </g>
   <g id="patch_111">
    <path d="M 160.267826 303.782649 
L 164.54603 303.782649 
L 164.54603 295.79849 
L 160.267826 295.79849 
z
" clip-path="url(#pa1211925b7)" style="fill: #ff0000"/>
   </g>
   <g id="patch_112">
    <path d="M 167.398165 323.743045 
L 171.676369 323.743045 
L 171.676369 323.743045 
L 167.398165 323.743045 
z
" clip-path="url(#pa1211925b7)" style="fill: #ff0000"/>
   </g>
   <g id="patch_113">
    <path d="M 203.049863 407.576708 
L 207.328067 407.576708 
L 207.328067 390.011559 
L 203.049863 390.011559 
z
" clip-path="url(#pa1211925b7)" style="fill: #ff0000"/>
   </g>
   <g id="patch_114">
    <path d="M 224.440882 405.979876 
L 228.719085 405.979876 
L 228.719085 402.786213 
L 224.440882 402.786213 
z
" clip-path="url(#pa1211925b7)" style="fill: #ff0000"/>
   </g>
   <g id="patch_115">
    <path d="M 231.571221 405.979876 
L 235.849425 405.979876 
L 235.849425 399.59255 
L 231.571221 399.59255 
z
" clip-path="url(#pa1211925b7)" style="fill: #ff0000"/>
   </g>
   <g id="patch_116">
    <path d="M 238.701561 399.59255 
L 242.979765 399.59255 
L 242.979765 390.011559 
L 238.701561 390.011559 
z
" clip-path="url(#pa1211925b7)" style="fill: #ff0000"/>
   </g>
   <g id="patch_117">
    <path d="M 252.96224 391.608391 
L 257.240444 391.608391 
L 257.240444 390.011559 
L 252.96224 390.011559 
z
" clip-path="url(#pa1211925b7)" style="fill: #ff0000"/>
   </g>
   <g id="patch_118">
    <path d="M 260.092579 387.616312 
L 264.370783 387.616312 
L 264.370783 385.221064 
L 260.092579 385.221064 
z
" clip-path="url(#pa1211925b7)" style="fill: #ff0000"/>
   </g>
   <g id="patch_119">
    <path d="M 281.483598 401.189381 
L 285.761802 401.189381 
L 285.761802 399.59255 
L 281.483598 399.59255 
z
" clip-path="url(#pa1211925b7)" style="fill: #ff0000"/>
   </g>
   <g id="patch_120">
    <path d="M 288.613938 395.60047 
L 292.892141 395.60047 
L 292.892141 391.608391 
L 288.613938 391.608391 
z
" clip-path="url(#pa1211925b7)" style="fill: #ff0000"/>
   </g>
   <g id="patch_121">
    <path d="M 295.744277 391.608391 
L 300.022481 391.608391 
L 300.022481 368.454332 
L 295.744277 368.454332 
z
" clip-path="url(#pa1211925b7)" style="fill: #ff0000"/>
   </g>
   <g id="patch_122">
    <path d="M 302.874617 372.446411 
L 307.15282 372.446411 
L 307.15282 358.074926 
L 302.874617 358.074926 
z
" clip-path="url(#pa1211925b7)" style="fill: #ff0000"/>
   </g>
   <g id="patch_123">
    <path d="M 310.004956 358.074926 
L 314.28316 358.074926 
L 314.28316 357.915243 
L 310.004956 357.915243 
z
" clip-path="url(#pa1211925b7)" style="fill: #ff0000"/>
   </g>
   <g id="patch_124">
    <path d="M 324.265635 351.687599 
L 328.543839 351.687599 
L 328.543839 340.509777 
L 324.265635 340.509777 
z
" clip-path="url(#pa1211925b7)" style="fill: #ff0000"/>
   </g>
   <g id="patch_125">
    <path d="M 331.395975 340.509777 
L 335.674179 340.509777 
L 335.674179 316.557302 
L 331.395975 316.557302 
z
" clip-path="url(#pa1211925b7)" style="fill: #ff0000"/>
   </g>
   <g id="patch_126">
    <path d="M 338.526314 316.557302 
L 342.804518 316.557302 
L 342.804518 294.201658 
L 338.526314 294.201658 
z
" clip-path="url(#pa1211925b7)" style="fill: #ff0000"/>
   </g>
   <g id="patch_127">
    <path d="M 345.656654 299.790569 
L 349.934858 299.790569 
L 349.934858 239.909381 
L 345.656654 239.909381 
z
" clip-path="url(#pa1211925b7)" style="fill: #ff0000"/>
   </g>
   <g id="patch_128">
    <path d="M 367.047673 279.830173 
L 371.325876 279.830173 
L 371.325876 271.846015 
L 367.047673 271.846015 
z
" clip-path="url(#pa1211925b7)" style="fill: #ff0000"/>
   </g>
   <g id="patch_129">
    <path d="M 381.308352 323.743045 
L 385.586555 323.743045 
L 385.586555 275.838094 
L 381.308352 275.838094 
z
" clip-path="url(#pa1211925b7)" style="fill: #ff0000"/>
   </g>
   <g id="patch_130">
    <path d="M 388.438691 279.830173 
L 392.716895 279.830173 
L 392.716895 252.684035 
L 388.438691 252.684035 
z
" clip-path="url(#pa1211925b7)" style="fill: #ff0000"/>
   </g>
   <g id="patch_131">
    <path d="M 395.569031 254.280866 
L 399.847234 254.280866 
L 399.847234 231.925223 
L 395.569031 231.925223 
z
" clip-path="url(#pa1211925b7)" style="fill: #ff0000"/>
   </g>
   <g id="patch_132">
    <path d="M 402.69937 233.522054 
L 406.977574 233.522054 
L 406.977574 198.391757 
L 402.69937 198.391757 
z
" clip-path="url(#pa1211925b7)" style="fill: #ff0000"/>
   </g>
   <g id="patch_133">
    <path d="M 416.960049 207.972748 
L 421.238253 207.972748 
L 421.238253 199.988589 
L 416.960049 199.988589 
z
" clip-path="url(#pa1211925b7)" style="fill: #ff0000"/>
   </g>
   <g id="patch_134">
    <path d="M 424.090389 201.585421 
L 428.368593 201.585421 
L 428.368593 195.99651 
L 424.090389 195.99651 
z
" clip-path="url(#pa1211925b7)" style="fill: #ff0000"/>
   </g>
   <g id="patch_135">
    <path d="M 438.351068 239.909381 
L 442.629272 239.909381 
L 442.629272 218.352153 
L 438.351068 218.352153 
z
" clip-path="url(#pa1211925b7)" style="fill: #ff0000"/>
   </g>
   <g id="patch_136">
    <path d="M 445.481407 219.948985 
L 449.759611 219.948985 
L 449.759611 195.99651 
L 445.481407 195.99651 
z
" clip-path="url(#pa1211925b7)" style="fill: #ff0000"/>
   </g>
   <g id="patch_137">
    <path d="M 452.611747 188.012351 
L 456.889951 188.012351 
L 456.889951 169.648787 
L 452.611747 169.648787 
z
" clip-path="url(#pa1211925b7)" style="fill: #ff0000"/>
   </g>
   <g id="patch_138">
    <path d="M 459.742087 172.84245 
L 464.02029 172.84245 
L 464.02029 152.083639 
L 459.742087 152.083639 
z
" clip-path="url(#pa1211925b7)" style="fill: #ff0000"/>
   </g>
   <g id="patch_139">
    <path d="M 466.872426 156.075718 
L 471.15063 156.075718 
L 471.15063 148.091559 
L 466.872426 148.091559 
z
" clip-path="url(#pa1211925b7)" style="fill: #ff0000"/>
   </g>
   <g id="patch_140">
    <path d="M 488.263445 176.036114 
L 492.541648 176.036114 
L 492.541648 172.044035 
L 488.263445 172.044035 
z
" clip-path="url(#pa1211925b7)" style="fill: #ff0000"/>
   </g>
   <g id="patch_141">
    <path d="M 495.393784 172.044035 
L 499.671988 172.044035 
L 499.671988 164.059876 
L 495.393784 164.059876 
z
" clip-path="url(#pa1211925b7)" style="fill: #ff0000"/>
   </g>
   <g id="patch_142">
    <path d="M 502.524124 156.075718 
L 506.802327 156.075718 
L 506.802327 147.293144 
L 502.524124 147.293144 
z
" clip-path="url(#pa1211925b7)" style="fill: #ff0000"/>
   </g>
   <g id="patch_143">
    <path d="M 509.654463 148.091559 
L 513.932667 148.091559 
L 513.932667 120.147005 
L 509.654463 120.147005 
z
" clip-path="url(#pa1211925b7)" style="fill: #ff0000"/>
   </g>
   <g id="patch_144">
    <path d="M 538.175821 184.020272 
L 542.454025 184.020272 
L 542.454025 184.020272 
L 538.175821 184.020272 
z
" clip-path="url(#pa1211925b7)" style="fill: #ff0000"/>
   </g>
   <g id="patch_145">
    <path d="M 552.436501 223.941064 
L 556.714704 223.941064 
L 556.714704 206.375916 
L 552.436501 206.375916 
z
" clip-path="url(#pa1211925b7)" style="fill: #ff0000"/>
   </g>
   <g id="patch_146">
    <path d="M 573.827519 215.956906 
L 578.105723 215.956906 
L 578.105723 195.198094 
L 573.827519 195.198094 
z
" clip-path="url(#pa1211925b7)" style="fill: #ff0000"/>
   </g>
   <g id="patch_147">
    <path d="M 588.088198 215.956906 
L 592.366402 215.956906 
L 592.366402 199.988589 
L 588.088198 199.988589 
z
" clip-path="url(#pa1211925b7)" style="fill: #ff0000"/>
   </g>
   <g id="patch_148">
    <path d="M 602.348877 164.059876 
L 606.627081 164.059876 
L 606.627081 123.340668 
L 602.348877 123.340668 
z
" clip-path="url(#pa1211925b7)" style="fill: #ff0000"/>
   </g>
   <g id="patch_149">
    <path d="M 623.739896 164.858292 
L 628.0181 164.858292 
L 628.0181 156.075718 
L 623.739896 156.075718 
z
" clip-path="url(#pa1211925b7)" style="fill: #ff0000"/>
   </g>
   <g id="patch_150">
    <path d="M 630.870235 152.083639 
L 635.148439 152.083639 
L 635.148439 142.502649 
L 630.870235 142.502649 
z
" clip-path="url(#pa1211925b7)" style="fill: #ff0000"/>
   </g>
   <g id="patch_151">
    <path d="M 638.000575 148.091559 
L 642.278779 148.091559 
L 642.278779 134.51849 
L 638.000575 134.51849 
z
" clip-path="url(#pa1211925b7)" style="fill: #ff0000"/>
   </g>
   <g id="patch_152">
    <path d="M 659.391594 144.09948 
L 663.669797 144.09948 
L 663.669797 140.107401 
L 659.391594 140.107401 
z
" clip-path="url(#pa1211925b7)" style="fill: #ff0000"/>
   </g>
   <g id="patch_153">
    <path d="M 666.521933 144.09948 
L 670.800137 144.09948 
L 670.800137 136.115322 
L 666.521933 136.115322 
z
" clip-path="url(#pa1211925b7)" style="fill: #ff0000"/>
   </g>
   <g id="patch_154">
    <path d="M 673.652273 136.115322 
L 677.930476 136.115322 
L 677.930476 124.139084 
L 673.652273 124.139084 
z
" clip-path="url(#pa1211925b7)" style="fill: #ff0000"/>
   </g>
   <g id="patch_155">
    <path d="M 680.782612 124.9375 
L 685.060816 124.9375 
L 685.060816 123.340668 
L 680.782612 123.340668 
z
" clip-path="url(#pa1211925b7)" style="fill: #ff0000"/>
   </g>
   <g id="patch_156">
    <path d="M 687.912952 120.147005 
L 692.191156 120.147005 
L 692.191156 112.961262 
L 687.912952 112.961262 
z
" clip-path="url(#pa1211925b7)" style="fill: #ff0000"/>
   </g>
   <g id="patch_157">
    <path d="M 695.043291 113.759678 
L 699.321495 113.759678 
L 699.321495 84.218292 
L 695.043291 84.218292 
z
" clip-path="url(#pa1211925b7)" style="fill: #ff0000"/>
   </g>
   <g id="patch_158">
    <path d="M 702.173631 72.242054 
L 706.451835 72.242054 
L 706.451835 64.257896 
L 702.173631 64.257896 
z
" clip-path="url(#pa1211925b7)" style="fill: #ff0000"/>
   </g>
   <g id="patch_159">
    <path d="M 716.43431 96.19453 
L 720.712514 96.19453 
L 720.712514 88.210371 
L 716.43431 88.210371 
z
" clip-path="url(#pa1211925b7)" style="fill: #ff0000"/>
   </g>
   <g id="patch_160">
    <path d="M 723.56465 84.218292 
L 727.842853 84.218292 
L 727.842853 76.234134 
L 723.56465 76.234134 
z
" clip-path="url(#pa1211925b7)" style="fill: #ff0000"/>
   </g>
   <g id="patch_161">
    <path d="M 730.694989 72.242054 
L 734.973193 72.242054 
L 734.973193 60.265817 
L 730.694989 60.265817 
z
" clip-path="url(#pa1211925b7)" style="fill: #ff0000"/>
   </g>
   <g id="patch_162">
    <path d="M 744.955668 84.218292 
L 749.233872 84.218292 
L 749.233872 77.03255 
L 744.955668 77.03255 
z
" clip-path="url(#pa1211925b7)" style="fill: #ff0000"/>
   </g>
   <g id="patch_163">
    <path d="M 759.216347 88.210371 
L 763.494551 88.210371 
L 763.494551 74.637302 
L 759.216347 74.637302 
z
" clip-path="url(#pa1211925b7)" style="fill: #ff0000"/>
   </g>
   <g id="patch_164">
    <path d="M 780.607366 84.218292 
L 784.88557 84.218292 
L 784.88557 81.823045 
L 780.607366 81.823045 
z
" clip-path="url(#pa1211925b7)" style="fill: #ff0000"/>
   </g>
   <g id="patch_165">
    <path d="M 81.834091 397.995718 
L 86.112295 397.995718 
L 86.112295 375.640074 
L 81.834091 375.640074 
z
" clip-path="url(#pa1211925b7)" style="fill: #008000"/>
   </g>
   <g id="patch_166">
    <path d="M 88.96443 423.545025 
L 93.242634 423.545025 
L 93.242634 399.59255 
L 88.96443 399.59255 
z
" clip-path="url(#pa1211925b7)" style="fill: #008000"/>
   </g>
   <g id="patch_167">
    <path d="M 110.355449 375.640074 
L 114.633653 375.640074 
L 114.633653 342.106609 
L 110.355449 342.106609 
z
" clip-path="url(#pa1211925b7)" style="fill: #008000"/>
   </g>
   <g id="patch_168">
    <path d="M 174.528505 350.090767 
L 178.806709 350.090767 
L 178.806709 335.719282 
L 174.528505 335.719282 
z
" clip-path="url(#pa1211925b7)" style="fill: #008000"/>
   </g>
   <g id="patch_169">
    <path d="M 181.658844 355.679678 
L 185.937048 355.679678 
L 185.937048 353.284431 
L 181.658844 353.284431 
z
" clip-path="url(#pa1211925b7)" style="fill: #008000"/>
   </g>
   <g id="patch_170">
    <path d="M 188.789184 379.632153 
L 193.067388 379.632153 
L 193.067388 343.703441 
L 188.789184 343.703441 
z
" clip-path="url(#pa1211925b7)" style="fill: #008000"/>
   </g>
   <g id="patch_171">
    <path d="M 195.919524 394.802054 
L 200.197727 394.802054 
L 200.197727 371.647995 
L 195.919524 371.647995 
z
" clip-path="url(#pa1211925b7)" style="fill: #008000"/>
   </g>
   <g id="patch_172">
    <path d="M 210.180203 396.398886 
L 214.458406 396.398886 
L 214.458406 390.011559 
L 210.180203 390.011559 
z
" clip-path="url(#pa1211925b7)" style="fill: #008000"/>
   </g>
   <g id="patch_173">
    <path d="M 217.310542 404.383045 
L 221.588746 404.383045 
L 221.588746 395.60047 
L 217.310542 395.60047 
z
" clip-path="url(#pa1211925b7)" style="fill: #008000"/>
   </g>
   <g id="patch_174">
    <path d="M 245.8319 394.802054 
L 250.110104 394.802054 
L 250.110104 390.011559 
L 245.8319 390.011559 
z
" clip-path="url(#pa1211925b7)" style="fill: #008000"/>
   </g>
   <g id="patch_175">
    <path d="M 267.222919 396.398886 
L 271.501123 396.398886 
L 271.501123 387.616312 
L 267.222919 387.616312 
z
" clip-path="url(#pa1211925b7)" style="fill: #008000"/>
   </g>
   <g id="patch_176">
    <path d="M 274.353258 399.59255 
L 278.631462 399.59255 
L 278.631462 396.398886 
L 274.353258 396.398886 
z
" clip-path="url(#pa1211925b7)" style="fill: #008000"/>
   </g>
   <g id="patch_177">
    <path d="M 317.135296 361.268589 
L 321.413499 361.268589 
L 321.413499 358.074926 
L 317.135296 358.074926 
z
" clip-path="url(#pa1211925b7)" style="fill: #008000"/>
   </g>
   <g id="patch_178">
    <path d="M 352.786993 251.885619 
L 357.065197 251.885619 
L 357.065197 235.917302 
L 352.786993 235.917302 
z
" clip-path="url(#pa1211925b7)" style="fill: #008000"/>
   </g>
   <g id="patch_179">
    <path d="M 359.917333 279.830173 
L 364.195537 279.830173 
L 364.195537 278.233342 
L 359.917333 278.233342 
z
" clip-path="url(#pa1211925b7)" style="fill: #008000"/>
   </g>
   <g id="patch_180">
    <path d="M 374.178012 318.154134 
L 378.456216 318.154134 
L 378.456216 284.620668 
L 374.178012 284.620668 
z
" clip-path="url(#pa1211925b7)" style="fill: #008000"/>
   </g>
   <g id="patch_181">
    <path d="M 409.82971 202.383837 
L 414.107913 202.383837 
L 414.107913 201.585421 
L 409.82971 201.585421 
z
" clip-path="url(#pa1211925b7)" style="fill: #008000"/>
   </g>
   <g id="patch_182">
    <path d="M 431.220728 227.933144 
L 435.498932 227.933144 
L 435.498932 203.980668 
L 431.220728 203.980668 
z
" clip-path="url(#pa1211925b7)" style="fill: #008000"/>
   </g>
   <g id="patch_183">
    <path d="M 474.002766 160.866213 
L 478.280969 160.866213 
L 478.280969 152.083639 
L 474.002766 152.083639 
z
" clip-path="url(#pa1211925b7)" style="fill: #008000"/>
   </g>
   <g id="patch_184">
    <path d="M 481.133105 176.036114 
L 485.411309 176.036114 
L 485.411309 160.067797 
L 481.133105 160.067797 
z
" clip-path="url(#pa1211925b7)" style="fill: #008000"/>
   </g>
   <g id="patch_185">
    <path d="M 516.784803 140.107401 
L 521.063007 140.107401 
L 521.063007 120.147005 
L 516.784803 120.147005 
z
" clip-path="url(#pa1211925b7)" style="fill: #008000"/>
   </g>
   <g id="patch_186">
    <path d="M 523.915142 171.245619 
L 528.193346 171.245619 
L 528.193346 144.09948 
L 523.915142 144.09948 
z
" clip-path="url(#pa1211925b7)" style="fill: #008000"/>
   </g>
   <g id="patch_187">
    <path d="M 531.045482 180.028193 
L 535.323686 180.028193 
L 535.323686 156.075718 
L 531.045482 156.075718 
z
" clip-path="url(#pa1211925b7)" style="fill: #008000"/>
   </g>
   <g id="patch_188">
    <path d="M 545.306161 235.118886 
L 549.584365 235.118886 
L 549.584365 223.941064 
L 545.306161 223.941064 
z
" clip-path="url(#pa1211925b7)" style="fill: #008000"/>
   </g>
   <g id="patch_189">
    <path d="M 559.56684 219.150569 
L 563.845044 219.150569 
L 563.845044 199.988589 
L 559.56684 199.988589 
z
" clip-path="url(#pa1211925b7)" style="fill: #008000"/>
   </g>
   <g id="patch_190">
    <path d="M 566.69718 231.925223 
L 570.975383 231.925223 
L 570.975383 223.941064 
L 566.69718 223.941064 
z
" clip-path="url(#pa1211925b7)" style="fill: #008000"/>
   </g>
   <g id="patch_191">
    <path d="M 580.957859 211.964827 
L 585.236062 211.964827 
L 585.236062 192.004431 
L 580.957859 192.004431 
z
" clip-path="url(#pa1211925b7)" style="fill: #008000"/>
   </g>
   <g id="patch_192">
    <path d="M 595.218538 152.083639 
L 599.496742 152.083639 
L 599.496742 104.178688 
L 595.218538 104.178688 
z
" clip-path="url(#pa1211925b7)" style="fill: #008000"/>
   </g>
   <g id="patch_193">
    <path d="M 609.479217 140.107401 
L 613.757421 140.107401 
L 613.757421 112.162847 
L 609.479217 112.162847 
z
" clip-path="url(#pa1211925b7)" style="fill: #008000"/>
   </g>
   <g id="patch_194">
    <path d="M 616.609556 160.067797 
L 620.88776 160.067797 
L 620.88776 140.905817 
L 616.609556 140.905817 
z
" clip-path="url(#pa1211925b7)" style="fill: #008000"/>
   </g>
   <g id="patch_195">
    <path d="M 645.130915 136.115322 
L 649.409118 136.115322 
L 649.409118 128.131163 
L 645.130915 128.131163 
z
" clip-path="url(#pa1211925b7)" style="fill: #008000"/>
   </g>
   <g id="patch_196">
    <path d="M 652.261254 142.502649 
L 656.539458 142.502649 
L 656.539458 139.308985 
L 652.261254 139.308985 
z
" clip-path="url(#pa1211925b7)" style="fill: #008000"/>
   </g>
   <g id="patch_197">
    <path d="M 709.30397 92.20245 
L 713.582174 92.20245 
L 713.582174 64.257896 
L 709.30397 64.257896 
z
" clip-path="url(#pa1211925b7)" style="fill: #008000"/>
   </g>
   <g id="patch_198">
    <path d="M 737.825329 86.61354 
L 742.103532 86.61354 
L 742.103532 64.257896 
L 737.825329 64.257896 
z
" clip-path="url(#pa1211925b7)" style="fill: #008000"/>
   </g>
   <g id="patch_199">
    <path d="M 752.086008 88.210371 
L 756.364211 88.210371 
L 756.364211 81.823045 
L 752.086008 81.823045 
z
" clip-path="url(#pa1211925b7)" style="fill: #008000"/>
   </g>
   <g id="patch_200">
    <path d="M 766.346687 88.210371 
L 770.62489 88.210371 
L 770.62489 80.226213 
L 766.346687 80.226213 
z
" clip-path="url(#pa1211925b7)" style="fill: #008000"/>
   </g>
   <g id="patch_201">
    <path d="M 773.477026 88.210371 
L 777.75523 88.210371 
L 777.75523 80.226213 
L 773.477026 80.226213 
z
" clip-path="url(#pa1211925b7)" style="fill: #008000"/>
   </g>
   <g id="patch_202">
    <path d="M 787.737705 87.411955 
L 792.015909 87.411955 
L 792.015909 80.226213 
L 787.737705 80.226213 
z
" clip-path="url(#pa1211925b7)" style="fill: #008000"/>
   </g>
   <g id="matplotlib.axis_1">
    <g id="xtick_1">
     <g id="line2d_1">
      <defs>
       <path id="m128ea5c7dc" d="M 0 0 
L 0 3.5 
" style="stroke: #000000; stroke-width: 0.8"/>
      </defs>
      <g>
       <use xlink:href="#m128ea5c7dc" x="83.973193" y="467.6575" style="stroke: #000000; stroke-width: 0.8"/>
      </g>
     </g>
     <g id="text_1">
      <!-- 2025-04-28 -->
      <g transform="translate(71.422047 506.830859) rotate(-45) scale(0.08 -0.08)">
       <defs>
        <path id="SimHei-32" d="M 300 250 
Q 325 625 650 925 
Q 975 1225 1475 1862 
Q 1975 2500 2125 2850 
Q 2275 3200 2237 3450 
Q 2200 3700 2000 3862 
Q 1800 4025 1537 4000 
Q 1275 3975 1037 3800 
Q 800 3625 675 3275 
L 200 3350 
Q 400 3925 712 4187 
Q 1025 4450 1450 4475 
Q 1700 4500 1900 4462 
Q 2100 4425 2312 4287 
Q 2525 4150 2662 3875 
Q 2800 3600 2762 3212 
Q 2725 2825 2375 2287 
Q 2025 1750 1025 600 
L 2825 600 
L 2825 150 
L 300 150 
L 300 250 
z
" transform="scale(0.015625)"/>
        <path id="SimHei-30" d="M 225 2537 
Q 250 3200 412 3587 
Q 575 3975 875 4225 
Q 1175 4475 1612 4475 
Q 2050 4475 2375 4112 
Q 2700 3750 2800 3200 
Q 2900 2650 2862 1937 
Q 2825 1225 2612 775 
Q 2400 325 1975 150 
Q 1550 -25 1125 187 
Q 700 400 525 750 
Q 350 1100 275 1487 
Q 200 1875 225 2537 
z
M 750 2687 
Q 675 2000 800 1462 
Q 925 925 1212 700 
Q 1500 475 1800 612 
Q 2100 750 2237 1162 
Q 2375 1575 2375 2062 
Q 2375 2550 2337 2950 
Q 2300 3350 2112 3675 
Q 1925 4000 1612 4012 
Q 1300 4025 1062 3700 
Q 825 3375 750 2687 
z
" transform="scale(0.015625)"/>
        <path id="SimHei-35" d="M 550 1325 
Q 725 650 1150 575 
Q 1575 500 1837 662 
Q 2100 825 2212 1087 
Q 2325 1350 2312 1675 
Q 2300 2000 2137 2225 
Q 1975 2450 1725 2525 
Q 1475 2600 1162 2525 
Q 850 2450 650 2175 
L 225 2225 
Q 275 2375 700 4375 
L 2675 4375 
L 2675 3925 
L 1075 3925 
Q 950 3250 825 2850 
Q 1200 3025 1525 3012 
Q 1850 3000 2150 2862 
Q 2450 2725 2587 2487 
Q 2725 2250 2787 2012 
Q 2850 1775 2837 1500 
Q 2825 1225 2725 937 
Q 2625 650 2425 462 
Q 2225 275 1937 162 
Q 1650 50 1275 75 
Q 900 100 562 350 
Q 225 600 100 1200 
L 550 1325 
z
" transform="scale(0.015625)"/>
        <path id="SimHei-2d" d="M 2975 2125 
L 125 2125 
L 125 2525 
L 2975 2525 
L 2975 2125 
z
" transform="scale(0.015625)"/>
        <path id="SimHei-34" d="M 2000 1100 
L 75 1100 
L 75 1525 
L 2100 4450 
L 2475 4450 
L 2475 1525 
L 3075 1525 
L 3075 1100 
L 2475 1100 
L 2475 150 
L 2000 150 
L 2000 1100 
z
M 2000 1525 
L 2000 3500 
L 600 1525 
L 2000 1525 
z
" transform="scale(0.015625)"/>
        <path id="SimHei-38" d="M 175 1375 
Q 175 1675 325 1962 
Q 475 2250 825 2425 
Q 525 2600 425 2812 
Q 325 3025 312 3300 
Q 300 3575 387 3775 
Q 475 3975 650 4150 
Q 825 4325 1037 4387 
Q 1250 4450 1500 4450 
Q 1750 4450 1950 4400 
Q 2150 4350 2375 4187 
Q 2600 4025 2700 3725 
Q 2800 3425 2687 3025 
Q 2575 2625 2100 2400 
Q 2525 2275 2700 2012 
Q 2875 1750 2875 1375 
Q 2875 1000 2762 775 
Q 2650 550 2512 400 
Q 2375 250 2137 162 
Q 1900 75 1537 75 
Q 1175 75 912 162 
Q 650 250 475 425 
Q 300 600 237 837 
Q 175 1075 175 1375 
z
M 687 1400 
Q 675 1100 787 875 
Q 900 650 1200 587 
Q 1500 525 1825 600 
Q 2150 675 2275 950 
Q 2400 1225 2362 1500 
Q 2325 1775 2050 1962 
Q 1775 2150 1450 2125 
Q 1125 2100 912 1900 
Q 700 1700 687 1400 
z
M 775 3350 
Q 775 3100 950 2875 
Q 1125 2650 1500 2650 
Q 1875 2650 2062 2875 
Q 2250 3100 2237 3412 
Q 2225 3725 2012 3875 
Q 1800 4025 1437 4000 
Q 1075 3975 925 3787 
Q 775 3600 775 3350 
z
" transform="scale(0.015625)"/>
       </defs>
       <use xlink:href="#SimHei-32"/>
       <use xlink:href="#SimHei-30" transform="translate(50 0)"/>
       <use xlink:href="#SimHei-32" transform="translate(100 0)"/>
       <use xlink:href="#SimHei-35" transform="translate(150 0)"/>
       <use xlink:href="#SimHei-2d" transform="translate(200 0)"/>
       <use xlink:href="#SimHei-30" transform="translate(250 0)"/>
       <use xlink:href="#SimHei-34" transform="translate(300 0)"/>
       <use xlink:href="#SimHei-2d" transform="translate(350 0)"/>
       <use xlink:href="#SimHei-32" transform="translate(400 0)"/>
       <use xlink:href="#SimHei-38" transform="translate(450 0)"/>
      </g>
     </g>
    </g>
    <g id="xtick_2">
     <g id="line2d_2">
      <g>
       <use xlink:href="#m128ea5c7dc" x="119.62489" y="467.6575" style="stroke: #000000; stroke-width: 0.8"/>
      </g>
     </g>
     <g id="text_2">
      <!-- 2025-05-20 -->
      <g transform="translate(107.073745 506.830859) rotate(-45) scale(0.08 -0.08)">
       <use xlink:href="#SimHei-32"/>
       <use xlink:href="#SimHei-30" transform="translate(50 0)"/>
       <use xlink:href="#SimHei-32" transform="translate(100 0)"/>
       <use xlink:href="#SimHei-35" transform="translate(150 0)"/>
       <use xlink:href="#SimHei-2d" transform="translate(200 0)"/>
       <use xlink:href="#SimHei-30" transform="translate(250 0)"/>
       <use xlink:href="#SimHei-35" transform="translate(300 0)"/>
       <use xlink:href="#SimHei-2d" transform="translate(350 0)"/>
       <use xlink:href="#SimHei-32" transform="translate(400 0)"/>
       <use xlink:href="#SimHei-30" transform="translate(450 0)"/>
      </g>
     </g>
    </g>
    <g id="xtick_3">
     <g id="line2d_3">
      <g>
       <use xlink:href="#m128ea5c7dc" x="155.276588" y="467.6575" style="stroke: #000000; stroke-width: 0.8"/>
      </g>
     </g>
     <g id="text_3">
      <!-- 2025-05-27 -->
      <g transform="translate(142.725443 506.830859) rotate(-45) scale(0.08 -0.08)">
       <defs>
        <path id="SimHei-37" d="M 850 150 
Q 1300 2050 2425 3925 
L 275 3925 
L 275 4375 
L 2950 4375 
L 2950 3950 
Q 1775 2050 1400 150 
L 850 150 
z
" transform="scale(0.015625)"/>
       </defs>
       <use xlink:href="#SimHei-32"/>
       <use xlink:href="#SimHei-30" transform="translate(50 0)"/>
       <use xlink:href="#SimHei-32" transform="translate(100 0)"/>
       <use xlink:href="#SimHei-35" transform="translate(150 0)"/>
       <use xlink:href="#SimHei-2d" transform="translate(200 0)"/>
       <use xlink:href="#SimHei-30" transform="translate(250 0)"/>
       <use xlink:href="#SimHei-35" transform="translate(300 0)"/>
       <use xlink:href="#SimHei-2d" transform="translate(350 0)"/>
       <use xlink:href="#SimHei-32" transform="translate(400 0)"/>
       <use xlink:href="#SimHei-37" transform="translate(450 0)"/>
      </g>
     </g>
    </g>
    <g id="xtick_4">
     <g id="line2d_4">
      <g>
       <use xlink:href="#m128ea5c7dc" x="190.928286" y="467.6575" style="stroke: #000000; stroke-width: 0.8"/>
      </g>
     </g>
     <g id="text_4">
      <!-- 2025-06-06 -->
      <g transform="translate(178.377141 506.830859) rotate(-45) scale(0.08 -0.08)">
       <defs>
        <path id="SimHei-36" d="M 250 1612 
Q 275 1975 387 2225 
Q 500 2475 725 2850 
L 1750 4450 
L 2325 4450 
L 1275 2800 
Q 1950 2975 2350 2750 
Q 2750 2525 2887 2237 
Q 3025 1950 3037 1612 
Q 3050 1275 2937 950 
Q 2825 625 2537 362 
Q 2250 100 1737 75 
Q 1225 50 862 262 
Q 500 475 362 862 
Q 225 1250 250 1612 
z
M 1025 787 
Q 1250 550 1625 525 
Q 2000 500 2250 775 
Q 2500 1050 2500 1575 
Q 2500 2100 2187 2300 
Q 1875 2500 1487 2450 
Q 1100 2400 925 2075 
Q 750 1750 775 1387 
Q 800 1025 1025 787 
z
" transform="scale(0.015625)"/>
       </defs>
       <use xlink:href="#SimHei-32"/>
       <use xlink:href="#SimHei-30" transform="translate(50 0)"/>
       <use xlink:href="#SimHei-32" transform="translate(100 0)"/>
       <use xlink:href="#SimHei-35" transform="translate(150 0)"/>
       <use xlink:href="#SimHei-2d" transform="translate(200 0)"/>
       <use xlink:href="#SimHei-30" transform="translate(250 0)"/>
       <use xlink:href="#SimHei-36" transform="translate(300 0)"/>
       <use xlink:href="#SimHei-2d" transform="translate(350 0)"/>
       <use xlink:href="#SimHei-30" transform="translate(400 0)"/>
       <use xlink:href="#SimHei-36" transform="translate(450 0)"/>
      </g>
     </g>
    </g>
    <g id="xtick_5">
     <g id="line2d_5">
      <g>
       <use xlink:href="#m128ea5c7dc" x="226.579984" y="467.6575" style="stroke: #000000; stroke-width: 0.8"/>
      </g>
     </g>
     <g id="text_5">
      <!-- 2025-06-20 -->
      <g transform="translate(214.028838 506.830859) rotate(-45) scale(0.08 -0.08)">
       <use xlink:href="#SimHei-32"/>
       <use xlink:href="#SimHei-30" transform="translate(50 0)"/>
       <use xlink:href="#SimHei-32" transform="translate(100 0)"/>
       <use xlink:href="#SimHei-35" transform="translate(150 0)"/>
       <use xlink:href="#SimHei-2d" transform="translate(200 0)"/>
       <use xlink:href="#SimHei-30" transform="translate(250 0)"/>
       <use xlink:href="#SimHei-36" transform="translate(300 0)"/>
       <use xlink:href="#SimHei-2d" transform="translate(350 0)"/>
       <use xlink:href="#SimHei-32" transform="translate(400 0)"/>
       <use xlink:href="#SimHei-30" transform="translate(450 0)"/>
      </g>
     </g>
    </g>
    <g id="xtick_6">
     <g id="line2d_6">
      <g>
       <use xlink:href="#m128ea5c7dc" x="262.231681" y="467.6575" style="stroke: #000000; stroke-width: 0.8"/>
      </g>
     </g>
     <g id="text_6">
      <!-- 2025-06-30 -->
      <g transform="translate(249.680536 506.830859) rotate(-45) scale(0.08 -0.08)">
       <defs>
        <path id="SimHei-33" d="M 250 1225 
L 700 1300 
Q 800 975 1025 762 
Q 1250 550 1587 562 
Q 1925 575 2125 837 
Q 2325 1100 2300 1437 
Q 2275 1775 2037 1962 
Q 1800 2150 1275 2225 
L 1275 2550 
Q 1800 2600 2037 2825 
Q 2275 3050 2250 3412 
Q 2225 3775 1925 3937 
Q 1625 4100 1287 3975 
Q 950 3850 750 3275 
L 300 3350 
Q 450 3800 712 4100 
Q 975 4400 1425 4450 
Q 1875 4500 2212 4337 
Q 2550 4175 2687 3837 
Q 2825 3500 2725 3100 
Q 2625 2700 2150 2400 
Q 2500 2250 2687 1950 
Q 2875 1650 2812 1162 
Q 2750 675 2375 375 
Q 2000 75 1525 87 
Q 1050 100 700 387 
Q 350 675 250 1225 
z
" transform="scale(0.015625)"/>
       </defs>
       <use xlink:href="#SimHei-32"/>
       <use xlink:href="#SimHei-30" transform="translate(50 0)"/>
       <use xlink:href="#SimHei-32" transform="translate(100 0)"/>
       <use xlink:href="#SimHei-35" transform="translate(150 0)"/>
       <use xlink:href="#SimHei-2d" transform="translate(200 0)"/>
       <use xlink:href="#SimHei-30" transform="translate(250 0)"/>
       <use xlink:href="#SimHei-36" transform="translate(300 0)"/>
       <use xlink:href="#SimHei-2d" transform="translate(350 0)"/>
       <use xlink:href="#SimHei-33" transform="translate(400 0)"/>
       <use xlink:href="#SimHei-30" transform="translate(450 0)"/>
      </g>
     </g>
    </g>
    <g id="xtick_7">
     <g id="line2d_7">
      <g>
       <use xlink:href="#m128ea5c7dc" x="297.883379" y="467.6575" style="stroke: #000000; stroke-width: 0.8"/>
      </g>
     </g>
     <g id="text_7">
      <!-- 2025-07-10 -->
      <g transform="translate(285.332234 506.830859) rotate(-45) scale(0.08 -0.08)">
       <defs>
        <path id="SimHei-31" d="M 1400 3600 
Q 1075 3275 575 2975 
L 575 3450 
Q 1200 3875 1600 4450 
L 1900 4450 
L 1900 150 
L 1400 150 
L 1400 3600 
z
" transform="scale(0.015625)"/>
       </defs>
       <use xlink:href="#SimHei-32"/>
       <use xlink:href="#SimHei-30" transform="translate(50 0)"/>
       <use xlink:href="#SimHei-32" transform="translate(100 0)"/>
       <use xlink:href="#SimHei-35" transform="translate(150 0)"/>
       <use xlink:href="#SimHei-2d" transform="translate(200 0)"/>
       <use xlink:href="#SimHei-30" transform="translate(250 0)"/>
       <use xlink:href="#SimHei-37" transform="translate(300 0)"/>
       <use xlink:href="#SimHei-2d" transform="translate(350 0)"/>
       <use xlink:href="#SimHei-31" transform="translate(400 0)"/>
       <use xlink:href="#SimHei-30" transform="translate(450 0)"/>
      </g>
     </g>
    </g>
    <g id="xtick_8">
     <g id="line2d_8">
      <g>
       <use xlink:href="#m128ea5c7dc" x="333.535077" y="467.6575" style="stroke: #000000; stroke-width: 0.8"/>
      </g>
     </g>
     <g id="text_8">
      <!-- 2025-07-22 -->
      <g transform="translate(320.983931 506.830859) rotate(-45) scale(0.08 -0.08)">
       <use xlink:href="#SimHei-32"/>
       <use xlink:href="#SimHei-30" transform="translate(50 0)"/>
       <use xlink:href="#SimHei-32" transform="translate(100 0)"/>
       <use xlink:href="#SimHei-35" transform="translate(150 0)"/>
       <use xlink:href="#SimHei-2d" transform="translate(200 0)"/>
       <use xlink:href="#SimHei-30" transform="translate(250 0)"/>
       <use xlink:href="#SimHei-37" transform="translate(300 0)"/>
       <use xlink:href="#SimHei-2d" transform="translate(350 0)"/>
       <use xlink:href="#SimHei-32" transform="translate(400 0)"/>
       <use xlink:href="#SimHei-32" transform="translate(450 0)"/>
      </g>
     </g>
    </g>
    <g id="xtick_9">
     <g id="line2d_9">
      <g>
       <use xlink:href="#m128ea5c7dc" x="369.186774" y="467.6575" style="stroke: #000000; stroke-width: 0.8"/>
      </g>
     </g>
     <g id="text_9">
      <!-- 2025-07-30 -->
      <g transform="translate(356.635629 506.830859) rotate(-45) scale(0.08 -0.08)">
       <use xlink:href="#SimHei-32"/>
       <use xlink:href="#SimHei-30" transform="translate(50 0)"/>
       <use xlink:href="#SimHei-32" transform="translate(100 0)"/>
       <use xlink:href="#SimHei-35" transform="translate(150 0)"/>
       <use xlink:href="#SimHei-2d" transform="translate(200 0)"/>
       <use xlink:href="#SimHei-30" transform="translate(250 0)"/>
       <use xlink:href="#SimHei-37" transform="translate(300 0)"/>
       <use xlink:href="#SimHei-2d" transform="translate(350 0)"/>
       <use xlink:href="#SimHei-33" transform="translate(400 0)"/>
       <use xlink:href="#SimHei-30" transform="translate(450 0)"/>
      </g>
     </g>
    </g>
    <g id="xtick_10">
     <g id="line2d_10">
      <g>
       <use xlink:href="#m128ea5c7dc" x="404.838472" y="467.6575" style="stroke: #000000; stroke-width: 0.8"/>
      </g>
     </g>
     <g id="text_10">
      <!-- 2025-08-19 -->
      <g transform="translate(392.287327 506.830859) rotate(-45) scale(0.08 -0.08)">
       <defs>
        <path id="SimHei-39" d="M 800 75 
Q 1350 1000 1700 1750 
Q 1075 1650 662 1912 
Q 250 2175 162 2625 
Q 75 3075 175 3437 
Q 275 3800 487 4037 
Q 700 4275 1000 4375 
Q 1300 4475 1537 4475 
Q 1775 4475 2025 4375 
Q 2275 4275 2475 4075 
Q 2675 3875 2750 3662 
Q 2825 3450 2825 3112 
Q 2825 2775 2575 2250 
Q 2325 1725 1350 75 
L 800 75 
z
M 662 2875 
Q 700 2550 937 2337 
Q 1175 2125 1450 2150 
Q 1725 2175 1887 2300 
Q 2050 2425 2200 2725 
Q 2300 3100 2250 3362 
Q 2200 3625 1987 3800 
Q 1775 3975 1525 3975 
Q 1375 4000 1137 3900 
Q 900 3800 762 3500 
Q 625 3200 662 2875 
z
" transform="scale(0.015625)"/>
       </defs>
       <use xlink:href="#SimHei-32"/>
       <use xlink:href="#SimHei-30" transform="translate(50 0)"/>
       <use xlink:href="#SimHei-32" transform="translate(100 0)"/>
       <use xlink:href="#SimHei-35" transform="translate(150 0)"/>
       <use xlink:href="#SimHei-2d" transform="translate(200 0)"/>
       <use xlink:href="#SimHei-30" transform="translate(250 0)"/>
       <use xlink:href="#SimHei-38" transform="translate(300 0)"/>
       <use xlink:href="#SimHei-2d" transform="translate(350 0)"/>
       <use xlink:href="#SimHei-31" transform="translate(400 0)"/>
       <use xlink:href="#SimHei-39" transform="translate(450 0)"/>
      </g>
     </g>
    </g>
    <g id="xtick_11">
     <g id="line2d_11">
      <g>
       <use xlink:href="#m128ea5c7dc" x="440.49017" y="467.6575" style="stroke: #000000; stroke-width: 0.8"/>
      </g>
     </g>
     <g id="text_11">
      <!-- 2025-09-04 -->
      <g transform="translate(427.939024 506.830859) rotate(-45) scale(0.08 -0.08)">
       <use xlink:href="#SimHei-32"/>
       <use xlink:href="#SimHei-30" transform="translate(50 0)"/>
       <use xlink:href="#SimHei-32" transform="translate(100 0)"/>
       <use xlink:href="#SimHei-35" transform="translate(150 0)"/>
       <use xlink:href="#SimHei-2d" transform="translate(200 0)"/>
       <use xlink:href="#SimHei-30" transform="translate(250 0)"/>
       <use xlink:href="#SimHei-39" transform="translate(300 0)"/>
       <use xlink:href="#SimHei-2d" transform="translate(350 0)"/>
       <use xlink:href="#SimHei-30" transform="translate(400 0)"/>
       <use xlink:href="#SimHei-34" transform="translate(450 0)"/>
      </g>
     </g>
    </g>
    <g id="xtick_12">
     <g id="line2d_12">
      <g>
       <use xlink:href="#m128ea5c7dc" x="476.141867" y="467.6575" style="stroke: #000000; stroke-width: 0.8"/>
      </g>
     </g>
     <g id="text_12">
      <!-- 2025-09-12 -->
      <g transform="translate(463.590722 506.830859) rotate(-45) scale(0.08 -0.08)">
       <use xlink:href="#SimHei-32"/>
       <use xlink:href="#SimHei-30" transform="translate(50 0)"/>
       <use xlink:href="#SimHei-32" transform="translate(100 0)"/>
       <use xlink:href="#SimHei-35" transform="translate(150 0)"/>
       <use xlink:href="#SimHei-2d" transform="translate(200 0)"/>
       <use xlink:href="#SimHei-30" transform="translate(250 0)"/>
       <use xlink:href="#SimHei-39" transform="translate(300 0)"/>
       <use xlink:href="#SimHei-2d" transform="translate(350 0)"/>
       <use xlink:href="#SimHei-31" transform="translate(400 0)"/>
       <use xlink:href="#SimHei-32" transform="translate(450 0)"/>
      </g>
     </g>
    </g>
    <g id="xtick_13">
     <g id="line2d_13">
      <g>
       <use xlink:href="#m128ea5c7dc" x="511.793565" y="467.6575" style="stroke: #000000; stroke-width: 0.8"/>
      </g>
     </g>
     <g id="text_13">
      <!-- 2025-09-24 -->
      <g transform="translate(499.24242 506.830859) rotate(-45) scale(0.08 -0.08)">
       <use xlink:href="#SimHei-32"/>
       <use xlink:href="#SimHei-30" transform="translate(50 0)"/>
       <use xlink:href="#SimHei-32" transform="translate(100 0)"/>
       <use xlink:href="#SimHei-35" transform="translate(150 0)"/>
       <use xlink:href="#SimHei-2d" transform="translate(200 0)"/>
       <use xlink:href="#SimHei-30" transform="translate(250 0)"/>
       <use xlink:href="#SimHei-39" transform="translate(300 0)"/>
       <use xlink:href="#SimHei-2d" transform="translate(350 0)"/>
       <use xlink:href="#SimHei-32" transform="translate(400 0)"/>
       <use xlink:href="#SimHei-34" transform="translate(450 0)"/>
      </g>
     </g>
    </g>
    <g id="xtick_14">
     <g id="line2d_14">
      <g>
       <use xlink:href="#m128ea5c7dc" x="547.445263" y="467.6575" style="stroke: #000000; stroke-width: 0.8"/>
      </g>
     </g>
     <g id="text_14">
      <!-- 2025-10-11 -->
      <g transform="translate(534.894118 506.830859) rotate(-45) scale(0.08 -0.08)">
       <use xlink:href="#SimHei-32"/>
       <use xlink:href="#SimHei-30" transform="translate(50 0)"/>
       <use xlink:href="#SimHei-32" transform="translate(100 0)"/>
       <use xlink:href="#SimHei-35" transform="translate(150 0)"/>
       <use xlink:href="#SimHei-2d" transform="translate(200 0)"/>
       <use xlink:href="#SimHei-31" transform="translate(250 0)"/>
       <use xlink:href="#SimHei-30" transform="translate(300 0)"/>
       <use xlink:href="#SimHei-2d" transform="translate(350 0)"/>
       <use xlink:href="#SimHei-31" transform="translate(400 0)"/>
       <use xlink:href="#SimHei-31" transform="translate(450 0)"/>
      </g>
     </g>
    </g>
    <g id="xtick_15">
     <g id="line2d_15">
      <g>
       <use xlink:href="#m128ea5c7dc" x="583.096961" y="467.6575" style="stroke: #000000; stroke-width: 0.8"/>
      </g>
     </g>
     <g id="text_15">
      <!-- 2025-10-21 -->
      <g transform="translate(570.545815 506.830859) rotate(-45) scale(0.08 -0.08)">
       <use xlink:href="#SimHei-32"/>
       <use xlink:href="#SimHei-30" transform="translate(50 0)"/>
       <use xlink:href="#SimHei-32" transform="translate(100 0)"/>
       <use xlink:href="#SimHei-35" transform="translate(150 0)"/>
       <use xlink:href="#SimHei-2d" transform="translate(200 0)"/>
       <use xlink:href="#SimHei-31" transform="translate(250 0)"/>
       <use xlink:href="#SimHei-30" transform="translate(300 0)"/>
       <use xlink:href="#SimHei-2d" transform="translate(350 0)"/>
       <use xlink:href="#SimHei-32" transform="translate(400 0)"/>
       <use xlink:href="#SimHei-31" transform="translate(450 0)"/>
      </g>
     </g>
    </g>
    <g id="xtick_16">
     <g id="line2d_16">
      <g>
       <use xlink:href="#m128ea5c7dc" x="618.748658" y="467.6575" style="stroke: #000000; stroke-width: 0.8"/>
      </g>
     </g>
     <g id="text_16">
      <!-- 2025-11-04 -->
      <g transform="translate(606.197513 506.830859) rotate(-45) scale(0.08 -0.08)">
       <use xlink:href="#SimHei-32"/>
       <use xlink:href="#SimHei-30" transform="translate(50 0)"/>
       <use xlink:href="#SimHei-32" transform="translate(100 0)"/>
       <use xlink:href="#SimHei-35" transform="translate(150 0)"/>
       <use xlink:href="#SimHei-2d" transform="translate(200 0)"/>
       <use xlink:href="#SimHei-31" transform="translate(250 0)"/>
       <use xlink:href="#SimHei-31" transform="translate(300 0)"/>
       <use xlink:href="#SimHei-2d" transform="translate(350 0)"/>
       <use xlink:href="#SimHei-30" transform="translate(400 0)"/>
       <use xlink:href="#SimHei-34" transform="translate(450 0)"/>
      </g>
     </g>
    </g>
    <g id="xtick_17">
     <g id="line2d_17">
      <g>
       <use xlink:href="#m128ea5c7dc" x="654.400356" y="467.6575" style="stroke: #000000; stroke-width: 0.8"/>
      </g>
     </g>
     <g id="text_17">
      <!-- 2025-11-12 -->
      <g transform="translate(641.849211 506.830859) rotate(-45) scale(0.08 -0.08)">
       <use xlink:href="#SimHei-32"/>
       <use xlink:href="#SimHei-30" transform="translate(50 0)"/>
       <use xlink:href="#SimHei-32" transform="translate(100 0)"/>
       <use xlink:href="#SimHei-35" transform="translate(150 0)"/>
       <use xlink:href="#SimHei-2d" transform="translate(200 0)"/>
       <use xlink:href="#SimHei-31" transform="translate(250 0)"/>
       <use xlink:href="#SimHei-31" transform="translate(300 0)"/>
       <use xlink:href="#SimHei-2d" transform="translate(350 0)"/>
       <use xlink:href="#SimHei-31" transform="translate(400 0)"/>
       <use xlink:href="#SimHei-32" transform="translate(450 0)"/>
      </g>
     </g>
    </g>
    <g id="xtick_18">
     <g id="line2d_18">
      <g>
       <use xlink:href="#m128ea5c7dc" x="690.052054" y="467.6575" style="stroke: #000000; stroke-width: 0.8"/>
      </g>
     </g>
     <g id="text_18">
      <!-- 2025-11-25 -->
      <g transform="translate(677.500908 506.830859) rotate(-45) scale(0.08 -0.08)">
       <use xlink:href="#SimHei-32"/>
       <use xlink:href="#SimHei-30" transform="translate(50 0)"/>
       <use xlink:href="#SimHei-32" transform="translate(100 0)"/>
       <use xlink:href="#SimHei-35" transform="translate(150 0)"/>
       <use xlink:href="#SimHei-2d" transform="translate(200 0)"/>
       <use xlink:href="#SimHei-31" transform="translate(250 0)"/>
       <use xlink:href="#SimHei-31" transform="translate(300 0)"/>
       <use xlink:href="#SimHei-2d" transform="translate(350 0)"/>
       <use xlink:href="#SimHei-32" transform="translate(400 0)"/>
       <use xlink:href="#SimHei-35" transform="translate(450 0)"/>
      </g>
     </g>
    </g>
    <g id="xtick_19">
     <g id="line2d_19">
      <g>
       <use xlink:href="#m128ea5c7dc" x="725.703751" y="467.6575" style="stroke: #000000; stroke-width: 0.8"/>
      </g>
     </g>
     <g id="text_19">
      <!-- 2025-12-12 -->
      <g transform="translate(713.152606 506.830859) rotate(-45) scale(0.08 -0.08)">
       <use xlink:href="#SimHei-32"/>
       <use xlink:href="#SimHei-30" transform="translate(50 0)"/>
       <use xlink:href="#SimHei-32" transform="translate(100 0)"/>
       <use xlink:href="#SimHei-35" transform="translate(150 0)"/>
       <use xlink:href="#SimHei-2d" transform="translate(200 0)"/>
       <use xlink:href="#SimHei-31" transform="translate(250 0)"/>
       <use xlink:href="#SimHei-32" transform="translate(300 0)"/>
       <use xlink:href="#SimHei-2d" transform="translate(350 0)"/>
       <use xlink:href="#SimHei-31" transform="translate(400 0)"/>
       <use xlink:href="#SimHei-32" transform="translate(450 0)"/>
      </g>
     </g>
    </g>
    <g id="xtick_20">
     <g id="line2d_20">
      <g>
       <use xlink:href="#m128ea5c7dc" x="761.355449" y="467.6575" style="stroke: #000000; stroke-width: 0.8"/>
      </g>
     </g>
     <g id="text_20">
      <!-- 2025-12-22 -->
      <g transform="translate(748.804304 506.830859) rotate(-45) scale(0.08 -0.08)">
       <use xlink:href="#SimHei-32"/>
       <use xlink:href="#SimHei-30" transform="translate(50 0)"/>
       <use xlink:href="#SimHei-32" transform="translate(100 0)"/>
       <use xlink:href="#SimHei-35" transform="translate(150 0)"/>
       <use xlink:href="#SimHei-2d" transform="translate(200 0)"/>
       <use xlink:href="#SimHei-31" transform="translate(250 0)"/>
       <use xlink:href="#SimHei-32" transform="translate(300 0)"/>
       <use xlink:href="#SimHei-2d" transform="translate(350 0)"/>
       <use xlink:href="#SimHei-32" transform="translate(400 0)"/>
       <use xlink:href="#SimHei-32" transform="translate(450 0)"/>
      </g>
     </g>
    </g>
   </g>
   <g id="matplotlib.axis_2">
    <g id="ytick_1">
     <g id="line2d_21">
      <defs>
       <path id="m06bbfa7c9e" d="M 0 0 
L -3.5 0 
" style="stroke: #000000; stroke-width: 0.8"/>
      </defs>
      <g>
       <use xlink:href="#m06bbfa7c9e" x="46.325" y="463.465817" style="stroke: #000000; stroke-width: 0.8"/>
      </g>
     </g>
     <g id="text_21">
      <!-- 1.60 -->
      <g transform="translate(19.325 466.903317) scale(0.1 -0.1)">
       <defs>
        <path id="SimHei-2e" d="M 1075 125 
L 500 125 
L 500 675 
L 1075 675 
L 1075 125 
z
" transform="scale(0.015625)"/>
       </defs>
       <use xlink:href="#SimHei-31"/>
       <use xlink:href="#SimHei-2e" transform="translate(50 0)"/>
       <use xlink:href="#SimHei-36" transform="translate(100 0)"/>
       <use xlink:href="#SimHei-30" transform="translate(150 0)"/>
      </g>
     </g>
    </g>
    <g id="ytick_2">
     <g id="line2d_22">
      <g>
       <use xlink:href="#m06bbfa7c9e" x="46.325" y="383.624233" style="stroke: #000000; stroke-width: 0.8"/>
      </g>
     </g>
     <g id="text_22">
      <!-- 1.65 -->
      <g transform="translate(19.325 387.061733) scale(0.1 -0.1)">
       <use xlink:href="#SimHei-31"/>
       <use xlink:href="#SimHei-2e" transform="translate(50 0)"/>
       <use xlink:href="#SimHei-36" transform="translate(100 0)"/>
       <use xlink:href="#SimHei-35" transform="translate(150 0)"/>
      </g>
     </g>
    </g>
    <g id="ytick_3">
     <g id="line2d_23">
      <g>
       <use xlink:href="#m06bbfa7c9e" x="46.325" y="303.782649" style="stroke: #000000; stroke-width: 0.8"/>
      </g>
     </g>
     <g id="text_23">
      <!-- 1.70 -->
      <g transform="translate(19.325 307.220149) scale(0.1 -0.1)">
       <use xlink:href="#SimHei-31"/>
       <use xlink:href="#SimHei-2e" transform="translate(50 0)"/>
       <use xlink:href="#SimHei-37" transform="translate(100 0)"/>
       <use xlink:href="#SimHei-30" transform="translate(150 0)"/>
      </g>
     </g>
    </g>
    <g id="ytick_4">
     <g id="line2d_24">
      <g>
       <use xlink:href="#m06bbfa7c9e" x="46.325" y="223.941064" style="stroke: #000000; stroke-width: 0.8"/>
      </g>
     </g>
     <g id="text_24">
      <!-- 1.75 -->
      <g transform="translate(19.325 227.378564) scale(0.1 -0.1)">
       <use xlink:href="#SimHei-31"/>
       <use xlink:href="#SimHei-2e" transform="translate(50 0)"/>
       <use xlink:href="#SimHei-37" transform="translate(100 0)"/>
       <use xlink:href="#SimHei-35" transform="translate(150 0)"/>
      </g>
     </g>
    </g>
    <g id="ytick_5">
     <g id="line2d_25">
      <g>
       <use xlink:href="#m06bbfa7c9e" x="46.325" y="144.09948" style="stroke: #000000; stroke-width: 0.8"/>
      </g>
     </g>
     <g id="text_25">
      <!-- 1.80 -->
      <g transform="translate(19.325 147.53698) scale(0.1 -0.1)">
       <use xlink:href="#SimHei-31"/>
       <use xlink:href="#SimHei-2e" transform="translate(50 0)"/>
       <use xlink:href="#SimHei-38" transform="translate(100 0)"/>
       <use xlink:href="#SimHei-30" transform="translate(150 0)"/>
      </g>
     </g>
    </g>
    <g id="ytick_6">
     <g id="line2d_26">
      <g>
       <use xlink:href="#m06bbfa7c9e" x="46.325" y="64.257896" style="stroke: #000000; stroke-width: 0.8"/>
      </g>
     </g>
     <g id="text_26">
      <!-- 1.85 -->
      <g transform="translate(19.325 67.695396) scale(0.1 -0.1)">
       <use xlink:href="#SimHei-31"/>
       <use xlink:href="#SimHei-2e" transform="translate(50 0)"/>
       <use xlink:href="#SimHei-38" transform="translate(100 0)"/>
       <use xlink:href="#SimHei-35" transform="translate(150 0)"/>
      </g>
     </g>
    </g>
    <g id="text_27">
     <!-- Price -->
     <g transform="translate(14.075 258.3975) rotate(-90) scale(0.1 -0.1)">
      <defs>
       <path id="SimHei-50" d="M 2950 3100 
Q 2950 2500 2600 2150 
Q 2250 1800 1625 1800 
L 900 1800 
L 900 125 
L 325 125 
L 325 4400 
L 1625 4400 
Q 2250 4400 2600 4050 
Q 2950 3700 2950 3100 
z
M 2375 3100 
Q 2375 3575 2150 3750 
Q 1925 3925 1475 3925 
L 900 3925 
L 900 2275 
L 1475 2275 
Q 1925 2275 2150 2450 
Q 2375 2625 2375 3100 
z
" transform="scale(0.015625)"/>
       <path id="SimHei-72" d="M 2500 2425 
Q 2025 2500 1700 2287 
Q 1375 2075 1150 1550 
L 1150 125 
L 650 125 
L 650 2925 
L 1150 2925 
L 1150 2200 
Q 1375 2600 1712 2787 
Q 2050 2975 2500 2975 
L 2500 2425 
z
" transform="scale(0.015625)"/>
       <path id="SimHei-69" d="M 1800 3725 
L 1300 3725 
L 1300 4375 
L 1800 4375 
L 1800 3725 
z
M 1800 125 
L 1300 125 
L 1300 2925 
L 1800 2925 
L 1800 125 
z
" transform="scale(0.015625)"/>
       <path id="SimHei-63" d="M 2850 1250 
Q 2850 725 2487 400 
Q 2125 75 1575 75 
Q 1025 75 625 462 
Q 225 850 225 1525 
Q 225 2200 625 2587 
Q 1025 2975 1575 2975 
Q 2125 2975 2450 2687 
Q 2775 2400 2775 2000 
L 2225 2000 
Q 2200 2300 2012 2412 
Q 1825 2525 1575 2525 
Q 1275 2525 1025 2287 
Q 775 2050 775 1525 
Q 775 1000 1025 762 
Q 1275 525 1575 525 
Q 1900 525 2100 700 
Q 2300 875 2300 1250 
L 2850 1250 
z
" transform="scale(0.015625)"/>
       <path id="SimHei-65" d="M 2850 1075 
Q 2800 625 2450 350 
Q 2100 75 1625 75 
Q 1025 75 637 462 
Q 250 850 250 1525 
Q 250 2200 637 2587 
Q 1025 2975 1625 2975 
Q 2150 2975 2487 2637 
Q 2825 2300 2825 1525 
L 800 1525 
Q 800 975 1037 750 
Q 1275 525 1625 525 
Q 1900 525 2075 662 
Q 2250 800 2300 1075 
L 2850 1075 
z
M 2250 1925 
Q 2200 2275 2025 2412 
Q 1850 2550 1575 2550 
Q 1325 2550 1125 2412 
Q 925 2275 825 1925 
L 2250 1925 
z
" transform="scale(0.015625)"/>
      </defs>
      <use xlink:href="#SimHei-50"/>
      <use xlink:href="#SimHei-72" transform="translate(50 0)"/>
      <use xlink:href="#SimHei-69" transform="translate(100 0)"/>
      <use xlink:href="#SimHei-63" transform="translate(150 0)"/>
      <use xlink:href="#SimHei-65" transform="translate(200 0)"/>
     </g>
    </g>
   </g>
   <g id="line2d_27">
    <path d="M 91.103532 447.4975 
L 162.406928 294.201658 
" clip-path="url(#pa1211925b7)" style="fill: none; stroke: #800080; stroke-opacity: 0.8; stroke-width: 1.5; stroke-linecap: square"/>
   </g>
   <g id="line2d_28">
    <path d="M 276.49236 408.375124 
L 411.968812 156.075718 
" clip-path="url(#pa1211925b7)" style="fill: none; stroke: #800080; stroke-opacity: 0.8; stroke-width: 1.5; stroke-linecap: square"/>
   </g>
   <g id="line2d_29">
    <path d="M 440.49017 244.699876 
L 518.923905 86.61354 
" clip-path="url(#pa1211925b7)" style="fill: none; stroke: #800080; stroke-opacity: 0.8; stroke-width: 1.5; stroke-linecap: square"/>
   </g>
   <g id="line2d_30">
    <path d="M 654.400356 147.293144 
L 761.355449 67.451559 
" clip-path="url(#pa1211925b7)" style="fill: none; stroke: #800080; stroke-opacity: 0.8; stroke-width: 1.5; stroke-linecap: square"/>
   </g>
   <g id="patch_203">
    <path d="M 46.325 467.6575 
L 46.325 24.1375 
" style="fill: none; stroke: #000000; stroke-width: 0.8; stroke-linejoin: miter; stroke-linecap: square"/>
   </g>
   <g id="patch_204">
    <path d="M 827.525 467.6575 
L 827.525 24.1375 
" style="fill: none; stroke: #000000; stroke-width: 0.8; stroke-linejoin: miter; stroke-linecap: square"/>
   </g>
   <g id="patch_205">
    <path d="M 46.325 467.6575 
L 827.525 467.6575 
" style="fill: none; stroke: #000000; stroke-width: 0.8; stroke-linejoin: miter; stroke-linecap: square"/>
   </g>
   <g id="patch_206">
    <path d="M 46.325 24.1375 
L 827.525 24.1375 
" style="fill: none; stroke: #000000; stroke-width: 0.8; stroke-linejoin: miter; stroke-linecap: square"/>
   </g>
   <g id="text_28">
    <!-- B 1.61 -->
    <g style="fill: #0000ff" transform="translate(93.242634 452.639298) scale(0.08 -0.08)">
     <defs>
      <path id="SimHei-42" d="M 2950 1400 
Q 2950 675 2550 400 
Q 2150 125 1525 125 
L 275 125 
L 275 4400 
L 1575 4400 
Q 2200 4400 2512 4075 
Q 2825 3750 2825 3300 
Q 2825 2850 2612 2637 
Q 2400 2425 2175 2350 
Q 2475 2275 2712 2037 
Q 2950 1800 2950 1400 
z
M 2250 3300 
Q 2250 3625 2062 3775 
Q 1875 3925 1600 3925 
L 850 3925 
L 850 2600 
L 1575 2600 
Q 1850 2600 2050 2762 
Q 2250 2925 2250 3300 
z
M 2350 1400 
Q 2350 1800 2087 1962 
Q 1825 2125 1500 2125 
L 850 2125 
L 850 600 
L 1425 600 
Q 1875 600 2112 775 
Q 2350 950 2350 1400 
z
" transform="scale(0.015625)"/>
      <path id="SimHei-20" transform="scale(0.015625)"/>
     </defs>
     <use xlink:href="#SimHei-42"/>
     <use xlink:href="#SimHei-20" transform="translate(50 0)"/>
     <use xlink:href="#SimHei-31" transform="translate(100 0)"/>
     <use xlink:href="#SimHei-2e" transform="translate(150 0)"/>
     <use xlink:href="#SimHei-36" transform="translate(200 0)"/>
     <use xlink:href="#SimHei-31" transform="translate(250 0)"/>
    </g>
   </g>
   <g id="text_29">
    <!-- Tx -->
    <g style="fill: #808080" transform="translate(143.155011 297.871178) scale(0.08 -0.08)">
     <defs>
      <path id="SimHei-54" d="M 2850 3925 
L 1850 3925 
L 1850 125 
L 1275 125 
L 1275 3925 
L 275 3925 
L 275 4400 
L 2850 4400 
L 2850 3925 
z
" transform="scale(0.015625)"/>
      <path id="SimHei-78" d="M 2875 125 
L 2275 125 
L 1550 1200 
L 825 125 
L 225 125 
L 1250 1550 
L 300 2925 
L 900 2925 
L 1550 1875 
L 2200 2925 
L 2800 2925 
L 1850 1550 
L 2875 125 
z
" transform="scale(0.015625)"/>
     </defs>
     <use xlink:href="#SimHei-54"/>
     <use xlink:href="#SimHei-78" transform="translate(50 0)"/>
    </g>
   </g>
   <g id="text_30">
    <!-- Bx -->
    <g style="fill: #808080" transform="translate(150.28535 337.897361) scale(0.08 -0.08)">
     <use xlink:href="#SimHei-42"/>
     <use xlink:href="#SimHei-78" transform="translate(50 0)"/>
    </g>
   </g>
   <g id="text_31">
    <!-- T 1.71 -->
    <g transform="translate(164.54603 291.477464) scale(0.08 -0.08)">
     <use xlink:href="#SimHei-54"/>
     <use xlink:href="#SimHei-20" transform="translate(50 0)"/>
     <use xlink:href="#SimHei-31" transform="translate(100 0)"/>
     <use xlink:href="#SimHei-2e" transform="translate(150 0)"/>
     <use xlink:href="#SimHei-37" transform="translate(200 0)"/>
     <use xlink:href="#SimHei-31" transform="translate(250 0)"/>
    </g>
   </g>
   <g id="text_32">
    <!-- Bx -->
    <g style="fill: #808080" transform="translate(207.328067 412.798348) scale(0.08 -0.08)">
     <use xlink:href="#SimHei-42"/>
     <use xlink:href="#SimHei-78" transform="translate(50 0)"/>
    </g>
   </g>
   <g id="text_33">
    <!-- Tx -->
    <g style="fill: #808080" transform="translate(214.458406 384.186317) scale(0.08 -0.08)">
     <use xlink:href="#SimHei-54"/>
     <use xlink:href="#SimHei-78" transform="translate(50 0)"/>
    </g>
   </g>
   <g id="text_34">
    <!-- Bx -->
    <g style="fill: #808080" transform="translate(221.588746 416.782443) scale(0.08 -0.08)">
     <use xlink:href="#SimHei-42"/>
     <use xlink:href="#SimHei-78" transform="translate(50 0)"/>
    </g>
   </g>
   <g id="text_35">
    <!-- Bx -->
    <g style="fill: #808080" transform="translate(235.849425 417.579262) scale(0.08 -0.08)">
     <use xlink:href="#SimHei-42"/>
     <use xlink:href="#SimHei-78" transform="translate(50 0)"/>
    </g>
   </g>
   <g id="text_36">
    <!-- Tx -->
    <g style="fill: #808080" transform="translate(264.370783 376.194175) scale(0.08 -0.08)">
     <use xlink:href="#SimHei-54"/>
     <use xlink:href="#SimHei-78" transform="translate(50 0)"/>
    </g>
   </g>
   <g id="text_37">
    <!-- B 1.63 -->
    <g style="fill: #0000ff" transform="translate(278.631462 413.595167) scale(0.08 -0.08)">
     <use xlink:href="#SimHei-42"/>
     <use xlink:href="#SimHei-20" transform="translate(50 0)"/>
     <use xlink:href="#SimHei-31" transform="translate(100 0)"/>
     <use xlink:href="#SimHei-2e" transform="translate(150 0)"/>
     <use xlink:href="#SimHei-36" transform="translate(200 0)"/>
     <use xlink:href="#SimHei-33" transform="translate(250 0)"/>
    </g>
   </g>
   <g id="text_38">
    <!-- Tx -->
    <g style="fill: #808080" transform="translate(314.28316 337.032676) scale(0.08 -0.08)">
     <use xlink:href="#SimHei-54"/>
     <use xlink:href="#SimHei-78" transform="translate(50 0)"/>
    </g>
   </g>
   <g id="text_39">
    <!-- Bx -->
    <g style="fill: #808080" transform="translate(321.413499 384.112863) scale(0.08 -0.08)">
     <use xlink:href="#SimHei-42"/>
     <use xlink:href="#SimHei-78" transform="translate(50 0)"/>
    </g>
   </g>
   <g id="text_40">
    <!-- Tx -->
    <g style="fill: #808080" transform="translate(357.065197 217.949752) scale(0.08 -0.08)">
     <use xlink:href="#SimHei-54"/>
     <use xlink:href="#SimHei-78" transform="translate(50 0)"/>
    </g>
   </g>
   <g id="text_41">
    <!-- T 1.79 -->
    <g transform="translate(414.107913 153.213397) scale(0.08 -0.08)">
     <use xlink:href="#SimHei-54"/>
     <use xlink:href="#SimHei-20" transform="translate(50 0)"/>
     <use xlink:href="#SimHei-31" transform="translate(100 0)"/>
     <use xlink:href="#SimHei-2e" transform="translate(150 0)"/>
     <use xlink:href="#SimHei-37" transform="translate(200 0)"/>
     <use xlink:href="#SimHei-39" transform="translate(250 0)"/>
    </g>
   </g>
   <g id="text_42">
    <!-- B 1.74 -->
    <g style="fill: #0000ff" transform="translate(442.629272 250.24727) scale(0.08 -0.08)">
     <use xlink:href="#SimHei-42"/>
     <use xlink:href="#SimHei-20" transform="translate(50 0)"/>
     <use xlink:href="#SimHei-31" transform="translate(100 0)"/>
     <use xlink:href="#SimHei-2e" transform="translate(150 0)"/>
     <use xlink:href="#SimHei-37" transform="translate(200 0)"/>
     <use xlink:href="#SimHei-34" transform="translate(250 0)"/>
    </g>
   </g>
   <g id="text_43">
    <!-- Tx -->
    <g style="fill: #808080" transform="translate(471.15063 89.276256) scale(0.08 -0.08)">
     <use xlink:href="#SimHei-54"/>
     <use xlink:href="#SimHei-78" transform="translate(50 0)"/>
    </g>
   </g>
   <g id="text_44">
    <!-- Bx -->
    <g style="fill: #808080" transform="translate(492.541648 211.999957) scale(0.08 -0.08)">
     <use xlink:href="#SimHei-42"/>
     <use xlink:href="#SimHei-78" transform="translate(50 0)"/>
    </g>
   </g>
   <g id="text_45">
    <!-- T 1.84 -->
    <g transform="translate(521.063007 83.681757) scale(0.08 -0.08)">
     <use xlink:href="#SimHei-54"/>
     <use xlink:href="#SimHei-20" transform="translate(50 0)"/>
     <use xlink:href="#SimHei-31" transform="translate(100 0)"/>
     <use xlink:href="#SimHei-2e" transform="translate(150 0)"/>
     <use xlink:href="#SimHei-38" transform="translate(200 0)"/>
     <use xlink:href="#SimHei-34" transform="translate(250 0)"/>
    </g>
   </g>
   <g id="text_46">
    <!-- Bx -->
    <g style="fill: #808080" transform="translate(549.584365 253.434546) scale(0.08 -0.08)">
     <use xlink:href="#SimHei-42"/>
     <use xlink:href="#SimHei-78" transform="translate(50 0)"/>
    </g>
   </g>
   <g id="text_47">
    <!-- Tx -->
    <g style="fill: #808080" transform="translate(563.845044 176.39061) scale(0.08 -0.08)">
     <use xlink:href="#SimHei-54"/>
     <use xlink:href="#SimHei-78" transform="translate(50 0)"/>
    </g>
   </g>
   <g id="text_48">
    <!-- Tx -->
    <g style="fill: #808080" transform="translate(585.236062 185.181967) scale(0.08 -0.08)">
     <use xlink:href="#SimHei-54"/>
     <use xlink:href="#SimHei-78" transform="translate(50 0)"/>
    </g>
   </g>
   <g id="text_49">
    <!-- Bx -->
    <g style="fill: #808080" transform="translate(592.366402 224.749061) scale(0.08 -0.08)">
     <use xlink:href="#SimHei-42"/>
     <use xlink:href="#SimHei-78" transform="translate(50 0)"/>
    </g>
   </g>
   <g id="text_50">
    <!-- Tx -->
    <g style="fill: #808080" transform="translate(649.409118 121.244827) scale(0.08 -0.08)">
     <use xlink:href="#SimHei-54"/>
     <use xlink:href="#SimHei-78" transform="translate(50 0)"/>
    </g>
   </g>
   <g id="text_51">
    <!-- B 1.80 -->
    <g style="fill: #0000ff" transform="translate(656.539458 153.03535) scale(0.08 -0.08)">
     <use xlink:href="#SimHei-42"/>
     <use xlink:href="#SimHei-20" transform="translate(50 0)"/>
     <use xlink:href="#SimHei-31" transform="translate(100 0)"/>
     <use xlink:href="#SimHei-2e" transform="translate(150 0)"/>
     <use xlink:href="#SimHei-38" transform="translate(200 0)"/>
     <use xlink:href="#SimHei-30" transform="translate(250 0)"/>
    </g>
   </g>
   <g id="text_52">
    <!-- Tx -->
    <g style="fill: #808080" transform="translate(706.451835 41.323401) scale(0.08 -0.08)">
     <use xlink:href="#SimHei-54"/>
     <use xlink:href="#SimHei-78" transform="translate(50 0)"/>
    </g>
   </g>
   <g id="text_53">
    <!-- Bx -->
    <g style="fill: #808080" transform="translate(720.712514 113.991219) scale(0.08 -0.08)">
     <use xlink:href="#SimHei-42"/>
     <use xlink:href="#SimHei-78" transform="translate(50 0)"/>
    </g>
   </g>
   <g id="text_54">
    <!-- Bx -->
    <g style="fill: #808080" transform="translate(756.364211 98.851658) scale(0.08 -0.08)">
     <use xlink:href="#SimHei-42"/>
     <use xlink:href="#SimHei-78" transform="translate(50 0)"/>
    </g>
   </g>
   <g id="text_55">
    <!-- T 1.85 -->
    <g transform="translate(763.494551 64.500614) scale(0.08 -0.08)">
     <use xlink:href="#SimHei-54"/>
     <use xlink:href="#SimHei-20" transform="translate(50 0)"/>
     <use xlink:href="#SimHei-31" transform="translate(100 0)"/>
     <use xlink:href="#SimHei-2e" transform="translate(150 0)"/>
     <use xlink:href="#SimHei-38" transform="translate(200 0)"/>
     <use xlink:href="#SimHei-35" transform="translate(250 0)"/>
    </g>
   </g>
   <g id="text_56">
    <!-- Stroke Identification (Bill Williams / Chan Theory) -->
    <g transform="translate(258.425 18.1375) scale(0.14 -0.14)">
     <defs>
      <path id="SimHei-53" d="M 2900 1325 
Q 2900 750 2537 412 
Q 2175 75 1550 75 
Q 925 75 575 425 
Q 225 775 225 1300 
L 225 1475 
L 800 1475 
L 800 1325 
Q 800 950 1025 750 
Q 1250 550 1550 550 
Q 1950 550 2137 762 
Q 2325 975 2325 1275 
Q 2325 1525 2100 1737 
Q 1875 1950 1450 2125 
Q 850 2350 587 2625 
Q 325 2900 325 3275 
Q 325 3800 687 4125 
Q 1050 4450 1550 4450 
Q 2200 4450 2487 4062 
Q 2775 3675 2775 3225 
L 2200 3225 
Q 2225 3500 2050 3725 
Q 1875 3950 1550 3950 
Q 1250 3950 1075 3787 
Q 900 3625 900 3350 
Q 900 3125 1037 2962 
Q 1175 2800 1750 2575 
Q 2300 2350 2600 2037 
Q 2900 1725 2900 1325 
z
" transform="scale(0.015625)"/>
      <path id="SimHei-74" d="M 2750 200 
Q 2625 150 2462 112 
Q 2300 75 2025 75 
Q 1575 75 1300 325 
Q 1025 575 1025 1025 
L 1025 2525 
L 175 2525 
L 175 2925 
L 1025 2925 
L 1025 3900 
L 1525 3900 
L 1525 2925 
L 2550 2925 
L 2550 2525 
L 1525 2525 
L 1525 1000 
Q 1525 800 1625 662 
Q 1725 525 2000 525 
Q 2275 525 2450 575 
Q 2625 625 2750 700 
L 2750 200 
z
" transform="scale(0.015625)"/>
      <path id="SimHei-6f" d="M 2925 1525 
Q 2925 875 2525 475 
Q 2125 75 1575 75 
Q 1025 75 625 475 
Q 225 875 225 1525 
Q 225 2175 625 2575 
Q 1025 2975 1575 2975 
Q 2125 2975 2525 2575 
Q 2925 2175 2925 1525 
z
M 2375 1525 
Q 2375 2025 2125 2275 
Q 1875 2525 1575 2525 
Q 1275 2525 1025 2275 
Q 775 2025 775 1525 
Q 775 1025 1025 775 
Q 1275 525 1575 525 
Q 1875 525 2125 775 
Q 2375 1025 2375 1525 
z
" transform="scale(0.015625)"/>
      <path id="SimHei-6b" d="M 2925 125 
L 2350 125 
L 1450 1650 
L 875 1100 
L 875 125 
L 375 125 
L 375 4400 
L 875 4400 
L 875 1675 
L 2125 2925 
L 2750 2925 
L 1775 1975 
L 2925 125 
z
" transform="scale(0.015625)"/>
      <path id="SimHei-49" d="M 1850 125 
L 1275 125 
L 1275 4400 
L 1850 4400 
L 1850 125 
z
" transform="scale(0.015625)"/>
      <path id="SimHei-64" d="M 2750 125 
L 2250 125 
L 2250 500 
Q 2100 275 1900 175 
Q 1700 75 1425 75 
Q 925 75 575 437 
Q 225 800 225 1525 
Q 225 2250 575 2625 
Q 925 3000 1425 3000 
Q 1700 3000 1900 2887 
Q 2100 2775 2250 2550 
L 2250 4400 
L 2750 4400 
L 2750 125 
z
M 2250 1525 
Q 2250 2000 2037 2275 
Q 1825 2550 1525 2550 
Q 1150 2550 962 2275 
Q 775 2000 775 1525 
Q 775 1050 962 787 
Q 1150 525 1525 525 
Q 1825 525 2037 787 
Q 2250 1050 2250 1525 
z
" transform="scale(0.015625)"/>
      <path id="SimHei-6e" d="M 2800 125 
L 2300 125 
L 2300 1925 
Q 2300 2225 2150 2400 
Q 2000 2575 1750 2575 
Q 1425 2575 1137 2237 
Q 850 1900 850 1400 
L 850 125 
L 350 125 
L 350 2925 
L 850 2925 
L 850 2400 
Q 1050 2675 1287 2825 
Q 1525 2975 1900 2975 
Q 2350 2975 2575 2725 
Q 2800 2475 2800 2100 
L 2800 125 
z
" transform="scale(0.015625)"/>
      <path id="SimHei-66" d="M 2850 3825 
Q 2725 3900 2550 3950 
Q 2375 4000 2100 4000 
Q 1825 4000 1725 3862 
Q 1625 3725 1625 3525 
L 1625 2925 
L 2650 2925 
L 2650 2525 
L 1625 2525 
L 1625 125 
L 1125 125 
L 1125 2525 
L 275 2525 
L 275 2925 
L 1125 2925 
L 1125 3500 
Q 1125 3950 1400 4200 
Q 1675 4450 2125 4450 
Q 2400 4450 2562 4412 
Q 2725 4375 2850 4325 
L 2850 3825 
z
" transform="scale(0.015625)"/>
      <path id="SimHei-61" d="M 2875 125 
L 2275 125 
Q 2225 175 2200 262 
Q 2175 350 2175 475 
Q 2000 275 1750 175 
Q 1500 75 1225 75 
Q 825 75 550 275 
Q 275 475 275 850 
Q 275 1225 525 1450 
Q 775 1675 1300 1750 
Q 1650 1800 1912 1875 
Q 2175 1950 2175 2075 
Q 2175 2225 2062 2375 
Q 1950 2525 1575 2525 
Q 1275 2525 1137 2412 
Q 1000 2300 950 2100 
L 400 2100 
Q 450 2500 762 2737 
Q 1075 2975 1575 2975 
Q 2125 2975 2400 2725 
Q 2675 2475 2675 2025 
L 2675 650 
Q 2675 500 2725 375 
Q 2775 250 2875 125 
z
M 2175 1050 
L 2175 1550 
Q 2025 1500 1887 1462 
Q 1750 1425 1425 1375 
Q 1050 1325 937 1200 
Q 825 1075 825 900 
Q 825 750 937 637 
Q 1050 525 1275 525 
Q 1500 525 1762 650 
Q 2025 775 2175 1050 
z
" transform="scale(0.015625)"/>
      <path id="SimHei-28" d="M 2975 -200 
L 2700 -475 
Q 2075 125 1762 775 
Q 1450 1425 1450 2250 
Q 1450 3075 1762 3725 
Q 2075 4375 2700 5000 
L 2975 4725 
Q 2400 4175 2112 3587 
Q 1825 3000 1825 2250 
Q 1825 1500 2112 912 
Q 2400 325 2975 -200 
z
" transform="scale(0.015625)"/>
      <path id="SimHei-6c" d="M 1825 125 
L 1325 125 
L 1325 4400 
L 1825 4400 
L 1825 125 
z
" transform="scale(0.015625)"/>
      <path id="SimHei-57" d="M 3075 4400 
L 2525 75 
L 2025 75 
L 1575 3275 
L 1525 3275 
L 1075 75 
L 575 75 
L 25 4400 
L 575 4400 
L 850 1675 
L 900 1675 
L 1275 4400 
L 1825 4400 
L 2200 1675 
L 2250 1675 
L 2525 4400 
L 3075 4400 
z
" transform="scale(0.015625)"/>
      <path id="SimHei-6d" d="M 3050 125 
L 2550 125 
L 2550 2150 
Q 2550 2300 2500 2400 
Q 2450 2500 2300 2500 
Q 2125 2500 1975 2312 
Q 1825 2125 1825 1825 
L 1825 125 
L 1325 125 
L 1325 2150 
Q 1325 2300 1275 2400 
Q 1225 2500 1075 2500 
Q 900 2500 750 2312 
Q 600 2125 600 1825 
L 600 125 
L 100 125 
L 100 2925 
L 600 2925 
L 600 2550 
Q 725 2750 900 2862 
Q 1075 2975 1275 2975 
Q 1475 2975 1612 2862 
Q 1750 2750 1800 2550 
Q 1925 2750 2087 2862 
Q 2250 2975 2450 2975 
Q 2750 2975 2900 2812 
Q 3050 2650 3050 2350 
L 3050 125 
z
" transform="scale(0.015625)"/>
      <path id="SimHei-73" d="M 2750 900 
Q 2750 500 2437 287 
Q 2125 75 1650 75 
Q 1050 75 725 312 
Q 400 550 400 1000 
L 900 1000 
Q 900 700 1112 600 
Q 1325 500 1625 500 
Q 1925 500 2075 612 
Q 2225 725 2225 900 
Q 2225 1025 2100 1150 
Q 1975 1275 1475 1350 
Q 900 1425 687 1637 
Q 475 1850 475 2200 
Q 475 2500 762 2737 
Q 1050 2975 1600 2975 
Q 2100 2975 2387 2750 
Q 2675 2525 2675 2150 
L 2175 2150 
Q 2175 2375 2012 2462 
Q 1850 2550 1600 2550 
Q 1275 2550 1137 2437 
Q 1000 2325 1000 2175 
Q 1000 2000 1125 1900 
Q 1250 1800 1650 1750 
Q 2300 1650 2525 1437 
Q 2750 1225 2750 900 
z
" transform="scale(0.015625)"/>
      <path id="SimHei-2f" d="M 3000 4550 
L 350 -175 
L 100 -25 
L 2750 4700 
L 3000 4550 
z
" transform="scale(0.015625)"/>
      <path id="SimHei-43" d="M 2975 1825 
Q 2950 875 2575 475 
Q 2200 75 1675 75 
Q 1075 75 650 562 
Q 225 1050 225 2125 
Q 225 3300 637 3875 
Q 1050 4450 1700 4450 
Q 2250 4450 2612 4037 
Q 2975 3625 2950 2875 
L 2400 2875 
Q 2400 3425 2225 3700 
Q 2050 3975 1700 3975 
Q 1300 3975 1062 3562 
Q 825 3150 825 2175 
Q 825 1275 1062 912 
Q 1300 550 1675 550 
Q 1950 550 2175 812 
Q 2400 1075 2400 1825 
L 2975 1825 
z
" transform="scale(0.015625)"/>
      <path id="SimHei-68" d="M 2800 125 
L 2300 125 
L 2300 1925 
Q 2300 2225 2150 2400 
Q 2000 2575 1750 2575 
Q 1425 2575 1137 2237 
Q 850 1900 850 1400 
L 850 125 
L 350 125 
L 350 4400 
L 850 4400 
L 850 2400 
Q 1050 2675 1287 2825 
Q 1525 2975 1900 2975 
Q 2350 2975 2575 2725 
Q 2800 2475 2800 2100 
L 2800 125 
z
" transform="scale(0.015625)"/>
      <path id="SimHei-79" d="M 2900 2925 
L 1750 -100 
Q 1650 -450 1450 -625 
Q 1250 -800 950 -800 
Q 825 -800 712 -787 
Q 600 -775 500 -725 
L 500 -225 
Q 600 -275 700 -300 
Q 800 -325 875 -325 
Q 1075 -325 1150 -262 
Q 1225 -200 1300 25 
L 200 2925 
L 750 2925 
L 1550 725 
L 1575 725 
L 2350 2925 
L 2900 2925 
z
" transform="scale(0.015625)"/>
      <path id="SimHei-29" d="M 1675 2250 
Q 1675 1425 1362 775 
Q 1050 125 425 -475 
L 150 -200 
Q 725 325 1012 912 
Q 1300 1500 1300 2250 
Q 1300 3000 1012 3587 
Q 725 4175 150 4725 
L 425 5000 
Q 1050 4375 1362 3725 
Q 1675 3075 1675 2250 
z
" transform="scale(0.015625)"/>
     </defs>
     <use xlink:href="#SimHei-53"/>
     <use xlink:href="#SimHei-74" transform="translate(50 0)"/>
     <use xlink:href="#SimHei-72" transform="translate(100 0)"/>
     <use xlink:href="#SimHei-6f" transform="translate(150 0)"/>
     <use xlink:href="#SimHei-6b" transform="translate(200 0)"/>
     <use xlink:href="#SimHei-65" transform="translate(250 0)"/>
     <use xlink:href="#SimHei-20" transform="translate(300 0)"/>
     <use xlink:href="#SimHei-49" transform="translate(350 0)"/>
     <use xlink:href="#SimHei-64" transform="translate(400 0)"/>
     <use xlink:href="#SimHei-65" transform="translate(450 0)"/>
     <use xlink:href="#SimHei-6e" transform="translate(500 0)"/>
     <use xlink:href="#SimHei-74" transform="translate(550 0)"/>
     <use xlink:href="#SimHei-69" transform="translate(600 0)"/>
     <use xlink:href="#SimHei-66" transform="translate(650 0)"/>
     <use xlink:href="#SimHei-69" transform="translate(700 0)"/>
     <use xlink:href="#SimHei-63" transform="translate(750 0)"/>
     <use xlink:href="#SimHei-61" transform="translate(800 0)"/>
     <use xlink:href="#SimHei-74" transform="translate(850 0)"/>
     <use xlink:href="#SimHei-69" transform="translate(900 0)"/>
     <use xlink:href="#SimHei-6f" transform="translate(950 0)"/>
     <use xlink:href="#SimHei-6e" transform="translate(1000 0)"/>
     <use xlink:href="#SimHei-20" transform="translate(1050 0)"/>
     <use xlink:href="#SimHei-28" transform="translate(1100 0)"/>
     <use xlink:href="#SimHei-42" transform="translate(1150 0)"/>
     <use xlink:href="#SimHei-69" transform="translate(1200 0)"/>
     <use xlink:href="#SimHei-6c" transform="translate(1250 0)"/>
     <use xlink:href="#SimHei-6c" transform="translate(1300 0)"/>
     <use xlink:href="#SimHei-20" transform="translate(1350 0)"/>
     <use xlink:href="#SimHei-57" transform="translate(1400 0)"/>
     <use xlink:href="#SimHei-69" transform="translate(1450 0)"/>
     <use xlink:href="#SimHei-6c" transform="translate(1500 0)"/>
     <use xlink:href="#SimHei-6c" transform="translate(1550 0)"/>
     <use xlink:href="#SimHei-69" transform="translate(1600 0)"/>
     <use xlink:href="#SimHei-61" transform="translate(1650 0)"/>
     <use xlink:href="#SimHei-6d" transform="translate(1700 0)"/>
     <use xlink:href="#SimHei-73" transform="translate(1750 0)"/>
     <use xlink:href="#SimHei-20" transform="translate(1800 0)"/>
     <use xlink:href="#SimHei-2f" transform="translate(1850 0)"/>
     <use xlink:href="#SimHei-20" transform="translate(1900 0)"/>
     <use xlink:href="#SimHei-43" transform="translate(1950 0)"/>
     <use xlink:href="#SimHei-68" transform="translate(2000 0)"/>
     <use xlink:href="#SimHei-61" transform="translate(2050 0)"/>
     <use xlink:href="#SimHei-6e" transform="translate(2100 0)"/>
     <use xlink:href="#SimHei-20" transform="translate(2150 0)"/>
     <use xlink:href="#SimHei-54" transform="translate(2200 0)"/>
     <use xlink:href="#SimHei-68" transform="translate(2250 0)"/>
     <use xlink:href="#SimHei-65" transform="translate(2300 0)"/>
     <use xlink:href="#SimHei-6f" transform="translate(2350 0)"/>
     <use xlink:href="#SimHei-72" transform="translate(2400 0)"/>
     <use xlink:href="#SimHei-79" transform="translate(2450 0)"/>
     <use xlink:href="#SimHei-29" transform="translate(2500 0)"/>
    </g>
   </g>
  </g>
 </g>
 <defs>
  <clipPath id="pa1211925b7">
   <rect x="46.325" y="24.1375" width="781.2" height="443.52"/>
  </clipPath>
 </defs>
</svg>
