<?xml version="1.0" encoding="utf-8" standalone="no"?>
<!DOCTYPE svg PUBLIC "-//W3C//DTD SVG 1.1//EN"
  "http://www.w3.org/Graphics/SVG/1.1/DTD/svg11.dtd">
<svg xmlns:xlink="http://www.w3.org/1999/xlink" width="834.725pt" height="514.737965pt" viewBox="0 0 834.725 514.737965" xmlns="http://www.w3.org/2000/svg" version="1.1">
 <metadata>
  <rdf:RDF xmlns:dc="http://purl.org/dc/elements/1.1/" xmlns:cc="http://creativecommons.org/ns#" xmlns:rdf="http://www.w3.org/1999/02/22-rdf-syntax-ns#">
   <cc:Work>
    <dc:type rdf:resource="http://purl.org/dc/dcmitype/StillImage"/>
    <dc:date>2025-12-30T15:08:09.676460</dc:date>
    <dc:format>image/svg+xml</dc:format>
    <dc:creator>
     <cc:Agent>
      <dc:title>Matplotlib v3.10.8, https://matplotlib.org/</dc:title>
     </cc:Agent>
    </dc:creator>
   </cc:Work>
  </rdf:RDF>
 </metadata>
 <defs>
  <style type="text/css">*{stroke-linejoin: round; stroke-linecap: butt}</style>
 </defs>
 <g id="figure_1">
  <g id="patch_1">
   <path d="M 0 514.737965 
L 834.725 514.737965 
L 834.725 0 
L 0 0 
z
" style="fill: #ffffff"/>
  </g>
  <g id="axes_1">
   <g id="patch_2">
    <path d="M 46.325 467.6575 
L 827.525 467.6575 
L 827.525 24.1375 
L 46.325 24.1375 
z
" style="fill: #ffffff"/>
   </g>
   <g id="patch_3">
    <path d="M 83.794934 155.525086 
L 84.151451 155.525086 
L 84.151451 99.911293 
L 83.794934 99.911293 
z
" clip-path="url(#p0bdad7068e)" style="fill: #ff0000"/>
   </g>
   <g id="patch_4">
    <path d="M 90.925274 120.766466 
L 91.281791 120.766466 
L 91.281791 44.2975 
L 90.925274 44.2975 
z
" clip-path="url(#p0bdad7068e)" style="fill: #ff0000"/>
   </g>
   <g id="patch_5">
    <path d="M 119.446632 193.064397 
L 119.803149 193.064397 
L 119.803149 169.428534 
L 119.446632 169.428534 
z
" clip-path="url(#p0bdad7068e)" style="fill: #ff0000"/>
   </g>
   <g id="patch_6">
    <path d="M 126.576972 174.989914 
L 126.933488 174.989914 
L 126.933488 137.450603 
L 126.576972 137.450603 
z
" clip-path="url(#p0bdad7068e)" style="fill: #ff0000"/>
   </g>
   <g id="patch_7">
    <path d="M 147.96799 409.263017 
L 148.324507 409.263017 
L 148.324507 364.07681 
L 147.96799 364.07681 
z
" clip-path="url(#p0bdad7068e)" style="fill: #ff0000"/>
   </g>
   <g id="patch_8">
    <path d="M 155.09833 419.690603 
L 155.454847 419.690603 
L 155.454847 381.456121 
L 155.09833 381.456121 
z
" clip-path="url(#p0bdad7068e)" style="fill: #ff0000"/>
   </g>
   <g id="patch_9">
    <path d="M 162.228669 391.883707 
L 162.585186 391.883707 
L 162.585186 357.125086 
L 162.228669 357.125086 
z
" clip-path="url(#p0bdad7068e)" style="fill: #ff0000"/>
   </g>
   <g id="patch_10">
    <path d="M 176.489348 395.359569 
L 176.845865 395.359569 
L 176.845865 371.028534 
L 176.489348 371.028534 
z
" clip-path="url(#p0bdad7068e)" style="fill: #ff0000"/>
   </g>
   <g id="patch_11">
    <path d="M 197.880367 426.642328 
L 198.236884 426.642328 
L 198.236884 344.611983 
L 197.880367 344.611983 
z
" clip-path="url(#p0bdad7068e)" style="fill: #ff0000"/>
   </g>
   <g id="patch_12">
    <path d="M 205.010706 364.07681 
L 205.367223 364.07681 
L 205.367223 342.526466 
L 205.010706 342.526466 
z
" clip-path="url(#p0bdad7068e)" style="fill: #ff0000"/>
   </g>
   <g id="patch_13">
    <path d="M 219.271386 391.883707 
L 219.627903 391.883707 
L 219.627903 368.247845 
L 219.271386 368.247845 
z
" clip-path="url(#p0bdad7068e)" style="fill: #ff0000"/>
   </g>
   <g id="patch_14">
    <path d="M 226.401725 374.504397 
L 226.758242 374.504397 
L 226.758242 355.734741 
L 226.401725 355.734741 
z
" clip-path="url(#p0bdad7068e)" style="fill: #ff0000"/>
   </g>
   <g id="patch_15">
    <path d="M 233.532065 358.515431 
L 233.888582 358.515431 
L 233.888582 339.050603 
L 233.532065 339.050603 
z
" clip-path="url(#p0bdad7068e)" style="fill: #ff0000"/>
   </g>
   <g id="patch_16">
    <path d="M 240.662404 343.221638 
L 241.018921 343.221638 
L 241.018921 319.585776 
L 240.662404 319.585776 
z
" clip-path="url(#p0bdad7068e)" style="fill: #ff0000"/>
   </g>
   <g id="patch_17">
    <path d="M 247.792744 347.392672 
L 248.149261 347.392672 
L 248.149261 333.489224 
L 247.792744 333.489224 
z
" clip-path="url(#p0bdad7068e)" style="fill: #ff0000"/>
   </g>
   <g id="patch_18">
    <path d="M 254.923083 339.745776 
L 255.2796 339.745776 
L 255.2796 325.147155 
L 254.923083 325.147155 
z
" clip-path="url(#p0bdad7068e)" style="fill: #ff0000"/>
   </g>
   <g id="patch_19">
    <path d="M 262.053423 327.927845 
L 262.40994 327.927845 
L 262.40994 314.024397 
L 262.053423 314.024397 
z
" clip-path="url(#p0bdad7068e)" style="fill: #ff0000"/>
   </g>
   <g id="patch_20">
    <path d="M 304.83546 412.738879 
L 305.191977 412.738879 
L 305.191977 395.359569 
L 304.83546 395.359569 
z
" clip-path="url(#p0bdad7068e)" style="fill: #ff0000"/>
   </g>
   <g id="patch_21">
    <path d="M 326.226479 410.653362 
L 326.582996 410.653362 
L 326.582996 398.140259 
L 326.226479 398.140259 
z
" clip-path="url(#p0bdad7068e)" style="fill: #ff0000"/>
   </g>
   <g id="patch_22">
    <path d="M 333.356818 416.909914 
L 333.713335 416.909914 
L 333.713335 405.787155 
L 333.356818 405.787155 
z
" clip-path="url(#p0bdad7068e)" style="fill: #ff0000"/>
   </g>
   <g id="patch_23">
    <path d="M 340.487158 407.1775 
L 340.843675 407.1775 
L 340.843675 396.054741 
L 340.487158 396.054741 
z
" clip-path="url(#p0bdad7068e)" style="fill: #ff0000"/>
   </g>
   <g id="patch_24">
    <path d="M 354.747837 403.006466 
L 355.104354 403.006466 
L 355.104354 394.664397 
L 354.747837 394.664397 
z
" clip-path="url(#p0bdad7068e)" style="fill: #ff0000"/>
   </g>
   <g id="patch_25">
    <path d="M 361.878176 400.225776 
L 362.234693 400.225776 
L 362.234693 387.712672 
L 361.878176 387.712672 
z
" clip-path="url(#p0bdad7068e)" style="fill: #ff0000"/>
   </g>
   <g id="patch_26">
    <path d="M 383.269195 407.872672 
L 383.625712 407.872672 
L 383.625712 402.311293 
L 383.269195 402.311293 
z
" clip-path="url(#p0bdad7068e)" style="fill: #ff0000"/>
   </g>
   <g id="patch_27">
    <path d="M 390.399535 405.787155 
L 390.756051 405.787155 
L 390.756051 394.664397 
L 390.399535 394.664397 
z
" clip-path="url(#p0bdad7068e)" style="fill: #ff0000"/>
   </g>
   <g id="patch_28">
    <path d="M 397.529874 400.920948 
L 397.886391 400.920948 
L 397.886391 377.980259 
L 397.529874 377.980259 
z
" clip-path="url(#p0bdad7068e)" style="fill: #ff0000"/>
   </g>
   <g id="patch_29">
    <path d="M 404.660214 382.846466 
L 405.016731 382.846466 
L 405.016731 364.07681 
L 404.660214 364.07681 
z
" clip-path="url(#p0bdad7068e)" style="fill: #ff0000"/>
   </g>
   <g id="patch_30">
    <path d="M 411.790553 371.028534 
L 412.14707 371.028534 
L 412.14707 353.649224 
L 411.790553 353.649224 
z
" clip-path="url(#p0bdad7068e)" style="fill: #ff0000"/>
   </g>
   <g id="patch_31">
    <path d="M 426.051232 364.07681 
L 426.407749 364.07681 
L 426.407749 353.649224 
L 426.051232 353.649224 
z
" clip-path="url(#p0bdad7068e)" style="fill: #ff0000"/>
   </g>
   <g id="patch_32">
    <path d="M 433.181572 361.296121 
L 433.538089 361.296121 
L 433.538089 333.489224 
L 433.181572 333.489224 
z
" clip-path="url(#p0bdad7068e)" style="fill: #ff0000"/>
   </g>
   <g id="patch_33">
    <path d="M 440.311911 333.489224 
L 440.668428 333.489224 
L 440.668428 295.949914 
L 440.311911 295.949914 
z
" clip-path="url(#p0bdad7068e)" style="fill: #ff0000"/>
   </g>
   <g id="patch_34">
    <path d="M 447.442251 319.585776 
L 447.798768 319.585776 
L 447.798768 255.629914 
L 447.442251 255.629914 
z
" clip-path="url(#p0bdad7068e)" style="fill: #ff0000"/>
   </g>
   <g id="patch_35">
    <path d="M 468.833269 301.511293 
L 469.189786 301.511293 
L 469.189786 252.849224 
L 468.833269 252.849224 
z
" clip-path="url(#p0bdad7068e)" style="fill: #ff0000"/>
   </g>
   <g id="patch_36">
    <path d="M 490.224288 339.745776 
L 490.580805 339.745776 
L 490.580805 295.949914 
L 490.224288 295.949914 
z
" clip-path="url(#p0bdad7068e)" style="fill: #ff0000"/>
   </g>
   <g id="patch_37">
    <path d="M 497.354628 301.511293 
L 497.711145 301.511293 
L 497.711145 273.704397 
L 497.354628 273.704397 
z
" clip-path="url(#p0bdad7068e)" style="fill: #ff0000"/>
   </g>
   <g id="patch_38">
    <path d="M 504.484967 294.559569 
L 504.841484 294.559569 
L 504.841484 254.239569 
L 504.484967 254.239569 
z
" clip-path="url(#p0bdad7068e)" style="fill: #ff0000"/>
   </g>
   <g id="patch_39">
    <path d="M 511.615307 259.800948 
L 511.971824 259.800948 
L 511.971824 198.625776 
L 511.615307 198.625776 
z
" clip-path="url(#p0bdad7068e)" style="fill: #ff0000"/>
   </g>
   <g id="patch_40">
    <path d="M 525.875986 249.373362 
L 526.232503 249.373362 
L 526.232503 225.042328 
L 525.875986 225.042328 
z
" clip-path="url(#p0bdad7068e)" style="fill: #ff0000"/>
   </g>
   <g id="patch_41">
    <path d="M 533.006325 231.994052 
L 533.362842 231.994052 
L 533.362842 197.235431 
L 533.006325 197.235431 
z
" clip-path="url(#p0bdad7068e)" style="fill: #ff0000"/>
   </g>
   <g id="patch_42">
    <path d="M 547.267004 270.923707 
L 547.623521 270.923707 
L 547.623521 245.8975 
L 547.267004 245.8975 
z
" clip-path="url(#p0bdad7068e)" style="fill: #ff0000"/>
   </g>
   <g id="patch_43">
    <path d="M 554.397344 252.849224 
L 554.753861 252.849224 
L 554.753861 211.138879 
L 554.397344 211.138879 
z
" clip-path="url(#p0bdad7068e)" style="fill: #ff0000"/>
   </g>
   <g id="patch_44">
    <path d="M 561.527683 221.566466 
L 561.8842 221.566466 
L 561.8842 200.711293 
L 561.527683 200.711293 
z
" clip-path="url(#p0bdad7068e)" style="fill: #ff0000"/>
   </g>
   <g id="patch_45">
    <path d="M 568.658023 212.529224 
L 569.01454 212.529224 
L 569.01454 183.331983 
L 568.658023 183.331983 
z
" clip-path="url(#p0bdad7068e)" style="fill: #ff0000"/>
   </g>
   <g id="patch_46">
    <path d="M 575.788363 193.759569 
L 576.14488 193.759569 
L 576.14488 138.145776 
L 575.788363 138.145776 
z
" clip-path="url(#p0bdad7068e)" style="fill: #ff0000"/>
   </g>
   <g id="patch_47">
    <path d="M 597.179381 237.555431 
L 597.535898 237.555431 
L 597.535898 206.272672 
L 597.179381 206.272672 
z
" clip-path="url(#p0bdad7068e)" style="fill: #ff0000"/>
   </g>
   <g id="patch_48">
    <path d="M 604.309721 207.663017 
L 604.666238 207.663017 
L 604.666238 177.770603 
L 604.309721 177.770603 
z
" clip-path="url(#p0bdad7068e)" style="fill: #ff0000"/>
   </g>
   <g id="patch_49">
    <path d="M 611.44006 195.845086 
L 611.796577 195.845086 
L 611.796577 176.380259 
L 611.44006 176.380259 
z
" clip-path="url(#p0bdad7068e)" style="fill: #ff0000"/>
   </g>
   <g id="patch_50">
    <path d="M 618.5704 190.283707 
L 618.926917 190.283707 
L 618.926917 155.525086 
L 618.5704 155.525086 
z
" clip-path="url(#p0bdad7068e)" style="fill: #ff0000"/>
   </g>
   <g id="patch_51">
    <path d="M 675.613116 252.154052 
L 675.969633 252.154052 
L 675.969633 222.261638 
L 675.613116 222.261638 
z
" clip-path="url(#p0bdad7068e)" style="fill: #ff0000"/>
   </g>
   <g id="patch_52">
    <path d="M 689.873795 248.67819 
L 690.230312 248.67819 
L 690.230312 225.181362 
L 689.873795 225.181362 
z
" clip-path="url(#p0bdad7068e)" style="fill: #ff0000"/>
   </g>
   <g id="patch_53">
    <path d="M 697.004135 231.994052 
L 697.360652 231.994052 
L 697.360652 106.863017 
L 697.004135 106.863017 
z
" clip-path="url(#p0bdad7068e)" style="fill: #ff0000"/>
   </g>
   <g id="patch_54">
    <path d="M 704.134474 123.547155 
L 704.490991 123.547155 
L 704.490991 96.435431 
L 704.134474 96.435431 
z
" clip-path="url(#p0bdad7068e)" style="fill: #ff0000"/>
   </g>
   <g id="patch_55">
    <path d="M 718.395153 152.049224 
L 718.75167 152.049224 
L 718.75167 130.498879 
L 718.395153 130.498879 
z
" clip-path="url(#p0bdad7068e)" style="fill: #ff0000"/>
   </g>
   <g id="patch_56">
    <path d="M 725.525493 140.231293 
L 725.88201 140.231293 
L 725.88201 124.242328 
L 725.525493 124.242328 
z
" clip-path="url(#p0bdad7068e)" style="fill: #ff0000"/>
   </g>
   <g id="patch_57">
    <path d="M 732.655832 124.242328 
L 733.012349 124.242328 
L 733.012349 99.911293 
L 732.655832 99.911293 
z
" clip-path="url(#p0bdad7068e)" style="fill: #ff0000"/>
   </g>
   <g id="patch_58">
    <path d="M 746.916512 137.450603 
L 747.273028 137.450603 
L 747.273028 123.547155 
L 746.916512 123.547155 
z
" clip-path="url(#p0bdad7068e)" style="fill: #ff0000"/>
   </g>
   <g id="patch_59">
    <path d="M 761.177191 138.145776 
L 761.533708 138.145776 
L 761.533708 116.595431 
L 761.177191 116.595431 
z
" clip-path="url(#p0bdad7068e)" style="fill: #ff0000"/>
   </g>
   <g id="patch_60">
    <path d="M 775.43787 139.536121 
L 775.794387 139.536121 
L 775.794387 127.71819 
L 775.43787 127.71819 
z
" clip-path="url(#p0bdad7068e)" style="fill: #ff0000"/>
   </g>
   <g id="patch_61">
    <path d="M 782.568209 137.450603 
L 782.924726 137.450603 
L 782.924726 126.327845 
L 782.568209 126.327845 
z
" clip-path="url(#p0bdad7068e)" style="fill: #ff0000"/>
   </g>
   <g id="patch_62">
    <path d="M 789.698549 130.498879 
L 790.055066 130.498879 
L 790.055066 99.911293 
L 789.698549 99.911293 
z
" clip-path="url(#p0bdad7068e)" style="fill: #ff0000"/>
   </g>
   <g id="patch_63">
    <path d="M 98.055613 155.525086 
L 98.41213 155.525086 
L 98.41213 92.959569 
L 98.055613 92.959569 
z
" clip-path="url(#p0bdad7068e)" style="fill: #008000"/>
   </g>
   <g id="patch_64">
    <path d="M 105.185953 183.331983 
L 105.54247 183.331983 
L 105.54247 133.279569 
L 105.185953 133.279569 
z
" clip-path="url(#p0bdad7068e)" style="fill: #008000"/>
   </g>
   <g id="patch_65">
    <path d="M 112.316292 214.614741 
L 112.672809 214.614741 
L 112.672809 183.331983 
L 112.316292 183.331983 
z
" clip-path="url(#p0bdad7068e)" style="fill: #008000"/>
   </g>
   <g id="patch_66">
    <path d="M 133.707311 301.511293 
L 134.063828 301.511293 
L 134.063828 259.800948 
L 133.707311 259.800948 
z
" clip-path="url(#p0bdad7068e)" style="fill: #008000"/>
   </g>
   <g id="patch_67">
    <path d="M 140.837651 447.4975 
L 141.194168 447.4975 
L 141.194168 404.39681 
L 140.837651 404.39681 
z
" clip-path="url(#p0bdad7068e)" style="fill: #008000"/>
   </g>
   <g id="patch_68">
    <path d="M 169.359009 418.300259 
L 169.715526 418.300259 
L 169.715526 384.931983 
L 169.359009 384.931983 
z
" clip-path="url(#p0bdad7068e)" style="fill: #008000"/>
   </g>
   <g id="patch_69">
    <path d="M 183.619688 404.39681 
L 183.976205 404.39681 
L 183.976205 384.931983 
L 183.619688 384.931983 
z
" clip-path="url(#p0bdad7068e)" style="fill: #008000"/>
   </g>
   <g id="patch_70">
    <path d="M 190.750027 447.4975 
L 191.106544 447.4975 
L 191.106544 404.39681 
L 190.750027 404.39681 
z
" clip-path="url(#p0bdad7068e)" style="fill: #008000"/>
   </g>
   <g id="patch_71">
    <path d="M 212.141046 384.931983 
L 212.497563 384.931983 
L 212.497563 350.034328 
L 212.141046 350.034328 
z
" clip-path="url(#p0bdad7068e)" style="fill: #008000"/>
   </g>
   <g id="patch_72">
    <path d="M 269.183762 343.221638 
L 269.540279 343.221638 
L 269.540279 325.147155 
L 269.183762 325.147155 
z
" clip-path="url(#p0bdad7068e)" style="fill: #008000"/>
   </g>
   <g id="patch_73">
    <path d="M 276.314102 368.247845 
L 276.670619 368.247845 
L 276.670619 339.745776 
L 276.314102 339.745776 
z
" clip-path="url(#p0bdad7068e)" style="fill: #008000"/>
   </g>
   <g id="patch_74">
    <path d="M 283.444441 369.63819 
L 283.800958 369.63819 
L 283.800958 355.734741 
L 283.444441 355.734741 
z
" clip-path="url(#p0bdad7068e)" style="fill: #008000"/>
   </g>
   <g id="patch_75">
    <path d="M 290.574781 388.407845 
L 290.931298 388.407845 
L 290.931298 357.125086 
L 290.574781 357.125086 
z
" clip-path="url(#p0bdad7068e)" style="fill: #008000"/>
   </g>
   <g id="patch_76">
    <path d="M 297.70512 405.787155 
L 298.061637 405.787155 
L 298.061637 381.456121 
L 297.70512 381.456121 
z
" clip-path="url(#p0bdad7068e)" style="fill: #008000"/>
   </g>
   <g id="patch_77">
    <path d="M 311.9658 403.006466 
L 312.322317 403.006466 
L 312.322317 394.664397 
L 311.9658 394.664397 
z
" clip-path="url(#p0bdad7068e)" style="fill: #008000"/>
   </g>
   <g id="patch_78">
    <path d="M 319.096139 416.214741 
L 319.452656 416.214741 
L 319.452656 403.006466 
L 319.096139 403.006466 
z
" clip-path="url(#p0bdad7068e)" style="fill: #008000"/>
   </g>
   <g id="patch_79">
    <path d="M 347.617497 401.616121 
L 347.974014 401.616121 
L 347.974014 384.931983 
L 347.617497 384.931983 
z
" clip-path="url(#p0bdad7068e)" style="fill: #008000"/>
   </g>
   <g id="patch_80">
    <path d="M 369.008516 403.006466 
L 369.365033 403.006466 
L 369.365033 391.883707 
L 369.008516 391.883707 
z
" clip-path="url(#p0bdad7068e)" style="fill: #008000"/>
   </g>
   <g id="patch_81">
    <path d="M 376.138855 413.434052 
L 376.495372 413.434052 
L 376.495372 403.006466 
L 376.138855 403.006466 
z
" clip-path="url(#p0bdad7068e)" style="fill: #008000"/>
   </g>
   <g id="patch_82">
    <path d="M 418.920893 387.712672 
L 419.27741 387.712672 
L 419.27741 369.499155 
L 418.920893 369.499155 
z
" clip-path="url(#p0bdad7068e)" style="fill: #008000"/>
   </g>
   <g id="patch_83">
    <path d="M 454.57259 300.120948 
L 454.929107 300.120948 
L 454.929107 250.068534 
L 454.57259 250.068534 
z
" clip-path="url(#p0bdad7068e)" style="fill: #008000"/>
   </g>
   <g id="patch_84">
    <path d="M 461.70293 305.682328 
L 462.059447 305.682328 
L 462.059447 291.778879 
L 461.70293 291.778879 
z
" clip-path="url(#p0bdad7068e)" style="fill: #008000"/>
   </g>
   <g id="patch_85">
    <path d="M 475.963609 343.221638 
L 476.320126 343.221638 
L 476.320126 294.559569 
L 475.963609 294.559569 
z
" clip-path="url(#p0bdad7068e)" style="fill: #008000"/>
   </g>
   <g id="patch_86">
    <path d="M 483.093949 350.173362 
L 483.450465 350.173362 
L 483.450465 329.31819 
L 483.093949 329.31819 
z
" clip-path="url(#p0bdad7068e)" style="fill: #008000"/>
   </g>
   <g id="patch_87">
    <path d="M 518.745646 237.555431 
L 519.102163 237.555431 
L 519.102163 193.759569 
L 518.745646 193.759569 
z
" clip-path="url(#p0bdad7068e)" style="fill: #008000"/>
   </g>
   <g id="patch_88">
    <path d="M 540.136665 256.325086 
L 540.493182 256.325086 
L 540.493182 231.994052 
L 540.136665 231.994052 
z
" clip-path="url(#p0bdad7068e)" style="fill: #008000"/>
   </g>
   <g id="patch_89">
    <path d="M 582.918702 197.930603 
L 583.275219 197.930603 
L 583.275219 176.380259 
L 582.918702 176.380259 
z
" clip-path="url(#p0bdad7068e)" style="fill: #008000"/>
   </g>
   <g id="patch_90">
    <path d="M 590.049042 212.529224 
L 590.405559 212.529224 
L 590.405559 183.331983 
L 590.049042 183.331983 
z
" clip-path="url(#p0bdad7068e)" style="fill: #008000"/>
   </g>
   <g id="patch_91">
    <path d="M 625.700739 181.941638 
L 626.057256 181.941638 
L 626.057256 133.279569 
L 625.700739 133.279569 
z
" clip-path="url(#p0bdad7068e)" style="fill: #008000"/>
   </g>
   <g id="patch_92">
    <path d="M 632.831079 207.663017 
L 633.187596 207.663017 
L 633.187596 172.904397 
L 632.831079 172.904397 
z
" clip-path="url(#p0bdad7068e)" style="fill: #008000"/>
   </g>
   <g id="patch_93">
    <path d="M 639.961418 228.51819 
L 640.317935 228.51819 
L 640.317935 190.283707 
L 639.961418 190.283707 
z
" clip-path="url(#p0bdad7068e)" style="fill: #008000"/>
   </g>
   <g id="patch_94">
    <path d="M 647.091758 229.908534 
L 647.448275 229.908534 
L 647.448275 211.138879 
L 647.091758 211.138879 
z
" clip-path="url(#p0bdad7068e)" style="fill: #008000"/>
   </g>
   <g id="patch_95">
    <path d="M 654.222097 256.325086 
L 654.578614 256.325086 
L 654.578614 237.555431 
L 654.222097 237.555431 
z
" clip-path="url(#p0bdad7068e)" style="fill: #008000"/>
   </g>
   <g id="patch_96">
    <path d="M 661.352437 252.849224 
L 661.708954 252.849224 
L 661.708954 213.919569 
L 661.352437 213.919569 
z
" clip-path="url(#p0bdad7068e)" style="fill: #008000"/>
   </g>
   <g id="patch_97">
    <path d="M 668.482777 262.581638 
L 668.839294 262.581638 
L 668.839294 252.849224 
L 668.482777 252.849224 
z
" clip-path="url(#p0bdad7068e)" style="fill: #008000"/>
   </g>
   <g id="patch_98">
    <path d="M 682.743456 244.507155 
L 683.099973 244.507155 
L 683.099973 221.566466 
L 682.743456 221.566466 
z
" clip-path="url(#p0bdad7068e)" style="fill: #008000"/>
   </g>
   <g id="patch_99">
    <path d="M 711.264814 143.707155 
L 711.621331 143.707155 
L 711.621331 113.814741 
L 711.264814 113.814741 
z
" clip-path="url(#p0bdad7068e)" style="fill: #008000"/>
   </g>
   <g id="patch_100">
    <path d="M 739.786172 134.669914 
L 740.142689 134.669914 
L 740.142689 113.814741 
L 739.786172 113.814741 
z
" clip-path="url(#p0bdad7068e)" style="fill: #008000"/>
   </g>
   <g id="patch_101">
    <path d="M 754.046851 138.840948 
L 754.403368 138.840948 
L 754.403368 127.71819 
L 754.046851 127.71819 
z
" clip-path="url(#p0bdad7068e)" style="fill: #008000"/>
   </g>
   <g id="patch_102">
    <path d="M 768.30753 138.840948 
L 768.664047 138.840948 
L 768.664047 120.766466 
L 768.30753 120.766466 
z
" clip-path="url(#p0bdad7068e)" style="fill: #008000"/>
   </g>
   <g id="patch_103">
    <path d="M 81.834091 127.71819 
L 86.112295 127.71819 
L 86.112295 120.766466 
L 81.834091 120.766466 
z
" clip-path="url(#p0bdad7068e)" style="fill: #ff0000"/>
   </g>
   <g id="patch_104">
    <path d="M 88.96443 120.766466 
L 93.242634 120.766466 
L 93.242634 99.911293 
L 88.96443 99.911293 
z
" clip-path="url(#p0bdad7068e)" style="fill: #ff0000"/>
   </g>
   <g id="patch_105">
    <path d="M 117.485789 186.807845 
L 121.763992 186.807845 
L 121.763992 172.904397 
L 117.485789 172.904397 
z
" clip-path="url(#p0bdad7068e)" style="fill: #ff0000"/>
   </g>
   <g id="patch_106">
    <path d="M 124.616128 172.904397 
L 128.894332 172.904397 
L 128.894332 172.209224 
L 124.616128 172.209224 
z
" clip-path="url(#p0bdad7068e)" style="fill: #ff0000"/>
   </g>
   <g id="patch_107">
    <path d="M 146.007147 405.787155 
L 150.28535 405.787155 
L 150.28535 391.883707 
L 146.007147 391.883707 
z
" clip-path="url(#p0bdad7068e)" style="fill: #ff0000"/>
   </g>
   <g id="patch_108">
    <path d="M 153.137486 391.883707 
L 157.41569 391.883707 
L 157.41569 384.931983 
L 153.137486 384.931983 
z
" clip-path="url(#p0bdad7068e)" style="fill: #ff0000"/>
   </g>
   <g id="patch_109">
    <path d="M 160.267826 384.931983 
L 164.54603 384.931983 
L 164.54603 384.931983 
L 160.267826 384.931983 
z
" clip-path="url(#p0bdad7068e)" style="fill: #ff0000"/>
   </g>
   <g id="patch_110">
    <path d="M 174.528505 395.359569 
L 178.806709 395.359569 
L 178.806709 381.456121 
L 174.528505 381.456121 
z
" clip-path="url(#p0bdad7068e)" style="fill: #ff0000"/>
   </g>
   <g id="patch_111">
    <path d="M 195.919524 426.642328 
L 200.197727 426.642328 
L 200.197727 364.07681 
L 195.919524 364.07681 
z
" clip-path="url(#p0bdad7068e)" style="fill: #ff0000"/>
   </g>
   <g id="patch_112">
    <path d="M 203.049863 364.07681 
L 207.328067 364.07681 
L 207.328067 351.563707 
L 203.049863 351.563707 
z
" clip-path="url(#p0bdad7068e)" style="fill: #ff0000"/>
   </g>
   <g id="patch_113">
    <path d="M 217.310542 384.931983 
L 221.588746 384.931983 
L 221.588746 369.63819 
L 217.310542 369.63819 
z
" clip-path="url(#p0bdad7068e)" style="fill: #ff0000"/>
   </g>
   <g id="patch_114">
    <path d="M 224.440882 369.63819 
L 228.719085 369.63819 
L 228.719085 358.515431 
L 224.440882 358.515431 
z
" clip-path="url(#p0bdad7068e)" style="fill: #ff0000"/>
   </g>
   <g id="patch_115">
    <path d="M 231.571221 358.515431 
L 235.849425 358.515431 
L 235.849425 341.831293 
L 231.571221 341.831293 
z
" clip-path="url(#p0bdad7068e)" style="fill: #ff0000"/>
   </g>
   <g id="patch_116">
    <path d="M 238.701561 341.831293 
L 242.979765 341.831293 
L 242.979765 337.660259 
L 238.701561 337.660259 
z
" clip-path="url(#p0bdad7068e)" style="fill: #ff0000"/>
   </g>
   <g id="patch_117">
    <path d="M 245.8319 337.660259 
L 250.110104 337.660259 
L 250.110104 336.269914 
L 245.8319 336.269914 
z
" clip-path="url(#p0bdad7068e)" style="fill: #ff0000"/>
   </g>
   <g id="patch_118">
    <path d="M 252.96224 336.269914 
L 257.240444 336.269914 
L 257.240444 325.842328 
L 252.96224 325.842328 
z
" clip-path="url(#p0bdad7068e)" style="fill: #ff0000"/>
   </g>
   <g id="patch_119">
    <path d="M 260.092579 325.842328 
L 264.370783 325.842328 
L 264.370783 315.414741 
L 260.092579 315.414741 
z
" clip-path="url(#p0bdad7068e)" style="fill: #ff0000"/>
   </g>
   <g id="patch_120">
    <path d="M 302.874617 401.616121 
L 307.15282 401.616121 
L 307.15282 397.445086 
L 302.874617 397.445086 
z
" clip-path="url(#p0bdad7068e)" style="fill: #ff0000"/>
   </g>
   <g id="patch_121">
    <path d="M 324.265635 409.95819 
L 328.543839 409.95819 
L 328.543839 408.567845 
L 324.265635 408.567845 
z
" clip-path="url(#p0bdad7068e)" style="fill: #ff0000"/>
   </g>
   <g id="patch_122">
    <path d="M 331.395975 408.567845 
L 335.674179 408.567845 
L 335.674179 405.787155 
L 331.395975 405.787155 
z
" clip-path="url(#p0bdad7068e)" style="fill: #ff0000"/>
   </g>
   <g id="patch_123">
    <path d="M 338.526314 405.787155 
L 342.804518 405.787155 
L 342.804518 397.445086 
L 338.526314 397.445086 
z
" clip-path="url(#p0bdad7068e)" style="fill: #ff0000"/>
   </g>
   <g id="patch_124">
    <path d="M 352.786993 401.616121 
L 357.065197 401.616121 
L 357.065197 397.445086 
L 352.786993 397.445086 
z
" clip-path="url(#p0bdad7068e)" style="fill: #ff0000"/>
   </g>
   <g id="patch_125">
    <path d="M 359.917333 397.445086 
L 364.195537 397.445086 
L 364.195537 393.274052 
L 359.917333 393.274052 
z
" clip-path="url(#p0bdad7068e)" style="fill: #ff0000"/>
   </g>
   <g id="patch_126">
    <path d="M 381.308352 405.787155 
L 385.586555 405.787155 
L 385.586555 405.787155 
L 381.308352 405.787155 
z
" clip-path="url(#p0bdad7068e)" style="fill: #ff0000"/>
   </g>
   <g id="patch_127">
    <path d="M 388.438691 405.787155 
L 392.716895 405.787155 
L 392.716895 398.835431 
L 388.438691 398.835431 
z
" clip-path="url(#p0bdad7068e)" style="fill: #ff0000"/>
   </g>
   <g id="patch_128">
    <path d="M 395.569031 398.835431 
L 399.847234 398.835431 
L 399.847234 378.675431 
L 395.569031 378.675431 
z
" clip-path="url(#p0bdad7068e)" style="fill: #ff0000"/>
   </g>
   <g id="patch_129">
    <path d="M 402.69937 378.675431 
L 406.977574 378.675431 
L 406.977574 369.63819 
L 402.69937 369.63819 
z
" clip-path="url(#p0bdad7068e)" style="fill: #ff0000"/>
   </g>
   <g id="patch_130">
    <path d="M 409.82971 369.63819 
L 414.107913 369.63819 
L 414.107913 369.499155 
L 409.82971 369.499155 
z
" clip-path="url(#p0bdad7068e)" style="fill: #ff0000"/>
   </g>
   <g id="patch_131">
    <path d="M 424.090389 372.418879 
L 428.368593 372.418879 
L 428.368593 354.344397 
L 424.090389 354.344397 
z
" clip-path="url(#p0bdad7068e)" style="fill: #ff0000"/>
   </g>
   <g id="patch_132">
    <path d="M 431.220728 354.344397 
L 435.498932 354.344397 
L 435.498932 333.489224 
L 431.220728 333.489224 
z
" clip-path="url(#p0bdad7068e)" style="fill: #ff0000"/>
   </g>
   <g id="patch_133">
    <path d="M 438.351068 333.489224 
L 442.629272 333.489224 
L 442.629272 314.024397 
L 438.351068 314.024397 
z
" clip-path="url(#p0bdad7068e)" style="fill: #ff0000"/>
   </g>
   <g id="patch_134">
    <path d="M 445.481407 314.024397 
L 449.759611 314.024397 
L 449.759611 266.752672 
L 445.481407 266.752672 
z
" clip-path="url(#p0bdad7068e)" style="fill: #ff0000"/>
   </g>
   <g id="patch_135">
    <path d="M 466.872426 301.511293 
L 471.15063 301.511293 
L 471.15063 294.559569 
L 466.872426 294.559569 
z
" clip-path="url(#p0bdad7068e)" style="fill: #ff0000"/>
   </g>
   <g id="patch_136">
    <path d="M 488.263445 334.879569 
L 492.541648 334.879569 
L 492.541648 298.035431 
L 488.263445 298.035431 
z
" clip-path="url(#p0bdad7068e)" style="fill: #ff0000"/>
   </g>
   <g id="patch_137">
    <path d="M 495.393784 298.035431 
L 499.671988 298.035431 
L 499.671988 277.875431 
L 495.393784 277.875431 
z
" clip-path="url(#p0bdad7068e)" style="fill: #ff0000"/>
   </g>
   <g id="patch_138">
    <path d="M 502.524124 277.875431 
L 506.802327 277.875431 
L 506.802327 259.800948 
L 502.524124 259.800948 
z
" clip-path="url(#p0bdad7068e)" style="fill: #ff0000"/>
   </g>
   <g id="patch_139">
    <path d="M 509.654463 259.800948 
L 513.932667 259.800948 
L 513.932667 230.603707 
L 509.654463 230.603707 
z
" clip-path="url(#p0bdad7068e)" style="fill: #ff0000"/>
   </g>
   <g id="patch_140">
    <path d="M 523.915142 234.079569 
L 528.193346 234.079569 
L 528.193346 231.994052 
L 523.915142 231.994052 
z
" clip-path="url(#p0bdad7068e)" style="fill: #ff0000"/>
   </g>
   <g id="patch_141">
    <path d="M 531.045482 231.994052 
L 535.323686 231.994052 
L 535.323686 228.51819 
L 531.045482 228.51819 
z
" clip-path="url(#p0bdad7068e)" style="fill: #ff0000"/>
   </g>
   <g id="patch_142">
    <path d="M 545.306161 256.325086 
L 549.584365 256.325086 
L 549.584365 247.983017 
L 545.306161 247.983017 
z
" clip-path="url(#p0bdad7068e)" style="fill: #ff0000"/>
   </g>
   <g id="patch_143">
    <path d="M 552.436501 247.983017 
L 556.714704 247.983017 
L 556.714704 228.51819 
L 552.436501 228.51819 
z
" clip-path="url(#p0bdad7068e)" style="fill: #ff0000"/>
   </g>
   <g id="patch_144">
    <path d="M 559.56684 228.51819 
L 563.845044 228.51819 
L 563.845044 205.5775 
L 559.56684 205.5775 
z
" clip-path="url(#p0bdad7068e)" style="fill: #ff0000"/>
   </g>
   <g id="patch_145">
    <path d="M 566.69718 205.5775 
L 570.975383 205.5775 
L 570.975383 190.283707 
L 566.69718 190.283707 
z
" clip-path="url(#p0bdad7068e)" style="fill: #ff0000"/>
   </g>
   <g id="patch_146">
    <path d="M 573.827519 190.283707 
L 578.105723 190.283707 
L 578.105723 186.807845 
L 573.827519 186.807845 
z
" clip-path="url(#p0bdad7068e)" style="fill: #ff0000"/>
   </g>
   <g id="patch_147">
    <path d="M 595.218538 211.138879 
L 599.496742 211.138879 
L 599.496742 207.663017 
L 595.218538 207.663017 
z
" clip-path="url(#p0bdad7068e)" style="fill: #ff0000"/>
   </g>
   <g id="patch_148">
    <path d="M 602.348877 207.663017 
L 606.627081 207.663017 
L 606.627081 200.711293 
L 602.348877 200.711293 
z
" clip-path="url(#p0bdad7068e)" style="fill: #ff0000"/>
   </g>
   <g id="patch_149">
    <path d="M 609.479217 200.711293 
L 613.757421 200.711293 
L 613.757421 186.112672 
L 609.479217 186.112672 
z
" clip-path="url(#p0bdad7068e)" style="fill: #ff0000"/>
   </g>
   <g id="patch_150">
    <path d="M 616.609556 186.112672 
L 620.88776 186.112672 
L 620.88776 162.47681 
L 616.609556 162.47681 
z
" clip-path="url(#p0bdad7068e)" style="fill: #ff0000"/>
   </g>
   <g id="patch_151">
    <path d="M 673.652273 259.800948 
L 677.930476 259.800948 
L 677.930476 227.823017 
L 673.652273 227.823017 
z
" clip-path="url(#p0bdad7068e)" style="fill: #ff0000"/>
   </g>
   <g id="patch_152">
    <path d="M 687.912952 242.421638 
L 692.191156 242.421638 
L 692.191156 231.994052 
L 687.912952 231.994052 
z
" clip-path="url(#p0bdad7068e)" style="fill: #ff0000"/>
   </g>
   <g id="patch_153">
    <path d="M 695.043291 231.994052 
L 699.321495 231.994052 
L 699.321495 131.194052 
L 695.043291 131.194052 
z
" clip-path="url(#p0bdad7068e)" style="fill: #ff0000"/>
   </g>
   <g id="patch_154">
    <path d="M 702.173631 131.194052 
L 706.451835 131.194052 
L 706.451835 113.814741 
L 702.173631 113.814741 
z
" clip-path="url(#p0bdad7068e)" style="fill: #ff0000"/>
   </g>
   <g id="patch_155">
    <path d="M 716.43431 138.145776 
L 720.712514 138.145776 
L 720.712514 134.669914 
L 716.43431 134.669914 
z
" clip-path="url(#p0bdad7068e)" style="fill: #ff0000"/>
   </g>
   <g id="patch_156">
    <path d="M 723.56465 134.669914 
L 727.842853 134.669914 
L 727.842853 124.242328 
L 723.56465 124.242328 
z
" clip-path="url(#p0bdad7068e)" style="fill: #ff0000"/>
   </g>
   <g id="patch_157">
    <path d="M 730.694989 124.242328 
L 734.973193 124.242328 
L 734.973193 110.338879 
L 730.694989 110.338879 
z
" clip-path="url(#p0bdad7068e)" style="fill: #ff0000"/>
   </g>
   <g id="patch_158">
    <path d="M 744.955668 133.279569 
L 749.233872 133.279569 
L 749.233872 124.9375 
L 744.955668 124.9375 
z
" clip-path="url(#p0bdad7068e)" style="fill: #ff0000"/>
   </g>
   <g id="patch_159">
    <path d="M 759.216347 134.669914 
L 763.494551 134.669914 
L 763.494551 122.851983 
L 759.216347 122.851983 
z
" clip-path="url(#p0bdad7068e)" style="fill: #ff0000"/>
   </g>
   <g id="patch_160">
    <path d="M 773.477026 134.669914 
L 777.75523 134.669914 
L 777.75523 134.669914 
L 773.477026 134.669914 
z
" clip-path="url(#p0bdad7068e)" style="fill: #ff0000"/>
   </g>
   <g id="patch_161">
    <path d="M 780.607366 134.669914 
L 784.88557 134.669914 
L 784.88557 133.974741 
L 780.607366 133.974741 
z
" clip-path="url(#p0bdad7068e)" style="fill: #ff0000"/>
   </g>
   <g id="patch_162">
    <path d="M 787.737705 133.974741 
L 792.015909 133.974741 
L 792.015909 102.691983 
L 787.737705 102.691983 
z
" clip-path="url(#p0bdad7068e)" style="fill: #ff0000"/>
   </g>
   <g id="patch_163">
    <path d="M 96.09477 155.525086 
L 100.372974 155.525086 
L 100.372974 99.911293 
L 96.09477 99.911293 
z
" clip-path="url(#p0bdad7068e)" style="fill: #008000"/>
   </g>
   <g id="patch_164">
    <path d="M 103.22511 183.331983 
L 107.503313 183.331983 
L 107.503313 155.525086 
L 103.22511 155.525086 
z
" clip-path="url(#p0bdad7068e)" style="fill: #008000"/>
   </g>
   <g id="patch_165">
    <path d="M 110.355449 186.807845 
L 114.633653 186.807845 
L 114.633653 183.331983 
L 110.355449 183.331983 
z
" clip-path="url(#p0bdad7068e)" style="fill: #008000"/>
   </g>
   <g id="patch_166">
    <path d="M 131.746468 301.511293 
L 136.024671 301.511293 
L 136.024671 172.209224 
L 131.746468 172.209224 
z
" clip-path="url(#p0bdad7068e)" style="fill: #008000"/>
   </g>
   <g id="patch_167">
    <path d="M 138.876807 405.787155 
L 143.155011 405.787155 
L 143.155011 301.511293 
L 138.876807 301.511293 
z
" clip-path="url(#p0bdad7068e)" style="fill: #008000"/>
   </g>
   <g id="patch_168">
    <path d="M 167.398165 395.359569 
L 171.676369 395.359569 
L 171.676369 384.931983 
L 167.398165 384.931983 
z
" clip-path="url(#p0bdad7068e)" style="fill: #008000"/>
   </g>
   <g id="patch_169">
    <path d="M 181.658844 404.39681 
L 185.937048 404.39681 
L 185.937048 381.456121 
L 181.658844 381.456121 
z
" clip-path="url(#p0bdad7068e)" style="fill: #008000"/>
   </g>
   <g id="patch_170">
    <path d="M 188.789184 426.642328 
L 193.067388 426.642328 
L 193.067388 404.39681 
L 188.789184 404.39681 
z
" clip-path="url(#p0bdad7068e)" style="fill: #008000"/>
   </g>
   <g id="patch_171">
    <path d="M 210.180203 384.931983 
L 214.458406 384.931983 
L 214.458406 351.563707 
L 210.180203 351.563707 
z
" clip-path="url(#p0bdad7068e)" style="fill: #008000"/>
   </g>
   <g id="patch_172">
    <path d="M 267.222919 339.745776 
L 271.501123 339.745776 
L 271.501123 315.414741 
L 267.222919 315.414741 
z
" clip-path="url(#p0bdad7068e)" style="fill: #008000"/>
   </g>
   <g id="patch_173">
    <path d="M 274.353258 362.686466 
L 278.631462 362.686466 
L 278.631462 339.745776 
L 274.353258 339.745776 
z
" clip-path="url(#p0bdad7068e)" style="fill: #008000"/>
   </g>
   <g id="patch_174">
    <path d="M 281.483598 367.552672 
L 285.761802 367.552672 
L 285.761802 362.686466 
L 281.483598 362.686466 
z
" clip-path="url(#p0bdad7068e)" style="fill: #008000"/>
   </g>
   <g id="patch_175">
    <path d="M 288.613938 388.407845 
L 292.892141 388.407845 
L 292.892141 367.552672 
L 288.613938 367.552672 
z
" clip-path="url(#p0bdad7068e)" style="fill: #008000"/>
   </g>
   <g id="patch_176">
    <path d="M 295.744277 401.616121 
L 300.022481 401.616121 
L 300.022481 388.407845 
L 295.744277 388.407845 
z
" clip-path="url(#p0bdad7068e)" style="fill: #008000"/>
   </g>
   <g id="patch_177">
    <path d="M 310.004956 403.006466 
L 314.28316 403.006466 
L 314.28316 397.445086 
L 310.004956 397.445086 
z
" clip-path="url(#p0bdad7068e)" style="fill: #008000"/>
   </g>
   <g id="patch_178">
    <path d="M 317.135296 409.95819 
L 321.413499 409.95819 
L 321.413499 403.006466 
L 317.135296 403.006466 
z
" clip-path="url(#p0bdad7068e)" style="fill: #008000"/>
   </g>
   <g id="patch_179">
    <path d="M 345.656654 401.616121 
L 349.934858 401.616121 
L 349.934858 397.445086 
L 345.656654 397.445086 
z
" clip-path="url(#p0bdad7068e)" style="fill: #008000"/>
   </g>
   <g id="patch_180">
    <path d="M 367.047673 403.006466 
L 371.325876 403.006466 
L 371.325876 393.274052 
L 367.047673 393.274052 
z
" clip-path="url(#p0bdad7068e)" style="fill: #008000"/>
   </g>
   <g id="patch_181">
    <path d="M 374.178012 405.787155 
L 378.456216 405.787155 
L 378.456216 403.006466 
L 374.178012 403.006466 
z
" clip-path="url(#p0bdad7068e)" style="fill: #008000"/>
   </g>
   <g id="patch_182">
    <path d="M 416.960049 372.418879 
L 421.238253 372.418879 
L 421.238253 369.499155 
L 416.960049 369.499155 
z
" clip-path="url(#p0bdad7068e)" style="fill: #008000"/>
   </g>
   <g id="patch_183">
    <path d="M 452.611747 277.180259 
L 456.889951 277.180259 
L 456.889951 266.752672 
L 452.611747 266.752672 
z
" clip-path="url(#p0bdad7068e)" style="fill: #008000"/>
   </g>
   <g id="patch_184">
    <path d="M 459.742087 301.511293 
L 464.02029 301.511293 
L 464.02029 277.180259 
L 459.742087 277.180259 
z
" clip-path="url(#p0bdad7068e)" style="fill: #008000"/>
   </g>
   <g id="patch_185">
    <path d="M 474.002766 329.31819 
L 478.280969 329.31819 
L 478.280969 294.559569 
L 474.002766 294.559569 
z
" clip-path="url(#p0bdad7068e)" style="fill: #008000"/>
   </g>
   <g id="patch_186">
    <path d="M 481.133105 334.879569 
L 485.411309 334.879569 
L 485.411309 329.31819 
L 481.133105 329.31819 
z
" clip-path="url(#p0bdad7068e)" style="fill: #008000"/>
   </g>
   <g id="patch_187">
    <path d="M 516.784803 234.079569 
L 521.063007 234.079569 
L 521.063007 230.603707 
L 516.784803 230.603707 
z
" clip-path="url(#p0bdad7068e)" style="fill: #008000"/>
   </g>
   <g id="patch_188">
    <path d="M 538.175821 256.325086 
L 542.454025 256.325086 
L 542.454025 228.51819 
L 538.175821 228.51819 
z
" clip-path="url(#p0bdad7068e)" style="fill: #008000"/>
   </g>
   <g id="patch_189">
    <path d="M 580.957859 197.930603 
L 585.236062 197.930603 
L 585.236062 186.807845 
L 580.957859 186.807845 
z
" clip-path="url(#p0bdad7068e)" style="fill: #008000"/>
   </g>
   <g id="patch_190">
    <path d="M 588.088198 211.138879 
L 592.366402 211.138879 
L 592.366402 197.930603 
L 588.088198 197.930603 
z
" clip-path="url(#p0bdad7068e)" style="fill: #008000"/>
   </g>
   <g id="patch_191">
    <path d="M 623.739896 179.856121 
L 628.0181 179.856121 
L 628.0181 162.47681 
L 623.739896 162.47681 
z
" clip-path="url(#p0bdad7068e)" style="fill: #008000"/>
   </g>
   <g id="patch_192">
    <path d="M 630.870235 206.967845 
L 635.148439 206.967845 
L 635.148439 179.856121 
L 630.870235 179.856121 
z
" clip-path="url(#p0bdad7068e)" style="fill: #008000"/>
   </g>
   <g id="patch_193">
    <path d="M 638.000575 214.614741 
L 642.278779 214.614741 
L 642.278779 206.967845 
L 638.000575 206.967845 
z
" clip-path="url(#p0bdad7068e)" style="fill: #008000"/>
   </g>
   <g id="patch_194">
    <path d="M 645.130915 218.090603 
L 649.409118 218.090603 
L 649.409118 214.614741 
L 645.130915 214.614741 
z
" clip-path="url(#p0bdad7068e)" style="fill: #008000"/>
   </g>
   <g id="patch_195">
    <path d="M 652.261254 237.555431 
L 656.539458 237.555431 
L 656.539458 218.090603 
L 652.261254 218.090603 
z
" clip-path="url(#p0bdad7068e)" style="fill: #008000"/>
   </g>
   <g id="patch_196">
    <path d="M 659.391594 248.67819 
L 663.669797 248.67819 
L 663.669797 237.555431 
L 659.391594 237.555431 
z
" clip-path="url(#p0bdad7068e)" style="fill: #008000"/>
   </g>
   <g id="patch_197">
    <path d="M 666.521933 259.800948 
L 670.800137 259.800948 
L 670.800137 248.67819 
L 666.521933 248.67819 
z
" clip-path="url(#p0bdad7068e)" style="fill: #008000"/>
   </g>
   <g id="patch_198">
    <path d="M 680.782612 242.421638 
L 685.060816 242.421638 
L 685.060816 227.823017 
L 680.782612 227.823017 
z
" clip-path="url(#p0bdad7068e)" style="fill: #008000"/>
   </g>
   <g id="patch_199">
    <path d="M 709.30397 138.145776 
L 713.582174 138.145776 
L 713.582174 113.814741 
L 709.30397 113.814741 
z
" clip-path="url(#p0bdad7068e)" style="fill: #008000"/>
   </g>
   <g id="patch_200">
    <path d="M 737.825329 133.279569 
L 742.103532 133.279569 
L 742.103532 110.338879 
L 737.825329 110.338879 
z
" clip-path="url(#p0bdad7068e)" style="fill: #008000"/>
   </g>
   <g id="patch_201">
    <path d="M 752.086008 134.669914 
L 756.364211 134.669914 
L 756.364211 124.9375 
L 752.086008 124.9375 
z
" clip-path="url(#p0bdad7068e)" style="fill: #008000"/>
   </g>
   <g id="patch_202">
    <path d="M 766.346687 134.669914 
L 770.62489 134.669914 
L 770.62489 122.851983 
L 766.346687 122.851983 
z
" clip-path="url(#p0bdad7068e)" style="fill: #008000"/>
   </g>
   <g id="matplotlib.axis_1">
    <g id="xtick_1">
     <g id="line2d_1">
      <defs>
       <path id="m0e7dc68ebd" d="M 0 0 
L 0 3.5 
" style="stroke: #000000; stroke-width: 0.8"/>
      </defs>
      <g>
       <use xlink:href="#m0e7dc68ebd" x="83.973193" y="467.6575" style="stroke: #000000; stroke-width: 0.8"/>
      </g>
     </g>
     <g id="text_1">
      <!-- 2025-03-14 -->
      <g transform="translate(71.422047 506.830859) rotate(-45) scale(0.08 -0.08)">
       <defs>
        <path id="SimHei-32" d="M 300 250 
Q 325 625 650 925 
Q 975 1225 1475 1862 
Q 1975 2500 2125 2850 
Q 2275 3200 2237 3450 
Q 2200 3700 2000 3862 
Q 1800 4025 1537 4000 
Q 1275 3975 1037 3800 
Q 800 3625 675 3275 
L 200 3350 
Q 400 3925 712 4187 
Q 1025 4450 1450 4475 
Q 1700 4500 1900 4462 
Q 2100 4425 2312 4287 
Q 2525 4150 2662 3875 
Q 2800 3600 2762 3212 
Q 2725 2825 2375 2287 
Q 2025 1750 1025 600 
L 2825 600 
L 2825 150 
L 300 150 
L 300 250 
z
" transform="scale(0.015625)"/>
        <path id="SimHei-30" d="M 225 2537 
Q 250 3200 412 3587 
Q 575 3975 875 4225 
Q 1175 4475 1612 4475 
Q 2050 4475 2375 4112 
Q 2700 3750 2800 3200 
Q 2900 2650 2862 1937 
Q 2825 1225 2612 775 
Q 2400 325 1975 150 
Q 1550 -25 1125 187 
Q 700 400 525 750 
Q 350 1100 275 1487 
Q 200 1875 225 2537 
z
M 750 2687 
Q 675 2000 800 1462 
Q 925 925 1212 700 
Q 1500 475 1800 612 
Q 2100 750 2237 1162 
Q 2375 1575 2375 2062 
Q 2375 2550 2337 2950 
Q 2300 3350 2112 3675 
Q 1925 4000 1612 4012 
Q 1300 4025 1062 3700 
Q 825 3375 750 2687 
z
" transform="scale(0.015625)"/>
        <path id="SimHei-35" d="M 550 1325 
Q 725 650 1150 575 
Q 1575 500 1837 662 
Q 2100 825 2212 1087 
Q 2325 1350 2312 1675 
Q 2300 2000 2137 2225 
Q 1975 2450 1725 2525 
Q 1475 2600 1162 2525 
Q 850 2450 650 2175 
L 225 2225 
Q 275 2375 700 4375 
L 2675 4375 
L 2675 3925 
L 1075 3925 
Q 950 3250 825 2850 
Q 1200 3025 1525 3012 
Q 1850 3000 2150 2862 
Q 2450 2725 2587 2487 
Q 2725 2250 2787 2012 
Q 2850 1775 2837 1500 
Q 2825 1225 2725 937 
Q 2625 650 2425 462 
Q 2225 275 1937 162 
Q 1650 50 1275 75 
Q 900 100 562 350 
Q 225 600 100 1200 
L 550 1325 
z
" transform="scale(0.015625)"/>
        <path id="SimHei-2d" d="M 2975 2125 
L 125 2125 
L 125 2525 
L 2975 2525 
L 2975 2125 
z
" transform="scale(0.015625)"/>
        <path id="SimHei-33" d="M 250 1225 
L 700 1300 
Q 800 975 1025 762 
Q 1250 550 1587 562 
Q 1925 575 2125 837 
Q 2325 1100 2300 1437 
Q 2275 1775 2037 1962 
Q 1800 2150 1275 2225 
L 1275 2550 
Q 1800 2600 2037 2825 
Q 2275 3050 2250 3412 
Q 2225 3775 1925 3937 
Q 1625 4100 1287 3975 
Q 950 3850 750 3275 
L 300 3350 
Q 450 3800 712 4100 
Q 975 4400 1425 4450 
Q 1875 4500 2212 4337 
Q 2550 4175 2687 3837 
Q 2825 3500 2725 3100 
Q 2625 2700 2150 2400 
Q 2500 2250 2687 1950 
Q 2875 1650 2812 1162 
Q 2750 675 2375 375 
Q 2000 75 1525 87 
Q 1050 100 700 387 
Q 350 675 250 1225 
z
" transform="scale(0.015625)"/>
        <path id="SimHei-31" d="M 1400 3600 
Q 1075 3275 575 2975 
L 575 3450 
Q 1200 3875 1600 4450 
L 1900 4450 
L 1900 150 
L 1400 150 
L 1400 3600 
z
" transform="scale(0.015625)"/>
        <path id="SimHei-34" d="M 2000 1100 
L 75 1100 
L 75 1525 
L 2100 4450 
L 2475 4450 
L 2475 1525 
L 3075 1525 
L 3075 1100 
L 2475 1100 
L 2475 150 
L 2000 150 
L 2000 1100 
z
M 2000 1525 
L 2000 3500 
L 600 1525 
L 2000 1525 
z
" transform="scale(0.015625)"/>
       </defs>
       <use xlink:href="#SimHei-32"/>
       <use xlink:href="#SimHei-30" transform="translate(50 0)"/>
       <use xlink:href="#SimHei-32" transform="translate(100 0)"/>
       <use xlink:href="#SimHei-35" transform="translate(150 0)"/>
       <use xlink:href="#SimHei-2d" transform="translate(200 0)"/>
       <use xlink:href="#SimHei-30" transform="translate(250 0)"/>
       <use xlink:href="#SimHei-33" transform="translate(300 0)"/>
       <use xlink:href="#SimHei-2d" transform="translate(350 0)"/>
       <use xlink:href="#SimHei-31" transform="translate(400 0)"/>
       <use xlink:href="#SimHei-34" transform="translate(450 0)"/>
      </g>
     </g>
    </g>
    <g id="xtick_2">
     <g id="line2d_2">
      <g>
       <use xlink:href="#m0e7dc68ebd" x="119.62489" y="467.6575" style="stroke: #000000; stroke-width: 0.8"/>
      </g>
     </g>
     <g id="text_2">
      <!-- 2025-03-31 -->
      <g transform="translate(107.073745 506.830859) rotate(-45) scale(0.08 -0.08)">
       <use xlink:href="#SimHei-32"/>
       <use xlink:href="#SimHei-30" transform="translate(50 0)"/>
       <use xlink:href="#SimHei-32" transform="translate(100 0)"/>
       <use xlink:href="#SimHei-35" transform="translate(150 0)"/>
       <use xlink:href="#SimHei-2d" transform="translate(200 0)"/>
       <use xlink:href="#SimHei-30" transform="translate(250 0)"/>
       <use xlink:href="#SimHei-33" transform="translate(300 0)"/>
       <use xlink:href="#SimHei-2d" transform="translate(350 0)"/>
       <use xlink:href="#SimHei-33" transform="translate(400 0)"/>
       <use xlink:href="#SimHei-31" transform="translate(450 0)"/>
      </g>
     </g>
    </g>
    <g id="xtick_3">
     <g id="line2d_3">
      <g>
       <use xlink:href="#m0e7dc68ebd" x="155.276588" y="467.6575" style="stroke: #000000; stroke-width: 0.8"/>
      </g>
     </g>
     <g id="text_3">
      <!-- 2025-04-11 -->
      <g transform="translate(142.725443 506.830859) rotate(-45) scale(0.08 -0.08)">
       <use xlink:href="#SimHei-32"/>
       <use xlink:href="#SimHei-30" transform="translate(50 0)"/>
       <use xlink:href="#SimHei-32" transform="translate(100 0)"/>
       <use xlink:href="#SimHei-35" transform="translate(150 0)"/>
       <use xlink:href="#SimHei-2d" transform="translate(200 0)"/>
       <use xlink:href="#SimHei-30" transform="translate(250 0)"/>
       <use xlink:href="#SimHei-34" transform="translate(300 0)"/>
       <use xlink:href="#SimHei-2d" transform="translate(350 0)"/>
       <use xlink:href="#SimHei-31" transform="translate(400 0)"/>
       <use xlink:href="#SimHei-31" transform="translate(450 0)"/>
      </g>
     </g>
    </g>
    <g id="xtick_4">
     <g id="line2d_4">
      <g>
       <use xlink:href="#m0e7dc68ebd" x="190.928286" y="467.6575" style="stroke: #000000; stroke-width: 0.8"/>
      </g>
     </g>
     <g id="text_4">
      <!-- 2025-05-09 -->
      <g transform="translate(178.377141 506.830859) rotate(-45) scale(0.08 -0.08)">
       <defs>
        <path id="SimHei-39" d="M 800 75 
Q 1350 1000 1700 1750 
Q 1075 1650 662 1912 
Q 250 2175 162 2625 
Q 75 3075 175 3437 
Q 275 3800 487 4037 
Q 700 4275 1000 4375 
Q 1300 4475 1537 4475 
Q 1775 4475 2025 4375 
Q 2275 4275 2475 4075 
Q 2675 3875 2750 3662 
Q 2825 3450 2825 3112 
Q 2825 2775 2575 2250 
Q 2325 1725 1350 75 
L 800 75 
z
M 662 2875 
Q 700 2550 937 2337 
Q 1175 2125 1450 2150 
Q 1725 2175 1887 2300 
Q 2050 2425 2200 2725 
Q 2300 3100 2250 3362 
Q 2200 3625 1987 3800 
Q 1775 3975 1525 3975 
Q 1375 4000 1137 3900 
Q 900 3800 762 3500 
Q 625 3200 662 2875 
z
" transform="scale(0.015625)"/>
       </defs>
       <use xlink:href="#SimHei-32"/>
       <use xlink:href="#SimHei-30" transform="translate(50 0)"/>
       <use xlink:href="#SimHei-32" transform="translate(100 0)"/>
       <use xlink:href="#SimHei-35" transform="translate(150 0)"/>
       <use xlink:href="#SimHei-2d" transform="translate(200 0)"/>
       <use xlink:href="#SimHei-30" transform="translate(250 0)"/>
       <use xlink:href="#SimHei-35" transform="translate(300 0)"/>
       <use xlink:href="#SimHei-2d" transform="translate(350 0)"/>
       <use xlink:href="#SimHei-30" transform="translate(400 0)"/>
       <use xlink:href="#SimHei-39" transform="translate(450 0)"/>
      </g>
     </g>
    </g>
    <g id="xtick_5">
     <g id="line2d_5">
      <g>
       <use xlink:href="#m0e7dc68ebd" x="226.579984" y="467.6575" style="stroke: #000000; stroke-width: 0.8"/>
      </g>
     </g>
     <g id="text_5">
      <!-- 2025-05-21 -->
      <g transform="translate(214.028838 506.830859) rotate(-45) scale(0.08 -0.08)">
       <use xlink:href="#SimHei-32"/>
       <use xlink:href="#SimHei-30" transform="translate(50 0)"/>
       <use xlink:href="#SimHei-32" transform="translate(100 0)"/>
       <use xlink:href="#SimHei-35" transform="translate(150 0)"/>
       <use xlink:href="#SimHei-2d" transform="translate(200 0)"/>
       <use xlink:href="#SimHei-30" transform="translate(250 0)"/>
       <use xlink:href="#SimHei-35" transform="translate(300 0)"/>
       <use xlink:href="#SimHei-2d" transform="translate(350 0)"/>
       <use xlink:href="#SimHei-32" transform="translate(400 0)"/>
       <use xlink:href="#SimHei-31" transform="translate(450 0)"/>
      </g>
     </g>
    </g>
    <g id="xtick_6">
     <g id="line2d_6">
      <g>
       <use xlink:href="#m0e7dc68ebd" x="262.231681" y="467.6575" style="stroke: #000000; stroke-width: 0.8"/>
      </g>
     </g>
     <g id="text_6">
      <!-- 2025-05-28 -->
      <g transform="translate(249.680536 506.830859) rotate(-45) scale(0.08 -0.08)">
       <defs>
        <path id="SimHei-38" d="M 175 1375 
Q 175 1675 325 1962 
Q 475 2250 825 2425 
Q 525 2600 425 2812 
Q 325 3025 312 3300 
Q 300 3575 387 3775 
Q 475 3975 650 4150 
Q 825 4325 1037 4387 
Q 1250 4450 1500 4450 
Q 1750 4450 1950 4400 
Q 2150 4350 2375 4187 
Q 2600 4025 2700 3725 
Q 2800 3425 2687 3025 
Q 2575 2625 2100 2400 
Q 2525 2275 2700 2012 
Q 2875 1750 2875 1375 
Q 2875 1000 2762 775 
Q 2650 550 2512 400 
Q 2375 250 2137 162 
Q 1900 75 1537 75 
Q 1175 75 912 162 
Q 650 250 475 425 
Q 300 600 237 837 
Q 175 1075 175 1375 
z
M 687 1400 
Q 675 1100 787 875 
Q 900 650 1200 587 
Q 1500 525 1825 600 
Q 2150 675 2275 950 
Q 2400 1225 2362 1500 
Q 2325 1775 2050 1962 
Q 1775 2150 1450 2125 
Q 1125 2100 912 1900 
Q 700 1700 687 1400 
z
M 775 3350 
Q 775 3100 950 2875 
Q 1125 2650 1500 2650 
Q 1875 2650 2062 2875 
Q 2250 3100 2237 3412 
Q 2225 3725 2012 3875 
Q 1800 4025 1437 4000 
Q 1075 3975 925 3787 
Q 775 3600 775 3350 
z
" transform="scale(0.015625)"/>
       </defs>
       <use xlink:href="#SimHei-32"/>
       <use xlink:href="#SimHei-30" transform="translate(50 0)"/>
       <use xlink:href="#SimHei-32" transform="translate(100 0)"/>
       <use xlink:href="#SimHei-35" transform="translate(150 0)"/>
       <use xlink:href="#SimHei-2d" transform="translate(200 0)"/>
       <use xlink:href="#SimHei-30" transform="translate(250 0)"/>
       <use xlink:href="#SimHei-35" transform="translate(300 0)"/>
       <use xlink:href="#SimHei-2d" transform="translate(350 0)"/>
       <use xlink:href="#SimHei-32" transform="translate(400 0)"/>
       <use xlink:href="#SimHei-38" transform="translate(450 0)"/>
      </g>
     </g>
    </g>
    <g id="xtick_7">
     <g id="line2d_7">
      <g>
       <use xlink:href="#m0e7dc68ebd" x="297.883379" y="467.6575" style="stroke: #000000; stroke-width: 0.8"/>
      </g>
     </g>
     <g id="text_7">
      <!-- 2025-06-11 -->
      <g transform="translate(285.332234 506.830859) rotate(-45) scale(0.08 -0.08)">
       <defs>
        <path id="SimHei-36" d="M 250 1612 
Q 275 1975 387 2225 
Q 500 2475 725 2850 
L 1750 4450 
L 2325 4450 
L 1275 2800 
Q 1950 2975 2350 2750 
Q 2750 2525 2887 2237 
Q 3025 1950 3037 1612 
Q 3050 1275 2937 950 
Q 2825 625 2537 362 
Q 2250 100 1737 75 
Q 1225 50 862 262 
Q 500 475 362 862 
Q 225 1250 250 1612 
z
M 1025 787 
Q 1250 550 1625 525 
Q 2000 500 2250 775 
Q 2500 1050 2500 1575 
Q 2500 2100 2187 2300 
Q 1875 2500 1487 2450 
Q 1100 2400 925 2075 
Q 750 1750 775 1387 
Q 800 1025 1025 787 
z
" transform="scale(0.015625)"/>
       </defs>
       <use xlink:href="#SimHei-32"/>
       <use xlink:href="#SimHei-30" transform="translate(50 0)"/>
       <use xlink:href="#SimHei-32" transform="translate(100 0)"/>
       <use xlink:href="#SimHei-35" transform="translate(150 0)"/>
       <use xlink:href="#SimHei-2d" transform="translate(200 0)"/>
       <use xlink:href="#SimHei-30" transform="translate(250 0)"/>
       <use xlink:href="#SimHei-36" transform="translate(300 0)"/>
       <use xlink:href="#SimHei-2d" transform="translate(350 0)"/>
       <use xlink:href="#SimHei-31" transform="translate(400 0)"/>
       <use xlink:href="#SimHei-31" transform="translate(450 0)"/>
      </g>
     </g>
    </g>
    <g id="xtick_8">
     <g id="line2d_8">
      <g>
       <use xlink:href="#m0e7dc68ebd" x="333.535077" y="467.6575" style="stroke: #000000; stroke-width: 0.8"/>
      </g>
     </g>
     <g id="text_8">
      <!-- 2025-06-23 -->
      <g transform="translate(320.983931 506.830859) rotate(-45) scale(0.08 -0.08)">
       <use xlink:href="#SimHei-32"/>
       <use xlink:href="#SimHei-30" transform="translate(50 0)"/>
       <use xlink:href="#SimHei-32" transform="translate(100 0)"/>
       <use xlink:href="#SimHei-35" transform="translate(150 0)"/>
       <use xlink:href="#SimHei-2d" transform="translate(200 0)"/>
       <use xlink:href="#SimHei-30" transform="translate(250 0)"/>
       <use xlink:href="#SimHei-36" transform="translate(300 0)"/>
       <use xlink:href="#SimHei-2d" transform="translate(350 0)"/>
       <use xlink:href="#SimHei-32" transform="translate(400 0)"/>
       <use xlink:href="#SimHei-33" transform="translate(450 0)"/>
      </g>
     </g>
    </g>
    <g id="xtick_9">
     <g id="line2d_9">
      <g>
       <use xlink:href="#m0e7dc68ebd" x="369.186774" y="467.6575" style="stroke: #000000; stroke-width: 0.8"/>
      </g>
     </g>
     <g id="text_9">
      <!-- 2025-07-01 -->
      <g transform="translate(356.635629 506.830859) rotate(-45) scale(0.08 -0.08)">
       <defs>
        <path id="SimHei-37" d="M 850 150 
Q 1300 2050 2425 3925 
L 275 3925 
L 275 4375 
L 2950 4375 
L 2950 3950 
Q 1775 2050 1400 150 
L 850 150 
z
" transform="scale(0.015625)"/>
       </defs>
       <use xlink:href="#SimHei-32"/>
       <use xlink:href="#SimHei-30" transform="translate(50 0)"/>
       <use xlink:href="#SimHei-32" transform="translate(100 0)"/>
       <use xlink:href="#SimHei-35" transform="translate(150 0)"/>
       <use xlink:href="#SimHei-2d" transform="translate(200 0)"/>
       <use xlink:href="#SimHei-30" transform="translate(250 0)"/>
       <use xlink:href="#SimHei-37" transform="translate(300 0)"/>
       <use xlink:href="#SimHei-2d" transform="translate(350 0)"/>
       <use xlink:href="#SimHei-30" transform="translate(400 0)"/>
       <use xlink:href="#SimHei-31" transform="translate(450 0)"/>
      </g>
     </g>
    </g>
    <g id="xtick_10">
     <g id="line2d_10">
      <g>
       <use xlink:href="#m0e7dc68ebd" x="404.838472" y="467.6575" style="stroke: #000000; stroke-width: 0.8"/>
      </g>
     </g>
     <g id="text_10">
      <!-- 2025-07-11 -->
      <g transform="translate(392.287327 506.830859) rotate(-45) scale(0.08 -0.08)">
       <use xlink:href="#SimHei-32"/>
       <use xlink:href="#SimHei-30" transform="translate(50 0)"/>
       <use xlink:href="#SimHei-32" transform="translate(100 0)"/>
       <use xlink:href="#SimHei-35" transform="translate(150 0)"/>
       <use xlink:href="#SimHei-2d" transform="translate(200 0)"/>
       <use xlink:href="#SimHei-30" transform="translate(250 0)"/>
       <use xlink:href="#SimHei-37" transform="translate(300 0)"/>
       <use xlink:href="#SimHei-2d" transform="translate(350 0)"/>
       <use xlink:href="#SimHei-31" transform="translate(400 0)"/>
       <use xlink:href="#SimHei-31" transform="translate(450 0)"/>
      </g>
     </g>
    </g>
    <g id="xtick_11">
     <g id="line2d_11">
      <g>
       <use xlink:href="#m0e7dc68ebd" x="440.49017" y="467.6575" style="stroke: #000000; stroke-width: 0.8"/>
      </g>
     </g>
     <g id="text_11">
      <!-- 2025-07-23 -->
      <g transform="translate(427.939024 506.830859) rotate(-45) scale(0.08 -0.08)">
       <use xlink:href="#SimHei-32"/>
       <use xlink:href="#SimHei-30" transform="translate(50 0)"/>
       <use xlink:href="#SimHei-32" transform="translate(100 0)"/>
       <use xlink:href="#SimHei-35" transform="translate(150 0)"/>
       <use xlink:href="#SimHei-2d" transform="translate(200 0)"/>
       <use xlink:href="#SimHei-30" transform="translate(250 0)"/>
       <use xlink:href="#SimHei-37" transform="translate(300 0)"/>
       <use xlink:href="#SimHei-2d" transform="translate(350 0)"/>
       <use xlink:href="#SimHei-32" transform="translate(400 0)"/>
       <use xlink:href="#SimHei-33" transform="translate(450 0)"/>
      </g>
     </g>
    </g>
    <g id="xtick_12">
     <g id="line2d_12">
      <g>
       <use xlink:href="#m0e7dc68ebd" x="476.141867" y="467.6575" style="stroke: #000000; stroke-width: 0.8"/>
      </g>
     </g>
     <g id="text_12">
      <!-- 2025-08-01 -->
      <g transform="translate(463.590722 506.830859) rotate(-45) scale(0.08 -0.08)">
       <use xlink:href="#SimHei-32"/>
       <use xlink:href="#SimHei-30" transform="translate(50 0)"/>
       <use xlink:href="#SimHei-32" transform="translate(100 0)"/>
       <use xlink:href="#SimHei-35" transform="translate(150 0)"/>
       <use xlink:href="#SimHei-2d" transform="translate(200 0)"/>
       <use xlink:href="#SimHei-30" transform="translate(250 0)"/>
       <use xlink:href="#SimHei-38" transform="translate(300 0)"/>
       <use xlink:href="#SimHei-2d" transform="translate(350 0)"/>
       <use xlink:href="#SimHei-30" transform="translate(400 0)"/>
       <use xlink:href="#SimHei-31" transform="translate(450 0)"/>
      </g>
     </g>
    </g>
    <g id="xtick_13">
     <g id="line2d_13">
      <g>
       <use xlink:href="#m0e7dc68ebd" x="511.793565" y="467.6575" style="stroke: #000000; stroke-width: 0.8"/>
      </g>
     </g>
     <g id="text_13">
      <!-- 2025-08-19 -->
      <g transform="translate(499.24242 506.830859) rotate(-45) scale(0.08 -0.08)">
       <use xlink:href="#SimHei-32"/>
       <use xlink:href="#SimHei-30" transform="translate(50 0)"/>
       <use xlink:href="#SimHei-32" transform="translate(100 0)"/>
       <use xlink:href="#SimHei-35" transform="translate(150 0)"/>
       <use xlink:href="#SimHei-2d" transform="translate(200 0)"/>
       <use xlink:href="#SimHei-30" transform="translate(250 0)"/>
       <use xlink:href="#SimHei-38" transform="translate(300 0)"/>
       <use xlink:href="#SimHei-2d" transform="translate(350 0)"/>
       <use xlink:href="#SimHei-31" transform="translate(400 0)"/>
       <use xlink:href="#SimHei-39" transform="translate(450 0)"/>
      </g>
     </g>
    </g>
    <g id="xtick_14">
     <g id="line2d_14">
      <g>
       <use xlink:href="#m0e7dc68ebd" x="547.445263" y="467.6575" style="stroke: #000000; stroke-width: 0.8"/>
      </g>
     </g>
     <g id="text_14">
      <!-- 2025-09-04 -->
      <g transform="translate(534.894118 506.830859) rotate(-45) scale(0.08 -0.08)">
       <use xlink:href="#SimHei-32"/>
       <use xlink:href="#SimHei-30" transform="translate(50 0)"/>
       <use xlink:href="#SimHei-32" transform="translate(100 0)"/>
       <use xlink:href="#SimHei-35" transform="translate(150 0)"/>
       <use xlink:href="#SimHei-2d" transform="translate(200 0)"/>
       <use xlink:href="#SimHei-30" transform="translate(250 0)"/>
       <use xlink:href="#SimHei-39" transform="translate(300 0)"/>
       <use xlink:href="#SimHei-2d" transform="translate(350 0)"/>
       <use xlink:href="#SimHei-30" transform="translate(400 0)"/>
       <use xlink:href="#SimHei-34" transform="translate(450 0)"/>
      </g>
     </g>
    </g>
    <g id="xtick_15">
     <g id="line2d_15">
      <g>
       <use xlink:href="#m0e7dc68ebd" x="583.096961" y="467.6575" style="stroke: #000000; stroke-width: 0.8"/>
      </g>
     </g>
     <g id="text_15">
      <!-- 2025-09-12 -->
      <g transform="translate(570.545815 506.830859) rotate(-45) scale(0.08 -0.08)">
       <use xlink:href="#SimHei-32"/>
       <use xlink:href="#SimHei-30" transform="translate(50 0)"/>
       <use xlink:href="#SimHei-32" transform="translate(100 0)"/>
       <use xlink:href="#SimHei-35" transform="translate(150 0)"/>
       <use xlink:href="#SimHei-2d" transform="translate(200 0)"/>
       <use xlink:href="#SimHei-30" transform="translate(250 0)"/>
       <use xlink:href="#SimHei-39" transform="translate(300 0)"/>
       <use xlink:href="#SimHei-2d" transform="translate(350 0)"/>
       <use xlink:href="#SimHei-31" transform="translate(400 0)"/>
       <use xlink:href="#SimHei-32" transform="translate(450 0)"/>
      </g>
     </g>
    </g>
    <g id="xtick_16">
     <g id="line2d_16">
      <g>
       <use xlink:href="#m0e7dc68ebd" x="618.748658" y="467.6575" style="stroke: #000000; stroke-width: 0.8"/>
      </g>
     </g>
     <g id="text_16">
      <!-- 2025-09-24 -->
      <g transform="translate(606.197513 506.830859) rotate(-45) scale(0.08 -0.08)">
       <use xlink:href="#SimHei-32"/>
       <use xlink:href="#SimHei-30" transform="translate(50 0)"/>
       <use xlink:href="#SimHei-32" transform="translate(100 0)"/>
       <use xlink:href="#SimHei-35" transform="translate(150 0)"/>
       <use xlink:href="#SimHei-2d" transform="translate(200 0)"/>
       <use xlink:href="#SimHei-30" transform="translate(250 0)"/>
       <use xlink:href="#SimHei-39" transform="translate(300 0)"/>
       <use xlink:href="#SimHei-2d" transform="translate(350 0)"/>
       <use xlink:href="#SimHei-32" transform="translate(400 0)"/>
       <use xlink:href="#SimHei-34" transform="translate(450 0)"/>
      </g>
     </g>
    </g>
    <g id="xtick_17">
     <g id="line2d_17">
      <g>
       <use xlink:href="#m0e7dc68ebd" x="654.400356" y="467.6575" style="stroke: #000000; stroke-width: 0.8"/>
      </g>
     </g>
     <g id="text_17">
      <!-- 2025-10-13 -->
      <g transform="translate(641.849211 506.830859) rotate(-45) scale(0.08 -0.08)">
       <use xlink:href="#SimHei-32"/>
       <use xlink:href="#SimHei-30" transform="translate(50 0)"/>
       <use xlink:href="#SimHei-32" transform="translate(100 0)"/>
       <use xlink:href="#SimHei-35" transform="translate(150 0)"/>
       <use xlink:href="#SimHei-2d" transform="translate(200 0)"/>
       <use xlink:href="#SimHei-31" transform="translate(250 0)"/>
       <use xlink:href="#SimHei-30" transform="translate(300 0)"/>
       <use xlink:href="#SimHei-2d" transform="translate(350 0)"/>
       <use xlink:href="#SimHei-31" transform="translate(400 0)"/>
       <use xlink:href="#SimHei-33" transform="translate(450 0)"/>
      </g>
     </g>
    </g>
    <g id="xtick_18">
     <g id="line2d_18">
      <g>
       <use xlink:href="#m0e7dc68ebd" x="690.052054" y="467.6575" style="stroke: #000000; stroke-width: 0.8"/>
      </g>
     </g>
     <g id="text_18">
      <!-- 2025-10-22 -->
      <g transform="translate(677.500908 506.830859) rotate(-45) scale(0.08 -0.08)">
       <use xlink:href="#SimHei-32"/>
       <use xlink:href="#SimHei-30" transform="translate(50 0)"/>
       <use xlink:href="#SimHei-32" transform="translate(100 0)"/>
       <use xlink:href="#SimHei-35" transform="translate(150 0)"/>
       <use xlink:href="#SimHei-2d" transform="translate(200 0)"/>
       <use xlink:href="#SimHei-31" transform="translate(250 0)"/>
       <use xlink:href="#SimHei-30" transform="translate(300 0)"/>
       <use xlink:href="#SimHei-2d" transform="translate(350 0)"/>
       <use xlink:href="#SimHei-32" transform="translate(400 0)"/>
       <use xlink:href="#SimHei-32" transform="translate(450 0)"/>
      </g>
     </g>
    </g>
    <g id="xtick_19">
     <g id="line2d_19">
      <g>
       <use xlink:href="#m0e7dc68ebd" x="725.703751" y="467.6575" style="stroke: #000000; stroke-width: 0.8"/>
      </g>
     </g>
     <g id="text_19">
      <!-- 2025-12-12 -->
      <g transform="translate(713.152606 506.830859) rotate(-45) scale(0.08 -0.08)">
       <use xlink:href="#SimHei-32"/>
       <use xlink:href="#SimHei-30" transform="translate(50 0)"/>
       <use xlink:href="#SimHei-32" transform="translate(100 0)"/>
       <use xlink:href="#SimHei-35" transform="translate(150 0)"/>
       <use xlink:href="#SimHei-2d" transform="translate(200 0)"/>
       <use xlink:href="#SimHei-31" transform="translate(250 0)"/>
       <use xlink:href="#SimHei-32" transform="translate(300 0)"/>
       <use xlink:href="#SimHei-2d" transform="translate(350 0)"/>
       <use xlink:href="#SimHei-31" transform="translate(400 0)"/>
       <use xlink:href="#SimHei-32" transform="translate(450 0)"/>
      </g>
     </g>
    </g>
    <g id="xtick_20">
     <g id="line2d_20">
      <g>
       <use xlink:href="#m0e7dc68ebd" x="761.355449" y="467.6575" style="stroke: #000000; stroke-width: 0.8"/>
      </g>
     </g>
     <g id="text_20">
      <!-- 2025-12-22 -->
      <g transform="translate(748.804304 506.830859) rotate(-45) scale(0.08 -0.08)">
       <use xlink:href="#SimHei-32"/>
       <use xlink:href="#SimHei-30" transform="translate(50 0)"/>
       <use xlink:href="#SimHei-32" transform="translate(100 0)"/>
       <use xlink:href="#SimHei-35" transform="translate(150 0)"/>
       <use xlink:href="#SimHei-2d" transform="translate(200 0)"/>
       <use xlink:href="#SimHei-31" transform="translate(250 0)"/>
       <use xlink:href="#SimHei-32" transform="translate(300 0)"/>
       <use xlink:href="#SimHei-2d" transform="translate(350 0)"/>
       <use xlink:href="#SimHei-32" transform="translate(400 0)"/>
       <use xlink:href="#SimHei-32" transform="translate(450 0)"/>
      </g>
     </g>
    </g>
   </g>
   <g id="matplotlib.axis_2">
    <g id="ytick_1">
     <g id="line2d_21">
      <defs>
       <path id="mfb7c63fbc7" d="M 0 0 
L -3.5 0 
" style="stroke: #000000; stroke-width: 0.8"/>
      </defs>
      <g>
       <use xlink:href="#mfb7c63fbc7" x="46.325" y="461.400948" style="stroke: #000000; stroke-width: 0.8"/>
      </g>
     </g>
     <g id="text_21">
      <!-- 1.60 -->
      <g transform="translate(19.325 464.838448) scale(0.1 -0.1)">
       <defs>
        <path id="SimHei-2e" d="M 1075 125 
L 500 125 
L 500 675 
L 1075 675 
L 1075 125 
z
" transform="scale(0.015625)"/>
       </defs>
       <use xlink:href="#SimHei-31"/>
       <use xlink:href="#SimHei-2e" transform="translate(50 0)"/>
       <use xlink:href="#SimHei-36" transform="translate(100 0)"/>
       <use xlink:href="#SimHei-30" transform="translate(150 0)"/>
      </g>
     </g>
    </g>
    <g id="ytick_2">
     <g id="line2d_22">
      <g>
       <use xlink:href="#mfb7c63fbc7" x="46.325" y="391.883707" style="stroke: #000000; stroke-width: 0.8"/>
      </g>
     </g>
     <g id="text_22">
      <!-- 1.65 -->
      <g transform="translate(19.325 395.321207) scale(0.1 -0.1)">
       <use xlink:href="#SimHei-31"/>
       <use xlink:href="#SimHei-2e" transform="translate(50 0)"/>
       <use xlink:href="#SimHei-36" transform="translate(100 0)"/>
       <use xlink:href="#SimHei-35" transform="translate(150 0)"/>
      </g>
     </g>
    </g>
    <g id="ytick_3">
     <g id="line2d_23">
      <g>
       <use xlink:href="#mfb7c63fbc7" x="46.325" y="322.366466" style="stroke: #000000; stroke-width: 0.8"/>
      </g>
     </g>
     <g id="text_23">
      <!-- 1.70 -->
      <g transform="translate(19.325 325.803966) scale(0.1 -0.1)">
       <use xlink:href="#SimHei-31"/>
       <use xlink:href="#SimHei-2e" transform="translate(50 0)"/>
       <use xlink:href="#SimHei-37" transform="translate(100 0)"/>
       <use xlink:href="#SimHei-30" transform="translate(150 0)"/>
      </g>
     </g>
    </g>
    <g id="ytick_4">
     <g id="line2d_24">
      <g>
       <use xlink:href="#mfb7c63fbc7" x="46.325" y="252.849224" style="stroke: #000000; stroke-width: 0.8"/>
      </g>
     </g>
     <g id="text_24">
      <!-- 1.75 -->
      <g transform="translate(19.325 256.286724) scale(0.1 -0.1)">
       <use xlink:href="#SimHei-31"/>
       <use xlink:href="#SimHei-2e" transform="translate(50 0)"/>
       <use xlink:href="#SimHei-37" transform="translate(100 0)"/>
       <use xlink:href="#SimHei-35" transform="translate(150 0)"/>
      </g>
     </g>
    </g>
    <g id="ytick_5">
     <g id="line2d_25">
      <g>
       <use xlink:href="#mfb7c63fbc7" x="46.325" y="183.331983" style="stroke: #000000; stroke-width: 0.8"/>
      </g>
     </g>
     <g id="text_25">
      <!-- 1.80 -->
      <g transform="translate(19.325 186.769483) scale(0.1 -0.1)">
       <use xlink:href="#SimHei-31"/>
       <use xlink:href="#SimHei-2e" transform="translate(50 0)"/>
       <use xlink:href="#SimHei-38" transform="translate(100 0)"/>
       <use xlink:href="#SimHei-30" transform="translate(150 0)"/>
      </g>
     </g>
    </g>
    <g id="ytick_6">
     <g id="line2d_26">
      <g>
       <use xlink:href="#mfb7c63fbc7" x="46.325" y="113.814741" style="stroke: #000000; stroke-width: 0.8"/>
      </g>
     </g>
     <g id="text_26">
      <!-- 1.85 -->
      <g transform="translate(19.325 117.252241) scale(0.1 -0.1)">
       <use xlink:href="#SimHei-31"/>
       <use xlink:href="#SimHei-2e" transform="translate(50 0)"/>
       <use xlink:href="#SimHei-38" transform="translate(100 0)"/>
       <use xlink:href="#SimHei-35" transform="translate(150 0)"/>
      </g>
     </g>
    </g>
    <g id="ytick_7">
     <g id="line2d_27">
      <g>
       <use xlink:href="#mfb7c63fbc7" x="46.325" y="44.2975" style="stroke: #000000; stroke-width: 0.8"/>
      </g>
     </g>
     <g id="text_27">
      <!-- 1.90 -->
      <g transform="translate(19.325 47.735) scale(0.1 -0.1)">
       <use xlink:href="#SimHei-31"/>
       <use xlink:href="#SimHei-2e" transform="translate(50 0)"/>
       <use xlink:href="#SimHei-39" transform="translate(100 0)"/>
       <use xlink:href="#SimHei-30" transform="translate(150 0)"/>
      </g>
     </g>
    </g>
    <g id="text_28">
     <!-- Price -->
     <g transform="translate(14.075 258.3975) rotate(-90) scale(0.1 -0.1)">
      <defs>
       <path id="SimHei-50" d="M 2950 3100 
Q 2950 2500 2600 2150 
Q 2250 1800 1625 1800 
L 900 1800 
L 900 125 
L 325 125 
L 325 4400 
L 1625 4400 
Q 2250 4400 2600 4050 
Q 2950 3700 2950 3100 
z
M 2375 3100 
Q 2375 3575 2150 3750 
Q 1925 3925 1475 3925 
L 900 3925 
L 900 2275 
L 1475 2275 
Q 1925 2275 2150 2450 
Q 2375 2625 2375 3100 
z
" transform="scale(0.015625)"/>
       <path id="SimHei-72" d="M 2500 2425 
Q 2025 2500 1700 2287 
Q 1375 2075 1150 1550 
L 1150 125 
L 650 125 
L 650 2925 
L 1150 2925 
L 1150 2200 
Q 1375 2600 1712 2787 
Q 2050 2975 2500 2975 
L 2500 2425 
z
" transform="scale(0.015625)"/>
       <path id="SimHei-69" d="M 1800 3725 
L 1300 3725 
L 1300 4375 
L 1800 4375 
L 1800 3725 
z
M 1800 125 
L 1300 125 
L 1300 2925 
L 1800 2925 
L 1800 125 
z
" transform="scale(0.015625)"/>
       <path id="SimHei-63" d="M 2850 1250 
Q 2850 725 2487 400 
Q 2125 75 1575 75 
Q 1025 75 625 462 
Q 225 850 225 1525 
Q 225 2200 625 2587 
Q 1025 2975 1575 2975 
Q 2125 2975 2450 2687 
Q 2775 2400 2775 2000 
L 2225 2000 
Q 2200 2300 2012 2412 
Q 1825 2525 1575 2525 
Q 1275 2525 1025 2287 
Q 775 2050 775 1525 
Q 775 1000 1025 762 
Q 1275 525 1575 525 
Q 1900 525 2100 700 
Q 2300 875 2300 1250 
L 2850 1250 
z
" transform="scale(0.015625)"/>
       <path id="SimHei-65" d="M 2850 1075 
Q 2800 625 2450 350 
Q 2100 75 1625 75 
Q 1025 75 637 462 
Q 250 850 250 1525 
Q 250 2200 637 2587 
Q 1025 2975 1625 2975 
Q 2150 2975 2487 2637 
Q 2825 2300 2825 1525 
L 800 1525 
Q 800 975 1037 750 
Q 1275 525 1625 525 
Q 1900 525 2075 662 
Q 2250 800 2300 1075 
L 2850 1075 
z
M 2250 1925 
Q 2200 2275 2025 2412 
Q 1850 2550 1575 2550 
Q 1325 2550 1125 2412 
Q 925 2275 825 1925 
L 2250 1925 
z
" transform="scale(0.015625)"/>
      </defs>
      <use xlink:href="#SimHei-50"/>
      <use xlink:href="#SimHei-72" transform="translate(50 0)"/>
      <use xlink:href="#SimHei-69" transform="translate(100 0)"/>
      <use xlink:href="#SimHei-63" transform="translate(150 0)"/>
      <use xlink:href="#SimHei-65" transform="translate(200 0)"/>
     </g>
    </g>
   </g>
   <g id="line2d_28">
    <path d="M 190.928286 447.4975 
L 262.231681 314.024397 
" clip-path="url(#p0bdad7068e)" style="fill: none; stroke: #800080; stroke-opacity: 0.8; stroke-width: 1.5; stroke-linecap: square"/>
   </g>
   <g id="line2d_29">
    <path d="M 376.317114 413.434052 
L 454.750849 250.068534 
" clip-path="url(#p0bdad7068e)" style="fill: none; stroke: #800080; stroke-opacity: 0.8; stroke-width: 1.5; stroke-linecap: square"/>
   </g>
   <g id="line2d_30">
    <path d="M 483.272207 350.173362 
L 518.923905 193.759569 
" clip-path="url(#p0bdad7068e)" style="fill: none; stroke: #800080; stroke-opacity: 0.8; stroke-width: 1.5; stroke-linecap: square"/>
   </g>
   <g id="line2d_31">
    <path d="M 547.445263 270.923707 
L 625.878998 133.279569 
" clip-path="url(#p0bdad7068e)" style="fill: none; stroke: #800080; stroke-opacity: 0.8; stroke-width: 1.5; stroke-linecap: square"/>
   </g>
   <g id="line2d_32">
    <path d="M 668.661035 262.581638 
L 761.355449 116.595431 
" clip-path="url(#p0bdad7068e)" style="fill: none; stroke: #800080; stroke-opacity: 0.8; stroke-width: 1.5; stroke-linecap: square"/>
   </g>
   <g id="patch_203">
    <path d="M 46.325 467.6575 
L 46.325 24.1375 
" style="fill: none; stroke: #000000; stroke-width: 0.8; stroke-linejoin: miter; stroke-linecap: square"/>
   </g>
   <g id="patch_204">
    <path d="M 827.525 467.6575 
L 827.525 24.1375 
" style="fill: none; stroke: #000000; stroke-width: 0.8; stroke-linejoin: miter; stroke-linecap: square"/>
   </g>
   <g id="patch_205">
    <path d="M 46.325 467.6575 
L 827.525 467.6575 
" style="fill: none; stroke: #000000; stroke-width: 0.8; stroke-linejoin: miter; stroke-linecap: square"/>
   </g>
   <g id="patch_206">
    <path d="M 46.325 24.1375 
L 827.525 24.1375 
" style="fill: none; stroke: #000000; stroke-width: 0.8; stroke-linejoin: miter; stroke-linecap: square"/>
   </g>
   <g id="text_29">
    <!-- T 1.90 -->
    <g transform="translate(93.242634 41.655845) scale(0.08 -0.08)">
     <defs>
      <path id="SimHei-54" d="M 2850 3925 
L 1850 3925 
L 1850 125 
L 1275 125 
L 1275 3925 
L 275 3925 
L 275 4400 
L 2850 4400 
L 2850 3925 
z
" transform="scale(0.015625)"/>
      <path id="SimHei-20" transform="scale(0.015625)"/>
     </defs>
     <use xlink:href="#SimHei-54"/>
     <use xlink:href="#SimHei-20" transform="translate(50 0)"/>
     <use xlink:href="#SimHei-31" transform="translate(100 0)"/>
     <use xlink:href="#SimHei-2e" transform="translate(150 0)"/>
     <use xlink:href="#SimHei-39" transform="translate(200 0)"/>
     <use xlink:href="#SimHei-30" transform="translate(250 0)"/>
    </g>
   </g>
   <g id="text_30">
    <!-- Bx -->
    <g style="fill: #808080" transform="translate(143.155011 451.97441) scale(0.08 -0.08)">
     <defs>
      <path id="SimHei-42" d="M 2950 1400 
Q 2950 675 2550 400 
Q 2150 125 1525 125 
L 275 125 
L 275 4400 
L 1575 4400 
Q 2200 4400 2512 4075 
Q 2825 3750 2825 3300 
Q 2825 2850 2612 2637 
Q 2400 2425 2175 2350 
Q 2475 2275 2712 2037 
Q 2950 1800 2950 1400 
z
M 2250 3300 
Q 2250 3625 2062 3775 
Q 1875 3925 1600 3925 
L 850 3925 
L 850 2600 
L 1575 2600 
Q 1850 2600 2050 2762 
Q 2250 2925 2250 3300 
z
M 2350 1400 
Q 2350 1800 2087 1962 
Q 1825 2125 1500 2125 
L 850 2125 
L 850 600 
L 1425 600 
Q 1875 600 2112 775 
Q 2350 950 2350 1400 
z
" transform="scale(0.015625)"/>
      <path id="SimHei-78" d="M 2875 125 
L 2275 125 
L 1550 1200 
L 825 125 
L 225 125 
L 1250 1550 
L 300 2925 
L 900 2925 
L 1550 1875 
L 2200 2925 
L 2800 2925 
L 1850 1550 
L 2875 125 
z
" transform="scale(0.015625)"/>
     </defs>
     <use xlink:href="#SimHei-42"/>
     <use xlink:href="#SimHei-78" transform="translate(50 0)"/>
    </g>
   </g>
   <g id="text_31">
    <!-- Tx -->
    <g style="fill: #808080" transform="translate(150.28535 361.754934) scale(0.08 -0.08)">
     <use xlink:href="#SimHei-54"/>
     <use xlink:href="#SimHei-78" transform="translate(50 0)"/>
    </g>
   </g>
   <g id="text_32">
    <!-- Tx -->
    <g style="fill: #808080" transform="translate(178.806709 368.71361) scale(0.08 -0.08)">
     <use xlink:href="#SimHei-54"/>
     <use xlink:href="#SimHei-78" transform="translate(50 0)"/>
    </g>
   </g>
   <g id="text_33">
    <!-- B 1.61 -->
    <g style="fill: #0000ff" transform="translate(193.067388 451.97441) scale(0.08 -0.08)">
     <use xlink:href="#SimHei-42"/>
     <use xlink:href="#SimHei-20" transform="translate(50 0)"/>
     <use xlink:href="#SimHei-31" transform="translate(100 0)"/>
     <use xlink:href="#SimHei-2e" transform="translate(150 0)"/>
     <use xlink:href="#SimHei-36" transform="translate(200 0)"/>
     <use xlink:href="#SimHei-31" transform="translate(250 0)"/>
    </g>
   </g>
   <g id="text_34">
    <!-- Tx -->
    <g style="fill: #808080" transform="translate(242.979765 317.219409) scale(0.08 -0.08)">
     <use xlink:href="#SimHei-54"/>
     <use xlink:href="#SimHei-78" transform="translate(50 0)"/>
    </g>
   </g>
   <g id="text_35">
    <!-- Bx -->
    <g style="fill: #808080" transform="translate(250.110104 352.069792) scale(0.08 -0.08)">
     <use xlink:href="#SimHei-42"/>
     <use xlink:href="#SimHei-78" transform="translate(50 0)"/>
    </g>
   </g>
   <g id="text_36">
    <!-- T 1.71 -->
    <g transform="translate(264.370783 311.652468) scale(0.08 -0.08)">
     <use xlink:href="#SimHei-54"/>
     <use xlink:href="#SimHei-20" transform="translate(50 0)"/>
     <use xlink:href="#SimHei-31" transform="translate(100 0)"/>
     <use xlink:href="#SimHei-2e" transform="translate(150 0)"/>
     <use xlink:href="#SimHei-37" transform="translate(200 0)"/>
     <use xlink:href="#SimHei-31" transform="translate(250 0)"/>
    </g>
   </g>
   <g id="text_37">
    <!-- Bx -->
    <g style="fill: #808080" transform="translate(307.15282 417.285307) scale(0.08 -0.08)">
     <use xlink:href="#SimHei-42"/>
     <use xlink:href="#SimHei-78" transform="translate(50 0)"/>
    </g>
   </g>
   <g id="text_38">
    <!-- Tx -->
    <g style="fill: #808080" transform="translate(314.28316 392.373108) scale(0.08 -0.08)">
     <use xlink:href="#SimHei-54"/>
     <use xlink:href="#SimHei-78" transform="translate(50 0)"/>
    </g>
   </g>
   <g id="text_39">
    <!-- Bx -->
    <g style="fill: #808080" transform="translate(321.413499 420.754217) scale(0.08 -0.08)">
     <use xlink:href="#SimHei-42"/>
     <use xlink:href="#SimHei-78" transform="translate(50 0)"/>
    </g>
   </g>
   <g id="text_40">
    <!-- Bx -->
    <g style="fill: #808080" transform="translate(335.674179 421.447999) scale(0.08 -0.08)">
     <use xlink:href="#SimHei-42"/>
     <use xlink:href="#SimHei-78" transform="translate(50 0)"/>
    </g>
   </g>
   <g id="text_41">
    <!-- Tx -->
    <g style="fill: #808080" transform="translate(364.195537 385.414432) scale(0.08 -0.08)">
     <use xlink:href="#SimHei-54"/>
     <use xlink:href="#SimHei-78" transform="translate(50 0)"/>
    </g>
   </g>
   <g id="text_42">
    <!-- B 1.63 -->
    <g style="fill: #0000ff" transform="translate(378.456216 417.979089) scale(0.08 -0.08)">
     <use xlink:href="#SimHei-42"/>
     <use xlink:href="#SimHei-20" transform="translate(50 0)"/>
     <use xlink:href="#SimHei-31" transform="translate(100 0)"/>
     <use xlink:href="#SimHei-2e" transform="translate(150 0)"/>
     <use xlink:href="#SimHei-36" transform="translate(200 0)"/>
     <use xlink:href="#SimHei-33" transform="translate(250 0)"/>
    </g>
   </g>
   <g id="text_43">
    <!-- Tx -->
    <g style="fill: #808080" transform="translate(414.107913 351.316921) scale(0.08 -0.08)">
     <use xlink:href="#SimHei-54"/>
     <use xlink:href="#SimHei-78" transform="translate(50 0)"/>
    </g>
   </g>
   <g id="text_44">
    <!-- Bx -->
    <g style="fill: #808080" transform="translate(421.238253 392.309152) scale(0.08 -0.08)">
     <use xlink:href="#SimHei-42"/>
     <use xlink:href="#SimHei-78" transform="translate(50 0)"/>
    </g>
   </g>
   <g id="text_45">
    <!-- T 1.75 -->
    <g transform="translate(456.889951 247.63265) scale(0.08 -0.08)">
     <use xlink:href="#SimHei-54"/>
     <use xlink:href="#SimHei-20" transform="translate(50 0)"/>
     <use xlink:href="#SimHei-31" transform="translate(100 0)"/>
     <use xlink:href="#SimHei-2e" transform="translate(150 0)"/>
     <use xlink:href="#SimHei-37" transform="translate(200 0)"/>
     <use xlink:href="#SimHei-35" transform="translate(250 0)"/>
    </g>
   </g>
   <g id="text_46">
    <!-- B 1.68 -->
    <g style="fill: #0000ff" transform="translate(485.411309 354.844921) scale(0.08 -0.08)">
     <use xlink:href="#SimHei-42"/>
     <use xlink:href="#SimHei-20" transform="translate(50 0)"/>
     <use xlink:href="#SimHei-31" transform="translate(100 0)"/>
     <use xlink:href="#SimHei-2e" transform="translate(150 0)"/>
     <use xlink:href="#SimHei-36" transform="translate(200 0)"/>
     <use xlink:href="#SimHei-38" transform="translate(250 0)"/>
    </g>
   </g>
   <g id="text_47">
    <!-- T 1.79 -->
    <g transform="translate(521.063007 191.267376) scale(0.08 -0.08)">
     <use xlink:href="#SimHei-54"/>
     <use xlink:href="#SimHei-20" transform="translate(50 0)"/>
     <use xlink:href="#SimHei-31" transform="translate(100 0)"/>
     <use xlink:href="#SimHei-2e" transform="translate(150 0)"/>
     <use xlink:href="#SimHei-37" transform="translate(200 0)"/>
     <use xlink:href="#SimHei-39" transform="translate(250 0)"/>
    </g>
   </g>
   <g id="text_48">
    <!-- Bx -->
    <g style="fill: #808080" transform="translate(528.193346 254.246521) scale(0.08 -0.08)">
     <use xlink:href="#SimHei-42"/>
     <use xlink:href="#SimHei-78" transform="translate(50 0)"/>
    </g>
   </g>
   <g id="text_49">
    <!-- B 1.74 -->
    <g style="fill: #0000ff" transform="translate(549.584365 275.753765) scale(0.08 -0.08)">
     <use xlink:href="#SimHei-42"/>
     <use xlink:href="#SimHei-20" transform="translate(50 0)"/>
     <use xlink:href="#SimHei-31" transform="translate(100 0)"/>
     <use xlink:href="#SimHei-2e" transform="translate(150 0)"/>
     <use xlink:href="#SimHei-37" transform="translate(200 0)"/>
     <use xlink:href="#SimHei-34" transform="translate(250 0)"/>
    </g>
   </g>
   <g id="text_50">
    <!-- Tx -->
    <g style="fill: #808080" transform="translate(578.105723 135.597969) scale(0.08 -0.08)">
     <use xlink:href="#SimHei-54"/>
     <use xlink:href="#SimHei-78" transform="translate(50 0)"/>
    </g>
   </g>
   <g id="text_51">
    <!-- Bx -->
    <g style="fill: #808080" transform="translate(599.496742 242.452226) scale(0.08 -0.08)">
     <use xlink:href="#SimHei-42"/>
     <use xlink:href="#SimHei-78" transform="translate(50 0)"/>
    </g>
   </g>
   <g id="text_52">
    <!-- T 1.84 -->
    <g transform="translate(628.0181 130.726896) scale(0.08 -0.08)">
     <use xlink:href="#SimHei-54"/>
     <use xlink:href="#SimHei-20" transform="translate(50 0)"/>
     <use xlink:href="#SimHei-31" transform="translate(100 0)"/>
     <use xlink:href="#SimHei-2e" transform="translate(150 0)"/>
     <use xlink:href="#SimHei-38" transform="translate(200 0)"/>
     <use xlink:href="#SimHei-34" transform="translate(250 0)"/>
    </g>
   </g>
   <g id="text_53">
    <!-- Bx -->
    <g style="fill: #808080" transform="translate(656.539458 261.184341) scale(0.08 -0.08)">
     <use xlink:href="#SimHei-42"/>
     <use xlink:href="#SimHei-78" transform="translate(50 0)"/>
    </g>
   </g>
   <g id="text_54">
    <!-- Tx -->
    <g style="fill: #808080" transform="translate(663.669797 211.447536) scale(0.08 -0.08)">
     <use xlink:href="#SimHei-54"/>
     <use xlink:href="#SimHei-78" transform="translate(50 0)"/>
    </g>
   </g>
   <g id="text_55">
    <!-- B 1.74 -->
    <g style="fill: #0000ff" transform="translate(670.800137 267.42838) scale(0.08 -0.08)">
     <use xlink:href="#SimHei-42"/>
     <use xlink:href="#SimHei-20" transform="translate(50 0)"/>
     <use xlink:href="#SimHei-31" transform="translate(100 0)"/>
     <use xlink:href="#SimHei-2e" transform="translate(150 0)"/>
     <use xlink:href="#SimHei-37" transform="translate(200 0)"/>
     <use xlink:href="#SimHei-34" transform="translate(250 0)"/>
    </g>
   </g>
   <g id="text_56">
    <!-- Tx -->
    <g style="fill: #808080" transform="translate(706.451835 93.845914) scale(0.08 -0.08)">
     <use xlink:href="#SimHei-54"/>
     <use xlink:href="#SimHei-78" transform="translate(50 0)"/>
    </g>
   </g>
   <g id="text_57">
    <!-- Bx -->
    <g style="fill: #808080" transform="translate(720.712514 157.117031) scale(0.08 -0.08)">
     <use xlink:href="#SimHei-42"/>
     <use xlink:href="#SimHei-78" transform="translate(50 0)"/>
    </g>
   </g>
   <g id="text_58">
    <!-- Bx -->
    <g style="fill: #808080" transform="translate(756.364211 143.935172) scale(0.08 -0.08)">
     <use xlink:href="#SimHei-42"/>
     <use xlink:href="#SimHei-78" transform="translate(50 0)"/>
    </g>
   </g>
   <g id="text_59">
    <!-- T 1.85 -->
    <g transform="translate(763.494551 114.026074) scale(0.08 -0.08)">
     <use xlink:href="#SimHei-54"/>
     <use xlink:href="#SimHei-20" transform="translate(50 0)"/>
     <use xlink:href="#SimHei-31" transform="translate(100 0)"/>
     <use xlink:href="#SimHei-2e" transform="translate(150 0)"/>
     <use xlink:href="#SimHei-38" transform="translate(200 0)"/>
     <use xlink:href="#SimHei-35" transform="translate(250 0)"/>
    </g>
   </g>
   <g id="text_60">
    <!-- Stroke Identification (Bill Williams / Chan Theory) -->
    <g transform="translate(258.425 18.1375) scale(0.14 -0.14)">
     <defs>
      <path id="SimHei-53" d="M 2900 1325 
Q 2900 750 2537 412 
Q 2175 75 1550 75 
Q 925 75 575 425 
Q 225 775 225 1300 
L 225 1475 
L 800 1475 
L 800 1325 
Q 800 950 1025 750 
Q 1250 550 1550 550 
Q 1950 550 2137 762 
Q 2325 975 2325 1275 
Q 2325 1525 2100 1737 
Q 1875 1950 1450 2125 
Q 850 2350 587 2625 
Q 325 2900 325 3275 
Q 325 3800 687 4125 
Q 1050 4450 1550 4450 
Q 2200 4450 2487 4062 
Q 2775 3675 2775 3225 
L 2200 3225 
Q 2225 3500 2050 3725 
Q 1875 3950 1550 3950 
Q 1250 3950 1075 3787 
Q 900 3625 900 3350 
Q 900 3125 1037 2962 
Q 1175 2800 1750 2575 
Q 2300 2350 2600 2037 
Q 2900 1725 2900 1325 
z
" transform="scale(0.015625)"/>
      <path id="SimHei-74" d="M 2750 200 
Q 2625 150 2462 112 
Q 2300 75 2025 75 
Q 1575 75 1300 325 
Q 1025 575 1025 1025 
L 1025 2525 
L 175 2525 
L 175 2925 
L 1025 2925 
L 1025 3900 
L 1525 3900 
L 1525 2925 
L 2550 2925 
L 2550 2525 
L 1525 2525 
L 1525 1000 
Q 1525 800 1625 662 
Q 1725 525 2000 525 
Q 2275 525 2450 575 
Q 2625 625 2750 700 
L 2750 200 
z
" transform="scale(0.015625)"/>
      <path id="SimHei-6f" d="M 2925 1525 
Q 2925 875 2525 475 
Q 2125 75 1575 75 
Q 1025 75 625 475 
Q 225 875 225 1525 
Q 225 2175 625 2575 
Q 1025 2975 1575 2975 
Q 2125 2975 2525 2575 
Q 2925 2175 2925 1525 
z
M 2375 1525 
Q 2375 2025 2125 2275 
Q 1875 2525 1575 2525 
Q 1275 2525 1025 2275 
Q 775 2025 775 1525 
Q 775 1025 1025 775 
Q 1275 525 1575 525 
Q 1875 525 2125 775 
Q 2375 1025 2375 1525 
z
" transform="scale(0.015625)"/>
      <path id="SimHei-6b" d="M 2925 125 
L 2350 125 
L 1450 1650 
L 875 1100 
L 875 125 
L 375 125 
L 375 4400 
L 875 4400 
L 875 1675 
L 2125 2925 
L 2750 2925 
L 1775 1975 
L 2925 125 
z
" transform="scale(0.015625)"/>
      <path id="SimHei-49" d="M 1850 125 
L 1275 125 
L 1275 4400 
L 1850 4400 
L 1850 125 
z
" transform="scale(0.015625)"/>
      <path id="SimHei-64" d="M 2750 125 
L 2250 125 
L 2250 500 
Q 2100 275 1900 175 
Q 1700 75 1425 75 
Q 925 75 575 437 
Q 225 800 225 1525 
Q 225 2250 575 2625 
Q 925 3000 1425 3000 
Q 1700 3000 1900 2887 
Q 2100 2775 2250 2550 
L 2250 4400 
L 2750 4400 
L 2750 125 
z
M 2250 1525 
Q 2250 2000 2037 2275 
Q 1825 2550 1525 2550 
Q 1150 2550 962 2275 
Q 775 2000 775 1525 
Q 775 1050 962 787 
Q 1150 525 1525 525 
Q 1825 525 2037 787 
Q 2250 1050 2250 1525 
z
" transform="scale(0.015625)"/>
      <path id="SimHei-6e" d="M 2800 125 
L 2300 125 
L 2300 1925 
Q 2300 2225 2150 2400 
Q 2000 2575 1750 2575 
Q 1425 2575 1137 2237 
Q 850 1900 850 1400 
L 850 125 
L 350 125 
L 350 2925 
L 850 2925 
L 850 2400 
Q 1050 2675 1287 2825 
Q 1525 2975 1900 2975 
Q 2350 2975 2575 2725 
Q 2800 2475 2800 2100 
L 2800 125 
z
" transform="scale(0.015625)"/>
      <path id="SimHei-66" d="M 2850 3825 
Q 2725 3900 2550 3950 
Q 2375 4000 2100 4000 
Q 1825 4000 1725 3862 
Q 1625 3725 1625 3525 
L 1625 2925 
L 2650 2925 
L 2650 2525 
L 1625 2525 
L 1625 125 
L 1125 125 
L 1125 2525 
L 275 2525 
L 275 2925 
L 1125 2925 
L 1125 3500 
Q 1125 3950 1400 4200 
Q 1675 4450 2125 4450 
Q 2400 4450 2562 4412 
Q 2725 4375 2850 4325 
L 2850 3825 
z
" transform="scale(0.015625)"/>
      <path id="SimHei-61" d="M 2875 125 
L 2275 125 
Q 2225 175 2200 262 
Q 2175 350 2175 475 
Q 2000 275 1750 175 
Q 1500 75 1225 75 
Q 825 75 550 275 
Q 275 475 275 850 
Q 275 1225 525 1450 
Q 775 1675 1300 1750 
Q 1650 1800 1912 1875 
Q 2175 1950 2175 2075 
Q 2175 2225 2062 2375 
Q 1950 2525 1575 2525 
Q 1275 2525 1137 2412 
Q 1000 2300 950 2100 
L 400 2100 
Q 450 2500 762 2737 
Q 1075 2975 1575 2975 
Q 2125 2975 2400 2725 
Q 2675 2475 2675 2025 
L 2675 650 
Q 2675 500 2725 375 
Q 2775 250 2875 125 
z
M 2175 1050 
L 2175 1550 
Q 2025 1500 1887 1462 
Q 1750 1425 1425 1375 
Q 1050 1325 937 1200 
Q 825 1075 825 900 
Q 825 750 937 637 
Q 1050 525 1275 525 
Q 1500 525 1762 650 
Q 2025 775 2175 1050 
z
" transform="scale(0.015625)"/>
      <path id="SimHei-28" d="M 2975 -200 
L 2700 -475 
Q 2075 125 1762 775 
Q 1450 1425 1450 2250 
Q 1450 3075 1762 3725 
Q 2075 4375 2700 5000 
L 2975 4725 
Q 2400 4175 2112 3587 
Q 1825 3000 1825 2250 
Q 1825 1500 2112 912 
Q 2400 325 2975 -200 
z
" transform="scale(0.015625)"/>
      <path id="SimHei-6c" d="M 1825 125 
L 1325 125 
L 1325 4400 
L 1825 4400 
L 1825 125 
z
" transform="scale(0.015625)"/>
      <path id="SimHei-57" d="M 3075 4400 
L 2525 75 
L 2025 75 
L 1575 3275 
L 1525 3275 
L 1075 75 
L 575 75 
L 25 4400 
L 575 4400 
L 850 1675 
L 900 1675 
L 1275 4400 
L 1825 4400 
L 2200 1675 
L 2250 1675 
L 2525 4400 
L 3075 4400 
z
" transform="scale(0.015625)"/>
      <path id="SimHei-6d" d="M 3050 125 
L 2550 125 
L 2550 2150 
Q 2550 2300 2500 2400 
Q 2450 2500 2300 2500 
Q 2125 2500 1975 2312 
Q 1825 2125 1825 1825 
L 1825 125 
L 1325 125 
L 1325 2150 
Q 1325 2300 1275 2400 
Q 1225 2500 1075 2500 
Q 900 2500 750 2312 
Q 600 2125 600 1825 
L 600 125 
L 100 125 
L 100 2925 
L 600 2925 
L 600 2550 
Q 725 2750 900 2862 
Q 1075 2975 1275 2975 
Q 1475 2975 1612 2862 
Q 1750 2750 1800 2550 
Q 1925 2750 2087 2862 
Q 2250 2975 2450 2975 
Q 2750 2975 2900 2812 
Q 3050 2650 3050 2350 
L 3050 125 
z
" transform="scale(0.015625)"/>
      <path id="SimHei-73" d="M 2750 900 
Q 2750 500 2437 287 
Q 2125 75 1650 75 
Q 1050 75 725 312 
Q 400 550 400 1000 
L 900 1000 
Q 900 700 1112 600 
Q 1325 500 1625 500 
Q 1925 500 2075 612 
Q 2225 725 2225 900 
Q 2225 1025 2100 1150 
Q 1975 1275 1475 1350 
Q 900 1425 687 1637 
Q 475 1850 475 2200 
Q 475 2500 762 2737 
Q 1050 2975 1600 2975 
Q 2100 2975 2387 2750 
Q 2675 2525 2675 2150 
L 2175 2150 
Q 2175 2375 2012 2462 
Q 1850 2550 1600 2550 
Q 1275 2550 1137 2437 
Q 1000 2325 1000 2175 
Q 1000 2000 1125 1900 
Q 1250 1800 1650 1750 
Q 2300 1650 2525 1437 
Q 2750 1225 2750 900 
z
" transform="scale(0.015625)"/>
      <path id="SimHei-2f" d="M 3000 4550 
L 350 -175 
L 100 -25 
L 2750 4700 
L 3000 4550 
z
" transform="scale(0.015625)"/>
      <path id="SimHei-43" d="M 2975 1825 
Q 2950 875 2575 475 
Q 2200 75 1675 75 
Q 1075 75 650 562 
Q 225 1050 225 2125 
Q 225 3300 637 3875 
Q 1050 4450 1700 4450 
Q 2250 4450 2612 4037 
Q 2975 3625 2950 2875 
L 2400 2875 
Q 2400 3425 2225 3700 
Q 2050 3975 1700 3975 
Q 1300 3975 1062 3562 
Q 825 3150 825 2175 
Q 825 1275 1062 912 
Q 1300 550 1675 550 
Q 1950 550 2175 812 
Q 2400 1075 2400 1825 
L 2975 1825 
z
" transform="scale(0.015625)"/>
      <path id="SimHei-68" d="M 2800 125 
L 2300 125 
L 2300 1925 
Q 2300 2225 2150 2400 
Q 2000 2575 1750 2575 
Q 1425 2575 1137 2237 
Q 850 1900 850 1400 
L 850 125 
L 350 125 
L 350 4400 
L 850 4400 
L 850 2400 
Q 1050 2675 1287 2825 
Q 1525 2975 1900 2975 
Q 2350 2975 2575 2725 
Q 2800 2475 2800 2100 
L 2800 125 
z
" transform="scale(0.015625)"/>
      <path id="SimHei-79" d="M 2900 2925 
L 1750 -100 
Q 1650 -450 1450 -625 
Q 1250 -800 950 -800 
Q 825 -800 712 -787 
Q 600 -775 500 -725 
L 500 -225 
Q 600 -275 700 -300 
Q 800 -325 875 -325 
Q 1075 -325 1150 -262 
Q 1225 -200 1300 25 
L 200 2925 
L 750 2925 
L 1550 725 
L 1575 725 
L 2350 2925 
L 2900 2925 
z
" transform="scale(0.015625)"/>
      <path id="SimHei-29" d="M 1675 2250 
Q 1675 1425 1362 775 
Q 1050 125 425 -475 
L 150 -200 
Q 725 325 1012 912 
Q 1300 1500 1300 2250 
Q 1300 3000 1012 3587 
Q 725 4175 150 4725 
L 425 5000 
Q 1050 4375 1362 3725 
Q 1675 3075 1675 2250 
z
" transform="scale(0.015625)"/>
     </defs>
     <use xlink:href="#SimHei-53"/>
     <use xlink:href="#SimHei-74" transform="translate(50 0)"/>
     <use xlink:href="#SimHei-72" transform="translate(100 0)"/>
     <use xlink:href="#SimHei-6f" transform="translate(150 0)"/>
     <use xlink:href="#SimHei-6b" transform="translate(200 0)"/>
     <use xlink:href="#SimHei-65" transform="translate(250 0)"/>
     <use xlink:href="#SimHei-20" transform="translate(300 0)"/>
     <use xlink:href="#SimHei-49" transform="translate(350 0)"/>
     <use xlink:href="#SimHei-64" transform="translate(400 0)"/>
     <use xlink:href="#SimHei-65" transform="translate(450 0)"/>
     <use xlink:href="#SimHei-6e" transform="translate(500 0)"/>
     <use xlink:href="#SimHei-74" transform="translate(550 0)"/>
     <use xlink:href="#SimHei-69" transform="translate(600 0)"/>
     <use xlink:href="#SimHei-66" transform="translate(650 0)"/>
     <use xlink:href="#SimHei-69" transform="translate(700 0)"/>
     <use xlink:href="#SimHei-63" transform="translate(750 0)"/>
     <use xlink:href="#SimHei-61" transform="translate(800 0)"/>
     <use xlink:href="#SimHei-74" transform="translate(850 0)"/>
     <use xlink:href="#SimHei-69" transform="translate(900 0)"/>
     <use xlink:href="#SimHei-6f" transform="translate(950 0)"/>
     <use xlink:href="#SimHei-6e" transform="translate(1000 0)"/>
     <use xlink:href="#SimHei-20" transform="translate(1050 0)"/>
     <use xlink:href="#SimHei-28" transform="translate(1100 0)"/>
     <use xlink:href="#SimHei-42" transform="translate(1150 0)"/>
     <use xlink:href="#SimHei-69" transform="translate(1200 0)"/>
     <use xlink:href="#SimHei-6c" transform="translate(1250 0)"/>
     <use xlink:href="#SimHei-6c" transform="translate(1300 0)"/>
     <use xlink:href="#SimHei-20" transform="translate(1350 0)"/>
     <use xlink:href="#SimHei-57" transform="translate(1400 0)"/>
     <use xlink:href="#SimHei-69" transform="translate(1450 0)"/>
     <use xlink:href="#SimHei-6c" transform="translate(1500 0)"/>
     <use xlink:href="#SimHei-6c" transform="translate(1550 0)"/>
     <use xlink:href="#SimHei-69" transform="translate(1600 0)"/>
     <use xlink:href="#SimHei-61" transform="translate(1650 0)"/>
     <use xlink:href="#SimHei-6d" transform="translate(1700 0)"/>
     <use xlink:href="#SimHei-73" transform="translate(1750 0)"/>
     <use xlink:href="#SimHei-20" transform="translate(1800 0)"/>
     <use xlink:href="#SimHei-2f" transform="translate(1850 0)"/>
     <use xlink:href="#SimHei-20" transform="translate(1900 0)"/>
     <use xlink:href="#SimHei-43" transform="translate(1950 0)"/>
     <use xlink:href="#SimHei-68" transform="translate(2000 0)"/>
     <use xlink:href="#SimHei-61" transform="translate(2050 0)"/>
     <use xlink:href="#SimHei-6e" transform="translate(2100 0)"/>
     <use xlink:href="#SimHei-20" transform="translate(2150 0)"/>
     <use xlink:href="#SimHei-54" transform="translate(2200 0)"/>
     <use xlink:href="#SimHei-68" transform="translate(2250 0)"/>
     <use xlink:href="#SimHei-65" transform="translate(2300 0)"/>
     <use xlink:href="#SimHei-6f" transform="translate(2350 0)"/>
     <use xlink:href="#SimHei-72" transform="translate(2400 0)"/>
     <use xlink:href="#SimHei-79" transform="translate(2450 0)"/>
     <use xlink:href="#SimHei-29" transform="translate(2500 0)"/>
    </g>
   </g>
  </g>
 </g>
 <defs>
  <clipPath id="p0bdad7068e">
   <rect x="46.325" y="24.1375" width="781.2" height="443.52"/>
  </clipPath>
 </defs>
</svg>
