<?xml version="1.0" encoding="utf-8" standalone="no"?>
<!DOCTYPE svg PUBLIC "-//W3C//DTD SVG 1.1//EN"
  "http://www.w3.org/Graphics/SVG/1.1/DTD/svg11.dtd">
<svg xmlns:xlink="http://www.w3.org/1999/xlink" width="1000.215pt" height="569.017206pt" viewBox="0 0 1000.215 569.017206" xmlns="http://www.w3.org/2000/svg" version="1.1">
 <metadata>
  <rdf:RDF xmlns:dc="http://purl.org/dc/elements/1.1/" xmlns:cc="http://creativecommons.org/ns#" xmlns:rdf="http://www.w3.org/1999/02/22-rdf-syntax-ns#">
   <cc:Work>
    <dc:type rdf:resource="http://purl.org/dc/dcmitype/StillImage"/>
    <dc:date>2025-12-30T10:12:43.392349</dc:date>
    <dc:format>image/svg+xml</dc:format>
    <dc:creator>
     <cc:Agent>
      <dc:title>Matplotlib v3.10.8, https://matplotlib.org/</dc:title>
     </cc:Agent>
    </dc:creator>
   </cc:Work>
  </rdf:RDF>
 </metadata>
 <defs>
  <style type="text/css">*{stroke-linejoin: round; stroke-linecap: butt}</style>
 </defs>
 <g id="figure_1">
  <g id="patch_1">
   <path d="M 0 569.017206 
L 1000.215 569.017206 
L 1000.215 0 
L 0 0 
z
" style="fill: #ffffff"/>
  </g>
  <g id="axes_1">
   <g id="patch_2">
    <path d="M 46.325 521.93674 
L 993.015 521.93674 
L 993.015 24.1375 
L 46.325 24.1375 
z
" style="fill: #ffffff"/>
   </g>
   <g id="patch_3">
    <path d="M 109.014266 445.541807 
L 109.446308 445.541807 
L 109.446308 366.682522 
L 109.014266 366.682522 
z
" clip-path="url(#p57744ad23e)" style="fill: #ff0000"/>
   </g>
   <g id="patch_4">
    <path d="M 117.655102 391.774113 
L 118.087144 391.774113 
L 118.087144 363.994137 
L 117.655102 363.994137 
z
" clip-path="url(#p57744ad23e)" style="fill: #ff0000"/>
   </g>
   <g id="patch_5">
    <path d="M 134.936774 427.619242 
L 135.368816 427.619242 
L 135.368816 397.150882 
L 134.936774 397.150882 
z
" clip-path="url(#p57744ad23e)" style="fill: #ff0000"/>
   </g>
   <g id="patch_6">
    <path d="M 143.57761 405.216036 
L 144.009652 405.216036 
L 144.009652 381.020574 
L 143.57761 381.020574 
z
" clip-path="url(#p57744ad23e)" style="fill: #ff0000"/>
   </g>
   <g id="patch_7">
    <path d="M 152.218446 384.605087 
L 152.650488 384.605087 
L 152.650488 359.513496 
L 152.218446 359.513496 
z
" clip-path="url(#p57744ad23e)" style="fill: #ff0000"/>
   </g>
   <g id="patch_8">
    <path d="M 160.859282 364.890265 
L 161.291324 364.890265 
L 161.291324 334.421905 
L 160.859282 334.421905 
z
" clip-path="url(#p57744ad23e)" style="fill: #ff0000"/>
   </g>
   <g id="patch_9">
    <path d="M 169.500118 370.267035 
L 169.93216 370.267035 
L 169.93216 352.34447 
L 169.500118 352.34447 
z
" clip-path="url(#p57744ad23e)" style="fill: #ff0000"/>
   </g>
   <g id="patch_10">
    <path d="M 178.140954 360.409624 
L 178.572996 360.409624 
L 178.572996 341.590931 
L 178.140954 341.590931 
z
" clip-path="url(#p57744ad23e)" style="fill: #ff0000"/>
   </g>
   <g id="patch_11">
    <path d="M 186.78179 345.175444 
L 187.213832 345.175444 
L 187.213832 327.252879 
L 186.78179 327.252879 
z
" clip-path="url(#p57744ad23e)" style="fill: #ff0000"/>
   </g>
   <g id="patch_12">
    <path d="M 195.422626 364.890265 
L 195.854668 364.890265 
L 195.854668 341.590931 
L 195.422626 341.590931 
z
" clip-path="url(#p57744ad23e)" style="fill: #ff0000"/>
   </g>
   <g id="patch_13">
    <path d="M 238.626807 454.50309 
L 239.058849 454.50309 
L 239.058849 432.099884 
L 238.626807 432.099884 
z
" clip-path="url(#p57744ad23e)" style="fill: #ff0000"/>
   </g>
   <g id="patch_14">
    <path d="M 264.549315 452.710833 
L 264.981357 452.710833 
L 264.981357 435.684397 
L 264.549315 435.684397 
z
" clip-path="url(#p57744ad23e)" style="fill: #ff0000"/>
   </g>
   <g id="patch_15">
    <path d="M 273.190151 459.879859 
L 273.622193 459.879859 
L 273.622193 445.541807 
L 273.190151 445.541807 
z
" clip-path="url(#p57744ad23e)" style="fill: #ff0000"/>
   </g>
   <g id="patch_16">
    <path d="M 281.830987 447.334064 
L 282.263029 447.334064 
L 282.263029 432.996012 
L 281.830987 432.996012 
z
" clip-path="url(#p57744ad23e)" style="fill: #ff0000"/>
   </g>
   <g id="patch_17">
    <path d="M 299.112659 441.957294 
L 299.544701 441.957294 
L 299.544701 431.203755 
L 299.112659 431.203755 
z
" clip-path="url(#p57744ad23e)" style="fill: #ff0000"/>
   </g>
   <g id="patch_18">
    <path d="M 307.753495 438.372781 
L 308.185537 438.372781 
L 308.185537 422.242473 
L 307.753495 422.242473 
z
" clip-path="url(#p57744ad23e)" style="fill: #ff0000"/>
   </g>
   <g id="patch_19">
    <path d="M 333.676004 448.230192 
L 334.108045 448.230192 
L 334.108045 441.061166 
L 333.676004 441.061166 
z
" clip-path="url(#p57744ad23e)" style="fill: #ff0000"/>
   </g>
   <g id="patch_20">
    <path d="M 342.31684 441.957294 
L 342.748881 441.957294 
L 342.748881 431.203755 
L 342.31684 431.203755 
z
" clip-path="url(#p57744ad23e)" style="fill: #ff0000"/>
   </g>
   <g id="patch_21">
    <path d="M 350.957676 439.26891 
L 351.389718 439.26891 
L 351.389718 409.696678 
L 350.957676 409.696678 
z
" clip-path="url(#p57744ad23e)" style="fill: #ff0000"/>
   </g>
   <g id="patch_22">
    <path d="M 359.598512 415.969575 
L 360.030554 415.969575 
L 360.030554 391.774113 
L 359.598512 391.774113 
z
" clip-path="url(#p57744ad23e)" style="fill: #ff0000"/>
   </g>
   <g id="patch_23">
    <path d="M 368.239348 400.735395 
L 368.67139 400.735395 
L 368.67139 378.332189 
L 368.239348 378.332189 
z
" clip-path="url(#p57744ad23e)" style="fill: #ff0000"/>
   </g>
   <g id="patch_24">
    <path d="M 385.52102 391.774113 
L 385.953062 391.774113 
L 385.953062 378.332189 
L 385.52102 378.332189 
z
" clip-path="url(#p57744ad23e)" style="fill: #ff0000"/>
   </g>
   <g id="patch_25">
    <path d="M 394.161856 388.1896 
L 394.593898 388.1896 
L 394.593898 352.34447 
L 394.161856 352.34447 
z
" clip-path="url(#p57744ad23e)" style="fill: #ff0000"/>
   </g>
   <g id="patch_26">
    <path d="M 402.802692 352.34447 
L 403.234734 352.34447 
L 403.234734 303.953545 
L 402.802692 303.953545 
z
" clip-path="url(#p57744ad23e)" style="fill: #ff0000"/>
   </g>
   <g id="patch_27">
    <path d="M 411.443528 334.421905 
L 411.87557 334.421905 
L 411.87557 251.978106 
L 411.443528 251.978106 
z
" clip-path="url(#p57744ad23e)" style="fill: #ff0000"/>
   </g>
   <g id="patch_28">
    <path d="M 437.366036 311.122571 
L 437.798078 311.122571 
L 437.798078 248.393593 
L 437.366036 248.393593 
z
" clip-path="url(#p57744ad23e)" style="fill: #ff0000"/>
   </g>
   <g id="patch_29">
    <path d="M 454.647709 360.409624 
L 455.07975 360.409624 
L 455.07975 303.953545 
L 454.647709 303.953545 
z
" clip-path="url(#p57744ad23e)" style="fill: #ff0000"/>
   </g>
   <g id="patch_30">
    <path d="M 463.288545 311.122571 
L 463.720586 311.122571 
L 463.720586 275.277441 
L 463.288545 275.277441 
z
" clip-path="url(#p57744ad23e)" style="fill: #ff0000"/>
   </g>
   <g id="patch_31">
    <path d="M 471.929381 302.161288 
L 472.361423 302.161288 
L 472.361423 250.18585 
L 471.929381 250.18585 
z
" clip-path="url(#p57744ad23e)" style="fill: #ff0000"/>
   </g>
   <g id="patch_32">
    <path d="M 480.570217 259.147132 
L 481.002259 259.147132 
L 481.002259 178.49559 
L 480.570217 178.49559 
z
" clip-path="url(#p57744ad23e)" style="fill: #ff0000"/>
   </g>
   <g id="patch_33">
    <path d="M 497.851889 243.912952 
L 498.283931 243.912952 
L 498.283931 212.548464 
L 497.851889 212.548464 
z
" clip-path="url(#p57744ad23e)" style="fill: #ff0000"/>
   </g>
   <g id="patch_34">
    <path d="M 506.492725 223.302003 
L 506.924767 223.302003 
L 506.924767 176.703334 
L 506.492725 176.703334 
z
" clip-path="url(#p57744ad23e)" style="fill: #ff0000"/>
   </g>
   <g id="patch_35">
    <path d="M 523.774397 271.692928 
L 524.206439 271.692928 
L 524.206439 239.432311 
L 523.774397 239.432311 
z
" clip-path="url(#p57744ad23e)" style="fill: #ff0000"/>
   </g>
   <g id="patch_36">
    <path d="M 532.415233 248.393593 
L 532.847275 248.393593 
L 532.847275 194.625899 
L 532.415233 194.625899 
z
" clip-path="url(#p57744ad23e)" style="fill: #ff0000"/>
   </g>
   <g id="patch_37">
    <path d="M 541.056069 208.067822 
L 541.488111 208.067822 
L 541.488111 181.183975 
L 541.056069 181.183975 
z
" clip-path="url(#p57744ad23e)" style="fill: #ff0000"/>
   </g>
   <g id="patch_38">
    <path d="M 549.696905 196.418155 
L 550.128947 196.418155 
L 550.128947 158.780769 
L 549.696905 158.780769 
z
" clip-path="url(#p57744ad23e)" style="fill: #ff0000"/>
   </g>
   <g id="patch_39">
    <path d="M 558.337741 172.222693 
L 558.769783 172.222693 
L 558.769783 100.532433 
L 558.337741 100.532433 
z
" clip-path="url(#p57744ad23e)" style="fill: #ff0000"/>
   </g>
   <g id="patch_40">
    <path d="M 584.26025 228.678772 
L 584.692291 228.678772 
L 584.692291 188.353001 
L 584.26025 188.353001 
z
" clip-path="url(#p57744ad23e)" style="fill: #ff0000"/>
   </g>
   <g id="patch_41">
    <path d="M 592.901086 190.145257 
L 593.333128 190.145257 
L 593.333128 151.611743 
L 592.901086 151.611743 
z
" clip-path="url(#p57744ad23e)" style="fill: #ff0000"/>
   </g>
   <g id="patch_42">
    <path d="M 601.541922 174.911077 
L 601.973964 174.911077 
L 601.973964 149.819486 
L 601.541922 149.819486 
z
" clip-path="url(#p57744ad23e)" style="fill: #ff0000"/>
   </g>
   <g id="patch_43">
    <path d="M 610.182758 167.742051 
L 610.6148 167.742051 
L 610.6148 122.935639 
L 610.182758 122.935639 
z
" clip-path="url(#p57744ad23e)" style="fill: #ff0000"/>
   </g>
   <g id="patch_44">
    <path d="M 644.746102 218.821361 
L 645.178144 218.821361 
L 645.178144 194.625899 
L 644.746102 194.625899 
z
" clip-path="url(#p57744ad23e)" style="fill: #ff0000"/>
   </g>
   <g id="patch_45">
    <path d="M 662.027774 252.874235 
L 662.459816 252.874235 
L 662.459816 228.678772 
L 662.027774 228.678772 
z
" clip-path="url(#p57744ad23e)" style="fill: #ff0000"/>
   </g>
   <g id="patch_46">
    <path d="M 687.950282 247.497465 
L 688.382324 247.497465 
L 688.382324 208.963951 
L 687.950282 208.963951 
z
" clip-path="url(#p57744ad23e)" style="fill: #ff0000"/>
   </g>
   <g id="patch_47">
    <path d="M 705.231955 243.016824 
L 705.663996 243.016824 
L 705.663996 212.727689 
L 705.231955 212.727689 
z
" clip-path="url(#p57744ad23e)" style="fill: #ff0000"/>
   </g>
   <g id="patch_48">
    <path d="M 722.513627 181.183975 
L 722.945669 181.183975 
L 722.945669 131.896922 
L 722.513627 131.896922 
z
" clip-path="url(#p57744ad23e)" style="fill: #ff0000"/>
   </g>
   <g id="patch_49">
    <path d="M 748.436135 194.625899 
L 748.868177 194.625899 
L 748.868177 172.222693 
L 748.436135 172.222693 
z
" clip-path="url(#p57744ad23e)" style="fill: #ff0000"/>
   </g>
   <g id="patch_50">
    <path d="M 757.076971 176.703334 
L 757.509013 176.703334 
L 757.509013 154.300128 
L 757.076971 154.300128 
z
" clip-path="url(#p57744ad23e)" style="fill: #ff0000"/>
   </g>
   <g id="patch_51">
    <path d="M 765.717807 167.742051 
L 766.149849 167.742051 
L 766.149849 144.442717 
L 765.717807 144.442717 
z
" clip-path="url(#p57744ad23e)" style="fill: #ff0000"/>
   </g>
   <g id="patch_52">
    <path d="M 791.640315 158.780769 
L 792.072357 158.780769 
L 792.072357 144.442717 
L 791.640315 144.442717 
z
" clip-path="url(#p57744ad23e)" style="fill: #ff0000"/>
   </g>
   <g id="patch_53">
    <path d="M 800.281151 160.573025 
L 800.713193 160.573025 
L 800.713193 149.819486 
L 800.281151 149.819486 
z
" clip-path="url(#p57744ad23e)" style="fill: #ff0000"/>
   </g>
   <g id="patch_54">
    <path d="M 808.921987 149.819486 
L 809.354029 149.819486 
L 809.354029 136.377563 
L 808.921987 136.377563 
z
" clip-path="url(#p57744ad23e)" style="fill: #ff0000"/>
   </g>
   <g id="patch_55">
    <path d="M 817.562824 142.65046 
L 817.994865 142.65046 
L 817.994865 135.481434 
L 817.562824 135.481434 
z
" clip-path="url(#p57744ad23e)" style="fill: #ff0000"/>
   </g>
   <g id="patch_56">
    <path d="M 826.20366 135.481434 
L 826.635701 135.481434 
L 826.635701 123.831767 
L 826.20366 123.831767 
z
" clip-path="url(#p57744ad23e)" style="fill: #ff0000"/>
   </g>
   <g id="patch_57">
    <path d="M 834.844496 124.727896 
L 835.276538 124.727896 
L 835.276538 73.648586 
L 834.844496 73.648586 
z
" clip-path="url(#p57744ad23e)" style="fill: #ff0000"/>
   </g>
   <g id="patch_58">
    <path d="M 843.485332 81.71374 
L 843.917374 81.71374 
L 843.917374 46.764738 
L 843.485332 46.764738 
z
" clip-path="url(#p57744ad23e)" style="fill: #ff0000"/>
   </g>
   <g id="patch_59">
    <path d="M 860.767004 118.454998 
L 861.199046 118.454998 
L 861.199046 90.675022 
L 860.767004 90.675022 
z
" clip-path="url(#p57744ad23e)" style="fill: #ff0000"/>
   </g>
   <g id="patch_60">
    <path d="M 869.40784 103.220818 
L 869.839882 103.220818 
L 869.839882 82.609868 
L 869.40784 82.609868 
z
" clip-path="url(#p57744ad23e)" style="fill: #ff0000"/>
   </g>
   <g id="patch_61">
    <path d="M 878.048676 78.129227 
L 878.480718 78.129227 
L 878.480718 51.245379 
L 878.048676 51.245379 
z
" clip-path="url(#p57744ad23e)" style="fill: #ff0000"/>
   </g>
   <g id="patch_62">
    <path d="M 895.330348 99.636305 
L 895.76239 99.636305 
L 895.76239 81.71374 
L 895.330348 81.71374 
z
" clip-path="url(#p57744ad23e)" style="fill: #ff0000"/>
   </g>
   <g id="patch_63">
    <path d="M 912.61202 100.532433 
L 913.044062 100.532433 
L 913.044062 72.752457 
L 912.61202 72.752457 
z
" clip-path="url(#p57744ad23e)" style="fill: #ff0000"/>
   </g>
   <g id="patch_64">
    <path d="M 938.534529 101.428561 
L 938.96657 101.428561 
L 938.96657 85.298253 
L 938.534529 85.298253 
z
" clip-path="url(#p57744ad23e)" style="fill: #ff0000"/>
   </g>
   <g id="patch_65">
    <path d="M 91.732594 443.749551 
L 92.164635 443.749551 
L 92.164635 418.65796 
L 91.732594 418.65796 
z
" clip-path="url(#p57744ad23e)" style="fill: #008000"/>
   </g>
   <g id="patch_66">
    <path d="M 100.37343 499.309502 
L 100.805471 499.309502 
L 100.805471 445.541807 
L 100.37343 445.541807 
z
" clip-path="url(#p57744ad23e)" style="fill: #008000"/>
   </g>
   <g id="patch_67">
    <path d="M 126.295938 418.65796 
L 126.72798 418.65796 
L 126.72798 373.672322 
L 126.295938 373.672322 
z
" clip-path="url(#p57744ad23e)" style="fill: #008000"/>
   </g>
   <g id="patch_68">
    <path d="M 204.063462 397.150882 
L 204.495504 397.150882 
L 204.495504 373.851548 
L 204.063462 373.851548 
z
" clip-path="url(#p57744ad23e)" style="fill: #008000"/>
   </g>
   <g id="patch_69">
    <path d="M 212.704299 398.943139 
L 213.13634 398.943139 
L 213.13634 381.020574 
L 212.704299 381.020574 
z
" clip-path="url(#p57744ad23e)" style="fill: #008000"/>
   </g>
   <g id="patch_70">
    <path d="M 221.345135 423.138601 
L 221.777176 423.138601 
L 221.777176 382.81283 
L 221.345135 382.81283 
z
" clip-path="url(#p57744ad23e)" style="fill: #008000"/>
   </g>
   <g id="patch_71">
    <path d="M 229.985971 445.541807 
L 230.418013 445.541807 
L 230.418013 414.177319 
L 229.985971 414.177319 
z
" clip-path="url(#p57744ad23e)" style="fill: #008000"/>
   </g>
   <g id="patch_72">
    <path d="M 247.267643 441.957294 
L 247.699685 441.957294 
L 247.699685 431.203755 
L 247.267643 431.203755 
z
" clip-path="url(#p57744ad23e)" style="fill: #008000"/>
   </g>
   <g id="patch_73">
    <path d="M 255.908479 458.983731 
L 256.340521 458.983731 
L 256.340521 441.061166 
L 255.908479 441.061166 
z
" clip-path="url(#p57744ad23e)" style="fill: #008000"/>
   </g>
   <g id="patch_74">
    <path d="M 290.471823 440.165038 
L 290.903865 440.165038 
L 290.903865 418.65796 
L 290.471823 418.65796 
z
" clip-path="url(#p57744ad23e)" style="fill: #008000"/>
   </g>
   <g id="patch_75">
    <path d="M 316.394331 441.957294 
L 316.826373 441.957294 
L 316.826373 427.619242 
L 316.394331 427.619242 
z
" clip-path="url(#p57744ad23e)" style="fill: #008000"/>
   </g>
   <g id="patch_76">
    <path d="M 325.035167 455.399218 
L 325.467209 455.399218 
L 325.467209 441.957294 
L 325.035167 441.957294 
z
" clip-path="url(#p57744ad23e)" style="fill: #008000"/>
   </g>
   <g id="patch_77">
    <path d="M 376.880184 422.242473 
L 377.312226 422.242473 
L 377.312226 398.943139 
L 376.880184 398.943139 
z
" clip-path="url(#p57744ad23e)" style="fill: #008000"/>
   </g>
   <g id="patch_78">
    <path d="M 420.084364 309.330314 
L 420.516406 309.330314 
L 420.516406 244.80908 
L 420.084364 244.80908 
z
" clip-path="url(#p57744ad23e)" style="fill: #008000"/>
   </g>
   <g id="patch_79">
    <path d="M 428.7252 316.49934 
L 429.157242 316.49934 
L 429.157242 298.576775 
L 428.7252 298.576775 
z
" clip-path="url(#p57744ad23e)" style="fill: #008000"/>
   </g>
   <g id="patch_80">
    <path d="M 446.006872 373.851548 
L 446.438914 373.851548 
L 446.438914 316.49934 
L 446.006872 316.49934 
z
" clip-path="url(#p57744ad23e)" style="fill: #008000"/>
   </g>
   <g id="patch_81">
    <path d="M 489.211053 228.678772 
L 489.643095 228.678772 
L 489.643095 172.222693 
L 489.211053 172.222693 
z
" clip-path="url(#p57744ad23e)" style="fill: #008000"/>
   </g>
   <g id="patch_82">
    <path d="M 515.133561 252.874235 
L 515.565603 252.874235 
L 515.565603 221.509746 
L 515.133561 221.509746 
z
" clip-path="url(#p57744ad23e)" style="fill: #008000"/>
   </g>
   <g id="patch_83">
    <path d="M 566.978577 177.599462 
L 567.410619 177.599462 
L 567.410619 149.819486 
L 566.978577 149.819486 
z
" clip-path="url(#p57744ad23e)" style="fill: #008000"/>
   </g>
   <g id="patch_84">
    <path d="M 575.619414 196.418155 
L 576.051455 196.418155 
L 576.051455 158.780769 
L 575.619414 158.780769 
z
" clip-path="url(#p57744ad23e)" style="fill: #008000"/>
   </g>
   <g id="patch_85">
    <path d="M 618.823594 156.988512 
L 619.255636 156.988512 
L 619.255636 94.259535 
L 618.823594 94.259535 
z
" clip-path="url(#p57744ad23e)" style="fill: #008000"/>
   </g>
   <g id="patch_86">
    <path d="M 627.46443 189.249129 
L 627.896472 189.249129 
L 627.896472 149.819486 
L 627.46443 149.819486 
z
" clip-path="url(#p57744ad23e)" style="fill: #008000"/>
   </g>
   <g id="patch_87">
    <path d="M 636.105266 217.029105 
L 636.537308 217.029105 
L 636.537308 167.742051 
L 636.105266 167.742051 
z
" clip-path="url(#p57744ad23e)" style="fill: #008000"/>
   </g>
   <g id="patch_88">
    <path d="M 653.386938 275.277441 
L 653.81898 275.277441 
L 653.81898 237.640054 
L 653.386938 237.640054 
z
" clip-path="url(#p57744ad23e)" style="fill: #008000"/>
   </g>
   <g id="patch_89">
    <path d="M 670.66861 248.393593 
L 671.100652 248.393593 
L 671.100652 198.210412 
L 670.66861 198.210412 
z
" clip-path="url(#p57744ad23e)" style="fill: #008000"/>
   </g>
   <g id="patch_90">
    <path d="M 679.309446 260.939389 
L 679.741488 260.939389 
L 679.741488 248.393593 
L 679.309446 248.393593 
z
" clip-path="url(#p57744ad23e)" style="fill: #008000"/>
   </g>
   <g id="patch_91">
    <path d="M 696.591119 237.640054 
L 697.02316 237.640054 
L 697.02316 208.067822 
L 696.591119 208.067822 
z
" clip-path="url(#p57744ad23e)" style="fill: #008000"/>
   </g>
   <g id="patch_92">
    <path d="M 713.872791 167.742051 
L 714.304833 167.742051 
L 714.304833 60.206662 
L 713.872791 60.206662 
z
" clip-path="url(#p57744ad23e)" style="fill: #008000"/>
   </g>
   <g id="patch_93">
    <path d="M 731.154463 158.780769 
L 731.586505 158.780769 
L 731.586505 113.974357 
L 731.154463 113.974357 
z
" clip-path="url(#p57744ad23e)" style="fill: #008000"/>
   </g>
   <g id="patch_94">
    <path d="M 739.795299 188.353001 
L 740.227341 188.353001 
L 740.227341 155.196256 
L 739.795299 155.196256 
z
" clip-path="url(#p57744ad23e)" style="fill: #008000"/>
   </g>
   <g id="patch_95">
    <path d="M 774.358643 158.780769 
L 774.790685 158.780769 
L 774.790685 136.377563 
L 774.358643 136.377563 
z
" clip-path="url(#p57744ad23e)" style="fill: #008000"/>
   </g>
   <g id="patch_96">
    <path d="M 782.999479 162.365282 
L 783.431521 162.365282 
L 783.431521 153.403999 
L 782.999479 153.403999 
z
" clip-path="url(#p57744ad23e)" style="fill: #008000"/>
   </g>
   <g id="patch_97">
    <path d="M 852.126168 107.701459 
L 852.55821 107.701459 
L 852.55821 69.167944 
L 852.126168 69.167944 
z
" clip-path="url(#p57744ad23e)" style="fill: #008000"/>
   </g>
   <g id="patch_98">
    <path d="M 886.689512 96.051792 
L 887.121554 96.051792 
L 887.121554 69.167944 
L 886.689512 69.167944 
z
" clip-path="url(#p57744ad23e)" style="fill: #008000"/>
   </g>
   <g id="patch_99">
    <path d="M 903.971184 101.428561 
L 904.403226 101.428561 
L 904.403226 87.090509 
L 903.971184 87.090509 
z
" clip-path="url(#p57744ad23e)" style="fill: #008000"/>
   </g>
   <g id="patch_100">
    <path d="M 921.252856 101.428561 
L 921.684898 101.428561 
L 921.684898 78.129227 
L 921.252856 78.129227 
z
" clip-path="url(#p57744ad23e)" style="fill: #008000"/>
   </g>
   <g id="patch_101">
    <path d="M 929.893692 102.324689 
L 930.325734 102.324689 
L 930.325734 87.090509 
L 929.893692 87.090509 
z
" clip-path="url(#p57744ad23e)" style="fill: #008000"/>
   </g>
   <g id="patch_102">
    <path d="M 947.175365 105.013074 
L 947.607406 105.013074 
L 947.607406 87.090509 
L 947.175365 87.090509 
z
" clip-path="url(#p57744ad23e)" style="fill: #008000"/>
   </g>
   <g id="patch_103">
    <path d="M 106.638036 445.541807 
L 111.822537 445.541807 
L 111.822537 391.774113 
L 106.638036 391.774113 
z
" clip-path="url(#p57744ad23e)" style="fill: #ff0000"/>
   </g>
   <g id="patch_104">
    <path d="M 115.278872 391.774113 
L 120.463373 391.774113 
L 120.463373 375.643804 
L 115.278872 375.643804 
z
" clip-path="url(#p57744ad23e)" style="fill: #ff0000"/>
   </g>
   <g id="patch_105">
    <path d="M 132.560544 423.138601 
L 137.745046 423.138601 
L 137.745046 398.943139 
L 132.560544 398.943139 
z
" clip-path="url(#p57744ad23e)" style="fill: #ff0000"/>
   </g>
   <g id="patch_106">
    <path d="M 141.20138 400.735395 
L 146.385882 400.735395 
L 146.385882 384.605087 
L 141.20138 384.605087 
z
" clip-path="url(#p57744ad23e)" style="fill: #ff0000"/>
   </g>
   <g id="patch_107">
    <path d="M 149.842216 379.228317 
L 155.026718 379.228317 
L 155.026718 363.098009 
L 149.842216 363.098009 
z
" clip-path="url(#p57744ad23e)" style="fill: #ff0000"/>
   </g>
   <g id="patch_108">
    <path d="M 158.483052 360.409624 
L 163.667554 360.409624 
L 163.667554 357.721239 
L 158.483052 357.721239 
z
" clip-path="url(#p57744ad23e)" style="fill: #ff0000"/>
   </g>
   <g id="patch_109">
    <path d="M 167.123888 360.409624 
L 172.30839 360.409624 
L 172.30839 355.928983 
L 167.123888 355.928983 
z
" clip-path="url(#p57744ad23e)" style="fill: #ff0000"/>
   </g>
   <g id="patch_110">
    <path d="M 175.764724 355.928983 
L 180.949226 355.928983 
L 180.949226 342.487059 
L 175.764724 342.487059 
z
" clip-path="url(#p57744ad23e)" style="fill: #ff0000"/>
   </g>
   <g id="patch_111">
    <path d="M 184.40556 338.006418 
L 189.590062 338.006418 
L 189.590062 329.045135 
L 184.40556 329.045135 
z
" clip-path="url(#p57744ad23e)" style="fill: #ff0000"/>
   </g>
   <g id="patch_112">
    <path d="M 193.046396 360.409624 
L 198.230898 360.409624 
L 198.230898 360.409624 
L 193.046396 360.409624 
z
" clip-path="url(#p57744ad23e)" style="fill: #ff0000"/>
   </g>
   <g id="patch_113">
    <path d="M 236.250577 454.50309 
L 241.435078 454.50309 
L 241.435078 434.788268 
L 236.250577 434.788268 
z
" clip-path="url(#p57744ad23e)" style="fill: #ff0000"/>
   </g>
   <g id="patch_114">
    <path d="M 262.173085 452.710833 
L 267.357587 452.710833 
L 267.357587 449.12632 
L 262.173085 449.12632 
z
" clip-path="url(#p57744ad23e)" style="fill: #ff0000"/>
   </g>
   <g id="patch_115">
    <path d="M 270.813921 452.710833 
L 275.998423 452.710833 
L 275.998423 445.541807 
L 270.813921 445.541807 
z
" clip-path="url(#p57744ad23e)" style="fill: #ff0000"/>
   </g>
   <g id="patch_116">
    <path d="M 279.454757 445.541807 
L 284.639259 445.541807 
L 284.639259 434.788268 
L 279.454757 434.788268 
z
" clip-path="url(#p57744ad23e)" style="fill: #ff0000"/>
   </g>
   <g id="patch_117">
    <path d="M 296.736429 436.580525 
L 301.920931 436.580525 
L 301.920931 434.788268 
L 296.736429 434.788268 
z
" clip-path="url(#p57744ad23e)" style="fill: #ff0000"/>
   </g>
   <g id="patch_118">
    <path d="M 305.377265 432.099884 
L 310.561767 432.099884 
L 310.561767 429.411499 
L 305.377265 429.411499 
z
" clip-path="url(#p57744ad23e)" style="fill: #ff0000"/>
   </g>
   <g id="patch_119">
    <path d="M 331.299774 447.334064 
L 336.484275 447.334064 
L 336.484275 445.541807 
L 331.299774 445.541807 
z
" clip-path="url(#p57744ad23e)" style="fill: #ff0000"/>
   </g>
   <g id="patch_120">
    <path d="M 339.94061 441.061166 
L 345.125111 441.061166 
L 345.125111 436.580525 
L 339.94061 436.580525 
z
" clip-path="url(#p57744ad23e)" style="fill: #ff0000"/>
   </g>
   <g id="patch_121">
    <path d="M 348.581446 436.580525 
L 353.765947 436.580525 
L 353.765947 410.592806 
L 348.581446 410.592806 
z
" clip-path="url(#p57744ad23e)" style="fill: #ff0000"/>
   </g>
   <g id="patch_122">
    <path d="M 357.222282 415.073447 
L 362.406783 415.073447 
L 362.406783 398.943139 
L 357.222282 398.943139 
z
" clip-path="url(#p57744ad23e)" style="fill: #ff0000"/>
   </g>
   <g id="patch_123">
    <path d="M 365.863118 398.943139 
L 371.04762 398.943139 
L 371.04762 398.763913 
L 365.863118 398.763913 
z
" clip-path="url(#p57744ad23e)" style="fill: #ff0000"/>
   </g>
   <g id="patch_124">
    <path d="M 383.14479 391.774113 
L 388.329292 391.774113 
L 388.329292 379.228317 
L 383.14479 379.228317 
z
" clip-path="url(#p57744ad23e)" style="fill: #ff0000"/>
   </g>
   <g id="patch_125">
    <path d="M 391.785626 379.228317 
L 396.970128 379.228317 
L 396.970128 352.34447 
L 391.785626 352.34447 
z
" clip-path="url(#p57744ad23e)" style="fill: #ff0000"/>
   </g>
   <g id="patch_126">
    <path d="M 400.426462 352.34447 
L 405.610964 352.34447 
L 405.610964 327.252879 
L 400.426462 327.252879 
z
" clip-path="url(#p57744ad23e)" style="fill: #ff0000"/>
   </g>
   <g id="patch_127">
    <path d="M 409.067298 333.525777 
L 414.2518 333.525777 
L 414.2518 266.316158 
L 409.067298 266.316158 
z
" clip-path="url(#p57744ad23e)" style="fill: #ff0000"/>
   </g>
   <g id="patch_128">
    <path d="M 434.989806 311.122571 
L 440.174308 311.122571 
L 440.174308 302.161288 
L 434.989806 302.161288 
z
" clip-path="url(#p57744ad23e)" style="fill: #ff0000"/>
   </g>
   <g id="patch_129">
    <path d="M 452.271479 360.409624 
L 457.45598 360.409624 
L 457.45598 306.641929 
L 452.271479 306.641929 
z
" clip-path="url(#p57744ad23e)" style="fill: #ff0000"/>
   </g>
   <g id="patch_130">
    <path d="M 460.912315 311.122571 
L 466.096816 311.122571 
L 466.096816 280.65421 
L 460.912315 280.65421 
z
" clip-path="url(#p57744ad23e)" style="fill: #ff0000"/>
   </g>
   <g id="patch_131">
    <path d="M 469.553151 282.446467 
L 474.737652 282.446467 
L 474.737652 257.354876 
L 469.553151 257.354876 
z
" clip-path="url(#p57744ad23e)" style="fill: #ff0000"/>
   </g>
   <g id="patch_132">
    <path d="M 478.193987 259.147132 
L 483.378488 259.147132 
L 483.378488 219.71749 
L 478.193987 219.71749 
z
" clip-path="url(#p57744ad23e)" style="fill: #ff0000"/>
   </g>
   <g id="patch_133">
    <path d="M 495.475659 230.471028 
L 500.660161 230.471028 
L 500.660161 221.509746 
L 495.475659 221.509746 
z
" clip-path="url(#p57744ad23e)" style="fill: #ff0000"/>
   </g>
   <g id="patch_134">
    <path d="M 504.116495 223.302003 
L 509.300997 223.302003 
L 509.300997 217.029105 
L 504.116495 217.029105 
z
" clip-path="url(#p57744ad23e)" style="fill: #ff0000"/>
   </g>
   <g id="patch_135">
    <path d="M 521.398167 266.316158 
L 526.582669 266.316158 
L 526.582669 242.120696 
L 521.398167 242.120696 
z
" clip-path="url(#p57744ad23e)" style="fill: #ff0000"/>
   </g>
   <g id="patch_136">
    <path d="M 530.039003 243.912952 
L 535.223505 243.912952 
L 535.223505 217.029105 
L 530.039003 217.029105 
z
" clip-path="url(#p57744ad23e)" style="fill: #ff0000"/>
   </g>
   <g id="patch_137">
    <path d="M 538.679839 208.067822 
L 543.864341 208.067822 
L 543.864341 187.456873 
L 538.679839 187.456873 
z
" clip-path="url(#p57744ad23e)" style="fill: #ff0000"/>
   </g>
   <g id="patch_138">
    <path d="M 547.320675 191.041386 
L 552.505177 191.041386 
L 552.505177 167.742051 
L 547.320675 167.742051 
z
" clip-path="url(#p57744ad23e)" style="fill: #ff0000"/>
   </g>
   <g id="patch_139">
    <path d="M 555.961512 172.222693 
L 561.146013 172.222693 
L 561.146013 163.26141 
L 555.961512 163.26141 
z
" clip-path="url(#p57744ad23e)" style="fill: #ff0000"/>
   </g>
   <g id="patch_140">
    <path d="M 581.88402 194.625899 
L 587.068521 194.625899 
L 587.068521 190.145257 
L 581.88402 190.145257 
z
" clip-path="url(#p57744ad23e)" style="fill: #ff0000"/>
   </g>
   <g id="patch_141">
    <path d="M 590.524856 190.145257 
L 595.709357 190.145257 
L 595.709357 181.183975 
L 590.524856 181.183975 
z
" clip-path="url(#p57744ad23e)" style="fill: #ff0000"/>
   </g>
   <g id="patch_142">
    <path d="M 599.165692 172.222693 
L 604.350194 172.222693 
L 604.350194 162.365282 
L 599.165692 162.365282 
z
" clip-path="url(#p57744ad23e)" style="fill: #ff0000"/>
   </g>
   <g id="patch_143">
    <path d="M 607.806528 163.26141 
L 612.99103 163.26141 
L 612.99103 131.896922 
L 607.806528 131.896922 
z
" clip-path="url(#p57744ad23e)" style="fill: #ff0000"/>
   </g>
   <g id="patch_144">
    <path d="M 642.369872 203.587181 
L 647.554374 203.587181 
L 647.554374 203.587181 
L 642.369872 203.587181 
z
" clip-path="url(#p57744ad23e)" style="fill: #ff0000"/>
   </g>
   <g id="patch_145">
    <path d="M 659.651544 248.393593 
L 664.836046 248.393593 
L 664.836046 228.678772 
L 659.651544 228.678772 
z
" clip-path="url(#p57744ad23e)" style="fill: #ff0000"/>
   </g>
   <g id="patch_146">
    <path d="M 685.574053 239.432311 
L 690.758554 239.432311 
L 690.758554 216.132977 
L 685.574053 216.132977 
z
" clip-path="url(#p57744ad23e)" style="fill: #ff0000"/>
   </g>
   <g id="patch_147">
    <path d="M 702.855725 239.432311 
L 708.040226 239.432311 
L 708.040226 221.509746 
L 702.855725 221.509746 
z
" clip-path="url(#p57744ad23e)" style="fill: #ff0000"/>
   </g>
   <g id="patch_148">
    <path d="M 720.137397 181.183975 
L 725.321899 181.183975 
L 725.321899 135.481434 
L 720.137397 135.481434 
z
" clip-path="url(#p57744ad23e)" style="fill: #ff0000"/>
   </g>
   <g id="patch_149">
    <path d="M 746.059905 182.080103 
L 751.244407 182.080103 
L 751.244407 172.222693 
L 746.059905 172.222693 
z
" clip-path="url(#p57744ad23e)" style="fill: #ff0000"/>
   </g>
   <g id="patch_150">
    <path d="M 754.700741 167.742051 
L 759.885243 167.742051 
L 759.885243 156.988512 
L 754.700741 156.988512 
z
" clip-path="url(#p57744ad23e)" style="fill: #ff0000"/>
   </g>
   <g id="patch_151">
    <path d="M 763.341577 163.26141 
L 768.526079 163.26141 
L 768.526079 148.02723 
L 763.341577 148.02723 
z
" clip-path="url(#p57744ad23e)" style="fill: #ff0000"/>
   </g>
   <g id="patch_152">
    <path d="M 789.264085 158.780769 
L 794.448587 158.780769 
L 794.448587 154.300128 
L 789.264085 154.300128 
z
" clip-path="url(#p57744ad23e)" style="fill: #ff0000"/>
   </g>
   <g id="patch_153">
    <path d="M 797.904922 158.780769 
L 803.089423 158.780769 
L 803.089423 149.819486 
L 797.904922 149.819486 
z
" clip-path="url(#p57744ad23e)" style="fill: #ff0000"/>
   </g>
   <g id="patch_154">
    <path d="M 806.545758 149.819486 
L 811.730259 149.819486 
L 811.730259 136.377563 
L 806.545758 136.377563 
z
" clip-path="url(#p57744ad23e)" style="fill: #ff0000"/>
   </g>
   <g id="patch_155">
    <path d="M 815.186594 137.273691 
L 820.371095 137.273691 
L 820.371095 135.481434 
L 815.186594 135.481434 
z
" clip-path="url(#p57744ad23e)" style="fill: #ff0000"/>
   </g>
   <g id="patch_156">
    <path d="M 823.82743 131.896922 
L 829.011931 131.896922 
L 829.011931 123.831767 
L 823.82743 123.831767 
z
" clip-path="url(#p57744ad23e)" style="fill: #ff0000"/>
   </g>
   <g id="patch_157">
    <path d="M 832.468266 124.727896 
L 837.652767 124.727896 
L 837.652767 91.57115 
L 832.468266 91.57115 
z
" clip-path="url(#p57744ad23e)" style="fill: #ff0000"/>
   </g>
   <g id="patch_158">
    <path d="M 841.109102 78.129227 
L 846.293604 78.129227 
L 846.293604 69.167944 
L 841.109102 69.167944 
z
" clip-path="url(#p57744ad23e)" style="fill: #ff0000"/>
   </g>
   <g id="patch_159">
    <path d="M 858.390774 105.013074 
L 863.575276 105.013074 
L 863.575276 96.051792 
L 858.390774 96.051792 
z
" clip-path="url(#p57744ad23e)" style="fill: #ff0000"/>
   </g>
   <g id="patch_160">
    <path d="M 867.03161 91.57115 
L 872.216112 91.57115 
L 872.216112 82.609868 
L 867.03161 82.609868 
z
" clip-path="url(#p57744ad23e)" style="fill: #ff0000"/>
   </g>
   <g id="patch_161">
    <path d="M 875.672446 78.129227 
L 880.856948 78.129227 
L 880.856948 64.687303 
L 875.672446 64.687303 
z
" clip-path="url(#p57744ad23e)" style="fill: #ff0000"/>
   </g>
   <g id="patch_162">
    <path d="M 892.954118 91.57115 
L 898.13862 91.57115 
L 898.13862 83.505996 
L 892.954118 83.505996 
z
" clip-path="url(#p57744ad23e)" style="fill: #ff0000"/>
   </g>
   <g id="patch_163">
    <path d="M 910.23579 96.051792 
L 915.420292 96.051792 
L 915.420292 80.817612 
L 910.23579 80.817612 
z
" clip-path="url(#p57744ad23e)" style="fill: #ff0000"/>
   </g>
   <g id="patch_164">
    <path d="M 936.158299 91.57115 
L 941.3428 91.57115 
L 941.3428 88.882766 
L 936.158299 88.882766 
z
" clip-path="url(#p57744ad23e)" style="fill: #ff0000"/>
   </g>
   <g id="patch_165">
    <path d="M 89.356364 443.749551 
L 94.540865 443.749551 
L 94.540865 418.65796 
L 89.356364 418.65796 
z
" clip-path="url(#p57744ad23e)" style="fill: #008000"/>
   </g>
   <g id="patch_166">
    <path d="M 97.9972 472.425655 
L 103.181701 472.425655 
L 103.181701 445.541807 
L 97.9972 445.541807 
z
" clip-path="url(#p57744ad23e)" style="fill: #008000"/>
   </g>
   <g id="patch_167">
    <path d="M 123.919708 418.65796 
L 129.10421 418.65796 
L 129.10421 381.020574 
L 123.919708 381.020574 
z
" clip-path="url(#p57744ad23e)" style="fill: #008000"/>
   </g>
   <g id="patch_168">
    <path d="M 201.687233 389.981856 
L 206.871734 389.981856 
L 206.871734 373.851548 
L 201.687233 373.851548 
z
" clip-path="url(#p57744ad23e)" style="fill: #008000"/>
   </g>
   <g id="patch_169">
    <path d="M 210.328069 396.254754 
L 215.51257 396.254754 
L 215.51257 393.566369 
L 210.328069 393.566369 
z
" clip-path="url(#p57744ad23e)" style="fill: #008000"/>
   </g>
   <g id="patch_170">
    <path d="M 218.968905 423.138601 
L 224.153406 423.138601 
L 224.153406 382.81283 
L 218.968905 382.81283 
z
" clip-path="url(#p57744ad23e)" style="fill: #008000"/>
   </g>
   <g id="patch_171">
    <path d="M 227.609741 440.165038 
L 232.794242 440.165038 
L 232.794242 414.177319 
L 227.609741 414.177319 
z
" clip-path="url(#p57744ad23e)" style="fill: #008000"/>
   </g>
   <g id="patch_172">
    <path d="M 244.891413 441.957294 
L 250.075915 441.957294 
L 250.075915 434.788268 
L 244.891413 434.788268 
z
" clip-path="url(#p57744ad23e)" style="fill: #008000"/>
   </g>
   <g id="patch_173">
    <path d="M 253.532249 450.918577 
L 258.716751 450.918577 
L 258.716751 441.061166 
L 253.532249 441.061166 
z
" clip-path="url(#p57744ad23e)" style="fill: #008000"/>
   </g>
   <g id="patch_174">
    <path d="M 288.095593 440.165038 
L 293.280095 440.165038 
L 293.280095 434.788268 
L 288.095593 434.788268 
z
" clip-path="url(#p57744ad23e)" style="fill: #008000"/>
   </g>
   <g id="patch_175">
    <path d="M 314.018101 441.957294 
L 319.202603 441.957294 
L 319.202603 432.099884 
L 314.018101 432.099884 
z
" clip-path="url(#p57744ad23e)" style="fill: #008000"/>
   </g>
   <g id="patch_176">
    <path d="M 322.658938 445.541807 
L 327.843439 445.541807 
L 327.843439 441.957294 
L 322.658938 441.957294 
z
" clip-path="url(#p57744ad23e)" style="fill: #008000"/>
   </g>
   <g id="patch_177">
    <path d="M 374.503954 402.527652 
L 379.688456 402.527652 
L 379.688456 398.943139 
L 374.503954 398.943139 
z
" clip-path="url(#p57744ad23e)" style="fill: #008000"/>
   </g>
   <g id="patch_178">
    <path d="M 417.708134 279.758082 
L 422.892636 279.758082 
L 422.892636 261.835517 
L 417.708134 261.835517 
z
" clip-path="url(#p57744ad23e)" style="fill: #008000"/>
   </g>
   <g id="patch_179">
    <path d="M 426.34897 311.122571 
L 431.533472 311.122571 
L 431.533472 309.330314 
L 426.34897 309.330314 
z
" clip-path="url(#p57744ad23e)" style="fill: #008000"/>
   </g>
   <g id="patch_180">
    <path d="M 443.630643 354.136726 
L 448.815144 354.136726 
L 448.815144 316.49934 
L 443.630643 316.49934 
z
" clip-path="url(#p57744ad23e)" style="fill: #008000"/>
   </g>
   <g id="patch_181">
    <path d="M 486.834823 224.198131 
L 492.019325 224.198131 
L 492.019325 223.302003 
L 486.834823 223.302003 
z
" clip-path="url(#p57744ad23e)" style="fill: #008000"/>
   </g>
   <g id="patch_182">
    <path d="M 512.757331 252.874235 
L 517.941833 252.874235 
L 517.941833 225.990387 
L 512.757331 225.990387 
z
" clip-path="url(#p57744ad23e)" style="fill: #008000"/>
   </g>
   <g id="patch_183">
    <path d="M 564.602348 177.599462 
L 569.786849 177.599462 
L 569.786849 167.742051 
L 564.602348 167.742051 
z
" clip-path="url(#p57744ad23e)" style="fill: #008000"/>
   </g>
   <g id="patch_184">
    <path d="M 573.243184 194.625899 
L 578.427685 194.625899 
L 578.427685 176.703334 
L 573.243184 176.703334 
z
" clip-path="url(#p57744ad23e)" style="fill: #008000"/>
   </g>
   <g id="patch_185">
    <path d="M 616.447364 154.300128 
L 621.631866 154.300128 
L 621.631866 131.896922 
L 616.447364 131.896922 
z
" clip-path="url(#p57744ad23e)" style="fill: #008000"/>
   </g>
   <g id="patch_186">
    <path d="M 625.0882 189.249129 
L 630.272702 189.249129 
L 630.272702 158.780769 
L 625.0882 158.780769 
z
" clip-path="url(#p57744ad23e)" style="fill: #008000"/>
   </g>
   <g id="patch_187">
    <path d="M 633.729036 199.10654 
L 638.913538 199.10654 
L 638.913538 172.222693 
L 633.729036 172.222693 
z
" clip-path="url(#p57744ad23e)" style="fill: #008000"/>
   </g>
   <g id="patch_188">
    <path d="M 651.010708 260.939389 
L 656.19521 260.939389 
L 656.19521 248.393593 
L 651.010708 248.393593 
z
" clip-path="url(#p57744ad23e)" style="fill: #008000"/>
   </g>
   <g id="patch_189">
    <path d="M 668.29238 243.016824 
L 673.476882 243.016824 
L 673.476882 221.509746 
L 668.29238 221.509746 
z
" clip-path="url(#p57744ad23e)" style="fill: #008000"/>
   </g>
   <g id="patch_190">
    <path d="M 676.933217 257.354876 
L 682.117718 257.354876 
L 682.117718 248.393593 
L 676.933217 248.393593 
z
" clip-path="url(#p57744ad23e)" style="fill: #008000"/>
   </g>
   <g id="patch_191">
    <path d="M 694.214889 234.95167 
L 699.39939 234.95167 
L 699.39939 212.548464 
L 694.214889 212.548464 
z
" clip-path="url(#p57744ad23e)" style="fill: #008000"/>
   </g>
   <g id="patch_192">
    <path d="M 711.496561 167.742051 
L 716.681062 167.742051 
L 716.681062 113.974357 
L 711.496561 113.974357 
z
" clip-path="url(#p57744ad23e)" style="fill: #008000"/>
   </g>
   <g id="patch_193">
    <path d="M 728.778233 154.300128 
L 733.962735 154.300128 
L 733.962735 122.935639 
L 728.778233 122.935639 
z
" clip-path="url(#p57744ad23e)" style="fill: #008000"/>
   </g>
   <g id="patch_194">
    <path d="M 737.419069 176.703334 
L 742.603571 176.703334 
L 742.603571 155.196256 
L 737.419069 155.196256 
z
" clip-path="url(#p57744ad23e)" style="fill: #008000"/>
   </g>
   <g id="patch_195">
    <path d="M 771.982413 149.819486 
L 777.166915 149.819486 
L 777.166915 140.858204 
L 771.982413 140.858204 
z
" clip-path="url(#p57744ad23e)" style="fill: #008000"/>
   </g>
   <g id="patch_196">
    <path d="M 780.623249 156.988512 
L 785.807751 156.988512 
L 785.807751 153.403999 
L 780.623249 153.403999 
z
" clip-path="url(#p57744ad23e)" style="fill: #008000"/>
   </g>
   <g id="patch_197">
    <path d="M 849.749938 100.532433 
L 854.93444 100.532433 
L 854.93444 69.167944 
L 849.749938 69.167944 
z
" clip-path="url(#p57744ad23e)" style="fill: #008000"/>
   </g>
   <g id="patch_198">
    <path d="M 884.313282 94.259535 
L 889.497784 94.259535 
L 889.497784 69.167944 
L 884.313282 69.167944 
z
" clip-path="url(#p57744ad23e)" style="fill: #008000"/>
   </g>
   <g id="patch_199">
    <path d="M 901.594954 96.051792 
L 906.779456 96.051792 
L 906.779456 88.882766 
L 901.594954 88.882766 
z
" clip-path="url(#p57744ad23e)" style="fill: #008000"/>
   </g>
   <g id="patch_200">
    <path d="M 918.876627 96.051792 
L 924.061128 96.051792 
L 924.061128 87.090509 
L 918.876627 87.090509 
z
" clip-path="url(#p57744ad23e)" style="fill: #008000"/>
   </g>
   <g id="patch_201">
    <path d="M 927.517463 96.051792 
L 932.701964 96.051792 
L 932.701964 87.090509 
L 927.517463 87.090509 
z
" clip-path="url(#p57744ad23e)" style="fill: #008000"/>
   </g>
   <g id="patch_202">
    <path d="M 944.799135 95.155663 
L 949.983636 95.155663 
L 949.983636 87.090509 
L 944.799135 87.090509 
z
" clip-path="url(#p57744ad23e)" style="fill: #008000"/>
   </g>
   <g id="matplotlib.axis_1">
    <g id="xtick_1">
     <g id="line2d_1">
      <defs>
       <path id="m400d20f5bd" d="M 0 0 
L 0 3.5 
" style="stroke: #000000; stroke-width: 0.8"/>
      </defs>
      <g>
       <use xlink:href="#m400d20f5bd" x="91.948614" y="521.93674" style="stroke: #000000; stroke-width: 0.8"/>
      </g>
     </g>
     <g id="text_1">
      <!-- 2025-04-28 -->
      <g transform="translate(79.397469 561.110099) rotate(-45) scale(0.08 -0.08)">
       <defs>
        <path id="SimHei-32" d="M 300 250 
Q 325 625 650 925 
Q 975 1225 1475 1862 
Q 1975 2500 2125 2850 
Q 2275 3200 2237 3450 
Q 2200 3700 2000 3862 
Q 1800 4025 1537 4000 
Q 1275 3975 1037 3800 
Q 800 3625 675 3275 
L 200 3350 
Q 400 3925 712 4187 
Q 1025 4450 1450 4475 
Q 1700 4500 1900 4462 
Q 2100 4425 2312 4287 
Q 2525 4150 2662 3875 
Q 2800 3600 2762 3212 
Q 2725 2825 2375 2287 
Q 2025 1750 1025 600 
L 2825 600 
L 2825 150 
L 300 150 
L 300 250 
z
" transform="scale(0.015625)"/>
        <path id="SimHei-30" d="M 225 2537 
Q 250 3200 412 3587 
Q 575 3975 875 4225 
Q 1175 4475 1612 4475 
Q 2050 4475 2375 4112 
Q 2700 3750 2800 3200 
Q 2900 2650 2862 1937 
Q 2825 1225 2612 775 
Q 2400 325 1975 150 
Q 1550 -25 1125 187 
Q 700 400 525 750 
Q 350 1100 275 1487 
Q 200 1875 225 2537 
z
M 750 2687 
Q 675 2000 800 1462 
Q 925 925 1212 700 
Q 1500 475 1800 612 
Q 2100 750 2237 1162 
Q 2375 1575 2375 2062 
Q 2375 2550 2337 2950 
Q 2300 3350 2112 3675 
Q 1925 4000 1612 4012 
Q 1300 4025 1062 3700 
Q 825 3375 750 2687 
z
" transform="scale(0.015625)"/>
        <path id="SimHei-35" d="M 550 1325 
Q 725 650 1150 575 
Q 1575 500 1837 662 
Q 2100 825 2212 1087 
Q 2325 1350 2312 1675 
Q 2300 2000 2137 2225 
Q 1975 2450 1725 2525 
Q 1475 2600 1162 2525 
Q 850 2450 650 2175 
L 225 2225 
Q 275 2375 700 4375 
L 2675 4375 
L 2675 3925 
L 1075 3925 
Q 950 3250 825 2850 
Q 1200 3025 1525 3012 
Q 1850 3000 2150 2862 
Q 2450 2725 2587 2487 
Q 2725 2250 2787 2012 
Q 2850 1775 2837 1500 
Q 2825 1225 2725 937 
Q 2625 650 2425 462 
Q 2225 275 1937 162 
Q 1650 50 1275 75 
Q 900 100 562 350 
Q 225 600 100 1200 
L 550 1325 
z
" transform="scale(0.015625)"/>
        <path id="SimHei-2d" d="M 2975 2125 
L 125 2125 
L 125 2525 
L 2975 2525 
L 2975 2125 
z
" transform="scale(0.015625)"/>
        <path id="SimHei-34" d="M 2000 1100 
L 75 1100 
L 75 1525 
L 2100 4450 
L 2475 4450 
L 2475 1525 
L 3075 1525 
L 3075 1100 
L 2475 1100 
L 2475 150 
L 2000 150 
L 2000 1100 
z
M 2000 1525 
L 2000 3500 
L 600 1525 
L 2000 1525 
z
" transform="scale(0.015625)"/>
        <path id="SimHei-38" d="M 175 1375 
Q 175 1675 325 1962 
Q 475 2250 825 2425 
Q 525 2600 425 2812 
Q 325 3025 312 3300 
Q 300 3575 387 3775 
Q 475 3975 650 4150 
Q 825 4325 1037 4387 
Q 1250 4450 1500 4450 
Q 1750 4450 1950 4400 
Q 2150 4350 2375 4187 
Q 2600 4025 2700 3725 
Q 2800 3425 2687 3025 
Q 2575 2625 2100 2400 
Q 2525 2275 2700 2012 
Q 2875 1750 2875 1375 
Q 2875 1000 2762 775 
Q 2650 550 2512 400 
Q 2375 250 2137 162 
Q 1900 75 1537 75 
Q 1175 75 912 162 
Q 650 250 475 425 
Q 300 600 237 837 
Q 175 1075 175 1375 
z
M 687 1400 
Q 675 1100 787 875 
Q 900 650 1200 587 
Q 1500 525 1825 600 
Q 2150 675 2275 950 
Q 2400 1225 2362 1500 
Q 2325 1775 2050 1962 
Q 1775 2150 1450 2125 
Q 1125 2100 912 1900 
Q 700 1700 687 1400 
z
M 775 3350 
Q 775 3100 950 2875 
Q 1125 2650 1500 2650 
Q 1875 2650 2062 2875 
Q 2250 3100 2237 3412 
Q 2225 3725 2012 3875 
Q 1800 4025 1437 4000 
Q 1075 3975 925 3787 
Q 775 3600 775 3350 
z
" transform="scale(0.015625)"/>
       </defs>
       <use xlink:href="#SimHei-32"/>
       <use xlink:href="#SimHei-30" transform="translate(50 0)"/>
       <use xlink:href="#SimHei-32" transform="translate(100 0)"/>
       <use xlink:href="#SimHei-35" transform="translate(150 0)"/>
       <use xlink:href="#SimHei-2d" transform="translate(200 0)"/>
       <use xlink:href="#SimHei-30" transform="translate(250 0)"/>
       <use xlink:href="#SimHei-34" transform="translate(300 0)"/>
       <use xlink:href="#SimHei-2d" transform="translate(350 0)"/>
       <use xlink:href="#SimHei-32" transform="translate(400 0)"/>
       <use xlink:href="#SimHei-38" transform="translate(450 0)"/>
      </g>
     </g>
    </g>
    <g id="xtick_2">
     <g id="line2d_2">
      <g>
       <use xlink:href="#m400d20f5bd" x="135.152795" y="521.93674" style="stroke: #000000; stroke-width: 0.8"/>
      </g>
     </g>
     <g id="text_2">
      <!-- 2025-05-20 -->
      <g transform="translate(122.601649 561.110099) rotate(-45) scale(0.08 -0.08)">
       <use xlink:href="#SimHei-32"/>
       <use xlink:href="#SimHei-30" transform="translate(50 0)"/>
       <use xlink:href="#SimHei-32" transform="translate(100 0)"/>
       <use xlink:href="#SimHei-35" transform="translate(150 0)"/>
       <use xlink:href="#SimHei-2d" transform="translate(200 0)"/>
       <use xlink:href="#SimHei-30" transform="translate(250 0)"/>
       <use xlink:href="#SimHei-35" transform="translate(300 0)"/>
       <use xlink:href="#SimHei-2d" transform="translate(350 0)"/>
       <use xlink:href="#SimHei-32" transform="translate(400 0)"/>
       <use xlink:href="#SimHei-30" transform="translate(450 0)"/>
      </g>
     </g>
    </g>
    <g id="xtick_3">
     <g id="line2d_3">
      <g>
       <use xlink:href="#m400d20f5bd" x="178.356975" y="521.93674" style="stroke: #000000; stroke-width: 0.8"/>
      </g>
     </g>
     <g id="text_3">
      <!-- 2025-05-27 -->
      <g transform="translate(165.80583 561.110099) rotate(-45) scale(0.08 -0.08)">
       <defs>
        <path id="SimHei-37" d="M 850 150 
Q 1300 2050 2425 3925 
L 275 3925 
L 275 4375 
L 2950 4375 
L 2950 3950 
Q 1775 2050 1400 150 
L 850 150 
z
" transform="scale(0.015625)"/>
       </defs>
       <use xlink:href="#SimHei-32"/>
       <use xlink:href="#SimHei-30" transform="translate(50 0)"/>
       <use xlink:href="#SimHei-32" transform="translate(100 0)"/>
       <use xlink:href="#SimHei-35" transform="translate(150 0)"/>
       <use xlink:href="#SimHei-2d" transform="translate(200 0)"/>
       <use xlink:href="#SimHei-30" transform="translate(250 0)"/>
       <use xlink:href="#SimHei-35" transform="translate(300 0)"/>
       <use xlink:href="#SimHei-2d" transform="translate(350 0)"/>
       <use xlink:href="#SimHei-32" transform="translate(400 0)"/>
       <use xlink:href="#SimHei-37" transform="translate(450 0)"/>
      </g>
     </g>
    </g>
    <g id="xtick_4">
     <g id="line2d_4">
      <g>
       <use xlink:href="#m400d20f5bd" x="221.561156" y="521.93674" style="stroke: #000000; stroke-width: 0.8"/>
      </g>
     </g>
     <g id="text_4">
      <!-- 2025-06-06 -->
      <g transform="translate(209.01001 561.110099) rotate(-45) scale(0.08 -0.08)">
       <defs>
        <path id="SimHei-36" d="M 250 1612 
Q 275 1975 387 2225 
Q 500 2475 725 2850 
L 1750 4450 
L 2325 4450 
L 1275 2800 
Q 1950 2975 2350 2750 
Q 2750 2525 2887 2237 
Q 3025 1950 3037 1612 
Q 3050 1275 2937 950 
Q 2825 625 2537 362 
Q 2250 100 1737 75 
Q 1225 50 862 262 
Q 500 475 362 862 
Q 225 1250 250 1612 
z
M 1025 787 
Q 1250 550 1625 525 
Q 2000 500 2250 775 
Q 2500 1050 2500 1575 
Q 2500 2100 2187 2300 
Q 1875 2500 1487 2450 
Q 1100 2400 925 2075 
Q 750 1750 775 1387 
Q 800 1025 1025 787 
z
" transform="scale(0.015625)"/>
       </defs>
       <use xlink:href="#SimHei-32"/>
       <use xlink:href="#SimHei-30" transform="translate(50 0)"/>
       <use xlink:href="#SimHei-32" transform="translate(100 0)"/>
       <use xlink:href="#SimHei-35" transform="translate(150 0)"/>
       <use xlink:href="#SimHei-2d" transform="translate(200 0)"/>
       <use xlink:href="#SimHei-30" transform="translate(250 0)"/>
       <use xlink:href="#SimHei-36" transform="translate(300 0)"/>
       <use xlink:href="#SimHei-2d" transform="translate(350 0)"/>
       <use xlink:href="#SimHei-30" transform="translate(400 0)"/>
       <use xlink:href="#SimHei-36" transform="translate(450 0)"/>
      </g>
     </g>
    </g>
    <g id="xtick_5">
     <g id="line2d_5">
      <g>
       <use xlink:href="#m400d20f5bd" x="264.765336" y="521.93674" style="stroke: #000000; stroke-width: 0.8"/>
      </g>
     </g>
     <g id="text_5">
      <!-- 2025-06-20 -->
      <g transform="translate(252.214191 561.110099) rotate(-45) scale(0.08 -0.08)">
       <use xlink:href="#SimHei-32"/>
       <use xlink:href="#SimHei-30" transform="translate(50 0)"/>
       <use xlink:href="#SimHei-32" transform="translate(100 0)"/>
       <use xlink:href="#SimHei-35" transform="translate(150 0)"/>
       <use xlink:href="#SimHei-2d" transform="translate(200 0)"/>
       <use xlink:href="#SimHei-30" transform="translate(250 0)"/>
       <use xlink:href="#SimHei-36" transform="translate(300 0)"/>
       <use xlink:href="#SimHei-2d" transform="translate(350 0)"/>
       <use xlink:href="#SimHei-32" transform="translate(400 0)"/>
       <use xlink:href="#SimHei-30" transform="translate(450 0)"/>
      </g>
     </g>
    </g>
    <g id="xtick_6">
     <g id="line2d_6">
      <g>
       <use xlink:href="#m400d20f5bd" x="307.969516" y="521.93674" style="stroke: #000000; stroke-width: 0.8"/>
      </g>
     </g>
     <g id="text_6">
      <!-- 2025-06-30 -->
      <g transform="translate(295.418371 561.110099) rotate(-45) scale(0.08 -0.08)">
       <defs>
        <path id="SimHei-33" d="M 250 1225 
L 700 1300 
Q 800 975 1025 762 
Q 1250 550 1587 562 
Q 1925 575 2125 837 
Q 2325 1100 2300 1437 
Q 2275 1775 2037 1962 
Q 1800 2150 1275 2225 
L 1275 2550 
Q 1800 2600 2037 2825 
Q 2275 3050 2250 3412 
Q 2225 3775 1925 3937 
Q 1625 4100 1287 3975 
Q 950 3850 750 3275 
L 300 3350 
Q 450 3800 712 4100 
Q 975 4400 1425 4450 
Q 1875 4500 2212 4337 
Q 2550 4175 2687 3837 
Q 2825 3500 2725 3100 
Q 2625 2700 2150 2400 
Q 2500 2250 2687 1950 
Q 2875 1650 2812 1162 
Q 2750 675 2375 375 
Q 2000 75 1525 87 
Q 1050 100 700 387 
Q 350 675 250 1225 
z
" transform="scale(0.015625)"/>
       </defs>
       <use xlink:href="#SimHei-32"/>
       <use xlink:href="#SimHei-30" transform="translate(50 0)"/>
       <use xlink:href="#SimHei-32" transform="translate(100 0)"/>
       <use xlink:href="#SimHei-35" transform="translate(150 0)"/>
       <use xlink:href="#SimHei-2d" transform="translate(200 0)"/>
       <use xlink:href="#SimHei-30" transform="translate(250 0)"/>
       <use xlink:href="#SimHei-36" transform="translate(300 0)"/>
       <use xlink:href="#SimHei-2d" transform="translate(350 0)"/>
       <use xlink:href="#SimHei-33" transform="translate(400 0)"/>
       <use xlink:href="#SimHei-30" transform="translate(450 0)"/>
      </g>
     </g>
    </g>
    <g id="xtick_7">
     <g id="line2d_7">
      <g>
       <use xlink:href="#m400d20f5bd" x="351.173697" y="521.93674" style="stroke: #000000; stroke-width: 0.8"/>
      </g>
     </g>
     <g id="text_7">
      <!-- 2025-07-10 -->
      <g transform="translate(338.622551 561.110099) rotate(-45) scale(0.08 -0.08)">
       <defs>
        <path id="SimHei-31" d="M 1400 3600 
Q 1075 3275 575 2975 
L 575 3450 
Q 1200 3875 1600 4450 
L 1900 4450 
L 1900 150 
L 1400 150 
L 1400 3600 
z
" transform="scale(0.015625)"/>
       </defs>
       <use xlink:href="#SimHei-32"/>
       <use xlink:href="#SimHei-30" transform="translate(50 0)"/>
       <use xlink:href="#SimHei-32" transform="translate(100 0)"/>
       <use xlink:href="#SimHei-35" transform="translate(150 0)"/>
       <use xlink:href="#SimHei-2d" transform="translate(200 0)"/>
       <use xlink:href="#SimHei-30" transform="translate(250 0)"/>
       <use xlink:href="#SimHei-37" transform="translate(300 0)"/>
       <use xlink:href="#SimHei-2d" transform="translate(350 0)"/>
       <use xlink:href="#SimHei-31" transform="translate(400 0)"/>
       <use xlink:href="#SimHei-30" transform="translate(450 0)"/>
      </g>
     </g>
    </g>
    <g id="xtick_8">
     <g id="line2d_8">
      <g>
       <use xlink:href="#m400d20f5bd" x="394.377877" y="521.93674" style="stroke: #000000; stroke-width: 0.8"/>
      </g>
     </g>
     <g id="text_8">
      <!-- 2025-07-22 -->
      <g transform="translate(381.826732 561.110099) rotate(-45) scale(0.08 -0.08)">
       <use xlink:href="#SimHei-32"/>
       <use xlink:href="#SimHei-30" transform="translate(50 0)"/>
       <use xlink:href="#SimHei-32" transform="translate(100 0)"/>
       <use xlink:href="#SimHei-35" transform="translate(150 0)"/>
       <use xlink:href="#SimHei-2d" transform="translate(200 0)"/>
       <use xlink:href="#SimHei-30" transform="translate(250 0)"/>
       <use xlink:href="#SimHei-37" transform="translate(300 0)"/>
       <use xlink:href="#SimHei-2d" transform="translate(350 0)"/>
       <use xlink:href="#SimHei-32" transform="translate(400 0)"/>
       <use xlink:href="#SimHei-32" transform="translate(450 0)"/>
      </g>
     </g>
    </g>
    <g id="xtick_9">
     <g id="line2d_9">
      <g>
       <use xlink:href="#m400d20f5bd" x="437.582057" y="521.93674" style="stroke: #000000; stroke-width: 0.8"/>
      </g>
     </g>
     <g id="text_9">
      <!-- 2025-07-30 -->
      <g transform="translate(425.030912 561.110099) rotate(-45) scale(0.08 -0.08)">
       <use xlink:href="#SimHei-32"/>
       <use xlink:href="#SimHei-30" transform="translate(50 0)"/>
       <use xlink:href="#SimHei-32" transform="translate(100 0)"/>
       <use xlink:href="#SimHei-35" transform="translate(150 0)"/>
       <use xlink:href="#SimHei-2d" transform="translate(200 0)"/>
       <use xlink:href="#SimHei-30" transform="translate(250 0)"/>
       <use xlink:href="#SimHei-37" transform="translate(300 0)"/>
       <use xlink:href="#SimHei-2d" transform="translate(350 0)"/>
       <use xlink:href="#SimHei-33" transform="translate(400 0)"/>
       <use xlink:href="#SimHei-30" transform="translate(450 0)"/>
      </g>
     </g>
    </g>
    <g id="xtick_10">
     <g id="line2d_10">
      <g>
       <use xlink:href="#m400d20f5bd" x="480.786238" y="521.93674" style="stroke: #000000; stroke-width: 0.8"/>
      </g>
     </g>
     <g id="text_10">
      <!-- 2025-08-19 -->
      <g transform="translate(468.235092 561.110099) rotate(-45) scale(0.08 -0.08)">
       <defs>
        <path id="SimHei-39" d="M 800 75 
Q 1350 1000 1700 1750 
Q 1075 1650 662 1912 
Q 250 2175 162 2625 
Q 75 3075 175 3437 
Q 275 3800 487 4037 
Q 700 4275 1000 4375 
Q 1300 4475 1537 4475 
Q 1775 4475 2025 4375 
Q 2275 4275 2475 4075 
Q 2675 3875 2750 3662 
Q 2825 3450 2825 3112 
Q 2825 2775 2575 2250 
Q 2325 1725 1350 75 
L 800 75 
z
M 662 2875 
Q 700 2550 937 2337 
Q 1175 2125 1450 2150 
Q 1725 2175 1887 2300 
Q 2050 2425 2200 2725 
Q 2300 3100 2250 3362 
Q 2200 3625 1987 3800 
Q 1775 3975 1525 3975 
Q 1375 4000 1137 3900 
Q 900 3800 762 3500 
Q 625 3200 662 2875 
z
" transform="scale(0.015625)"/>
       </defs>
       <use xlink:href="#SimHei-32"/>
       <use xlink:href="#SimHei-30" transform="translate(50 0)"/>
       <use xlink:href="#SimHei-32" transform="translate(100 0)"/>
       <use xlink:href="#SimHei-35" transform="translate(150 0)"/>
       <use xlink:href="#SimHei-2d" transform="translate(200 0)"/>
       <use xlink:href="#SimHei-30" transform="translate(250 0)"/>
       <use xlink:href="#SimHei-38" transform="translate(300 0)"/>
       <use xlink:href="#SimHei-2d" transform="translate(350 0)"/>
       <use xlink:href="#SimHei-31" transform="translate(400 0)"/>
       <use xlink:href="#SimHei-39" transform="translate(450 0)"/>
      </g>
     </g>
    </g>
    <g id="xtick_11">
     <g id="line2d_11">
      <g>
       <use xlink:href="#m400d20f5bd" x="523.990418" y="521.93674" style="stroke: #000000; stroke-width: 0.8"/>
      </g>
     </g>
     <g id="text_11">
      <!-- 2025-09-04 -->
      <g transform="translate(511.439273 561.110099) rotate(-45) scale(0.08 -0.08)">
       <use xlink:href="#SimHei-32"/>
       <use xlink:href="#SimHei-30" transform="translate(50 0)"/>
       <use xlink:href="#SimHei-32" transform="translate(100 0)"/>
       <use xlink:href="#SimHei-35" transform="translate(150 0)"/>
       <use xlink:href="#SimHei-2d" transform="translate(200 0)"/>
       <use xlink:href="#SimHei-30" transform="translate(250 0)"/>
       <use xlink:href="#SimHei-39" transform="translate(300 0)"/>
       <use xlink:href="#SimHei-2d" transform="translate(350 0)"/>
       <use xlink:href="#SimHei-30" transform="translate(400 0)"/>
       <use xlink:href="#SimHei-34" transform="translate(450 0)"/>
      </g>
     </g>
    </g>
    <g id="xtick_12">
     <g id="line2d_12">
      <g>
       <use xlink:href="#m400d20f5bd" x="567.194598" y="521.93674" style="stroke: #000000; stroke-width: 0.8"/>
      </g>
     </g>
     <g id="text_12">
      <!-- 2025-09-12 -->
      <g transform="translate(554.643453 561.110099) rotate(-45) scale(0.08 -0.08)">
       <use xlink:href="#SimHei-32"/>
       <use xlink:href="#SimHei-30" transform="translate(50 0)"/>
       <use xlink:href="#SimHei-32" transform="translate(100 0)"/>
       <use xlink:href="#SimHei-35" transform="translate(150 0)"/>
       <use xlink:href="#SimHei-2d" transform="translate(200 0)"/>
       <use xlink:href="#SimHei-30" transform="translate(250 0)"/>
       <use xlink:href="#SimHei-39" transform="translate(300 0)"/>
       <use xlink:href="#SimHei-2d" transform="translate(350 0)"/>
       <use xlink:href="#SimHei-31" transform="translate(400 0)"/>
       <use xlink:href="#SimHei-32" transform="translate(450 0)"/>
      </g>
     </g>
    </g>
    <g id="xtick_13">
     <g id="line2d_13">
      <g>
       <use xlink:href="#m400d20f5bd" x="610.398779" y="521.93674" style="stroke: #000000; stroke-width: 0.8"/>
      </g>
     </g>
     <g id="text_13">
      <!-- 2025-09-24 -->
      <g transform="translate(597.847633 561.110099) rotate(-45) scale(0.08 -0.08)">
       <use xlink:href="#SimHei-32"/>
       <use xlink:href="#SimHei-30" transform="translate(50 0)"/>
       <use xlink:href="#SimHei-32" transform="translate(100 0)"/>
       <use xlink:href="#SimHei-35" transform="translate(150 0)"/>
       <use xlink:href="#SimHei-2d" transform="translate(200 0)"/>
       <use xlink:href="#SimHei-30" transform="translate(250 0)"/>
       <use xlink:href="#SimHei-39" transform="translate(300 0)"/>
       <use xlink:href="#SimHei-2d" transform="translate(350 0)"/>
       <use xlink:href="#SimHei-32" transform="translate(400 0)"/>
       <use xlink:href="#SimHei-34" transform="translate(450 0)"/>
      </g>
     </g>
    </g>
    <g id="xtick_14">
     <g id="line2d_14">
      <g>
       <use xlink:href="#m400d20f5bd" x="653.602959" y="521.93674" style="stroke: #000000; stroke-width: 0.8"/>
      </g>
     </g>
     <g id="text_14">
      <!-- 2025-10-11 -->
      <g transform="translate(641.051814 561.110099) rotate(-45) scale(0.08 -0.08)">
       <use xlink:href="#SimHei-32"/>
       <use xlink:href="#SimHei-30" transform="translate(50 0)"/>
       <use xlink:href="#SimHei-32" transform="translate(100 0)"/>
       <use xlink:href="#SimHei-35" transform="translate(150 0)"/>
       <use xlink:href="#SimHei-2d" transform="translate(200 0)"/>
       <use xlink:href="#SimHei-31" transform="translate(250 0)"/>
       <use xlink:href="#SimHei-30" transform="translate(300 0)"/>
       <use xlink:href="#SimHei-2d" transform="translate(350 0)"/>
       <use xlink:href="#SimHei-31" transform="translate(400 0)"/>
       <use xlink:href="#SimHei-31" transform="translate(450 0)"/>
      </g>
     </g>
    </g>
    <g id="xtick_15">
     <g id="line2d_15">
      <g>
       <use xlink:href="#m400d20f5bd" x="696.807139" y="521.93674" style="stroke: #000000; stroke-width: 0.8"/>
      </g>
     </g>
     <g id="text_15">
      <!-- 2025-10-21 -->
      <g transform="translate(684.255994 561.110099) rotate(-45) scale(0.08 -0.08)">
       <use xlink:href="#SimHei-32"/>
       <use xlink:href="#SimHei-30" transform="translate(50 0)"/>
       <use xlink:href="#SimHei-32" transform="translate(100 0)"/>
       <use xlink:href="#SimHei-35" transform="translate(150 0)"/>
       <use xlink:href="#SimHei-2d" transform="translate(200 0)"/>
       <use xlink:href="#SimHei-31" transform="translate(250 0)"/>
       <use xlink:href="#SimHei-30" transform="translate(300 0)"/>
       <use xlink:href="#SimHei-2d" transform="translate(350 0)"/>
       <use xlink:href="#SimHei-32" transform="translate(400 0)"/>
       <use xlink:href="#SimHei-31" transform="translate(450 0)"/>
      </g>
     </g>
    </g>
    <g id="xtick_16">
     <g id="line2d_16">
      <g>
       <use xlink:href="#m400d20f5bd" x="740.01132" y="521.93674" style="stroke: #000000; stroke-width: 0.8"/>
      </g>
     </g>
     <g id="text_16">
      <!-- 2025-11-04 -->
      <g transform="translate(727.460174 561.110099) rotate(-45) scale(0.08 -0.08)">
       <use xlink:href="#SimHei-32"/>
       <use xlink:href="#SimHei-30" transform="translate(50 0)"/>
       <use xlink:href="#SimHei-32" transform="translate(100 0)"/>
       <use xlink:href="#SimHei-35" transform="translate(150 0)"/>
       <use xlink:href="#SimHei-2d" transform="translate(200 0)"/>
       <use xlink:href="#SimHei-31" transform="translate(250 0)"/>
       <use xlink:href="#SimHei-31" transform="translate(300 0)"/>
       <use xlink:href="#SimHei-2d" transform="translate(350 0)"/>
       <use xlink:href="#SimHei-30" transform="translate(400 0)"/>
       <use xlink:href="#SimHei-34" transform="translate(450 0)"/>
      </g>
     </g>
    </g>
    <g id="xtick_17">
     <g id="line2d_17">
      <g>
       <use xlink:href="#m400d20f5bd" x="783.2155" y="521.93674" style="stroke: #000000; stroke-width: 0.8"/>
      </g>
     </g>
     <g id="text_17">
      <!-- 2025-11-12 -->
      <g transform="translate(770.664355 561.110099) rotate(-45) scale(0.08 -0.08)">
       <use xlink:href="#SimHei-32"/>
       <use xlink:href="#SimHei-30" transform="translate(50 0)"/>
       <use xlink:href="#SimHei-32" transform="translate(100 0)"/>
       <use xlink:href="#SimHei-35" transform="translate(150 0)"/>
       <use xlink:href="#SimHei-2d" transform="translate(200 0)"/>
       <use xlink:href="#SimHei-31" transform="translate(250 0)"/>
       <use xlink:href="#SimHei-31" transform="translate(300 0)"/>
       <use xlink:href="#SimHei-2d" transform="translate(350 0)"/>
       <use xlink:href="#SimHei-31" transform="translate(400 0)"/>
       <use xlink:href="#SimHei-32" transform="translate(450 0)"/>
      </g>
     </g>
    </g>
    <g id="xtick_18">
     <g id="line2d_18">
      <g>
       <use xlink:href="#m400d20f5bd" x="826.419681" y="521.93674" style="stroke: #000000; stroke-width: 0.8"/>
      </g>
     </g>
     <g id="text_18">
      <!-- 2025-11-25 -->
      <g transform="translate(813.868535 561.110099) rotate(-45) scale(0.08 -0.08)">
       <use xlink:href="#SimHei-32"/>
       <use xlink:href="#SimHei-30" transform="translate(50 0)"/>
       <use xlink:href="#SimHei-32" transform="translate(100 0)"/>
       <use xlink:href="#SimHei-35" transform="translate(150 0)"/>
       <use xlink:href="#SimHei-2d" transform="translate(200 0)"/>
       <use xlink:href="#SimHei-31" transform="translate(250 0)"/>
       <use xlink:href="#SimHei-31" transform="translate(300 0)"/>
       <use xlink:href="#SimHei-2d" transform="translate(350 0)"/>
       <use xlink:href="#SimHei-32" transform="translate(400 0)"/>
       <use xlink:href="#SimHei-35" transform="translate(450 0)"/>
      </g>
     </g>
    </g>
    <g id="xtick_19">
     <g id="line2d_19">
      <g>
       <use xlink:href="#m400d20f5bd" x="869.623861" y="521.93674" style="stroke: #000000; stroke-width: 0.8"/>
      </g>
     </g>
     <g id="text_19">
      <!-- 2025-12-12 -->
      <g transform="translate(857.072716 561.110099) rotate(-45) scale(0.08 -0.08)">
       <use xlink:href="#SimHei-32"/>
       <use xlink:href="#SimHei-30" transform="translate(50 0)"/>
       <use xlink:href="#SimHei-32" transform="translate(100 0)"/>
       <use xlink:href="#SimHei-35" transform="translate(150 0)"/>
       <use xlink:href="#SimHei-2d" transform="translate(200 0)"/>
       <use xlink:href="#SimHei-31" transform="translate(250 0)"/>
       <use xlink:href="#SimHei-32" transform="translate(300 0)"/>
       <use xlink:href="#SimHei-2d" transform="translate(350 0)"/>
       <use xlink:href="#SimHei-31" transform="translate(400 0)"/>
       <use xlink:href="#SimHei-32" transform="translate(450 0)"/>
      </g>
     </g>
    </g>
    <g id="xtick_20">
     <g id="line2d_20">
      <g>
       <use xlink:href="#m400d20f5bd" x="912.828041" y="521.93674" style="stroke: #000000; stroke-width: 0.8"/>
      </g>
     </g>
     <g id="text_20">
      <!-- 2025-12-22 -->
      <g transform="translate(900.276896 561.110099) rotate(-45) scale(0.08 -0.08)">
       <use xlink:href="#SimHei-32"/>
       <use xlink:href="#SimHei-30" transform="translate(50 0)"/>
       <use xlink:href="#SimHei-32" transform="translate(100 0)"/>
       <use xlink:href="#SimHei-35" transform="translate(150 0)"/>
       <use xlink:href="#SimHei-2d" transform="translate(200 0)"/>
       <use xlink:href="#SimHei-31" transform="translate(250 0)"/>
       <use xlink:href="#SimHei-32" transform="translate(300 0)"/>
       <use xlink:href="#SimHei-2d" transform="translate(350 0)"/>
       <use xlink:href="#SimHei-32" transform="translate(400 0)"/>
       <use xlink:href="#SimHei-32" transform="translate(450 0)"/>
      </g>
     </g>
    </g>
   </g>
   <g id="matplotlib.axis_2">
    <g id="ytick_1">
     <g id="line2d_21">
      <defs>
       <path id="mc30af9ff01" d="M 0 0 
L -3.5 0 
" style="stroke: #000000; stroke-width: 0.8"/>
      </defs>
      <g>
       <use xlink:href="#mc30af9ff01" x="46.325" y="517.232067" style="stroke: #000000; stroke-width: 0.8"/>
      </g>
     </g>
     <g id="text_21">
      <!-- 1.60 -->
      <g transform="translate(19.325 520.669567) scale(0.1 -0.1)">
       <defs>
        <path id="SimHei-2e" d="M 1075 125 
L 500 125 
L 500 675 
L 1075 675 
L 1075 125 
z
" transform="scale(0.015625)"/>
       </defs>
       <use xlink:href="#SimHei-31"/>
       <use xlink:href="#SimHei-2e" transform="translate(50 0)"/>
       <use xlink:href="#SimHei-36" transform="translate(100 0)"/>
       <use xlink:href="#SimHei-30" transform="translate(150 0)"/>
      </g>
     </g>
    </g>
    <g id="ytick_2">
     <g id="line2d_22">
      <g>
       <use xlink:href="#mc30af9ff01" x="46.325" y="427.619242" style="stroke: #000000; stroke-width: 0.8"/>
      </g>
     </g>
     <g id="text_22">
      <!-- 1.65 -->
      <g transform="translate(19.325 431.056742) scale(0.1 -0.1)">
       <use xlink:href="#SimHei-31"/>
       <use xlink:href="#SimHei-2e" transform="translate(50 0)"/>
       <use xlink:href="#SimHei-36" transform="translate(100 0)"/>
       <use xlink:href="#SimHei-35" transform="translate(150 0)"/>
      </g>
     </g>
    </g>
    <g id="ytick_3">
     <g id="line2d_23">
      <g>
       <use xlink:href="#mc30af9ff01" x="46.325" y="338.006418" style="stroke: #000000; stroke-width: 0.8"/>
      </g>
     </g>
     <g id="text_23">
      <!-- 1.70 -->
      <g transform="translate(19.325 341.443918) scale(0.1 -0.1)">
       <use xlink:href="#SimHei-31"/>
       <use xlink:href="#SimHei-2e" transform="translate(50 0)"/>
       <use xlink:href="#SimHei-37" transform="translate(100 0)"/>
       <use xlink:href="#SimHei-30" transform="translate(150 0)"/>
      </g>
     </g>
    </g>
    <g id="ytick_4">
     <g id="line2d_24">
      <g>
       <use xlink:href="#mc30af9ff01" x="46.325" y="248.393593" style="stroke: #000000; stroke-width: 0.8"/>
      </g>
     </g>
     <g id="text_24">
      <!-- 1.75 -->
      <g transform="translate(19.325 251.831093) scale(0.1 -0.1)">
       <use xlink:href="#SimHei-31"/>
       <use xlink:href="#SimHei-2e" transform="translate(50 0)"/>
       <use xlink:href="#SimHei-37" transform="translate(100 0)"/>
       <use xlink:href="#SimHei-35" transform="translate(150 0)"/>
      </g>
     </g>
    </g>
    <g id="ytick_5">
     <g id="line2d_25">
      <g>
       <use xlink:href="#mc30af9ff01" x="46.325" y="158.780769" style="stroke: #000000; stroke-width: 0.8"/>
      </g>
     </g>
     <g id="text_25">
      <!-- 1.80 -->
      <g transform="translate(19.325 162.218269) scale(0.1 -0.1)">
       <use xlink:href="#SimHei-31"/>
       <use xlink:href="#SimHei-2e" transform="translate(50 0)"/>
       <use xlink:href="#SimHei-38" transform="translate(100 0)"/>
       <use xlink:href="#SimHei-30" transform="translate(150 0)"/>
      </g>
     </g>
    </g>
    <g id="ytick_6">
     <g id="line2d_26">
      <g>
       <use xlink:href="#mc30af9ff01" x="46.325" y="69.167944" style="stroke: #000000; stroke-width: 0.8"/>
      </g>
     </g>
     <g id="text_26">
      <!-- 1.85 -->
      <g transform="translate(19.325 72.605444) scale(0.1 -0.1)">
       <use xlink:href="#SimHei-31"/>
       <use xlink:href="#SimHei-2e" transform="translate(50 0)"/>
       <use xlink:href="#SimHei-38" transform="translate(100 0)"/>
       <use xlink:href="#SimHei-35" transform="translate(150 0)"/>
      </g>
     </g>
    </g>
    <g id="text_27">
     <!-- Price -->
     <g transform="translate(14.075 285.53712) rotate(-90) scale(0.1 -0.1)">
      <defs>
       <path id="SimHei-50" d="M 2950 3100 
Q 2950 2500 2600 2150 
Q 2250 1800 1625 1800 
L 900 1800 
L 900 125 
L 325 125 
L 325 4400 
L 1625 4400 
Q 2250 4400 2600 4050 
Q 2950 3700 2950 3100 
z
M 2375 3100 
Q 2375 3575 2150 3750 
Q 1925 3925 1475 3925 
L 900 3925 
L 900 2275 
L 1475 2275 
Q 1925 2275 2150 2450 
Q 2375 2625 2375 3100 
z
" transform="scale(0.015625)"/>
       <path id="SimHei-72" d="M 2500 2425 
Q 2025 2500 1700 2287 
Q 1375 2075 1150 1550 
L 1150 125 
L 650 125 
L 650 2925 
L 1150 2925 
L 1150 2200 
Q 1375 2600 1712 2787 
Q 2050 2975 2500 2975 
L 2500 2425 
z
" transform="scale(0.015625)"/>
       <path id="SimHei-69" d="M 1800 3725 
L 1300 3725 
L 1300 4375 
L 1800 4375 
L 1800 3725 
z
M 1800 125 
L 1300 125 
L 1300 2925 
L 1800 2925 
L 1800 125 
z
" transform="scale(0.015625)"/>
       <path id="SimHei-63" d="M 2850 1250 
Q 2850 725 2487 400 
Q 2125 75 1575 75 
Q 1025 75 625 462 
Q 225 850 225 1525 
Q 225 2200 625 2587 
Q 1025 2975 1575 2975 
Q 2125 2975 2450 2687 
Q 2775 2400 2775 2000 
L 2225 2000 
Q 2200 2300 2012 2412 
Q 1825 2525 1575 2525 
Q 1275 2525 1025 2287 
Q 775 2050 775 1525 
Q 775 1000 1025 762 
Q 1275 525 1575 525 
Q 1900 525 2100 700 
Q 2300 875 2300 1250 
L 2850 1250 
z
" transform="scale(0.015625)"/>
       <path id="SimHei-65" d="M 2850 1075 
Q 2800 625 2450 350 
Q 2100 75 1625 75 
Q 1025 75 637 462 
Q 250 850 250 1525 
Q 250 2200 637 2587 
Q 1025 2975 1625 2975 
Q 2150 2975 2487 2637 
Q 2825 2300 2825 1525 
L 800 1525 
Q 800 975 1037 750 
Q 1275 525 1625 525 
Q 1900 525 2075 662 
Q 2250 800 2300 1075 
L 2850 1075 
z
M 2250 1925 
Q 2200 2275 2025 2412 
Q 1850 2550 1575 2550 
Q 1325 2550 1125 2412 
Q 925 2275 825 1925 
L 2250 1925 
z
" transform="scale(0.015625)"/>
      </defs>
      <use xlink:href="#SimHei-50"/>
      <use xlink:href="#SimHei-72" transform="translate(50 0)"/>
      <use xlink:href="#SimHei-69" transform="translate(100 0)"/>
      <use xlink:href="#SimHei-63" transform="translate(150 0)"/>
      <use xlink:href="#SimHei-65" transform="translate(200 0)"/>
     </g>
    </g>
   </g>
   <g id="line2d_27">
    <path d="M 273.406172 459.879859 
L 489.427074 172.222693 
" clip-path="url(#p57744ad23e)" style="fill: none; stroke: #800080; stroke-opacity: 0.8; stroke-width: 1.5; stroke-linecap: square"/>
   </g>
   <g id="line2d_28">
    <path d="M 523.990418 271.692928 
L 619.039615 94.259535 
" clip-path="url(#p57744ad23e)" style="fill: none; stroke: #800080; stroke-opacity: 0.8; stroke-width: 1.5; stroke-linecap: square"/>
   </g>
   <g id="line2d_29">
    <path d="M 653.602959 275.277441 
L 714.088812 60.206662 
" clip-path="url(#p57744ad23e)" style="fill: none; stroke: #800080; stroke-opacity: 0.8; stroke-width: 1.5; stroke-linecap: square"/>
   </g>
   <g id="line2d_30">
    <path d="M 748.652156 194.625899 
L 843.701353 46.764738 
" clip-path="url(#p57744ad23e)" style="fill: none; stroke: #800080; stroke-opacity: 0.8; stroke-width: 1.5; stroke-linecap: square"/>
   </g>
   <g id="patch_203">
    <path d="M 46.325 521.93674 
L 46.325 24.1375 
" style="fill: none; stroke: #000000; stroke-width: 0.8; stroke-linejoin: miter; stroke-linecap: square"/>
   </g>
   <g id="patch_204">
    <path d="M 993.015 521.93674 
L 993.015 24.1375 
" style="fill: none; stroke: #000000; stroke-width: 0.8; stroke-linejoin: miter; stroke-linecap: square"/>
   </g>
   <g id="patch_205">
    <path d="M 46.325 521.93674 
L 993.015 521.93674 
" style="fill: none; stroke: #000000; stroke-width: 0.8; stroke-linejoin: miter; stroke-linecap: square"/>
   </g>
   <g id="patch_206">
    <path d="M 46.325 24.1375 
L 993.015 24.1375 
" style="fill: none; stroke: #000000; stroke-width: 0.8; stroke-linejoin: miter; stroke-linecap: square"/>
   </g>
   <g id="text_28">
    <!-- Bx -->
    <g style="fill: #808080" transform="translate(103.181701 505.080568) scale(0.08 -0.08)">
     <defs>
      <path id="SimHei-42" d="M 2950 1400 
Q 2950 675 2550 400 
Q 2150 125 1525 125 
L 275 125 
L 275 4400 
L 1575 4400 
Q 2200 4400 2512 4075 
Q 2825 3750 2825 3300 
Q 2825 2850 2612 2637 
Q 2400 2425 2175 2350 
Q 2475 2275 2712 2037 
Q 2950 1800 2950 1400 
z
M 2250 3300 
Q 2250 3625 2062 3775 
Q 1875 3925 1600 3925 
L 850 3925 
L 850 2600 
L 1575 2600 
Q 1850 2600 2050 2762 
Q 2250 2925 2250 3300 
z
M 2350 1400 
Q 2350 1800 2087 1962 
Q 1825 2125 1500 2125 
L 850 2125 
L 850 600 
L 1425 600 
Q 1875 600 2112 775 
Q 2350 950 2350 1400 
z
" transform="scale(0.015625)"/>
      <path id="SimHei-78" d="M 2875 125 
L 2275 125 
L 1550 1200 
L 825 125 
L 225 125 
L 1250 1550 
L 300 2925 
L 900 2925 
L 1550 1875 
L 2200 2925 
L 2800 2925 
L 1850 1550 
L 2875 125 
z
" transform="scale(0.015625)"/>
     </defs>
     <use xlink:href="#SimHei-42"/>
     <use xlink:href="#SimHei-78" transform="translate(50 0)"/>
    </g>
   </g>
   <g id="text_29">
    <!-- Tx -->
    <g style="fill: #808080" transform="translate(120.463373 360.973289) scale(0.08 -0.08)">
     <defs>
      <path id="SimHei-54" d="M 2850 3925 
L 1850 3925 
L 1850 125 
L 1275 125 
L 1275 3925 
L 275 3925 
L 275 4400 
L 2850 4400 
L 2850 3925 
z
" transform="scale(0.015625)"/>
     </defs>
     <use xlink:href="#SimHei-54"/>
     <use xlink:href="#SimHei-78" transform="translate(50 0)"/>
    </g>
   </g>
   <g id="text_30">
    <!-- Tx -->
    <g style="fill: #808080" transform="translate(163.667554 331.371484) scale(0.08 -0.08)">
     <use xlink:href="#SimHei-54"/>
     <use xlink:href="#SimHei-78" transform="translate(50 0)"/>
    </g>
   </g>
   <g id="text_31">
    <!-- T 1.71 -->
    <g transform="translate(189.590062 324.195289) scale(0.08 -0.08)">
     <defs>
      <path id="SimHei-20" transform="scale(0.015625)"/>
     </defs>
     <use xlink:href="#SimHei-54"/>
     <use xlink:href="#SimHei-20" transform="translate(50 0)"/>
     <use xlink:href="#SimHei-31" transform="translate(100 0)"/>
     <use xlink:href="#SimHei-2e" transform="translate(150 0)"/>
     <use xlink:href="#SimHei-37" transform="translate(200 0)"/>
     <use xlink:href="#SimHei-31" transform="translate(250 0)"/>
    </g>
   </g>
   <g id="text_32">
    <!-- Bx -->
    <g style="fill: #808080" transform="translate(241.435078 460.363769) scale(0.08 -0.08)">
     <use xlink:href="#SimHei-42"/>
     <use xlink:href="#SimHei-78" transform="translate(50 0)"/>
    </g>
   </g>
   <g id="text_33">
    <!-- Tx -->
    <g style="fill: #808080" transform="translate(250.075915 428.250117) scale(0.08 -0.08)">
     <use xlink:href="#SimHei-54"/>
     <use xlink:href="#SimHei-78" transform="translate(50 0)"/>
    </g>
   </g>
   <g id="text_34">
    <!-- Bx -->
    <g style="fill: #808080" transform="translate(258.716751 464.835449) scale(0.08 -0.08)">
     <use xlink:href="#SimHei-42"/>
     <use xlink:href="#SimHei-78" transform="translate(50 0)"/>
    </g>
   </g>
   <g id="text_35">
    <!-- B 1.63 -->
    <g style="fill: #0000ff" transform="translate(275.998423 465.729784) scale(0.08 -0.08)">
     <use xlink:href="#SimHei-42"/>
     <use xlink:href="#SimHei-20" transform="translate(50 0)"/>
     <use xlink:href="#SimHei-31" transform="translate(100 0)"/>
     <use xlink:href="#SimHei-2e" transform="translate(150 0)"/>
     <use xlink:href="#SimHei-36" transform="translate(200 0)"/>
     <use xlink:href="#SimHei-33" transform="translate(250 0)"/>
    </g>
   </g>
   <g id="text_36">
    <!-- Tx -->
    <g style="fill: #808080" transform="translate(310.561767 419.279873) scale(0.08 -0.08)">
     <use xlink:href="#SimHei-54"/>
     <use xlink:href="#SimHei-78" transform="translate(50 0)"/>
    </g>
   </g>
   <g id="text_37">
    <!-- Bx -->
    <g style="fill: #808080" transform="translate(327.843439 461.258105) scale(0.08 -0.08)">
     <use xlink:href="#SimHei-42"/>
     <use xlink:href="#SimHei-78" transform="translate(50 0)"/>
    </g>
   </g>
   <g id="text_38">
    <!-- Tx -->
    <g style="fill: #808080" transform="translate(371.04762 375.325679) scale(0.08 -0.08)">
     <use xlink:href="#SimHei-54"/>
     <use xlink:href="#SimHei-78" transform="translate(50 0)"/>
    </g>
   </g>
   <g id="text_39">
    <!-- Tx -->
    <g style="fill: #808080" transform="translate(422.892636 241.669047) scale(0.08 -0.08)">
     <use xlink:href="#SimHei-54"/>
     <use xlink:href="#SimHei-78" transform="translate(50 0)"/>
    </g>
   </g>
   <g id="text_40">
    <!-- T 1.79 -->
    <g transform="translate(492.019325 169.010073) scale(0.08 -0.08)">
     <use xlink:href="#SimHei-54"/>
     <use xlink:href="#SimHei-20" transform="translate(50 0)"/>
     <use xlink:href="#SimHei-31" transform="translate(100 0)"/>
     <use xlink:href="#SimHei-2e" transform="translate(150 0)"/>
     <use xlink:href="#SimHei-37" transform="translate(200 0)"/>
     <use xlink:href="#SimHei-39" transform="translate(250 0)"/>
    </g>
   </g>
   <g id="text_41">
    <!-- B 1.74 -->
    <g style="fill: #0000ff" transform="translate(526.582669 277.919227) scale(0.08 -0.08)">
     <use xlink:href="#SimHei-42"/>
     <use xlink:href="#SimHei-20" transform="translate(50 0)"/>
     <use xlink:href="#SimHei-31" transform="translate(100 0)"/>
     <use xlink:href="#SimHei-2e" transform="translate(150 0)"/>
     <use xlink:href="#SimHei-37" transform="translate(200 0)"/>
     <use xlink:href="#SimHei-34" transform="translate(250 0)"/>
    </g>
   </g>
   <g id="text_42">
    <!-- Tx -->
    <g style="fill: #808080" transform="translate(561.146013 97.248123) scale(0.08 -0.08)">
     <use xlink:href="#SimHei-54"/>
     <use xlink:href="#SimHei-78" transform="translate(50 0)"/>
    </g>
   </g>
   <g id="text_43">
    <!-- Bx -->
    <g style="fill: #808080" transform="translate(587.068521 234.991099) scale(0.08 -0.08)">
     <use xlink:href="#SimHei-42"/>
     <use xlink:href="#SimHei-78" transform="translate(50 0)"/>
    </g>
   </g>
   <g id="text_44">
    <!-- T 1.84 -->
    <g transform="translate(621.631866 90.968952) scale(0.08 -0.08)">
     <use xlink:href="#SimHei-54"/>
     <use xlink:href="#SimHei-20" transform="translate(50 0)"/>
     <use xlink:href="#SimHei-31" transform="translate(100 0)"/>
     <use xlink:href="#SimHei-2e" transform="translate(150 0)"/>
     <use xlink:href="#SimHei-38" transform="translate(200 0)"/>
     <use xlink:href="#SimHei-34" transform="translate(250 0)"/>
    </g>
   </g>
   <g id="text_45">
    <!-- B 1.74 -->
    <g style="fill: #0000ff" transform="translate(656.19521 281.496571) scale(0.08 -0.08)">
     <use xlink:href="#SimHei-42"/>
     <use xlink:href="#SimHei-20" transform="translate(50 0)"/>
     <use xlink:href="#SimHei-31" transform="translate(100 0)"/>
     <use xlink:href="#SimHei-2e" transform="translate(150 0)"/>
     <use xlink:href="#SimHei-37" transform="translate(200 0)"/>
     <use xlink:href="#SimHei-34" transform="translate(250 0)"/>
    </g>
   </g>
   <g id="text_46">
    <!-- Tx -->
    <g style="fill: #808080" transform="translate(673.476882 195.02378) scale(0.08 -0.08)">
     <use xlink:href="#SimHei-54"/>
     <use xlink:href="#SimHei-78" transform="translate(50 0)"/>
    </g>
   </g>
   <g id="text_47">
    <!-- Tx -->
    <g style="fill: #808080" transform="translate(699.39939 204.891048) scale(0.08 -0.08)">
     <use xlink:href="#SimHei-54"/>
     <use xlink:href="#SimHei-78" transform="translate(50 0)"/>
    </g>
   </g>
   <g id="text_48">
    <!-- Bx -->
    <g style="fill: #808080" transform="translate(708.040226 249.300475) scale(0.08 -0.08)">
     <use xlink:href="#SimHei-42"/>
     <use xlink:href="#SimHei-78" transform="translate(50 0)"/>
    </g>
   </g>
   <g id="text_49">
    <!-- T 1.85 -->
    <g transform="translate(716.681062 56.882026) scale(0.08 -0.08)">
     <use xlink:href="#SimHei-54"/>
     <use xlink:href="#SimHei-20" transform="translate(50 0)"/>
     <use xlink:href="#SimHei-31" transform="translate(100 0)"/>
     <use xlink:href="#SimHei-2e" transform="translate(150 0)"/>
     <use xlink:href="#SimHei-38" transform="translate(200 0)"/>
     <use xlink:href="#SimHei-35" transform="translate(250 0)"/>
    </g>
   </g>
   <g id="text_50">
    <!-- B 1.78 -->
    <g style="fill: #0000ff" transform="translate(751.244407 201.006332) scale(0.08 -0.08)">
     <use xlink:href="#SimHei-42"/>
     <use xlink:href="#SimHei-20" transform="translate(50 0)"/>
     <use xlink:href="#SimHei-31" transform="translate(100 0)"/>
     <use xlink:href="#SimHei-2e" transform="translate(150 0)"/>
     <use xlink:href="#SimHei-37" transform="translate(200 0)"/>
     <use xlink:href="#SimHei-38" transform="translate(250 0)"/>
    </g>
   </g>
   <g id="text_51">
    <!-- Tx -->
    <g style="fill: #808080" transform="translate(777.166915 133.129098) scale(0.08 -0.08)">
     <use xlink:href="#SimHei-54"/>
     <use xlink:href="#SimHei-78" transform="translate(50 0)"/>
    </g>
   </g>
   <g id="text_52">
    <!-- Tx -->
    <g style="fill: #808080" transform="translate(794.448587 141.202317) scale(0.08 -0.08)">
     <use xlink:href="#SimHei-54"/>
     <use xlink:href="#SimHei-78" transform="translate(50 0)"/>
    </g>
   </g>
   <g id="text_53">
    <!-- Bx -->
    <g style="fill: #808080" transform="translate(803.089423 167.021564) scale(0.08 -0.08)">
     <use xlink:href="#SimHei-42"/>
     <use xlink:href="#SimHei-78" transform="translate(50 0)"/>
    </g>
   </g>
   <g id="text_54">
    <!-- T 1.86 -->
    <g transform="translate(846.293604 43.42666) scale(0.08 -0.08)">
     <use xlink:href="#SimHei-54"/>
     <use xlink:href="#SimHei-20" transform="translate(50 0)"/>
     <use xlink:href="#SimHei-31" transform="translate(100 0)"/>
     <use xlink:href="#SimHei-2e" transform="translate(150 0)"/>
     <use xlink:href="#SimHei-38" transform="translate(200 0)"/>
     <use xlink:href="#SimHei-36" transform="translate(250 0)"/>
    </g>
   </g>
   <g id="text_55">
    <!-- Bx -->
    <g style="fill: #808080" transform="translate(906.779456 107.995389) scale(0.08 -0.08)">
     <use xlink:href="#SimHei-42"/>
     <use xlink:href="#SimHei-78" transform="translate(50 0)"/>
    </g>
   </g>
   <g id="text_56">
    <!-- Tx -->
    <g style="fill: #808080" transform="translate(915.420292 69.440367) scale(0.08 -0.08)">
     <use xlink:href="#SimHei-54"/>
     <use xlink:href="#SimHei-78" transform="translate(50 0)"/>
    </g>
   </g>
   <g id="text_57">
    <!-- B 1.83 -->
    <g style="fill: #0000ff" transform="translate(932.701964 108.889725) scale(0.08 -0.08)">
     <use xlink:href="#SimHei-42"/>
     <use xlink:href="#SimHei-20" transform="translate(50 0)"/>
     <use xlink:href="#SimHei-31" transform="translate(100 0)"/>
     <use xlink:href="#SimHei-2e" transform="translate(150 0)"/>
     <use xlink:href="#SimHei-38" transform="translate(200 0)"/>
     <use xlink:href="#SimHei-33" transform="translate(250 0)"/>
    </g>
   </g>
   <g id="text_58">
    <!-- Stroke Identification (Bill Williams / Chan Theory) -->
    <g transform="translate(341.17 18.1375) scale(0.14 -0.14)">
     <defs>
      <path id="SimHei-53" d="M 2900 1325 
Q 2900 750 2537 412 
Q 2175 75 1550 75 
Q 925 75 575 425 
Q 225 775 225 1300 
L 225 1475 
L 800 1475 
L 800 1325 
Q 800 950 1025 750 
Q 1250 550 1550 550 
Q 1950 550 2137 762 
Q 2325 975 2325 1275 
Q 2325 1525 2100 1737 
Q 1875 1950 1450 2125 
Q 850 2350 587 2625 
Q 325 2900 325 3275 
Q 325 3800 687 4125 
Q 1050 4450 1550 4450 
Q 2200 4450 2487 4062 
Q 2775 3675 2775 3225 
L 2200 3225 
Q 2225 3500 2050 3725 
Q 1875 3950 1550 3950 
Q 1250 3950 1075 3787 
Q 900 3625 900 3350 
Q 900 3125 1037 2962 
Q 1175 2800 1750 2575 
Q 2300 2350 2600 2037 
Q 2900 1725 2900 1325 
z
" transform="scale(0.015625)"/>
      <path id="SimHei-74" d="M 2750 200 
Q 2625 150 2462 112 
Q 2300 75 2025 75 
Q 1575 75 1300 325 
Q 1025 575 1025 1025 
L 1025 2525 
L 175 2525 
L 175 2925 
L 1025 2925 
L 1025 3900 
L 1525 3900 
L 1525 2925 
L 2550 2925 
L 2550 2525 
L 1525 2525 
L 1525 1000 
Q 1525 800 1625 662 
Q 1725 525 2000 525 
Q 2275 525 2450 575 
Q 2625 625 2750 700 
L 2750 200 
z
" transform="scale(0.015625)"/>
      <path id="SimHei-6f" d="M 2925 1525 
Q 2925 875 2525 475 
Q 2125 75 1575 75 
Q 1025 75 625 475 
Q 225 875 225 1525 
Q 225 2175 625 2575 
Q 1025 2975 1575 2975 
Q 2125 2975 2525 2575 
Q 2925 2175 2925 1525 
z
M 2375 1525 
Q 2375 2025 2125 2275 
Q 1875 2525 1575 2525 
Q 1275 2525 1025 2275 
Q 775 2025 775 1525 
Q 775 1025 1025 775 
Q 1275 525 1575 525 
Q 1875 525 2125 775 
Q 2375 1025 2375 1525 
z
" transform="scale(0.015625)"/>
      <path id="SimHei-6b" d="M 2925 125 
L 2350 125 
L 1450 1650 
L 875 1100 
L 875 125 
L 375 125 
L 375 4400 
L 875 4400 
L 875 1675 
L 2125 2925 
L 2750 2925 
L 1775 1975 
L 2925 125 
z
" transform="scale(0.015625)"/>
      <path id="SimHei-49" d="M 1850 125 
L 1275 125 
L 1275 4400 
L 1850 4400 
L 1850 125 
z
" transform="scale(0.015625)"/>
      <path id="SimHei-64" d="M 2750 125 
L 2250 125 
L 2250 500 
Q 2100 275 1900 175 
Q 1700 75 1425 75 
Q 925 75 575 437 
Q 225 800 225 1525 
Q 225 2250 575 2625 
Q 925 3000 1425 3000 
Q 1700 3000 1900 2887 
Q 2100 2775 2250 2550 
L 2250 4400 
L 2750 4400 
L 2750 125 
z
M 2250 1525 
Q 2250 2000 2037 2275 
Q 1825 2550 1525 2550 
Q 1150 2550 962 2275 
Q 775 2000 775 1525 
Q 775 1050 962 787 
Q 1150 525 1525 525 
Q 1825 525 2037 787 
Q 2250 1050 2250 1525 
z
" transform="scale(0.015625)"/>
      <path id="SimHei-6e" d="M 2800 125 
L 2300 125 
L 2300 1925 
Q 2300 2225 2150 2400 
Q 2000 2575 1750 2575 
Q 1425 2575 1137 2237 
Q 850 1900 850 1400 
L 850 125 
L 350 125 
L 350 2925 
L 850 2925 
L 850 2400 
Q 1050 2675 1287 2825 
Q 1525 2975 1900 2975 
Q 2350 2975 2575 2725 
Q 2800 2475 2800 2100 
L 2800 125 
z
" transform="scale(0.015625)"/>
      <path id="SimHei-66" d="M 2850 3825 
Q 2725 3900 2550 3950 
Q 2375 4000 2100 4000 
Q 1825 4000 1725 3862 
Q 1625 3725 1625 3525 
L 1625 2925 
L 2650 2925 
L 2650 2525 
L 1625 2525 
L 1625 125 
L 1125 125 
L 1125 2525 
L 275 2525 
L 275 2925 
L 1125 2925 
L 1125 3500 
Q 1125 3950 1400 4200 
Q 1675 4450 2125 4450 
Q 2400 4450 2562 4412 
Q 2725 4375 2850 4325 
L 2850 3825 
z
" transform="scale(0.015625)"/>
      <path id="SimHei-61" d="M 2875 125 
L 2275 125 
Q 2225 175 2200 262 
Q 2175 350 2175 475 
Q 2000 275 1750 175 
Q 1500 75 1225 75 
Q 825 75 550 275 
Q 275 475 275 850 
Q 275 1225 525 1450 
Q 775 1675 1300 1750 
Q 1650 1800 1912 1875 
Q 2175 1950 2175 2075 
Q 2175 2225 2062 2375 
Q 1950 2525 1575 2525 
Q 1275 2525 1137 2412 
Q 1000 2300 950 2100 
L 400 2100 
Q 450 2500 762 2737 
Q 1075 2975 1575 2975 
Q 2125 2975 2400 2725 
Q 2675 2475 2675 2025 
L 2675 650 
Q 2675 500 2725 375 
Q 2775 250 2875 125 
z
M 2175 1050 
L 2175 1550 
Q 2025 1500 1887 1462 
Q 1750 1425 1425 1375 
Q 1050 1325 937 1200 
Q 825 1075 825 900 
Q 825 750 937 637 
Q 1050 525 1275 525 
Q 1500 525 1762 650 
Q 2025 775 2175 1050 
z
" transform="scale(0.015625)"/>
      <path id="SimHei-28" d="M 2975 -200 
L 2700 -475 
Q 2075 125 1762 775 
Q 1450 1425 1450 2250 
Q 1450 3075 1762 3725 
Q 2075 4375 2700 5000 
L 2975 4725 
Q 2400 4175 2112 3587 
Q 1825 3000 1825 2250 
Q 1825 1500 2112 912 
Q 2400 325 2975 -200 
z
" transform="scale(0.015625)"/>
      <path id="SimHei-6c" d="M 1825 125 
L 1325 125 
L 1325 4400 
L 1825 4400 
L 1825 125 
z
" transform="scale(0.015625)"/>
      <path id="SimHei-57" d="M 3075 4400 
L 2525 75 
L 2025 75 
L 1575 3275 
L 1525 3275 
L 1075 75 
L 575 75 
L 25 4400 
L 575 4400 
L 850 1675 
L 900 1675 
L 1275 4400 
L 1825 4400 
L 2200 1675 
L 2250 1675 
L 2525 4400 
L 3075 4400 
z
" transform="scale(0.015625)"/>
      <path id="SimHei-6d" d="M 3050 125 
L 2550 125 
L 2550 2150 
Q 2550 2300 2500 2400 
Q 2450 2500 2300 2500 
Q 2125 2500 1975 2312 
Q 1825 2125 1825 1825 
L 1825 125 
L 1325 125 
L 1325 2150 
Q 1325 2300 1275 2400 
Q 1225 2500 1075 2500 
Q 900 2500 750 2312 
Q 600 2125 600 1825 
L 600 125 
L 100 125 
L 100 2925 
L 600 2925 
L 600 2550 
Q 725 2750 900 2862 
Q 1075 2975 1275 2975 
Q 1475 2975 1612 2862 
Q 1750 2750 1800 2550 
Q 1925 2750 2087 2862 
Q 2250 2975 2450 2975 
Q 2750 2975 2900 2812 
Q 3050 2650 3050 2350 
L 3050 125 
z
" transform="scale(0.015625)"/>
      <path id="SimHei-73" d="M 2750 900 
Q 2750 500 2437 287 
Q 2125 75 1650 75 
Q 1050 75 725 312 
Q 400 550 400 1000 
L 900 1000 
Q 900 700 1112 600 
Q 1325 500 1625 500 
Q 1925 500 2075 612 
Q 2225 725 2225 900 
Q 2225 1025 2100 1150 
Q 1975 1275 1475 1350 
Q 900 1425 687 1637 
Q 475 1850 475 2200 
Q 475 2500 762 2737 
Q 1050 2975 1600 2975 
Q 2100 2975 2387 2750 
Q 2675 2525 2675 2150 
L 2175 2150 
Q 2175 2375 2012 2462 
Q 1850 2550 1600 2550 
Q 1275 2550 1137 2437 
Q 1000 2325 1000 2175 
Q 1000 2000 1125 1900 
Q 1250 1800 1650 1750 
Q 2300 1650 2525 1437 
Q 2750 1225 2750 900 
z
" transform="scale(0.015625)"/>
      <path id="SimHei-2f" d="M 3000 4550 
L 350 -175 
L 100 -25 
L 2750 4700 
L 3000 4550 
z
" transform="scale(0.015625)"/>
      <path id="SimHei-43" d="M 2975 1825 
Q 2950 875 2575 475 
Q 2200 75 1675 75 
Q 1075 75 650 562 
Q 225 1050 225 2125 
Q 225 3300 637 3875 
Q 1050 4450 1700 4450 
Q 2250 4450 2612 4037 
Q 2975 3625 2950 2875 
L 2400 2875 
Q 2400 3425 2225 3700 
Q 2050 3975 1700 3975 
Q 1300 3975 1062 3562 
Q 825 3150 825 2175 
Q 825 1275 1062 912 
Q 1300 550 1675 550 
Q 1950 550 2175 812 
Q 2400 1075 2400 1825 
L 2975 1825 
z
" transform="scale(0.015625)"/>
      <path id="SimHei-68" d="M 2800 125 
L 2300 125 
L 2300 1925 
Q 2300 2225 2150 2400 
Q 2000 2575 1750 2575 
Q 1425 2575 1137 2237 
Q 850 1900 850 1400 
L 850 125 
L 350 125 
L 350 4400 
L 850 4400 
L 850 2400 
Q 1050 2675 1287 2825 
Q 1525 2975 1900 2975 
Q 2350 2975 2575 2725 
Q 2800 2475 2800 2100 
L 2800 125 
z
" transform="scale(0.015625)"/>
      <path id="SimHei-79" d="M 2900 2925 
L 1750 -100 
Q 1650 -450 1450 -625 
Q 1250 -800 950 -800 
Q 825 -800 712 -787 
Q 600 -775 500 -725 
L 500 -225 
Q 600 -275 700 -300 
Q 800 -325 875 -325 
Q 1075 -325 1150 -262 
Q 1225 -200 1300 25 
L 200 2925 
L 750 2925 
L 1550 725 
L 1575 725 
L 2350 2925 
L 2900 2925 
z
" transform="scale(0.015625)"/>
      <path id="SimHei-29" d="M 1675 2250 
Q 1675 1425 1362 775 
Q 1050 125 425 -475 
L 150 -200 
Q 725 325 1012 912 
Q 1300 1500 1300 2250 
Q 1300 3000 1012 3587 
Q 725 4175 150 4725 
L 425 5000 
Q 1050 4375 1362 3725 
Q 1675 3075 1675 2250 
z
" transform="scale(0.015625)"/>
     </defs>
     <use xlink:href="#SimHei-53"/>
     <use xlink:href="#SimHei-74" transform="translate(50 0)"/>
     <use xlink:href="#SimHei-72" transform="translate(100 0)"/>
     <use xlink:href="#SimHei-6f" transform="translate(150 0)"/>
     <use xlink:href="#SimHei-6b" transform="translate(200 0)"/>
     <use xlink:href="#SimHei-65" transform="translate(250 0)"/>
     <use xlink:href="#SimHei-20" transform="translate(300 0)"/>
     <use xlink:href="#SimHei-49" transform="translate(350 0)"/>
     <use xlink:href="#SimHei-64" transform="translate(400 0)"/>
     <use xlink:href="#SimHei-65" transform="translate(450 0)"/>
     <use xlink:href="#SimHei-6e" transform="translate(500 0)"/>
     <use xlink:href="#SimHei-74" transform="translate(550 0)"/>
     <use xlink:href="#SimHei-69" transform="translate(600 0)"/>
     <use xlink:href="#SimHei-66" transform="translate(650 0)"/>
     <use xlink:href="#SimHei-69" transform="translate(700 0)"/>
     <use xlink:href="#SimHei-63" transform="translate(750 0)"/>
     <use xlink:href="#SimHei-61" transform="translate(800 0)"/>
     <use xlink:href="#SimHei-74" transform="translate(850 0)"/>
     <use xlink:href="#SimHei-69" transform="translate(900 0)"/>
     <use xlink:href="#SimHei-6f" transform="translate(950 0)"/>
     <use xlink:href="#SimHei-6e" transform="translate(1000 0)"/>
     <use xlink:href="#SimHei-20" transform="translate(1050 0)"/>
     <use xlink:href="#SimHei-28" transform="translate(1100 0)"/>
     <use xlink:href="#SimHei-42" transform="translate(1150 0)"/>
     <use xlink:href="#SimHei-69" transform="translate(1200 0)"/>
     <use xlink:href="#SimHei-6c" transform="translate(1250 0)"/>
     <use xlink:href="#SimHei-6c" transform="translate(1300 0)"/>
     <use xlink:href="#SimHei-20" transform="translate(1350 0)"/>
     <use xlink:href="#SimHei-57" transform="translate(1400 0)"/>
     <use xlink:href="#SimHei-69" transform="translate(1450 0)"/>
     <use xlink:href="#SimHei-6c" transform="translate(1500 0)"/>
     <use xlink:href="#SimHei-6c" transform="translate(1550 0)"/>
     <use xlink:href="#SimHei-69" transform="translate(1600 0)"/>
     <use xlink:href="#SimHei-61" transform="translate(1650 0)"/>
     <use xlink:href="#SimHei-6d" transform="translate(1700 0)"/>
     <use xlink:href="#SimHei-73" transform="translate(1750 0)"/>
     <use xlink:href="#SimHei-20" transform="translate(1800 0)"/>
     <use xlink:href="#SimHei-2f" transform="translate(1850 0)"/>
     <use xlink:href="#SimHei-20" transform="translate(1900 0)"/>
     <use xlink:href="#SimHei-43" transform="translate(1950 0)"/>
     <use xlink:href="#SimHei-68" transform="translate(2000 0)"/>
     <use xlink:href="#SimHei-61" transform="translate(2050 0)"/>
     <use xlink:href="#SimHei-6e" transform="translate(2100 0)"/>
     <use xlink:href="#SimHei-20" transform="translate(2150 0)"/>
     <use xlink:href="#SimHei-54" transform="translate(2200 0)"/>
     <use xlink:href="#SimHei-68" transform="translate(2250 0)"/>
     <use xlink:href="#SimHei-65" transform="translate(2300 0)"/>
     <use xlink:href="#SimHei-6f" transform="translate(2350 0)"/>
     <use xlink:href="#SimHei-72" transform="translate(2400 0)"/>
     <use xlink:href="#SimHei-79" transform="translate(2450 0)"/>
     <use xlink:href="#SimHei-29" transform="translate(2500 0)"/>
    </g>
   </g>
  </g>
 </g>
 <defs>
  <clipPath id="p57744ad23e">
   <rect x="46.325" y="24.1375" width="946.69" height="497.79924"/>
  </clipPath>
 </defs>
</svg>
