<?xml version="1.0" encoding="utf-8" standalone="no"?>
<!DOCTYPE svg PUBLIC "-//W3C//DTD SVG 1.1//EN"
  "http://www.w3.org/Graphics/SVG/1.1/DTD/svg11.dtd">
<svg xmlns:xlink="http://www.w3.org/1999/xlink" width="834.725pt" height="514.737965pt" viewBox="0 0 834.725 514.737965" xmlns="http://www.w3.org/2000/svg" version="1.1">
 <metadata>
  <rdf:RDF xmlns:dc="http://purl.org/dc/elements/1.1/" xmlns:cc="http://creativecommons.org/ns#" xmlns:rdf="http://www.w3.org/1999/02/22-rdf-syntax-ns#">
   <cc:Work>
    <dc:type rdf:resource="http://purl.org/dc/dcmitype/StillImage"/>
    <dc:date>2025-12-30T13:19:04.852036</dc:date>
    <dc:format>image/svg+xml</dc:format>
    <dc:creator>
     <cc:Agent>
      <dc:title>Matplotlib v3.10.8, https://matplotlib.org/</dc:title>
     </cc:Agent>
    </dc:creator>
   </cc:Work>
  </rdf:RDF>
 </metadata>
 <defs>
  <style type="text/css">*{stroke-linejoin: round; stroke-linecap: butt}</style>
 </defs>
 <g id="figure_1">
  <g id="patch_1">
   <path d="M 0 514.737965 
L 834.725 514.737965 
L 834.725 0 
L 0 0 
z
" style="fill: #ffffff"/>
  </g>
  <g id="axes_1">
   <g id="patch_2">
    <path d="M 46.325 467.6575 
L 827.525 467.6575 
L 827.525 24.1375 
L 46.325 24.1375 
z
" style="fill: #ffffff"/>
   </g>
   <g id="patch_3">
    <path d="M 83.794934 447.4975 
L 84.151451 447.4975 
L 84.151451 423.691569 
L 83.794934 423.691569 
z
" clip-path="url(#p84ff2439fc)" style="fill: #ff0000"/>
   </g>
   <g id="patch_4">
    <path d="M 98.055613 427.197696 
L 98.41213 427.197696 
L 98.41213 413.289921 
L 98.055613 413.289921 
z
" clip-path="url(#p84ff2439fc)" style="fill: #ff0000"/>
   </g>
   <g id="patch_5">
    <path d="M 105.185953 420.355009 
L 105.54247 420.355009 
L 105.54247 408.910401 
L 105.185953 408.910401 
z
" clip-path="url(#p84ff2439fc)" style="fill: #ff0000"/>
   </g>
   <g id="patch_6">
    <path d="M 119.446632 416.424334 
L 119.803149 416.424334 
L 119.803149 404.689123 
L 119.446632 404.689123 
z
" clip-path="url(#p84ff2439fc)" style="fill: #ff0000"/>
   </g>
   <g id="patch_7">
    <path d="M 133.707311 408.990671 
L 134.063828 408.990671 
L 134.063828 389.745377 
L 133.707311 389.745377 
z
" clip-path="url(#p84ff2439fc)" style="fill: #ff0000"/>
   </g>
   <g id="patch_8">
    <path d="M 147.96799 395.565584 
L 148.324507 395.565584 
L 148.324507 379.944282 
L 147.96799 379.944282 
z
" clip-path="url(#p84ff2439fc)" style="fill: #ff0000"/>
   </g>
   <g id="patch_9">
    <path d="M 155.09833 385.155362 
L 155.454847 385.155362 
L 155.454847 366.609494 
L 155.09833 366.609494 
z
" clip-path="url(#p84ff2439fc)" style="fill: #ff0000"/>
   </g>
   <g id="patch_10">
    <path d="M 169.359009 379.375727 
L 169.715526 379.375727 
L 169.715526 362.296461 
L 169.359009 362.296461 
z
" clip-path="url(#p84ff2439fc)" style="fill: #ff0000"/>
   </g>
   <g id="patch_11">
    <path d="M 176.489348 361.835127 
L 176.845865 361.835127 
L 176.845865 353.67376 
L 176.489348 353.67376 
z
" clip-path="url(#p84ff2439fc)" style="fill: #ff0000"/>
   </g>
   <g id="patch_12">
    <path d="M 183.619688 351.427526 
L 183.976205 351.427526 
L 183.976205 338.046505 
L 183.619688 338.046505 
z
" clip-path="url(#p84ff2439fc)" style="fill: #ff0000"/>
   </g>
   <g id="patch_13">
    <path d="M 190.750027 344.048444 
L 191.106544 344.048444 
L 191.106544 327.046181 
L 190.750027 327.046181 
z
" clip-path="url(#p84ff2439fc)" style="fill: #ff0000"/>
   </g>
   <g id="patch_14">
    <path d="M 205.010706 333.264244 
L 205.367223 333.264244 
L 205.367223 312.990905 
L 205.010706 312.990905 
z
" clip-path="url(#p84ff2439fc)" style="fill: #ff0000"/>
   </g>
   <g id="patch_15">
    <path d="M 212.141046 320.561263 
L 212.497563 320.561263 
L 212.497563 307.622067 
L 212.141046 307.622067 
z
" clip-path="url(#p84ff2439fc)" style="fill: #ff0000"/>
   </g>
   <g id="patch_16">
    <path d="M 219.271386 319.261478 
L 219.627903 319.261478 
L 219.627903 294.643852 
L 219.271386 294.643852 
z
" clip-path="url(#p84ff2439fc)" style="fill: #ff0000"/>
   </g>
   <g id="patch_17">
    <path d="M 240.662404 343.664921 
L 241.018921 343.664921 
L 241.018921 321.464843 
L 240.662404 321.464843 
z
" clip-path="url(#p84ff2439fc)" style="fill: #ff0000"/>
   </g>
   <g id="patch_18">
    <path d="M 247.792744 318.429433 
L 248.149261 318.429433 
L 248.149261 307.360712 
L 247.792744 307.360712 
z
" clip-path="url(#p84ff2439fc)" style="fill: #ff0000"/>
   </g>
   <g id="patch_19">
    <path d="M 254.923083 309.435018 
L 255.2796 309.435018 
L 255.2796 296.067197 
L 254.923083 296.067197 
z
" clip-path="url(#p84ff2439fc)" style="fill: #ff0000"/>
   </g>
   <g id="patch_20">
    <path d="M 269.183762 297.323952 
L 269.540279 297.323952 
L 269.540279 278.821406 
L 269.183762 278.821406 
z
" clip-path="url(#p84ff2439fc)" style="fill: #ff0000"/>
   </g>
   <g id="patch_21">
    <path d="M 276.314102 287.471576 
L 276.670619 287.471576 
L 276.670619 275.692687 
L 276.314102 275.692687 
z
" clip-path="url(#p84ff2439fc)" style="fill: #ff0000"/>
   </g>
   <g id="patch_22">
    <path d="M 283.444441 273.571663 
L 283.800958 273.571663 
L 283.800958 244.050351 
L 283.444441 244.050351 
z
" clip-path="url(#p84ff2439fc)" style="fill: #ff0000"/>
   </g>
   <g id="patch_23">
    <path d="M 290.574781 240.880123 
L 290.931298 240.880123 
L 290.931298 209.17845 
L 290.574781 209.17845 
z
" clip-path="url(#p84ff2439fc)" style="fill: #ff0000"/>
   </g>
   <g id="patch_24">
    <path d="M 297.70512 225.896451 
L 298.061637 225.896451 
L 298.061637 202.065899 
L 297.70512 202.065899 
z
" clip-path="url(#p84ff2439fc)" style="fill: #ff0000"/>
   </g>
   <g id="patch_25">
    <path d="M 311.9658 204.921486 
L 312.322317 204.921486 
L 312.322317 172.910477 
L 311.9658 172.910477 
z
" clip-path="url(#p84ff2439fc)" style="fill: #ff0000"/>
   </g>
   <g id="patch_26">
    <path d="M 326.226479 197.402991 
L 326.582996 197.402991 
L 326.582996 143.09151 
L 326.226479 143.09151 
z
" clip-path="url(#p84ff2439fc)" style="fill: #ff0000"/>
   </g>
   <g id="patch_27">
    <path d="M 333.356818 149.376028 
L 333.713335 149.376028 
L 333.713335 125.416933 
L 333.356818 125.416933 
z
" clip-path="url(#p84ff2439fc)" style="fill: #ff0000"/>
   </g>
   <g id="patch_28">
    <path d="M 361.878176 219.328093 
L 362.234693 219.328093 
L 362.234693 162.04426 
L 361.878176 162.04426 
z
" clip-path="url(#p84ff2439fc)" style="fill: #ff0000"/>
   </g>
   <g id="patch_29">
    <path d="M 369.008516 168.473755 
L 369.365033 168.473755 
L 369.365033 147.071233 
L 369.008516 147.071233 
z
" clip-path="url(#p84ff2439fc)" style="fill: #ff0000"/>
   </g>
   <g id="patch_30">
    <path d="M 383.269195 177.73192 
L 383.625712 177.73192 
L 383.625712 154.04848 
L 383.269195 154.04848 
z
" clip-path="url(#p84ff2439fc)" style="fill: #ff0000"/>
   </g>
   <g id="patch_31">
    <path d="M 390.399535 174.947187 
L 390.756051 174.947187 
L 390.756051 118.119221 
L 390.399535 118.119221 
z
" clip-path="url(#p84ff2439fc)" style="fill: #ff0000"/>
   </g>
   <g id="patch_32">
    <path d="M 404.660214 133.030678 
L 405.016731 133.030678 
L 405.016731 108.287228 
L 404.660214 108.287228 
z
" clip-path="url(#p84ff2439fc)" style="fill: #ff0000"/>
   </g>
   <g id="patch_33">
    <path d="M 433.181572 139.875759 
L 433.538089 139.875759 
L 433.538089 98.846717 
L 433.181572 98.846717 
z
" clip-path="url(#p84ff2439fc)" style="fill: #ff0000"/>
   </g>
   <g id="patch_34">
    <path d="M 440.311911 101.731876 
L 440.668428 101.731876 
L 440.668428 85.514356 
L 440.311911 85.514356 
z
" clip-path="url(#p84ff2439fc)" style="fill: #ff0000"/>
   </g>
   <g id="patch_35">
    <path d="M 447.442251 124.437678 
L 447.798768 124.437678 
L 447.798768 92.272309 
L 447.442251 92.272309 
z
" clip-path="url(#p84ff2439fc)" style="fill: #ff0000"/>
   </g>
   <g id="patch_36">
    <path d="M 454.57259 88.742046 
L 454.929107 88.742046 
L 454.929107 76.002117 
L 454.57259 76.002117 
z
" clip-path="url(#p84ff2439fc)" style="fill: #ff0000"/>
   </g>
   <g id="patch_37">
    <path d="M 461.70293 73.600779 
L 462.059447 73.600779 
L 462.059447 47.689029 
L 461.70293 47.689029 
z
" clip-path="url(#p84ff2439fc)" style="fill: #ff0000"/>
   </g>
   <g id="patch_38">
    <path d="M 475.963609 154.420744 
L 476.320126 154.420744 
L 476.320126 90.752031 
L 475.963609 90.752031 
z
" clip-path="url(#p84ff2439fc)" style="fill: #ff0000"/>
   </g>
   <g id="patch_39">
    <path d="M 490.224288 135.848282 
L 490.580805 135.848282 
L 490.580805 96.481971 
L 490.224288 96.481971 
z
" clip-path="url(#p84ff2439fc)" style="fill: #ff0000"/>
   </g>
   <g id="patch_40">
    <path d="M 511.615307 106.310987 
L 511.971824 106.310987 
L 511.971824 88.923939 
L 511.615307 88.923939 
z
" clip-path="url(#p84ff2439fc)" style="fill: #ff0000"/>
   </g>
   <g id="patch_41">
    <path d="M 518.745646 80.100353 
L 519.102163 80.100353 
L 519.102163 62.639667 
L 518.745646 62.639667 
z
" clip-path="url(#p84ff2439fc)" style="fill: #ff0000"/>
   </g>
   <g id="patch_42">
    <path d="M 525.875986 78.994205 
L 526.232503 78.994205 
L 526.232503 56.055132 
L 525.875986 56.055132 
z
" clip-path="url(#p84ff2439fc)" style="fill: #ff0000"/>
   </g>
   <g id="patch_43">
    <path d="M 533.006325 71.860172 
L 533.362842 71.860172 
L 533.362842 47.725363 
L 533.006325 47.725363 
z
" clip-path="url(#p84ff2439fc)" style="fill: #ff0000"/>
   </g>
   <g id="patch_44">
    <path d="M 561.527683 120.111347 
L 561.8842 120.111347 
L 561.8842 80.03956 
L 561.527683 80.03956 
z
" clip-path="url(#p84ff2439fc)" style="fill: #ff0000"/>
   </g>
   <g id="patch_45">
    <path d="M 568.658023 81.745419 
L 569.01454 81.745419 
L 569.01454 61.041029 
L 568.658023 61.041029 
z
" clip-path="url(#p84ff2439fc)" style="fill: #ff0000"/>
   </g>
   <g id="patch_46">
    <path d="M 575.788363 73.557036 
L 576.14488 73.557036 
L 576.14488 57.520925 
L 575.788363 57.520925 
z
" clip-path="url(#p84ff2439fc)" style="fill: #ff0000"/>
   </g>
   <g id="patch_47">
    <path d="M 597.179381 78.775881 
L 597.535898 78.775881 
L 597.535898 50.563123 
L 597.179381 50.563123 
z
" clip-path="url(#p84ff2439fc)" style="fill: #ff0000"/>
   </g>
   <g id="patch_48">
    <path d="M 632.831079 188.789025 
L 633.187596 188.789025 
L 633.187596 161.712277 
L 632.831079 161.712277 
z
" clip-path="url(#p84ff2439fc)" style="fill: #ff0000"/>
   </g>
   <g id="patch_49">
    <path d="M 639.961418 160.295273 
L 640.317935 160.295273 
L 640.317935 134.048758 
L 639.961418 134.048758 
z
" clip-path="url(#p84ff2439fc)" style="fill: #ff0000"/>
   </g>
   <g id="patch_50">
    <path d="M 647.091758 149.552324 
L 647.448275 149.552324 
L 647.448275 129.345181 
L 647.091758 129.345181 
z
" clip-path="url(#p84ff2439fc)" style="fill: #ff0000"/>
   </g>
   <g id="patch_51">
    <path d="M 661.352437 148.234226 
L 661.708954 148.234226 
L 661.708954 126.045019 
L 661.352437 126.045019 
z
" clip-path="url(#p84ff2439fc)" style="fill: #ff0000"/>
   </g>
   <g id="patch_52">
    <path d="M 668.482777 122.302741 
L 668.839294 122.302741 
L 668.839294 106.913352 
L 668.482777 106.913352 
z
" clip-path="url(#p84ff2439fc)" style="fill: #ff0000"/>
   </g>
   <g id="patch_53">
    <path d="M 697.004135 143.17906 
L 697.360652 143.17906 
L 697.360652 110.064686 
L 697.004135 110.064686 
z
" clip-path="url(#p84ff2439fc)" style="fill: #ff0000"/>
   </g>
   <g id="patch_54">
    <path d="M 704.134474 106.363983 
L 704.490991 106.363983 
L 704.490991 83.693382 
L 704.134474 83.693382 
z
" clip-path="url(#p84ff2439fc)" style="fill: #ff0000"/>
   </g>
   <g id="patch_55">
    <path d="M 718.395153 126.484935 
L 718.75167 126.484935 
L 718.75167 102.755488 
L 718.395153 102.755488 
z
" clip-path="url(#p84ff2439fc)" style="fill: #ff0000"/>
   </g>
   <g id="patch_56">
    <path d="M 739.786172 153.561942 
L 740.142689 153.561942 
L 740.142689 113.291017 
L 739.786172 113.291017 
z
" clip-path="url(#p84ff2439fc)" style="fill: #ff0000"/>
   </g>
   <g id="patch_57">
    <path d="M 746.916512 129.686741 
L 747.273028 129.686741 
L 747.273028 111.795652 
L 746.916512 111.795652 
z
" clip-path="url(#p84ff2439fc)" style="fill: #ff0000"/>
   </g>
   <g id="patch_58">
    <path d="M 754.046851 122.322703 
L 754.403368 122.322703 
L 754.403368 103.719796 
L 754.046851 103.719796 
z
" clip-path="url(#p84ff2439fc)" style="fill: #ff0000"/>
   </g>
   <g id="patch_59">
    <path d="M 761.177191 101.00029 
L 761.533708 101.00029 
L 761.533708 85.999535 
L 761.177191 85.999535 
z
" clip-path="url(#p84ff2439fc)" style="fill: #ff0000"/>
   </g>
   <g id="patch_60">
    <path d="M 775.43787 93.326043 
L 775.794387 93.326043 
L 775.794387 70.453456 
L 775.43787 70.453456 
z
" clip-path="url(#p84ff2439fc)" style="fill: #ff0000"/>
   </g>
   <g id="patch_61">
    <path d="M 782.568209 75.606591 
L 782.924726 75.606591 
L 782.924726 56.769312 
L 782.568209 56.769312 
z
" clip-path="url(#p84ff2439fc)" style="fill: #ff0000"/>
   </g>
   <g id="patch_62">
    <path d="M 789.698549 64.023767 
L 790.055066 64.023767 
L 790.055066 44.2975 
L 789.698549 44.2975 
z
" clip-path="url(#p84ff2439fc)" style="fill: #ff0000"/>
   </g>
   <g id="patch_63">
    <path d="M 90.925274 430.080784 
L 91.281791 430.080784 
L 91.281791 415.140369 
L 90.925274 415.140369 
z
" clip-path="url(#p84ff2439fc)" style="fill: #008000"/>
   </g>
   <g id="patch_64">
    <path d="M 112.316292 420.726075 
L 112.672809 420.726075 
L 112.672809 411.383565 
L 112.316292 411.383565 
z
" clip-path="url(#p84ff2439fc)" style="fill: #008000"/>
   </g>
   <g id="patch_65">
    <path d="M 126.576972 412.835802 
L 126.933488 412.835802 
L 126.933488 393.10012 
L 126.576972 393.10012 
z
" clip-path="url(#p84ff2439fc)" style="fill: #008000"/>
   </g>
   <g id="patch_66">
    <path d="M 140.837651 396.778143 
L 141.194168 396.778143 
L 141.194168 382.934267 
L 140.837651 382.934267 
z
" clip-path="url(#p84ff2439fc)" style="fill: #008000"/>
   </g>
   <g id="patch_67">
    <path d="M 162.228669 393.199737 
L 162.585186 393.199737 
L 162.585186 371.507389 
L 162.228669 371.507389 
z
" clip-path="url(#p84ff2439fc)" style="fill: #008000"/>
   </g>
   <g id="patch_68">
    <path d="M 197.880367 334.874335 
L 198.236884 334.874335 
L 198.236884 316.586975 
L 197.880367 316.586975 
z
" clip-path="url(#p84ff2439fc)" style="fill: #008000"/>
   </g>
   <g id="patch_69">
    <path d="M 226.401725 338.158223 
L 226.758242 338.158223 
L 226.758242 308.519402 
L 226.401725 308.519402 
z
" clip-path="url(#p84ff2439fc)" style="fill: #008000"/>
   </g>
   <g id="patch_70">
    <path d="M 233.532065 343.854321 
L 233.888582 343.854321 
L 233.888582 325.903668 
L 233.532065 325.903668 
z
" clip-path="url(#p84ff2439fc)" style="fill: #008000"/>
   </g>
   <g id="patch_71">
    <path d="M 262.053423 304.372927 
L 262.40994 304.372927 
L 262.40994 291.608798 
L 262.053423 291.608798 
z
" clip-path="url(#p84ff2439fc)" style="fill: #008000"/>
   </g>
   <g id="patch_72">
    <path d="M 304.83546 212.894489 
L 305.191977 212.894489 
L 305.191977 191.356662 
L 304.83546 191.356662 
z
" clip-path="url(#p84ff2439fc)" style="fill: #008000"/>
   </g>
   <g id="patch_73">
    <path d="M 319.096139 174.06687 
L 319.452656 174.06687 
L 319.452656 119.917968 
L 319.096139 119.917968 
z
" clip-path="url(#p84ff2439fc)" style="fill: #008000"/>
   </g>
   <g id="patch_74">
    <path d="M 340.487158 149.3538 
L 340.843675 149.3538 
L 340.843675 119.501735 
L 340.487158 119.501735 
z
" clip-path="url(#p84ff2439fc)" style="fill: #008000"/>
   </g>
   <g id="patch_75">
    <path d="M 347.617497 181.718146 
L 347.974014 181.718146 
L 347.974014 140.938164 
L 347.617497 140.938164 
z
" clip-path="url(#p84ff2439fc)" style="fill: #008000"/>
   </g>
   <g id="patch_76">
    <path d="M 354.747837 235.178849 
L 355.104354 235.178849 
L 355.104354 166.291647 
L 354.747837 166.291647 
z
" clip-path="url(#p84ff2439fc)" style="fill: #008000"/>
   </g>
   <g id="patch_77">
    <path d="M 376.138855 176.205819 
L 376.495372 176.205819 
L 376.495372 148.695593 
L 376.138855 148.695593 
z
" clip-path="url(#p84ff2439fc)" style="fill: #008000"/>
   </g>
   <g id="patch_78">
    <path d="M 397.529874 121.450798 
L 397.886391 121.450798 
L 397.886391 106.88391 
L 397.529874 106.88391 
z
" clip-path="url(#p84ff2439fc)" style="fill: #008000"/>
   </g>
   <g id="patch_79">
    <path d="M 411.790553 118.491873 
L 412.14707 118.491873 
L 412.14707 79.233107 
L 411.790553 79.233107 
z
" clip-path="url(#p84ff2439fc)" style="fill: #008000"/>
   </g>
   <g id="patch_80">
    <path d="M 418.920893 131.685759 
L 419.27741 131.685759 
L 419.27741 110.877837 
L 418.920893 110.877837 
z
" clip-path="url(#p84ff2439fc)" style="fill: #008000"/>
   </g>
   <g id="patch_81">
    <path d="M 426.051232 159.799385 
L 426.407749 159.799385 
L 426.407749 114.354069 
L 426.051232 114.354069 
z
" clip-path="url(#p84ff2439fc)" style="fill: #008000"/>
   </g>
   <g id="patch_82">
    <path d="M 468.833269 93.148096 
L 469.189786 93.148096 
L 469.189786 60.054203 
L 468.833269 60.054203 
z
" clip-path="url(#p84ff2439fc)" style="fill: #008000"/>
   </g>
   <g id="patch_83">
    <path d="M 483.093949 134.456288 
L 483.450465 134.456288 
L 483.450465 72.231368 
L 483.093949 72.231368 
z
" clip-path="url(#p84ff2439fc)" style="fill: #008000"/>
   </g>
   <g id="patch_84">
    <path d="M 497.354628 112.278987 
L 497.711145 112.278987 
L 497.711145 90.511351 
L 497.354628 90.511351 
z
" clip-path="url(#p84ff2439fc)" style="fill: #008000"/>
   </g>
   <g id="patch_85">
    <path d="M 504.484967 159.220865 
L 504.841484 159.220865 
L 504.841484 107.928714 
L 504.484967 107.928714 
z
" clip-path="url(#p84ff2439fc)" style="fill: #008000"/>
   </g>
   <g id="patch_86">
    <path d="M 540.136665 71.488328 
L 540.493182 71.488328 
L 540.493182 47.608145 
L 540.136665 47.608145 
z
" clip-path="url(#p84ff2439fc)" style="fill: #008000"/>
   </g>
   <g id="patch_87">
    <path d="M 547.267004 80.517718 
L 547.623521 80.517718 
L 547.623521 59.003445 
L 547.267004 59.003445 
z
" clip-path="url(#p84ff2439fc)" style="fill: #008000"/>
   </g>
   <g id="patch_88">
    <path d="M 554.397344 105.527182 
L 554.753861 105.527182 
L 554.753861 72.357321 
L 554.397344 72.357321 
z
" clip-path="url(#p84ff2439fc)" style="fill: #008000"/>
   </g>
   <g id="patch_89">
    <path d="M 582.918702 72.567169 
L 583.275219 72.567169 
L 583.275219 53.076179 
L 582.918702 53.076179 
z
" clip-path="url(#p84ff2439fc)" style="fill: #008000"/>
   </g>
   <g id="patch_90">
    <path d="M 590.049042 91.922757 
L 590.405559 91.922757 
L 590.405559 67.052156 
L 590.049042 67.052156 
z
" clip-path="url(#p84ff2439fc)" style="fill: #008000"/>
   </g>
   <g id="patch_91">
    <path d="M 604.309721 88.918213 
L 604.666238 88.918213 
L 604.666238 74.060883 
L 604.309721 74.060883 
z
" clip-path="url(#p84ff2439fc)" style="fill: #008000"/>
   </g>
   <g id="patch_92">
    <path d="M 611.44006 107.512967 
L 611.796577 107.512967 
L 611.796577 81.343066 
L 611.44006 81.343066 
z
" clip-path="url(#p84ff2439fc)" style="fill: #008000"/>
   </g>
   <g id="patch_93">
    <path d="M 618.5704 120.106494 
L 618.926917 120.106494 
L 618.926917 93.323293 
L 618.5704 93.323293 
z
" clip-path="url(#p84ff2439fc)" style="fill: #008000"/>
   </g>
   <g id="patch_94">
    <path d="M 625.700739 182.701122 
L 626.057256 182.701122 
L 626.057256 136.030758 
L 625.700739 136.030758 
z
" clip-path="url(#p84ff2439fc)" style="fill: #008000"/>
   </g>
   <g id="patch_95">
    <path d="M 654.222097 143.272756 
L 654.578614 143.272756 
L 654.578614 122.58587 
L 654.222097 122.58587 
z
" clip-path="url(#p84ff2439fc)" style="fill: #008000"/>
   </g>
   <g id="patch_96">
    <path d="M 675.613116 124.87452 
L 675.969633 124.87452 
L 675.969633 110.38059 
L 675.613116 110.38059 
z
" clip-path="url(#p84ff2439fc)" style="fill: #008000"/>
   </g>
   <g id="patch_97">
    <path d="M 682.743456 139.406531 
L 683.099973 139.406531 
L 683.099973 114.888264 
L 682.743456 114.888264 
z
" clip-path="url(#p84ff2439fc)" style="fill: #008000"/>
   </g>
   <g id="patch_98">
    <path d="M 689.873795 147.659459 
L 690.230312 147.659459 
L 690.230312 126.549319 
L 689.873795 126.549319 
z
" clip-path="url(#p84ff2439fc)" style="fill: #008000"/>
   </g>
   <g id="patch_99">
    <path d="M 711.264814 122.322833 
L 711.621331 122.322833 
L 711.621331 96.075768 
L 711.264814 96.075768 
z
" clip-path="url(#p84ff2439fc)" style="fill: #008000"/>
   </g>
   <g id="patch_100">
    <path d="M 725.525493 119.480899 
L 725.88201 119.480899 
L 725.88201 101.163515 
L 725.525493 101.163515 
z
" clip-path="url(#p84ff2439fc)" style="fill: #008000"/>
   </g>
   <g id="patch_101">
    <path d="M 732.655832 155.951051 
L 733.012349 155.951051 
L 733.012349 121.71005 
L 732.655832 121.71005 
z
" clip-path="url(#p84ff2439fc)" style="fill: #008000"/>
   </g>
   <g id="patch_102">
    <path d="M 768.30753 96.963397 
L 768.664047 96.963397 
L 768.664047 79.335895 
L 768.30753 79.335895 
z
" clip-path="url(#p84ff2439fc)" style="fill: #008000"/>
   </g>
   <g id="patch_103">
    <path d="M 81.834091 445.489423 
L 86.112295 445.489423 
L 86.112295 424.655715 
L 81.834091 424.655715 
z
" clip-path="url(#p84ff2439fc)" style="fill: #ff0000"/>
   </g>
   <g id="patch_104">
    <path d="M 96.09477 426.475233 
L 100.372974 426.475233 
L 100.372974 414.254585 
L 96.09477 414.254585 
z
" clip-path="url(#p84ff2439fc)" style="fill: #ff0000"/>
   </g>
   <g id="patch_105">
    <path d="M 103.22511 413.659338 
L 107.503313 413.659338 
L 107.503313 409.66677 
L 103.22511 409.66677 
z
" clip-path="url(#p84ff2439fc)" style="fill: #ff0000"/>
   </g>
   <g id="patch_106">
    <path d="M 117.485789 415.533987 
L 121.763992 415.533987 
L 121.763992 406.077914 
L 117.485789 406.077914 
z
" clip-path="url(#p84ff2439fc)" style="fill: #ff0000"/>
   </g>
   <g id="patch_107">
    <path d="M 131.746468 408.990671 
L 136.024671 408.990671 
L 136.024671 390.452471 
L 131.746468 390.452471 
z
" clip-path="url(#p84ff2439fc)" style="fill: #ff0000"/>
   </g>
   <g id="patch_108">
    <path d="M 146.007147 393.6436 
L 150.28535 393.6436 
L 150.28535 387.054827 
L 146.007147 387.054827 
z
" clip-path="url(#p84ff2439fc)" style="fill: #ff0000"/>
   </g>
   <g id="patch_109">
    <path d="M 153.137486 385.155362 
L 157.41569 385.155362 
L 157.41569 376.196115 
L 153.137486 376.196115 
z
" clip-path="url(#p84ff2439fc)" style="fill: #ff0000"/>
   </g>
   <g id="patch_110">
    <path d="M 167.398165 378.943576 
L 171.676369 378.943576 
L 171.676369 362.296461 
L 167.398165 362.296461 
z
" clip-path="url(#p84ff2439fc)" style="fill: #ff0000"/>
   </g>
   <g id="patch_111">
    <path d="M 174.528505 358.638595 
L 178.806709 358.638595 
L 178.806709 354.593646 
L 174.528505 354.593646 
z
" clip-path="url(#p84ff2439fc)" style="fill: #ff0000"/>
   </g>
   <g id="patch_112">
    <path d="M 181.658844 350.565942 
L 185.937048 350.565942 
L 185.937048 338.285148 
L 181.658844 338.285148 
z
" clip-path="url(#p84ff2439fc)" style="fill: #ff0000"/>
   </g>
   <g id="patch_113">
    <path d="M 188.789184 337.218407 
L 193.067388 337.218407 
L 193.067388 327.348787 
L 188.789184 327.348787 
z
" clip-path="url(#p84ff2439fc)" style="fill: #ff0000"/>
   </g>
   <g id="patch_114">
    <path d="M 203.049863 333.244637 
L 207.328067 333.244637 
L 207.328067 312.990905 
L 203.049863 312.990905 
z
" clip-path="url(#p84ff2439fc)" style="fill: #ff0000"/>
   </g>
   <g id="patch_115">
    <path d="M 210.180203 312.356736 
L 214.458406 312.356736 
L 214.458406 308.771245 
L 210.180203 308.771245 
z
" clip-path="url(#p84ff2439fc)" style="fill: #ff0000"/>
   </g>
   <g id="patch_116">
    <path d="M 217.310542 310.534759 
L 221.588746 310.534759 
L 221.588746 307.896752 
L 217.310542 307.896752 
z
" clip-path="url(#p84ff2439fc)" style="fill: #ff0000"/>
   </g>
   <g id="patch_117">
    <path d="M 238.701561 343.021661 
L 242.979765 343.021661 
L 242.979765 321.465069 
L 238.701561 321.465069 
z
" clip-path="url(#p84ff2439fc)" style="fill: #ff0000"/>
   </g>
   <g id="patch_118">
    <path d="M 245.8319 317.538245 
L 250.110104 317.538245 
L 250.110104 307.360712 
L 245.8319 307.360712 
z
" clip-path="url(#p84ff2439fc)" style="fill: #ff0000"/>
   </g>
   <g id="patch_119">
    <path d="M 252.96224 308.605561 
L 257.240444 308.605561 
L 257.240444 296.105277 
L 252.96224 296.105277 
z
" clip-path="url(#p84ff2439fc)" style="fill: #ff0000"/>
   </g>
   <g id="patch_120">
    <path d="M 267.222919 297.323952 
L 271.501123 297.323952 
L 271.501123 282.022695 
L 267.222919 282.022695 
z
" clip-path="url(#p84ff2439fc)" style="fill: #ff0000"/>
   </g>
   <g id="patch_121">
    <path d="M 274.353258 281.835689 
L 278.631462 281.835689 
L 278.631462 275.720382 
L 274.353258 275.720382 
z
" clip-path="url(#p84ff2439fc)" style="fill: #ff0000"/>
   </g>
   <g id="patch_122">
    <path d="M 281.483598 273.571663 
L 285.761802 273.571663 
L 285.761802 245.999997 
L 281.483598 245.999997 
z
" clip-path="url(#p84ff2439fc)" style="fill: #ff0000"/>
   </g>
   <g id="patch_123">
    <path d="M 288.613938 236.611188 
L 292.892141 236.611188 
L 292.892141 219.656453 
L 288.613938 219.656453 
z
" clip-path="url(#p84ff2439fc)" style="fill: #ff0000"/>
   </g>
   <g id="patch_124">
    <path d="M 295.744277 219.295901 
L 300.022481 219.295901 
L 300.022481 202.068972 
L 295.744277 202.068972 
z
" clip-path="url(#p84ff2439fc)" style="fill: #ff0000"/>
   </g>
   <g id="patch_125">
    <path d="M 310.004956 204.921486 
L 314.28316 204.921486 
L 314.28316 172.910736 
L 310.004956 172.910736 
z
" clip-path="url(#p84ff2439fc)" style="fill: #ff0000"/>
   </g>
   <g id="patch_126">
    <path d="M 324.265635 176.771171 
L 328.543839 176.771171 
L 328.543839 143.09151 
L 324.265635 143.09151 
z
" clip-path="url(#p84ff2439fc)" style="fill: #ff0000"/>
   </g>
   <g id="patch_127">
    <path d="M 331.395975 143.046053 
L 335.674179 143.046053 
L 335.674179 135.731387 
L 331.395975 135.731387 
z
" clip-path="url(#p84ff2439fc)" style="fill: #ff0000"/>
   </g>
   <g id="patch_128">
    <path d="M 359.917333 211.096292 
L 364.195537 211.096292 
L 364.195537 163.172343 
L 359.917333 163.172343 
z
" clip-path="url(#p84ff2439fc)" style="fill: #ff0000"/>
   </g>
   <g id="patch_129">
    <path d="M 367.047673 159.59342 
L 371.325876 159.59342 
L 371.325876 149.310576 
L 367.047673 149.310576 
z
" clip-path="url(#p84ff2439fc)" style="fill: #ff0000"/>
   </g>
   <g id="patch_130">
    <path d="M 381.308352 168.476991 
L 385.586555 168.476991 
L 385.586555 162.723012 
L 381.308352 162.723012 
z
" clip-path="url(#p84ff2439fc)" style="fill: #ff0000"/>
   </g>
   <g id="patch_131">
    <path d="M 388.438691 165.422395 
L 392.716895 165.422395 
L 392.716895 118.119221 
L 388.438691 118.119221 
z
" clip-path="url(#p84ff2439fc)" style="fill: #ff0000"/>
   </g>
   <g id="patch_132">
    <path d="M 402.69937 116.437077 
L 406.977574 116.437077 
L 406.977574 109.873539 
L 402.69937 109.873539 
z
" clip-path="url(#p84ff2439fc)" style="fill: #ff0000"/>
   </g>
   <g id="patch_133">
    <path d="M 431.220728 137.351573 
L 435.498932 137.351573 
L 435.498932 98.867456 
L 431.220728 98.867456 
z
" clip-path="url(#p84ff2439fc)" style="fill: #ff0000"/>
   </g>
   <g id="patch_134">
    <path d="M 438.351068 100.261877 
L 442.629272 100.261877 
L 442.629272 95.318946 
L 438.351068 95.318946 
z
" clip-path="url(#p84ff2439fc)" style="fill: #ff0000"/>
   </g>
   <g id="patch_135">
    <path d="M 445.481407 103.055085 
L 449.759611 103.055085 
L 449.759611 92.272309 
L 445.481407 92.272309 
z
" clip-path="url(#p84ff2439fc)" style="fill: #ff0000"/>
   </g>
   <g id="patch_136">
    <path d="M 452.611747 86.546802 
L 456.889951 86.546802 
L 456.889951 79.69415 
L 452.611747 79.69415 
z
" clip-path="url(#p84ff2439fc)" style="fill: #ff0000"/>
   </g>
   <g id="patch_137">
    <path d="M 459.742087 68.468124 
L 464.02029 68.468124 
L 464.02029 52.833558 
L 459.742087 52.833558 
z
" clip-path="url(#p84ff2439fc)" style="fill: #ff0000"/>
   </g>
   <g id="patch_138">
    <path d="M 474.002766 154.420744 
L 478.280969 154.420744 
L 478.280969 94.20733 
L 474.002766 94.20733 
z
" clip-path="url(#p84ff2439fc)" style="fill: #ff0000"/>
   </g>
   <g id="patch_139">
    <path d="M 488.263445 123.97272 
L 492.541648 123.97272 
L 492.541648 96.755135 
L 488.263445 96.755135 
z
" clip-path="url(#p84ff2439fc)" style="fill: #ff0000"/>
   </g>
   <g id="patch_140">
    <path d="M 509.654463 106.310987 
L 513.932667 106.310987 
L 513.932667 88.923939 
L 509.654463 88.923939 
z
" clip-path="url(#p84ff2439fc)" style="fill: #ff0000"/>
   </g>
   <g id="patch_141">
    <path d="M 516.784803 71.90482 
L 521.063007 71.90482 
L 521.063007 64.556377 
L 516.784803 64.556377 
z
" clip-path="url(#p84ff2439fc)" style="fill: #ff0000"/>
   </g>
   <g id="patch_142">
    <path d="M 523.915142 72.522229 
L 528.193346 72.522229 
L 528.193346 71.645245 
L 523.915142 71.645245 
z
" clip-path="url(#p84ff2439fc)" style="fill: #ff0000"/>
   </g>
   <g id="patch_143">
    <path d="M 531.045482 69.796737 
L 535.323686 69.796737 
L 535.323686 47.725363 
L 531.045482 47.725363 
z
" clip-path="url(#p84ff2439fc)" style="fill: #ff0000"/>
   </g>
   <g id="patch_144">
    <path d="M 559.56684 120.055407 
L 563.845044 120.055407 
L 563.845044 86.697635 
L 559.56684 86.697635 
z
" clip-path="url(#p84ff2439fc)" style="fill: #ff0000"/>
   </g>
   <g id="patch_145">
    <path d="M 566.69718 81.745419 
L 570.975383 81.745419 
L 570.975383 62.239514 
L 566.69718 62.239514 
z
" clip-path="url(#p84ff2439fc)" style="fill: #ff0000"/>
   </g>
   <g id="patch_146">
    <path d="M 573.827519 70.633215 
L 578.105723 70.633215 
L 578.105723 59.612119 
L 573.827519 59.612119 
z
" clip-path="url(#p84ff2439fc)" style="fill: #ff0000"/>
   </g>
   <g id="patch_147">
    <path d="M 595.218538 78.775881 
L 599.496742 78.775881 
L 599.496742 77.247127 
L 595.218538 77.247127 
z
" clip-path="url(#p84ff2439fc)" style="fill: #ff0000"/>
   </g>
   <g id="patch_148">
    <path d="M 630.870235 172.820728 
L 635.148439 172.820728 
L 635.148439 170.548837 
L 630.870235 170.548837 
z
" clip-path="url(#p84ff2439fc)" style="fill: #ff0000"/>
   </g>
   <g id="patch_149">
    <path d="M 638.000575 159.004223 
L 642.278779 159.004223 
L 642.278779 146.119705 
L 638.000575 146.119705 
z
" clip-path="url(#p84ff2439fc)" style="fill: #ff0000"/>
   </g>
   <g id="patch_150">
    <path d="M 645.130915 147.389628 
L 649.409118 147.389628 
L 649.409118 141.225143 
L 645.130915 141.225143 
z
" clip-path="url(#p84ff2439fc)" style="fill: #ff0000"/>
   </g>
   <g id="patch_151">
    <path d="M 659.391594 142.689513 
L 663.669797 142.689513 
L 663.669797 126.045019 
L 659.391594 126.045019 
z
" clip-path="url(#p84ff2439fc)" style="fill: #ff0000"/>
   </g>
   <g id="patch_152">
    <path d="M 666.521933 120.318703 
L 670.800137 120.318703 
L 670.800137 106.95208 
L 666.521933 106.95208 
z
" clip-path="url(#p84ff2439fc)" style="fill: #ff0000"/>
   </g>
   <g id="patch_153">
    <path d="M 695.043291 134.826772 
L 699.321495 134.826772 
L 699.321495 111.49722 
L 695.043291 111.49722 
z
" clip-path="url(#p84ff2439fc)" style="fill: #ff0000"/>
   </g>
   <g id="patch_154">
    <path d="M 702.173631 106.363983 
L 706.451835 106.363983 
L 706.451835 101.767789 
L 702.173631 101.767789 
z
" clip-path="url(#p84ff2439fc)" style="fill: #ff0000"/>
   </g>
   <g id="patch_155">
    <path d="M 716.43431 120.211774 
L 720.712514 120.211774 
L 720.712514 106.185357 
L 716.43431 106.185357 
z
" clip-path="url(#p84ff2439fc)" style="fill: #ff0000"/>
   </g>
   <g id="patch_156">
    <path d="M 737.825329 148.504899 
L 742.103532 148.504899 
L 742.103532 117.667366 
L 737.825329 117.667366 
z
" clip-path="url(#p84ff2439fc)" style="fill: #ff0000"/>
   </g>
   <g id="patch_157">
    <path d="M 744.955668 128.923933 
L 749.233872 128.923933 
L 749.233872 125.332554 
L 744.955668 125.332554 
z
" clip-path="url(#p84ff2439fc)" style="fill: #ff0000"/>
   </g>
   <g id="patch_158">
    <path d="M 752.086008 119.86591 
L 756.364211 119.86591 
L 756.364211 109.245583 
L 752.086008 109.245583 
z
" clip-path="url(#p84ff2439fc)" style="fill: #ff0000"/>
   </g>
   <g id="patch_159">
    <path d="M 759.216347 101.00029 
L 763.494551 101.00029 
L 763.494551 89.351367 
L 759.216347 89.351367 
z
" clip-path="url(#p84ff2439fc)" style="fill: #ff0000"/>
   </g>
   <g id="patch_160">
    <path d="M 773.477026 90.509539 
L 777.75523 90.509539 
L 777.75523 72.33435 
L 773.477026 72.33435 
z
" clip-path="url(#p84ff2439fc)" style="fill: #ff0000"/>
   </g>
   <g id="patch_161">
    <path d="M 780.607366 73.65756 
L 784.88557 73.65756 
L 784.88557 59.972477 
L 780.607366 59.972477 
z
" clip-path="url(#p84ff2439fc)" style="fill: #ff0000"/>
   </g>
   <g id="patch_162">
    <path d="M 787.737705 59.547347 
L 792.015909 59.547347 
L 792.015909 58.965591 
L 787.737705 58.965591 
z
" clip-path="url(#p84ff2439fc)" style="fill: #ff0000"/>
   </g>
   <g id="patch_163">
    <path d="M 88.96443 429.364695 
L 93.242634 429.364695 
L 93.242634 425.308616 
L 88.96443 425.308616 
z
" clip-path="url(#p84ff2439fc)" style="fill: #008000"/>
   </g>
   <g id="patch_164">
    <path d="M 110.355449 416.552552 
L 114.633653 416.552552 
L 114.633653 411.383565 
L 110.355449 411.383565 
z
" clip-path="url(#p84ff2439fc)" style="fill: #008000"/>
   </g>
   <g id="patch_165">
    <path d="M 124.616128 409.078188 
L 128.894332 409.078188 
L 128.894332 406.398315 
L 124.616128 406.398315 
z
" clip-path="url(#p84ff2439fc)" style="fill: #008000"/>
   </g>
   <g id="patch_166">
    <path d="M 138.876807 393.615841 
L 143.155011 393.615841 
L 143.155011 389.736868 
L 138.876807 389.736868 
z
" clip-path="url(#p84ff2439fc)" style="fill: #008000"/>
   </g>
   <g id="patch_167">
    <path d="M 160.267826 378.763559 
L 164.54603 378.763559 
L 164.54603 376.347855 
L 160.267826 376.347855 
z
" clip-path="url(#p84ff2439fc)" style="fill: #008000"/>
   </g>
   <g id="patch_168">
    <path d="M 195.919524 332.41518 
L 200.197727 332.41518 
L 200.197727 325.405774 
L 195.919524 325.405774 
z
" clip-path="url(#p84ff2439fc)" style="fill: #008000"/>
   </g>
   <g id="patch_169">
    <path d="M 224.440882 332.648323 
L 228.719085 332.648323 
L 228.719085 311.98321 
L 224.440882 311.98321 
z
" clip-path="url(#p84ff2439fc)" style="fill: #008000"/>
   </g>
   <g id="patch_170">
    <path d="M 231.571221 335.06312 
L 235.849425 335.06312 
L 235.849425 333.965255 
L 231.571221 333.965255 
z
" clip-path="url(#p84ff2439fc)" style="fill: #008000"/>
   </g>
   <g id="patch_171">
    <path d="M 260.092579 300.107325 
L 264.370783 300.107325 
L 264.370783 294.586909 
L 260.092579 294.586909 
z
" clip-path="url(#p84ff2439fc)" style="fill: #008000"/>
   </g>
   <g id="patch_172">
    <path d="M 302.874617 204.562908 
L 307.15282 204.562908 
L 307.15282 197.743321 
L 302.874617 197.743321 
z
" clip-path="url(#p84ff2439fc)" style="fill: #008000"/>
   </g>
   <g id="patch_173">
    <path d="M 317.135296 174.06687 
L 321.413499 174.06687 
L 321.413499 157.559331 
L 317.135296 157.559331 
z
" clip-path="url(#p84ff2439fc)" style="fill: #008000"/>
   </g>
   <g id="patch_174">
    <path d="M 338.526314 149.3538 
L 342.804518 149.3538 
L 342.804518 126.801874 
L 338.526314 126.801874 
z
" clip-path="url(#p84ff2439fc)" style="fill: #008000"/>
   </g>
   <g id="patch_175">
    <path d="M 345.656654 172.946455 
L 349.934858 172.946455 
L 349.934858 144.049315 
L 345.656654 144.049315 
z
" clip-path="url(#p84ff2439fc)" style="fill: #008000"/>
   </g>
   <g id="patch_176">
    <path d="M 352.786993 212.600748 
L 357.065197 212.600748 
L 357.065197 170.851734 
L 352.786993 170.851734 
z
" clip-path="url(#p84ff2439fc)" style="fill: #008000"/>
   </g>
   <g id="patch_177">
    <path d="M 374.178012 167.030189 
L 378.456216 167.030189 
L 378.456216 156.695029 
L 374.178012 156.695029 
z
" clip-path="url(#p84ff2439fc)" style="fill: #008000"/>
   </g>
   <g id="patch_178">
    <path d="M 395.569031 119.495847 
L 399.847234 119.495847 
L 399.847234 118.879828 
L 395.569031 118.879828 
z
" clip-path="url(#p84ff2439fc)" style="fill: #008000"/>
   </g>
   <g id="patch_179">
    <path d="M 409.82971 118.491873 
L 414.107913 118.491873 
L 414.107913 111.476545 
L 409.82971 111.476545 
z
" clip-path="url(#p84ff2439fc)" style="fill: #008000"/>
   </g>
   <g id="patch_180">
    <path d="M 416.960049 124.850287 
L 421.238253 124.850287 
L 421.238253 118.690105 
L 416.960049 118.690105 
z
" clip-path="url(#p84ff2439fc)" style="fill: #008000"/>
   </g>
   <g id="patch_181">
    <path d="M 424.090389 127.040775 
L 428.368593 127.040775 
L 428.368593 120.944201 
L 424.090389 120.944201 
z
" clip-path="url(#p84ff2439fc)" style="fill: #008000"/>
   </g>
   <g id="patch_182">
    <path d="M 466.872426 86.98662 
L 471.15063 86.98662 
L 471.15063 63.861383 
L 466.872426 63.861383 
z
" clip-path="url(#p84ff2439fc)" style="fill: #008000"/>
   </g>
   <g id="patch_183">
    <path d="M 481.133105 126.640298 
L 485.411309 126.640298 
L 485.411309 77.993726 
L 481.133105 77.993726 
z
" clip-path="url(#p84ff2439fc)" style="fill: #008000"/>
   </g>
   <g id="patch_184">
    <path d="M 495.393784 105.742982 
L 499.671988 105.742982 
L 499.671988 102.971256 
L 495.393784 102.971256 
z
" clip-path="url(#p84ff2439fc)" style="fill: #008000"/>
   </g>
   <g id="patch_185">
    <path d="M 502.524124 114.487205 
L 506.802327 114.487205 
L 506.802327 107.928714 
L 502.524124 107.928714 
z
" clip-path="url(#p84ff2439fc)" style="fill: #008000"/>
   </g>
   <g id="patch_186">
    <path d="M 538.175821 69.68654 
L 542.454025 69.68654 
L 542.454025 52.226728 
L 538.175821 52.226728 
z
" clip-path="url(#p84ff2439fc)" style="fill: #008000"/>
   </g>
   <g id="patch_187">
    <path d="M 545.306161 80.441072 
L 549.584365 80.441072 
L 549.584365 71.138841 
L 545.306161 71.138841 
z
" clip-path="url(#p84ff2439fc)" style="fill: #008000"/>
   </g>
   <g id="patch_188">
    <path d="M 552.436501 93.618587 
L 556.714704 93.618587 
L 556.714704 80.387785 
L 552.436501 80.387785 
z
" clip-path="url(#p84ff2439fc)" style="fill: #008000"/>
   </g>
   <g id="patch_189">
    <path d="M 580.957859 70.124935 
L 585.236062 70.124935 
L 585.236062 54.449635 
L 580.957859 54.449635 
z
" clip-path="url(#p84ff2439fc)" style="fill: #008000"/>
   </g>
   <g id="patch_190">
    <path d="M 588.088198 78.049892 
L 592.366402 78.049892 
L 592.366402 75.00332 
L 588.088198 75.00332 
z
" clip-path="url(#p84ff2439fc)" style="fill: #008000"/>
   </g>
   <g id="patch_191">
    <path d="M 602.348877 80.28367 
L 606.627081 80.28367 
L 606.627081 77.741107 
L 602.348877 77.741107 
z
" clip-path="url(#p84ff2439fc)" style="fill: #008000"/>
   </g>
   <g id="patch_192">
    <path d="M 609.479217 99.374571 
L 613.757421 99.374571 
L 613.757421 85.146201 
L 609.479217 85.146201 
z
" clip-path="url(#p84ff2439fc)" style="fill: #008000"/>
   </g>
   <g id="patch_193">
    <path d="M 616.609556 118.839774 
L 620.88776 118.839774 
L 620.88776 101.056974 
L 616.609556 101.056974 
z
" clip-path="url(#p84ff2439fc)" style="fill: #008000"/>
   </g>
   <g id="patch_194">
    <path d="M 623.739896 182.701122 
L 628.0181 182.701122 
L 628.0181 144.896469 
L 623.739896 144.896469 
z
" clip-path="url(#p84ff2439fc)" style="fill: #008000"/>
   </g>
   <g id="patch_195">
    <path d="M 652.261254 141.369377 
L 656.539458 141.369377 
L 656.539458 140.833564 
L 652.261254 140.833564 
z
" clip-path="url(#p84ff2439fc)" style="fill: #008000"/>
   </g>
   <g id="patch_196">
    <path d="M 673.652273 119.99717 
L 677.930476 119.99717 
L 677.930476 110.38059 
L 673.652273 110.38059 
z
" clip-path="url(#p84ff2439fc)" style="fill: #008000"/>
   </g>
   <g id="patch_197">
    <path d="M 680.782612 134.583309 
L 685.060816 134.583309 
L 685.060816 119.754387 
L 680.782612 119.754387 
z
" clip-path="url(#p84ff2439fc)" style="fill: #008000"/>
   </g>
   <g id="patch_198">
    <path d="M 687.912952 134.347126 
L 692.191156 134.347126 
L 692.191156 134.166462 
L 687.912952 134.166462 
z
" clip-path="url(#p84ff2439fc)" style="fill: #008000"/>
   </g>
   <g id="patch_199">
    <path d="M 709.30397 121.610012 
L 713.582174 121.610012 
L 713.582174 105.939532 
L 709.30397 105.939532 
z
" clip-path="url(#p84ff2439fc)" style="fill: #008000"/>
   </g>
   <g id="patch_200">
    <path d="M 723.56465 119.011218 
L 727.842853 119.011218 
L 727.842853 118.314509 
L 723.56465 118.314509 
z
" clip-path="url(#p84ff2439fc)" style="fill: #008000"/>
   </g>
   <g id="patch_201">
    <path d="M 730.694989 148.229147 
L 734.973193 148.229147 
L 734.973193 122.581179 
L 730.694989 122.581179 
z
" clip-path="url(#p84ff2439fc)" style="fill: #008000"/>
   </g>
   <g id="patch_202">
    <path d="M 766.346687 90.55257 
L 770.62489 90.55257 
L 770.62489 88.550575 
L 766.346687 88.550575 
z
" clip-path="url(#p84ff2439fc)" style="fill: #008000"/>
   </g>
   <g id="matplotlib.axis_1">
    <g id="xtick_1">
     <g id="line2d_1">
      <defs>
       <path id="m3db119e1a6" d="M 0 0 
L 0 3.5 
" style="stroke: #000000; stroke-width: 0.8"/>
      </defs>
      <g>
       <use xlink:href="#m3db119e1a6" x="83.973193" y="467.6575" style="stroke: #000000; stroke-width: 0.8"/>
      </g>
     </g>
     <g id="text_1">
      <!-- 2025-06-25 -->
      <g transform="translate(71.422047 506.830859) rotate(-45) scale(0.08 -0.08)">
       <defs>
        <path id="SimHei-32" d="M 300 250 
Q 325 625 650 925 
Q 975 1225 1475 1862 
Q 1975 2500 2125 2850 
Q 2275 3200 2237 3450 
Q 2200 3700 2000 3862 
Q 1800 4025 1537 4000 
Q 1275 3975 1037 3800 
Q 800 3625 675 3275 
L 200 3350 
Q 400 3925 712 4187 
Q 1025 4450 1450 4475 
Q 1700 4500 1900 4462 
Q 2100 4425 2312 4287 
Q 2525 4150 2662 3875 
Q 2800 3600 2762 3212 
Q 2725 2825 2375 2287 
Q 2025 1750 1025 600 
L 2825 600 
L 2825 150 
L 300 150 
L 300 250 
z
" transform="scale(0.015625)"/>
        <path id="SimHei-30" d="M 225 2537 
Q 250 3200 412 3587 
Q 575 3975 875 4225 
Q 1175 4475 1612 4475 
Q 2050 4475 2375 4112 
Q 2700 3750 2800 3200 
Q 2900 2650 2862 1937 
Q 2825 1225 2612 775 
Q 2400 325 1975 150 
Q 1550 -25 1125 187 
Q 700 400 525 750 
Q 350 1100 275 1487 
Q 200 1875 225 2537 
z
M 750 2687 
Q 675 2000 800 1462 
Q 925 925 1212 700 
Q 1500 475 1800 612 
Q 2100 750 2237 1162 
Q 2375 1575 2375 2062 
Q 2375 2550 2337 2950 
Q 2300 3350 2112 3675 
Q 1925 4000 1612 4012 
Q 1300 4025 1062 3700 
Q 825 3375 750 2687 
z
" transform="scale(0.015625)"/>
        <path id="SimHei-35" d="M 550 1325 
Q 725 650 1150 575 
Q 1575 500 1837 662 
Q 2100 825 2212 1087 
Q 2325 1350 2312 1675 
Q 2300 2000 2137 2225 
Q 1975 2450 1725 2525 
Q 1475 2600 1162 2525 
Q 850 2450 650 2175 
L 225 2225 
Q 275 2375 700 4375 
L 2675 4375 
L 2675 3925 
L 1075 3925 
Q 950 3250 825 2850 
Q 1200 3025 1525 3012 
Q 1850 3000 2150 2862 
Q 2450 2725 2587 2487 
Q 2725 2250 2787 2012 
Q 2850 1775 2837 1500 
Q 2825 1225 2725 937 
Q 2625 650 2425 462 
Q 2225 275 1937 162 
Q 1650 50 1275 75 
Q 900 100 562 350 
Q 225 600 100 1200 
L 550 1325 
z
" transform="scale(0.015625)"/>
        <path id="SimHei-2d" d="M 2975 2125 
L 125 2125 
L 125 2525 
L 2975 2525 
L 2975 2125 
z
" transform="scale(0.015625)"/>
        <path id="SimHei-36" d="M 250 1612 
Q 275 1975 387 2225 
Q 500 2475 725 2850 
L 1750 4450 
L 2325 4450 
L 1275 2800 
Q 1950 2975 2350 2750 
Q 2750 2525 2887 2237 
Q 3025 1950 3037 1612 
Q 3050 1275 2937 950 
Q 2825 625 2537 362 
Q 2250 100 1737 75 
Q 1225 50 862 262 
Q 500 475 362 862 
Q 225 1250 250 1612 
z
M 1025 787 
Q 1250 550 1625 525 
Q 2000 500 2250 775 
Q 2500 1050 2500 1575 
Q 2500 2100 2187 2300 
Q 1875 2500 1487 2450 
Q 1100 2400 925 2075 
Q 750 1750 775 1387 
Q 800 1025 1025 787 
z
" transform="scale(0.015625)"/>
       </defs>
       <use xlink:href="#SimHei-32"/>
       <use xlink:href="#SimHei-30" transform="translate(50 0)"/>
       <use xlink:href="#SimHei-32" transform="translate(100 0)"/>
       <use xlink:href="#SimHei-35" transform="translate(150 0)"/>
       <use xlink:href="#SimHei-2d" transform="translate(200 0)"/>
       <use xlink:href="#SimHei-30" transform="translate(250 0)"/>
       <use xlink:href="#SimHei-36" transform="translate(300 0)"/>
       <use xlink:href="#SimHei-2d" transform="translate(350 0)"/>
       <use xlink:href="#SimHei-32" transform="translate(400 0)"/>
       <use xlink:href="#SimHei-35" transform="translate(450 0)"/>
      </g>
     </g>
    </g>
    <g id="xtick_2">
     <g id="line2d_2">
      <g>
       <use xlink:href="#m3db119e1a6" x="119.62489" y="467.6575" style="stroke: #000000; stroke-width: 0.8"/>
      </g>
     </g>
     <g id="text_2">
      <!-- 2025-07-03 -->
      <g transform="translate(107.073745 506.830859) rotate(-45) scale(0.08 -0.08)">
       <defs>
        <path id="SimHei-37" d="M 850 150 
Q 1300 2050 2425 3925 
L 275 3925 
L 275 4375 
L 2950 4375 
L 2950 3950 
Q 1775 2050 1400 150 
L 850 150 
z
" transform="scale(0.015625)"/>
        <path id="SimHei-33" d="M 250 1225 
L 700 1300 
Q 800 975 1025 762 
Q 1250 550 1587 562 
Q 1925 575 2125 837 
Q 2325 1100 2300 1437 
Q 2275 1775 2037 1962 
Q 1800 2150 1275 2225 
L 1275 2550 
Q 1800 2600 2037 2825 
Q 2275 3050 2250 3412 
Q 2225 3775 1925 3937 
Q 1625 4100 1287 3975 
Q 950 3850 750 3275 
L 300 3350 
Q 450 3800 712 4100 
Q 975 4400 1425 4450 
Q 1875 4500 2212 4337 
Q 2550 4175 2687 3837 
Q 2825 3500 2725 3100 
Q 2625 2700 2150 2400 
Q 2500 2250 2687 1950 
Q 2875 1650 2812 1162 
Q 2750 675 2375 375 
Q 2000 75 1525 87 
Q 1050 100 700 387 
Q 350 675 250 1225 
z
" transform="scale(0.015625)"/>
       </defs>
       <use xlink:href="#SimHei-32"/>
       <use xlink:href="#SimHei-30" transform="translate(50 0)"/>
       <use xlink:href="#SimHei-32" transform="translate(100 0)"/>
       <use xlink:href="#SimHei-35" transform="translate(150 0)"/>
       <use xlink:href="#SimHei-2d" transform="translate(200 0)"/>
       <use xlink:href="#SimHei-30" transform="translate(250 0)"/>
       <use xlink:href="#SimHei-37" transform="translate(300 0)"/>
       <use xlink:href="#SimHei-2d" transform="translate(350 0)"/>
       <use xlink:href="#SimHei-30" transform="translate(400 0)"/>
       <use xlink:href="#SimHei-33" transform="translate(450 0)"/>
      </g>
     </g>
    </g>
    <g id="xtick_3">
     <g id="line2d_3">
      <g>
       <use xlink:href="#m3db119e1a6" x="155.276588" y="467.6575" style="stroke: #000000; stroke-width: 0.8"/>
      </g>
     </g>
     <g id="text_3">
      <!-- 2025-07-14 -->
      <g transform="translate(142.725443 506.830859) rotate(-45) scale(0.08 -0.08)">
       <defs>
        <path id="SimHei-31" d="M 1400 3600 
Q 1075 3275 575 2975 
L 575 3450 
Q 1200 3875 1600 4450 
L 1900 4450 
L 1900 150 
L 1400 150 
L 1400 3600 
z
" transform="scale(0.015625)"/>
        <path id="SimHei-34" d="M 2000 1100 
L 75 1100 
L 75 1525 
L 2100 4450 
L 2475 4450 
L 2475 1525 
L 3075 1525 
L 3075 1100 
L 2475 1100 
L 2475 150 
L 2000 150 
L 2000 1100 
z
M 2000 1525 
L 2000 3500 
L 600 1525 
L 2000 1525 
z
" transform="scale(0.015625)"/>
       </defs>
       <use xlink:href="#SimHei-32"/>
       <use xlink:href="#SimHei-30" transform="translate(50 0)"/>
       <use xlink:href="#SimHei-32" transform="translate(100 0)"/>
       <use xlink:href="#SimHei-35" transform="translate(150 0)"/>
       <use xlink:href="#SimHei-2d" transform="translate(200 0)"/>
       <use xlink:href="#SimHei-30" transform="translate(250 0)"/>
       <use xlink:href="#SimHei-37" transform="translate(300 0)"/>
       <use xlink:href="#SimHei-2d" transform="translate(350 0)"/>
       <use xlink:href="#SimHei-31" transform="translate(400 0)"/>
       <use xlink:href="#SimHei-34" transform="translate(450 0)"/>
      </g>
     </g>
    </g>
    <g id="xtick_4">
     <g id="line2d_4">
      <g>
       <use xlink:href="#m3db119e1a6" x="190.928286" y="467.6575" style="stroke: #000000; stroke-width: 0.8"/>
      </g>
     </g>
     <g id="text_4">
      <!-- 2025-07-22 -->
      <g transform="translate(178.377141 506.830859) rotate(-45) scale(0.08 -0.08)">
       <use xlink:href="#SimHei-32"/>
       <use xlink:href="#SimHei-30" transform="translate(50 0)"/>
       <use xlink:href="#SimHei-32" transform="translate(100 0)"/>
       <use xlink:href="#SimHei-35" transform="translate(150 0)"/>
       <use xlink:href="#SimHei-2d" transform="translate(200 0)"/>
       <use xlink:href="#SimHei-30" transform="translate(250 0)"/>
       <use xlink:href="#SimHei-37" transform="translate(300 0)"/>
       <use xlink:href="#SimHei-2d" transform="translate(350 0)"/>
       <use xlink:href="#SimHei-32" transform="translate(400 0)"/>
       <use xlink:href="#SimHei-32" transform="translate(450 0)"/>
      </g>
     </g>
    </g>
    <g id="xtick_5">
     <g id="line2d_5">
      <g>
       <use xlink:href="#m3db119e1a6" x="226.579984" y="467.6575" style="stroke: #000000; stroke-width: 0.8"/>
      </g>
     </g>
     <g id="text_5">
      <!-- 2025-07-31 -->
      <g transform="translate(214.028838 506.830859) rotate(-45) scale(0.08 -0.08)">
       <use xlink:href="#SimHei-32"/>
       <use xlink:href="#SimHei-30" transform="translate(50 0)"/>
       <use xlink:href="#SimHei-32" transform="translate(100 0)"/>
       <use xlink:href="#SimHei-35" transform="translate(150 0)"/>
       <use xlink:href="#SimHei-2d" transform="translate(200 0)"/>
       <use xlink:href="#SimHei-30" transform="translate(250 0)"/>
       <use xlink:href="#SimHei-37" transform="translate(300 0)"/>
       <use xlink:href="#SimHei-2d" transform="translate(350 0)"/>
       <use xlink:href="#SimHei-33" transform="translate(400 0)"/>
       <use xlink:href="#SimHei-31" transform="translate(450 0)"/>
      </g>
     </g>
    </g>
    <g id="xtick_6">
     <g id="line2d_6">
      <g>
       <use xlink:href="#m3db119e1a6" x="262.231681" y="467.6575" style="stroke: #000000; stroke-width: 0.8"/>
      </g>
     </g>
     <g id="text_6">
      <!-- 2025-08-08 -->
      <g transform="translate(249.680536 506.830859) rotate(-45) scale(0.08 -0.08)">
       <defs>
        <path id="SimHei-38" d="M 175 1375 
Q 175 1675 325 1962 
Q 475 2250 825 2425 
Q 525 2600 425 2812 
Q 325 3025 312 3300 
Q 300 3575 387 3775 
Q 475 3975 650 4150 
Q 825 4325 1037 4387 
Q 1250 4450 1500 4450 
Q 1750 4450 1950 4400 
Q 2150 4350 2375 4187 
Q 2600 4025 2700 3725 
Q 2800 3425 2687 3025 
Q 2575 2625 2100 2400 
Q 2525 2275 2700 2012 
Q 2875 1750 2875 1375 
Q 2875 1000 2762 775 
Q 2650 550 2512 400 
Q 2375 250 2137 162 
Q 1900 75 1537 75 
Q 1175 75 912 162 
Q 650 250 475 425 
Q 300 600 237 837 
Q 175 1075 175 1375 
z
M 687 1400 
Q 675 1100 787 875 
Q 900 650 1200 587 
Q 1500 525 1825 600 
Q 2150 675 2275 950 
Q 2400 1225 2362 1500 
Q 2325 1775 2050 1962 
Q 1775 2150 1450 2125 
Q 1125 2100 912 1900 
Q 700 1700 687 1400 
z
M 775 3350 
Q 775 3100 950 2875 
Q 1125 2650 1500 2650 
Q 1875 2650 2062 2875 
Q 2250 3100 2237 3412 
Q 2225 3725 2012 3875 
Q 1800 4025 1437 4000 
Q 1075 3975 925 3787 
Q 775 3600 775 3350 
z
" transform="scale(0.015625)"/>
       </defs>
       <use xlink:href="#SimHei-32"/>
       <use xlink:href="#SimHei-30" transform="translate(50 0)"/>
       <use xlink:href="#SimHei-32" transform="translate(100 0)"/>
       <use xlink:href="#SimHei-35" transform="translate(150 0)"/>
       <use xlink:href="#SimHei-2d" transform="translate(200 0)"/>
       <use xlink:href="#SimHei-30" transform="translate(250 0)"/>
       <use xlink:href="#SimHei-38" transform="translate(300 0)"/>
       <use xlink:href="#SimHei-2d" transform="translate(350 0)"/>
       <use xlink:href="#SimHei-30" transform="translate(400 0)"/>
       <use xlink:href="#SimHei-38" transform="translate(450 0)"/>
      </g>
     </g>
    </g>
    <g id="xtick_7">
     <g id="line2d_7">
      <g>
       <use xlink:href="#m3db119e1a6" x="297.883379" y="467.6575" style="stroke: #000000; stroke-width: 0.8"/>
      </g>
     </g>
     <g id="text_7">
      <!-- 2025-08-20 -->
      <g transform="translate(285.332234 506.830859) rotate(-45) scale(0.08 -0.08)">
       <use xlink:href="#SimHei-32"/>
       <use xlink:href="#SimHei-30" transform="translate(50 0)"/>
       <use xlink:href="#SimHei-32" transform="translate(100 0)"/>
       <use xlink:href="#SimHei-35" transform="translate(150 0)"/>
       <use xlink:href="#SimHei-2d" transform="translate(200 0)"/>
       <use xlink:href="#SimHei-30" transform="translate(250 0)"/>
       <use xlink:href="#SimHei-38" transform="translate(300 0)"/>
       <use xlink:href="#SimHei-2d" transform="translate(350 0)"/>
       <use xlink:href="#SimHei-32" transform="translate(400 0)"/>
       <use xlink:href="#SimHei-30" transform="translate(450 0)"/>
      </g>
     </g>
    </g>
    <g id="xtick_8">
     <g id="line2d_8">
      <g>
       <use xlink:href="#m3db119e1a6" x="333.535077" y="467.6575" style="stroke: #000000; stroke-width: 0.8"/>
      </g>
     </g>
     <g id="text_8">
      <!-- 2025-08-29 -->
      <g transform="translate(320.983931 506.830859) rotate(-45) scale(0.08 -0.08)">
       <defs>
        <path id="SimHei-39" d="M 800 75 
Q 1350 1000 1700 1750 
Q 1075 1650 662 1912 
Q 250 2175 162 2625 
Q 75 3075 175 3437 
Q 275 3800 487 4037 
Q 700 4275 1000 4375 
Q 1300 4475 1537 4475 
Q 1775 4475 2025 4375 
Q 2275 4275 2475 4075 
Q 2675 3875 2750 3662 
Q 2825 3450 2825 3112 
Q 2825 2775 2575 2250 
Q 2325 1725 1350 75 
L 800 75 
z
M 662 2875 
Q 700 2550 937 2337 
Q 1175 2125 1450 2150 
Q 1725 2175 1887 2300 
Q 2050 2425 2200 2725 
Q 2300 3100 2250 3362 
Q 2200 3625 1987 3800 
Q 1775 3975 1525 3975 
Q 1375 4000 1137 3900 
Q 900 3800 762 3500 
Q 625 3200 662 2875 
z
" transform="scale(0.015625)"/>
       </defs>
       <use xlink:href="#SimHei-32"/>
       <use xlink:href="#SimHei-30" transform="translate(50 0)"/>
       <use xlink:href="#SimHei-32" transform="translate(100 0)"/>
       <use xlink:href="#SimHei-35" transform="translate(150 0)"/>
       <use xlink:href="#SimHei-2d" transform="translate(200 0)"/>
       <use xlink:href="#SimHei-30" transform="translate(250 0)"/>
       <use xlink:href="#SimHei-38" transform="translate(300 0)"/>
       <use xlink:href="#SimHei-2d" transform="translate(350 0)"/>
       <use xlink:href="#SimHei-32" transform="translate(400 0)"/>
       <use xlink:href="#SimHei-39" transform="translate(450 0)"/>
      </g>
     </g>
    </g>
    <g id="xtick_9">
     <g id="line2d_9">
      <g>
       <use xlink:href="#m3db119e1a6" x="369.186774" y="467.6575" style="stroke: #000000; stroke-width: 0.8"/>
      </g>
     </g>
     <g id="text_9">
      <!-- 2025-09-08 -->
      <g transform="translate(356.635629 506.830859) rotate(-45) scale(0.08 -0.08)">
       <use xlink:href="#SimHei-32"/>
       <use xlink:href="#SimHei-30" transform="translate(50 0)"/>
       <use xlink:href="#SimHei-32" transform="translate(100 0)"/>
       <use xlink:href="#SimHei-35" transform="translate(150 0)"/>
       <use xlink:href="#SimHei-2d" transform="translate(200 0)"/>
       <use xlink:href="#SimHei-30" transform="translate(250 0)"/>
       <use xlink:href="#SimHei-39" transform="translate(300 0)"/>
       <use xlink:href="#SimHei-2d" transform="translate(350 0)"/>
       <use xlink:href="#SimHei-30" transform="translate(400 0)"/>
       <use xlink:href="#SimHei-38" transform="translate(450 0)"/>
      </g>
     </g>
    </g>
    <g id="xtick_10">
     <g id="line2d_10">
      <g>
       <use xlink:href="#m3db119e1a6" x="404.838472" y="467.6575" style="stroke: #000000; stroke-width: 0.8"/>
      </g>
     </g>
     <g id="text_10">
      <!-- 2025-09-16 -->
      <g transform="translate(392.287327 506.830859) rotate(-45) scale(0.08 -0.08)">
       <use xlink:href="#SimHei-32"/>
       <use xlink:href="#SimHei-30" transform="translate(50 0)"/>
       <use xlink:href="#SimHei-32" transform="translate(100 0)"/>
       <use xlink:href="#SimHei-35" transform="translate(150 0)"/>
       <use xlink:href="#SimHei-2d" transform="translate(200 0)"/>
       <use xlink:href="#SimHei-30" transform="translate(250 0)"/>
       <use xlink:href="#SimHei-39" transform="translate(300 0)"/>
       <use xlink:href="#SimHei-2d" transform="translate(350 0)"/>
       <use xlink:href="#SimHei-31" transform="translate(400 0)"/>
       <use xlink:href="#SimHei-36" transform="translate(450 0)"/>
      </g>
     </g>
    </g>
    <g id="xtick_11">
     <g id="line2d_11">
      <g>
       <use xlink:href="#m3db119e1a6" x="440.49017" y="467.6575" style="stroke: #000000; stroke-width: 0.8"/>
      </g>
     </g>
     <g id="text_11">
      <!-- 2025-09-25 -->
      <g transform="translate(427.939024 506.830859) rotate(-45) scale(0.08 -0.08)">
       <use xlink:href="#SimHei-32"/>
       <use xlink:href="#SimHei-30" transform="translate(50 0)"/>
       <use xlink:href="#SimHei-32" transform="translate(100 0)"/>
       <use xlink:href="#SimHei-35" transform="translate(150 0)"/>
       <use xlink:href="#SimHei-2d" transform="translate(200 0)"/>
       <use xlink:href="#SimHei-30" transform="translate(250 0)"/>
       <use xlink:href="#SimHei-39" transform="translate(300 0)"/>
       <use xlink:href="#SimHei-2d" transform="translate(350 0)"/>
       <use xlink:href="#SimHei-32" transform="translate(400 0)"/>
       <use xlink:href="#SimHei-35" transform="translate(450 0)"/>
      </g>
     </g>
    </g>
    <g id="xtick_12">
     <g id="line2d_12">
      <g>
       <use xlink:href="#m3db119e1a6" x="476.141867" y="467.6575" style="stroke: #000000; stroke-width: 0.8"/>
      </g>
     </g>
     <g id="text_12">
      <!-- 2025-10-13 -->
      <g transform="translate(463.590722 506.830859) rotate(-45) scale(0.08 -0.08)">
       <use xlink:href="#SimHei-32"/>
       <use xlink:href="#SimHei-30" transform="translate(50 0)"/>
       <use xlink:href="#SimHei-32" transform="translate(100 0)"/>
       <use xlink:href="#SimHei-35" transform="translate(150 0)"/>
       <use xlink:href="#SimHei-2d" transform="translate(200 0)"/>
       <use xlink:href="#SimHei-31" transform="translate(250 0)"/>
       <use xlink:href="#SimHei-30" transform="translate(300 0)"/>
       <use xlink:href="#SimHei-2d" transform="translate(350 0)"/>
       <use xlink:href="#SimHei-31" transform="translate(400 0)"/>
       <use xlink:href="#SimHei-33" transform="translate(450 0)"/>
      </g>
     </g>
    </g>
    <g id="xtick_13">
     <g id="line2d_13">
      <g>
       <use xlink:href="#m3db119e1a6" x="511.793565" y="467.6575" style="stroke: #000000; stroke-width: 0.8"/>
      </g>
     </g>
     <g id="text_13">
      <!-- 2025-10-24 -->
      <g transform="translate(499.24242 506.830859) rotate(-45) scale(0.08 -0.08)">
       <use xlink:href="#SimHei-32"/>
       <use xlink:href="#SimHei-30" transform="translate(50 0)"/>
       <use xlink:href="#SimHei-32" transform="translate(100 0)"/>
       <use xlink:href="#SimHei-35" transform="translate(150 0)"/>
       <use xlink:href="#SimHei-2d" transform="translate(200 0)"/>
       <use xlink:href="#SimHei-31" transform="translate(250 0)"/>
       <use xlink:href="#SimHei-30" transform="translate(300 0)"/>
       <use xlink:href="#SimHei-2d" transform="translate(350 0)"/>
       <use xlink:href="#SimHei-32" transform="translate(400 0)"/>
       <use xlink:href="#SimHei-34" transform="translate(450 0)"/>
      </g>
     </g>
    </g>
    <g id="xtick_14">
     <g id="line2d_14">
      <g>
       <use xlink:href="#m3db119e1a6" x="547.445263" y="467.6575" style="stroke: #000000; stroke-width: 0.8"/>
      </g>
     </g>
     <g id="text_14">
      <!-- 2025-10-31 -->
      <g transform="translate(534.894118 506.830859) rotate(-45) scale(0.08 -0.08)">
       <use xlink:href="#SimHei-32"/>
       <use xlink:href="#SimHei-30" transform="translate(50 0)"/>
       <use xlink:href="#SimHei-32" transform="translate(100 0)"/>
       <use xlink:href="#SimHei-35" transform="translate(150 0)"/>
       <use xlink:href="#SimHei-2d" transform="translate(200 0)"/>
       <use xlink:href="#SimHei-31" transform="translate(250 0)"/>
       <use xlink:href="#SimHei-30" transform="translate(300 0)"/>
       <use xlink:href="#SimHei-2d" transform="translate(350 0)"/>
       <use xlink:href="#SimHei-33" transform="translate(400 0)"/>
       <use xlink:href="#SimHei-31" transform="translate(450 0)"/>
      </g>
     </g>
    </g>
    <g id="xtick_15">
     <g id="line2d_15">
      <g>
       <use xlink:href="#m3db119e1a6" x="583.096961" y="467.6575" style="stroke: #000000; stroke-width: 0.8"/>
      </g>
     </g>
     <g id="text_15">
      <!-- 2025-11-11 -->
      <g transform="translate(570.545815 506.830859) rotate(-45) scale(0.08 -0.08)">
       <use xlink:href="#SimHei-32"/>
       <use xlink:href="#SimHei-30" transform="translate(50 0)"/>
       <use xlink:href="#SimHei-32" transform="translate(100 0)"/>
       <use xlink:href="#SimHei-35" transform="translate(150 0)"/>
       <use xlink:href="#SimHei-2d" transform="translate(200 0)"/>
       <use xlink:href="#SimHei-31" transform="translate(250 0)"/>
       <use xlink:href="#SimHei-31" transform="translate(300 0)"/>
       <use xlink:href="#SimHei-2d" transform="translate(350 0)"/>
       <use xlink:href="#SimHei-31" transform="translate(400 0)"/>
       <use xlink:href="#SimHei-31" transform="translate(450 0)"/>
      </g>
     </g>
    </g>
    <g id="xtick_16">
     <g id="line2d_16">
      <g>
       <use xlink:href="#m3db119e1a6" x="618.748658" y="467.6575" style="stroke: #000000; stroke-width: 0.8"/>
      </g>
     </g>
     <g id="text_16">
      <!-- 2025-11-20 -->
      <g transform="translate(606.197513 506.830859) rotate(-45) scale(0.08 -0.08)">
       <use xlink:href="#SimHei-32"/>
       <use xlink:href="#SimHei-30" transform="translate(50 0)"/>
       <use xlink:href="#SimHei-32" transform="translate(100 0)"/>
       <use xlink:href="#SimHei-35" transform="translate(150 0)"/>
       <use xlink:href="#SimHei-2d" transform="translate(200 0)"/>
       <use xlink:href="#SimHei-31" transform="translate(250 0)"/>
       <use xlink:href="#SimHei-31" transform="translate(300 0)"/>
       <use xlink:href="#SimHei-2d" transform="translate(350 0)"/>
       <use xlink:href="#SimHei-32" transform="translate(400 0)"/>
       <use xlink:href="#SimHei-30" transform="translate(450 0)"/>
      </g>
     </g>
    </g>
    <g id="xtick_17">
     <g id="line2d_17">
      <g>
       <use xlink:href="#m3db119e1a6" x="654.400356" y="467.6575" style="stroke: #000000; stroke-width: 0.8"/>
      </g>
     </g>
     <g id="text_17">
      <!-- 2025-11-27 -->
      <g transform="translate(641.849211 506.830859) rotate(-45) scale(0.08 -0.08)">
       <use xlink:href="#SimHei-32"/>
       <use xlink:href="#SimHei-30" transform="translate(50 0)"/>
       <use xlink:href="#SimHei-32" transform="translate(100 0)"/>
       <use xlink:href="#SimHei-35" transform="translate(150 0)"/>
       <use xlink:href="#SimHei-2d" transform="translate(200 0)"/>
       <use xlink:href="#SimHei-31" transform="translate(250 0)"/>
       <use xlink:href="#SimHei-31" transform="translate(300 0)"/>
       <use xlink:href="#SimHei-2d" transform="translate(350 0)"/>
       <use xlink:href="#SimHei-32" transform="translate(400 0)"/>
       <use xlink:href="#SimHei-37" transform="translate(450 0)"/>
      </g>
     </g>
    </g>
    <g id="xtick_18">
     <g id="line2d_18">
      <g>
       <use xlink:href="#m3db119e1a6" x="690.052054" y="467.6575" style="stroke: #000000; stroke-width: 0.8"/>
      </g>
     </g>
     <g id="text_18">
      <!-- 2025-12-04 -->
      <g transform="translate(677.500908 506.830859) rotate(-45) scale(0.08 -0.08)">
       <use xlink:href="#SimHei-32"/>
       <use xlink:href="#SimHei-30" transform="translate(50 0)"/>
       <use xlink:href="#SimHei-32" transform="translate(100 0)"/>
       <use xlink:href="#SimHei-35" transform="translate(150 0)"/>
       <use xlink:href="#SimHei-2d" transform="translate(200 0)"/>
       <use xlink:href="#SimHei-31" transform="translate(250 0)"/>
       <use xlink:href="#SimHei-32" transform="translate(300 0)"/>
       <use xlink:href="#SimHei-2d" transform="translate(350 0)"/>
       <use xlink:href="#SimHei-30" transform="translate(400 0)"/>
       <use xlink:href="#SimHei-34" transform="translate(450 0)"/>
      </g>
     </g>
    </g>
    <g id="xtick_19">
     <g id="line2d_19">
      <g>
       <use xlink:href="#m3db119e1a6" x="725.703751" y="467.6575" style="stroke: #000000; stroke-width: 0.8"/>
      </g>
     </g>
     <g id="text_19">
      <!-- 2025-12-15 -->
      <g transform="translate(713.152606 506.830859) rotate(-45) scale(0.08 -0.08)">
       <use xlink:href="#SimHei-32"/>
       <use xlink:href="#SimHei-30" transform="translate(50 0)"/>
       <use xlink:href="#SimHei-32" transform="translate(100 0)"/>
       <use xlink:href="#SimHei-35" transform="translate(150 0)"/>
       <use xlink:href="#SimHei-2d" transform="translate(200 0)"/>
       <use xlink:href="#SimHei-31" transform="translate(250 0)"/>
       <use xlink:href="#SimHei-32" transform="translate(300 0)"/>
       <use xlink:href="#SimHei-2d" transform="translate(350 0)"/>
       <use xlink:href="#SimHei-31" transform="translate(400 0)"/>
       <use xlink:href="#SimHei-35" transform="translate(450 0)"/>
      </g>
     </g>
    </g>
    <g id="xtick_20">
     <g id="line2d_20">
      <g>
       <use xlink:href="#m3db119e1a6" x="761.355449" y="467.6575" style="stroke: #000000; stroke-width: 0.8"/>
      </g>
     </g>
     <g id="text_20">
      <!-- 2025-12-22 -->
      <g transform="translate(748.804304 506.830859) rotate(-45) scale(0.08 -0.08)">
       <use xlink:href="#SimHei-32"/>
       <use xlink:href="#SimHei-30" transform="translate(50 0)"/>
       <use xlink:href="#SimHei-32" transform="translate(100 0)"/>
       <use xlink:href="#SimHei-35" transform="translate(150 0)"/>
       <use xlink:href="#SimHei-2d" transform="translate(200 0)"/>
       <use xlink:href="#SimHei-31" transform="translate(250 0)"/>
       <use xlink:href="#SimHei-32" transform="translate(300 0)"/>
       <use xlink:href="#SimHei-2d" transform="translate(350 0)"/>
       <use xlink:href="#SimHei-32" transform="translate(400 0)"/>
       <use xlink:href="#SimHei-32" transform="translate(450 0)"/>
      </g>
     </g>
    </g>
   </g>
   <g id="matplotlib.axis_2">
    <g id="ytick_1">
     <g id="line2d_21">
      <defs>
       <path id="m5876c8096b" d="M 0 0 
L -3.5 0 
" style="stroke: #000000; stroke-width: 0.8"/>
      </defs>
      <g>
       <use xlink:href="#m5876c8096b" x="46.325" y="451.420151" style="stroke: #000000; stroke-width: 0.8"/>
      </g>
     </g>
     <g id="text_21">
      <!-- 5200 -->
      <g transform="translate(19.325 454.857651) scale(0.1 -0.1)">
       <use xlink:href="#SimHei-35"/>
       <use xlink:href="#SimHei-32" transform="translate(50 0)"/>
       <use xlink:href="#SimHei-30" transform="translate(100 0)"/>
       <use xlink:href="#SimHei-30" transform="translate(150 0)"/>
      </g>
     </g>
    </g>
    <g id="ytick_2">
     <g id="line2d_22">
      <g>
       <use xlink:href="#m5876c8096b" x="46.325" y="386.712361" style="stroke: #000000; stroke-width: 0.8"/>
      </g>
     </g>
     <g id="text_22">
      <!-- 5400 -->
      <g transform="translate(19.325 390.149861) scale(0.1 -0.1)">
       <use xlink:href="#SimHei-35"/>
       <use xlink:href="#SimHei-34" transform="translate(50 0)"/>
       <use xlink:href="#SimHei-30" transform="translate(100 0)"/>
       <use xlink:href="#SimHei-30" transform="translate(150 0)"/>
      </g>
     </g>
    </g>
    <g id="ytick_3">
     <g id="line2d_23">
      <g>
       <use xlink:href="#m5876c8096b" x="46.325" y="322.00457" style="stroke: #000000; stroke-width: 0.8"/>
      </g>
     </g>
     <g id="text_23">
      <!-- 5600 -->
      <g transform="translate(19.325 325.44207) scale(0.1 -0.1)">
       <use xlink:href="#SimHei-35"/>
       <use xlink:href="#SimHei-36" transform="translate(50 0)"/>
       <use xlink:href="#SimHei-30" transform="translate(100 0)"/>
       <use xlink:href="#SimHei-30" transform="translate(150 0)"/>
      </g>
     </g>
    </g>
    <g id="ytick_4">
     <g id="line2d_24">
      <g>
       <use xlink:href="#m5876c8096b" x="46.325" y="257.29678" style="stroke: #000000; stroke-width: 0.8"/>
      </g>
     </g>
     <g id="text_24">
      <!-- 5800 -->
      <g transform="translate(19.325 260.73428) scale(0.1 -0.1)">
       <use xlink:href="#SimHei-35"/>
       <use xlink:href="#SimHei-38" transform="translate(50 0)"/>
       <use xlink:href="#SimHei-30" transform="translate(100 0)"/>
       <use xlink:href="#SimHei-30" transform="translate(150 0)"/>
      </g>
     </g>
    </g>
    <g id="ytick_5">
     <g id="line2d_25">
      <g>
       <use xlink:href="#m5876c8096b" x="46.325" y="192.58899" style="stroke: #000000; stroke-width: 0.8"/>
      </g>
     </g>
     <g id="text_25">
      <!-- 6000 -->
      <g transform="translate(19.325 196.02649) scale(0.1 -0.1)">
       <use xlink:href="#SimHei-36"/>
       <use xlink:href="#SimHei-30" transform="translate(50 0)"/>
       <use xlink:href="#SimHei-30" transform="translate(100 0)"/>
       <use xlink:href="#SimHei-30" transform="translate(150 0)"/>
      </g>
     </g>
    </g>
    <g id="ytick_6">
     <g id="line2d_26">
      <g>
       <use xlink:href="#m5876c8096b" x="46.325" y="127.8812" style="stroke: #000000; stroke-width: 0.8"/>
      </g>
     </g>
     <g id="text_26">
      <!-- 6200 -->
      <g transform="translate(19.325 131.3187) scale(0.1 -0.1)">
       <use xlink:href="#SimHei-36"/>
       <use xlink:href="#SimHei-32" transform="translate(50 0)"/>
       <use xlink:href="#SimHei-30" transform="translate(100 0)"/>
       <use xlink:href="#SimHei-30" transform="translate(150 0)"/>
      </g>
     </g>
    </g>
    <g id="ytick_7">
     <g id="line2d_27">
      <g>
       <use xlink:href="#m5876c8096b" x="46.325" y="63.173409" style="stroke: #000000; stroke-width: 0.8"/>
      </g>
     </g>
     <g id="text_27">
      <!-- 6400 -->
      <g transform="translate(19.325 66.610909) scale(0.1 -0.1)">
       <use xlink:href="#SimHei-36"/>
       <use xlink:href="#SimHei-34" transform="translate(50 0)"/>
       <use xlink:href="#SimHei-30" transform="translate(100 0)"/>
       <use xlink:href="#SimHei-30" transform="translate(150 0)"/>
      </g>
     </g>
    </g>
    <g id="text_28">
     <!-- Price -->
     <g transform="translate(14.075 258.3975) rotate(-90) scale(0.1 -0.1)">
      <defs>
       <path id="SimHei-50" d="M 2950 3100 
Q 2950 2500 2600 2150 
Q 2250 1800 1625 1800 
L 900 1800 
L 900 125 
L 325 125 
L 325 4400 
L 1625 4400 
Q 2250 4400 2600 4050 
Q 2950 3700 2950 3100 
z
M 2375 3100 
Q 2375 3575 2150 3750 
Q 1925 3925 1475 3925 
L 900 3925 
L 900 2275 
L 1475 2275 
Q 1925 2275 2150 2450 
Q 2375 2625 2375 3100 
z
" transform="scale(0.015625)"/>
       <path id="SimHei-72" d="M 2500 2425 
Q 2025 2500 1700 2287 
Q 1375 2075 1150 1550 
L 1150 125 
L 650 125 
L 650 2925 
L 1150 2925 
L 1150 2200 
Q 1375 2600 1712 2787 
Q 2050 2975 2500 2975 
L 2500 2425 
z
" transform="scale(0.015625)"/>
       <path id="SimHei-69" d="M 1800 3725 
L 1300 3725 
L 1300 4375 
L 1800 4375 
L 1800 3725 
z
M 1800 125 
L 1300 125 
L 1300 2925 
L 1800 2925 
L 1800 125 
z
" transform="scale(0.015625)"/>
       <path id="SimHei-63" d="M 2850 1250 
Q 2850 725 2487 400 
Q 2125 75 1575 75 
Q 1025 75 625 462 
Q 225 850 225 1525 
Q 225 2200 625 2587 
Q 1025 2975 1575 2975 
Q 2125 2975 2450 2687 
Q 2775 2400 2775 2000 
L 2225 2000 
Q 2200 2300 2012 2412 
Q 1825 2525 1575 2525 
Q 1275 2525 1025 2287 
Q 775 2050 775 1525 
Q 775 1000 1025 762 
Q 1275 525 1575 525 
Q 1900 525 2100 700 
Q 2300 875 2300 1250 
L 2850 1250 
z
" transform="scale(0.015625)"/>
       <path id="SimHei-65" d="M 2850 1075 
Q 2800 625 2450 350 
Q 2100 75 1625 75 
Q 1025 75 637 462 
Q 250 850 250 1525 
Q 250 2200 637 2587 
Q 1025 2975 1625 2975 
Q 2150 2975 2487 2637 
Q 2825 2300 2825 1525 
L 800 1525 
Q 800 975 1037 750 
Q 1275 525 1625 525 
Q 1900 525 2075 662 
Q 2250 800 2300 1075 
L 2850 1075 
z
M 2250 1925 
Q 2200 2275 2025 2412 
Q 1850 2550 1575 2550 
Q 1325 2550 1125 2412 
Q 925 2275 825 1925 
L 2250 1925 
z
" transform="scale(0.015625)"/>
      </defs>
      <use xlink:href="#SimHei-50"/>
      <use xlink:href="#SimHei-72" transform="translate(50 0)"/>
      <use xlink:href="#SimHei-69" transform="translate(100 0)"/>
      <use xlink:href="#SimHei-63" transform="translate(150 0)"/>
      <use xlink:href="#SimHei-65" transform="translate(200 0)"/>
     </g>
    </g>
   </g>
   <g id="line2d_28">
    <path d="M 633.009337 188.789025 
L 704.312733 83.693382 
" clip-path="url(#p84ff2439fc)" style="fill: none; stroke: #800080; stroke-opacity: 0.8; stroke-width: 1.5; stroke-linecap: square"/>
   </g>
   <g id="patch_203">
    <path d="M 46.325 467.6575 
L 46.325 24.1375 
" style="fill: none; stroke: #000000; stroke-width: 0.8; stroke-linejoin: miter; stroke-linecap: square"/>
   </g>
   <g id="patch_204">
    <path d="M 827.525 467.6575 
L 827.525 24.1375 
" style="fill: none; stroke: #000000; stroke-width: 0.8; stroke-linejoin: miter; stroke-linecap: square"/>
   </g>
   <g id="patch_205">
    <path d="M 46.325 467.6575 
L 827.525 467.6575 
" style="fill: none; stroke: #000000; stroke-width: 0.8; stroke-linejoin: miter; stroke-linecap: square"/>
   </g>
   <g id="patch_206">
    <path d="M 46.325 24.1375 
L 827.525 24.1375 
" style="fill: none; stroke: #000000; stroke-width: 0.8; stroke-linejoin: miter; stroke-linecap: square"/>
   </g>
   <g id="text_29">
    <!-- Tx -->
    <g style="fill: #808080" transform="translate(107.503313 407.185488) scale(0.08 -0.08)">
     <defs>
      <path id="SimHei-54" d="M 2850 3925 
L 1850 3925 
L 1850 125 
L 1275 125 
L 1275 3925 
L 275 3925 
L 275 4400 
L 2850 4400 
L 2850 3925 
z
" transform="scale(0.015625)"/>
      <path id="SimHei-78" d="M 2875 125 
L 2275 125 
L 1550 1200 
L 825 125 
L 225 125 
L 1250 1550 
L 300 2925 
L 900 2925 
L 1550 1875 
L 2200 2925 
L 2800 2925 
L 1850 1550 
L 2875 125 
z
" transform="scale(0.015625)"/>
     </defs>
     <use xlink:href="#SimHei-54"/>
     <use xlink:href="#SimHei-78" transform="translate(50 0)"/>
    </g>
   </g>
   <g id="text_30">
    <!-- Bx -->
    <g style="fill: #808080" transform="translate(114.633653 424.152269) scale(0.08 -0.08)">
     <defs>
      <path id="SimHei-42" d="M 2950 1400 
Q 2950 675 2550 400 
Q 2150 125 1525 125 
L 275 125 
L 275 4400 
L 1575 4400 
Q 2200 4400 2512 4075 
Q 2825 3750 2825 3300 
Q 2825 2850 2612 2637 
Q 2400 2425 2175 2350 
Q 2475 2275 2712 2037 
Q 2950 1800 2950 1400 
z
M 2250 3300 
Q 2250 3625 2062 3775 
Q 1875 3925 1600 3925 
L 850 3925 
L 850 2600 
L 1575 2600 
Q 1850 2600 2050 2762 
Q 2250 2925 2250 3300 
z
M 2350 1400 
Q 2350 1800 2087 1962 
Q 1825 2125 1500 2125 
L 850 2125 
L 850 600 
L 1425 600 
Q 1875 600 2112 775 
Q 2350 950 2350 1400 
z
" transform="scale(0.015625)"/>
     </defs>
     <use xlink:href="#SimHei-42"/>
     <use xlink:href="#SimHei-78" transform="translate(50 0)"/>
    </g>
   </g>
   <g id="text_31">
    <!-- Tx -->
    <g style="fill: #808080" transform="translate(157.41569 364.842281) scale(0.08 -0.08)">
     <use xlink:href="#SimHei-54"/>
     <use xlink:href="#SimHei-78" transform="translate(50 0)"/>
    </g>
   </g>
   <g id="text_32">
    <!-- Tx -->
    <g style="fill: #808080" transform="translate(221.588746 292.804673) scale(0.08 -0.08)">
     <use xlink:href="#SimHei-54"/>
     <use xlink:href="#SimHei-78" transform="translate(50 0)"/>
    </g>
   </g>
   <g id="text_33">
    <!-- Tx -->
    <g style="fill: #808080" transform="translate(321.413499 117.904063) scale(0.08 -0.08)">
     <use xlink:href="#SimHei-54"/>
     <use xlink:href="#SimHei-78" transform="translate(50 0)"/>
    </g>
   </g>
   <g id="text_34">
    <!-- Tx -->
    <g style="fill: #808080" transform="translate(342.804518 117.487414) scale(0.08 -0.08)">
     <use xlink:href="#SimHei-54"/>
     <use xlink:href="#SimHei-78" transform="translate(50 0)"/>
    </g>
   </g>
   <g id="text_35">
    <!-- Bx -->
    <g style="fill: #808080" transform="translate(385.586555 181.644101) scale(0.08 -0.08)">
     <use xlink:href="#SimHei-42"/>
     <use xlink:href="#SimHei-78" transform="translate(50 0)"/>
    </g>
   </g>
   <g id="text_36">
    <!-- Tx -->
    <g style="fill: #808080" transform="translate(399.847234 104.856971) scale(0.08 -0.08)">
     <use xlink:href="#SimHei-54"/>
     <use xlink:href="#SimHei-78" transform="translate(50 0)"/>
    </g>
   </g>
   <g id="text_37">
    <!-- Tx -->
    <g style="fill: #808080" transform="translate(414.107913 77.178517) scale(0.08 -0.08)">
     <use xlink:href="#SimHei-54"/>
     <use xlink:href="#SimHei-78" transform="translate(50 0)"/>
    </g>
   </g>
   <g id="text_38">
    <!-- Bx -->
    <g style="fill: #808080" transform="translate(449.759611 128.456448) scale(0.08 -0.08)">
     <use xlink:href="#SimHei-42"/>
     <use xlink:href="#SimHei-78" transform="translate(50 0)"/>
    </g>
   </g>
   <g id="text_39">
    <!-- Tx -->
    <g style="fill: #808080" transform="translate(464.02029 45.602896) scale(0.08 -0.08)">
     <use xlink:href="#SimHei-54"/>
     <use xlink:href="#SimHei-78" transform="translate(50 0)"/>
    </g>
   </g>
   <g id="text_40">
    <!-- Bx -->
    <g style="fill: #808080" transform="translate(492.541648 139.844231) scale(0.08 -0.08)">
     <use xlink:href="#SimHei-42"/>
     <use xlink:href="#SimHei-78" transform="translate(50 0)"/>
    </g>
   </g>
   <g id="text_41">
    <!-- Tx -->
    <g style="fill: #808080" transform="translate(499.671988 88.468039) scale(0.08 -0.08)">
     <use xlink:href="#SimHei-54"/>
     <use xlink:href="#SimHei-78" transform="translate(50 0)"/>
    </g>
   </g>
   <g id="text_42">
    <!-- Tx -->
    <g style="fill: #808080" transform="translate(542.454025 45.52193) scale(0.08 -0.08)">
     <use xlink:href="#SimHei-54"/>
     <use xlink:href="#SimHei-78" transform="translate(50 0)"/>
    </g>
   </g>
   <g id="text_43">
    <!-- Bx -->
    <g style="fill: #808080" transform="translate(592.366402 96.006557) scale(0.08 -0.08)">
     <use xlink:href="#SimHei-42"/>
     <use xlink:href="#SimHei-78" transform="translate(50 0)"/>
    </g>
   </g>
   <g id="text_44">
    <!-- T 6438.98 -->
    <g transform="translate(599.496742 48.479863) scale(0.08 -0.08)">
     <defs>
      <path id="SimHei-20" transform="scale(0.015625)"/>
      <path id="SimHei-2e" d="M 1075 125 
L 500 125 
L 500 675 
L 1075 675 
L 1075 125 
z
" transform="scale(0.015625)"/>
     </defs>
     <use xlink:href="#SimHei-54"/>
     <use xlink:href="#SimHei-20" transform="translate(50 0)"/>
     <use xlink:href="#SimHei-36" transform="translate(100 0)"/>
     <use xlink:href="#SimHei-34" transform="translate(150 0)"/>
     <use xlink:href="#SimHei-33" transform="translate(200 0)"/>
     <use xlink:href="#SimHei-38" transform="translate(250 0)"/>
     <use xlink:href="#SimHei-2e" transform="translate(300 0)"/>
     <use xlink:href="#SimHei-39" transform="translate(350 0)"/>
     <use xlink:href="#SimHei-38" transform="translate(400 0)"/>
    </g>
   </g>
   <g id="text_45">
    <!-- B 6011.74 -->
    <g style="fill: #0000ff" transform="translate(635.148439 192.679092) scale(0.08 -0.08)">
     <use xlink:href="#SimHei-42"/>
     <use xlink:href="#SimHei-20" transform="translate(50 0)"/>
     <use xlink:href="#SimHei-36" transform="translate(100 0)"/>
     <use xlink:href="#SimHei-30" transform="translate(150 0)"/>
     <use xlink:href="#SimHei-31" transform="translate(200 0)"/>
     <use xlink:href="#SimHei-31" transform="translate(250 0)"/>
     <use xlink:href="#SimHei-2e" transform="translate(300 0)"/>
     <use xlink:href="#SimHei-37" transform="translate(350 0)"/>
     <use xlink:href="#SimHei-34" transform="translate(400 0)"/>
    </g>
   </g>
   <g id="text_46">
    <!-- Tx -->
    <g style="fill: #808080" transform="translate(656.539458 120.574633) scale(0.08 -0.08)">
     <use xlink:href="#SimHei-54"/>
     <use xlink:href="#SimHei-78" transform="translate(50 0)"/>
    </g>
   </g>
   <g id="text_47">
    <!-- Tx -->
    <g style="fill: #808080" transform="translate(670.800137 104.886443) scale(0.08 -0.08)">
     <use xlink:href="#SimHei-54"/>
     <use xlink:href="#SimHei-78" transform="translate(50 0)"/>
    </g>
   </g>
   <g id="text_48">
    <!-- Bx -->
    <g style="fill: #808080" transform="translate(692.191156 151.631786) scale(0.08 -0.08)">
     <use xlink:href="#SimHei-42"/>
     <use xlink:href="#SimHei-78" transform="translate(50 0)"/>
    </g>
   </g>
   <g id="text_49">
    <!-- T 6336.58 -->
    <g transform="translate(706.451835 81.643253) scale(0.08 -0.08)">
     <use xlink:href="#SimHei-54"/>
     <use xlink:href="#SimHei-20" transform="translate(50 0)"/>
     <use xlink:href="#SimHei-36" transform="translate(100 0)"/>
     <use xlink:href="#SimHei-33" transform="translate(150 0)"/>
     <use xlink:href="#SimHei-33" transform="translate(200 0)"/>
     <use xlink:href="#SimHei-36" transform="translate(250 0)"/>
     <use xlink:href="#SimHei-2e" transform="translate(300 0)"/>
     <use xlink:href="#SimHei-35" transform="translate(350 0)"/>
     <use xlink:href="#SimHei-38" transform="translate(400 0)"/>
    </g>
   </g>
   <g id="text_50">
    <!-- B 6113.24 -->
    <g style="fill: #0000ff" transform="translate(734.973193 159.906794) scale(0.08 -0.08)">
     <use xlink:href="#SimHei-42"/>
     <use xlink:href="#SimHei-20" transform="translate(50 0)"/>
     <use xlink:href="#SimHei-36" transform="translate(100 0)"/>
     <use xlink:href="#SimHei-31" transform="translate(150 0)"/>
     <use xlink:href="#SimHei-31" transform="translate(200 0)"/>
     <use xlink:href="#SimHei-33" transform="translate(250 0)"/>
     <use xlink:href="#SimHei-2e" transform="translate(300 0)"/>
     <use xlink:href="#SimHei-32" transform="translate(350 0)"/>
     <use xlink:href="#SimHei-34" transform="translate(400 0)"/>
    </g>
   </g>
   <g id="text_51">
    <!-- Stroke Identification (Bill Williams / Chan Theory) -->
    <g transform="translate(258.425 18.1375) scale(0.14 -0.14)">
     <defs>
      <path id="SimHei-53" d="M 2900 1325 
Q 2900 750 2537 412 
Q 2175 75 1550 75 
Q 925 75 575 425 
Q 225 775 225 1300 
L 225 1475 
L 800 1475 
L 800 1325 
Q 800 950 1025 750 
Q 1250 550 1550 550 
Q 1950 550 2137 762 
Q 2325 975 2325 1275 
Q 2325 1525 2100 1737 
Q 1875 1950 1450 2125 
Q 850 2350 587 2625 
Q 325 2900 325 3275 
Q 325 3800 687 4125 
Q 1050 4450 1550 4450 
Q 2200 4450 2487 4062 
Q 2775 3675 2775 3225 
L 2200 3225 
Q 2225 3500 2050 3725 
Q 1875 3950 1550 3950 
Q 1250 3950 1075 3787 
Q 900 3625 900 3350 
Q 900 3125 1037 2962 
Q 1175 2800 1750 2575 
Q 2300 2350 2600 2037 
Q 2900 1725 2900 1325 
z
" transform="scale(0.015625)"/>
      <path id="SimHei-74" d="M 2750 200 
Q 2625 150 2462 112 
Q 2300 75 2025 75 
Q 1575 75 1300 325 
Q 1025 575 1025 1025 
L 1025 2525 
L 175 2525 
L 175 2925 
L 1025 2925 
L 1025 3900 
L 1525 3900 
L 1525 2925 
L 2550 2925 
L 2550 2525 
L 1525 2525 
L 1525 1000 
Q 1525 800 1625 662 
Q 1725 525 2000 525 
Q 2275 525 2450 575 
Q 2625 625 2750 700 
L 2750 200 
z
" transform="scale(0.015625)"/>
      <path id="SimHei-6f" d="M 2925 1525 
Q 2925 875 2525 475 
Q 2125 75 1575 75 
Q 1025 75 625 475 
Q 225 875 225 1525 
Q 225 2175 625 2575 
Q 1025 2975 1575 2975 
Q 2125 2975 2525 2575 
Q 2925 2175 2925 1525 
z
M 2375 1525 
Q 2375 2025 2125 2275 
Q 1875 2525 1575 2525 
Q 1275 2525 1025 2275 
Q 775 2025 775 1525 
Q 775 1025 1025 775 
Q 1275 525 1575 525 
Q 1875 525 2125 775 
Q 2375 1025 2375 1525 
z
" transform="scale(0.015625)"/>
      <path id="SimHei-6b" d="M 2925 125 
L 2350 125 
L 1450 1650 
L 875 1100 
L 875 125 
L 375 125 
L 375 4400 
L 875 4400 
L 875 1675 
L 2125 2925 
L 2750 2925 
L 1775 1975 
L 2925 125 
z
" transform="scale(0.015625)"/>
      <path id="SimHei-49" d="M 1850 125 
L 1275 125 
L 1275 4400 
L 1850 4400 
L 1850 125 
z
" transform="scale(0.015625)"/>
      <path id="SimHei-64" d="M 2750 125 
L 2250 125 
L 2250 500 
Q 2100 275 1900 175 
Q 1700 75 1425 75 
Q 925 75 575 437 
Q 225 800 225 1525 
Q 225 2250 575 2625 
Q 925 3000 1425 3000 
Q 1700 3000 1900 2887 
Q 2100 2775 2250 2550 
L 2250 4400 
L 2750 4400 
L 2750 125 
z
M 2250 1525 
Q 2250 2000 2037 2275 
Q 1825 2550 1525 2550 
Q 1150 2550 962 2275 
Q 775 2000 775 1525 
Q 775 1050 962 787 
Q 1150 525 1525 525 
Q 1825 525 2037 787 
Q 2250 1050 2250 1525 
z
" transform="scale(0.015625)"/>
      <path id="SimHei-6e" d="M 2800 125 
L 2300 125 
L 2300 1925 
Q 2300 2225 2150 2400 
Q 2000 2575 1750 2575 
Q 1425 2575 1137 2237 
Q 850 1900 850 1400 
L 850 125 
L 350 125 
L 350 2925 
L 850 2925 
L 850 2400 
Q 1050 2675 1287 2825 
Q 1525 2975 1900 2975 
Q 2350 2975 2575 2725 
Q 2800 2475 2800 2100 
L 2800 125 
z
" transform="scale(0.015625)"/>
      <path id="SimHei-66" d="M 2850 3825 
Q 2725 3900 2550 3950 
Q 2375 4000 2100 4000 
Q 1825 4000 1725 3862 
Q 1625 3725 1625 3525 
L 1625 2925 
L 2650 2925 
L 2650 2525 
L 1625 2525 
L 1625 125 
L 1125 125 
L 1125 2525 
L 275 2525 
L 275 2925 
L 1125 2925 
L 1125 3500 
Q 1125 3950 1400 4200 
Q 1675 4450 2125 4450 
Q 2400 4450 2562 4412 
Q 2725 4375 2850 4325 
L 2850 3825 
z
" transform="scale(0.015625)"/>
      <path id="SimHei-61" d="M 2875 125 
L 2275 125 
Q 2225 175 2200 262 
Q 2175 350 2175 475 
Q 2000 275 1750 175 
Q 1500 75 1225 75 
Q 825 75 550 275 
Q 275 475 275 850 
Q 275 1225 525 1450 
Q 775 1675 1300 1750 
Q 1650 1800 1912 1875 
Q 2175 1950 2175 2075 
Q 2175 2225 2062 2375 
Q 1950 2525 1575 2525 
Q 1275 2525 1137 2412 
Q 1000 2300 950 2100 
L 400 2100 
Q 450 2500 762 2737 
Q 1075 2975 1575 2975 
Q 2125 2975 2400 2725 
Q 2675 2475 2675 2025 
L 2675 650 
Q 2675 500 2725 375 
Q 2775 250 2875 125 
z
M 2175 1050 
L 2175 1550 
Q 2025 1500 1887 1462 
Q 1750 1425 1425 1375 
Q 1050 1325 937 1200 
Q 825 1075 825 900 
Q 825 750 937 637 
Q 1050 525 1275 525 
Q 1500 525 1762 650 
Q 2025 775 2175 1050 
z
" transform="scale(0.015625)"/>
      <path id="SimHei-28" d="M 2975 -200 
L 2700 -475 
Q 2075 125 1762 775 
Q 1450 1425 1450 2250 
Q 1450 3075 1762 3725 
Q 2075 4375 2700 5000 
L 2975 4725 
Q 2400 4175 2112 3587 
Q 1825 3000 1825 2250 
Q 1825 1500 2112 912 
Q 2400 325 2975 -200 
z
" transform="scale(0.015625)"/>
      <path id="SimHei-6c" d="M 1825 125 
L 1325 125 
L 1325 4400 
L 1825 4400 
L 1825 125 
z
" transform="scale(0.015625)"/>
      <path id="SimHei-57" d="M 3075 4400 
L 2525 75 
L 2025 75 
L 1575 3275 
L 1525 3275 
L 1075 75 
L 575 75 
L 25 4400 
L 575 4400 
L 850 1675 
L 900 1675 
L 1275 4400 
L 1825 4400 
L 2200 1675 
L 2250 1675 
L 2525 4400 
L 3075 4400 
z
" transform="scale(0.015625)"/>
      <path id="SimHei-6d" d="M 3050 125 
L 2550 125 
L 2550 2150 
Q 2550 2300 2500 2400 
Q 2450 2500 2300 2500 
Q 2125 2500 1975 2312 
Q 1825 2125 1825 1825 
L 1825 125 
L 1325 125 
L 1325 2150 
Q 1325 2300 1275 2400 
Q 1225 2500 1075 2500 
Q 900 2500 750 2312 
Q 600 2125 600 1825 
L 600 125 
L 100 125 
L 100 2925 
L 600 2925 
L 600 2550 
Q 725 2750 900 2862 
Q 1075 2975 1275 2975 
Q 1475 2975 1612 2862 
Q 1750 2750 1800 2550 
Q 1925 2750 2087 2862 
Q 2250 2975 2450 2975 
Q 2750 2975 2900 2812 
Q 3050 2650 3050 2350 
L 3050 125 
z
" transform="scale(0.015625)"/>
      <path id="SimHei-73" d="M 2750 900 
Q 2750 500 2437 287 
Q 2125 75 1650 75 
Q 1050 75 725 312 
Q 400 550 400 1000 
L 900 1000 
Q 900 700 1112 600 
Q 1325 500 1625 500 
Q 1925 500 2075 612 
Q 2225 725 2225 900 
Q 2225 1025 2100 1150 
Q 1975 1275 1475 1350 
Q 900 1425 687 1637 
Q 475 1850 475 2200 
Q 475 2500 762 2737 
Q 1050 2975 1600 2975 
Q 2100 2975 2387 2750 
Q 2675 2525 2675 2150 
L 2175 2150 
Q 2175 2375 2012 2462 
Q 1850 2550 1600 2550 
Q 1275 2550 1137 2437 
Q 1000 2325 1000 2175 
Q 1000 2000 1125 1900 
Q 1250 1800 1650 1750 
Q 2300 1650 2525 1437 
Q 2750 1225 2750 900 
z
" transform="scale(0.015625)"/>
      <path id="SimHei-2f" d="M 3000 4550 
L 350 -175 
L 100 -25 
L 2750 4700 
L 3000 4550 
z
" transform="scale(0.015625)"/>
      <path id="SimHei-43" d="M 2975 1825 
Q 2950 875 2575 475 
Q 2200 75 1675 75 
Q 1075 75 650 562 
Q 225 1050 225 2125 
Q 225 3300 637 3875 
Q 1050 4450 1700 4450 
Q 2250 4450 2612 4037 
Q 2975 3625 2950 2875 
L 2400 2875 
Q 2400 3425 2225 3700 
Q 2050 3975 1700 3975 
Q 1300 3975 1062 3562 
Q 825 3150 825 2175 
Q 825 1275 1062 912 
Q 1300 550 1675 550 
Q 1950 550 2175 812 
Q 2400 1075 2400 1825 
L 2975 1825 
z
" transform="scale(0.015625)"/>
      <path id="SimHei-68" d="M 2800 125 
L 2300 125 
L 2300 1925 
Q 2300 2225 2150 2400 
Q 2000 2575 1750 2575 
Q 1425 2575 1137 2237 
Q 850 1900 850 1400 
L 850 125 
L 350 125 
L 350 4400 
L 850 4400 
L 850 2400 
Q 1050 2675 1287 2825 
Q 1525 2975 1900 2975 
Q 2350 2975 2575 2725 
Q 2800 2475 2800 2100 
L 2800 125 
z
" transform="scale(0.015625)"/>
      <path id="SimHei-79" d="M 2900 2925 
L 1750 -100 
Q 1650 -450 1450 -625 
Q 1250 -800 950 -800 
Q 825 -800 712 -787 
Q 600 -775 500 -725 
L 500 -225 
Q 600 -275 700 -300 
Q 800 -325 875 -325 
Q 1075 -325 1150 -262 
Q 1225 -200 1300 25 
L 200 2925 
L 750 2925 
L 1550 725 
L 1575 725 
L 2350 2925 
L 2900 2925 
z
" transform="scale(0.015625)"/>
      <path id="SimHei-29" d="M 1675 2250 
Q 1675 1425 1362 775 
Q 1050 125 425 -475 
L 150 -200 
Q 725 325 1012 912 
Q 1300 1500 1300 2250 
Q 1300 3000 1012 3587 
Q 725 4175 150 4725 
L 425 5000 
Q 1050 4375 1362 3725 
Q 1675 3075 1675 2250 
z
" transform="scale(0.015625)"/>
     </defs>
     <use xlink:href="#SimHei-53"/>
     <use xlink:href="#SimHei-74" transform="translate(50 0)"/>
     <use xlink:href="#SimHei-72" transform="translate(100 0)"/>
     <use xlink:href="#SimHei-6f" transform="translate(150 0)"/>
     <use xlink:href="#SimHei-6b" transform="translate(200 0)"/>
     <use xlink:href="#SimHei-65" transform="translate(250 0)"/>
     <use xlink:href="#SimHei-20" transform="translate(300 0)"/>
     <use xlink:href="#SimHei-49" transform="translate(350 0)"/>
     <use xlink:href="#SimHei-64" transform="translate(400 0)"/>
     <use xlink:href="#SimHei-65" transform="translate(450 0)"/>
     <use xlink:href="#SimHei-6e" transform="translate(500 0)"/>
     <use xlink:href="#SimHei-74" transform="translate(550 0)"/>
     <use xlink:href="#SimHei-69" transform="translate(600 0)"/>
     <use xlink:href="#SimHei-66" transform="translate(650 0)"/>
     <use xlink:href="#SimHei-69" transform="translate(700 0)"/>
     <use xlink:href="#SimHei-63" transform="translate(750 0)"/>
     <use xlink:href="#SimHei-61" transform="translate(800 0)"/>
     <use xlink:href="#SimHei-74" transform="translate(850 0)"/>
     <use xlink:href="#SimHei-69" transform="translate(900 0)"/>
     <use xlink:href="#SimHei-6f" transform="translate(950 0)"/>
     <use xlink:href="#SimHei-6e" transform="translate(1000 0)"/>
     <use xlink:href="#SimHei-20" transform="translate(1050 0)"/>
     <use xlink:href="#SimHei-28" transform="translate(1100 0)"/>
     <use xlink:href="#SimHei-42" transform="translate(1150 0)"/>
     <use xlink:href="#SimHei-69" transform="translate(1200 0)"/>
     <use xlink:href="#SimHei-6c" transform="translate(1250 0)"/>
     <use xlink:href="#SimHei-6c" transform="translate(1300 0)"/>
     <use xlink:href="#SimHei-20" transform="translate(1350 0)"/>
     <use xlink:href="#SimHei-57" transform="translate(1400 0)"/>
     <use xlink:href="#SimHei-69" transform="translate(1450 0)"/>
     <use xlink:href="#SimHei-6c" transform="translate(1500 0)"/>
     <use xlink:href="#SimHei-6c" transform="translate(1550 0)"/>
     <use xlink:href="#SimHei-69" transform="translate(1600 0)"/>
     <use xlink:href="#SimHei-61" transform="translate(1650 0)"/>
     <use xlink:href="#SimHei-6d" transform="translate(1700 0)"/>
     <use xlink:href="#SimHei-73" transform="translate(1750 0)"/>
     <use xlink:href="#SimHei-20" transform="translate(1800 0)"/>
     <use xlink:href="#SimHei-2f" transform="translate(1850 0)"/>
     <use xlink:href="#SimHei-20" transform="translate(1900 0)"/>
     <use xlink:href="#SimHei-43" transform="translate(1950 0)"/>
     <use xlink:href="#SimHei-68" transform="translate(2000 0)"/>
     <use xlink:href="#SimHei-61" transform="translate(2050 0)"/>
     <use xlink:href="#SimHei-6e" transform="translate(2100 0)"/>
     <use xlink:href="#SimHei-20" transform="translate(2150 0)"/>
     <use xlink:href="#SimHei-54" transform="translate(2200 0)"/>
     <use xlink:href="#SimHei-68" transform="translate(2250 0)"/>
     <use xlink:href="#SimHei-65" transform="translate(2300 0)"/>
     <use xlink:href="#SimHei-6f" transform="translate(2350 0)"/>
     <use xlink:href="#SimHei-72" transform="translate(2400 0)"/>
     <use xlink:href="#SimHei-79" transform="translate(2450 0)"/>
     <use xlink:href="#SimHei-29" transform="translate(2500 0)"/>
    </g>
   </g>
  </g>
 </g>
 <defs>
  <clipPath id="p84ff2439fc">
   <rect x="46.325" y="24.1375" width="781.2" height="443.52"/>
  </clipPath>
 </defs>
</svg>
